<?xml version="1.0" encoding="UTF-8"?>
<svg width="800" height="600" viewBox="0 0 800 600" xmlns="http://www.w3.org/2000/svg"><rect width="800" height="600" fill="#FFFFFF"></rect><g><path d="M100.36597705975377 419.16647302756587 C236.3479048455395 418.42165274181224, 373.9127720766115 417.5122309291738, 699.4606403611882 420.3638468048945 M99.91046553599848 420.23462406507065 C285.6963661848479 417.36103210084815, 471.5672748582224 417.0231583785436, 700.3810810441411 420.3899388355543" stroke="#000000" stroke-width="2" fill="none"></path></g><g><path d="M212.75830158106353 298.89908735272144 C212.75830158106353 298.89908735272144, 212.75830158106353 298.89908735272144, 212.75830158106353 298.89908735272144 M212.75830158106353 298.89908735272144 C212.75830158106353 298.89908735272144, 212.75830158106353 298.89908735272144, 212.75830158106353 298.89908735272144 M213.11717489307009 308.16930767839233 C218.9032696875028 302.8932941003403, 222.26960206915106 298.05925257689086, 224.15698588250658 293.6312876270819 M214.14854952462923 308.007208217471 C215.72688273863974 305.9346542247634, 219.06309663343634 302.70845043814467, 224.76225139244517 295.7646168863009 M218.9703512854683 312.0629667761826 C222.15302815416936 308.6008124446846, 225.00332332211562 305.53376590103426, 228.78632830869907 302.14932127573854 M219.56719019842222 311.9618015491856 C222.41479193400733 307.92061320685883, 226.83706215578516 304.02750959218514, 229.06861216752517 301.64156837463975" stroke="none" stroke-width="0.9" fill="none"></path><path d="M225.2020424296811 295.1500538125311 C226.73413286367568 295.58952388127966, 227.75325588000814 297.991167649212, 228.2613583463911 299.78534517210346 C228.76946081277404 301.5795226949949, 228.73424444639983 303.9022814694435, 228.25065722797876 305.9151189498797 C227.7670700095577 307.9279564303159, 226.7953060662257 310.75443813602385, 225.3598350358647 311.8623700547206 C223.92436400550372 312.97030197341735, 221.52078279789555 312.96472377642215, 219.63783104581276 312.5627104620602 C217.75487929372997 312.1606971476982, 215.67034575341933 310.7511648675349, 214.06212452336803 309.45029016854875 C212.45390329331673 308.1494154695626, 210.2057246551629 306.5160913604662, 209.988503665505 304.7574622681432 C209.7712826758471 302.99883317582015, 211.34845801475797 300.4019425277498, 212.75879858542064 298.89851561461074 C214.1691391560833 297.3950887014717, 216.42329045237145 295.9521312557113, 218.450547089481 295.73690078930895 C220.47780372659057 295.5216703229066, 223.38353568168336 297.3651935880725, 224.92233840807796 297.60713281619655 C226.46114113447257 297.8490720443206, 227.65571751565938 297.1575869647482, 227.68336344784868 297.1885361580534 M220.42799598519915 293.82982897488023 C222.45102808702057 293.85456508277576, 226.36540642731137 296.0397576828826, 228.01389117177737 297.78836925719037 C229.66237591624338 299.5369808314981, 230.45611220423694 302.61907435206416, 230.31890445199514 304.32149842072664 C230.18169669975333 306.0239224893891, 228.7376514344033 306.7752593429333, 227.19064465832645 308.00291366916537 C225.6436378822496 309.23056799539745, 222.89284846115567 310.78427751337955, 221.03686379553415 311.68742437811915 C219.18087912991263 312.59057124285874, 217.48194211287705 313.88067014012086, 216.0547366645973 313.42179485760283 C214.62753121631755 312.9629195750848, 213.45454623642627 311.09025133833916, 212.47363110585567 308.93417268301107 C211.49271597528508 306.778094027683, 209.95763831702348 302.5733719981712, 210.1692458811737 300.48532292563436 C210.38085344532394 298.39727385309754, 211.73481178996028 297.34297562303345, 213.74327649075698 296.4058782477903 C215.7517411915537 295.4687808725472, 221.2067535517649 294.95135856418193, 222.2200340859539 294.8627386741758 C223.2333146201429 294.7741187841696, 219.9721522607008 295.54742623072644, 219.82295969589103 295.87415890775327" stroke="#000000" stroke-width="1.8" fill="none"></path></g><g><path d="M220.2255714439492 320.53558625531315 C218.70316472379835 327.4427067202445, 219.31640969397708 333.5019400974408, 219.2556479031001 352.84979291553725 M220.56356536822844 321.82661343834366 C220.72327379599832 333.3644284553398, 220.2932698288014 344.20326492274455, 219.20471238493352 353.2822442182118" stroke="#000000" stroke-width="1.6" fill="none"></path></g><g><path d="M218.93955803969286 353.7229390870076 C215.56774718566396 361.3274361451758, 213.39866748578075 367.47149186050603, 208.81046246491707 380.2011693524331 M219.03956156936465 354.744937740919 C216.2280221323457 364.9327777934769, 213.04699050054643 376.80678584169874, 210.7686242866668 382.1573477916342" stroke="#000000" stroke-width="1.4" fill="none"></path></g><g><path d="M218.7047049410763 355.33702803136987 C223.88903072516214 364.1845953015134, 225.84056272099753 371.2668922853663, 230.67683349008348 382.62731280165747 M220.37052768216705 354.9889314715281 C222.87177566398628 361.7260849611175, 225.19957359266934 368.59345967074137, 229.28899285633403 381.36292307459274" stroke="#000000" stroke-width="1.4" fill="none"></path></g><g><path d="M571.7221867943158 299.56357868661723 C571.7221867943158 299.56357868661723, 571.7221867943158 299.56357868661723, 571.7221867943158 299.56357868661723 M571.7221867943158 299.56357868661723 C571.7221867943158 299.56357868661723, 571.7221867943158 299.56357868661723, 571.7221867943158 299.56357868661723 M574.822528207939 306.0464646633068 C578.882983705831 303.2373423309296, 581.2917632155834 297.79845206014676, 583.7524758088643 296.4017176488913 M575.0642737927219 307.55441098333097 C577.0050178772249 303.86282811852436, 581.3987579027402 299.93785532964705, 584.4915632987619 295.55000220117864 M577.3214262796209 315.5501872111189 C582.4287876991605 309.0904881180954, 584.9210220443218 302.77865376703693, 591.1236467360039 301.32904526735985 M576.892319248572 314.774983544424 C579.608365269502 310.3504367388592, 582.9334698256644 308.4385866681136, 588.6878040710344 299.7043007639739" stroke="none" stroke-width="0.9" fill="none"></path><path d="M577.1131053871261 294.46708677750297 C578.758732053638 293.64239988979693, 580.6281077201618 293.86250005226754, 582.4293466790403 294.616594360511 C584.2305856379189 295.37068866875444, 586.9184083686409 297.1785472834146, 587.9205391403978 298.9916526269636 C588.9226699121546 300.80475797051264, 588.8614788160371 303.32924672902186, 588.4421313095812 305.49522642180494 C588.0227838031253 307.661206114588, 586.7037565275564 310.8518283966631, 585.4044541016623 311.98753078366207 C584.1051516757682 313.123233170661, 582.5935859649753 312.43603958164056, 580.6463167542169 312.3094407437988 C578.6990475434584 312.18284190595705, 575.288640701553 312.50066083254046, 573.7208388371117 311.2279377566114 C572.1530369726704 309.9552146806824, 571.5248399388449 306.67212018152327, 571.2395055675687 304.6731022882246 C570.9541711962925 302.6740843949259, 570.7134711120535 300.8774682124423, 572.0088326094547 299.23383039681926 C573.3041941068558 297.5901925811962, 577.3202472820087 295.5000358828806, 579.0116745519756 294.8112753944862 C580.7031018219425 294.1225149060918, 582.0900542785329 295.0913870928719, 582.1573962292559 295.10126746645295 M579.3545163513508 293.47116000534317 C581.3142560412198 293.1568666366011, 585.027167416833 295.2933722121885, 586.5953361673116 296.47958883662454 C588.1635049177903 297.6658054610606, 588.6316979003284 298.4741296608814, 588.7635288542231 300.58845975195925 C588.8953598081177 302.7027898430371, 588.3981640194364 307.3701357502631, 587.3863218906794 309.1655693830917 C586.3744797619223 310.96100301592026, 584.488290861166 310.96501181787494, 582.6924760816808 311.36106154893065 C580.8966613021955 311.75711127998636, 578.2706133382599 311.95341442240635, 576.6114332137679 311.54186776942606 C574.9522530892759 311.13032111644577, 573.6566484868451 310.21772733927463, 572.737395334729 308.89178163104884 C571.8181421826127 307.56583592282306, 571.0185068950775 305.5295409378076, 571.0959143010709 303.5861935200712 C571.1733217070644 301.64284610233483, 571.9869331076757 298.8639904715896, 573.2018397706898 297.2316971246306 C574.416746433704 295.5994037776716, 577.5468823544771 294.31151830803924, 578.3853542791561 293.7924334383174 C579.2238262038351 293.27334856859557, 578.1966761593425 293.7873359323508, 578.2326713187634 294.11718790629965" stroke="#000000" stroke-width="1.8" fill="none"></path></g><g><path d="M579.9026006609298 322.9250968571161 C579.4110174827376 329.1164744564981, 580.3989974686749 341.45308354664337, 581.9443428942844 352.02792363678316 M579.0184521986853 321.39481510784 C579.3753390519628 331.3694026096569, 579.7691528702574 340.1312653350997, 580.751582757774 353.2949026050719" stroke="#000000" stroke-width="1.6" fill="none"></path></g><g><path d="M581.1524412423757 355.6219825726939 C576.6796698174632 363.4258983717758, 573.3797006935174 374.85122564332323, 570.4533459360268 382.1152980244043 M580.3049094506617 353.90822344964886 C578.7952176088493 360.3239157756404, 576.804125459642 365.368594067869, 570.3375740785417 381.63598774707333" stroke="#000000" stroke-width="1.4" fill="none"></path></g><g><path d="M578.4495347958854 352.2709298796313 C582.3002462773428 365.39281967923574, 587.9634286765438 371.89517958692556, 589.9123469997568 381.5532727249392 M579.0152186209114 354.7048271840597 C583.5816918016021 363.5865809325804, 587.5934357836005 374.2372968308788, 590.6324693762463 382.0377446476706" stroke="#000000" stroke-width="1.4" fill="none"></path></g><g><path d="M281.1707441261705 381.2695696289596 C289.98075077600646 379.5112192777156, 299.767153815233 379.39624381062356, 308.8797694426958 380.1291988459229 M280.7350023854542 380.4553952141399 C291.3582497508868 379.80570385505587, 301.74663813050506 379.0180934426208, 308.3087599129391 380.4900338877322 M308.52878299099746 380.9990615201997 C307.92021310387435 383.3076990261386, 308.17822020483857 385.69699776877695, 308.06074703181116 393.26594025610336 M307.82932018895104 380.366535375376 C308.1538947961785 382.27971995708486, 308.48093796339606 385.439005398758, 307.5153492487797 393.8826199287459 M307.6218411643696 394.10706475356335 C301.79173121374015 393.9740537697109, 295.74627329310044 394.2899743875379, 281.04349861998594 393.23801604502796 M307.783594401821 394.47581079419786 C299.36933350354326 393.887236418561, 289.39311969962773 393.1558544893816, 280.4795487620536 394.2348150926233 M280.0260074828175 394.3171812151887 C280.55453527855207 390.54238686154525, 281.04141904468986 388.8409091559388, 280.13669140580856 380.1359863938821 M280.4935470059686 393.49927971177647 C279.55594198589114 391.1439513621617, 279.71070615231577 388.38272846260566, 279.82661536664637 379.87931068512626" stroke="#DAA520" stroke-width="1.6" fill="none"></path></g><g><path d="M311.8200515667108 378.4366271770328 C321.06179375077267 379.80983402891684, 329.1027417010831 378.8058799087501, 341.41535613336737 379.81174755589984 M312.16438740551774 380.3523411776697 C320.5750708817368 379.3719379491286, 327.96112998348036 379.79997018348155, 339.4685674195057 380.0077500919623 M341.1163526003554 379.2313286727069 C339.92413559774775 385.546865376147, 340.6481557843864 389.770220249515, 340.013318599727 394.4253914225243 M340.02114881205193 379.6379453411904 C340.54667975635056 383.8594166142693, 340.42079751678 387.07321049355744, 339.8777404727893 393.59634671159057 M341.55556254923044 393.98087279964716 C334.2147517237879 393.771164061226, 326.1020477615862 394.60268125534003, 313.59562101079763 394.5668047378422 M339.2057240400291 394.58808527785516 C329.71530083069564 393.3707778507885, 318.8208625463896 394.16039320507423, 312.5666437480917 393.71896553840566 M311.90765240815114 393.43364968946804 C311.7612568237286 390.50576974088534, 310.8559748135079 387.3407650057688, 312.8715249304761 379.65033982945613 M311.79471624398576 393.4865056488484 C312.36012664206135 390.25991794647, 312.30016465829505 386.55437948510047, 311.68575574998385 380.02683527386574" stroke="#DAA520" stroke-width="1.6" fill="none"></path></g><g><path d="M344.3891375401404 380.6417292451171 C350.2229210210491 379.58254899468193, 356.98802969276454 381.4697847915944, 372.02012192056964 381.1485811815181 M343.8066551996572 379.7120966496613 C351.6430790938655 380.3239232303995, 357.7562332901154 380.11640368534245, 371.9280533237562 380.79974227296213 M372.98704442224204 380.7851394154318 C372.5025510707722 385.5778885846508, 372.7893578539754 390.57136358749295, 372.01772621920554 393.38871891474054 M372.05773621732334 379.98618445060464 C372.25100344391285 383.047119488039, 372.24039513125655 386.68089314030686, 371.92995879685225 393.4404179765302 M371.9460440685376 395.3944467017852 C365.6797210003055 393.55632412668876, 360.46838677908283 393.5569699750655, 344.3584677981772 394.58308926978873 M372.04873022761683 393.92579245495955 C361.4868907099401 393.38590186906, 350.9337343306921 394.045277817424, 344.2250594175162 393.48186267282415 M343.54121024067456 393.6901072832356 C343.6225436990501 390.751565954986, 344.12296244270277 386.92826714683633, 344.45931779685606 379.97941682588186 M343.63760041962064 393.5095452637816 C344.26455256075343 389.81000640565287, 343.41425052722843 385.32745182774715, 344.00348559312266 380.14585244299406" stroke="#DAA520" stroke-width="1.6" fill="none"></path></g><g><path d="M374.58794916537425 380.0075630972144 C385.0323248047027 381.63659447320924, 394.97023626114424 380.49807335567016, 403.50138137698184 381.1285014604743 M376.310315461381 379.3796037542175 C384.61274436632533 379.45009581581894, 393.8286349067181 380.32511673515927, 404.45042267908576 379.2678167652633 M403.04848081779534 380.5450332343417 C403.96043968939904 382.84179943210233, 403.3075077096403 385.4287592587332, 404.20096044774306 394.5866506961433 M404.26601715428717 379.7014335013024 C404.3937737563967 385.2730062182128, 404.38461591272846 391.2994948236123, 403.5166885435628 393.4938746930257 M404.8985137831695 392.59985178184644 C398.237762356127 393.9600924187295, 389.8060043718535 394.02979502226754, 374.8814656074299 394.528638401828 M403.49633638195724 394.07884695120225 C396.8806006381942 394.4552785135565, 391.7523736008639 393.51206736877555, 375.92701446891937 393.92215383290556 M376.6135285885179 394.53318421676397 C375.8078042997612 391.089001555402, 375.80714649952455 385.5377354840862, 375.3758762613163 380.35792000789587 M376.05295302796185 393.70133433725584 C375.6439277715691 390.3752811104927, 376.2884214317652 386.56919971441715, 375.54452620550296 380.03684912241056" stroke="#DAA520" stroke-width="1.6" fill="none"></path></g><g><path d="M408.64641499550584 379.9061018803899 C415.5675535609453 378.988659651634, 424.6711847712483 381.5071494673072, 436.57173257838133 378.56130455517496 M407.69256316393574 380.1954606258916 C416.74265206189614 380.1729372054167, 424.8728198335771 380.1161746000926, 436.19351075064515 380.0070200642981 M435.86608197560423 381.09050301642924 C435.7476666297794 384.9139700006915, 436.2523757470719 389.5967930040178, 435.94602702193157 393.7564846779502 M435.59773600441486 380.3226791693541 C436.09976469503226 384.93868137750206, 435.7434042985537 390.27705276537307, 436.46129917198914 394.0397285827541 M435.0930100531661 393.74602210441714 C426.9014315073019 394.29806728965946, 420.01803869045807 393.591916556872, 406.5746342231011 394.2856302061077 M435.5018701946998 393.8589798224374 C429.0093651067491 394.8668874491901, 422.5979133354796 394.52959182207366, 408.42502411207437 393.7640069375872 M407.4280695763216 395.0050035378602 C406.93768141072235 390.35458542555784, 407.57005543224966 385.6248506346419, 408.9414623860546 381.0369750242393 M407.76014394344577 394.54439041369795 C408.3097437177146 389.45560945640347, 408.3116869210521 385.26954381221844, 408.40472847547846 380.0971131428501" stroke="#DAA520" stroke-width="1.6" fill="none"></path></g><g><path d="M279.5430494054049 393.6633450043042 C323.21062501475456 395.1499658835278, 364.77565297006737 393.59773270463995, 438.8810163161876 394.8157726202446 M279.7474336356817 394.41485443589016 C333.54055929214593 395.1705209831764, 386.50052266261804 394.5780470387532, 440.5501022658788 393.5276815085379" stroke="#DAA520" stroke-width="1.2" fill="none"></path></g><g><path d="M249.5924162986937 391.86909247000415 C249.5924162986937 391.86909247000415, 249.5924162986937 391.86909247000415, 249.5924162986937 391.86909247000415 M249.5924162986937 391.86909247000415 C249.5924162986937 391.86909247000415, 249.5924162986937 391.86909247000415, 249.5924162986937 391.86909247000415" stroke="none" stroke-width="0.6" fill="none"></path><path d="M249.30924589990673 392.1948427506288 C249.89229973805493 392.0860223961694, 251.13921449792036 392.59563748054916, 251.6503921420846 393.0400445072309 C252.16156978624883 393.48445153391265, 252.2673107228313 394.3971043141223, 252.37631176489208 394.86128491071946 C252.48531280695286 395.3254655073166, 252.55604948229487 395.38921883337383, 252.30439839444927 395.8251280868136 C252.05274730660366 396.2610373402534, 251.28597231765977 397.17172543517927, 250.86640523781844 397.47674043135817 C250.4468381579771 397.78175542753706, 250.1862528112265 397.9045717464014, 249.78699591540123 397.6552180638871 C249.38773901957597 397.4058643813728, 248.80151920861073 396.4984508250509, 248.4708638628668 395.98061833627224 C248.14020851712286 395.4627858474936, 247.76376614647128 395.0286832460714, 247.80306384093754 394.54822313121537 C247.8423615354038 394.0677630163593, 248.37891762257746 393.3977344943428, 248.70665002966433 393.0978576471359 C249.0343824367512 392.79798079992906, 249.53586270455384 392.73575376131447, 249.76945828345882 392.7489620479741 C250.0030538623638 392.7621703346337, 250.0687689930483 393.1537723902878, 250.1082235030942 393.1771073670936 M248.88958282826874 391.69440179631914 C249.25124717373888 391.60082278276536, 250.09275700651978 391.89151098145396, 250.7995325215095 392.265247125714 C251.5063080364992 392.638983269974, 252.96522954224213 393.43326643116313, 253.13023591820706 393.93681866187933 C253.295242294172 394.4403708925955, 252.22873603996385 394.62077454760265, 251.78957077729916 395.28656051001116 C251.35040551463447 395.95234647241966, 251.01151604054405 397.5607508367153, 250.4952443422189 397.93153443633037 C249.97897264389377 398.30231803594546, 249.2349061011314 397.6537486448051, 248.6919405873484 397.51126210770167 C248.1489750735654 397.36877557059825, 247.44706779775612 397.39285916988945, 247.23745125952087 397.07661521370966 C247.02783472128561 396.76037125752987, 247.36501274259084 396.27803587259444, 247.43424135793697 395.61379837062304 C247.5034699732831 394.94956086865164, 247.14296040592592 393.61407020607135, 247.6528229515976 393.0911902018812 C248.1626854972693 392.56831019769106, 250.21218796662185 392.5906557077757, 250.4934166319671 392.47651834548236 C250.77464529731236 392.36238098318904, 249.51950157390516 392.319222115168, 249.34019494366913 392.4063660281213" stroke="#DAA520" stroke-width="1.2" fill="none"></path></g><g><path d="M263.6382968170005 388.1788342053338 C263.6382968170005 388.1788342053338, 263.6382968170005 388.1788342053338, 263.6382968170005 388.1788342053338 M263.6382968170005 388.1788342053338 C263.6382968170005 388.1788342053338, 263.6382968170005 388.1788342053338, 263.6382968170005 388.1788342053338 M266.75459307396386 392.0469069778347 C267.2424159763263 391.5443717342188, 267.58009371533075 391.30037437482866, 268.8123568017808 389.7997007301853 M266.83151376284667 392.23950816457506 C267.1235119272446 391.75538540992113, 267.47487202890557 391.34708879543575, 268.65972956806405 389.98791498237745" stroke="none" stroke-width="0.6" fill="none"></path><path d="M266.2678533816536 387.9004577028132 C266.69074231745856 387.6750967980483, 266.58978783940415 387.41294120106795, 267.03794021023185 387.68462733815574 C267.48609258105955 387.9563134752435, 268.72960606022633 389.06629420434575, 268.95676760661985 389.5305745253399 C269.18392915301337 389.994854846334, 268.6164093374759 390.0349093245499, 268.4009094885929 390.47030926412054 C268.1854096397099 390.9057092036912, 268.1406592373934 391.88956869700576, 267.6637685133218 392.14297416276366 C267.1868777892503 392.3963796285216, 266.13713066511144 392.12096126475615, 265.5395651441635 391.990742058668 C264.9419996232155 391.86052285257983, 264.43430249694484 391.74502275899476, 264.0783753876339 391.3616589262349 C263.722448278323 390.978295093475, 263.4843959508485 390.2129231635191, 263.4040024882981 389.6905590621088 C263.32360902574766 389.16819496069843, 263.2225103659549 388.58293400452703, 263.59601461233143 388.22747431777276 C263.96951885870794 387.8720146310185, 265.295331776771 387.6896707001471, 265.6450279665571 387.5578009415831 C265.99472415634324 387.4259311830191, 265.61957567184834 387.333455832871, 265.6941917510483 387.4362557663888 M266.498558440993 387.6915568632019 C266.8798867279969 387.5918887948265, 267.2807863946471 388.0535034518132, 267.55559298320384 388.27479464488664 C267.83039957176055 388.4960858379601, 267.9298501026782 388.4058164976933, 268.1473979723332 389.01930402164265 C268.3649458419882 389.632791545592, 268.9252178922951 391.45455771475326, 268.8608802011337 391.95571978858254 C268.79654250997226 392.4568818624118, 268.41623257606926 391.89518497131075, 267.7613718253646 392.02627646461826 C267.10651107466 392.15736795792577, 265.54430374016584 392.74643229111757, 264.9317156969059 392.7422687484274 C264.3191276536459 392.73810520573727, 264.3614964312891 392.40015914517465, 264.0858435658049 392.0012952084775 C263.81019070032073 391.6024312717803, 263.13060574300766 390.95942001125945, 263.27779850400066 390.34908512824427 C263.42499126499365 389.7387502452291, 264.5003740275615 388.72551710544155, 264.969000131763 388.33928591038625 C265.43762623596444 387.95305471533095, 266.08269504159216 388.28417250926327, 266.0895551292093 388.03169795791246 C266.0964152168265 387.77922340656164, 264.90171585120623 386.82758790957786, 265.0101606574658 386.8244386022815" stroke="#DAA520" stroke-width="1.2" fill="none"></path></g><text x="400" y="560" text-anchor="middle" font-family="sans-serif" font-size="16" fill="#222" font-style="italic">"Trust doesn't rebuild through words. It rebuilds through patterns."</text></svg>