<?xml version="1.0" encoding="UTF-8"?>
<svg width="800" height="600" viewBox="0 0 800 600" xmlns="http://www.w3.org/2000/svg"><rect width="800" height="600" fill="#FFFFFF"></rect><g><path d="M240.0273627434818 259.9436447409203 C237.843367322193 267.08683273551213, 235.2283174060322 273.96258393613044, 230.4683383483612 289.25727638016116 M240.2854363902231 260.2709096924934 C237.0059645413553 268.47484827288906, 234.52076665908982 277.35117678249105, 230.81851199409596 289.3298573637262" stroke="undefined" stroke-width="1.5" fill="none"></path></g><g><path d="M230.6636400342473 289.8094405442304 C225.83647923095867 294.430175970355, 221.58345569310688 298.53544570769844, 208.73018935490927 309.63367244575176 M230.75985889397313 289.2031554401671 C222.84705511605267 297.0025474098384, 214.97972249893536 303.86573459953945, 209.0849969371819 310.0154872717143" stroke="undefined" stroke-width="1.5" fill="none"></path></g><g><path d="M209.26812061462257 310.4249002177462 C197.5246554319027 312.84599491161896, 186.5706135478377 314.964255166402, 179.93699596803773 316.33068321479647 M209.06921541099416 309.9271532432136 C202.60639973809722 311.086985996998, 196.33113048154962 312.9076415293603, 180.12652984028577 316.4637550940874" stroke="undefined" stroke-width="1.5" fill="none"></path></g><g><path d="M180.57928708256765 316.9172662919675 C172.18337136354685 314.2733570458182, 163.59557030329435 310.83818397034753, 152.0590457823646 307.75743919205695 M180.14744249161075 316.2460805989608 C169.13820703759222 312.95581573426773, 158.5832874729092 309.7234243390497, 152.56747173252194 308.02705008332845" stroke="undefined" stroke-width="1.5" fill="none"></path></g><g><path d="M152.72124997559328 307.73826077608135 C147.74547462201733 303.3520427858985, 144.23591653134798 299.50312262295586, 133.47447543730445 287.53225043067084 M152.27224414972218 307.83245583894177 C148.68741998372764 303.42207850549795, 144.41235485232315 299.2653333582565, 132.93463179302108 286.9431211502265" stroke="undefined" stroke-width="1.5" fill="none"></path></g><g><path d="M132.86943255020708 287.15163429664136 C132.59464107077287 281.7292869072154, 130.6869094303142 276.2764576084543, 126.79487619948456 260.5823714504909 M133.04328603198923 287.0975950195117 C131.40591454903924 278.40907074219996, 129.69801910479558 269.4536829497184, 127.0162860686069 260.10583473204224" stroke="undefined" stroke-width="1.5" fill="none"></path></g><g><path d="M127.68567950436541 259.7620133296576 C130.68245522180433 250.80626841622163, 132.6387310093762 241.38689802254683, 135.7836627346064 234.0368960412417 M127.09885959524037 260.06258925369355 C129.3831539191254 253.7851834893355, 130.97830250113586 247.81196387860683, 135.39709963147408 234.0097085942715" stroke="undefined" stroke-width="1.5" fill="none"></path></g><g><path d="M134.76706067000384 234.63463561845194 C140.09343228404293 229.74881242834283, 143.52345314181753 226.2072026587088, 154.21687176706584 216.591854482328 M135.51017125753174 234.22175777899776 C140.97538211757094 228.9921938004484, 146.93264536659217 223.94980941805147, 155.01110733045488 216.33599629273795" stroke="undefined" stroke-width="1.5" fill="none"></path></g><g><path d="M154.59622894599747 216.81877130707895 C162.42218375404568 214.14455652762052, 169.00908230079253 213.71983963287153, 180.28085789547828 210.99917333649944 M154.56316958030473 216.30686318485982 C161.0362901068751 214.77919807576416, 167.29444587599798 213.73299139549184, 180.10572859405363 210.59357203808872" stroke="undefined" stroke-width="1.5" fill="none"></path></g><g><path d="M179.85563213081275 210.71419405498716 C185.21996863920938 212.98340089548418, 191.62587291697227 214.30125981398697, 204.33478258274351 218.14652281816808 M180.11621161143924 210.78465164005968 C186.25365659740672 212.60531887753513, 192.55580235675606 214.4963914913011, 204.07132402592566 218.5426931581311" stroke="undefined" stroke-width="1.5" fill="none"></path></g><g><path d="M204.43573641867644 218.4086938254514 C208.7403489633895 223.5484607641991, 213.56863428326844 228.33303038146067, 221.01526382174873 237.0286463815966 M203.8516361179819 218.41205005244922 C208.79285377228243 224.1109075635827, 214.1227140864827 229.7564047390042, 220.61980910607235 236.89253824171166" stroke="undefined" stroke-width="1.5" fill="none"></path></g><g><path d="M221.00070760008705 236.9588304363345 C221.27998163356278 242.66822645968335, 222.47247083028216 247.77382339460962, 225.8381137314576 259.4236092485623 M220.29683488798196 236.72179228526602 C222.33746623630157 243.7058342093169, 223.39868991806966 250.99519974345213, 225.57892719282503 259.92293509734793" stroke="undefined" stroke-width="1.5" fill="none"></path></g><g><path d="M225.68284578340445 259.5952191071818 C223.56175562627865 267.59812730180624, 220.45484764019207 274.4293740640618, 218.71116797608823 282.6958669773628 M225.87822077149022 260.1457332593708 C222.88457567155683 267.7924218535283, 220.1875333112394 276.2132005060973, 218.44519148255168 281.9933646703842" stroke="undefined" stroke-width="1.5" fill="none"></path></g><g><path d="M218.00741728474986 282.0340812707685 C212.2343795580854 287.4824220592123, 206.79171697550873 292.56461858251214, 201.16249619388518 297.3734644196467 M218.7286043947605 282.09288480067727 C212.0388357729464 287.66490703127886, 206.22186315237872 293.42410567577895, 201.76577440105783 297.38634341402144" stroke="undefined" stroke-width="1.5" fill="none"></path></g><g><path d="M201.41382267084748 297.3369856579759 C193.5140715663754 298.7071388478195, 185.86452781255252 300.2875937886922, 179.54880082316396 302.57693898653605 M201.39827166689744 297.5032497364206 C196.9347948400938 298.17304272962207, 192.2668601552252 299.62285193877227, 180.11652457415758 302.06619376104885" stroke="undefined" stroke-width="1.5" fill="none"></path></g><g><path d="M180.133154882216 301.8682790243495 C173.36707707094305 300.22228590411004, 166.6390018846753 298.0458195446262, 160.063341535891 295.4301975004651 M179.91482340512874 301.9778607665699 C172.55681789839898 299.73210382859963, 165.03190406320672 297.17143635820776, 159.87680233135964 295.4199341861423" stroke="undefined" stroke-width="1.5" fill="none"></path></g><g><path d="M159.48030006193525 294.8753515267879 C156.476886091877 292.2608117408689, 153.83736633502525 289.1116289534328, 145.2935749241214 279.4536469768132 M159.82571031985435 295.4868732091054 C154.4281320312521 289.5434028157369, 149.03215591724168 283.94776051293536, 145.96866600163798 279.736498473948" stroke="undefined" stroke-width="1.5" fill="none"></path></g><g><path d="M145.8599005717732 280.02835127837363 C144.10481049311795 272.3665034402182, 142.50250588339338 264.9361637607074, 142.03697204094817 260.57120034212 M145.82725017195853 279.6377661962151 C144.72756734997927 275.7115063099782, 143.62480489624738 271.09761230687707, 141.50731306878046 260.06543029649" stroke="undefined" stroke-width="1.5" fill="none"></path></g><g><path d="M141.35332361582974 259.58100541115186 C143.16197878346458 254.93940989576748, 145.00623344594467 249.1338279434866, 148.25294315178746 241.19276007791538 M141.3575006029336 259.7097648651804 C142.76690600553056 255.99770553096616, 144.2979527972647 251.7155610270408, 148.06198982594032 241.5477153248909" stroke="undefined" stroke-width="1.5" fill="none"></path></g><g><path d="M147.40442424255045 241.69954467243892 C153.00534128243572 236.7355259618178, 158.05794278329296 232.63795329891227, 161.63376897172424 228.6565126410945 M147.8266967213553 241.64174751538818 C152.50728310618084 237.26448821040648, 156.68541661693558 233.21997508279387, 162.11601041913693 228.59813167597986" stroke="undefined" stroke-width="1.5" fill="none"></path></g><g><path d="M162.08266992588318 228.69425065849035 C167.78499762377842 228.05385509305034, 172.86445674733085 226.63817028824974, 179.7753814079196 225.32466231695258 M162.26520218890357 228.75069415185442 C168.0372364560806 227.3521725349859, 173.83694454179027 226.6147121059484, 179.8230115782349 225.17299912848503" stroke="undefined" stroke-width="1.5" fill="none"></path></g><g><path d="M180.20787463304086 224.6986951009403 C183.4426860243483 226.78404937927002, 186.6808643093326 227.12515329956918, 197.25893887337926 230.6329635254168 M179.95869240685738 225.02740168205236 C185.97331734802066 227.30717251754763, 191.62600966803333 228.91330184378614, 196.55759821607992 230.86535288440308" stroke="undefined" stroke-width="1.5" fill="none"></path></g><g><path d="M197.13697809832183 230.68444202039 C199.851030093644 234.46194624555125, 202.84156591760006 238.04848229473905, 207.9086066615368 243.6796890629992 M196.6240777286512 230.93284041555853 C200.8855628924972 235.23318003798798, 204.4930270417692 239.71552860752882, 207.8057879730139 243.68581558515433" stroke="undefined" stroke-width="1.5" fill="none"></path></g><g><path d="M208.50150643032646 244.25580922268162 C209.19071570948833 249.73014851679903, 210.0968327415384 255.07161787677668, 211.00981809420847 260.22044846062687 M208.26383557183914 243.5787937217065 C209.13458864672035 248.15629567122951, 209.50473871304783 252.39810622924193, 211.19395026151318 260.09378649764807" stroke="undefined" stroke-width="1.5" fill="none"></path></g><g><path d="M520.4964879660115 260.1985362094823 C518.9871279365606 263.944040846377, 519.0985393943441 267.45854770253374, 517.0503662741552 277.4807365568513 M519.9437184137257 260.15321276188206 C519.2314752888598 265.91476816822745, 518.0477768037683 271.1767228575457, 516.9436600671115 277.1062048195456" stroke="undefined" stroke-width="2" fill="none"></path></g><g><path d="M516.4760930698541 277.42544754334386 C514.4321988851478 280.5949942598898, 512.3727318442948 284.60444980337064, 508.329611361149 292.04080968314486 M516.8758152382924 277.2466188551597 C514.6236258204807 281.19624798801016, 512.0320463604904 285.64041976976176, 508.5017968046479 292.0427480423554" stroke="undefined" stroke-width="2" fill="none"></path></g><g><path d="M507.8797658246496 292.3673268186012 C503.86653055673656 296.2269232206249, 499.10822201030913 300.5289423564133, 494.7890266624433 303.1427190700162 M508.3783965082904 292.0299379068225 C504.7572570616666 294.88608421255475, 501.09460179225283 297.94589288285647, 494.9253734575133 303.42857097736066" stroke="undefined" stroke-width="2" fill="none"></path></g><g><path d="M495.48103832913614 303.18162883739046 C490.5939693062526 305.17001770671914, 486.13059033748726 306.3889541841151, 478.87368022615203 309.3145968269542 M495.0090048633969 303.2201718652786 C489.4608152222845 305.22454763048927, 483.95001908279283 307.0635024992567, 478.6727223829001 309.09034681801086" stroke="undefined" stroke-width="2" fill="none"></path></g><g><path d="M479.05534417823105 308.9900687379663 C472.8130651161737 308.85326561038676, 466.91023819853797 309.4084072288725, 461.0911594876253 309.4161148182551 M478.7222532685528 309.01764241978873 C472.59196905884005 309.3460961552679, 466.267201644353 309.2999165554419, 461.2514261836914 309.2985796745543" stroke="undefined" stroke-width="2" fill="none"></path></g><g><path d="M461.2574614708419 309.21157728681965 C455.8375420213523 307.1579705482426, 451.2571240746716 305.1699113884712, 444.84122532429296 302.9633264741393 M461.23009552062706 309.4763516364542 C456.48622783467397 307.59547146042314, 451.65412013218946 305.7109067783082, 444.7482186586864 303.4866905532545" stroke="undefined" stroke-width="2" fill="none"></path></g><g><path d="M445.26496502456945 303.40268249361503 C441.72920791401674 300.7791518255193, 438.3730332476259 297.26150486913275, 431.85140746509705 292.528874589769 M444.7728519984697 303.53387983387745 C441.2617055423289 300.0481040527229, 437.07427541212036 296.77926620148935, 431.77228054423665 292.1945587517894" stroke="undefined" stroke-width="2" fill="none"></path></g><g><path d="M431.9383329381796 292.3592322680486 C429.09222286762053 286.5833837990206, 425.2384856501583 281.7207784399662, 423.35625989907624 277.32545873075685 M431.9482563016914 291.94797251706694 C429.31520043540394 288.1329395967825, 427.2546969440589 284.26206212298183, 423.039943790763 277.15433425975135" stroke="undefined" stroke-width="2" fill="none"></path></g><g><path d="M422.5683833984055 277.17971060218275 C422.0611709982461 271.20538740177125, 420.9619645432267 265.222593178307, 420.2875968173261 259.5086802943358 M423.1806626269409 277.31656200152145 C421.7899465978833 271.76128838584737, 421.29955316773345 266.36265624140214, 419.97605282133657 259.8912344394386" stroke="undefined" stroke-width="2" fill="none"></path></g><g><path d="M420.3801826141299 259.6824742652219 C421.1935703940345 255.84544286805115, 421.9133831617256 251.82125153662594, 422.71714096466206 243.29464670859446 M420.146895342247 259.76098593321007 C420.78104765806137 255.14487731971212, 421.5382083957809 250.0476985144925, 422.9572169147307 242.75105030523292" stroke="undefined" stroke-width="2" fill="none"></path></g><g><path d="M423.16013381429576 242.40306873706942 C425.37205522709394 239.3889173676251, 426.4810215865621 235.88530782799884, 431.6648927890676 228.247088400028 M422.8522518588342 243.00638269991967 C425.935188500864 238.35593737056686, 428.1744323784423 233.59052266897893, 431.7722997682639 228.09279511545026" stroke="undefined" stroke-width="2" fill="none"></path></g><g><path d="M431.75806012506746 227.50035572189086 C435.2950450512982 224.12853358519928, 440.4121354043631 221.38044332696586, 444.78520449413577 216.55903103046552 M431.6090915132763 227.91157828582516 C435.56495965021253 224.35142107961414, 439.80795117763876 221.10700768658285, 444.85495203431225 216.56837094122133" stroke="undefined" stroke-width="2" fill="none"></path></g><g><path d="M444.6036482137332 216.72118876747896 C450.3685597417246 214.3677084709281, 455.6364789250209 212.89888455879543, 461.0269598516218 211.06105892273203 M445.1148120131716 216.81225429961313 C451.04935064959255 214.22989016021634, 457.1096407551554 212.05648411903007, 461.40832278900706 210.5055287403758" stroke="undefined" stroke-width="2" fill="none"></path></g><g><path d="M461.7880855716686 210.50078609717175 C466.7549514591159 210.77751716123598, 472.3738559834009 210.32951264133595, 478.69478395857686 210.96238763943066 M461.0618912487305 210.68628469990037 C465.16750843648174 210.9483282860044, 468.66036241767193 210.77557237501145, 478.75899604883904 210.71039537940845" stroke="undefined" stroke-width="2" fill="none"></path></g><g><path d="M519.9180856886161 261.850705298167 C529.7566884907543 251.1016936166838, 538.9787013473122 242.15681237081355, 550.1597365427191 231.48057758945643 M520.186697825344 260.0192523342141 C525.7879722368674 253.78993490641142, 532.7003465446461 246.95252832601992, 549.3793383698501 230.2541137231937" stroke="undefined" stroke-width="2.5" fill="none"></path></g><g><path d="M541.3944518653461 232.21887303644368 C543.7663841197132 231.88979261725333, 545.2654916292506 230.72933936210237, 550.6369240451876 230.06301800173765 M541.6614037671367 232.27544250737765 C544.5596019657874 231.6330713082255, 546.9366556983691 230.42076979206087, 549.8766046541793 230.39005570625616" stroke="undefined" stroke-width="2" fill="none"></path></g><g><path d="M548.6455945397603 238.12642481755714 C549.3340247857337 235.6947223685196, 549.9595351705132 231.6918885818573, 549.5941358901068 229.31740848667073 M547.6661184688696 237.9060661512015 C548.8857533193037 235.97108616865327, 548.9944578201583 233.23144607564646, 549.8794417026312 229.7265769389201" stroke="undefined" stroke-width="2" fill="none"></path></g><g><path d="M345.02705652563435 159.47606713052951 C345.02705652563435 159.47606713052951, 345.02705652563435 159.47606713052951, 345.02705652563435 159.47606713052951 M345.02705652563435 159.47606713052951 C345.02705652563435 159.47606713052951, 345.02705652563435 159.47606713052951, 345.02705652563435 159.47606713052951 M346.93149065911047 171.54969170201372 C347.5648945349022 167.61736971597213, 351.7615024245521 165.51925125179653, 355.105391527928 161.62163021837634 M346.40036375926815 170.81281588346394 C348.3851613750248 168.74497125434422, 349.8590325987846 165.28526382806663, 354.0845162565222 161.44096738034398" stroke="none" stroke-width="1" fill="none"></path><path d="M350.80228528080795 157.5860442022861 C352.18891147697764 157.71327416986287, 353.13501061112504 159.17463079415603, 354.0216657451799 160.16130656912568 C354.9083208792348 161.14798234409534, 355.8360464020646 162.10073034108382, 356.1222160851371 163.50609885210395 C356.4083857682096 164.91146736312407, 356.2462241787167 167.41788586040096, 355.73868384361487 168.5935176352465 C355.231143508513 169.76914941009207, 354.38237697276884 170.0435490058034, 353.0769740745259 170.55988950117728 C351.7715711762829 171.07622999655115, 349.5366690818993 171.8454400760844, 347.90626645415705 171.6915606074897 C346.2758638264148 171.53768113889498, 344.14125909565035 171.01329347748265, 343.2945583080725 169.63661268960894 C342.44785752049467 168.25993190173523, 342.5627392656587 165.09564944663512, 342.82606172869 163.43147588024738 C343.08938419172125 161.76730231385963, 343.49907308710294 160.3875003764178, 344.87449308626026 159.6515712912825 C346.2499130854176 158.9156422061472, 349.64306042301484 159.16154652303365, 351.07858172363376 159.0159013694356 C352.5141030242527 158.87025621583754, 353.4232100304655 158.88148924320012, 353.4876208899739 158.7777003696942 M351.02817319934394 159.03112570817464 C352.6993794441097 158.97117803191992, 355.57939634447416 158.9239784763565, 356.59094258420566 160.15906393269069 C357.60248882393716 161.39414938902488, 357.5717289800798 164.85875723331935, 357.09745063773283 166.44163844617978 C356.62317229538587 168.0245196590402, 355.0712431226737 168.91635938289102, 353.745272530124 169.65635120985323 C352.4193019375743 170.39634303681544, 350.6603008653 170.5833315605622, 349.1416270824346 170.881589407953 C347.6229532995692 171.1798472553438, 345.50264286494513 172.06268538133224, 344.63322983293153 171.4458982941981 C343.76381680091794 170.82911120706393, 343.88906753539675 168.9570977079179, 343.92514889035294 167.18086688514808 C343.96123024530914 165.40463606237824, 344.1915881428451 162.48413295389707, 344.84971796266865 160.78851335757906 C345.5078477824922 159.09289376126105, 346.4646664765252 157.23829043457633, 347.8739278092943 157.0071493072401 C349.28318914206335 156.77600817990387, 352.6350148983152 159.0714848653329, 353.30528595928314 159.40166659356166 C353.9755570202511 159.7318483217904, 352.16380503240464 159.26193211171434, 351.89555417510184 158.9882396766126" stroke="#000000" stroke-width="2" fill="none"></path></g><g><path d="M350.51501823992743 177.11763604288745 C348.94184420065335 186.96046482863707, 348.8941981107522 196.00231834157964, 348.81067222182537 210.2949978833841 M349.5877238684528 179.04270064970618 C350.7324111942869 190.9048424144594, 349.89534639627374 203.30988282972004, 350.6093463314435 209.9080333311194" stroke="#000000" stroke-width="2" fill="none"></path></g><g><path d="M318.3809902882017 188.5320335871794 C341.7675954356197 190.14422253197895, 362.7463089492091 190.7053874901892, 379.04446108542993 191.59733801633544 M320.25746842371467 189.30743356192562 C333.8833513865104 190.62078007171473, 346.91394076540814 189.65555225451942, 379.67905646337823 190.49367444301234" stroke="#000000" stroke-width="1.8" fill="none"></path></g><g><path d="M349.0616464199841 341.623487846129 C349.754985670053 344.9664816630549, 350.80656310502934 350.73959355148804, 351.0851313244324 360.96475070781065 M350.46837717279567 339.31667062780275 C349.4068393390479 343.97852330983704, 349.7895428412801 348.34676196550197, 349.98223345230366 360.6998696000953" stroke="#000000" stroke-width="1.5" fill="none"></path></g><g><path d="M318.1410105184737 358.2671190403824 C330.8440919158139 359.78974502733683, 344.9456801904218 357.8624352717785, 379.91860099781 360.61873051119875 M319.51350505699816 360.5416326266686 C332.9335470113618 359.22117914942396, 343.9988384613486 359.6197335005973, 379.3257073978713 360.00325827657264" stroke="#000000" stroke-width="1.5" fill="none"></path></g><g><path d="M317.81835037448155 362.4011215828403 C317.81835037448155 362.4011215828403, 317.81835037448155 362.4011215828403, 317.81835037448155 362.4011215828403 M317.81835037448155 362.4011215828403 C317.81835037448155 362.4011215828403, 317.81835037448155 362.4011215828403, 317.81835037448155 362.4011215828403 M318.4760773318106 368.8277122422713 C319.6303636008795 366.8431747562026, 321.4758932018683 365.2145952935441, 324.18470581646903 362.5474781219438 M318.3685403917593 368.0255410312202 C320.46209240542333 365.6204721908903, 321.65339062147115 363.7409172031389, 323.1187845894992 362.034044902993" stroke="none" stroke-width="0.5" fill="none"></path><path d="M319.3437847152863 361.2812102821702 C320.41056756899303 361.2172477041207, 322.3015304015389 360.8123098525456, 323.1252279667192 361.4304504149451 C323.9489255318995 362.0485909773446, 324.1927687599038 364.1465323098625, 324.2859701063679 364.9900536565671 C324.37917145283205 365.83357500327173, 324.3255594344755 365.95432176039697, 323.68443604550396 366.4915784951728 C323.0433126565324 367.02883522994864, 321.44056730100573 367.9823055123177, 320.43922977253845 368.213594065222 C319.4378922440712 368.44488261812637, 318.37746247082157 368.0487166045969, 317.6764108747003 367.8793098125989 C316.97535927857905 367.70990302060085, 316.4681759381156 367.74651687435147, 316.2329201958108 367.19715331323385 C315.99766445350593 366.64778975211624, 316.02654176954985 365.35266825595204, 316.26487642087125 364.58312844589324 C316.50321107219264 363.81358863583444, 317.10576714316926 363.3131456109251, 317.66292810373903 362.57991445288104 C318.2200890643088 361.84668329483696, 318.8920143796605 360.44091083087403, 319.6078421842898 360.18374149762883 C320.32366998891905 359.92657216438363, 321.9191699478567 360.8832841127065, 321.9578949315146 361.03689845340995 M320.34405654909636 361.3850562931036 C321.56412982323957 361.37244156991505, 323.19259259893215 361.36615611448235, 323.8769110797688 361.89750685121254 C324.5612295606054 362.42885758794273, 324.3721986176625 363.8173547799381, 324.44996743411605 364.5731607134847 C324.5277362505696 365.3289666470313, 324.9213627625887 365.59794307855736, 324.34352397849 366.4323424524922 C323.76568519439127 367.26674182642705, 322.1395901356955 369.02675541319314, 320.98293472952383 369.57955695709376 C319.82627932335214 370.13235850099437, 318.13304455983075 370.32465566637364, 317.4035915414597 369.74915171589583 C316.6741385230887 369.173647765418, 316.72416150489033 367.26509446695036, 316.60621661929747 366.1265332542269 C316.4882717337046 364.98797204150344, 316.31802430452876 363.50244659779344, 316.6959222279025 362.9177844395549 C317.0738201512762 362.3331222813164, 318.1103333185488 362.92586292922715, 318.8736041595398 362.6185603047956 C319.63687500053084 362.31125768036406, 321.1364362326405 361.4700175320129, 321.27554727384853 361.0739686929655 C321.41465831505656 360.67791985391807, 319.7650092021113 360.39069042442196, 319.70827040678785 360.24226727051104" stroke="#000000" stroke-width="1" fill="none"></path></g><g><path d="M377.73204677405465 360.1577705492358 C377.73204677405465 360.1577705492358, 377.73204677405465 360.1577705492358, 377.73204677405465 360.1577705492358 M377.73204677405465 360.1577705492358 C377.73204677405465 360.1577705492358, 377.73204677405465 360.1577705492358, 377.73204677405465 360.1577705492358 M375.9111595081712 367.67253783419744 C377.3692449105597 366.3324042615046, 380.4247305857056 364.56026827066137, 381.04968104711537 362.10721845805335 M376.29320088179065 368.39773856006616 C378.0773543071622 365.78414870216983, 380.05230944193846 363.4813869483502, 381.4354996192837 362.1866404284251 M381.6824264362776 367.647008419015 C382.3091271965777 366.75482777691303, 383.3773620017426 365.62184958351355, 384.505125349677 364.5536104492278 M381.960654098506 367.505117629857 C382.56226933278305 367.03104838755473, 383.20285547007546 365.97853012828597, 384.32719849396295 364.77945525920563" stroke="none" stroke-width="0.5" fill="none"></path><path d="M381.26261582980203 362.16308543447064 C381.96350850748337 362.15632563814313, 382.7531766315483 361.6745261658375, 383.35081272359486 362.19138503554365 C383.9484488156414 362.7082439052498, 384.79131335208626 364.3448223703672, 384.8484323820815 365.2642386527076 C384.90555141207676 366.183654935048, 384.48538487422894 367.24789875611276, 383.6935269035664 367.707882729586 C382.9016689329039 368.16786670305925, 380.992912971144 367.81487412803716, 380.09728455810637 368.02414249354695 C379.20165614506874 368.23341085905673, 379.0833805874671 369.127554023678, 378.3197564253406 368.96349292264466 C377.55613226321407 368.79943182161134, 375.88498578715325 367.95958978677345, 375.51553958534726 367.03977588734705 C375.14609338354126 366.11996198792065, 375.78771731572687 364.52942614025505, 376.1030792145045 363.4446095260861 C376.4184411132821 362.3597929119171, 376.6834783103856 360.9057468505549, 377.4077109780128 360.53087620233333 C378.13194364564 360.15600555411174, 379.5919580843935 361.1297449828821, 380.4484752202676 361.19538563675667 C381.30499235614167 361.26102629063126, 382.384167163807 360.68678149200395, 382.5468137932573 360.9247201255808 M381.73378252510406 360.31446082031886 C382.84115345000123 360.39226728443634, 383.9461887099922 362.4594025224225, 384.54176433064276 363.2103998419455 C385.1373399512933 363.9613971614685, 385.505230284377 363.9179386285006, 385.30723624900736 364.82044473745674 C385.10924221363774 365.72295084641286, 384.2401703831404 367.96184404528157, 383.353800118425 368.62543649568227 C382.4674298537096 369.28902894608296, 381.2371888711835 368.9622403039308, 379.9890146607148 368.8019994398609 C378.74084045024614 368.64175857579096, 376.4771445154953 368.1442543469203, 375.864754855613 367.6639913112626 C375.2523651957307 367.18372827560484, 376.0638551037756 366.56787761706863, 376.31467670142115 365.9204212259146 C376.5654982990667 365.27296483476056, 376.80022838409934 364.6079270101311, 377.3696844414864 363.7792529643384 C377.9391404988735 362.9505789185457, 379.0751351808584 361.0683300716663, 379.7314130457435 360.9483769511586 C380.38769091062863 360.8284238306509, 380.8950323728527 362.9959291624258, 381.307351630797 363.05953424129194 C381.71967088874123 363.1231393201581, 382.115964222573 361.5234100781007, 382.205328593409 361.33000742435536" stroke="#000000" stroke-width="1" fill="none"></path></g><text x="400" y="560" text-anchor="middle" font-family="sans-serif" font-size="16" fill="#222" font-style="italic">Permanent punishment is mutual suicide in an infinite game.</text></svg>