<?xml version="1.0" encoding="UTF-8"?>
<svg width="800" height="600" viewBox="0 0 800 600" xmlns="http://www.w3.org/2000/svg"><rect width="800" height="600" fill="#FFFFFF"></rect><g><path d="M0 460 C41.10065200754613 452.8637635411018, 77.24590603109775 450.56292118428144, 118.44538578907502 462.16107237273263 M2.3291027539305675 462.0121937724861 C37.82013219526971 455.3418354147899, 80.19262969192285 450.2411222380581, 117.335590450804 459.91985033476493 M120 460 C161.76069229038612 469.15419897008724, 200.61804185703397 467.96200468289925, 238.69707536805433 458.69240530586785 M117.33672712405063 457.78954424284444 C160.0164002986133 466.6020784786019, 200.27452957971107 468.8910310758573, 242.2866286647268 457.91946136146936 M240 460 C282.5988443417335 453.0443510993682, 319.89030990339705 453.56015791888944, 358.21028906128055 462.4175218564371 M239.81029436887584 460.75027108000563 C283.18581560907074 456.0003979805096, 322.85462099474245 453.90813483936324, 362.3775844271673 463.0823536267107 M360 460 C401.4416481494685 467.90130962212123, 437.70973321390795 467.65765642969023, 479.79742045330283 461.239259397633 M360.8733564837561 461.4804819171962 C403.05094725608586 467.00025294510624, 438.6946243772948 463.52000292720845, 480.3141307155083 463.1452342418064 M480 460 C520.1953743653625 451.20895882789824, 557.3965375709431 454.1150406234448, 602.2217650094955 460.09735645525075 M481.6547470398999 457.91704844613173 C518.1272039120121 455.1854489178994, 558.6540090847923 451.53152510648255, 598.2243961250983 457.22484377333103 M600 460 C641.1280931727081 469.28400857352227, 678.345283263366 466.45698045552626, 719.2111965185329 458.1748240653413 M598.9936625065087 457.81982739109213 C642.3094913097159 468.87466374798765, 678.5431427103775 469.39351305676564, 722.1296326509093 457.9093931046909 M720 460 C758.4058190045583 455.0784703327976, 797.6433642978811 453.94207571442104, 837.6626337087484 461.46598322031787 M717.9468993461694 459.794015354604 C761.0117327049364 450.6103245458338, 802.307522773776 453.0605830879344, 842.5014949986104 462.07526344448405" stroke="#4A90D9" stroke-width="1.6" fill="none"></path></g><g><path d="M0 476 C41.15006258596361 468.80158263400824, 78.34153513656447 470.75963567791155, 117.4639403351911 473.8118301411913 M-0.8886019719704275 474.11665627580845 C38.83906161823185 466.6500790379536, 78.23284365207792 470.22638673208775, 120.65116115411024 475.13282567727896 M120 476 C158.1155542996833 482.1018102607911, 201.56034776143505 481.13286635047973, 238.93752028689633 474.8450712818546 M120.6279797465037 475.54009296571263 C159.45249060559559 485.39902123244616, 199.18975282299888 481.72575405929666, 242.71954277895813 473.75143265828376 M240 476 C278.7913184485323 468.8843077336399, 317.2004555416612 471.1406328808421, 357.77987250411405 478.3029519358023 M238.87951605795595 474.6291860593671 C278.0026484349848 470.55255039222186, 320.4349274437488 470.4893537836051, 359.69521730009967 476.72765839489796 M360 476 C398.0620046602251 483.1839831588543, 442.51423610159384 480.5171726727394, 477.63694260034583 478.43193075337643 M362.7961962866649 478.524514340952 C402.23746567218154 482.3106813549818, 440.7035397127504 481.61274838029476, 477.7472133177747 475.7986235116536 M480 476 C518.0488864154084 468.7275167777451, 557.3789052492039 468.52929872534554, 601.5937392087742 474.26179749614704 M482.5954336691623 474.5320889869502 C519.4351385906374 467.2607568204698, 557.6670037766669 468.294066047291, 599.9916525107193 474.8505732120188 M600 476 C638.3350150675664 484.1391041154887, 680.9582148033741 480.72745189058566, 719.3729347052619 474.58365104804045 M598.7938344266977 473.4078817397521 C641.1662647737588 483.3960195986361, 679.6335809098259 482.27441209920227, 719.2616366133691 478.90663364464024 M720 476 C760.1907772468635 467.48585496418, 799.9673182093447 466.97660065947616, 839.2045870185524 476.5890760231078 M722.5348406483289 475.00931340943083 C761.3714550537914 467.9326240397546, 797.3515082241069 466.97622881911775, 837.0611363244171 477.3509861376583" stroke="#4A90D9" stroke-width="1.6" fill="none"></path></g><g><path d="M0 492 C37.58106280661079 485.7536051761331, 82.57678691597164 487.73796266820284, 121.8168386263257 490.89622247683855 M2.779718477328722 494.692198525209 C42.65017943063596 486.3369382837424, 79.17811705179076 483.41594351720835, 121.86572331435804 491.76614520381025 M120 492 C158.24530946591963 497.0229798549224, 197.5661865864765 499.8268192859628, 240.2288750074512 491.81651841647056 M118.88275468081825 490.0232234849386 C160.4966697816439 500.47624435459176, 197.1596382936185 500.2991985322691, 238.2432037872978 490.2466514060709 M240 492 C278.235117709336 486.56471420327017, 321.36729521500337 483.7173880095083, 358.16241690278207 493.44608335459174 M237.5667491176953 494.1451265323969 C279.54636555781826 486.0913078999725, 320.2936187956874 488.00544481483007, 361.2509168536917 492.0681121268916 M360 492 C397.65337775929834 498.8810595614063, 440.66286683364757 497.35802411535536, 479.30354546036517 490.5062717037399 M362.4671277621321 490.6113029426429 C403.0383517677681 496.19556801986283, 439.4800397348314 500.7006374499368, 477.5011864224354 494.08069323861463 M480 492 C518.6471734249506 484.0791466660356, 557.6398261121034 486.09091393212776, 598.017989183458 489.81215338849165 M479.5379526325699 491.13459179918505 C520.0066162304311 484.711005064622, 561.939604828112 486.88774017908815, 597.3401331843645 493.61141642465407 M600 492 C639.7942836222708 496.6916452804536, 678.1628789384464 497.7542895179301, 718.0997364025535 493.11726332152364 M597.6392738478811 489.31792107038626 C640.1351324708272 495.69413072216173, 681.4489370774387 501.2003502268749, 721.9581487224964 489.36787548426264 M720 492 C758.2988093321483 482.74295638434336, 801.8730342034984 482.9430845472059, 840.2151774015348 492.116428146264 M720.9683029918738 492.32176032967004 C760.7308036194787 486.86419690882394, 800.2507445740607 488.2224358293611, 840.5563750735092 492.39603170290974" stroke="#4A90D9" stroke-width="1.6" fill="none"></path></g><g><path d="M0 508 C42.790175015594826 500.1603304937327, 81.02482745426727 501.8384719212229, 118.54224326847672 509.39546956265633 M-0.015917110318663764 506.81166546101514 C40.04353750821294 499.3363160743066, 82.66410567597707 498.13096702828096, 119.40869904707398 510.1081136582595 M120 508 C159.7005456657031 513.4975900015813, 197.26221924226618 515.6402156834007, 241.16679931502108 510.3351604168373 M122.60404577896422 506.3200269926239 C162.89490332298544 516.3466553482721, 201.80490184786237 514.3531320573873, 239.26971660982682 507.36784382354784 M240 508 C280.88042093779563 500.93179664693463, 321.8849881132922 499.70644708783357, 362.007852238414 506.14175602817977 M237.5236334539108 510.58288948815266 C282.0093068729263 502.0103253503215, 317.0580734967124 500.76199219363957, 359.6476117847224 509.88860717077006 M360 508 C400.19825167548237 516.6417325926691, 441.614592015536 517.3335735274215, 480.82534684707724 509.2305432359445 M360.2827507009648 505.6416639926453 C403.0796733188391 516.9356846454897, 442.06943835076584 516.52442427108, 480.81557807283394 505.00994404849797 M480 508 C521.4403106996302 499.1468682339782, 558.7744224309329 500.637655350496, 598.0897990321621 510.20328243494833 M482.34720086884903 507.7599251685355 C521.6863735018447 504.32618751547625, 558.8106310371247 503.56399709000976, 599.3361700378164 508.9150488556264 M600 508 C639.7024789998597 517.3001409622858, 678.7734170043627 516.1839457463192, 717.5805865005487 509.35002929533863 M601.7703410146888 506.7397649823652 C637.2056674590619 516.9194758211598, 679.580486174493 511.4802695817308, 718.2199156649126 510.2267612270529 M720 508 C757.3873723208222 498.5654809988223, 802.7444740355838 500.86121608532653, 841.4962283624403 510.7329973122578 M719.3397133298255 507.97865419782846 C762.4213985321062 500.7176124869203, 802.3419885782101 499.416467662241, 837.4089070305511 507.6225535420239" stroke="#4A90D9" stroke-width="1.6" fill="none"></path></g><g><path d="M0 524 C40.62905537096992 515.9920838159283, 80.62811916456504 519.2038697813507, 117.66807530629188 521.921567083755 M-0.4968836632871485 525.5577146291834 C37.65065084638977 519.3178693415657, 78.00897958682653 514.4258164524754, 120.47719517440427 521.5234847777809 M120 524 C160.1575607191605 531.2878878164511, 202.68555668256377 528.6472894717871, 241.68854800868243 526.067895548167 M121.54352838780824 526.0416917423433 C157.25157996360636 530.8888203126104, 201.33055891788894 527.5701746585597, 242.89426607230303 526.4179528251589 M240 524 C277.85330959580085 516.444047529542, 317.4024155564749 516.5869753276934, 361.0811019422865 522.2380841756303 M240.91446762542103 524.2463399180499 C282.87401228674986 514.6074715783653, 320.6467688653871 520.0700699563293, 357.914121560606 526.8595506685728 M360 524 C397.6520737414689 531.067354910642, 441.3157098466765 531.9473174295255, 478.7138438245726 525.4616633320671 M361.9996700089816 523.3062823531689 C399.3120479798474 531.9297285491391, 442.8679242840384 533.8444255752739, 482.1160825441336 523.5670749622715 M480 524 C517.873950267327 516.1396677272907, 560.3148998058715 517.3115864081798, 598.7040118790958 525.276005224618 M477.7885868447183 523.5620999995626 C522.1806554831421 519.7964466008083, 563.0695844128508 515.0298656423507, 598.6311384895562 523.0004754385432 M600 524 C640.0898423711169 528.5428208871763, 677.7004543875292 532.4119854637094, 717.9769735593496 523.9610575064304 M601.1718432508426 521.6410212269501 C638.4614529161472 533.5230707126271, 681.6927802687985 528.7056229592666, 719.6726839854732 524.9818812973795 M720 524 C757.807947919288 518.4515145776633, 800.5459564199375 515.5125418447705, 840.6589931802456 524.4760907786608 M720.0203535026413 521.821904232418 C757.135403160134 519.9739188286778, 800.4406050021258 520.0973093364998, 837.2220112161277 522.243324630774" stroke="#4A90D9" stroke-width="1.6" fill="none"></path></g><g><path d="M200 430 C335.53197793961283 462.5140397156265, 467.2916601849319 462.5646389579623, 602.3474701767684 427.61393320669265 M199.74837465233819 430.94553283820426 C333.88236105842503 461.5042142952929, 469.13287011762145 463.8542966219525, 600.5600828865932 428.8653697679924" stroke="#000000" stroke-width="2.8" fill="none"></path></g><g><path d="M199.4377875042471 428.5217379869318 C204.2122079201158 422.3593200492445, 211.7851310831121 417.88638926842725, 228.35993997976223 399.71702333659744 M200.26325615464307 430.05854618827755 C207.992838744457 422.0575993416553, 216.8305852117805 413.6648585266074, 230.4467048996897 400.3025811570689" stroke="#000000" stroke-width="2.4" fill="none"></path></g><g><path d="M599.2304961855073 431.223347167964 C594.2262776816474 421.5069225223784, 584.0208494784735 415.4859305866404, 570.6236521887502 400.4198944884726 M599.9263070272241 429.54279677992156 C587.8393546530069 417.68893249586876, 576.2514503653433 406.2205014678829, 570.5757991801911 400.32205592071955" stroke="#000000" stroke-width="2.4" fill="none"></path></g><g><path d="M531.3767240662334 287.0170238929661 C531.3767240662334 287.0170238929661, 531.3767240662334 287.0170238929661, 531.3767240662334 287.0170238929661 M531.3767240662334 287.0170238929661 C531.3767240662334 287.0170238929661, 531.3767240662334 287.0170238929661, 531.3767240662334 287.0170238929661 M530.7389328093797 299.88267855316167 C532.8326743796326 296.89248192292234, 536.148590023578 291.7852815236617, 546.2847460625803 282.3857399277066 M528.924661779406 300.58734453886376 C534.1818310119099 297.5076053581709, 537.5943704535198 291.2535625493158, 545.5355375328044 283.44862615246933 M534.6433886844965 304.68001683860757 C541.4059588844341 298.9235579426156, 546.6736317770799 292.7631536166117, 552.7843176245577 289.48981840943134 M535.7823315235664 306.50723128418156 C539.9598737618144 302.3927585282467, 542.1951122311469 298.629929666141, 550.3443269728135 288.6725387982092 M545.6816474211303 307.7933669621521 C547.5200206463583 304.3530190312869, 549.5915679022462 301.63232279942974, 551.319158422698 300.20945199898404 M545.2750540124053 307.87597560880266 C547.1619989638367 305.2185037063407, 549.274231727557 303.0563143233495, 551.27318887049 300.2314302478271" stroke="none" stroke-width="1" fill="none"></path><path d="M538.421535654695 281.37163684742234 C540.9569324885321 280.89379659126246, 544.6176803861339 282.11168126451395, 547.0450660953155 283.69301251472723 C549.4724518044972 285.2743437649405, 552.2663576694939 288.07214481660503, 552.9858499097846 290.85962434870197 C553.7053421500754 293.6471038807989, 552.4006921589927 297.6181773029258, 551.3620195370601 300.417889707309 C550.3233469151274 303.21760211169214, 548.9440841080182 306.386609389719, 546.7538141781888 307.65789877500083 C544.5635442483594 308.92918816028265, 540.9770726670647 308.69886338538475, 538.220399958084 308.04562601899977 C535.4637272491034 307.3923886526148, 532.0768353652203 305.80948175258374, 530.2137779243047 303.738474576691 C528.3507204833892 301.6674674007982, 526.8424575751977 298.41313292535153, 527.042055312591 295.6195829636431 C527.2416530499842 292.82603300193466, 528.8003985982219 289.3829875709698, 531.4113643486642 286.9771748064405 C534.0223300991064 284.57136204191113, 540.4452817766509 281.9440022481018, 542.7078498152443 281.184706376467 C544.9704178538378 280.42541050483214, 545.2600678262115 282.25104458386727, 544.9867725802249 282.4213995766313 M540.2907965818305 283.1433472534 C543.0620807835558 283.01292026544445, 546.847512876068 283.14608677486757, 549.0031581867406 285.1152788300222 C551.1588034974133 287.0844708851768, 552.8327931210395 291.9960405953868, 553.2246684458664 294.9584995843278 C553.6165437706934 297.9209585732688, 552.9192859189591 300.61659107844815, 551.3544101357022 302.89003276366844 C549.7895343524453 305.16347444888873, 546.3520591168841 307.65671666709517, 543.835413746325 308.59914969564943 C541.3187683757659 309.5415827242037, 538.9160814839024 309.72845462116334, 536.2545379123475 308.5446309349939 C533.5929943407925 307.36080724882447, 529.4269170988341 304.47496542955815, 527.8661523169951 301.4962075786327 C526.3053875351561 298.5174497277073, 526.014436029756 293.35293448168034, 526.8899492213133 290.67208382944125 C527.7654624128705 287.99123317720216, 531.0044227693288 286.9414637387253, 533.1192314663388 285.41110366519825 C535.2340401633487 283.8807435916712, 538.3959520725425 281.8996570108652, 539.5788014033727 281.48992338827895 C540.7616507342029 281.0801897656927, 540.1823522920221 282.77372368829856, 540.2163274513199 282.95270192968064" stroke="#000000" stroke-width="2" fill="none"></path></g><g><path d="M540.9147712608792 307.6834184170814 C539.2816186530325 327.15587808752804, 539.1635673118476 347.22803852146995, 539.401172509914 361.6322242001677 M540.1228632441346 307.2036310552413 C540.0428572458351 327.88812712564516, 539.5071961699942 347.4634895112968, 540.3098024834293 360.36776241834576" stroke="#000000" stroke-width="2" fill="none"></path></g><g><path d="M539.2546123353956 361.6457467550105 C536.0428023120728 374.1146640179021, 529.4684542266317 383.6911988340216, 527.2903106790858 393.92752982187625 M540.6703582949359 359.9909465514323 C536.1581297924081 370.7214441372536, 532.3169849039078 383.32049688677785, 528.617731551695 395.00678799822833" stroke="#000000" stroke-width="2" fill="none"></path></g><g><path d="M540.9523029969649 360.8201784674551 C544.4182125481091 367.380404376085, 544.700168848004 375.941915429816, 551.5160038059186 393.20386138775723 M539.5198646489995 360.9275316300374 C542.3107015112803 368.2111875531883, 546.637493739032 377.6123596392365, 551.6551846915313 394.40318380326335" stroke="#000000" stroke-width="2" fill="none"></path></g><g><path d="M545.7957380279116 326.47491253689657 C551.8005678516863 322.0512330080309, 558.4765272516906 318.54006178996724, 568.5184030846406 311.01317477896947 M543.2128100223701 325.075628860294 C549.2663545577051 321.54802478481884, 554.9585966075374 318.646091462274, 569.8614157833538 309.11672740554445" stroke="#000000" stroke-width="2" fill="none"></path></g><g><path d="M569.5740910486377 309.0526025485207 C578.6524197748373 348.0775613030291, 585.0497187841698 385.0235191877578, 590.5003358000998 420.36253835794446 M569.8247559670588 309.52512837993237 C573.9958454397587 334.67658539245383, 577.6977107146478 360.32083511347093, 589.5789376893034 419.78486012762556" stroke="#000000" stroke-width="2" fill="none"></path></g><g><path d="M594.9226377336679 412.2845409880766 C596.9378348102587 411.4397106059155, 599.2622237856383 411.971460175751, 600.9310797147313 414.2907838849574 C602.5999356438242 416.6101075941638, 604.2867842158237 422.37963909447626, 604.9357733082253 426.20048324331515 C605.5847624006269 430.02132739215403, 605.6282751663263 433.8815515647975, 604.8250142691408 437.21584877799063 C604.0217533719552 440.55014599118374, 602.1134305999597 444.7076943121887, 600.1162079251121 446.2062665224739 C598.1189852502646 447.70483873275913, 595.1864909376029 447.16702836667037, 592.8416782200554 446.20728203970185 C590.496865502508 445.24753571273334, 587.1411277476662 443.46262544468925, 586.0473316198276 440.447788560663 C584.9535354919889 437.4329516766368, 585.9107139922609 431.9776578775528, 586.2789014530234 428.11826073554454 C586.647088913786 424.25886359353626, 586.7049033997014 420.01144721239785, 588.2564563844029 417.29140570861335 C589.8080093691044 414.57136420482885, 594.0739354547984 412.6886375168484, 595.5882193612325 411.79801171283754 C597.1025032676666 410.90738590882665, 597.4740455549188 411.530674273848, 597.3421598230076 411.94765088454824 M590.2311098241133 413.0989242915048 C591.9365771595881 411.5968427906485, 596.829373981641 413.06038343896466, 598.997101737125 413.99767476288366 C601.1648294926091 414.93496608680266, 602.2189640912792 415.7320252760374, 603.2374763570177 418.72267223501876 C604.2559886227563 421.7133191940001, 605.5849889380415 427.81112967766694, 605.1081753315561 431.9415565167719 C604.6313617250707 436.0719833558769, 601.9361859333715 441.1090152119955, 600.3765947181054 443.5052332696485 C598.8170035028393 445.9014513273015, 597.3971003264434 446.3919932246473, 595.7506280399597 446.31886486268985 C594.104155753476 446.2457365007324, 592.2133702778121 444.879767193722, 590.4977609992034 443.06646309790386 C588.7821517205946 441.25315900208574, 586.3911772619749 438.8074559310761, 585.4569723683069 435.4390402877811 C584.5227674746388 432.0706246444861, 583.6843410503923 426.1940413197863, 584.8925316371955 422.85596923813364 C586.1007222239987 419.51789715648096, 591.6793186919456 416.90460576052203, 592.7061158891263 415.4106077978649 C593.732913086307 413.91660983520774, 591.510021290314 413.6469737749992, 591.0533148202801 413.8919814621907" stroke="#000000" stroke-width="1.8" fill="none"></path></g><g><path d="M271.82297647164876 303.8677711413259 C271.82297647164876 303.8677711413259, 271.82297647164876 303.8677711413259, 271.82297647164876 303.8677711413259 M271.82297647164876 303.8677711413259 C271.82297647164876 303.8677711413259, 271.82297647164876 303.8677711413259, 271.82297647164876 303.8677711413259 M267.125829357305 318.800521876755 C275.4735050120566 314.21572542250595, 278.124270459252 308.6343162644494, 283.4540421123667 304.2357480795151 M268.3889199836249 319.549371980026 C271.6689861196225 315.87547040389643, 273.8834023770393 311.9437760652122, 282.99867843542637 303.31464235465774 M273.904315770879 327.8321403999115 C280.3870286161199 317.4987421908575, 287.3655755883574 313.5580255639498, 288.29331721806454 308.1231247285579 M274.2611443499439 326.2224270956669 C278.0441145878255 321.5057833727147, 281.6915222469889 315.4035468997232, 289.59372224082017 307.4664123814409 M281.3027706444449 327.37363286950796 C287.34742949151115 323.464408504546, 288.9938353358926 320.23375424750606, 292.8765324048382 317.430540007628 M283.179273305508 328.4104328963061 C284.9978555415628 324.8184440985671, 288.94108130363156 321.61721087870995, 292.8083601537672 315.5950530085682" stroke="none" stroke-width="1" fill="none"></path><path d="M279.40761999190363 302.3248668979194 C281.96582708349587 302.4489793115394, 285.78905344703765 303.5199245517962, 288.10802669445815 305.37349662537486 C290.42699994187865 307.22706869895353, 292.7429102327329 310.6410565726709, 293.32145947642647 313.4462993393913 C293.90000872012 316.25154210611174, 293.13958984364456 319.8240251954545, 291.5793221566195 322.2049532256974 C290.0190544695945 324.5858812559403, 286.8754539666562 326.85149453791377, 283.95985335427633 327.73186752084854 C281.04425274189646 328.6122405037833, 276.7083239432603 328.680997468609, 274.0857184823403 327.48719112330616 C271.4631130214203 326.2933847780033, 269.52815758924544 323.20528712221875, 268.22422058875634 320.56902944903146 C266.92028358826724 317.9327717758442, 265.65148241486503 314.46563675215555, 266.26209647940567 311.6696450841823 C266.8727105439463 308.8736534162091, 269.0031333199257 305.53608229695413, 271.8879049760001 303.793079441192 C274.7726766320744 302.05007658542985, 281.4078389879929 301.44195731130657, 283.5707264158516 301.21162794960935 C285.7336138437103 300.98129858791214, 285.0847491445354 302.0179085662103, 284.86522954315234 302.4111032710088 M281.265880492675 300.5472542987106 C284.0364013292649 300.6169678132669, 286.2565195021562 303.64072854991946, 288.18329328255635 305.6610357219128 C290.1100670629565 307.68134289390616, 292.17551086118976 310.2478437694152, 292.82652317507586 312.6690973306708 C293.47753548896196 315.0903508919264, 293.4680309779816 317.63791012696305, 292.0893671658731 320.1885570894465 C290.71070335376464 322.7392040519299, 287.30862527853594 326.62585915865014, 284.55454030242504 327.97297910557137 C281.80045532631414 329.3200990524926, 278.4847767487891 329.0328764742753, 275.56485730920764 328.27127677097377 C272.6449378696262 327.5096770676722, 268.2702622175024 325.89312874752864, 267.0350236649363 323.40338088576186 C265.7997851123702 320.9136330239951, 267.40945205888 316.35622867882495, 268.1534259938109 313.3327896003731 C268.89739992874183 310.3093505219212, 269.7003028014895 307.4068644071402, 271.4988672745218 305.2627464150507 C273.29743174755407 303.1186284229612, 277.56769727190067 301.04889271251363, 278.94481283200474 300.4680816478361 C280.3219283921088 299.8872705831585, 279.59577183869817 301.5276540456094, 279.76156063514617 301.7778800269852" stroke="#000000" stroke-width="2" fill="none"></path></g><g><path d="M281.3178480711346 328.5768954494235 C279.72066349118825 336.5026612075844, 283.7582106950108 346.64843814460824, 282.11079853473495 369.81783725653537 M279.05762869803306 327.2822728769239 C281.3216625178824 338.15831848198707, 281.83956512571933 350.3975538328887, 283.5509040027008 369.1235239828248" stroke="#000000" stroke-width="2" fill="none"></path></g><g><path d="M284.51266631858874 369.32325647045684 C278.5476613055847 387.0299855910845, 272.6090480596665 401.0285775557361, 271.75257554844495 408.3123833921062 M284.49471209940134 369.72511071283304 C279.30833818469637 381.9990530801839, 276.321071317618 393.7565614383627, 270.33305326744966 409.30096311572885" stroke="#000000" stroke-width="2" fill="none"></path></g><g><path d="M285.2303618339996 369.2878500668233 C288.6313312770508 386.37976099560615, 295.0974939298954 400.1564394325313, 298.610538425162 411.38992857304095 M283.8684505412219 369.33792233924487 C287.981094281831 382.4459861565144, 292.34503644852504 392.8579055277147, 297.2301982609973 410.9200338870651" stroke="#000000" stroke-width="2" fill="none"></path></g><g><path d="M279.2005530069885 340.9279136497324 C272.63443301105127 335.31933169979436, 266.2826208208702 327.88167894129833, 250.46746778848814 303.5841629598002 M280.01677608259604 342.129030941451 C272.36365873394465 334.04496918425923, 266.3835419051443 326.44913010510913, 250.34754583021007 305.8347550240212" stroke="#000000" stroke-width="2" fill="none"></path></g><g><path d="M250.37358674947058 303.49703167181633 C250.77519792232496 298.60874095715786, 250.99638880329798 293.46464942301725, 249.11208706361302 289.3013389879192 M249.22110432074362 305.23750824243547 C249.52415959424056 299.0268829367836, 250.42855707033561 294.561933100927, 249.76975577826346 288.4329104122717" stroke="#000000" stroke-width="2" fill="none"></path></g><g><path d="M278.30153520626993 342.6824352573617 C290.6276633412783 343.39819691719845, 297.99644956222505 347.34050834472464, 314.494041592767 354.87509497166417 M280.9919697431251 342.8443126118513 C288.59527670098214 345.04684527846763, 296.8537180485646 349.6059145074089, 314.1444351310895 355.0267938119909" stroke="#000000" stroke-width="2" fill="none"></path></g><g><path d="M230 420 C277.3990030054082 429.7322871022845, 333.85482861557426 434.33070703248586, 397.5547525964786 442.36799677626885 M230.90337535870358 419.3887290113844 C276.9100861228385 426.4895915619753, 332.86178530829665 435.1560667245473, 402.64437703402893 439.8284151405295 M400 440 C467.6349250058075 435.3256273955207, 524.1494649341151 430.66882761892816, 572.634237699202 419.15186481077296 M400.0677074208131 439.0197132612274 C463.11736715687096 437.0046178477054, 526.0676127346463 430.4540244007164, 566.7775067256055 419.3327997695255" stroke="#4A90D9" stroke-width="2.5" fill="none"></path></g><text x="400" y="560" text-anchor="middle" font-family="sans-serif" font-size="16" fill="#222" font-style="italic">"The scholar won every exchange — and lost the only one that mattered."</text></svg>