<?xml version="1.0" encoding="UTF-8"?>
<svg width="800" height="600" viewBox="0 0 800 600" xmlns="http://www.w3.org/2000/svg"><rect width="800" height="600" fill="#FFFFFF"></rect><g><path d="M320.762726987937 201.18756309433718 L479.7748800276718 198.93921139821734 L481.744733712984 219.1160801755677 L320.9325909865102 220.49804088830703" stroke="none" stroke-width="0" fill="#DAA520"></path><path d="M320.51053920289775 199.24701730737948 C361.98797321327305 200.0887632370078, 406.72871558350926 199.77512650176195, 478.92629542661564 199.2749740716482 M320.6803107253438 200.0267190210585 C377.5007074180279 198.47040766741065, 436.08071331595625 197.89395969001015, 479.6132154306068 200.5574485636993 M480.3636985693254 201.43832664969838 C478.7101942726825 206.8402936118039, 478.80512998445147 214.43846199687553, 480.0007889982752 218.7302032647065 M479.9429605009861 199.76994776902714 C480.29834601290247 207.42093978635938, 480.9759888322573 215.4759451016749, 480.81167272184643 219.92648311971766 M480.2242916007233 218.27729511954905 C418.5218563442734 221.2519749801574, 356.79484980341675 219.60964599968312, 321.006513509711 221.32227723263478 M480.2293526935689 220.03187232289147 C445.41036031148207 219.83103413485546, 411.8819892797036 220.02359369233196, 320.08361351705224 219.53704369164785 M320.69962177481113 219.0227543711099 C319.544366991688 212.7494085391, 321.034152538059 206.7970233787445, 319.00664754930136 199.38304174751906 M319.54865288456614 219.93803075945772 C320.00750520152985 215.8926690773455, 320.6957976438441 210.94226365952113, 320.39216835137654 200.43120992273268" stroke="#B8860B" stroke-width="2" fill="none"></path></g><g><path d="M340.6132826570056 221.31992510951258 L459.8790558547143 220.94355334526855 L458.6246265767436 234.68485064317449 L339.0588970437911 232.25334164175567" stroke="none" stroke-width="0" fill="#DAA520"></path><path d="M339.75554386522884 219.16596469436692 C378.93721025149154 218.18902939923643, 414.602672323882 218.41964934276473, 459.55412558366424 218.43557486341342 M339.96428896775615 219.77530022031533 C365.46084436122436 219.20164013135724, 390.2222484237044 218.98532989658406, 460.5839709864147 220.0150920762108 M461.0235712525367 220.24058783592463 C461.17434568880753 224.1373325218938, 461.1078300303989 228.100868561983, 460.6740111098083 232.76719409931206 M460.515786155611 220.10527301040403 C460.1736730068078 222.9176491759937, 460.5422893220143 225.99808388066072, 460.2119089801603 233.37616685469578 M459.7666694891512 232.95859717469145 C415.24178185547197 233.03457671868514, 372.6053522886115 234.76573247931051, 340.94004283102856 232.53194718539314 M459.8706910863554 234.80214627165037 C418.7970511272671 234.56931417595908, 378.7561148264063 233.83469455208197, 340.5411302012025 233.3789593710949 M339.5787811133757 233.12323530456547 C338.6938642907798 231.04399707805206, 340.65737808623805 225.7944561718614, 339.6895258608928 221.08185841682175 M340.00441245687716 234.36281877259557 C340.4024962390565 230.24721183375087, 339.71532330426146 226.9989374766637, 339.56845312448576 220.5944087317247" stroke="#B8860B" stroke-width="1.6" fill="none"></path></g><g><path d="M359.0036134727948 233.25411397296145 L438.2409170665175 233.61719401804976 L441.7168758083044 245.4044847673054 L360.94773663110794 245.7844171826428" stroke="none" stroke-width="0" fill="#E8C547"></path><path d="M359.55012878521677 235.0760474149894 C380.5617876890537 234.84340430677355, 400.4861551791068 235.57269519430108, 438.59537780974705 233.6875030423627 M359.7156266431369 234.8007182477073 C385.2809983835165 233.1618028367099, 412.50662973503955 233.78570706257688, 440.81560543883904 234.40223961970867 M439.7781342347315 233.33923940225756 C439.18114225980145 237.88073276766315, 440.23545870744977 241.18461624138016, 440.24650629296644 244.06903956491502 M439.9101735535148 234.01538971250025 C439.8631676734585 237.89691343672473, 440.0283639826539 241.51540755743878, 439.9526819865734 244.2147244470713 M441.5121988873746 244.740113346032 C408.8397947720229 242.74648173537585, 377.8401474638262 243.85270900282828, 358.761496647739 243.41730971294086 M440.6261198426959 244.13088440992308 C414.3004450954211 245.47450019811814, 386.87684959043196 244.75633757604666, 360.4271621960252 243.19988538328874 M360.23487175368643 243.30691443357694 C360.4707223430166 241.53758319001537, 359.2366015704102 238.50960419050827, 360.3766030856424 234.07481493937135 M360.24962803153477 244.02669181594405 C360.17441375433856 239.81153621732355, 360.27630393612657 236.13468859374564, 360.1342701309465 233.56554518183677" stroke="#B8860B" stroke-width="1.4" fill="none"></path></g><g><path d="M385.9057391696577 149.9609220385178 C385.9057391696577 149.9609220385178, 385.9057391696577 149.9609220385178, 385.9057391696577 149.9609220385178 M385.9057391696577 149.9609220385178 C385.9057391696577 149.9609220385178, 385.9057391696577 149.9609220385178, 385.9057391696577 149.9609220385178 M384.0565810440942 167.31813738779766 C389.70031719008233 160.81126747844465, 393.42924797344637 155.12690244174897, 407.8020061288418 140.5249192266764 M385.19340123441606 165.4364873596567 C391.89619948233496 156.96266347718165, 400.3812073914852 149.9743631374351, 406.07006491012964 142.15434217557961 M392.0626519184312 173.1352171235644 C396.11574345678105 164.92890563160364, 404.67378700410427 158.88977679755942, 412.50232273468964 146.79004408531296 M391.0943926458587 173.5714720954503 C398.1962163258904 166.30991887022086, 405.2832946601567 159.9495032040302, 413.27966673124257 149.05378499108943 M399.107594529328 179.05252531870528 C403.99711393927095 173.01148059256923, 410.96610284379784 166.48032409524293, 415.9292317800874 157.84722626396942 M399.7075437641021 179.04900077771612 C403.69771721187794 176.0053263216516, 407.15324993228046 171.8073340544603, 417.4416977852457 158.4504029667843" stroke="none" stroke-width="1.2" fill="none"></path><path d="M394.3494896437948 143.09738018307718 C397.875173519738 141.3815243376293, 403.3114050934473 140.69072910320372, 406.8704092210079 142.05323023023047 C410.42941334856846 143.41573135725721, 413.8928471826151 147.78746714743346, 415.7035144091582 151.2723869452377 C417.5141816357012 154.75730674304197, 418.5557417985567 159.17410884086905, 417.7344125802663 162.96274901705598 C416.91308336197585 166.75138919324291, 413.78132821267866 171.32866887888295, 410.77553909941577 174.00422800235938 C407.7697499861529 176.67978712583582, 403.23294034678315 179.0657388083493, 399.69967790068904 179.01610375791452 C396.1664154545949 178.96646870747975, 392.32150629379225 176.52008586003743, 389.5759644228512 173.70641769975066 C386.83042255191015 170.8927495394639, 383.7982226373142 166.13758659246867, 383.22642667504255 162.13409479619398 C382.6546307127709 158.1306029999193, 383.97617864345466 153.17709371414657, 386.14518864922104 149.68546692210253 C388.3141986549874 146.1938401300585, 394.3067741536562 142.54417965383553, 396.24048670964095 141.18433404392985 C398.1741992656257 139.82448843402418, 397.7865950591115 141.1136088247354, 397.74746398512946 141.52639326266845 M399.8435089072456 142.75598049392872 C403.66259748003574 142.55196777853104, 409.3182318901799 143.27574267948688, 412.0617525174845 145.7223172856421 C414.80527314478906 148.16889189179733, 415.99672400839376 153.6779326074143, 416.3046326710731 157.43542813086 C416.6125413337524 161.1929236543057, 415.5915543762334 165.08807234434482, 413.90920449356054 168.26729042631626 C412.2268546108877 171.4465085082877, 409.6693510977422 175.18678457357117, 406.21053337503594 176.51073662268874 C402.75171565232966 177.8346886718063, 396.6154035662151 177.31312984435445, 393.1562981573229 176.21100272102166 C389.6971927484307 175.10887559768886, 386.99485791981067 172.99793424538794, 385.4559009216829 169.89797388269199 C383.9169439235551 166.79801351999603, 383.13885573450386 161.72066939608746, 383.92255616855635 157.611240544846 C384.70625660260885 153.50181169360454, 387.5741526893378 148.11481132506702, 390.15810352599766 145.24140077524328 C392.74205436265754 142.36799022541953, 397.9625824429961 140.97260107419638, 399.42626118851564 140.37077724590355 C400.88993993403517 139.76895341761073, 398.6600072640125 141.39521828344283, 398.94017599911496 141.63045780548637" stroke="#000000" stroke-width="2.4" fill="none"></path></g><g><path d="M398.3463187723758 176.07747781676278 C398.3464360542331 200.47080204235598, 401.4735924451961 225.09540130597082, 399.2844865377788 241.71468229549944 M399.3561095934482 178.69514324879373 C399.8427089774872 195.29274216962924, 399.20236087619054 212.17162869253016, 399.4958448762487 240.93026619831883" stroke="#000000" stroke-width="2.4" fill="none"></path></g><g><path d="M401.8238952534839 240.78467342890153 C394.88454663359516 249.8753017743691, 392.60670881142005 257.6630706400112, 383.9060863501804 278.58302293682783 M400.37507758135575 239.68251224688717 C395.3319890006155 251.92253227979975, 390.0120836159654 264.8141041931607, 381.20992552343336 279.19351902009885" stroke="#000000" stroke-width="2" fill="none"></path></g><g><path d="M398.7574210230332 238.4525706987437 C405.6097981302067 255.67586829532283, 411.64653640717046 269.2876042940901, 417.20296712453154 278.43989653845733 M400.42606895858853 240.58282777494367 C406.2854861854472 255.34883843980515, 414.015139491184 269.3434529298094, 417.212938631733 280.3021861905457" stroke="#000000" stroke-width="2" fill="none"></path></g><g><path d="M401.4581095507393 201.77159424086494 C390.34316497642124 204.39230766761898, 380.5866138468003 210.0958004825172, 370.33134407727385 215.04588919301784 M399.1937867841365 200.34246939447783 C392.6595730532693 202.8677139346492, 385.042426742861 206.74246807621384, 369.4572310576399 214.70697463255377" stroke="#000000" stroke-width="2" fill="none"></path></g><g><path d="M369.3438080235253 214.9317124890472 C377.01146300512795 218.57116730974334, 388.03569924477415 219.816545796441, 410.17025570451403 225.63997754723792 M369.8097790678146 214.06869115602183 C381.2095509480688 218.36269794095983, 392.26522951189725 220.4195096580947, 409.7359320358491 224.0939076990293" stroke="#000000" stroke-width="2" fill="none"></path></g><g><path d="M401.8022086528873 200.46066075302858 C407.2463340543144 205.1797198522377, 416.25207090179833 205.87461211508446, 430.9177358835124 214.07929788824444 M400.1924450105398 200.1711223294913 C405.4012836349943 202.71442940842815, 413.5141289539271 207.00006326065804, 430.76741127308014 215.34158026688647" stroke="#000000" stroke-width="2" fill="none"></path></g><g><path d="M428.2431705241469 214.7165328542319 C415.0836055258988 218.0543332167245, 398.4824901874901 223.4353549828944, 389.8472174587489 224.4117067353839 M430.21056195296813 214.5033817790379 C415.54824486873554 217.64080840600946, 403.09672502482755 222.87827167757052, 390.9962053299791 224.3169739036744" stroke="#000000" stroke-width="2" fill="none"></path></g><g><path d="M383.5484884684404 141.82967631041365 L389.0880693900613 125.58727403037393 L395.28836779432686 138.09048166085617 L399.34507902125017 118.49426866106565 L403.36626737356386 136.83437594918905 L410.65635881265763 123.38333639665217 L416.72786784275746 141.52595774907135" stroke="none" stroke-width="0" fill="#DAA520" fill-rule="evenodd"></path><path d="M381.7550811495139 140.8821116006022 C384.62308430448746 137.55482689934993, 385.3760026045599 133.1684746752351, 387.96349225880294 122.50647122574307 M382.7051833814884 141.25761828038992 C383.0356859983277 136.82572351221816, 385.2297510636784 132.36668411559444, 388.64395522738835 123.27786464499044 M388.05249313037683 124.80350278908942 C389.8980623618079 128.0720381335227, 391.1661497589906 132.02941565685734, 397.01305894213584 138.65688615747564 M388.13816614930323 123.66017887525304 C389.6882133312888 127.7242620365432, 391.82126371487783 131.23094337373803, 396.0939244191494 137.82171021032528 M394.8734774238492 139.2521103085924 C396.5961237164544 130.4494126882079, 399.9859623643253 123.05281797472564, 398.76913526079613 119.05125743256622 M396.59241315366444 138.17770151735576 C397.5951211065832 131.2862456934539, 399.1742275307832 125.59812351914358, 399.7712239247416 118.51773687420113 M399.0749962955346 117.44152893849756 C402.6730391872074 122.3521846968769, 402.3167381989355 129.66710413936633, 403.31516516658263 136.573183125188 M399.23834360136277 118.33177696389635 C401.3766281559481 122.71693052401083, 400.99976893513286 127.46441465236197, 403.4169196582874 137.97864956901913 M403.1690001467224 136.74552034350475 C407.59912104431726 133.76932352692825, 409.8935213068763 128.60905014823163, 411.37787271763614 125.10925915062256 M403.6005820537303 138.29526437489093 C407.0797343137213 133.02168038059807, 408.89062283633086 128.9566890210654, 411.4328170177546 123.68800659516195 M412.3012055701864 124.68033293436741 C415.5166987374515 130.46624422448028, 416.03717009710795 135.25415616998674, 419.5017340648881 142.17216604333885 M412.31442022883226 123.96302916647839 C414.29197171697854 128.70882199045883, 415.1184833665492 134.43693783723188, 417.90711861399876 142.11966113510354 M418.4479068101255 143.23845046858978 C409.6989267462309 140.52955541355087, 402.39152167992364 141.2045929882631, 381.945827502593 142.19867085077075 M417.5309776129409 142.56613296681476 C411.50125687858605 141.6091040274075, 403.39655258700026 141.47673160575184, 381.5432513239223 142.54188971271319" stroke="#B8860B" stroke-width="2" fill="none"></path></g><g><path d="M191.43602144996962 359.8646916156877 C191.43602144996962 359.8646916156877, 191.43602144996962 359.8646916156877, 191.43602144996962 359.8646916156877 M191.43602144996962 359.8646916156877 C191.43602144996962 359.8646916156877, 191.43602144996962 359.8646916156877, 191.43602144996962 359.8646916156877 M187.60750638749428 377.79070077566024 C194.42081741473586 369.8030710793409, 198.4807666351162 363.8618228578006, 203.8053162296296 355.61537452177186 M188.14491986234415 375.4405579066015 C191.62214255247454 371.4008956723255, 195.2086214885152 366.97113867918245, 203.1516330452835 356.7961800568505 M192.89219786286213 383.648521752831 C197.19106799778854 375.3042182436203, 203.88772957104518 369.20733914156835, 209.812470345589 364.3471652251531 M192.60558447823516 381.5734939543586 C200.35192167274516 373.5893191496915, 207.16210498155021 367.2570214915493, 210.63583908257843 362.7230234268833 M203.4818220634766 383.1641121408556 C206.72783948975456 378.8742342163415, 210.16033151650592 372.41683653324816, 214.9234576117046 372.09184272375774 M202.74836087801003 383.3475035091265 C205.18080134455994 381.2261026002217, 207.73965884491167 377.0385851125939, 213.38295181444383 370.45087680802976" stroke="none" stroke-width="1" fill="none"></path><path d="M200.77825952111067 355.70156047190255 C203.3368174230494 355.7490171989187, 206.53785543313836 358.7460925865644, 208.75829871830834 360.6908028105716 C210.97874200347832 362.6355130345788, 213.51911791995346 364.7436097665667, 214.10091923213062 367.36982181594607 C214.68272054430778 369.99603386532544, 213.84446607859337 373.72793248846983, 212.24910659137137 376.4480751068477 C210.65374710414937 379.16821772522553, 207.48808802873546 382.53475891074135, 204.52876230879866 383.690677526213 C201.56943658886186 384.84659614168464, 197.37762467506872 384.667658302091, 194.4931522717506 383.3835867996775 C191.6086798684325 382.099515297264, 188.38047942764857 378.77789836955463, 187.22192788889004 375.98624851173213 C186.0633763501315 373.1945986539096, 186.87534395607176 369.2793732744651, 187.54184303919942 366.6336876527425 C188.20834212232708 363.98800203101985, 189.1251958361869 361.93918931430284, 191.220922387656 360.11213478139615 C193.31664893912512 358.28508024848946, 198.34729275268307 356.09817672442915, 200.11620234801404 355.6713604553025 C201.885111943345 355.2445441861758, 201.7867744042999 357.2371826181927, 201.83437995964178 357.55123716663616 M195.3571320627605 357.8397277492575 C198.30282854838316 356.9946264000091, 203.26293173494847 356.75777171600396, 206.2559252847106 357.76043197062046 C209.24891883447273 358.76309222523696, 211.9933397582474 361.4402796011031, 213.31509336133337 363.85568927695635 C214.63684696441933 366.2710989528096, 215.06162876274107 369.496551264383, 214.18644690322637 372.25289002573993 C213.31126504371167 375.00922878709684, 210.45329037622147 378.75186072765445, 208.0640022042452 380.39372184509773 C205.67471403226895 382.035582962541, 202.88054060786374 382.36034696935974, 199.85071787136886 382.1040567303996 C196.82089513487398 381.8477664914394, 192.0281225301794 380.7224987709122, 189.88506578527588 378.8559804113367 C187.74200904037238 376.9894620517612, 187.0957710319061 373.7441040297783, 186.99237740194783 370.9049465729468 C186.88898377198956 368.0657891161153, 187.84935369228978 364.00091055783423, 189.26470400552628 361.8210356703478 C190.68005431876279 359.64116078286133, 194.13230749596377 358.4372997562452, 195.48447928136682 357.82569724802795 C196.83665106676986 357.2140947398107, 197.1148712797383 358.27338600728956, 197.3777347179446 358.1514206210443" stroke="#000000" stroke-width="2" fill="none"></path></g><g><path d="M201.57808894527537 382.7142050076302 C198.73301013928975 392.6126002054797, 198.1713676454836 404.57911405976165, 201.85431980411573 421.94739462446904 M200.97616872003286 382.9927430624426 C199.4026134691031 395.281227551546, 200.5955912329452 406.70998599566, 199.04112118712916 419.6097439732666" stroke="#000000" stroke-width="2" fill="none"></path></g><g><path d="M198.6430271335665 420.23731650293837 C194.7882003770535 433.85615727694034, 194.02984385204834 444.6834188032199, 188.99773356645034 455.71129854118465 M200.8443130852988 420.14321608480856 C195.417872448691 433.41776457381866, 190.32546419731779 448.1902236066329, 187.43647643810328 455.4502233839183" stroke="#000000" stroke-width="2" fill="none"></path></g><g><path d="M199.2884759422158 418.56803157795247 C204.76366057815898 427.8106216005642, 205.896635540779 437.5856521075067, 210.0399508391472 457.37297340439625 M200.43988203197364 420.78713196746224 C205.52571055201224 434.2015956543077, 209.002995196494 447.03055607307846, 211.18747686659614 456.9634867379888" stroke="#000000" stroke-width="2" fill="none"></path></g><g><path d="M199.35258212494767 396.708682844655 C215.0587291464723 386.0096233852094, 228.83163133425046 379.2518342546336, 240.49012667819045 369.89363231618773 M199.54943948383462 395.0432570339043 C210.29847867636636 390.3734225289319, 219.55903784443998 383.8315892767975, 239.40343273684792 369.13956740211216" stroke="#000000" stroke-width="2" fill="none"></path></g><g><path d="M200.17111651979178 394.7184202168277 C210.31692401731195 390.61830802938283, 219.09455165899223 389.314055855511, 236.15434266433184 383.2041500296268 M199.49537101227742 396.4218086259727 C212.36248058723163 393.01183779070124, 222.38295450737905 388.66892867728967, 235.4996918839708 384.10036707480475" stroke="#000000" stroke-width="2" fill="none"></path></g><g><path d="M239.69082166024288 357.7815042099959 C243.6074612772669 358.64828549435407, 254.98156464218764 362.1759354433348, 260.5039990319143 357.8043680160808 M238.2728870245192 358.89583848173964 C243.92407384572928 360.4868308389593, 249.62848681165585 361.27350798811204, 260.8079166079982 360.21701586630195 M262.3142726246912 359.97554081215264 C260.2036396479831 364.71226748894185, 261.89728295361203 373.94910469184515, 260.5189088824264 375.0346033961186 M261.84533983527893 360.8839007394541 C261.90909113356975 363.47859798373133, 261.6572374338849 366.8995546513837, 262.8727058010374 375.8791158040839 M259.84055112445134 377.46916621904813 C255.54214990400186 374.37006788807565, 248.04673276203434 374.92184919095604, 238.92574793775233 374.6312015459105 M262.34845535577165 377.16164689825274 C254.2783603553595 375.62403724601967, 246.95751410985525 376.8778001716011, 236.9466921127949 375.68976405152324 M238.70039025295128 376.91097711370014 C237.50023821348879 368.2835200169134, 238.6752540803634 364.2405060873353, 236.62509269048488 360.5856752389169 M237.6691255426157 375.5300453149578 C238.20843501030413 370.28148673748257, 237.9577894486334 363.69296802116446, 238.09732227828997 359.33432676558436" stroke="#000000" stroke-width="1.4" fill="none"></path></g><g><path d="M241.9524501305029 366.20984551152037 C246.49558348989763 366.5745191763176, 252.55556341058193 362.496644076153, 260.22568342039443 363.12293024831234 M239.52529788030878 364.0988387051697 C246.85392139845786 362.6690860488503, 251.4618574271269 362.4810025288291, 257.686528952141 362.5365734408628" stroke="#000000" stroke-width="0.8" fill="none"></path></g><g><path d="M243.37060931380483 372.31241685538095 C246.10569449112342 370.0233225717459, 255.75799251293316 367.1752655019054, 255.52678609760954 372.08223819803345 M241.40578896306937 368.7847885840069 C244.1083074691491 370.3925744110314, 248.53250651563653 367.7512189735276, 259.00544104014176 369.8371975277579" stroke="#000000" stroke-width="0.8" fill="none"></path></g><g><path d="M244.4692733292743 376.0383351908866 C247.26219162014485 373.20401268946557, 247.6257680602714 375.9461653759556, 257.2968244933319 370.9861673583064 M242.6017168491646 374.6927374446307 C247.83161148157774 373.52406767616105, 255.93590793741555 374.55732040766156, 258.7200325512146 374.19908906477156" stroke="#000000" stroke-width="0.8" fill="none"></path></g><g><path d="M300.83717783089594 270.45208511078056 C301.5912984931086 277.71984590611817, 300.8363891193262 285.26880573809376, 297.64370755450705 291.82615241817206 M301.098170807233 270.4685414199107 C299.01665085630106 274.7879694244571, 299.16165389380296 280.88136377547494, 300.6331982888377 290.962555169221" stroke="#000000" stroke-width="3" fill="none"></path></g><g><path d="M299.6014481024321 299.89566113647476 C299.8477185298212 309.027666726351, 301.4016680360678 318.01561643090923, 299.7465085577232 324.01979242403206 M300.97384020063595 299.9736713917937 C298.63498547354493 307.30366347187066, 301.28090977463216 312.47919295473804, 301.1920909722582 321.85057473191995" stroke="#000000" stroke-width="3" fill="none"></path></g><g><path d="M300.45898274801465 331.0962157182855 C301.4419008242403 337.4206651215062, 300.763112049453 339.7169861287784, 300.39469708124614 349.6763194171704 M299.06735942027365 330.4084067995572 C299.6021690999001 337.90071065487234, 300.99707044132384 343.3161176917617, 299.44165298247844 353.12525324284877" stroke="#000000" stroke-width="3" fill="none"></path></g><g><path d="M297.87374015607514 359.6124749314445 C298.6159689527731 365.5680020934849, 300.4574310609442 367.3047467319432, 297.8002537946834 382.23373399678803 M298.84412390661566 359.85488766366774 C299.3389678378246 368.492357541458, 300.4968822871834 376.1734809171434, 299.1060775845464 381.0093215844814" stroke="#000000" stroke-width="3" fill="none"></path></g><g><path d="M298.0117548165008 387.3275056736906 C298.7444424727516 397.31223463772056, 299.1610305153573 401.92511413759087, 299.9416665152508 409.71409129580564 M299.9321842907148 389.2937296645626 C299.69468287686846 398.24253006923084, 300.4537887698637 406.6669472476205, 301.345751707543 411.65529485371053" stroke="#000000" stroke-width="3" fill="none"></path></g><g><path d="M300.4114746738169 419.7758849352416 C301.50222205277436 424.45493476755814, 300.0982536739578 432.06963429254733, 297.5562255992489 443.6943114587041 M300.83556327304166 421.3713135918094 C301.31181877822104 425.6309402453763, 300.9193760645963 432.73657270709333, 300.2891413635182 441.66133781929216" stroke="#000000" stroke-width="3" fill="none"></path></g><g><path d="M299.21669186645414 447.7905142008486 C298.9656484884236 456.03278141647064, 299.95453153002103 462.4566211174476, 299.87716258600733 471.9968081659156 M299.30299966774015 450.29778057098486 C300.01253158980376 454.72242010342467, 300.4935672211481 459.5936666109004, 299.01953089945727 471.70005533926826" stroke="#000000" stroke-width="3" fill="none"></path></g><g><path d="M100.90711665607505 469.12952799206346 C249.07118227478188 471.7023574939967, 397.82289974091145 472.22808200824244, 700.0117101972129 469.07194780393553 M100.13664208139114 470.1521258426335 C315.2339476591077 467.81843912374904, 530.617407392412 467.7686782266047, 699.8506773375365 470.21772925577966" stroke="#000000" stroke-width="2" fill="none"></path></g><g><path d="M573.3455430521019 425.5259621270499 C573.3455430521019 425.5259621270499, 573.3455430521019 425.5259621270499, 573.3455430521019 425.5259621270499 M573.3455430521019 425.5259621270499 C573.3455430521019 425.5259621270499, 573.3455430521019 425.5259621270499, 573.3455430521019 425.5259621270499 M575.2287612642863 434.39070716601094 C575.7567842265707 431.7353600367372, 580.3200058807008 429.09380488320437, 583.5975222136937 421.7692706646999 M574.3677691197388 434.39897780004463 C576.6278843097533 430.79541088679207, 580.4582402781108 426.3134951688588, 583.6352363728965 422.3215063430094 M576.4877817896603 438.06123274420605 C582.7030616793863 434.5596882558008, 586.7224952859344 428.74727968937987, 586.8487561640674 426.55387466827176 M578.3157510552609 439.2317141497428 C579.7211173669931 435.1464461793367, 583.2322044518443 432.5313844583173, 589.0022656814436 426.0988835839082" stroke="none" stroke-width="0.7" fill="none"></path><path d="M582.8858166229531 422.02339404481444 C584.6838988185077 422.53261084832855, 586.653369957181 424.2519527996626, 587.6133841262608 425.83788120824175 C588.5733982953407 427.4238096168209, 589.0696322991499 429.78088471694576, 588.645901637432 431.53896449628934 C588.222170975714 433.2970442756329, 586.6859095866599 435.22723344706094, 585.0710001559529 436.38635988430315 C583.4560907252459 437.54548632154535, 580.6889285197667 438.58477099852587, 578.9564450531899 438.49372311974275 C577.2239615866131 438.40267524095964, 575.9308385902208 436.9725709730163, 574.6760993564922 435.84007261160457 C573.4213601227635 434.70757425019286, 571.5951229069727 433.4806145444898, 571.4280096508179 431.69873295127246 C571.2608963946631 429.9168513580551, 572.643631230708 426.76860263039265, 573.6734198195634 425.14878305230053 C574.7032084084187 423.5289634742084, 575.8701819157235 422.30968965776617, 577.6067411839502 421.9798154827198 C579.343300452177 421.64994130767343, 582.844918147521 422.7675362045219, 584.0927754289237 423.1695380020225 C585.3406327103264 423.57153979952307, 585.0501546788305 424.39196760857044, 585.093884872367 424.3918262677234 M575.7040267588309 422.81408901502806 C577.541013894374 421.8177772198133, 580.9508076761964 421.73741512349727, 582.7663558094351 421.9133244500122 C584.5819039426739 422.0892337765272, 585.7590180956392 422.2956365780793, 586.5973155582632 423.8695449741179 C587.4356130208871 425.4434533701565, 588.0444633368793 429.3623817877928, 587.7961405851785 431.35677482624357 C587.5478178334777 433.35116786469433, 586.1709848718691 434.6220110059258, 585.1073790480586 435.8359032048224 C584.0437732242482 437.049795403719, 583.2580396601714 438.47621081466485, 581.4145056423159 438.64012801962303 C579.5709716244604 438.8040452245812, 575.8305598911325 438.02192756883505, 574.0461749409253 436.8194064345714 C572.2617899907182 435.6168853003078, 570.95295379868 433.096272925554, 570.7081959410727 431.4250012140412 C570.4634380834655 429.75372950252836, 571.8067520478264 428.4868358833309, 572.5776277952817 426.79177616549447 C573.348503542737 425.096716447658, 574.5251128838166 421.870991636433, 575.3334504258047 421.25464290702246 C576.1417879677928 420.6382941776119, 577.2793381389728 422.9103808524561, 577.4276530472099 423.0936837890312" stroke="#000000" stroke-width="1.4" fill="none"></path></g><g><path d="M581.7482147002988 439.29974405740984 C579.9938020027311 446.649343620471, 581.1241221553964 452.20383294600015, 578.3850155946666 457.4892274009735 M579.5872890512936 437.4158425853898 C579.8061232357755 443.1841208337434, 580.5794583767639 448.49500901998067, 580.5738515186138 456.639467151699" stroke="#000000" stroke-width="1.4" fill="none"></path></g><g><path d="M581.1938928062822 457.5056476407999 C578.0289584147185 459.6499481080229, 576.3209398195523 462.35997472336794, 575.3832237716915 468.5921135247013 M580.5935749854789 455.4457076033254 C578.6685320679368 459.9830945631768, 576.5301271982277 462.3228632846031, 574.484884073174 470.43361750026236" stroke="#000000" stroke-width="1.4" fill="none"></path></g><g><path d="M581.1539263419784 457.4085132682497 C582.9698478571927 459.48868940284257, 583.4303718332885 467.36040267555353, 584.5107375336897 469.96335165629364 M579.6000873174695 455.36992201167567 C581.6349642071197 460.763015122433, 584.1429138374316 464.29498327452336, 585.3344276031 469.73049078077804" stroke="#000000" stroke-width="1.4" fill="none"></path></g><g><path d="M624.4289958404303 423.55667539059675 C624.4289958404303 423.55667539059675, 624.4289958404303 423.55667539059675, 624.4289958404303 423.55667539059675 M624.4289958404303 423.55667539059675 C624.4289958404303 423.55667539059675, 624.4289958404303 423.55667539059675, 624.4289958404303 423.55667539059675 M623.0347294725227 433.51056577964334 C624.762084958567 432.4068452448853, 629.0731307719839 429.5296414859699, 631.8466527165388 424.20822965242417 M623.2836880503717 433.3281903596004 C627.4136898757937 430.1413292957755, 630.3580300463112 426.3225025876472, 633.0113055702602 422.3711488804566 M628.6122205068081 436.41609866906344 C631.6398184121357 434.8860295510902, 633.2873132586517 432.1277254163042, 637.1315384906216 425.9281116973265 M628.5848467437654 436.86945125247644 C630.1265358651021 434.83287510487867, 632.791551136825 432.28754895301006, 636.8321885088468 426.2966462588947" stroke="none" stroke-width="0.7" fill="none"></path><path d="M629.3434151136436 420.7452787245106 C630.7538384911486 420.75327444050265, 633.0529149694123 422.057105397916, 634.5780480936321 423.40740819817216 C636.1031812178519 424.7577109984283, 638.2562622583742 426.99860463507815, 638.4942138589624 428.84709552604755 C638.7321654595506 430.69558641701695, 636.8229237219183 432.9782143318257, 636.0057576971611 434.49835354398857 C635.188591672404 436.01849275615143, 634.9194981541148 437.5286471014124, 633.5912177104196 437.9679307990246 C632.2629372667245 438.4072144966368, 629.8289723796673 437.91641794342286, 628.0360750349906 437.13405572966167 C626.2431776903139 436.3516935159005, 623.9777515112849 434.7956934398579, 622.8338336423593 433.2737575164575 C621.6899157734338 431.7518215930571, 620.8918721263783 429.63901997036623, 621.1725678214377 428.00244018925906 C621.4532635164971 426.3658604081519, 622.5503143541503 424.52072550853745, 624.5180078127161 423.45427882981465 C626.4857012712819 422.38783215109186, 631.4909815281802 421.79139367342214, 632.9787285728322 421.6037601169221 C634.4664756174842 421.4161265604221, 633.6404908305564 422.29716925610177, 633.4444900806283 422.3284774908146 M629.2124268577945 421.2946899695334 C630.7400713492426 420.3299276073667, 631.9324013731097 419.84923921843927, 633.4360878606418 420.94512425522856 C634.939774348174 422.04100929201786, 637.6440526186216 426.00552020657983, 638.2345457829872 427.87000019026937 C638.8250389473528 429.7344801739589, 637.4076413444378 430.6269995305438, 636.9790468468356 432.13200415736566 C636.5504523492333 433.6370087841875, 637.0202228927603 435.7050428110938, 635.6629787973739 436.90002795120046 C634.3057347019874 438.0950130913071, 630.9227043989329 439.66463478581636, 628.8355822745166 439.30191499800566 C626.7484601501003 438.93919521019495, 624.2590055931541 435.95353594165357, 623.1402460508758 434.72370922433606 C622.0214865085975 433.49388250701855, 621.893707359511 433.6752700794419, 622.1230250208466 431.9229546941007 C622.3523426821822 430.1706393087596, 623.7017611875688 425.7816715326953, 624.5161520188893 424.2098169122892 C625.3305428502099 422.6379622918831, 626.629638135159 422.8436744026654, 627.0093700087702 422.49182697166395 C627.3891018823815 422.1399795406625, 626.7143427004768 422.21859741957053, 626.7945432605567 422.0987323262805" stroke="#000000" stroke-width="1.4" fill="none"></path></g><g><path d="M629.750969505473 438.21664205430756 C630.3398174889397 443.80408484375647, 629.2342438631766 451.2420312060253, 630.2828867145851 457.7432352543048 M630.715014986461 437.7558615160879 C630.5150189697159 445.91676616957136, 629.1323912364279 452.4465884975937, 629.7527571804332 456.3170980465831" stroke="#000000" stroke-width="1.4" fill="none"></path></g><g><path d="M630.4312457260717 455.0881625622608 C629.5629755346325 459.4913848948209, 625.3542236553 462.3298196603081, 624.6567225453916 470.88329979488464 M630.5859807163843 455.71924156486983 C628.2196944451654 459.5895807777361, 627.2511863301969 462.34576146661544, 623.2686230684992 469.5949651581321" stroke="#000000" stroke-width="1.4" fill="none"></path></g><g><path d="M629.2246938370619 454.56303241338577 C631.7737426788128 461.4701734616415, 634.8733361980096 466.2458562222623, 634.7817527587849 469.4154857823011 M630.557408443103 456.6199422328188 C630.9556611019975 460.43634921634504, 633.688223214324 463.19820942377265, 636.2728184680402 469.8565716743047" stroke="#000000" stroke-width="1.4" fill="none"></path></g><g><path d="M665.6449580374806 422.2848009010608 C665.6449580374806 422.2848009010608, 665.6449580374806 422.2848009010608, 665.6449580374806 422.2848009010608 M665.6449580374806 422.2848009010608 C665.6449580374806 422.2848009010608, 665.6449580374806 422.2848009010608, 665.6449580374806 422.2848009010608 M663.9981675159761 433.3011151984452 C666.7873818878337 429.47681695159827, 672.062013999495 426.2905230730258, 671.9969146375257 422.99668152268026 M664.7799712256464 433.40017267168406 C667.8905280524009 429.0066115938953, 671.4247134540182 425.26517260388425, 672.6403477964881 423.08563137363006 M669.1297291834638 437.81332995914676 C673.2796828210521 433.582420204339, 675.3327084274338 429.8498610944169, 678.4910927691635 427.837768055401 M668.275351011447 437.34760442088594 C672.172957219192 432.6997552395759, 676.0052338066763 428.70739371678405, 677.8081356045832 427.2602483717364" stroke="none" stroke-width="0.7" fill="none"></path><path d="M671.5881648315037 422.4131141421206 C673.4287305651117 422.57596532632743, 675.6676893812174 424.08934265561425, 676.6775252861765 425.32127764667047 C677.6873611911357 426.5532126377267, 677.7260850195282 428.1707254967545, 677.6471802612587 429.804724088458 C677.5682755029891 431.43872268016145, 677.4352671546603 433.91509011830584, 676.2040967365588 435.12526919689134 C674.9729263184572 436.33544827547684, 671.8575023270905 436.82540438834826, 670.2601577526495 437.06579855997103 C668.6628131782086 437.3061927315938, 667.8618969821553 437.45309137258437, 666.620029289913 436.5676342266279 C665.3781615976707 435.6821770806714, 663.3781314917301 433.2916284512901, 662.8089515991959 431.753055684232 C662.2397717066617 430.2144829171739, 662.7610003575528 428.8812036212198, 663.2049499347079 427.33619762427924 C663.648899511863 425.79119162733866, 664.0180341260705 423.3696543250859, 665.4726490621267 422.4830197025885 C666.927263998183 421.59638508009107, 670.5935820090028 421.8528876567879, 671.9326395510456 422.0163898892946 C673.2716970930883 422.1798921218013, 673.6265218281611 423.19449035963453, 673.5069943143831 423.4640330976285 M665.6833303457363 422.39101103919273 C666.8881244704935 421.4074663707807, 669.4943305461319 420.4683469219791, 671.1062857759802 421.0300309968244 C672.7182410058284 421.5917150716697, 674.3803318609902 424.4365870357742, 675.355061724826 425.7611154882645 C676.3297915886618 427.08564394075484, 677.1101211650271 427.3724900629799, 676.9546649589948 428.9772017117661 C676.7992087529626 430.5819133605523, 675.3758454153225 433.8375864076989, 674.4223244886325 435.38938538098165 C673.4688035619425 436.9411843542644, 672.6474864675645 438.09950062587933, 671.2335393988551 438.28799555146264 C669.8195923301457 438.47649047704596, 667.3337992138117 437.650093096788, 665.9386420763766 436.5203549344816 C664.5434849389414 435.3906167721752, 663.5357822476174 433.2342447827529, 662.8625965742444 431.50956657762424 C662.1894109008715 429.7848883724956, 661.500805104567 427.59846733046595, 661.8995280361389 426.1722857037095 C662.2982509677108 424.7461040769531, 664.6283179147784 423.5574018900686, 665.2549341636758 422.9524768170858 C665.8815504125731 422.34755174410304, 665.2540496099741 422.34941369098937, 665.6592255295229 422.5427352658127" stroke="#000000" stroke-width="1.4" fill="none"></path></g><g><path d="M669.2701547965854 437.8197404614654 C671.2016288003038 441.50025813458734, 670.19321803662 447.7994004847182, 669.9013388643305 454.7847654550827 M670.006581719157 437.98017693294463 C670.7350525921539 444.89593095895407, 670.6756474770317 449.8398849864474, 669.5723366324523 455.1696662685347" stroke="#000000" stroke-width="1.4" fill="none"></path></g><g><path d="M669.7005688819951 455.3990067561418 C668.5521896609259 458.6229838790492, 667.219947832445 463.48743856990137, 663.3236108353098 471.3449991348545 M669.301107760093 455.83827831166053 C667.621007164401 460.38226397196723, 666.2135409042337 466.2955440589368, 664.289322253341 469.75813874998795" stroke="#000000" stroke-width="1.4" fill="none"></path></g><g><path d="M671.1997307972449 456.65476281773556 C672.4888162760875 458.753529095606, 674.2980512905806 463.5011426066895, 674.6297774130205 470.39319726705065 M669.6801185598902 456.3625864766629 C671.941113509439 460.1723539732004, 672.8934354861501 463.01523202181306, 675.8461752115684 469.87874921780025" stroke="#000000" stroke-width="1.4" fill="none"></path></g><text x="400" y="560" text-anchor="middle" font-family="sans-serif" font-size="16" fill="#222" font-style="italic">"Success doesn’t create arrogance — it removes the friction that kept it in check."</text></svg>