<?xml version="1.0" encoding="UTF-8"?>
<svg width="800" height="600" viewBox="0 0 800 600" xmlns="http://www.w3.org/2000/svg"><rect width="800" height="600" fill="#FFFFFF"></rect><g><path d="M131.76428855990784 236.7743436771042 C150.57253087806131 233.16549606067093, 169.19322717686828 234.58387957006656, 189.95596247672734 234.3414095596972 M129.54504613364858 235.95652949040723 C149.66679810545122 235.64796868355532, 171.51303005899632 234.90196215611886, 189.20085761996089 234.27664551078317 M189.36225301736465 233.3076096075009 C190.33963221619686 240.29920155499033, 192.00094179776897 246.67150746371456, 189.52150534472932 264.8887265040898 M189.1540574760397 235.66299168871114 C190.0926297094279 244.89269681454724, 190.3259471650537 255.13158595330904, 189.2536973140102 265.0781473594679 M188.59600820628225 264.2172312207451 C174.81762821890794 264.1435264339239, 163.3938609743317 266.3939550233918, 129.40524243617358 264.92396451527384 M189.1724093245672 264.8697476635227 C167.47892494616096 264.42473064648925, 145.88946429318688 265.4873104267259, 129.6455738333865 265.62645322752076 M131.69155859956066 266.33933602867575 C129.9155298422439 257.670242865451, 129.17660633620287 249.60273980703028, 130.51676672580535 234.6586367764021 M129.80261150648536 264.87865472522344 C130.9325657593324 254.72455459441804, 130.47185109674152 244.74752437455405, 129.68588484946244 235.5418520098347" stroke="#000000" stroke-width="2" fill="none"></path></g><g><path d="M139.07314825650207 262.67083365404994 C139.07314825650207 262.67083365404994, 139.07314825650207 262.67083365404994, 139.07314825650207 262.67083365404994 M139.07314825650207 262.67083365404994 C139.07314825650207 262.67083365404994, 139.07314825650207 262.67083365404994, 139.07314825650207 262.67083365404994 M138.75919093994355 270.5458765191176 C140.00468427606546 268.6740955950674, 142.41585993950636 266.4370889474945, 142.7861596179199 265.87545761039166 M139.12463286148287 270.6803217535781 C140.74449048553666 268.7613941818763, 141.75303321549833 267.1313599597168, 143.03099974767616 265.69339236959206" stroke="none" stroke-width="0.6" fill="none"></path><path d="M138.7769321492096 263.01159130558915 C139.53997266951833 262.80799198761184, 140.28802719091757 264.27334247346937, 141.2706475801425 264.73605670426656 C142.25326796936744 265.19877093506375, 144.35450952460883 265.0224312421581, 144.67265448455922 265.7878766903722 C144.9907994445096 266.5533221385862, 143.69728503968753 268.4487897205107, 143.17951733984478 269.3287293935508 C142.66174964000203 270.2086690665909, 142.1334658640047 270.6875162125427, 141.56604828550263 271.0675147286127 C140.99863070700056 271.44751324468274, 140.41082939164767 271.82397351618124, 139.7750118688324 271.6087204899711 C139.13919434601712 271.393467463761, 138.38761815773898 270.5406699091442, 137.75114314861102 269.775996571352 C137.11466813948306 269.0113232335598, 135.93242799719883 267.8323337046785, 135.95616181406456 267.0206804632179 C135.9798956309303 266.2090272217573, 137.15082419111906 265.46645751594957, 137.89354604980537 264.90607712258833 C138.63626790849167 264.3456967292271, 139.74285099793454 263.79272212690734, 140.41249296618236 263.65839810305033 C141.08213493443017 263.5240740791933, 142.0317967138829 263.9555735977311, 141.9113978592923 264.10013297944636 M140.3027261796556 264.13045059075654 C140.86425959799186 264.18844656079835, 141.38100977399327 264.14151172497566, 141.77805930969274 264.5835663350361 C142.1751088453922 265.02562094509653, 142.680314262018 265.8269061085534, 142.68502339385236 266.7827782511193 C142.68973252568674 267.7386503936852, 142.25018696838984 269.34968852073246, 141.806314100699 270.31879919043155 C141.36244123300818 271.28790986013064, 140.5648115330639 272.52801767655575, 140.02178618770733 272.5974422693138 C139.47876084235077 272.6668668620718, 139.04517214740116 271.28809535527233, 138.54816202855966 270.73534674697964 C138.05115190971816 270.18259813868696, 137.33648414850393 270.16652529847937, 137.03972547465827 269.28095061955776 C136.7429668008126 268.39537594063614, 136.6388889987974 266.33653806468817, 136.7676099854857 265.4218986734499 C136.896330972174 264.50725928221163, 137.30404493488209 263.89774743440745, 137.81205139478806 263.7931142721281 C138.32005785469403 263.68848110984874, 139.41313733516301 264.6431111910647, 139.81564874492156 264.7940996997738 C140.2181601546801 264.94508820848296, 140.12905125775853 264.76558073901174, 140.2271198533394 264.69904532438295" stroke="#000000" stroke-width="1.2" fill="none"></path></g><g><path d="M176.77717508025222 266.29615828052937 C176.77717508025222 266.29615828052937, 176.77717508025222 266.29615828052937, 176.77717508025222 266.29615828052937 M176.77717508025222 266.29615828052937 C176.77717508025222 266.29615828052937, 176.77717508025222 266.29615828052937, 176.77717508025222 266.29615828052937 M178.41248740684952 272.5571898575658 C179.2872014135193 270.21353205502504, 180.897295571529 269.0170293695273, 183.07749730645338 265.66767760021514 M178.21420134493195 271.9603639731882 C179.635258601345 270.4095282218535, 180.85812536791798 269.0767305691866, 184.0129157693777 265.41506691142973" stroke="none" stroke-width="0.6" fill="none"></path><path d="M179.00315591555568 264.25194047815853 C180.06941498758277 263.97076652789593, 181.85701115257277 263.50712973891467, 182.5986281228026 263.8087457928322 C183.34024509303245 264.11036184674975, 183.29310781999618 265.1468163467652, 183.45285773693473 266.0616368016638 C183.61260765387328 266.97645725656236, 183.83583388294147 268.5597781040895, 183.55712762443392 269.29766852222355 C183.27842136592636 270.0355589403576, 182.49181819567087 270.04360623918774, 181.78062018588932 270.4889793104679 C181.06942217610776 270.9343523817481, 179.94269158247812 271.92974098922605, 179.2899395657445 271.9699069499048 C178.6371875490109 272.0100729105835, 178.31154390298346 271.25517462237684, 177.86410808548763 270.7299750745402 C177.4166722679918 270.2047755267036, 176.77279846561032 269.5734181194257, 176.6053246607695 268.8187096628851 C176.43785085592867 268.0640012063445, 176.3728969694623 266.8076258804963, 176.85926525644263 266.2017243352968 C177.34563354342296 265.59582279009726, 178.8687875331419 265.59675302650453, 179.52353438265158 265.18330039168785 C180.17828123216125 264.7698477568712, 180.7895015755602 263.7887042768794, 180.78774635350075 263.7210085263969 M180.16895270438854 265.12532713183185 C180.97297604163708 265.4108825409301, 182.83155526429636 266.3041200023661, 183.25101020023754 266.93064028515937 C183.67046513617873 267.5571605679526, 182.48746703296257 268.20472299971914, 182.68568232003562 268.8844488285914 C182.88389760710868 269.5641746574637, 184.57194502767004 270.7625213708265, 184.4403019226759 271.008995258393 C184.30865881768176 271.25546914595947, 182.89953033879578 270.22841351791453, 181.89582369007076 270.36329215399036 C180.89211704134573 270.4981707900662, 179.39932154784054 272.10622267952033, 178.4180620303257 271.818267074848 C177.43680251281086 271.53031147017566, 176.37000095674654 269.3476167549684, 176.00826658498173 268.6355585259564 C175.64653221321691 267.92350029694444, 175.6916456563432 268.39600336742683, 176.24765579973675 267.545917700776 C176.80366594313028 266.69583203412515, 178.64273931053947 263.87598312300196, 179.34432744534288 263.5350445260515 C180.0459155801463 263.194105929101, 180.1130608453972 265.55686038546094, 180.45718460855727 265.5002861190731 C180.80130837171734 265.4437118526853, 181.1720846747982 263.3950656906358, 181.40907002430328 263.19559892772446" stroke="#000000" stroke-width="1.2" fill="none"></path></g><g><path d="M196.82584093521976 251.7887819524073 C206.91850863667503 249.34112928311453, 216.4667828281553 251.46286923589327, 230.94814258527504 248.6627536827727 M194.56787078702794 250.31971074048172 C203.98661759994891 250.37889459737545, 214.64282077923866 248.98072702806908, 229.36492168601362 250.43599213412756" stroke="#000000" stroke-width="1.5" fill="none"></path></g><g><path d="M225.42884236251103 245.28938814963516 C226.20695127120703 245.80399806912465, 227.14062702144525 248.28137210424936, 229.97532408294316 249.32820981441805 M225.1087237990266 245.3495609139098 C226.73733129559182 246.35021596904934, 228.16332346738693 247.80245521978588, 230.28729952202136 250.20414239519732" stroke="#000000" stroke-width="1.2" fill="none"></path></g><g><path d="M499.2694571435715 236.08265672907413 C525.1130089043246 233.42279994388244, 547.0842213796951 234.55422072764188, 559.41985881491 236.86233614766098 M500.1417143816819 234.19182165377882 C514.5327498162594 236.0908962517613, 528.1263756720655 235.3946615248035, 560.4920717776365 234.05753081163073 M559.6809117146098 233.55865800630073 C560.7491539650355 243.60186494278182, 559.0370176207755 252.85798992578188, 561.9564447659325 264.3671492886587 M560.0000136471131 235.05869638993735 C560.2145650658558 245.5470835755072, 560.2666627595257 256.2788203628304, 559.1791666154387 265.92460443067534 M560.2130978161695 265.6208924104654 C539.2152256295973 263.6733964203316, 518.0887703924278 263.33687468161895, 499.44661840644335 265.32629470310354 M559.9950520991043 264.95907628142044 C546.5412894691266 265.49156430819187, 530.8348274302352 264.0480042056757, 500.3356435532061 265.87726980085085 M498.5561199410585 266.21679548886726 C498.44361795489044 257.0752855239101, 499.1631647148288 250.0458759293745, 500.67165008457323 236.66395902917054 M500.55558225647064 264.58792547262675 C499.2947004135433 255.6439236696199, 499.8098834046383 248.98775828600694, 500.951183019459 235.6967809534029" stroke="#000000" stroke-width="2" fill="none"></path></g><g><path d="M507.1373824738771 265.94608571333356 C507.1373824738771 265.94608571333356, 507.1373824738771 265.94608571333356, 507.1373824738771 265.94608571333356 M507.1373824738771 265.94608571333356 C507.1373824738771 265.94608571333356, 507.1373824738771 265.94608571333356, 507.1373824738771 265.94608571333356 M509.36146942669313 270.92148931567715 C510.5784533630433 270.3144902031579, 511.54840036343495 267.48166154049864, 513.3838236523818 266.0219543423492 M508.65349655610765 271.62273265040125 C510.3415108874183 269.44080638878825, 512.4155777143881 267.91567958615843, 513.4294971891061 266.1865060189427" stroke="none" stroke-width="0.6" fill="none"></path><path d="M511.6974026973945 264.9731590867062 C512.4228939918305 265.07056398815536, 512.2038371601044 265.01322269184993, 512.5536863858539 265.7241973928639 C512.9035356116034 266.4351720938779, 513.9374818805353 268.28660438650337, 513.7964980518916 269.2390072927899 C513.6555142232479 270.1914101990764, 512.5017969578927 271.05646492525045, 511.7077834139914 271.43861483058316 C510.9137698700901 271.8207647359159, 509.6266643026368 271.5524419545209, 509.03241678848383 271.5319067247862 C508.43816927433085 271.51137149505155, 508.7009917885724 271.95387950732965, 508.1422983290735 271.3154034521752 C507.58360486957463 270.67692739702073, 505.83847444925436 268.60659778971944, 505.6802560314905 267.7010503938596 C505.52203761372664 266.79550299799973, 506.48291932940856 266.5218477461942, 507.19298782249047 265.8821190770162 C507.90305631557237 265.24239040783823, 509.01542350438035 264.10774845070745, 509.940666989982 263.86267837879154 C510.86591047558363 263.61760830687564, 512.274776036824 264.1811458258909, 512.7444487361005 264.4116986455208 C513.2141214353769 264.6422514651507, 512.8512121329528 265.04565079878654, 512.7587031856408 265.245995296571 M510.9385703548828 263.429253222758 C512.0702078061356 263.44418501219593, 513.6602060456522 265.78233577754673, 514.1596646690699 266.3690193447735 C514.6591232924876 266.9557029120003, 513.9016988717146 266.4808220985573, 513.9353220953888 266.94935462611863 C513.9689453190629 267.41788715367994, 515.063236489352 268.48848425465184, 514.3614040111148 269.1802145101413 C513.6595715328776 269.87194476563076, 510.68282604901026 270.91254306090286, 509.7243272259655 271.09973615905545 C508.76582840292076 271.28692925720804, 509.3460823877275 270.6539576781524, 508.6104110728464 270.303373099057 C507.87473975796524 269.95278851996164, 505.49503996910073 269.6222358558989, 505.3102993366788 268.9962286844833 C505.12555870425683 268.3702215130677, 506.9382615194159 267.2195900540771, 507.50196727831474 266.5473300705634 C508.06567303721357 265.8750700870497, 508.0410012550732 265.2294303715304, 508.69253389007173 264.962668783401 C509.3440665250703 264.6959071952716, 511.14436731759326 265.22596910049253, 511.4111630883061 264.9467605417871 C511.677958859019 264.6675519830817, 510.2175595181694 263.15365488469615, 510.2933085143487 263.28741743116836" stroke="#000000" stroke-width="1.2" fill="none"></path></g><g><path d="M547.7380598900223 264.1393523237767 C547.7380598900223 264.1393523237767, 547.7380598900223 264.1393523237767, 547.7380598900223 264.1393523237767 M547.7380598900223 264.1393523237767 C547.7380598900223 264.1393523237767, 547.7380598900223 264.1393523237767, 547.7380598900223 264.1393523237767 M548.6306420470055 270.5677457379666 C549.5435604260998 269.7205413902809, 549.736366023265 268.75305143825074, 553.2921614667243 265.59345249645935 M547.9058783332212 271.0186063974164 C549.4503690752305 269.64301388329966, 550.4647162424899 268.3237880346678, 552.483861540688 266.0566451457684" stroke="none" stroke-width="0.6" fill="none"></path><path d="M550.689580445899 264.27716211317494 C551.3999436583737 264.2613542679348, 551.6270210385007 263.8533392682523, 552.1045007418394 264.2363206039716 C552.581980445178 264.6193019396909, 553.4937185705609 265.7461827463581, 553.5544586659306 266.57505012749095 C553.6151987613003 267.4039175086238, 552.9915624979249 268.4599416622374, 552.4689413140578 269.2095248907686 C551.9463201301908 269.9591081192998, 551.2203199397031 270.7618108051418, 550.4187315627282 271.07254949867837 C549.6171431857533 271.38328819221493, 548.2079526825672 271.2812135103476, 547.6594110522082 271.07395705198786 C547.1108694218491 270.86670059362814, 547.2921283753201 270.4716687701802, 547.127481780574 269.8290107485199 C546.962835185828 269.18635272685964, 546.543996179669 268.19593294954063, 546.6715314837315 267.21800892202623 C546.7990667877941 266.2400848945118, 547.1662733493151 264.53691531553216, 547.8926936049494 263.96146658343343 C548.6191138605836 263.3860178513347, 550.1964158447238 263.78287961006646, 551.0300530175367 263.76531652943385 C551.8636901903496 263.74775344880123, 552.7971053515873 263.7393213693, 552.8945166418272 263.8560880996378 M552.942056743573 263.37848200999747 C553.7086996946757 263.4539760475266, 552.9346813954076 264.9423159203093, 552.8146863262712 265.73151145603396 C552.6946912571348 266.52070699175863, 552.2281841360839 267.03994236548203, 552.2220863287542 268.1136552243457 C552.2159885214246 269.1873680832093, 553.0929582218123 271.48043293572846, 552.7780994822934 272.1737886092157 C552.4632407427746 272.86714428270295, 551.0361773152156 272.6389879767474, 550.3329338916411 272.27378926526933 C549.6296904680667 271.90859055379127, 549.331879366632 270.802726152629, 548.5586389408465 269.98259634034736 C547.785398515061 269.1624665280657, 545.8587512171546 268.2138072537043, 545.6934913369282 267.3530103915795 C545.5282314567019 266.4922135294547, 547.0867471764658 265.2688142091191, 547.5670796594883 264.81781516759844 C548.0474121425108 264.36681612607777, 547.8793350721464 264.7943890905359, 548.575486235063 264.64701614245564 C549.2716373979795 264.4996431943754, 551.375410359651 264.16161060635227, 551.7439866369871 263.9335774791169 C552.1125629143231 263.7055443518815, 550.9814441393121 263.22405994372855, 550.7869438990791 263.27881737904323" stroke="#000000" stroke-width="1.2" fill="none"></path></g><g><path d="M496.11311308010204 251.83603529822108 C484.718848998062 251.02562127289957, 471.60771338181814 251.81965381918937, 460.03067001432834 250.5893382812088 M494.78442491070064 250.2195355445982 C482.32382871103556 250.6543465712164, 468.6976539049285 250.67117628483564, 459.9314228005623 249.51296039376516" stroke="#000000" stroke-width="1.5" fill="none"></path></g><g><path d="M465.2748185821002 244.54478209929437 C463.567407132851 246.53574670142405, 462.0260453940177 248.33498937678627, 459.42599676170636 250.54323043730508 M464.8401491345222 245.15570095786833 C463.8260478420389 245.82905507768342, 462.8323589532772 247.18403210912777, 460.2283209513361 250.34250616766548" stroke="#000000" stroke-width="1.2" fill="none"></path></g><g><path d="M342.5928412254053 247.46091960077024 C342.5928412254053 247.46091960077024, 342.5928412254053 247.46091960077024, 342.5928412254053 247.46091960077024 M342.5928412254053 247.46091960077024 C342.5928412254053 247.46091960077024, 342.5928412254053 247.46091960077024, 342.5928412254053 247.46091960077024" stroke="none" stroke-width="1" fill="none"></path><path d="M346.7895881980774 248.53621437601902 C347.09474490497905 248.68487228631423, 346.8177745035327 247.8083164314287, 347.0371847766475 248.06149376909354 C347.2565950497623 248.3146711067584, 348.35556299914157 249.26874754550607, 348.1060498367664 250.0552784020082 C347.8565366743912 250.84180925851035, 346.23402660766027 252.30344013114598, 345.54010580239645 252.7806789081063 C344.84618499713264 253.25791768506662, 344.25774371854254 253.02485933948714, 343.94252500518337 252.91871106377016 C343.6273062918242 252.81256278805319, 343.9917181828673 252.5584582804404, 343.64879352224125 252.1437892538044 C343.3058688616152 251.72912022716844, 342.1063658626241 251.15895216747842, 341.8849770414271 250.43069690395427 C341.66358822023005 249.70244164043012, 342.0426180448718 248.2082381126424, 342.320460595059 247.7742576726596 C342.5983031452462 247.34027723267678, 342.8095425134685 247.6848317667131, 343.55203234255026 247.82681426405742 C344.294522171632 247.96879676140173, 346.27092186442076 248.63820930129032, 346.77539956954956 248.62615265672548 C347.27987727467837 248.61409601216064, 346.7149849113114 248.00638291540196, 346.5788985733233 247.75447439666848 M343.2954853533373 247.30145635002373 C343.58689219484233 247.2985768984057, 343.6621434213136 247.527539956269, 344.38389462076816 247.61194536482222 C345.1056458202227 247.69635077337543, 347.0415996051948 247.191333248318, 347.62599255006467 247.80788880134304 C348.21038549493454 248.4244443543681, 347.85472082433796 250.8002231658977, 347.8902522899874 251.3112786829725 C347.92578375563687 251.8223342000473, 348.29248109108534 250.73171307256538, 347.83918134396157 250.87422190379175 C347.3858815968378 251.01673073501811, 345.8388907700248 252.180187482617, 345.17045380724477 252.16633167033075 C344.5020168444647 252.1524758580445, 344.26307347345016 250.84180377983247, 343.8285595672812 250.7910870300744 C343.3940456611123 250.74037028031634, 342.94981215350316 252.0554276953157, 342.5633703702309 251.86203117178232 C342.1769285869587 251.66863464824894, 341.0440107326903 250.51633889580168, 341.5099088676478 249.63070788887413 C341.97580700260534 248.74507688194657, 345.09533548911566 246.73890449430667, 345.35875917997606 246.54824513021703 C345.62218287083647 246.3575857661274, 343.36122349060815 248.15433416030527, 343.09045101281015 248.48675170433626" stroke="undefined" stroke-width="2" fill="none"></path></g><g><path d="M346.155209027157 258.9397607667665 C344.90915700915014 272.47298314110446, 346.77360126504834 286.0038444040066, 344.19784922255764 318.86269840764265 M344.48689372070737 259.8137020546486 C345.0774674407212 279.2556701801848, 344.550485807017 300.90752940556524, 344.5199451023263 319.9832036738633" stroke="undefined" stroke-width="2.5" fill="none"></path></g><g><path d="M334.63510279711215 308.9188072261973 C336.921860823466 313.76030309305764, 339.6024070598614 316.498204660884, 346.07539462639596 319.7548002000997 M334.7425682449074 310.4224470405629 C337.4502229355161 312.14897570097736, 340.40901833005415 315.58769659849696, 345.2710275617543 319.37003131878583" stroke="undefined" stroke-width="2" fill="none"></path></g><g><path d="M355.6671260308241 309.03111283520957 C352.0721472786475 313.69390091439925, 349.49655064584033 317.15449193840163, 343.745882016933 318.7158776137097 M355.1253168176718 309.77732095528876 C352.5270935125997 313.17771133704485, 349.64514036053777 314.3276254262573, 345.48699959866565 319.40098526331064" stroke="undefined" stroke-width="2" fill="none"></path></g><g><path d="M466.4787628038688 367.0784251712089 C466.4787628038688 367.0784251712089, 466.4787628038688 367.0784251712089, 466.4787628038688 367.0784251712089 M466.4787628038688 367.0784251712089 C466.4787628038688 367.0784251712089, 466.4787628038688 367.0784251712089, 466.4787628038688 367.0784251712089 M466.80211137454256 373.5794153085994 C469.58160688513465 371.83699081745476, 471.3922098398265 370.33002210144286, 474.24816103763897 366.1670669761381 M467.95175619795674 373.86049684525585 C468.88067197140754 371.8493469082358, 470.73626314782666 370.20971314695754, 474.3196057672493 365.5965501658492" stroke="none" stroke-width="0.6" fill="none"></path><path d="M469.7819050015799 364.57292730452417 C470.9388797240099 364.28093637067076, 472.4263153048118 364.38131638901757, 473.1970025209723 364.8821366068007 C473.96768973713284 365.38295682458386, 474.1714549921754 366.3828951624939, 474.40602829854294 367.5778486112232 C474.64060160491044 368.7728020599525, 474.9426899095895 370.92548472684626, 474.60444235917737 372.0518572991762 C474.26619480876525 373.1782298715062, 473.359218555538 373.86267331821443, 472.37654299607004 374.33608404520294 C471.3938674366021 374.80949477219144, 469.7592037404307 375.2195284911267, 468.7083890023696 374.8923216611072 C467.6575742643085 374.56511483108767, 466.56666792641516 373.1896995177531, 466.07165456770343 372.3728430650859 C465.5766412089917 371.5559866124186, 465.7211271539174 370.81529713235244, 465.7383088500991 369.99118294510373 C465.7554905462808 369.167068757855, 465.4863280165899 368.22308667782346, 466.1747447447935 367.4281579415936 C466.8631614729971 366.63322920536376, 469.03878532407464 365.48793940729365, 469.86880921932067 365.22161052772475 C470.6988331145667 364.95528164815585, 471.1072684891648 365.8461121771713, 471.1548881162697 365.83018466418036 M470.5222297597406 364.4249197150089 C471.4100991338438 364.07628248658335, 472.12388305786374 364.07545581615614, 472.9931920089042 365.1445647439037 C473.86250095994467 366.21367367165124, 475.762371704931 369.3973590760943, 475.73808346598344 370.8395732814943 C475.71379522703586 372.28178748689436, 473.5409616220718 372.839785945719, 472.84746257521874 373.7978499763037 C472.1539635283657 374.7559140068885, 472.70495898221213 376.33605200831096, 471.57708918486514 376.5879574650027 C470.44921938751816 376.8398629216945, 467.2608400448984 376.28165007889413, 466.0802437911369 375.3092827164542 C464.8996475373755 374.3369153540143, 464.5866081420479 372.0072481175089, 464.4935116622964 370.75375329036314 C464.40041518254486 369.5002584632174, 464.9928668133665 368.6063767107293, 465.52166491262784 367.7883137535796 C466.0504630118892 366.97025079642987, 466.69483553736364 366.46615831569716, 467.6663002578644 365.8453755474648 C468.63776497836517 365.22459277923247, 471.0574232719803 364.199968896236, 471.35045323563253 364.06361714418546 C471.64348319928473 363.9272653921349, 469.5679791663197 365.0443906523403, 469.4244800397776 365.0272650351618" stroke="undefined" stroke-width="1.2" fill="none"></path></g><g><path d="M497.28389188391066 344.83143458330034 C497.28389188391066 344.83143458330034, 497.28389188391066 344.83143458330034, 497.28389188391066 344.83143458330034 M497.28389188391066 344.83143458330034 C497.28389188391066 344.83143458330034, 497.28389188391066 344.83143458330034, 497.28389188391066 344.83143458330034 M496.73508705758366 352.72153488073343 C498.4370554497336 350.22207160223894, 500.0238892760378 347.9547834683418, 501.73289027010065 347.48142666594543 M496.8781109510929 353.68147559390246 C498.19080524300637 351.40552070072096, 500.1435086742793 348.9457210021361, 502.2452835593125 346.5901706333464 M501.7564912288676 355.10204379624935 C502.24225874889805 354.4522823950927, 505.37328292613375 350.8481038254647, 506.86795663853195 349.59950864346337 M500.7964910243841 356.21137637173416 C503.304043437843 353.8966281210648, 505.03364291724813 351.124896525024, 506.78220442403847 349.30197500556864" stroke="none" stroke-width="0.6" fill="none"></path><path d="M501.37513742057826 346.2766787257192 C502.3697851620294 346.6945565815095, 504.3749372900751 346.65235484954263, 505.07095904170154 347.525992519911 C505.766980793328 348.3996301902793, 505.8658434172652 350.43034953407135, 505.5512679303371 351.5185047479293 C505.23669244340897 352.6066599617872, 504.0860300332025 353.5188751702995, 503.18350612013273 354.0549238030585 C502.28098220706295 354.5909724358175, 501.22182573550367 354.8197093089716, 500.1361244519182 354.73479654448334 C499.0504231683327 354.6498837799951, 497.7018697310128 354.1487697341845, 496.66929841861986 353.5454472161288 C495.63672710622694 352.94212469807314, 494.1213498610999 352.0908323808881, 493.9406965775608 351.1148614361492 C493.7600432940217 350.13889049141034, 494.98645468750743 348.78485826220174, 495.58537871738537 347.6896215476956 C496.1843027472633 346.59438483318945, 496.38529463123285 344.9246868188473, 497.5342407568284 344.54344114911237 C498.68318688242397 344.16219547937743, 501.63971106468375 345.27194309661195, 502.4790554709586 345.40214752928597 C503.31839987723345 345.53235196196, 502.6254277687015 345.2659212171986, 502.57030719447744 345.32466774515643 M502.5564841528601 343.8480652456846 C503.49607708042805 344.00924964058834, 504.0562920272707 345.23933168521813, 504.2875848027588 346.4383726024552 C504.5188775782469 347.6374135196923, 503.82537928464365 349.9219719215565, 503.9442408057887 351.0423107491071 C504.06310232693374 352.1626495766577, 505.77720185338154 352.2999746147511, 505.0007539296291 353.1604055677589 C504.2243060058767 354.02083652076675, 500.41693045024533 355.9701118846325, 499.28555326327427 356.20489646715413 C498.1541760763032 356.43968104967576, 498.7956565903569 355.50144951019206, 498.2124908078026 354.56911306288856 C497.62932502524836 353.63677661558506, 496.1939563919166 351.93000410516106, 495.7865585679488 350.6108777833332 C495.37916074398106 349.2917514615053, 495.6135137113099 347.57798241630144, 495.768103863996 346.6543551319212 C495.92269401668204 345.73072784754095, 495.822763707424 345.2681827308485, 496.7140994840653 345.0691140770516 C497.6054352607066 344.87004542325474, 500.45846745990707 345.2927986845622, 501.11611852384397 345.45994320913996 C501.77376958778086 345.62708773371776, 500.6253398549989 345.82705019652974, 500.66000586768683 346.07198122451825" stroke="undefined" stroke-width="1.2" fill="none"></path></g><g><path d="M525.7371722255125 368.24048083827313 C525.7371722255125 368.24048083827313, 525.7371722255125 368.24048083827313, 525.7371722255125 368.24048083827313 M525.7371722255125 368.24048083827313 C525.7371722255125 368.24048083827313, 525.7371722255125 368.24048083827313, 525.7371722255125 368.24048083827313 M527.8299953096007 373.0813511057462 C528.8535824351176 370.63579573870413, 531.2075028929704 369.0313147670719, 533.3887565517749 366.4798402840854 M527.4185260417295 373.3862007605635 C529.6278214402384 371.5043099645088, 530.9714508207785 369.70638420593684, 534.40534224381 366.2637863623605" stroke="none" stroke-width="0.6" fill="none"></path><path d="M528.0821979250783 366.35466944489906 C529.1398295125696 365.5717693479748, 530.6457738180367 364.415079148903, 531.6461314550623 364.50466564404553 C532.646489092088 364.5942521391881, 533.6211923348598 365.85254413148107, 534.0843437472324 366.8921884157545 C534.5474951596051 367.93183270002794, 534.42809849446 369.61322320024846, 534.4250399292984 370.7425313496861 C534.4219813641367 371.8718394991237, 534.6344479545619 372.9063388050614, 534.0659923562625 373.6680373123803 C533.4975367579632 374.4297358196992, 532.1668321655098 375.3873573123364, 531.0143063395026 375.31272239359953 C529.8617805134953 375.23808747486265, 527.9940130045749 373.9472757439406, 527.150837400219 373.2202277999591 C526.307661795863 372.4931798559776, 526.2012585578889 371.76843449769007, 525.955252713367 370.95043472971025 C525.7092468688452 370.13243496173044, 525.3110574012436 369.2528156862877, 525.674802333088 368.31222919208017 C526.0385472649324 367.37164269787263, 527.7412716389524 365.8133532810974, 528.1377223044333 365.3069157644652 C528.5341729699142 364.800478247833, 527.9235567226791 365.3358463009587, 528.0535063259732 365.27360409228675 M532.9284700696895 364.07023717461084 C533.7483847337521 364.32911661183135, 532.3113570324914 367.13490032142715, 532.8857770706467 368.1682676445253 C533.4601971088019 369.2016349676235, 536.1022007965038 369.3019477876147, 536.374990298621 370.2704411131997 C536.6477798007382 371.23893443878467, 535.4619808741874 373.2288628456075, 534.52251408335 373.979227598035 C533.5830472925126 374.72959235046244, 531.77943360058 374.6559461347017, 530.7381895535965 374.77262962776456 C529.696945506613 374.8893131208274, 529.4157429752589 375.2359256649662, 528.275049801449 374.6793285564122 C527.134356627639 374.1227314478582, 524.1961054469322 372.65898491392625, 523.8940305107369 371.4330469764405 C523.5919555745417 370.20710903895474, 525.782321300225 368.37916030950856, 526.4626001842774 367.32370093149785 C527.1428790683299 366.26824155348714, 527.1557828242653 365.6510618370453, 527.9757038150515 365.10029070837635 C528.7956248058376 364.5495195797074, 530.9204752667534 364.04708027788087, 531.3821261289947 364.0190741594843 C531.843776991236 363.9910680410878, 530.7828422544487 364.48472523990574, 530.7456089884995 364.93225399799707" stroke="undefined" stroke-width="1.2" fill="none"></path></g><g><path d="M495.5565932563372 387.0553455746132 C495.5565932563372 387.0553455746132, 495.5565932563372 387.0553455746132, 495.5565932563372 387.0553455746132 M495.5565932563372 387.0553455746132 C495.5565932563372 387.0553455746132, 495.5565932563372 387.0553455746132, 495.5565932563372 387.0553455746132 M497.6294650562545 392.1521300080768 C499.9344443695967 391.1096653676284, 501.2499959310405 388.89943234827007, 502.6441092109394 386.2032448205557 M497.37307999196446 392.2350150636961 C499.17365174373873 390.7297809534205, 499.9810859606472 388.8104243157276, 503.46290647389304 385.6102359185119" stroke="none" stroke-width="0.6" fill="none"></path><path d="M501.74965292562257 384.5367537264801 C502.5470229414039 384.8265135147139, 503.85380174470686 387.34019228795194, 504.35580857358593 388.35963613593077 C504.857815402465 389.3790799839096, 505.01343057043346 389.8368429022671, 504.7616938988969 390.65341681435325 C504.50995722736036 391.4699907264394, 503.7801134912307 392.5763690759357, 502.8453885443667 393.2590796084476 C501.9106635975027 393.94179014095954, 500.1329386237957 394.83775584485124, 499.1533442177131 394.7496800094249 C498.17374981163044 394.6616041739985, 497.7135320602754 393.5384542188798, 496.96782210787075 392.7306245958896 C496.2221121554661 391.9227949728994, 494.8760801606251 390.8925367088266, 494.6790845032851 389.90270227148375 C494.48208884594504 388.9128678341409, 495.2826812887847 387.6349426463493, 495.78584816383056 386.79161797183247 C496.2890150388764 385.9482932973156, 496.4655193344899 385.06351260676547, 497.69808575356006 384.84275422438276 C498.93065217263023 384.62199584200005, 502.276497859334 385.1582730765705, 503.1812466782516 385.46706767753636 C504.0859954971693 385.77586227850225, 503.1102398172236 386.4627537800226, 503.12657866706616 386.69552183017805 M499.60906082800716 385.96131403542154 C500.32062849463694 385.802806373756, 499.58770818787644 386.02484938463857, 500.37933692888544 386.5032672997838 C501.17096566989443 386.981685214929, 503.49250967446153 388.0444962619347, 504.35883327406106 388.83182152629263 C505.2251568736606 389.6191467906506, 505.64230282067416 390.5920340170077, 505.5772785264824 391.2272188859313 C505.5122542322907 391.8624037548549, 504.74933765019 391.9429948326574, 503.96868750891065 392.64293073983424 C503.1880373676313 393.3428666470111, 502.11536170890827 394.992215002595, 500.8933776788064 395.42683432899213 C499.67139364870457 395.86145365538925, 497.79440351542183 395.82126651164367, 496.6367833282995 395.25064669821705 C495.47916314117714 394.68002688479044, 494.00410233612985 393.11364061050506, 493.9476565560722 392.0031154484325 C493.8912107760146 390.8925902863599, 495.36981168693535 389.7346317166973, 496.29810864795365 388.58749572578176 C497.22640560897196 387.4403597348662, 499.1405599566971 385.6255203272034, 499.51743832218193 385.1202995029392 C499.8943166876668 384.615078678675, 498.7160532679088 385.2231181414334, 498.55937884086273 385.55617078019645" stroke="undefined" stroke-width="1.2" fill="none"></path></g><g><path d="M479.0784983234718 366.17723332299806 C485.06596982008557 362.5959056410854, 490.13538697852204 357.0551321514924, 494.73686733400984 356.72469339678 M480.8088578810976 365.1279098564195 C484.9968689925124 360.24385760157, 491.0240991654365 356.64583354992794, 494.93021174851697 355.8642897751845" stroke="undefined" stroke-width="0.8" fill="none"></path></g><g><path d="M503.4732598769903 354.0998795832533 C511.4223688079186 356.5539099701337, 513.6676653514044 362.7035250219188, 520.6935726687989 364.7555724770586 M505.47174441619336 355.66231385863114 C507.4979764624828 356.73840346458, 510.3064476554345 359.1557607995571, 520.6517452120193 364.93700859586255" stroke="undefined" stroke-width="0.8" fill="none"></path></g><g><path d="M521.6761673226977 375.8891207469514 C515.8441595157778 375.8482573755771, 512.4187139581132 377.73584618541685, 503.29188417963763 384.51993322354895 M519.8417891807236 375.66924487773883 C514.4503823611842 377.74057072438444, 509.42867126265963 381.057828012496, 504.9887812383242 384.2819901312002" stroke="undefined" stroke-width="0.8" fill="none"></path></g><g><path d="M494.03356153331043 384.9660681150074 C491.0860407576542 383.04106007644197, 486.10229156224847 378.407564383864, 478.36023153563866 376.20710978289077 M494.72281728262953 385.31962313675257 C491.3033189488375 382.8105906767999, 488.3053068570572 380.3347893121112, 480.5617081267242 374.8348467051023" stroke="undefined" stroke-width="0.8" fill="none"></path></g><g><path d="M239.57443697214367 249.77471165742674 C245.43301003082001 250.41077519096046, 250.44615066071646 250.17697604181816, 254.56309658893005 249.79787569557334 M240.013807156763 250.06614200512215 C243.8669924977347 250.09037158443462, 247.9273970459055 249.82302700739052, 254.89305646657792 250.1414889317596" stroke="#000000" stroke-width="0.6" fill="none"></path></g><g><path d="M269.72053649812534 250.41266018078994 C273.9590100428786 250.02695006057556, 278.3791660307794 249.86555662287657, 284.649419423675 250.16477207279925 M269.94162476829916 249.9545841182105 C274.4118713633842 250.0635818626165, 279.1083711971759 249.87843354718308, 285.0497535991816 249.99764463932436" stroke="#000000" stroke-width="0.6" fill="none"></path></g><g><path d="M300.07300268153347 250.14235473430736 C303.5142781802201 250.14702427151516, 307.3684046727241 249.74391155755237, 315.3729807441759 250.22991187967145 M300.03688851184563 250.06691841441403 C304.2020671056813 250.061740781826, 308.2460037264072 250.15268758945462, 314.88327575699986 249.80636410790663" stroke="#000000" stroke-width="0.6" fill="none"></path></g><g><path d="M330.09423859231424 250.09533105979503 C332.7590461024616 250.46871961165837, 335.74799957180943 249.67546462835026, 344.9840205237205 249.77042921184207 M329.8395336851105 250.1490287023295 C332.81601229274 249.92157983219704, 336.17490393443774 249.840632621264, 345.0907425983468 249.94310820960925" stroke="#000000" stroke-width="0.6" fill="none"></path></g><g><path d="M359.6132608820737 249.94078614973776 C363.6554362901443 250.24777025034402, 367.0291630958232 250.11926463692114, 375.40033920141855 250.15622873822514 M359.80808077339697 250.19599593536546 C364.80509200136885 250.06531575643078, 370.05386914709754 249.83851376358862, 374.7976631274485 250.1052686715873" stroke="#000000" stroke-width="0.6" fill="none"></path></g><g><path d="M389.77075773721725 250.34273382034374 C393.72982457587653 250.26490796568328, 397.47149954415585 250.03756149491358, 405.19386542096316 249.63989752044122 M390.1366355769807 249.9553078134335 C394.5702810700926 250.04845106444893, 399.43453096212676 249.8638002053284, 405.19822406233345 249.87017606793492" stroke="#000000" stroke-width="0.6" fill="none"></path></g><g><path d="M419.60173436716195 249.97539571850916 C423.08880204594885 249.73734246463067, 426.6185479219477 250.14408806202547, 434.6678971990423 249.73783469231577 M420.1327217014191 249.9940193629558 C424.67963428711 249.91299462209932, 428.7529099684198 249.84296907969846, 435.0851403221283 250.1390591933197" stroke="#000000" stroke-width="0.6" fill="none"></path></g><text x="400" y="560" text-anchor="middle" font-family="sans-serif" font-size="16" fill="#222" font-style="italic">The best move in chicken is often a move that redefines the game.</text></svg>