<?xml version="1.0" encoding="UTF-8"?>
<svg width="800" height="600" viewBox="0 0 800 600" xmlns="http://www.w3.org/2000/svg"><rect width="800" height="600" fill="#FFFFFF"></rect><g><path d="M99.91715826415148 419.3184169341348 C276.8401154713012 422.1970864244933, 455.07573886303794 422.09850836628294, 699.6326641320833 419.3480935265762 M100.19727644226693 419.7231609226169 C241.3529025827048 422.614439329576, 383.59385121144794 422.024250428453, 700.1746148717478 420.5433545919114" stroke="#000000" stroke-width="2" fill="none"></path></g><g><path d="M211.36217098721372 316.2356314501116 C211.36217098721372 316.2356314501116, 211.36217098721372 316.2356314501116, 211.36217098721372 316.2356314501116 M211.36217098721372 316.2356314501116 C211.36217098721372 316.2356314501116, 211.36217098721372 316.2356314501116, 211.36217098721372 316.2356314501116 M213.11352912162903 322.0154712548958 C218.77905034054686 318.45045618373746, 220.1845844832341 314.70347484309195, 224.30222239648992 310.549633397442 M214.185466459347 322.822906923869 C217.3834501128193 318.97462167794765, 220.04554862165142 314.50613465884777, 224.13488784297013 311.5802453674817 M220.2757308800055 325.14906428800236 C221.1581800184358 322.9661507547934, 224.74194602373026 318.8777601600935, 228.12161703379692 315.3038669843813 M219.73649438473973 324.85676975653087 C222.7474465285433 321.3462729413361, 225.31628843322173 318.0180200028352, 227.1737933712999 315.6379984703925" stroke="none" stroke-width="0.7" fill="none"></path><path d="M220.4925795767597 309.7139014449995 C222.08648908843978 309.7117112807838, 223.72276008281688 310.7377630033296, 225.03248925353756 311.98320860712295 C226.34221842425825 313.2286542109163, 228.1238091200935 315.4685639449013, 228.35095460108374 317.1865750677597 C228.57810008207397 318.9045861906181, 227.50182310510974 320.971289711628, 226.395362139479 322.29127534427346 C225.28890117384827 323.6112609769189, 223.2219938519314 324.7468555060846, 221.71218880729936 325.10648886363236 C220.20238376266732 325.4661222211801, 218.89760320620695 325.1848657156242, 217.33653187168682 324.4490754895599 C215.77546053716668 323.7132852634956, 213.30919515117068 322.0978030764809, 212.34576080017845 320.69174750724665 C211.38232644918622 319.2856919380124, 211.1395569451362 317.4082103011453, 211.55592576573346 316.01274207415446 C211.97229458633072 314.61727384716363, 213.11298542162928 313.3483741960805, 214.843973723762 312.3189381453018 C216.5749620258947 311.2895020945231, 220.5921658497556 310.01177495656435, 221.94185557852973 309.83612576948235 C223.29154530730386 309.66047658240035, 223.08509946487305 311.02900449032757, 222.94211209640682 311.2650430228099 M222.53399901377924 311.1289962428241 C223.9405143968232 311.7730593779503, 225.29386648410184 313.1102796635296, 226.07197838191738 314.5678658389192 C226.8500902797329 316.0254520143088, 227.15641464753557 318.496100288249, 227.20267040067247 319.874513295162 C227.24892615380938 321.25292630207497, 227.6006419218273 321.6951787295815, 226.3495129007388 322.83834388039696 C225.0983838796503 323.9815090312124, 221.479959055292 326.3843071287546, 219.6958962741414 326.73350420005465 C217.9118334929908 327.0827012713547, 217.0983510462745 326.2597542975583, 215.64513621383514 324.9335263081974 C214.1919213813958 323.60729831883646, 211.36343806233967 320.53096148034473, 210.97660727950523 318.77613626388904 C210.5897764966708 317.02131104743336, 212.5532488107251 315.52074440720463, 213.32415151682852 314.4045750094633 C214.09505422293194 313.288405611722, 213.96796027237343 312.7360803121019, 215.60202351612574 312.07911987744114 C217.23608675987805 311.4221594427804, 221.947706390439 310.7295842934558, 223.12853097934246 310.4628124014989 C224.3093555682459 310.19604050954206, 222.90666986241177 310.22832305331934, 222.68697104954646 310.47848852570013" stroke="#000000" stroke-width="1.4" fill="none"></path></g><g><path d="M220.78095605685215 334.9446338492395 C219.81827147257664 341.66452445066005, 220.41569539762133 345.1044282672614, 219.7712520582099 360.75790281859287 M219.8080435718769 333.8232745971477 C220.55112100596733 343.478595488981, 220.81696882221536 353.9242282388505, 219.89492096363284 361.9825011435952" stroke="#000000" stroke-width="1.2" fill="none"></path></g><g><path d="M218.5658662649226 363.0445111182098 C216.14398404483424 371.22207333280403, 214.4012226653916 379.6147368726593, 213.31622496761187 385.3636867783494 M220.38620574412047 361.57785058734765 C217.4891420112105 367.85370556859084, 216.45384755117655 373.15303991121937, 211.37645057405092 386.2931404756156" stroke="#000000" stroke-width="1" fill="none"></path></g><g><path d="M219.0163212164513 361.07692986365146 C222.2554333614525 368.7988896470968, 223.57042974691745 374.2708694895884, 228.67182042021565 387.145108528992 M220.11023390920613 362.3673895828201 C223.29642321921222 370.1240139930688, 225.7205075158189 379.4173199564775, 228.31336233697547 385.6919636084197" stroke="#000000" stroke-width="1" fill="none"></path></g><g><path d="M215.20750085247178 269.74469892567026 C218.29984898016366 274.92771933838725, 219.3846926252027 277.45114678264775, 224.23771293544698 285.04456224991856 M215.37788235328847 269.8356141563426 C217.40953543192336 273.32528940920776, 220.41222551403936 276.8099224590258, 224.62035304002603 284.52755344696925" stroke="#000000" stroke-width="1.6" fill="none"></path></g><g><path d="M225.34098361568255 284.9149787563277 C223.97093571918188 287.1888859036535, 220.97021479928642 289.7232214270335, 216.54741009839714 294.80745759526854 M225.02019925879912 284.7371807572933 C221.7237465885696 288.6818456203538, 219.034651033472 292.909999253423, 217.15219054707725 295.1102071558337" stroke="#000000" stroke-width="1.6" fill="none"></path></g><g><path d="M555.743646118884 285.67364518780727 C555.743646118884 285.67364518780727, 555.743646118884 285.67364518780727, 555.743646118884 285.67364518780727 M555.743646118884 285.67364518780727 C555.743646118884 285.67364518780727, 555.743646118884 285.67364518780727, 555.743646118884 285.67364518780727 M555.7946053203973 300.5407576846264 C558.4008042851999 295.9828445455656, 561.4633685920097 293.56015140824894, 566.7114717907358 287.8511498877463 M555.5333978580114 300.5087495643771 C560.2365634393287 295.57940759398576, 564.2932072159446 290.81696390578867, 566.0590919174963 287.9448135249705" stroke="none" stroke-width="1.2" fill="none"></path><path d="M561.7261313081249 285.7627067893269 C563.6009321906481 286.147528771204, 566.0065787894835 287.70097709805754, 567.2150611164991 288.993297765116 C568.4235434435147 290.28561843217443, 568.9897891308357 291.8693588708524, 568.9770252702184 293.5166307916775 C568.9642614096011 295.16390271250265, 568.3146270127057 297.2525269500946, 567.1384779527953 298.87692929006676 C565.9623288928848 300.5013316300389, 563.8002292565399 302.9079879880542, 561.9201309107558 303.2630448315105 C560.0400325649717 303.61810167496685, 557.6425366376537 302.10722952441404, 555.8578878780908 301.00727035080484 C554.0732391185278 299.90731117719565, 551.815874818308 298.3442506586559, 551.2122383533779 296.6632897898552 C550.6086018884478 294.9823289210545, 551.4907830512666 292.7416680276507, 552.2360690885099 290.9215051380007 C552.9813551257532 289.10134224835076, 554.1200479334084 286.7199249703229, 555.6839545768378 285.74231245195557 C557.2478612202672 284.76469993358825, 560.5264305463801 284.9637809848083, 561.6195089490866 285.05583002779684 C562.7125873517931 285.1478790707854, 562.1152293407706 285.97824252171205, 562.2424249930771 286.2946067098867 M561.9947229817909 284.3152903550898 C563.7272985940347 284.25848012761224, 565.2018260662556 285.2199396080757, 566.228783476832 286.88225590434365 C567.2557408874083 288.5445722006116, 568.2048809797774 292.3779281548724, 568.1564674452486 294.2891881326976 C568.1080539107198 296.20044811052276, 567.1754236722945 296.9300765404388, 565.9383022696591 298.34981577129463 C564.7011808670236 299.76955500215047, 562.2290205628445 302.0654987054625, 560.7337390294357 302.8076235178325 C559.2384574960269 303.5497483302025, 558.4927792950026 303.65213570964323, 556.9666130692062 302.80256464551456 C555.4404468434099 301.9529935813859, 552.5002809610527 299.7984904353, 551.5767416746575 297.7101971330604 C550.6532023882622 295.62190383082077, 550.9799067127243 292.08216804354413, 551.425377350835 290.27280483207704 C551.8708479889457 288.46344162060996, 552.7577088974696 287.5302624824601, 554.2495655033216 286.8540178642579 C555.7414221091736 286.1777732460557, 559.3202687330323 286.57396503228745, 560.3765169859471 286.21533712286384 C561.4327652388619 285.85670921344024, 560.3189132769248 284.7593315035809, 560.58705502081 284.7022504077164" stroke="#DAA520" stroke-width="2.4" fill="none"></path></g><g><path d="M559.4728521545165 312.56950028036914 C559.8386911347475 323.201702406724, 558.7258406501414 332.87331213902434, 560.3975159865067 344.17664113770803 M560.2910993517565 312.1006921341145 C560.5686210204962 320.7692950902698, 559.9097485874186 329.64959474207484, 559.6657441900268 344.1803201411794" stroke="#DAA520" stroke-width="2" fill="none"></path></g><g><path d="M560.4595297916198 344.11878492645315 C555.5821558469128 354.5435035920922, 551.8677932395796 364.067057333925, 550.3082471067581 373.567839612623 M560.5277209517088 344.3413311733422 C556.837228540274 351.99799585383494, 554.4381086896125 361.7158041997935, 550.1368990848913 372.64382346969916" stroke="#DAA520" stroke-width="1.6" fill="none"></path></g><g><path d="M560.5780665568949 344.3936001992432 C562.7874399766291 351.6001409587759, 565.4152758038804 358.2719416564084, 570.3766793426339 373.2617339205906 M559.7551157251709 344.0177460864599 C563.3782998196175 354.0303389731479, 567.5403794787053 364.2281802494321, 570.1568809485146 372.045852715316" stroke="#DAA520" stroke-width="1.6" fill="none"></path></g><g><path d="M529.3041321361145 230.7331877153041 C533.451545823599 247.3099060688841, 536.1547289202396 263.12907389561184, 539.4587149196113 280.1747389920972 M529.6563055205256 229.97364867642682 C534.1139477248385 249.24660389076504, 537.6439088887935 268.7012110181254, 540.0765631492114 279.62290041862093" stroke="#DAA520" stroke-width="1.2" fill="none"></path></g><g><path d="M590.4838349224666 230.55114904361542 C586.2937241038683 244.8225437736218, 583.6645199349315 258.8120614647553, 580.6833251864906 280.70031027273444 M590.0318486825826 230.1284086207673 C587.098957307132 245.37931197602288, 584.235780635245 259.9971806850302, 579.7269772232455 280.1655465096359" stroke="#DAA520" stroke-width="1.2" fill="none"></path></g><g><path d="M530.3097660814431 228.9528713430907 C543.5200979892107 228.6617143210992, 554.6403009324763 230.18125579063476, 588.9823214362002 230.73246783056854 M529.8515128592579 229.6539819771364 C552.7448911032776 229.16391936612428, 575.1400353731439 230.19221200436957, 590.5176163769497 230.0826057883194" stroke="#DAA520" stroke-width="1.4" fill="none"></path></g><g><path d="M488.40867947140856 387.466823885065 C488.40867947140856 387.466823885065, 488.40867947140856 387.466823885065, 488.40867947140856 387.466823885065 M488.40867947140856 387.466823885065 C488.40867947140856 387.466823885065, 488.40867947140856 387.466823885065, 488.40867947140856 387.466823885065 M488.20247395542896 392.0461626857477 C490.19345658739894 390.53576754869755, 491.60228776506625 388.6502987737404, 492.9796075195181 387.33870581869627 M487.8556132276947 392.6123414513934 C489.8795670081135 390.7038765203986, 491.32187928435127 388.7338079436827, 492.62344826232703 387.3158715678916" stroke="none" stroke-width="0.4" fill="none"></path><path d="M489.7581918872833 387.10442592163565 C490.49757670418484 386.9890714773248, 491.7422953074513 387.05426415715715, 492.3158622547073 387.3997901481239 C492.88942920196337 387.7453161390906, 493.21367090883433 388.5180055159697, 493.1995935708197 389.17758186743606 C493.185516232805 389.8371582189024, 492.70673726548563 390.7567706745867, 492.2313982266193 391.35724825692205 C491.756059187753 391.9577258392574, 490.84437684922807 392.53242746268404, 490.34755933762176 392.7804473614483 C489.85074182601545 393.02846726021255, 489.754065311608 392.99547181737074, 489.25049315698163 392.8453676495075 C488.7469210023553 392.6952634816443, 487.6290413368552 392.4015151335201, 487.32612640986355 391.87982235426887 C487.0232114828719 391.35812957501764, 487.28713464457144 390.4109579442143, 487.43300359503155 389.7152109740002 C487.57887254549166 389.019464003786, 487.70585447923617 388.11804432817905, 488.2013401126241 387.7053405329841 C488.69682574601205 387.29263673778917, 489.98968404065226 387.3594746687305, 490.4059173953592 387.2389882028304 C490.82215075006616 387.1185017369303, 490.7020672819244 386.94845170835237, 490.6987402408659 386.9824217375835 M491.5016037848063 386.7223730872662 C492.23021135463506 386.80079412063475, 492.82077583723805 386.98858495871235, 493.1040275403408 387.7009731135474 C493.3872792434435 388.4133612683824, 493.4634641572791 390.39494627985647, 493.2011140034226 390.99670201627623 C492.93876384956616 391.598457752696, 491.85851903469154 390.8227925786017, 491.5299266172019 391.31150753206595 C491.2013341997123 391.8002224855302, 491.81172006419473 393.690287425269, 491.2295594984847 393.9289917370615 C490.6473989327747 394.167696048854, 488.82605344885263 393.19898738817227, 488.03696322294184 392.7437334028209 C487.24787299703104 392.28847941746955, 486.5859079486947 391.8079234642027, 486.49501814301993 391.1974678249534 C486.4041283373452 390.58701218570405, 487.241873629688 389.829699140076, 487.49162438889334 389.08099956732497 C487.7413751480987 388.33229999457393, 487.48131172528326 386.9658336879895, 487.99352269825226 386.7052703884471 C488.50573367122126 386.4447070889047, 490.0319955501903 387.46012672923484, 490.5648902267072 387.51761977007067 C491.09778490322407 387.5751128109065, 491.29624578662305 387.20748589131387, 491.19089075735366 387.05022863346187" stroke="#000000" stroke-width="0.8" fill="none"></path></g><g><path d="M513.5468580584095 388.1189012500198 C513.5468580584095 388.1189012500198, 513.5468580584095 388.1189012500198, 513.5468580584095 388.1189012500198 M513.5468580584095 388.1189012500198 C513.5468580584095 388.1189012500198, 513.5468580584095 388.1189012500198, 513.5468580584095 388.1189012500198 M513.538323803843 392.52655126244343 C515.5523217082116 390.46717336750737, 516.4451859205551 388.73878944270166, 517.4913724800027 387.46925747499114 M513.8953021974175 392.19001000303257 C514.8674031071421 390.86494786610166, 516.1017096239275 389.7400890431842, 517.7198119887858 387.92018187547274" stroke="none" stroke-width="0.4" fill="none"></path><path d="M514.7853792230233 387.1224494375062 C515.422081428961 386.9679902028076, 516.6866618394265 387.08447479060345, 517.2073501985321 387.4596694528829 C517.7280385576378 387.83486411516236, 517.9095762095135 388.7814300795776, 517.9095093776572 389.37361741118286 C517.9094425458009 389.9658047427881, 517.4918592743213 390.3711123627614, 517.206949207394 391.0127934425145 C516.9220391404667 391.65447452226766, 516.7274154635746 393.0072923012547, 516.2000489760931 393.2237038897017 C515.6726824886115 393.4401154781487, 514.7380778669338 392.53958009474803, 514.0427502825046 392.3112629731965 C513.3474226980753 392.082945851645, 512.3692640200627 392.204500038614, 512.0280834695172 391.85380116039266 C511.6869029189717 391.5031022821713, 511.78016352725984 390.78626966760055, 511.9956669792316 390.2070697038683 C512.2111704312033 389.627869740136, 512.9067922354553 388.84445290256684, 513.3211041813478 388.37860137799913 C513.7354161272402 387.9127498534314, 514.1133627765221 387.5705840377542, 514.4815386545862 387.4119605564621 C514.8497145326503 387.25333707516995, 515.3498011553442 387.42886489364855, 515.5301594497327 387.4268604902462 M514.1454753413554 387.17955032492364 C514.5851315125047 386.759638560647, 515.6170384611544 386.1997555558545, 516.0690602391809 386.470118815001 C516.5210820172074 386.7404820741475, 516.6596539033044 387.95542556484133, 516.8576060095144 388.8017298798028 C517.0555581157244 389.64803419476425, 517.3415017185526 390.81855219752657, 517.2567728764408 391.54794470476986 C517.1720440343289 392.27733721201315, 516.8004478310243 393.01451691226714, 516.3492329568429 393.1780849232625 C515.8980180826616 393.3416529342578, 515.230404683572 392.7609855906181, 514.5494836313527 392.5293527707417 C513.8685625791334 392.2977199508653, 512.7792086361536 392.2988495330953, 512.2637066435268 391.78828800400413 C511.7482046509 391.277726474913, 511.39059107198165 390.0242630476759, 511.45647167559184 389.4659835961949 C511.52235227920204 388.90770414471393, 512.0533383551868 388.7846094854662, 512.6589902651881 388.43861129511816 C513.2646421751894 388.0926131047701, 514.6947070673652 387.53732251749784, 515.0903831355995 387.3899944541066 C515.4860592038337 387.2426663907154, 515.0911526747694 387.55601996302113, 515.0330466745934 387.55464291477085" stroke="#000000" stroke-width="0.8" fill="none"></path></g><g><path d="M537.5313121534736 387.76806121504023 C537.5313121534736 387.76806121504023, 537.5313121534736 387.76806121504023, 537.5313121534736 387.76806121504023 M537.5313121534736 387.76806121504023 C537.5313121534736 387.76806121504023, 537.5313121534736 387.76806121504023, 537.5313121534736 387.76806121504023 M538.0045010663808 391.90680733585805 C538.971952230059 390.7753365993849, 540.2861433249036 389.4121034998965, 541.5531013116644 387.6175405939601 M537.6716090196346 392.0223466646559 C539.3473337213876 390.39208160452796, 540.5130070480801 388.75143471759424, 541.7473631627578 387.53876063029406 M540.7721409898896 393.24438863473154 C541.3952367379508 392.2751992420586, 542.2495472900024 391.5229492410926, 542.7147104669791 390.78931685049804 M540.73167497311 393.271612071473 C541.2864973066992 392.54241756696297, 542.0146798604886 391.73196850695393, 542.6376450289619 390.93198356748917" stroke="none" stroke-width="0.4" fill="none"></path><path d="M539.7065485561845 386.60389126079804 C540.3808471327866 386.4189216261267, 541.4393691511839 386.7814323107848, 541.9800765090705 387.15103405000536 C542.5207838669571 387.52063578922593, 542.8262834537145 388.07347789079074, 542.9507927035044 388.8215016961216 C543.0753019532942 389.5695255014524, 542.9626528258841 391.0171531739759, 542.72713200781 391.6391768819903 C542.491611189736 392.2612005900047, 542.1332738489482 392.3090559187967, 541.5376677950603 392.553643944208 C540.9420617411724 392.7982319696193, 539.8100439069777 393.25222098054644, 539.1534956844831 393.106705034458 C538.4969474619885 392.96118908836957, 537.8889390516176 392.34597461088146, 537.5983784600927 391.6805482676772 C537.3078178685678 391.0151219244729, 537.4046609757212 389.78538049322776, 537.4101321353334 389.1141469752323 C537.4156032949455 388.44291345723684, 537.1861490500585 387.9520513557754, 537.6312054177656 387.6531471597045 C538.0762617854728 387.35424296363357, 539.5720959565817 387.4018235098915, 540.0804703415762 387.32072179880686 C540.5888447265706 387.2396200877222, 540.6511247305397 387.2180606140988, 540.6814517277325 387.16653689319656 M539.7966759139821 386.81457887878275 C540.5264621973799 386.7484563988918, 541.9776205861633 387.1866637881928, 542.6458328407333 387.649279329509 C543.3140450953033 388.1118948708252, 543.9696493873985 388.82184279253414, 543.8059494414024 389.5902721266799 C543.6422494954063 390.35870146082567, 542.0868701842794 391.57508543395267, 541.6636331647564 392.25985533438353 C541.2403961452335 392.9446252348144, 541.7686004755735 393.72653753843156, 541.266527324265 393.6988915292652 C540.7644541729564 393.67124552009886, 539.3102302878469 392.39264255067377, 538.6511942569055 392.0939792793856 C537.992158225964 391.7953160080975, 537.48120577753 392.4045377020237, 537.312311138616 391.9069119015364 C537.143416499702 391.4092861010491, 537.4506056683449 389.75033498167795, 537.637826423421 389.1082244764619 C537.825047178497 388.4661139712458, 537.8711518361954 388.5268823799667, 538.4356356690722 388.0542488702401 C539.000119501949 387.58161536051347, 540.728424279868 386.3984048935632, 541.0247294206821 386.27242341810216 C541.3210345614962 386.1464419426411, 540.2141548264264 387.27556394690913, 540.2134665139569 387.29836001747384" stroke="#000000" stroke-width="0.8" fill="none"></path></g><g><path d="M564.7296853143337 386.23599942032524 C564.7296853143337 386.23599942032524, 564.7296853143337 386.23599942032524, 564.7296853143337 386.23599942032524 M564.7296853143337 386.23599942032524 C564.7296853143337 386.23599942032524, 564.7296853143337 386.23599942032524, 564.7296853143337 386.23599942032524 M563.9101854354759 392.0097003846247 C564.7801623114101 391.05530730883123, 565.6784130170574 389.8831666560861, 566.9172615064361 388.2328103133916 M563.5869075923139 392.080204959355 C564.607829741305 390.91049784951076, 565.2921424598475 390.1054014148967, 567.0981011207995 388.19968706050037" stroke="none" stroke-width="0.4" fill="none"></path><path d="M564.4040078370994 386.61064850107897 C564.9074404472207 386.45612974125936, 565.7521182042084 387.17494383817836, 566.2628596586442 387.63454067575714 C566.77360111308 388.0941375133359, 567.2873169379903 388.9205393580518, 567.468456563714 389.36822952655143 C567.6495961894376 389.81591969505104, 567.4114891439183 389.7803344514844, 567.3496974129858 390.3206816867547 C567.2879056820534 390.861028922025, 567.458972127803 392.1144627856721, 567.0977061781196 392.61031293817337 C566.7364402284361 393.1061630906746, 565.912710561425 393.4515471411496, 565.1821017148854 393.295782601762 C564.4514928683459 393.14001806237445, 563.2260186089785 392.1434619483521, 562.7140530988823 391.67572570184774 C562.2020875887862 391.20798945534335, 562.0994063805952 390.9846811505118, 562.1103086543084 390.48936512273565 C562.1212109280216 389.9940490949595, 562.3667410127125 389.191300877838, 562.7794667411615 388.70382953519083 C563.1921924696105 388.2163581925437, 564.3826134547544 387.76338132670537, 564.586663025002 387.56453706685267 C564.7907125952497 387.36569280699996, 564.0604662892941 387.54405230076907, 564.0037641626477 387.51076397607466 M565.8744190249422 386.5178845263026 C566.4253845230469 386.63128980947226, 566.9492927059666 387.8651326652141, 567.2910078629884 388.36999225855755 C567.6327230200102 388.874851851901, 567.7643491884422 389.1102689703356, 567.924709967073 389.5470420863632 C568.0850707457038 389.9838152023908, 568.6769193853647 390.5834260779281, 568.2531725347732 390.99063095472314 C567.8294256841816 391.3978358315182, 566.1779859198257 391.7736605421608, 565.3822288635237 391.9902713471334 C564.5864718072216 392.20688215210595, 563.96340396027 392.4390782133895, 563.478630196961 392.29029578455857 C562.993856433652 392.1415133557276, 562.8462549795355 391.6123738377519, 562.4735862836698 391.0975767741478 C562.100917587804 390.5827797105437, 561.1337332335576 389.9356069509497, 561.2426180217667 389.2015134029341 C561.3515028099758 388.4674198549185, 562.5205212013111 387.04123699213756, 563.1268950129245 386.69301548605426 C563.7332688245378 386.344793979971, 564.519972755205 387.0371860070368, 564.8808608914468 387.11218436643446 C565.2417490276886 387.18718272583214, 565.2442079674024 387.11252742014693, 565.292223830375 387.1430056424405" stroke="#000000" stroke-width="0.8" fill="none"></path></g><text x="400" y="560" text-anchor="middle" font-family="sans-serif" font-size="16" fill="#222" font-style="italic">"Credit isn't vanity — it's the resource that converts contribution into capacity."</text></svg>