<?xml version="1.0" encoding="UTF-8"?>
<svg width="800" height="600" viewBox="0 0 800 600" xmlns="http://www.w3.org/2000/svg"><rect width="800" height="600" fill="#FFFFFF"></rect><g><path d="M0.9358204001630541 360.60307274427413 C164.05222694655464 355.9097761607888, 328.3856489717422 356.9381065151119, 799.2644849410193 359.3091154320934 M-0.4680127261196293 359.492991138357 C208.4565661304312 355.3916283069618, 416.6731348965557 356.6395377108536, 799.6981263933958 360.3134809335379" stroke="#000000" stroke-width="2.4" fill="none"></path></g><g><path d="M300.9011112353267 361.9523129067125 C317.2188575919259 331.8864293773453, 334.1588118437803 301.2587671303744, 349.7077905550578 281.28028610695804 M300.1620687853485 360.8496007405055 C312.0096767646018 340.6798211571357, 324.21005607428276 322.54396333824354, 350.3997668857749 279.82088630253327 M350.77440346984275 281.6065664521377 C365.9196927642548 302.3134936705221, 378.2376356211839 325.2561975465799, 401.89440483139623 360.1281636013467 M349.22718874424004 280.1938534663024 C361.7401483680532 299.56588729463033, 373.4125102852396 316.9649934104668, 399.97925962001966 359.5869009393393" stroke="#000000" stroke-width="2.2" fill="none"></path></g><g><path d="M349.4238092295504 281.3233099011841 C348.53941706175783 275.933071964429, 348.62775909426074 269.22957157376794, 351.63185507496127 259.8747807879545 M349.4535441423862 279.221375122874 C350.76204054668653 276.34731954286207, 350.92764249411147 270.2260044660777, 350.30562244810847 259.8130107597248" stroke="#000000" stroke-width="1.6" fill="none"></path></g><g><path d="M443.7741007854624 291.6910178713583 C443.7741007854624 291.6910178713583, 443.7741007854624 291.6910178713583, 443.7741007854624 291.6910178713583 M443.7741007854624 291.6910178713583 C443.7741007854624 291.6910178713583, 443.7741007854624 291.6910178713583, 443.7741007854624 291.6910178713583 M441.0670553612599 304.3201166969123 C446.8202719337095 302.3750983291495, 449.4771065239305 301.32247986028057, 453.5503442811946 291.5013716729441 M441.92725869961794 305.50032426564087 C444.6791296400013 301.9655735082658, 447.5089514863524 299.4939643234231, 455.014480614182 290.61509299019946 M449.76949764708866 308.993488603698 C453.11237202103945 306.8198948234801, 453.4920446109677 305.2912484802463, 459.59729344597747 297.17534190612054 M448.5355770953919 310.62382541822365 C452.2782973209042 307.90462545857247, 454.71870707231955 303.8285181723628, 460.60582926793217 297.10840124467086" stroke="none" stroke-width="1" fill="none"></path><path d="M451.73197841359354 289.33567164861887 C454.0922553890263 289.3304475348708, 456.89716765665406 290.0847862138682, 458.6211460907426 291.9630205814688 C460.3451245248312 293.8412549490694, 462.15120704921407 298.3256414271672, 462.07584901812487 300.6050778542225 C462.0004909870357 302.88451428127775, 459.7511929545526 303.93681468885467, 458.1689979042074 305.6396391438005 C456.5868028538622 307.3424635987463, 454.86356257220706 310.2256123724883, 452.5826787160536 310.82202458389736 C450.3017948599001 311.41843679530643, 446.570755884263 310.4077165960252, 444.4836947672866 309.2181124122551 C442.39663365031015 308.028508228485, 440.8063111388328 305.84424856838154, 440.06031201419506 303.68439948127696 C439.3143128895573 301.52455039417237, 439.383815866207 298.2635738986892, 440.00770001945995 296.2590178896277 C440.6315841727129 294.2544618805663, 441.46429511944876 292.88942728281137, 443.80361693371276 291.65706342690834 C446.14293874797676 290.4246995710053, 452.1839049286094 288.9682161137023, 454.04363090504404 288.8648347542096 C455.90335688147866 288.7614533947169, 455.17477870155864 290.8449236002025, 454.96197279232064 291.0367752699522 M450.29623104040786 290.2397584525357 C452.4714480570483 289.9560888919789, 456.04616760091943 290.5279676112583, 457.61855522832747 291.72367201276893 C459.1909428557355 292.91937641427955, 459.2174140629832 295.385389928897, 459.73055680485595 297.41398486159926 C460.2436995467287 299.44257979430154, 461.47032276042694 301.9884730166033, 460.6974116795638 303.8952416089825 C459.92450059870066 305.80201020136167, 457.3061001582878 307.9983879820739, 455.09309031967706 308.85459641587437 C452.88008048106633 309.71080484967484, 449.79710618584977 309.4278626633659, 447.41935264789925 309.0324922117852 C445.0415991099487 308.63712176020454, 442.0259452601178 308.3044054305285, 440.8265690919741 306.4823737063903 C439.62719292383036 304.66034198225213, 439.75460672833964 300.4783566370459, 440.223095639037 298.100301866956 C440.6915845497344 295.72224709686606, 442.32625726178856 293.7464679312571, 443.63750255615844 292.21404508585084 C444.9487478505283 290.6816222404446, 447.23023071313037 289.45745766781283, 448.0905674052564 288.90576479451846 C448.9509040973825 288.3540719212241, 448.46049616790907 288.50119917628564, 448.7995227089147 288.9038878460847" stroke="#000000" stroke-width="2" fill="none"></path></g><g><path d="M449.31509124285105 311.66336408816915 C451.7129431648544 321.9061037798382, 453.7891234556709 332.8568089524641, 454.1902167148007 340.0125656652228 M449.5352538957221 311.50052698941965 C450.50647246837985 319.52586425352064, 451.41859323849366 325.86517134965806, 453.2448294183293 340.81788494465906" stroke="#000000" stroke-width="2" fill="none"></path></g><g><path d="M455.48573234862374 338.3159429438633 C449.96995447275015 348.5129601070628, 446.6119483061118 360.53897930088783, 444.16298506524464 368.64797878217036 M453.04666199844246 340.9559129022253 C451.0064838577981 348.35522951231655, 448.52531982317436 354.45815584560745, 443.08759479428693 370.4095241840389" stroke="#000000" stroke-width="2" fill="none"></path></g><g><path d="M454.4172953292839 339.62994346975364 C455.44080265781787 347.71806620059874, 458.9789616269959 355.7534083806109, 462.70937501678594 368.3067549707 M453.31100432529223 339.021750703005 C457.8317944243192 350.268044237904, 460.22909279244027 360.396078120604, 464.0493661980361 369.1576946295992" stroke="#000000" stroke-width="2" fill="none"></path></g><g><path d="M449.4919701606159 325.77278335697724 C447.15105369818974 328.007051051126, 443.28351441598056 333.11072390997623, 430.3528312844209 344.13038229355584 M450.69942153965667 325.61560127037757 C444.76667713853374 331.09673639353156, 440.8509775500099 334.9595256796578, 432.07474279389874 345.5161076699902" stroke="#000000" stroke-width="2" fill="none"></path></g><g><path d="M449.3101046906233 324.67315294033716 C453.8537670261413 330.6016292411242, 461.7596209164738 336.02448285954273, 473.9880617447024 345.49765668028044 M449.7988817672374 324.69753562843937 C457.95420396699615 333.7394021516776, 467.1586762924559 340.27853514714286, 471.88187093567836 344.2003014533293" stroke="#000000" stroke-width="2" fill="none"></path></g><g><path d="M601.7069419366995 342.12416555332965 C607.7809125023332 331.05725488802125, 611.2499747989141 321.7491933432765, 620.9956445632348 311.99216237651933 M600.2913289537372 338.81994424482843 C603.8207045472225 333.77099147704223, 609.888598085399 327.8417672478018, 620.508549617294 309.80341011565133 M617.7224195886328 310.26614404727746 C625.2780157098192 320.52733742389086, 633.6345280343985 332.61536973738714, 640.2787397220021 339.8044750794816 M620.5876172673987 309.1772978408403 C627.6513850359572 319.792911801228, 632.5503301057463 330.6486241453095, 640.5530343326317 340.7553611691726" stroke="#4A90D9" stroke-width="2" fill="none"></path></g><g><path d="M619.291432716146 310.4886246546969 C618.5838519997322 304.9391402580468, 619.5423965234937 302.03147634389313, 621.3461720864052 295.02537768006835 M620.1333635749759 310.1416095291612 C619.1425300182483 303.7090504247842, 619.3806005359816 298.4247468195581, 619.3426848080842 294.62381329761433" stroke="#4A90D9" stroke-width="1.6" fill="none"></path></g><g><path d="M49.28376110352649 362.71588394611564 C65.65066663288651 365.36979393714915, 78.3225624017443 359.1200780026676, 91.15739241165348 358.8716054157407 M48.952373408137134 360.31949975622575 C60.95896171026806 361.9094747646447, 70.27353820483859 361.81755000511305, 91.68917100184215 361.3460341054104" stroke="#000000" stroke-width="1.2" fill="none"></path></g><g><path d="M176.7743274551134 360.08403090002764 C191.31760486769707 361.93318170308373, 202.57255725826582 358.78846839897597, 218.34655825261683 365.1314298493886 M181.89766118450447 361.21532476168863 C189.38291267128625 362.26296187311834, 198.95662286630883 362.02344008597277, 218.84866662171657 361.8887824678014" stroke="#000000" stroke-width="1.2" fill="none"></path></g><g><path d="M312.05190397252903 363.3477835679603 C322.0860193410482 363.8292217681023, 331.83954884122323 364.8679867239078, 347.4789035426305 364.1959595939587 M308.256793640199 363.14653723824864 C320.98700197051295 363.22718235037013, 332.197265823803 360.79283498718826, 348.7717587485178 363.52938688811736" stroke="#000000" stroke-width="1.2" fill="none"></path></g><g><path d="M438.87400660059745 359.7476025622788 C453.0428292344655 359.7752131852066, 465.0860487425828 364.3980916447471, 482.6826142435741 362.6737504008373 M440.1007901253566 362.92842839793616 C449.81464344283415 360.8550404018932, 459.0186528983693 363.48646656093973, 478.0288139771924 360.2984720310729" stroke="#000000" stroke-width="1.2" fill="none"></path></g><g><path d="M568.6904238114565 362.4239519753028 C582.5007851535994 362.8970652172879, 596.6878238070758 362.1783560537679, 606.5585079422505 365.44436604592767 M571.5301279690598 361.28297799008726 C582.7218019463884 362.2018434213559, 591.6247670193071 363.44941392181425, 608.003071037812 362.6292011316862" stroke="#000000" stroke-width="1.2" fill="none"></path></g><g><path d="M701.9573466391687 362.9924703594994 C705.2343850231191 364.67474572141845, 720.8566259754097 359.3903072375003, 743.1712877624635 358.0977757029388 M701.4978778333223 363.80065616246975 C710.088872895028 363.526665726299, 718.6592076046936 362.2908000036842, 738.0200986440772 362.3685002098151" stroke="#000000" stroke-width="1.2" fill="none"></path></g><text x="400" y="560" text-anchor="middle" font-family="sans-serif" font-size="16" fill="#222" font-style="italic">"The worst days aren’t the storms. They’re the still ones."</text></svg>