<?xml version="1.0" encoding="UTF-8"?>
<svg width="800" height="600" viewBox="0 0 800 600" xmlns="http://www.w3.org/2000/svg"><rect width="800" height="600" fill="#FFFFFF"></rect><g><path d="M180.4347926391884 280.0992351402342 C163.50928196004497 265.8474296224379, 147.10457063187042 252.30386665950707, 118.87646375686512 228.5299223710998 M180.0187302136536 280.029360758772 C159.8373881018305 263.44910971971456, 139.95536638073898 246.77875920601917, 118.54581284417829 228.30643857398573" stroke="undefined" stroke-width="1.2" fill="none"></path></g><g><path d="M115.81721247968655 227.87961418092135 C115.81721247968655 227.87961418092135, 115.81721247968655 227.87961418092135, 115.81721247968655 227.87961418092135 M115.81721247968655 227.87961418092135 C115.81721247968655 227.87961418092135, 115.81721247968655 227.87961418092135, 115.81721247968655 227.87961418092135 M117.14091754676673 231.00959672224033 C118.03981751487723 229.1901968961274, 119.7306158049077 228.2937737151761, 120.62606166188405 226.79815752067015 M117.29682403893837 230.79423164386165 C118.31146086135021 229.85749807568058, 118.97353124317064 229.04968623403303, 120.71138449739009 226.6190670192321" stroke="none" stroke-width="0.4" fill="none"></path><path d="M119.4391621181916 225.46403852262407 C119.9859863780848 225.62035926813573, 120.38545664573095 227.0670092773769, 120.73234902374126 227.43670435190828 C121.07924140175157 227.80639942643964, 121.64323673462664 227.27045971777721, 121.52051638625349 227.68220896981225 C121.39779603788034 228.0939582218473, 120.19608169714543 229.48634808929555, 119.99602693350236 229.90719986411858 C119.7959721698593 230.32805163894162, 120.76130915043053 229.98322409704656, 120.3201878043951 230.20731961875052 C119.87906645835967 230.43141514045448, 118.05201134864662 231.4944579791665, 117.34929885728975 231.25177299434242 C116.64658636593289 231.00908800951834, 116.36610257081065 229.30536537537327, 116.10391285625393 228.75120970980603 C115.8417231416972 228.1970540442388, 115.48310296151956 228.22379073253018, 115.77616056994941 227.92683900093905 C116.06921817837926 227.62988726934793, 117.41235973606743 227.14346637753923, 117.86225850683303 226.96949932025922 C118.31215727759863 226.7955322629792, 118.10230398592542 226.9263774057884, 118.47555319454305 226.88303665725894 C118.84880240316069 226.83969590872948, 119.91071418623955 226.66117126395662, 120.10175375853885 226.70945482908255 M119.73842072376816 227.76342352669698 C120.00847276847524 228.07110390379418, 120.7403768126232 227.4416858924992, 121.05493513055963 227.70247592123292 C121.36949344849606 227.96326594996663, 122.00168525229559 228.70740632503725, 121.62577063138671 229.3281636990993 C121.24985601047784 229.94892107316133, 119.27776523017039 231.09490963016648, 118.79944740510636 231.42702016560514 C118.32112958004234 231.7591307010438, 119.06335131389267 231.56899478184258, 118.75586368100257 231.32082691173127 C118.44837604811246 231.07265904161997, 117.40736270977463 230.39016136284232, 116.95452160776577 229.93801294493733 C116.50168050575691 229.48586452703233, 116.16332739049973 228.87034707856378, 116.03881706894943 228.60793640430134 C115.91430674739912 228.3455257300389, 115.87106906960183 228.88346770581427, 116.20745967846392 228.3635488993626 C116.54385028732601 227.84363009291093, 117.63939185956914 225.96223579353637, 118.05716072212195 225.48842356559126 C118.47492958467475 225.01461133764616, 118.60698923648113 225.61605343320858, 118.71407285378079 225.52067553169195 C118.82115647108046 225.42529763017532, 118.43887955098778 224.61126213781782, 118.6996624259199 224.9161561564915" stroke="undefined" stroke-width="0.8" fill="none"></path></g><g><path d="M180.55499604532739 279.8182869344877 C165.49513372735075 263.8593828728226, 150.2964482520583 246.32427604830727, 126.9792658056212 220.30126523729425 M180.1176939666358 279.82129267701225 C159.58713179852614 257.2005696674244, 138.7195186674445 234.26850597149775, 126.43777253603892 220.62251690077514" stroke="undefined" stroke-width="1.2" fill="none"></path></g><g><path d="M125.89826554437718 218.09275800639523 C125.89826554437718 218.09275800639523, 125.89826554437718 218.09275800639523, 125.89826554437718 218.09275800639523 M125.89826554437718 218.09275800639523 C125.89826554437718 218.09275800639523, 125.89826554437718 218.09275800639523, 125.89826554437718 218.09275800639523 M125.43916614112976 223.33115531236433 C126.00753104898541 221.98842673162446, 126.984605768172 221.1348174074736, 128.17531692559066 219.70769985209606 M125.56077821714025 222.94233855070655 C126.4261877073249 221.99518266395427, 127.29881771844698 221.10007114908146, 128.35495509176272 220.13581496960975 M128.0974521232848 220.00733881255292 C128.3780028419209 219.82225593070146, 128.6775100570207 219.50158349473074, 128.75351210769102 219.31795048746434 M128.19156581886867 220.10621053290268 C128.26236160680338 219.88382785654707, 128.47847703682467 219.72303214853585, 128.81810754728974 219.2811703176043" stroke="none" stroke-width="0.4" fill="none"></path><path d="M126.3906277871692 218.25990681014397 C127.07599144526183 218.28992129500932, 128.88102098846946 218.82764948614178, 129.14074071381435 219.11170030322756 C129.40046043915925 219.39575112031335, 128.1935154931353 219.57800997256402, 127.94894613923852 219.9642117126587 C127.70437678534174 220.3504134527534, 127.83475079278006 220.99638212134602, 127.67332459043364 221.42891074379563 C127.51189838808722 221.86143936624524, 127.2477279419147 222.20992097008647, 126.98038892516001 222.5593834473563 C126.71304990840532 222.90884592462615, 126.54794116397949 223.68426493910957, 126.06929048990551 223.5256856074146 C125.59063981583154 223.36710627571964, 124.46297234401747 222.07193847549064, 124.10848488071612 221.6079074571865 C123.75399741741477 221.1438764388824, 123.61204609035082 221.36419580567505, 123.9423657100974 220.7414994975899 C124.272685329844 220.11880318950475, 125.59014728045136 218.43812443904233, 126.09040259919561 217.8717296086756 C126.59065791793986 217.30533477830886, 126.6620392110263 217.2803112328665, 126.9438976225629 217.34313051538956 C127.2257560340995 217.40594979791263, 127.8669370733844 218.22628686512442, 127.78155306841525 218.2486453038139 M127.02629753602571 217.47483370687138 C127.71903939979201 217.45412762956667, 128.96034865974394 217.66009949709598, 129.4939500011113 218.265151947157 C130.02755134247866 218.870204397218, 130.4389612533464 220.1709661720457, 130.22790558422994 221.1051484072374 C130.01684991511348 222.03933064242912, 128.95298901700707 223.47256880771286, 128.22761598641253 223.87024535830722 C127.50224295581799 224.26792190890157, 126.39701102822332 223.94032959734537, 125.87566740066273 223.49120771080348 C125.35432377310215 223.0420858242616, 125.14616622850183 221.61337875584292, 125.09955422104899 221.17551403905586 C125.05294221359615 220.7376493222688, 125.47018183280287 221.32861233781946, 125.59599535594573 220.86401941008117 C125.7218088790886 220.39942648234288, 125.63228289842962 218.60391118955775, 125.85443535990623 218.3879564726261 C126.07658782138284 218.17200175569442, 126.63243945620721 219.632447387533, 126.92891012480544 219.56829110849122 C127.22538079340367 219.50413482944944, 127.59695179095624 218.06226383563788, 127.63325937149565 218.00301879837542 C127.66956695203507 217.94377376111296, 127.2426746448187 219.00783484525613, 127.14675560804189 219.21282088491643" stroke="undefined" stroke-width="0.8" fill="none"></path></g><g><path d="M179.58274043928256 279.74102196291614 C164.19556564371524 255.94461771720106, 148.71041701507878 232.19930228573952, 134.89379974615923 213.3942272921447 M179.858049709358 280.27504020528124 C165.07442081093748 258.54391628357905, 150.67959466181074 236.92493329851743, 135.13344552454535 213.37947584179582" stroke="undefined" stroke-width="1.2" fill="none"></path></g><g><path d="M134.26107369173923 212.1123062863104 C134.26107369173923 212.1123062863104, 134.26107369173923 212.1123062863104, 134.26107369173923 212.1123062863104 M134.26107369173923 212.1123062863104 C134.26107369173923 212.1123062863104, 134.26107369173923 212.1123062863104, 134.26107369173923 212.1123062863104 M134.91813494060852 215.53908909718677 C136.4611320573523 214.23958988348448, 136.95084090396924 212.9950560621272, 137.6404327649653 212.8320165628915 M135.2739062545407 215.60959711599193 C136.0941358185499 214.3714161836644, 137.24328481829443 213.40401071150677, 137.93411972712997 212.66893284848754" stroke="none" stroke-width="0.4" fill="none"></path><path d="M135.60866928035742 210.8582177894204 C135.80748909609667 210.9209697697854, 135.6670542471526 211.12255690751368, 136.05842250586875 211.5585145181227 C136.4497907645849 211.99447212873173, 137.6645565971439 212.83286146140722, 137.9568788326543 213.4739634530745 C138.2492010681647 214.1150654447418, 138.1878116503927 214.92378849757412, 137.8123559189311 215.4051264681265 C137.43690018746952 215.88646443867887, 136.23651212117625 216.32600624328558, 135.7041444438847 216.3619912763887 C135.17177676659315 216.3979763094918, 135.04379337015231 216.05660402455726, 134.61814985518183 215.62103666674514 C134.19250634021134 215.18546930893302, 133.32133729875153 214.1509914732859, 133.15028335406177 213.748587129516 C132.979229409372 213.34618278574612, 133.38341104860692 213.50610858358544, 133.5918261870432 213.2066106041259 C133.8002413254795 212.90711262466635, 133.9706391223741 212.42694801985678, 134.40077418467953 211.95159925275868 C134.83090924698496 211.4762504856606, 135.88897339928872 210.42656316247823, 136.17263656087582 210.35451800153734 C136.45629972246292 210.28247284059645, 136.20716818796492 211.20628162109438, 136.10275315420208 211.51932828711335 M135.8611752943288 211.845103476193 C136.6873598580366 211.66312858692646, 137.6548693052257 210.5711843332046, 137.99953871268823 210.8410126666948 C138.34420812015077 211.11084100018502, 138.10063999428843 212.50793343303985, 137.929191739104 213.46407347713418 C137.75774348391957 214.4202135212285, 137.16268920503825 215.93784306221818, 136.97084918158166 216.57785293126082 C136.77900915812506 217.21786280030346, 137.14525888425925 217.55383829449286, 136.77815159836447 217.30413269139007 C136.4110443124697 217.05442708828727, 135.21976438504282 215.72662855316077, 134.76820546621303 215.07961931264404 C134.31664654738324 214.43261007212732, 134.4850632212844 213.94049943848773, 134.06879808538565 213.42207724828967 C133.6525329494869 212.9036550580916, 132.39467222831678 212.05628629828735, 132.27061465082045 211.96908617145561 C132.14655707332412 211.88188604462388, 132.9487861267541 212.98883059196217, 133.3244526204076 212.8988764872993 C133.70011911406112 212.80892238263644, 133.9705051444156 211.81990919504207, 134.5246136127416 211.4293615434784 C135.0787220810676 211.0388138919147, 136.22481170339628 210.31524518879274, 136.64910343036365 210.55559057791723" stroke="undefined" stroke-width="0.8" fill="none"></path></g><g><path d="M179.86765597123713 280.23250571127744 C173.2105400708003 265.0699284948147, 165.68098468802125 250.6803068603741, 144.65151963311922 208.63282648294006 M180.0159514578626 279.91606138041385 C167.3809961112866 254.27845965232262, 154.6146162481287 227.77448076703251, 145.14771913519633 208.11242984286193" stroke="undefined" stroke-width="1.2" fill="none"></path></g><g><path d="M143.70596637701448 205.74748331088077 C143.70596637701448 205.74748331088077, 143.70596637701448 205.74748331088077, 143.70596637701448 205.74748331088077 M143.70596637701448 205.74748331088077 C143.70596637701448 205.74748331088077, 143.70596637701448 205.74748331088077, 143.70596637701448 205.74748331088077 M142.86623439399784 211.10493487147744 C144.0583624543895 210.0832753309991, 144.22107279745657 209.08051876006314, 146.9037128736464 206.47611428408186 M143.1291617243498 210.76494512709806 C144.30602536040846 210.0177539282884, 144.8119503007396 208.91965833671958, 146.60346038331102 206.75896223790906 M146.95774790039258 211.23734096833832 C147.04363276295987 211.06098046462722, 147.19756103927426 210.90555140966867, 147.6443765151877 210.42582618378273 M146.960717632135 211.14466434249454 C147.15656061387247 210.9472955479276, 147.39342089950142 210.62626439653357, 147.60237939677606 210.4139528498011" stroke="none" stroke-width="0.4" fill="none"></path><path d="M143.65144565064026 205.8102022320404 C143.99892607115066 205.5280904149231, 144.83889395154836 206.21161745014268, 145.23703433302754 206.26251910270634 C145.63517471450672 206.31342075527, 145.68682215685754 205.67185629725967, 146.0402879395154 206.11561214742238 C146.39375372217324 206.5593679975851, 147.07026425410464 208.18641606642424, 147.35782902897463 208.92505420368263 C147.64539380384463 209.66369234094103, 148.12141830339473 210.16544512953752, 147.76567658873526 210.54744097097276 C147.4099348740758 210.929436812408, 145.92626697250296 211.1893458678713, 145.22337874101783 211.21702925229403 C144.5204905095327 211.24471263671674, 144.02058067988426 211.14504278397624, 143.5483471998244 210.71354127750908 C143.07611371976455 210.28203977104192, 142.44408155085804 209.09709730047075, 142.38997786065863 208.62802021349114 C142.33587417045922 208.15894312651153, 143.07501960944856 208.31592126563706, 143.22372505862796 207.8990787556314 C143.37243050780737 207.48223624562573, 143.0962847502995 206.4277452519203, 143.282210555735 206.12696515345718 C143.46813636117048 205.82618505499406, 144.27663189146733 206.24563944804405, 144.33927989124098 206.0943981648527 M144.31940600712844 205.36079979673076 C144.70828545450527 205.30635231368683, 145.29916716398589 207.04682160975443, 146.01747943665035 207.37504053663727 C146.7357917093148 207.7032594635201, 148.5794322647373 207.30486018041609, 148.6292796431152 207.33011335802783 C148.67912702149312 207.35536653563958, 146.60170275383484 207.2189707488592, 146.3165637069178 207.52655960230774 C146.03142466000077 207.8341484557563, 146.93180630643747 208.71803942684437, 146.9184453616129 209.1756464787191 C146.90508441678833 209.63325353059383, 146.68766351270642 210.39494976398757, 146.23639803797047 210.27220191355607 C145.78513256323453 210.14945406312458, 144.8528436319561 208.66967023230367, 144.21085251319712 208.43915937613016 C143.56886139443816 208.20864851995665, 142.53595124125212 209.11903629694885, 142.3844513254166 208.88913677651496 C142.23295140958106 208.65923725608107, 142.84303405390227 207.343336006712, 143.301853018184 207.0597622535268 C143.76067198246574 206.7761885003416, 145.0092841424397 207.5517094495157, 145.1373651111069 207.18769425740368 C145.2654460797741 206.82367906529166, 144.40572037718275 204.9063058441285, 144.07033883018718 204.87567110085473" stroke="undefined" stroke-width="0.8" fill="none"></path></g><g><path d="M180.58676119496187 279.4684311332466 C169.9743763289332 250.49678094899923, 161.234279863332 221.1337704694781, 155.391544430336 203.57517004124995 M180.1748170930682 280.200919237602 C172.1503046221249 254.9285239230783, 163.72426491891073 230.52319996157854, 155.50157603074385 204.11678363143275" stroke="undefined" stroke-width="1.2" fill="none"></path></g><g><path d="M154.86937118566993 200.87654013308193 C154.86937118566993 200.87654013308193, 154.86937118566993 200.87654013308193, 154.86937118566993 200.87654013308193 M154.86937118566993 200.87654013308193 C154.86937118566993 200.87654013308193, 154.86937118566993 200.87654013308193, 154.86937118566993 200.87654013308193 M154.63975927723322 206.118639887272 C155.5557060143948 204.56768116273471, 156.31343527307547 203.88996359140958, 157.29948378956598 202.71090955543667 M154.555509844339 205.6851472890342 C155.4094593774448 204.5597908161888, 156.6962826263906 203.3984391713229, 157.0066751142395 203.00470261358916" stroke="none" stroke-width="0.4" fill="none"></path><path d="M154.79666071079342 200.9601839662539 C155.3362482143121 200.81008049649546, 155.44475930025976 202.1891116772258, 155.9473429137389 202.4327884674523 C156.44992652721805 202.67646525767879, 157.60236025235582 202.01654768104854, 157.8121623916682 202.42224470761275 C158.0219645309806 202.82794173417696, 157.27145248945413 204.15135619334924, 157.20615574961323 204.86697062683754 C157.14085900977233 205.58258506032584, 157.84293603318645 206.48264487132636, 157.42038195262285 206.71593130854248 C156.99782787205925 206.9492177457586, 155.38404532132216 206.5169116862062, 154.6708312662317 206.26668925013433 C153.9576172111412 206.01646681406245, 153.37812581399606 205.49753573537078, 153.14109762207994 205.21459669211126 C152.90406943016382 204.93165764885174, 153.2534873622676 204.92884741014416, 153.24866211473503 204.5690549905773 C153.24383686720245 204.20926257101047, 152.82784846317395 203.71955051780924, 153.1121461368844 203.0558421747102 C153.39644381059486 202.39213383161115, 154.67504278881447 200.96973761481613, 154.95444815699767 200.58680493198307 C155.23385352518088 200.20387224915, 154.7299921307711 200.58338776106834, 154.78857834598367 200.75824607771182 M155.35125429754888 202.7557688230694 C155.99362341499247 202.3649570370637, 157.0613330399022 200.31310845293746, 157.63070780898454 200.31494990865124 C158.20008257806688 200.31679136436503, 158.68442247616176 202.21050597527088, 158.76750291204297 202.76681755735208 C158.85058334792419 203.3231291394333, 158.5538456362276 203.1342017148737, 158.12919042427177 203.65281940113852 C157.70453521231593 204.17143708740332, 156.77849046838512 205.4352646568026, 156.21957164030792 205.87852367494088 C155.66065281223072 206.32178269307917, 155.24398931019996 206.50902179653087, 154.77567745580853 206.31237350996818 C154.3073656014171 206.1157252234055, 153.69497661594883 205.3118100913179, 153.4097005139593 204.69863395556476 C153.12442441196978 204.0854578198116, 152.8958277894681 203.1609584984301, 153.06402084387136 202.63331669544925 C153.23221389827464 202.10567489246841, 153.9142375373406 201.51455575181058, 154.418858840379 201.5327831376797 C154.92348014341738 201.55101052354883, 156.17378186260825 202.86906804395065, 156.09174866210165 202.742681010664 C156.00971546159505 202.61629397737735, 153.95543174036052 200.8759171186058, 153.92665963733933 200.7744609379598" stroke="undefined" stroke-width="0.8" fill="none"></path></g><g><path d="M179.7294871312795 280.0559423361068 C175.93349757957594 257.88362209099654, 171.59892850978719 234.30256302811887, 166.05349402335912 200.77904562115467 M179.96432811314304 279.7656664874708 C174.89050990764176 249.82771662305703, 169.22816253549317 219.289504713083, 166.23894798781842 201.10338803154633" stroke="undefined" stroke-width="1.2" fill="none"></path></g><g><path d="M163.30134044507633 200.25626122386512 C163.30134044507633 200.25626122386512, 163.30134044507633 200.25626122386512, 163.30134044507633 200.25626122386512 M163.30134044507633 200.25626122386512 C163.30134044507633 200.25626122386512, 163.30134044507633 200.25626122386512, 163.30134044507633 200.25626122386512 M164.4711484971604 203.43112294908283 C165.9890876746568 201.1864161096611, 167.31125596647766 200.1248626458816, 168.12433695498453 198.9843080104817 M165.03327451064433 203.06198430159967 C165.70053311309556 201.99061282987964, 166.67314542662743 200.77504671488535, 168.11223698335263 199.09662404816694" stroke="none" stroke-width="0.4" fill="none"></path><path d="M167.8318277883717 199.02029926785485 C168.40390530237946 199.15447144513746, 168.9032577535112 199.99713932073377, 169.08272633948837 200.46565296471823 C169.26219492546554 200.9341666087027, 169.06921895763836 201.31328038051618, 168.90863930423464 201.83138113176173 C168.74805965083092 202.3494818830073, 168.63053221632438 203.13562484772544, 168.1192484190661 203.57425747219162 C167.60796462180784 204.0128900966578, 166.31495170641688 204.57143903354705, 165.840936520685 204.4631768785588 C165.36692133495313 204.35491472357057, 165.51915974092984 203.4003666872048, 165.27515730467493 202.92468454226227 C165.03115486842003 202.44900239731973, 164.7546030926842 201.9977848130214, 164.37692190315553 201.60908400890358 C163.99924071362688 201.22038320478575, 162.84577582548386 201.2062729678641, 163.00907016750298 200.59247971755522 C163.1723645095221 199.97868646724635, 164.83327368986605 198.26238465372418, 165.35668795527027 197.92632450705025 C165.8801022206745 197.59026436037632, 165.72649453314884 198.4267269439348, 166.14955575992838 198.57611883751167 C166.5726169867079 198.72551073108855, 167.8612143774836 198.84558270713674, 167.89505531594756 198.82267586851148 M166.6162880092363 199.982495581597 C167.02392168028362 199.74703684821557, 166.27535583986673 197.9692135004173, 166.60365427877863 197.81652054482973 C166.93195271769054 197.66382758924215, 168.17104913717696 198.5500606116568, 168.58607864270763 199.06633784807158 C169.0011081482383 199.58261508448638, 169.43677938539926 200.22794768653512, 169.09383131196265 200.91418396331852 C168.75088323852603 201.60042024010193, 167.24943106688013 202.69944323354767, 166.52839020208796 203.1837555087721 C165.8073493372958 203.66806778399652, 165.22427204321133 203.9847180008599, 164.76758612320967 203.82005761466513 C164.310900203208 203.65539722847035, 163.882083742954 202.54413465028978, 163.78827468207794 202.19579319160346 C163.69446562120189 201.84745173291714, 163.9489718242263 202.3017581188666, 164.20473175795334 201.73000886254712 C164.46049169168037 201.15825960622766, 164.92719870962918 199.0691322828843, 165.32283428444015 198.76529765368662 C165.71846985925112 198.46146302448892, 166.28405275120443 199.68398927334823, 166.57854520681906 199.90700108736087 C166.8730376624337 200.1300129013735, 166.99959462017435 200.44550807551445, 167.08978901812796 200.10336853776238" stroke="undefined" stroke-width="0.8" fill="none"></path></g><g><path d="M179.87258466358043 280.4844886484154 C179.48931079822697 261.9562244331857, 178.2928914409205 243.86700770275675, 177.50580613159718 199.92584463528988 M179.72793269275328 280.0947779812727 C179.41314518095197 258.90129116346986, 178.75825110214092 237.81476717288334, 177.35345573917502 200.08982295335258" stroke="undefined" stroke-width="1.2" fill="none"></path></g><g><path d="M174.52504629521806 198.08776292840446 C174.52504629521806 198.08776292840446, 174.52504629521806 198.08776292840446, 174.52504629521806 198.08776292840446 M174.52504629521806 198.08776292840446 C174.52504629521806 198.08776292840446, 174.52504629521806 198.08776292840446, 174.52504629521806 198.08776292840446 M174.46226305265495 202.43144127260462 C175.53558537614026 201.24419790125447, 176.98427830404236 200.21569530926382, 177.27755880662738 199.10064076382346 M174.94197949086492 202.33057538903955 C175.81791271494603 201.51951332286706, 176.56304338278872 200.3014433264422, 177.5957245059316 199.46871299851315" stroke="none" stroke-width="0.4" fill="none"></path><path d="M176.56470204053133 198.3461052954568 C176.94454993082132 198.2011614713908, 176.86708785099643 198.69605924001974, 177.2062235552202 198.64090882833813 C177.54535925944396 198.58575841665652, 178.19992651958404 197.73506370859758, 178.59951626587392 198.01520282536717 C178.9991060121638 198.29534194213676, 179.53698110017527 199.73382643882493, 179.60376203295954 200.32174352895558 C179.6705429657438 200.90966061908622, 179.26494183187268 201.19237617057053, 179.00020186257956 201.54270536615098 C178.73546189328644 201.89303456173144, 178.6993485428736 202.39349903034775, 178.01532221720083 202.42371870243826 C177.33129589152807 202.45393837452878, 175.54203178147253 202.07461144888237, 174.896043908543 201.72402339869396 C174.25005603561345 201.37343534850555, 174.15322030335952 200.98146025296467, 174.13939497962366 200.32019040130783 C174.1255696558878 199.658920549651, 174.44101651066458 198.15061275566137, 174.8130919661279 197.75640428875298 C175.18516742159122 197.36219582184458, 175.94985447529942 197.82341144782302, 176.37184771240356 197.9549395998574 C176.7938409495077 198.08646775189177, 177.3595989650883 198.58329062086793, 177.34505138875275 198.54557320095927 M176.69056088696144 197.8357605416297 C177.16545208320088 197.6702649621763, 179.34134608110764 198.43033936706163, 179.9119621188724 198.59907637754594 C180.48257815663715 198.76781338803025, 179.96117526208465 198.32619193045264, 180.11425711354994 198.84818260453548 C180.26733896501523 199.37017327861832, 181.08214139771994 201.10861950329365, 180.83045322766407 201.731020422043 C180.5787650576082 202.35342134079235, 179.29014822962168 202.52940064802064, 178.60412809321477 202.58258811703152 C177.91810795680786 202.6357755860424, 177.23081867085187 202.05275565420652, 176.71433240922255 202.05014523610822 C176.19784614759322 202.04753481800992, 175.70706411284007 203.13620333607372, 175.50521052343885 202.56692560844175 C175.30335693403762 201.99764788080978, 175.63770246361156 199.21131639387585, 175.50321087281515 198.63447887031646 C175.36871928201873 198.05764134675707, 174.46788998515035 199.28611788489835, 174.69826097866044 199.10590046708546 C174.92863197217054 198.92568304927258, 176.4455292076649 197.67215621672972, 176.8854368338757 197.5531743634391 C177.3253444600865 197.43419251014848, 177.21295802291513 198.1226387466474, 177.33770673592534 198.39200934734166" stroke="undefined" stroke-width="0.8" fill="none"></path></g><g><path d="M179.63478140713136 280.28564070154323 C182.7204423881156 255.1171115872964, 185.43051495384606 229.5587764419921, 188.85241979201882 199.93690282806742 M179.8816205322601 279.7590875172758 C182.0812550832255 258.900623987792, 184.3820851020299 238.5205756351473, 188.0908942522326 200.4907627044068" stroke="undefined" stroke-width="1.2" fill="none"></path></g><g><path d="M185.33909871684205 198.21318432712994 C185.33909871684205 198.21318432712994, 185.33909871684205 198.21318432712994, 185.33909871684205 198.21318432712994 M185.33909871684205 198.21318432712994 C185.33909871684205 198.21318432712994, 185.33909871684205 198.21318432712994, 185.33909871684205 198.21318432712994 M185.85947876467503 201.27231499242578 C187.33727913641496 200.18624159932753, 188.82610764855073 199.2710012471588, 189.56703216261118 197.98633786421343 M186.18789414527222 201.89439283316295 C187.08441325821096 200.79753812261788, 187.78659579164452 199.97359244980922, 189.34034549694266 197.73802820493808 M188.74263858947376 203.47806254908699 C189.33381930057593 203.27631335137215, 189.60844729500522 202.08925172134698, 190.30234215311694 201.34325243280006 M188.6326050353238 203.56506145124948 C189.37623116371472 202.9654874578718, 190.09195049136335 202.17810996641788, 190.52828298224532 201.33076731580928" stroke="none" stroke-width="0.4" fill="none"></path><path d="M186.8089941301772 197.38936735105565 C187.13085258904277 197.21045324520603, 188.5103511528255 197.61546602596238, 189.2863192597034 198.0920329950912 C190.06228736658127 198.56859996422, 191.36298686602757 199.71474583676707, 191.46480277144457 200.2487691658285 C191.56661867686157 200.78279249488992, 190.097615513234 200.8185330397468, 189.89721469220538 201.29617296945966 C189.69681387117677 201.77381289917253, 190.4946962333944 202.8377701713469, 190.26239784527291 203.11460874410565 C190.03009945715144 203.3914473168644, 189.15296262108728 203.10460400354725, 188.50342436347657 202.9572044060121 C187.85388610586585 202.80980480847694, 186.7846468128831 202.66969002909278, 186.3651682996087 202.23021115889478 C185.94568978633433 201.79073228869677, 186.15656786174407 200.99098259619, 185.9865532838302 200.3203311848241 C185.81653870591634 199.64967977345822, 184.94832685140085 198.5698881611269, 185.34508083212557 198.20630269069935 C185.7418348128503 197.8427172202718, 187.99224794897893 198.02361974706318, 188.36707716817858 198.13881836225875 C188.74190638737824 198.2540169774543, 187.53397873916884 198.9911916504724, 187.59405614732356 198.8974943818728 M189.9285860504435 198.07777930634407 C190.04073633410226 198.34578034307285, 188.57889337515186 198.80405701713147, 188.94677913422046 199.00867579291656 C189.31466489328906 199.21329456870166, 191.99600224614488 198.93363147970024, 192.1359006048551 199.30549196105463 C192.2757989635653 199.67735244240902, 190.4474353483211 200.76573597848585, 189.7861692864817 201.2398386810428 C189.1249032246423 201.71394138359977, 188.83478410713826 201.7580057379136, 188.16830423381876 202.1501081763964 C187.50182436049926 202.5422106148792, 186.33412143007317 203.67350271990702, 185.78729004656478 203.5924533119396 C185.2404586630564 203.5114039039722, 184.78763547444856 202.42688483187223, 184.8873159327684 201.6638117285919 C184.9869963910882 200.90073862531156, 186.10884628895406 199.66651849847494, 186.38537279648367 199.0140146922576 C186.66189930401328 198.36151088604026, 185.9948937871054 197.68716461400473, 186.54647497794602 197.74878889128792 C187.09805616878663 197.8104131685711, 189.16466646202036 199.54298981063693, 189.69485994152737 199.38376035595675 C190.22505342103437 199.22453090127658, 189.8155221956991 197.02112882786784, 189.7276358549881 196.79341216320682" stroke="undefined" stroke-width="0.8" fill="none"></path></g><g><path d="M180.05753667250525 279.7746391209071 C183.80563969477654 261.8599093961936, 188.7662977401432 243.89894324351238, 199.3297537199992 202.33473796544337 M179.7565310829178 280.26289356041207 C187.25143535125392 249.427732159638, 195.11489544658724 218.78439141015443, 199.42035111132546 202.20959739641927" stroke="undefined" stroke-width="1.2" fill="none"></path></g><g><path d="M197.76024150809877 201.0606410639982 C197.76024150809877 201.0606410639982, 197.76024150809877 201.0606410639982, 197.76024150809877 201.0606410639982 M197.76024150809877 201.0606410639982 C197.76024150809877 201.0606410639982, 197.76024150809877 201.0606410639982, 197.76024150809877 201.0606410639982 M199.22926356794912 203.71879870164375 C200.05361195514013 202.78072369531682, 200.86417213766182 202.47335283333055, 201.37983576129207 201.25441088605274 M199.39817411593052 203.66827274768923 C199.93490474409165 202.79850822668604, 200.72215908114958 202.00945060126006, 201.29360457104315 201.66313394690195" stroke="none" stroke-width="0.4" fill="none"></path><path d="M200.67645227316586 199.38183536252916 C201.18183194307983 199.68102486588765, 201.11685598234456 200.69476304795103, 201.44355087045454 201.19611533936404 C201.77024575856453 201.69746763077706, 202.66606128698095 201.9771299717147, 202.63662160182582 202.3899491110073 C202.6071819166707 202.8027682502999, 201.61465339665634 203.11825172383348, 201.26691275952376 203.6730301751196 C200.9191721223912 204.22780862640573, 200.95540803829954 205.4712109092796, 200.55017777903035 205.71861981872408 C200.14494751976116 205.96602872816857, 199.42621662689763 205.72491512871167, 198.8355312039086 205.15748363178653 C198.24484578091958 204.5900521348614, 197.1862928180617 202.90891088911548, 197.00606524109617 202.3140308371733 C196.82583766413063 201.71915078523114, 197.59187932603353 201.83919402313845, 197.75416574211542 201.5882033201335 C197.9164521581973 201.33721261712853, 197.5375339896494 201.1632593070024, 197.97978373758744 200.80808661914355 C198.42203348552547 200.4529139312847, 199.9359769003454 199.61765688495, 200.40766422974357 199.45716719298042 C200.87935155914175 199.29667750101083, 200.8412539325902 199.57032475077787, 200.80990771397646 199.84514846732608 M199.5584381600202 200.02651684868073 C200.00282499713157 200.0839178005716, 199.9618145477699 201.38879686113924, 200.39908600126287 201.93324646600888 C200.83635745475584 202.47769607087852, 202.21606136038605 202.85524615881758, 202.18206688097806 203.29321447789854 C202.14807240157006 203.7311827969795, 200.75343242117836 204.1838880781124, 200.1951191248149 204.56105638049473 C199.63680582845146 204.93822468287706, 199.05140698862724 205.6301229315779, 198.83218710279738 205.55622429219247 C198.61296721696752 205.48232565280705, 199.35943548692094 204.66650430674, 198.87979980983576 204.1176645441823 C198.40016413275058 203.5688247816246, 196.410505555917 202.65468664556437, 195.95437304028633 202.26318571684632 C195.49824052465564 201.87168478812828, 195.69999030714123 202.23139883917048, 196.14300471605165 201.76865897187406 C196.58601912496206 201.30591910457764, 198.11028274868718 199.58218167745943, 198.61245949374882 199.48674651306783 C199.11463623881045 199.39131134867623, 199.0363904281842 201.03913148344145, 199.1560651864215 201.19604798552447 C199.2757399446588 201.3529644876075, 199.25636569136952 200.69336430205325, 199.33050804317259 200.428245525566" stroke="undefined" stroke-width="0.8" fill="none"></path></g><g><path d="M180.21725700808346 280.38098962004057 C188.71320563235537 259.7595274236535, 196.35107328331807 239.06475850164003, 210.4559124671693 206.33314004886793 M180.15560129323822 279.91533501908884 C185.97917982157747 264.4702381606096, 192.3718731970623 249.21471317827044, 209.97190401340353 205.99079138012394" stroke="undefined" stroke-width="1.2" fill="none"></path></g><g><path d="M210.41174216505078 202.78333184511814 C210.41174216505078 202.78333184511814, 210.41174216505078 202.78333184511814, 210.41174216505078 202.78333184511814 M210.41174216505078 202.78333184511814 C210.41174216505078 202.78333184511814, 210.41174216505078 202.78333184511814, 210.41174216505078 202.78333184511814 M209.62048046352848 208.18835800640247 C209.75569719085618 207.59975666537537, 210.90858739050958 207.01177481048015, 211.80946813779997 205.14881713418706 M209.31736211796303 208.68437576981367 C210.22389343157604 207.6152341487368, 211.23718971215408 206.2703570534559, 212.1205679176109 205.3224533807129" stroke="none" stroke-width="0.4" fill="none"></path><path d="M210.29889867042846 202.91314343629205 C210.82680223919908 202.9241631674526, 211.17099302040472 203.70971510192626, 211.43723407591054 204.1496984881652 C211.70347513141635 204.58968187440414, 211.76654762585719 204.99972931279834, 211.8963450034633 205.55304375372566 C212.0261423810694 206.10635819465298, 212.35715081140464 206.97964771092046, 212.21601834154723 207.46958513372908 C212.07488587168982 207.9595225565377, 211.55373974475773 208.3679751166143, 211.04955018431886 208.4926682905774 C210.54536062388 208.6173614645405, 209.6236178063122 208.68920414830387, 209.19088097891392 208.21774417750768 C208.75814415151564 207.7462842067115, 208.63118083228443 206.07498571095556, 208.45312921992922 205.66390846580026 C208.27507760757402 205.25283122064496, 207.91822326086037 205.96394663254344, 208.12257130478267 205.75128070657598 C208.32691934870496 205.53861478060853, 209.2677796754001 204.90370260117035, 209.679217483463 204.38791290999552 C210.09065529152588 203.8721232188207, 210.50309752037938 202.86564527319695, 210.59119815316 202.65654255952703 C210.67929878594063 202.4474398458571, 210.18704606359879 202.90074663098704, 210.2078212801468 203.13329662797608 M209.63821015977328 203.09377700576442 C210.05354892065168 203.17487100005357, 210.39260311298077 203.6504185081971, 211.01733629431854 204.040259765956 C211.6420694756563 204.43010102371488, 213.05161740559421 204.97169979893096, 213.38660924779995 205.43282455231767 C213.7216010900057 205.89394930570438, 213.28480824725267 206.37378421364804, 213.0272873475529 206.80700828627636 C212.76976644785316 207.24023235890468, 212.39110994472722 207.79352386950612, 211.84148384960147 208.0321689880875 C211.29185775447573 208.2708141066689, 210.33001246194493 208.51874650987975, 209.7295307767984 208.23887899776474 C209.1290490916519 207.95901148564974, 208.39866950003167 206.87893565415328, 208.23859373872241 206.3529639153974 C208.07851797741316 205.8269921766415, 208.98346327432083 205.66744002263493, 208.76907620894283 205.08304856522938 C208.55468914356484 204.49865710782382, 206.539841799827 203.18258016551542, 206.95227134645444 202.84661517096401 C207.36470089308187 202.5106501764126, 210.89246680577537 202.9598363156257, 211.24365348870754 203.06725859792095 C211.5948401716397 203.17468088021621, 209.4312451266851 203.48713482186724, 209.0593914440474 203.4911488647356" stroke="undefined" stroke-width="0.8" fill="none"></path></g><g><path d="M180.5344392780301 279.78993738701826 C192.93166408462486 256.19804098565584, 206.34343446758376 232.91580665148305, 220.12593875534697 210.7085466365214 M180.23137455017604 279.7361445374003 C191.24024565290654 260.5693811437104, 202.01414678397114 241.35308773176655, 219.723820693438 210.44101127062305" stroke="undefined" stroke-width="1.2" fill="none"></path></g><g><path d="M216.48788452029004 209.39025480495988 C216.48788452029004 209.39025480495988, 216.48788452029004 209.39025480495988, 216.48788452029004 209.39025480495988 M216.48788452029004 209.39025480495988 C216.48788452029004 209.39025480495988, 216.48788452029004 209.39025480495988, 216.48788452029004 209.39025480495988 M217.7479205819639 211.84737080294065 C218.7914146428228 210.2316459198688, 221.00298165876342 209.13913742772374, 221.10889868777195 208.0393630900247 M217.9363248201162 212.01816281547696 C218.81583813143038 211.3449014967531, 219.32582998101472 210.29403708215895, 221.5462949108617 208.1547255628668" stroke="none" stroke-width="0.4" fill="none"></path><path d="M220.8840502658019 208.034832034295 C221.6188184261072 208.1076723914149, 222.33826211325402 208.73785447760665, 222.59108334648036 209.1140262376429 C222.8439045797067 209.49019799767913, 222.67803817587546 209.60007721243176, 222.4009776651599 210.29186259451248 C222.12391715444434 210.9836479765932, 221.334843757827 212.67268490100926, 220.92872028218696 213.26473853012726 C220.52259680654691 213.85679215924526, 220.47837796361807 213.85716905101802, 219.9642368113197 213.84418436922053 C219.45009565902131 213.83119968742304, 218.20853991067537 213.61965836301337, 217.8438733683966 213.18683043934232 C217.47920682611783 212.75400251567126, 217.95868565443902 211.93007802831846, 217.77623755764708 211.24721682719414 C217.59378946085513 210.5643556260698, 216.40966984329108 209.5273441638526, 216.749184787645 209.08966323259634 C217.0886997319989 208.65198230134007, 219.11476752639715 208.82877972393737, 219.8133272237705 208.62113123965656 C220.51188692114386 208.41348275537575, 220.52925796000056 207.77605011272047, 220.94054297188507 207.84377232691145 C221.35182798376957 207.91149454110243, 222.195297230263 208.76179479696972, 222.2810372950776 209.02746452480247 M220.37634400714379 208.92144731346696 C220.97300773749305 208.99346003307377, 220.99341285767633 208.48040625117952, 221.19295075379839 208.74581419359987 C221.39248864992044 209.01122213602022, 221.48820379169933 209.96916904207808, 221.57357138387604 210.5138949679891 C221.65893897605275 211.05862089390013, 221.59999396155305 211.79020781057162, 221.70515630685856 212.01416974906596 C221.81031865216406 212.2381316875603, 222.63420343102527 211.5474380435006, 222.204545455709 211.85766659895515 C221.77488748039272 212.1678951544097, 219.87366870426547 213.6552238938383, 219.12720845496094 213.87554108179333 C218.3807482056564 214.09585826974836, 217.92680394539835 213.95252684926749, 217.72578395988182 213.17956972668543 C217.5247639743653 212.40661260410337, 217.74212975894233 209.96846000302986, 217.92108854186176 209.23779834630093 C218.1000473247812 208.507136689572, 218.60564623097665 208.90045414907254, 218.7995366573984 208.79559978631184 C218.99342708382014 208.69074542355114, 218.9200952729574 208.62930681754966, 219.0844311003922 208.60867216973674 C219.248766927827 208.5880375219238, 219.91675355574102 208.83560703967683, 219.78555162200718 208.67179189943437" stroke="undefined" stroke-width="0.8" fill="none"></path></g><g><path d="M180.36903145816603 280.1583453547669 C191.03544688658246 266.31930669709385, 200.82719793456366 252.725831080407, 229.15430931676576 217.24241016514137 M180.2058812777464 280.14330768669595 C191.1348064563924 265.3123577268238, 202.6228968641128 251.2313919121023, 229.50696461661803 216.94259098027018" stroke="undefined" stroke-width="1.2" fill="none"></path></g><g><path d="M227.7965024770875 215.24564743778794 C227.7965024770875 215.24564743778794, 227.7965024770875 215.24564743778794, 227.7965024770875 215.24564743778794 M227.7965024770875 215.24564743778794 C227.7965024770875 215.24564743778794, 227.7965024770875 215.24564743778794, 227.7965024770875 215.24564743778794 M229.24690957879852 218.3010324614631 C229.87786738043224 217.43533815000612, 230.39837466911658 216.15760625691007, 231.90026179529127 215.0060674635906 M228.84269365372808 218.6604404296588 C230.01247506297963 217.51056417859522, 231.16199261535937 215.89350598305114, 231.8554969210517 214.8128754598186" stroke="none" stroke-width="0.4" fill="none"></path><path d="M230.40152652607668 213.96807953607006 C230.9547823299651 213.84775979542712, 231.31174564076514 214.3263156626718, 231.4939302988245 215.04675156338374 C231.67611495688385 215.76718746409568, 231.71171430870965 217.52185971318778, 231.4946344744328 218.2906949403417 C231.27755464015593 219.0595301674956, 230.707851846169 219.6127205198271, 230.19145129316334 219.65976292630717 C229.67505074015767 219.70680533278724, 228.76344064157186 218.729968960462, 228.39623115639873 218.5729493792221 C228.0290216712256 218.41592979798222, 228.34387075577268 218.88743521170525, 227.9881943821246 218.71764543886775 C227.6325180084765 218.54785566603024, 226.2529180013977 218.18027635394566, 226.26217291451022 217.55421074219703 C226.27142782762274 216.9281451304484, 227.49943393672146 215.569230399746, 228.04372386079967 214.961251768376 C228.5880137848779 214.353273137006, 229.0786973429995 213.89735994450368, 229.52791245897959 213.90633895397696 C229.97712757495967 213.91531796345024, 230.51226833802133 214.74087980011473, 230.73901455668016 215.01512582521565 C230.965760775339 215.28937185031657, 230.99784632019097 215.67022905046028, 230.88838977093258 215.5518151045824 M228.75278704091085 215.47937419327332 C229.05858878280003 215.46372936617746, 230.3184077580794 215.73676788862065, 230.76273554911137 216.06926752515426 C231.20706334014335 216.40176716168787, 231.25696080590106 217.2044601806486, 231.41875378710282 217.47437201247493 C231.58054676830457 217.74428384430126, 232.25099508527424 217.4655372947449, 231.73349343632196 217.68873851611235 C231.2159917873697 217.9119397374798, 229.03824860618153 218.60758042172506, 228.3137438933891 218.81357934067955 C227.58923918059668 219.01957825963405, 227.56161700757107 218.99005383666852, 227.38646515956748 218.92473202983925 C227.21131331156388 218.85941022300997, 227.2262498478925 218.85139906651617, 227.26283280536754 218.42164849970396 C227.29941576284259 217.99189793289176, 227.42114157131536 217.05784416801635, 227.6059629044178 216.34622862896597 C227.79078423752023 215.6346130899156, 227.7553630473408 214.247254903577, 228.3717608039822 214.15195526540174 C228.9881585606236 214.0566556272265, 231.1244857238931 215.57284471861752, 231.3043494442661 215.77443079991448 C231.48421316463913 215.97601688121145, 229.4392705472627 215.55844512219062, 229.45094312622035 215.36147175318348" stroke="undefined" stroke-width="0.8" fill="none"></path></g><g><path d="M180.26256240496627 280.0107999547534 C191.4878772215895 268.5117627816619, 203.48751061796816 256.46182422566704, 237.81383406168052 223.90164823645998 M180.24503279369944 280.1185325711151 C200.02289171830006 260.7424780387103, 219.70582470016672 241.77501487281168, 237.38995087574767 224.26197833339185" stroke="undefined" stroke-width="1.2" fill="none"></path></g><g><path d="M235.0053953567909 224.16226839914953 C235.0053953567909 224.16226839914953, 235.0053953567909 224.16226839914953, 235.0053953567909 224.16226839914953 M235.0053953567909 224.16226839914953 C235.0053953567909 224.16226839914953, 235.0053953567909 224.16226839914953, 235.0053953567909 224.16226839914953 M236.91973145686987 226.68986469403376 C237.33348133398675 225.76870355359344, 238.1680521054553 224.56089193532404, 239.8618872031165 222.8431729865004 M236.70805716967854 226.80294002567868 C237.66491624813688 225.34268550319544, 238.9400701187371 224.24249064458445, 239.76093465831724 223.1151768282671" stroke="none" stroke-width="0.4" fill="none"></path><path d="M238.71818136337575 222.82832496810107 C239.03489160211421 222.99665963800243, 239.19142573399344 222.32091226883207, 239.3447469085239 222.85787768606818 C239.49806808305433 223.39484310330428, 239.81253716259752 225.53306432233504, 239.6381084105584 226.0501174715177 C239.46367965851928 226.56717062070035, 238.80011571233211 225.7289727085941, 238.2981743962891 225.96019658116418 C237.7962330802461 226.19142045373425, 237.03193266958087 227.39274221957413, 236.62646051430033 227.4374607069381 C236.2209883590198 227.4821791943021, 236.14688802292886 226.761294314664, 235.86534146460593 226.22850750534815 C235.583794906283 225.69572069603228, 234.85567998965846 224.6783114099787, 234.93718116436278 224.24073985104297 C235.0186823390671 223.80316829210724, 236.02248318984311 223.9331399357559, 236.35434851283188 223.60307815173377 C236.68621383582064 223.27301636771165, 236.58382064375746 222.3218334220624, 236.92837310229532 222.26036914691016 C237.2729255608332 222.19890487175792, 238.0617461376134 223.23569135806662, 238.421663264059 223.2342925008203 C238.7815803905046 223.23289364357396, 238.98690792103127 222.2440293677248, 239.08787586096895 222.2519760034321 M238.43022414277758 223.05588768689893 C238.96040543266793 222.75591734144763, 238.78272946409885 221.77865005125688, 239.05994922465732 222.03642771975942 C239.33716898521578 222.29420538826196, 240.11543614683416 224.01273522227254, 240.09354270612837 224.60255369791415 C240.0716492654226 225.19237217355575, 239.42953991930958 225.0405509380793, 238.9285885804227 225.57533857360912 C238.42763724153585 226.11012620913894, 237.57377687905336 227.66715216270586, 237.08783467280725 227.81127951109315 C236.60189246656114 227.95540685948043, 236.25660040729173 226.8086889089056, 236.01293534294615 226.44010266393283 C235.76927027860057 226.07151641896007, 235.99375351833314 226.1029084551537, 235.62584428673378 225.5997620412565 C235.25793505513442 225.09661562735928, 233.5444127321101 224.22327542549237, 233.80547995335002 223.42122418054961 C234.06654717458994 222.61917293560685, 236.29426362597118 221.02566077547755, 237.19224761417328 220.78745457159988 C238.09023160237538 220.5492483677222, 239.10466409012875 221.70976028046152, 239.19338388256256 221.9919869572836 C239.28210367499636 222.27421363410565, 238.0225336824642 222.64673753560965, 237.72456636877615 222.48081463253223" stroke="undefined" stroke-width="0.8" fill="none"></path></g><g><path d="M176.6092424830619 284.70035860782815 C176.6092424830619 284.70035860782815, 176.6092424830619 284.70035860782815, 176.6092424830619 284.70035860782815 M176.6092424830619 284.70035860782815 C176.6092424830619 284.70035860782815, 176.6092424830619 284.70035860782815, 176.6092424830619 284.70035860782815 M177.06751171314932 294.58965657176805 C178.98032784985693 291.070200676193, 180.77752740913172 287.4144375324743, 185.4427062186753 284.4552082635024 M176.7969627774575 293.488590517109 C177.97069344252964 291.33124770201835, 180.07447217946827 289.165208613052, 184.39311281778794 284.58676421855716 M180.75906154564638 298.46570300101297 C181.67718523780198 297.0150287357416, 183.20264613475402 294.38030963483965, 186.19285808788055 291.23888967172934 M181.4726387537069 298.09287847895956 C182.8012966206683 296.2565142543834, 184.17274796403848 294.1303434988762, 186.44475535358328 291.94094024337176" stroke="none" stroke-width="0.75" fill="none"></path><path d="M182.37748708354235 283.4512248282445 C183.45605712518898 283.6070005490712, 183.1696225526516 284.26457634126433, 183.8670786892144 285.58748566050633 C184.5645348257772 286.91039497974833, 186.44799240563734 289.78755367055845, 186.56222390291916 291.3886807436966 C186.67645540020098 292.9898078168348, 185.7035986754777 294.2519510509603, 184.5524676729053 295.19424809933525 C183.40133667033288 296.1365451477102, 180.82468111377415 297.16142718142976, 179.65543788748474 297.04246303394615 C178.48619466119533 296.92349888646254, 178.3867695629278 295.22118161356593, 177.5370083151689 294.48046321443354 C176.68724706740997 293.73974481530115, 175.0215043208875 293.8639521090234, 174.55687040093116 292.59815263915186 C174.09223648097483 291.33235316928034, 174.39266466475766 288.21862056880025, 174.7492047954309 286.88566639520434 C175.10574492610414 285.55271222160843, 175.5633907280332 284.8856262101139, 176.6961111849705 284.60042759757624 C177.8288316419078 284.3152289850386, 180.52155199125434 285.02464049537116, 181.54552753705482 285.1744747199782 C182.5695030828553 285.32430894458525, 182.63908089841237 285.60219436378463, 182.83996445977343 285.4994329452186 M181.19152466997522 284.1457642047669 C182.24432872939002 284.2005791715583, 182.83542583380765 284.81125056024626, 183.67613416024815 285.6308970356817 C184.51684248668866 286.45054351111713, 185.91111727224663 287.87767108222675, 186.23577462861832 289.06364305737964 C186.56043198499 290.2496150325325, 186.19550775464052 291.3555415201671, 185.62407829847822 292.74672888659904 C185.05264884231593 294.137916253031, 184.27499955244224 297.04647124802074, 182.80719789164465 297.41076725597145 C181.33939623084706 297.77506326392216, 178.1077710747754 295.7811995247299, 176.81726833369262 294.93250493430344 C175.52676559260985 294.08381034387696, 175.66813977308422 293.4836785291824, 175.06418144514805 292.3185997134127 C174.46022311721188 291.15352089764303, 172.8792972874501 288.90368537965617, 173.19351836607555 287.94203203968544 C173.507739444701 286.9803786997147, 176.02783378364833 287.1027636656753, 176.94950791690076 286.54867967358825 C177.87118205015318 285.9945956815012, 178.11010976347518 285.2261197284473, 178.72356316559015 284.61752808716335 C179.33701656770512 284.0089364458794, 180.30641072645255 282.790417112257, 180.63022832959066 282.89712982588435" stroke="#000000" stroke-width="1.5" fill="none"></path></g><g><path d="M181.6868946060109 303.5851792632352 C179.45565592242284 308.28125514301684, 180.74607586700483 314.8874916027046, 179.34229685806108 328.1136120618893 M180.53710764550218 302.9786467456778 C179.4938160814522 311.85971945907085, 179.9120814139863 321.3421725659637, 179.46653953278422 329.71223536195316" stroke="#000000" stroke-width="1.5" fill="none"></path></g><g><path d="M493.7269441641205 262.2386475024523 C493.7269441641205 262.2386475024523, 493.7269441641205 262.2386475024523, 493.7269441641205 262.2386475024523 M493.7269441641205 262.2386475024523 C493.7269441641205 262.2386475024523, 493.7269441641205 262.2386475024523, 493.7269441641205 262.2386475024523 M494.455299063264 271.0315531557666 C500.39878200032064 266.6030695210139, 503.01840537723245 263.1366281209509, 505.3216125794487 258.1690119068887 M496.05396272183214 270.2854127725992 C498.6669238513473 266.3808315554916, 502.08386802085687 263.45781800529596, 504.8810085719875 259.9990052634464" stroke="none" stroke-width="0.9" fill="none"></path><path d="M503.1178690738346 257.1494262279569 C504.45386092130803 257.4931801452276, 506.1272364275934 260.4160349713794, 506.7361260703512 261.79524505011574 C507.345015713109 263.17445512885206, 507.04450851809275 264.0756420795132, 506.7712069303815 265.42468670037476 C506.4979053426702 266.7737313212363, 506.2504911826904 268.62170428318143, 505.0963165440835 269.8895127752851 C503.9421419054766 271.15732126738874, 501.45709754231416 273.00537961169346, 499.84615909874003 273.0315376529967 C498.2352206551659 273.0576956942999, 496.67575279595417 271.1078539581117, 495.43068588263856 270.04646102310437 C494.18561896932295 268.985068088097, 492.61107766900204 268.0204326529508, 492.3757576188462 266.66318004295243 C492.14043756869034 265.3059274329541, 493.00445815109146 263.3747911377355, 494.0187655817034 261.9029453631144 C495.03307301231536 260.4310995884933, 496.9044430960609 258.49225919641617, 498.4616022025179 257.8321053952257 C500.0187613089749 257.17195159403525, 502.57855184660457 257.8543223855427, 503.3617202204453 257.94202255597156 C504.14488859428604 258.02972272640045, 503.11401623629 258.0707471661888, 503.16061244556215 258.35830641779904 M498.4984612470205 259.2486641014755 C499.60552786811024 258.53722466738225, 500.90548011198285 257.6110256856999, 502.44523807061023 257.9157155350356 C503.9849960292376 258.2204053843713, 507.3209753352003 259.70546211276906, 507.73700899878486 261.0768031974899 C508.15304266236944 262.4481442822107, 505.719061789269 264.4933391840841, 504.9414400521177 266.1437620433606 C504.16381831496636 267.7941849026371, 504.165479918469 270.06552333720384, 503.0712785758769 270.97934035314864 C501.9770772332848 271.89315736909344, 499.9544337729656 271.8764207772736, 498.376231996565 271.6266641390293 C496.79803022016443 271.37690750078497, 494.3484644095705 270.41537859017734, 493.6020679174733 269.48080052368283 C492.85567142537604 268.5462224571883, 493.87719781023736 267.50704468683244, 493.8978530439817 266.0191957400622 C493.918508277726 264.5313467932919, 492.7442352416849 261.8742324208888, 493.72599931993915 260.5537068430612 C494.7077633981934 259.2331812652336, 498.7868048290952 258.35107929844975, 499.78843751350695 258.0960422730967 C500.7900701979187 257.8410052477437, 499.75711882751074 259.1458961746577, 499.7357954264097 259.02348469094295" stroke="#000000" stroke-width="1.8" fill="none"></path></g><g><path d="M498.5366827608354 278.9702785195867 C500.79882117565006 284.45285361538157, 498.51407721900193 294.57577306875675, 500.9583497955455 308.42808920837194 M500.4972560156926 279.8822369148447 C500.3106604934047 287.5040946493551, 499.12264327351073 296.1756563088244, 500.35144930093594 310.90268906531577" stroke="#000000" stroke-width="1.8" fill="none"></path></g><g><path d="M486.7934978778277 283.6417424380761 C494.9161923564651 286.7677373749076, 504.4641084154081 283.3701002224961, 512.6355396621941 286.52065864174006 M488.10066335067773 284.93823716826023 C494.3156123059752 285.6229217647531, 498.30328502378444 284.70738934741416, 512.2628406224607 284.7642777651135" stroke="#000000" stroke-width="1" fill="none"></path></g><g><path d="M261.1731094624309 348.3117991535705 C312.9384128612759 347.04594991019974, 370.30283279814375 349.8483964317414, 428.6989198409458 351.00741870994347 M259.28967361102315 349.41038786505356 C294.9227513384871 349.94581229149526, 330.32975316137754 350.1051047834731, 430.1992738360212 350.91648767214144" stroke="#000000" stroke-width="1.5" fill="none"></path></g><g><path d="M259.88580624163575 346.0138157350494 C256.08281103236396 346.89004736667823, 252.20710252090598 349.1765855849764, 251.00128290715136 350.78061432221955 M259.86447051863587 345.10894567073854 C257.9751741488069 346.07122385900453, 255.51555815276615 346.47752953506176, 249.45083064868075 350.4512053094268" stroke="#000000" stroke-width="1.2" fill="none"></path></g><g><path d="M259.3239724593049 354.3838912565558 C256.75164681588734 352.55218357022534, 253.74006799270646 351.0725958325474, 249.58445832388938 349.6024264655186 M259.84062904403015 355.3093363533576 C256.5740023462333 353.2595518112112, 253.3716072357294 352.11220344391313, 249.79921677914405 349.54107328792435" stroke="#000000" stroke-width="1.2" fill="none"></path></g><g><path d="M431.09884334444166 344.29316622275473 C431.9292852565211 346.14199625180777, 434.2052165535674 347.4947494190984, 439.93228218709334 349.95999691854485 M429.7499818350754 344.87540968359457 C432.0948384966968 345.9296235987941, 434.46986391226363 347.2154310580959, 439.7614589251805 350.4954677137553" stroke="#000000" stroke-width="1.2" fill="none"></path></g><g><path d="M430.08357951631257 355.2945755699947 C432.92331701214533 353.7224513979991, 436.8036188784029 351.2973863661323, 439.99230292390655 349.70933141153233 M429.94240683710757 354.75085508920176 C432.4302328772424 353.3352544622753, 435.64895011949756 352.82439958762086, 439.67956935879806 350.36253028763616" stroke="#000000" stroke-width="1.2" fill="none"></path></g><g><path d="M119.9344241299732 159.76914046358732 C135.67790399861337 159.294131608501, 151.66773338768223 160.53231332464463, 179.33995124310468 159.86971329126789 M120.36959707614967 160.00922316056355 C132.2093602656194 160.30409213664484, 144.49207656932396 159.62953493885215, 179.78811422677563 159.76755847893062 M180.21002828131273 160.73658724376585 C180.18699465717353 173.16123164435098, 180.5785743083608 184.92421447502755, 180.49554586576096 200.27335434106024 M179.9382811313047 159.63497279942118 C180.08070302552235 173.89839626926894, 180.49316350677742 186.9671567039515, 179.63764167915653 199.67259594917974 M179.35369563308757 200.14366116003328 C158.07820037830248 199.42027447781723, 136.82426279064043 199.6718042872784, 120.46088354605645 200.52868511858347 M179.87632717278737 200.2100639430312 C160.51405212691157 200.1209779289121, 140.34285749603868 200.27335653009771, 119.82224147944044 200.30713840410306 M120.69357492012728 200.42393693041598 C119.41513889866584 185.24724095082536, 119.80322134351478 170.92858307017096, 120.12107822695539 159.41214163692732 M120.1510114993997 200.1321972477089 C119.72212599922884 188.54123544038774, 119.94996557725325 177.9428491827357, 119.93514057320951 159.76003428657654" stroke="#000000" stroke-width="1.2" fill="none"></path></g><g><path d="M129.2051311103605 180.12177956167307 C138.37004790914727 178.65006424302618, 147.51983761814273 178.6315403008935, 171.52593267046046 181.5858803462347 M130.41464094497996 180.65362499962018 C140.79301586442656 180.23110936970912, 151.78177052620714 179.85367050527256, 170.54734532440847 179.05436293368444" stroke="#000000" stroke-width="0.8" fill="none"></path></g><g><path d="M128.5075528806682 186.46943480934604 C138.58320150815143 188.94047878736126, 149.0655672885285 188.58800116459992, 158.40662670520547 188.75527246672164 M129.48168350257663 187.73154092431247 C137.59359794003646 188.23735285988775, 143.8598522950095 187.2298841971344, 159.77620663587865 187.98423705144617" stroke="#000000" stroke-width="0.6" fill="none"></path></g><g><path d="M512.7754548939229 176.77126476716114 C512.7754548939229 176.77126476716114, 512.7754548939229 176.77126476716114, 512.7754548939229 176.77126476716114 M512.7754548939229 176.77126476716114 C512.7754548939229 176.77126476716114, 512.7754548939229 176.77126476716114, 512.7754548939229 176.77126476716114 M512.0608931222127 184.45758962748874 C515.6764541102363 183.91913355072458, 518.4395469599234 177.88700135277082, 525.3824491839982 172.59324693568277 M513.6028985162451 184.6326501856015 C516.163706168568 182.66004927244964, 517.730384677324 178.80955703538692, 524.9630916403252 172.11961127062898 M519.1315875550209 189.22286813661168 C520.3036067378459 186.78256104572668, 522.0418993897449 184.15579289570098, 527.2549241860471 178.02063540850043 M518.3284179150654 188.4640553941181 C522.2381348805438 184.3412591918123, 526.7601190873404 179.4406441750829, 528.6459285781287 177.3717229863649" stroke="none" stroke-width="0.75" fill="none"></path><path d="M522.4036366855031 171.07560128741304 C524.3218548673922 171.17626345759396, 526.6520785841569 171.98306953256716, 527.699065212049 173.68458968502387 C528.7460518399412 175.38610983748057, 528.9647170350459 179.12126474532744, 528.6855564528555 181.28472220215335 C528.4063958706652 183.44817965897926, 527.4859378927991 185.21798088113502, 526.0241017189071 186.66533442597927 C524.5622655450151 188.11268797082352, 521.8865604057182 189.6706794631798, 519.9145394095033 189.9688434712188 C517.9425184132883 190.2670074792578, 515.5939653078902 189.84154098586495, 514.1919757416173 188.45431847421332 C512.7899861753443 187.0670959625617, 511.70459315483 183.63190659497235, 511.5026020118653 181.6455084013091 C511.3006108689006 179.65911020764582, 512.0965864612525 178.07444307507794, 512.9800288838292 176.53592931223375 C513.8634713064058 174.99741554938956, 515.1050003776976 173.32643156171082, 516.803256547325 172.41442582424395 C518.5015127169523 171.50242008677708, 521.8641053065128 171.11606094243538, 523.1695659015934 171.06389488743244 C524.475026496674 171.0117288324295, 524.4838686415542 171.72367745156387, 524.6360201178088 172.10142949422624 M518.6195598942073 171.94194136848068 C520.2155212301046 171.1000823759723, 522.8278730128798 170.05192425075273, 524.2367819366212 170.85409270346784 C525.6456908603627 171.65626115618295, 526.4530246751017 174.99483038816797, 527.0730134366565 176.75495208477128 C527.6930021982114 178.51507378137458, 528.2207150786876 179.3538328809887, 527.9567145059506 181.41482288308765 C527.6927139332136 183.4758128851866, 526.8533003969388 187.95832516716388, 525.4890100002344 189.1208920973649 C524.12471960353 190.28345902756593, 521.8658078792378 188.7380376315632, 519.7709721257241 188.39022446429374 C517.6761363722105 188.04241129702427, 514.233494724461 188.2430010111473, 512.9199954791526 187.0340130937481 C511.6064962338441 185.82502517634887, 512.0799657528437 183.17698598653266, 511.8899766538732 181.13629695989843 C511.69998755490275 179.0956079332642, 510.9592747996813 176.59328409730088, 511.78006088532993 174.78987893394282 C512.6008469709786 172.98647377058475, 515.8526308086398 170.70120364140269, 516.8146931677652 170.31586597975 C517.7767555268906 169.9305283180973, 517.1746211514094 172.16978576527407, 517.5524350400826 172.47785296402657" stroke="#000000" stroke-width="1.5" fill="none"></path></g><g><path d="M513.8779008642587 176.40459343498424 C513.8779008642587 176.40459343498424, 513.8779008642587 176.40459343498424, 513.8779008642587 176.40459343498424 M513.8779008642587 176.40459343498424 C513.8779008642587 176.40459343498424, 513.8779008642587 176.40459343498424, 513.8779008642587 176.40459343498424 M512.9294487274873 182.17995496791272 C515.4801450818933 178.56334297484867, 515.8405700762474 177.90139950032767, 520.5118524397178 172.99531834816693 M513.5619063318136 181.6632275905937 C515.0303661468721 179.968725659466, 515.9067714690095 178.36558449343988, 520.4030961059855 173.4873853974801 M515.6423836721941 185.3244399086614 C516.4152438487082 182.5643608559505, 518.4894581429511 179.17001998248176, 525.27433436551 173.7680850857007 M514.93176754957 183.9261093975793 C517.5629676818803 181.09698035152465, 520.7465307350733 178.027083799241, 523.6448541775828 173.52634102030078 M515.7016909273844 186.53527764462763 C520.9493581448365 183.93852326718093, 523.1465642871771 177.94280107122665, 526.6657081929675 177.5091620075881 M516.7661890480324 186.19432429910898 C519.3374065884185 183.4869334430633, 522.4301634331828 179.28174441261564, 525.5572577452224 176.02875847559875 M518.8033393872498 187.02236201166906 C522.1802639388068 186.37175446396583, 524.1980575485749 184.74017805745356, 527.1432446110938 178.45509049088528 M519.8306183465654 188.50101428377178 C522.1366874510145 184.85783695444374, 525.3601774010717 181.7825915326063, 528.5865322466976 178.60901334735527" stroke="none" stroke-width="0.4" fill="none"></path><path d="M523.6713658532163 173.12626406112457 C524.8659439493567 173.68566952484093, 525.7921724458981 175.25640899343645, 526.3247017244522 176.90401925855204 C526.8572310030063 178.55162952366763, 527.1351307209184 181.58073510338284, 526.866541524541 183.01192565181807 C526.5979523281637 184.44311620025331, 525.9739431963953 184.67428809972353, 524.7131665461884 185.49116254916356 C523.4523898959815 186.3080369986036, 520.9814410696249 187.98214712070939, 519.3018816232996 187.9131723484582 C517.6223221769742 187.84419757620702, 515.7252482926326 186.35268820582826, 514.635809868236 185.07731391565642 C513.5463714438395 183.80193962548458, 512.8502434932981 181.7539198591722, 512.7652510769203 180.2609266074272 C512.6802586605426 178.76793335568217, 513.1243082919137 177.39018647667342, 514.1258553699696 176.11935440518633 C515.1274024480255 174.84852233369924, 517.0007596302747 172.7761647115308, 518.7745335452553 172.63593417850458 C520.5483074602358 172.49570364547836, 523.5252449885251 174.82257923032572, 524.768498859853 175.27797120702894 C526.011752731181 175.73336318373217, 526.3806043032724 175.26416305209887, 526.2340567732231 175.36828603872394 M521.1024939593373 172.5205597154541 C522.7410945549002 172.34573440283188, 524.372515027873 172.90111006358572, 525.4597189280225 173.82781744761914 C526.5469228281721 174.75452483165256, 527.4121916282405 176.3209218372221, 527.6257173602346 178.08080401965464 C527.8392430922287 179.84068620208717, 527.4078972478967 183.07154138656034, 526.740873319987 184.38711054221434 C526.0738493920774 185.70267969786835, 524.9254262259788 185.67454501857577, 523.6235737927764 185.9742189535787 C522.321721359574 186.27389288858166, 520.4704054878807 186.39518951504022, 518.929758720773 186.185154152232 C517.3891119536652 185.9751187894238, 515.3783898048592 186.07497249290634, 514.37969319013 184.71400677672952 C513.3809965754007 183.3530410605527, 512.7721773453494 179.6786207389506, 512.9375790323975 178.019359855171 C513.1029807194456 176.36009897139138, 514.2913004385973 175.4488285608605, 515.3721033124183 174.75844147405186 C516.4529061862393 174.06805438724322, 518.764249741323 174.27768731325136, 519.4223962753232 173.8770373343191 C520.0805428093233 173.47638735538686, 519.3840252093134 172.26590915405978, 519.3209825164193 172.35454160045845" stroke="#000000" stroke-width="0.8" fill="none"></path></g><g><path d="M520.4541900941217 169.83834298997343 C519.9662464889905 172.00114989280425, 519.3107842693288 175.1177529625725, 520.0794214560592 180.08453833571696 M520.0205282968894 169.81639611037627 C519.4405383340436 172.16885747608404, 519.6616140269501 174.9490669365088, 519.5643179472982 179.83735377264665" stroke="#000000" stroke-width="1" fill="none"></path></g><g><path d="M520.1370178724001 180.4228120979994 C521.6276491408158 181.04132180811328, 522.8818800127164 181.465090790793, 525.5612168927667 184.44795721698455 M520.2491508963667 179.78370060421858 C521.6908471857173 180.71232472782796, 523.3362099513531 182.00597932781986, 525.8676518999159 184.01493689445346" stroke="#000000" stroke-width="1" fill="none"></path></g><text x="400" y="560" text-anchor="middle" font-family="sans-serif" font-size="16" fill="#222" font-style="italic">When someone is signaling hard, their status is uncertain. When not signaling at all — either bottom or top.</text></svg>