<?xml version="1.0" encoding="UTF-8"?>
<svg width="800" height="600" viewBox="0 0 800 600" xmlns="http://www.w3.org/2000/svg"><rect width="800" height="600" fill="#FFFFFF"></rect><g><path d="M99.14203870034406 420.8385664315344 C256.5703102366534 420.2307756455018, 413.57745274912384 419.44831561554076, 700.5895129943401 420.48372565227965 M100.16146355996909 420.50650361937596 C266.7549213611725 420.1655513580204, 433.28609863748954 420.08170845820763, 700.116836659169 420.51501236860264" stroke="#000000" stroke-width="2" fill="none"></path></g><g><path d="M243.7526421772884 300.6668097067514 C243.7526421772884 300.6668097067514, 243.7526421772884 300.6668097067514, 243.7526421772884 300.6668097067514 M243.7526421772884 300.6668097067514 C243.7526421772884 300.6668097067514, 243.7526421772884 300.6668097067514, 243.7526421772884 300.6668097067514 M244.50269601858278 312.86037006789445 C246.06775679354308 307.62228340320587, 250.73100107399824 305.6693851510444, 255.83525400048728 299.0511803816713 M244.07767123007307 311.84876094016306 C246.91393951701278 309.1330831955631, 250.171463683754 305.93205094243046, 254.59874093781826 299.4297483183736 M255.88082066191262 310.95475837145756 C256.41803078059127 310.36393558032967, 257.5473581088367 309.5061639248, 258.7345174214008 308.2071881619634 M255.8781240989601 311.30478996750605 C256.79661697556963 310.10912414078143, 257.71172737332853 309.12711133953536, 258.2952344105672 308.1062217799824" stroke="none" stroke-width="1" fill="none"></path><path d="M249.09608983295848 297.5549633537818 C250.8549906467295 297.3429925160958, 253.85976325879676 298.56578253898743, 255.39080186267418 299.6464708564816 C256.9218404665516 300.72715917397574, 257.90950507805707 302.3392765741217, 258.2823214562229 304.03909325874673 C258.65513783438877 305.73890994337177, 258.56163370258093 308.34255737086767, 257.6277001316694 309.84537096423173 C256.6937665607579 311.3481845575958, 254.41619094104107 312.4655927484857, 252.67872003075385 313.0559748189312 C250.94124912046664 313.6463568893767, 248.76467238824375 313.71172309479863, 247.20287466994623 313.38766338690493 C245.6410769516487 313.06360367901124, 244.22215297347068 312.46155986261647, 243.30793372096863 311.11161657156913 C242.39371446846658 309.7616732805218, 241.59511625540384 307.0843961349696, 241.71755915493392 305.28800364062107 C241.840002054464 303.49161114627253, 242.78854832635747 301.449248566726, 244.04259111814918 300.333261605478 C245.29663390994088 299.21727464423003, 248.1084602561698 299.0548139822593, 249.24181590568412 298.5920818731331 C250.37517155519845 298.1293497640069, 250.87431431571457 297.585986431195, 250.84272501523517 297.55686895072074 M246.49412993619308 297.5799813860992 C248.03726554408453 297.20039079364847, 252.1532105660534 298.17737381472915, 253.7792372679991 298.9670826788755 C255.4052639699448 299.75679154302185, 255.71320871653126 300.76913241152596, 256.25029014786736 302.3182345709772 C256.78737157920347 303.86733673042846, 257.2835006113966 306.4275469093278, 257.0017258560158 308.26169563558307 C256.719951100635 310.0958443618383, 255.80873824602577 312.17493207671237, 254.5596416155824 313.3231269285088 C253.31054498513902 314.4713217803053, 251.22812356441446 315.44941004074235, 249.50714607335553 315.15086474636166 C247.7861685822966 314.852319451981, 245.347254265327 312.9396802208492, 244.23377666922875 311.53185516222453 C243.1202990731305 310.12403010359986, 243.1402620910678 308.33843242538, 242.82628049676606 306.70391439461355 C242.51229890246432 305.0693963638471, 241.46742550235342 302.9301269656651, 242.34988710341827 301.72474697762584 C243.23234870448312 300.51936698958656, 247.11878653306982 299.9942529719063, 248.12105010315517 299.47163446637785 C249.12331367324052 298.9490159608494, 248.26788832815726 298.74236346841946, 248.3634685239304 298.5890359444551" stroke="#DAA520" stroke-width="2" fill="none"></path></g><g><path d="M249.4507579197299 322.2892964565263 C250.1252288535937 328.67842024612906, 251.521697216874 336.269041791882, 250.28027066048833 348.0297566993523 M249.65098748945368 322.87447274444344 C249.48876675866907 329.4517611624962, 250.68381125575286 337.0571668927826, 249.7859653617307 350.0717821653575" stroke="#DAA520" stroke-width="1.6" fill="none"></path></g><g><path d="M250.26865252131225 350.8608726260955 C247.03494217544383 358.3026293586457, 245.21239456014703 362.8864174760676, 243.44043876783516 378.09887521792353 M249.55902970436958 350.8127544694517 C248.50016864362695 358.31886509081227, 244.15525860007966 368.0681817754419, 241.67519182583308 377.20722261703304" stroke="#DAA520" stroke-width="1.4" fill="none"></path></g><g><path d="M249.42657970320823 350.05819306465236 C252.0080298957978 357.7654490279705, 254.27896016319022 364.64300847570814, 258.08933665527184 379.9196859033703 M250.913195175095 349.46382965978614 C252.13197134881676 356.74588201975763, 253.9447962119409 363.1625288734899, 257.3205103896355 378.1469804833424" stroke="#DAA520" stroke-width="1.4" fill="none"></path></g><g><path d="M258.88420034863344 321.05066450892224 C277.0927316796844 306.9081975991917, 292.38317560978413 294.0358057670454, 310.3580046290221 281.0222719477605 M260.4846395324303 319.5117125725113 C275.8813686407934 307.86950415637375, 290.5254273035834 295.1478205801835, 309.52182130414127 279.49661389688794" stroke="#DAA520" stroke-width="1.8" fill="none"></path></g><g><path d="M260.74153772222024 336.0244629863293 C278.55212356247694 315.30912821740594, 295.5317307720331 295.00248587156204, 310.19371474304916 280.6205970513688 M259.7646979138981 334.74508925780617 C276.29462218814837 315.78521250150266, 294.14970518720656 296.9113322465783, 309.7994591505823 279.7313353481268" stroke="#DAA520" stroke-width="1.2" fill="none"></path></g><g><path d="M543.2364138737544 301.3015339373048 C543.2364138737544 301.3015339373048, 543.2364138737544 301.3015339373048, 543.2364138737544 301.3015339373048 M543.2364138737544 301.3015339373048 C543.2364138737544 301.3015339373048, 543.2364138737544 301.3015339373048, 543.2364138737544 301.3015339373048 M545.4673441571088 310.74980511907955 C547.9784373437958 307.5771678859583, 551.3025758092572 302.65409662438503, 555.2840064751634 299.51851016897336 M544.3147881856131 312.2567019179005 C547.1888102157795 308.45006442974193, 548.9925819695944 305.7527597744019, 554.7888733857977 300.396262655139 M553.6994433040059 314.1281132318384 C555.3907920190086 312.3526865544616, 556.5014532887242 310.16663919988724, 557.6608236066667 308.3449054764561 M553.3571205876191 313.8406420767672 C554.6693847327421 312.75729939827653, 555.8671245630117 311.37556155688225, 557.9322614843131 308.52059194315166" stroke="none" stroke-width="1" fill="none"></path><path d="M548.5189881641975 297.65262495789585 C550.1403365232268 297.17126428602637, 551.4881199881976 298.4663403374159, 552.969934331226 299.16313780845957 C554.4517486742544 299.85993527950325, 556.6986362863665 300.3347499030683, 557.409874222368 301.83340978415794 C558.1211121583694 303.33206966524756, 557.6296098821999 306.2312232088239, 557.2373619472344 308.1550970949972 C556.8451140122688 310.07897098117047, 556.4365807370204 312.41404918222753, 555.0563866125746 313.37665310119775 C553.6761924881287 314.33925702016796, 550.6515815319478 314.14721114257486, 548.9561972005592 313.93072060881843 C547.2608128691706 313.714230075062, 545.9655633957459 313.185468501882, 544.8840806242433 312.07770989865924 C543.8025978527407 310.9699512954365, 542.6917138008008 309.1379443898396, 542.4673005715438 307.2841689894818 C542.2428873422867 305.43039358912404, 542.6216875309777 302.4581657471028, 543.5376012487009 300.95505749651255 C544.453514966424 299.4519492459223, 547.0513581259738 298.68276285701774, 547.9627828778824 298.26551948594056 C548.874207629791 297.8482761148634, 549.0202171949509 298.3173814084283, 549.0061497601524 298.45159727004943 M551.2745989684131 297.0893255449539 C552.9270161668674 297.17775195795866, 554.825161723376 299.2725242284773, 556.0786891613421 300.5118671730132 C557.3322165993083 301.751210117549, 558.8611755729598 302.61005500382294, 558.79576359621 304.52538321216895 C558.7303516194602 306.44071142051496, 556.7831461848231 310.2574464044313, 555.6862173008429 312.0038364230891 C554.5892884168628 313.750226441747, 553.869993647922 314.85259906137946, 552.214190292329 315.0037233241159 C550.558386936736 315.1548475868524, 547.371825149395 313.84491797248126, 545.7513971672854 312.9105819995077 C544.1309691851758 311.97624602653417, 542.9786996983134 310.992801164801, 542.4916223996711 309.3977074862747 C542.0045451010287 307.80261380774846, 542.2361538752775 304.98779034992117, 542.8289333754312 303.34001992835005 C543.421712875585 301.6922495067789, 544.5794653432683 300.2976996813173, 546.0482994005937 299.511084956848 C547.517133457919 298.7244702323787, 550.8840669493694 298.9869431046032, 551.6419377193832 298.62033158153423 C552.3998084893971 298.25372005846526, 550.7266767587732 297.14792028083764, 550.5955240206767 297.3114158184343" stroke="#CC3333" stroke-width="2" fill="none"></path></g><g><path d="M550.165355583417 320.0346553677039 C549.1741550703467 327.69892593057216, 548.9377532017099 333.8901628150332, 551.5889134947461 349.73309412967404 M549.4357299870388 322.60292445942997 C550.8484538104614 329.3233444514817, 550.3492318169774 335.0299636571921, 550.1970191072171 350.8283733809103" stroke="#CC3333" stroke-width="1.6" fill="none"></path></g><g><path d="M548.9176222521318 348.5924834211682 C549.4519313825704 355.8642617893554, 544.8741898656198 365.375799677546, 542.6340951460639 379.4973855762936 M550.953980351012 350.69559468890395 C545.8803170365491 361.8200823819737, 544.4476002725339 371.3900076552791, 542.0438797378232 377.9856786970909" stroke="#CC3333" stroke-width="1.4" fill="none"></path></g><g><path d="M551.9860938986932 349.77248682893594 C553.0015232729456 360.17824834367434, 557.8169006709398 370.50179582699644, 559.9396294043764 377.8637685427479 M549.6053733425689 349.2064566008063 C552.6885144070243 359.1258831435172, 554.3847438885826 368.4500275413165, 557.824344845498 377.17925703127065" stroke="#CC3333" stroke-width="1.4" fill="none"></path></g><g><path d="M539.226805535599 320.73556677180625 C519.8630449849157 321.36033179366126, 499.9110223010454 323.5877675958147, 489.9693049180673 325.7022571494983 M539.5517069270666 320.5198439990693 C523.1848191070195 321.2448649213648, 506.5891684322163 323.1672986466624, 490.48228708410375 325.0941491000857" stroke="#CC3333" stroke-width="1.8" fill="none"></path></g><g><path d="M539.6372419309373 334.5217158741693 C528.3835108523259 331.94896710523005, 516.7290257958069 331.3250214155396, 489.7324217551609 325.20247343472465 M539.4581618009297 334.8389454401612 C521.0204356406406 331.7838826743718, 501.8753306766328 327.0643900045418, 490.4122399965553 324.8675008097784" stroke="#CC3333" stroke-width="1.2" fill="none"></path></g><g><path d="M348.46480520117086 227.39009313621045 C348.46480520117086 227.39009313621045, 348.46480520117086 227.39009313621045, 348.46480520117086 227.39009313621045 M348.46480520117086 227.39009313621045 C348.46480520117086 227.39009313621045, 348.46480520117086 227.39009313621045, 348.46480520117086 227.39009313621045" stroke="none" stroke-width="0.8" fill="none"></path><path d="M349.571896625657 227.25219572970224 C350.29159064511094 227.20242607928043, 351.6385755044185 226.90365884436224, 352.2077638778846 227.30466683008802 C352.7769522513507 227.7056748158138, 352.95818159203486 228.9366683727255, 352.98702686645356 229.658243644057 C353.01587214087226 230.37981891538848, 352.6443398814222 231.13550320280314, 352.3808355243968 231.63411845807695 C352.1173311673714 232.13273371335077, 351.9714380025409 232.44801799833533, 351.40600072430135 232.64993517569988 C350.8405634460618 232.85185235306443, 349.59461100414006 233.0220617399143, 348.98821185495973 232.84562152226422 C348.3818127057794 232.66918130461414, 348.02735135326714 232.10541507935125, 347.7676058292193 231.5912938697993 C347.50786030517145 231.07717266024736, 347.36054302880757 230.40702222504655, 347.4297387106728 229.76089426495247 C347.498934392538 229.1147663048584, 347.79252784901234 228.15447166175554, 348.1827799204104 227.7145261092349 C348.5730319918084 227.27458055671426, 349.4901994167941 227.28829560129535, 349.7712511390609 227.12122094982863 C350.0523028613277 226.9541462983619, 349.8881320628846 226.64692929841547, 349.86909025401104 226.7120782004346 M349.9162511972704 227.56520796002826 C350.3330574984369 227.6834237429398, 351.068633536413 227.55559054469117, 351.5708959766097 227.87693265554577 C352.07315841680634 228.19827476640037, 352.80605209699957 228.90779545973942, 352.92982583845037 229.4932606251559 C353.0535995799012 230.07872579057238, 352.66219099223724 230.7245383233568, 352.31353842531433 231.3897236480446 C351.9648858583914 232.0549089727324, 351.5240964451714 233.1648999607397, 350.8379104369129 233.4843725732826 C350.15172442865446 233.8038451858255, 348.6935234105094 233.6996136963985, 348.19642237576363 233.30655932330208 C347.6993213410179 232.91350495020566, 347.95609886358704 231.85365194175276, 347.8553042284383 231.12604633470414 C347.7545095932895 230.39844072765553, 347.594050404045 229.51828735376444, 347.5916545648712 228.94092568101036 C347.5892587256974 228.36356400825628, 347.29398308129726 227.95317441284445, 347.84092919339537 227.6618762981797 C348.3878753054935 227.37057818351494, 350.5410007905687 227.3012134415515, 350.87333123746 227.19313699302185 C351.20566168435124 227.0850605444922, 349.94037262633634 226.93421115196256, 349.8349118747429 227.0134176070017" stroke="#DAA520" stroke-width="1.6" fill="none"></path></g><g><path d="M346.30256420549256 225.51048571470477 C346.30256420549256 225.51048571470477, 346.30256420549256 225.51048571470477, 346.30256420549256 225.51048571470477 M346.30256420549256 225.51048571470477 C346.30256420549256 225.51048571470477, 346.30256420549256 225.51048571470477, 346.30256420549256 225.51048571470477 M344.9886421126282 232.87671668049796 C347.5877901161045 229.36071862485758, 350.5486282266324 226.4567753708254, 351.98283737792013 225.11679988044585 M345.4690246465446 232.85873097051166 C347.9341251390011 230.00704923149814, 350.4575653481986 226.895581323422, 352.10900072366053 225.09794649750415 M348.0789460527944 235.1750437294968 C351.2286327403736 231.6423496311737, 353.92825083839267 228.64600829907627, 355.83478630551815 227.2642449561705 M348.29263429502794 235.25430204681174 C350.1723438990939 233.07687672572317, 351.98188737522315 230.96351722625548, 355.6473719209299 226.89073182417744" stroke="none" stroke-width="0.5" fill="none"></path><path d="M349.1943463241084 224.17836560833226 C350.3791094899697 223.99984481773316, 352.3956932588197 224.15445244960023, 353.54087743772766 224.80135803427316 C354.68606161663564 225.4482636189461, 355.79455085011625 226.71915094900885, 356.06545139755633 228.05979911636985 C356.3363519449964 229.40044728373084, 355.7811395180377 231.57630836238593, 355.16628072236824 232.8452470384392 C354.55142192669877 234.11418571449246, 353.44205913025434 235.16823215707396, 352.37629862353936 235.67343117268948 C351.3105381168244 236.178630188305, 349.9180816700444 236.22101133499268, 348.7717176820783 235.87644113213233 C347.6253536941122 235.53187092927197, 346.27365254496584 234.68855673425745, 345.4981146957429 233.6060099555274 C344.72257684652 232.52346317679738, 344.02931668208373 230.67876179235176, 344.11849058674073 229.38116045975212 C344.20766449139774 228.08355912715248, 345.1642946710012 226.7522516775003, 346.03315812368476 225.8204019599296 C346.9020215763683 224.88855224235888, 348.73175051509793 224.06547082807117, 349.3316713028422 223.79006215432779 C349.9315920905865 223.5146534805844, 349.5586238354823 224.00139198014324, 349.63268285015045 224.16794991746926 M350.20373756887403 223.52444828143138 C351.239241800134 223.48300939352978, 352.76994014854 224.56885358015103, 353.72010438648005 225.6299576521828 C354.6702686244201 226.6910617242146, 355.6642362821269 228.4923482889385, 355.90472299651435 229.89107271362212 C356.1452097109018 231.28979713830574, 355.8996756981997 233.1018506796262, 355.16302467280457 234.02230420028448 C354.42637364740943 234.94275772094275, 352.8041792059363 235.24313600003737, 351.4848168441436 235.41379383757177 C350.1654544823509 235.58445167510618, 348.35212809805427 235.5514311493063, 347.24685050204835 235.04625122549086 C346.1415729060424 234.54107130167543, 345.3161430847125 233.483152991653, 344.85315126810804 232.38271429467923 C344.39015945150356 231.28227559770548, 344.1264939720305 229.6172983707424, 344.4688996024214 228.4436190436484 C344.8113052328123 227.2699397165544, 345.9059803669571 225.99519626980432, 346.9075850504535 225.34063833211522 C347.9091897339499 224.6860803944261, 349.8532466461983 224.70617314777746, 350.47852770339983 224.51627141751382 C351.1038087606014 224.32636968725018, 350.65774735582886 224.13404605466948, 350.6592713936627 224.20122795053334" stroke="#DAA520" stroke-width="1" fill="none"></path></g><text x="400" y="560" text-anchor="middle" font-family="sans-serif" font-size="16" fill="#222" font-style="italic">"Is the competition making you more — or less?"</text></svg>