<?xml version="1.0" encoding="UTF-8"?>
<svg width="800" height="600" viewBox="0 0 800 600" xmlns="http://www.w3.org/2000/svg"><rect width="800" height="600" fill="#FFFFFF"></rect><g><path d="M350 420 C368.18010416593677 414.9570738927471, 385.29064365816413 415.38816347098583, 398.15787981607724 421.0721105009227 M351.61533176930544 417.7464512569849 C367.25702901316777 413.85041946801806, 388.72835746913853 415.60568090298096, 398.02204469171204 418.44047192443156 M400 420 C414.5949657851471 428.2733322800437, 431.92787446779806 424.9694893020268, 451.38289990421714 418.0720620524802 M398.5707690854172 421.1701668617121 C413.6569152834814 427.5816847541304, 432.14539408369257 429.1727507296254, 448.82615374130984 419.072939280138" stroke="#4A90D9" stroke-width="2.4" fill="none"></path></g><g><path d="M340 430 C357.8455634177743 424.4568137714198, 378.62560375304247 422.13144151122106, 399.88190757396 430.9313218090961 M341.774263190457 431.8733925098084 C357.29853535104814 424.33313855258274, 379.01456282278343 421.6792804494665, 398.8374888098876 432.5864679170813 M400 430 C417.7774059655357 437.90213405644613, 441.51615042161217 437.8062840345522, 458.1856383940044 430.18990822542065 M401.9220049046404 427.7724615280313 C419.8184893733182 434.2340707196184, 438.6277682536394 436.49252040819704, 459.14787637798923 430.22310502307926" stroke="#4A90D9" stroke-width="1.8" fill="none"></path></g><g><path d="M172.72389883231745 317.0982317207954 C172.72389883231745 317.0982317207954, 172.72389883231745 317.0982317207954, 172.72389883231745 317.0982317207954 M172.72389883231745 317.0982317207954 C172.72389883231745 317.0982317207954, 172.72389883231745 317.0982317207954, 172.72389883231745 317.0982317207954 M175.0211734112033 326.723581803067 C177.43724425656555 323.48943997369867, 180.5502305340649 320.0604931502365, 185.95179589598257 314.5270458096387 M174.36324654106133 328.0298966293931 C178.2524561146594 322.9323214116299, 181.33161824877013 319.07035721839145, 184.89365199723215 314.8551152652879 M181.5460346270997 332.0115169118275 C183.51312880275728 329.50712701271925, 186.09168251054868 326.7063921988831, 187.29349187554473 323.11766999438714 M181.6363543068631 331.4850719613493 C182.8440501180455 329.5170598574077, 185.03283924247773 327.1799612867469, 188.04905384196135 323.69217972517447" stroke="none" stroke-width="1" fill="none"></path><path d="M183.94706703279303 313.02796886907237 C185.5953478516014 313.77842593900687, 187.88403726098463 316.76098044434997, 188.4867042924214 318.5020051660214 C189.08937132385816 320.2430298876928, 188.2361310376545 321.495427757541, 187.56306922141363 323.4741171991007 C186.89000740517275 325.4528066406604, 185.8117805476639 329.04841729623666, 184.44833339497606 330.37414181537974 C183.08488624228823 331.6998663345228, 181.1063009258955 331.7759978248287, 179.38238630528673 331.4284643139593 C177.65847168467795 331.08093080308987, 175.37001522467344 329.77463039773164, 174.10484567132337 328.28894075016325 C172.8396761179733 326.80325110259486, 171.97412143937038 324.4339782197487, 171.79136898518635 322.5143264285488 C171.60861653100233 320.59467463734893, 172.16506079756402 318.36401821296624, 173.00833094621925 316.7710300029637 C173.85160109487447 315.17804179296115, 174.8610924142836 313.3847078306784, 176.85098987711768 312.9563971685335 C178.84088733995176 312.5280865063886, 183.75768514806364 313.8735798871163, 184.94771572322378 314.2011660300945 C186.13774629838392 314.5287521730727, 184.18092953688517 314.8429811959103, 183.99117332807853 314.92191402640276 M179.89981020400816 312.8437642479895 C181.6721197773617 313.02340034643146, 183.52662257546947 315.25675053157437, 185.13657768288795 316.4971964336605 C186.74653279030642 317.73764233574667, 189.40078918315777 318.64010410333066, 189.559540848519 320.28643966050646 C189.71829251388021 321.93277521768226, 187.33312400058168 324.4882126579938, 186.08908767505528 326.3752097767152 C184.8450513495289 328.26220689543663, 183.41005270439666 331.0606553151971, 182.09532289536057 331.60842237283487 C180.78059308632447 332.15618943047264, 179.94977550523768 330.61239247555847, 178.20070882083866 329.66181212254185 C176.45164213643963 328.7112317695252, 172.79701244329345 327.3929850804039, 171.6009227889664 325.90494025473504 C170.40483313463932 324.4168954290662, 170.66188721000984 322.45609723638336, 171.02417089487633 320.73354316852885 C171.38645457974283 319.01098910067435, 172.0141791043664 316.7719595305375, 173.7746248981654 315.56961584760785 C175.5350706919644 314.3672721646782, 180.6791270233179 314.15248833441285, 181.5868456576702 313.51948107095103 C182.49456429202252 312.8864738074892, 179.69187556359228 311.9582517371646, 179.2209367042792 311.77157226683687" stroke="#000000" stroke-width="2" fill="none"></path></g><g><path d="M180.2709237438432 341.50506089898784 C179.72526330302188 346.3481363527625, 181.57723617123648 355.6802688573247, 181.4431966775194 370.9224410315869 M180.11994566094128 340.26140479645255 C180.6230973609964 349.237474392735, 180.6218826158016 356.90023065064685, 183.81369408223043 372.1252506028382" stroke="#000000" stroke-width="2" fill="none"></path></g><g><path d="M182.56987655788333 371.08214495704016 C177.44256310118206 383.1725618784988, 173.48367728888806 393.2257677427083, 171.02570897337736 399.9963753639842 M183.0141156239764 372.7436604773614 C179.00866340235802 380.34393085635077, 176.8087070288889 388.0375011717256, 171.6934644266668 399.45551306431594" stroke="#000000" stroke-width="2" fill="none"></path></g><g><path d="M183.80663565582313 370.3185641878591 C184.98923521725112 382.2491960854086, 191.67974806035014 390.37318273851713, 194.99130783115396 399.6197395590869 M183.12788784008612 372.4317454168127 C185.11048960673097 378.177466578213, 189.16797654634195 384.9959620556073, 193.5226106315498 399.9887198450284" stroke="#000000" stroke-width="2" fill="none"></path></g><g><path d="M179.26549497696615 351.76986480270904 C176.023218443146 354.19756564756517, 171.47098452696534 357.1715083733807, 159.57385451967707 365.3426196991119 M180.83950000700597 349.9600649400026 C172.0606006559208 356.49886459407367, 164.51782205304508 360.79845075713956, 159.38611700588464 364.34005594432966" stroke="#000000" stroke-width="2" fill="none"></path></g><g><path d="M180.37138168082018 350.8564986337245 C185.84862066202504 353.1626143726034, 189.45163925345645 355.9159283085238, 203.9464567328227 359.5867337060933 M180.1041439326747 349.5808915741998 C186.2498258295153 353.08570863690255, 190.40755890717378 355.2770092987238, 201.7623696079828 359.7099215463338" stroke="#000000" stroke-width="2" fill="none"></path></g><g><path d="M612.7017126458964 312.6613161444637 C612.7017126458964 312.6613161444637, 612.7017126458964 312.6613161444637, 612.7017126458964 312.6613161444637 M612.7017126458964 312.6613161444637 C612.7017126458964 312.6613161444637, 612.7017126458964 312.6613161444637, 612.7017126458964 312.6613161444637 M611.1695189233296 324.4925827202942 C616.9322589029765 321.08283988209655, 619.1601678312842 315.2755161038492, 623.7097630602381 309.86327647239176 M613.0068283268072 325.2161438280528 C615.2043796034184 321.26423686465273, 618.9594865424409 318.9224827561025, 625.1289546719927 310.4850509312155 M621.2238650436504 327.06555275464353 C624.638375990888 322.8815008504956, 626.4918609260752 321.4900643884744, 629.8769618145338 318.011066131608 M621.6469481269934 326.07400234719705 C623.9692514638184 323.7951268688317, 625.195840715878 322.8732476869731, 629.7766810541839 317.18312756762816" stroke="none" stroke-width="1" fill="none"></path><path d="M618.4331771960037 310.15047224757467 C620.2822422647139 309.6594914314097, 623.3840786816133 310.0536980820302, 625.2653544162962 310.8353576628877 C627.146630150979 311.6170172437452, 629.1412687681669 313.1022317481415, 629.7208316041011 314.84042973271966 C630.3003944400353 316.5786277172978, 629.4722620556043 319.61473849532706, 628.7427314319013 321.26454557035663 C628.0132008081983 322.9143526453862, 627.1270267936982 323.7605301517927, 625.3436478618834 324.73927218289725 C623.5602689300686 325.7180142140018, 620.0951188719876 327.15486802101145, 618.0424578410122 327.13699775698404 C615.9897968100368 327.11912749295664, 614.295346296372 326.13875046409163, 613.0276816760307 324.6320505987329 C611.7600170556894 323.1253507333742, 610.4593133057721 320.1281403057859, 610.4364701189643 318.0967985648318 C610.4136269321565 316.06545682387764, 611.3944636807234 314.0839221704353, 612.890622555184 312.4440001530083 C614.3867814296445 310.8040781355813, 618.2803318572596 308.95481870524947, 619.4134233657275 308.25726646026976 C620.5465148741953 307.55971421529006, 619.6636706467801 308.03543463783626, 619.6891716059911 308.25868668312995 M618.3014754830712 310.07931490794704 C620.2999025163438 309.432949866022, 622.3615133636199 308.29335717870043, 624.298211145579 309.19980468365 C626.2349089275381 310.1062521885995, 629.0450563187234 313.5962618081586, 629.9216621748257 315.5179999376444 C630.7982680309279 317.4397380671302, 630.4684105861757 319.11788928438676, 629.5578462821928 320.7302334605646 C628.64728197821 322.3425776367424, 626.4176755777881 324.2824454583878, 624.4582763509286 325.1920649947113 C622.498877124069 326.1016845310348, 619.8540266827338 326.610384851885, 617.8014509210353 326.18795067850544 C615.7488751593369 325.7655165051259, 613.1683226681305 324.08856346308414, 612.1428217807381 322.65745995443393 C611.1173208933458 321.2263564457837, 611.447262354189 319.39746976855565, 611.6484455966815 317.6013296266043 C611.8496288391741 315.80518948465294, 612.2949201451861 313.05983963620355, 613.3499212356934 311.8806191027257 C614.4049223262007 310.70139856924783, 617.1200395513848 310.84831582090897, 617.9784521397256 310.52600642573714 C618.8368647280664 310.2036970305653, 618.4013547171072 310.2537468667787, 618.5003967657381 309.94676273169483" stroke="#000000" stroke-width="2" fill="none"></path></g><g><path d="M621.842227493591 336.786683847116 C619.9928565386341 346.1502850633902, 624.7396224750343 353.20805117029755, 625.525326655928 363.4133877481699 M620.0998327831354 336.5280086753582 C622.2077062665148 344.90650374256074, 623.4800926297972 353.07568263398207, 624.9067169489706 364.23636073665904" stroke="#000000" stroke-width="2" fill="none"></path></g><g><path d="M626.3183757033787 364.1087843273416 C620.943959551839 372.95111281906, 619.9335548740738 380.2239715055554, 613.9424807170715 394.97752312311 M624.9276630421906 364.8748031896459 C622.9678876956363 372.0295346438061, 621.0448881186164 377.78270376180126, 615.0979572096109 395.9407664614548" stroke="#000000" stroke-width="2" fill="none"></path></g><g><path d="M625.415216332878 363.391950384286 C628.5083833430432 375.6744437770093, 633.2649587300917 386.5280054169638, 633.7181623601913 394.4225174310806 M624.0963693271945 364.1569028999888 C626.7869615063855 373.1159891785552, 630.6252678914892 382.28230536729296, 634.4861611951403 395.343765191851" stroke="#000000" stroke-width="2" fill="none"></path></g><g><path d="M619.7101789000059 343.6210239058257 C616.9411324240074 349.48395614809397, 610.6707828961311 352.0948628725605, 603.1145312613462 357.9069997936503 M620.8867811360334 345.0002006116367 C617.3394389541513 347.90470674507463, 613.7636696306918 350.0298595724003, 602.736618681324 358.56994387743026" stroke="#000000" stroke-width="2" fill="none"></path></g><g><path d="M602.6199225358592 358.16799588690407 C604.5436415877836 359.71874554254725, 607.0051836250782 359.3813457398555, 611.1285319416157 362.1810289871736 M601.8872713411128 358.4580727485404 C605.69571300109 359.42925721890214, 609.1752837719591 360.4888118117166, 611.4936342103464 362.4258054889852" stroke="#000000" stroke-width="2" fill="none"></path></g><g><path d="M620.0768517892785 345.40188084207904 C625.7874269742875 350.1396804172277, 632.3107458418519 355.5862642896288, 641.0719652226949 357.21625998394785 M620.2611395339006 345.34600952576085 C626.2058734281198 348.25553957347074, 632.0479914474349 352.5421659492367, 640.749319747848 358.6491020991995" stroke="#000000" stroke-width="2" fill="none"></path></g><g><path d="M639.2264589477728 357.22893556912203 C638.2261954201933 359.9712444316098, 635.6195157243365 360.90883490888694, 629.9721595945546 361.19803615199305 M639.5930517733129 358.25192836339886 C637.1319012947819 359.15472371141703, 633.2051067714616 360.12356828353376, 630.1191817574309 361.7610291542522" stroke="#000000" stroke-width="2" fill="none"></path></g><g><path d="M607.2144930681391 296.3587771631101 C614.376140614837 297.4047737175546, 620.0818633408721 293.3524397872002, 633.2805902384833 295.3715174330059 M605.9539956959541 296.34655778608595 C615.1059198302604 294.9106215398927, 624.2168814619263 295.73840266228814, 636.2297526125807 294.6370363545641" stroke="#aaa" stroke-width="0.8" fill="none"></path></g><g><path d="M609.8296211506486 290.0435681975414 C614.6787968466027 287.594538971082, 622.1266541773441 289.86248884622785, 629.2967172120739 289.56257698840267 M610.205290754007 287.6646145057386 C618.0162509940697 287.27376239892254, 623.5930410234998 288.57829950678104, 628.6615732442208 288.6083372540363" stroke="#aaa" stroke-width="0.8" fill="none"></path></g><g><path d="M79.95049191315731 399.5276684799233 C344.62816523263814 403.5703244327923, 609.3347834823661 402.4374460529895, 750.8519929933944 399.07279617369977 M80.08135630356455 399.44563519680315 C255.4787784186884 397.4680631640245, 429.99297932747294 397.4017289270357, 750.2466676884742 400.47607920381137" stroke="#000000" stroke-width="2" fill="none"></path></g><text x="400" y="560" text-anchor="middle" font-family="sans-serif" font-size="16" fill="#222" font-style="italic">"I set her down at the river. You are still carrying her."</text></svg>