<?xml version="1.0" encoding="UTF-8"?>
<svg width="800" height="600" viewBox="0 0 800 600" xmlns="http://www.w3.org/2000/svg"><rect width="800" height="600" fill="#FFFFFF"></rect><g><path d="M198.45026984772844 221.10148864500792 C235.11084874524732 218.67157890389237, 269.1925035475264 218.23200937803443, 299.92655713493883 221.3447529918086 M200.73152358962054 220.24162808945076 C233.73778922952346 219.45855091878684, 269.7050484936475 218.48996746396892, 299.3437790046897 220.54065918893835 M300.11050877018994 219.77802185985277 C299.84126587882696 271.00586496079404, 302.51568091375304 324.59853161725783, 301.14330639945854 400.4443787655813 M299.71618280141735 219.66948363138138 C299.9141290229162 282.2596639132238, 299.7920030683754 344.4937751223774, 300.3832637685374 400.2139749851817 M301.4432874148507 398.7149425660964 C280.0634545018375 401.73925836532754, 258.4400362507527 399.51102589928576, 198.60467509251185 398.9963818458361 M300.04828524658905 399.29529524098683 C264.4701066094867 400.24262521085177, 228.2895125794996 400.2794805544827, 199.6339641807526 399.26331526440634 M199.4704330927973 400.31107595835243 C199.35559738445082 348.62178974608406, 199.56393871465912 301.38471320782264, 201.2400656609063 219.3411913982356 M199.68990995669986 399.89933889959167 C199.61028206144104 349.7031244134875, 200.24991906437995 299.9956460070403, 199.26174265197503 219.91294601069524" stroke="#000000" stroke-width="2.4" fill="none"></path></g><g><path d="M215.4215688150647 235.0792060848855 C241.3511162628906 233.89786297273346, 266.8789705861728 235.55836082468247, 285.54018948502267 233.81730518064225 M214.87817960171492 234.86087266947132 C231.1575287558013 234.78885597373707, 248.8371375814722 235.0964587130578, 285.33929810978174 235.02065876168967 M285.6553158352194 235.31570826662642 C284.2443522155671 247.17768121225416, 284.9942426592861 259.80470639969906, 284.6498429351203 294.5997272303181 M284.6064513472137 234.7971859689196 C285.82447761601054 252.75894762323284, 285.64693326314654 271.45990378854344, 284.89443987149775 294.71640064141945 M286.0843459568678 294.02350388631913 C261.7131407189332 294.6788021890864, 239.69654002159118 294.2000134718972, 214.39712991890315 294.91571010589274 M284.42682914502393 295.5647900826269 C262.49015638719106 295.4010177242769, 240.32561742202842 295.0637711474334, 215.02809962716142 295.28307732596244 M215.6065102428827 294.1744694157905 C215.33853429080105 271.81055679762204, 214.77730262278968 247.54819781406988, 215.44898712407726 234.30609108176264 M214.43526985987813 294.8894170591123 C215.66515239832182 282.2264481830593, 215.22030902852026 270.1380752254155, 215.06605824506886 235.52965360524615" stroke="#000000" stroke-width="1.4" fill="none"></path></g><g><path d="M217.22422161907062 310.2564749815085 C222.77429255885752 309.641979591614, 227.35231455356683 309.6006490777088, 235.42179135630343 310.4687711360805 M218.1662211140806 309.7874786593821 C224.6573349403304 310.34571905314635, 231.49691155541777 309.52426597951506, 236.03402507564456 309.83632241434276 M236.13352057896324 310.7344411200638 C235.67476511974235 313.5337926629442, 236.28642979914844 317.4970989873673, 236.19283470499667 325.4815105842144 M236.27823394937744 309.62532828936554 C235.9447922937522 314.370995551054, 235.85276603570094 319.18587680231127, 236.14264450900262 326.2591967688126 M235.79127552397736 326.26979150877327 C229.16248953338473 325.73545366483495, 223.02585101414525 325.3954247765236, 218.8183320236334 326.692608568358 M235.95486311857286 325.7778566595895 C230.47466530744725 326.2008623774589, 224.8447580693201 326.1541492222611, 218.29400434428803 326.40803078966525 M218.21473120300152 325.8201147297577 C217.59676346240062 320.3615001149315, 218.48822647711518 316.29881988684957, 217.74995323656654 310.5906797051033 M218.11768173563246 326.2975512989151 C217.9571317548109 320.99929691079404, 218.35943832404053 315.23495995887424, 218.11114764014198 309.76262375389393" stroke="#000000" stroke-width="1.2" fill="none"></path></g><g><path d="M241.22584288133973 310.53101822951015 C248.16846221349525 309.52849195046736, 255.72602422306514 309.2624482286088, 259.3590982857895 310.320476982351 M240.82230198131816 309.5833701259344 C246.5129400493453 309.96218040354944, 252.7105213192429 310.14154517473486, 259.1306577237228 309.5877354650546 M259.23308532465245 310.71904678862245 C258.73791446883604 315.09387055750847, 259.06729520515734 321.8507795290167, 259.579519361281 325.2769477707215 M259.1215163167822 310.25261300064443 C258.9810950731779 313.5089607230824, 258.59369190935575 317.03282069259467, 258.71840161778636 325.86338421683354 M258.2165042006882 325.8778832951089 C252.86385869188274 326.3750691327185, 245.5828515343879 326.3987259768388, 241.51248543838025 326.2105194978705 M258.89134632421565 325.70402669427676 C252.37572623894374 326.25635579931236, 245.7591835161433 325.80955547766155, 241.14779723498012 326.1874705590057 M241.65422066311976 325.5835802760513 C241.31099011759218 322.75530659945923, 241.42894815082897 317.2845159333813, 241.55549210393232 310.7803921064858 M240.61762762174197 325.7952363117815 C241.28120780647947 321.592381085767, 241.21777912249289 316.20754030382943, 240.95805043747256 309.88594895094855" stroke="#000000" stroke-width="1.2" fill="none"></path></g><g><path d="M264.8261617661349 309.80034705194305 C268.56766311643565 309.14573978613066, 272.65817887172227 309.8072623314987, 281.35816886660245 309.79621859160005 M263.95319567072437 309.9269661720104 C268.11666281823614 310.2005801636945, 271.8227657120752 309.5908297862532, 282.3456562251319 310.27743461285667 M281.44193757253504 310.4594998757232 C282.7567942276171 316.12638576090757, 282.74910571099974 322.45329455829267, 282.7770293300305 326.50430866218636 M282.11602291383514 310.00960792231615 C281.9992613427517 315.0541842462129, 282.08932972317774 319.4576591822821, 282.16743908506766 325.8906763170483 M281.872062420589 325.3528287275774 C276.0378834043969 326.24433041224836, 269.1753353877363 325.2875391142439, 264.8677544713016 325.93303907159896 M281.7972442120993 326.30656035142596 C277.61083983185205 325.8547703249155, 273.6935090618473 325.8623068529206, 264.3174911879651 325.7972749100723 M264.6199650474837 326.47634478001197 C264.58427542296613 322.7899849482382, 263.3750814832696 319.38289368679386, 264.5636440811194 309.79513707754705 M264.197769920126 325.8329667420478 C264.33041605585316 320.3996265003376, 263.9604390030065 314.8454983313418, 264.09535414951563 309.834096247707" stroke="#000000" stroke-width="1.2" fill="none"></path></g><g><path d="M218.28222276243486 332.52832271450325 C221.87618940497967 332.6660351038058, 227.70122977116068 332.3544832800895, 235.43467279037193 332.68270596650433 M218.24090016121846 331.7150890853289 C224.04240804902858 332.2336431896617, 229.72303380724532 332.4339067053559, 236.02287575221766 331.7878002857017 M235.52604552843997 331.98765169794825 C235.62560400270937 338.67256878117655, 236.52460406965386 345.49859587824136, 236.68966106958106 348.5922634024152 M236.31150910955495 331.66195809561265 C235.78171340786005 335.70089149975206, 235.98838693164973 339.4807223676865, 236.28089116828562 348.2583108621473 M236.54493999100205 348.2673922692053 C230.71533279117006 347.2679218507468, 224.36299840611363 347.0938923543985, 217.27646587020277 347.5465375155961 M235.61522070582373 347.56562357688443 C231.97730449339684 347.72452743977146, 227.28049660317305 348.39329643404193, 217.583224391771 348.1405122896611 M217.88412377874155 348.5183213112683 C217.2464889312231 344.43662510056475, 218.21756332196964 340.4826410068415, 217.53869410623273 332.64359347199877 M218.26214925952905 347.798523399426 C218.27105901564133 342.9586591443437, 217.91357447035801 337.3245882643227, 218.3670911553198 332.2039945304395" stroke="#000000" stroke-width="1.2" fill="none"></path></g><g><path d="M240.13866957792055 331.9819720980033 C246.09126525143375 331.47730855762313, 249.39847864387428 331.8597653700665, 258.32916840472177 331.8574181161357 M241.16857417502752 332.4152804000555 C248.0126998205519 332.1490361163143, 254.6689431767389 331.74516965119506, 259.091372265183 332.2759851691168 M258.8971808587452 332.5385403659127 C258.7669249969131 337.2164973915789, 258.33181802260157 343.56519238669296, 259.66009758548125 348.18891256588614 M259.1005142367057 332.2912570741077 C258.8419802077371 338.4505199907856, 259.26459910100874 344.68851764209535, 259.1464163449911 348.1372130281844 M259.4257194333946 348.51449744146066 C251.23214872947727 347.55708184061535, 244.34075111690046 347.6698969538667, 240.1866610403131 348.6258312353335 M259.3968521074913 348.37533978431975 C255.63296723483106 347.7439256542563, 251.79048047120182 348.01442648770086, 240.93534412485616 347.6438319164899 M241.186092362399 348.0281277772554 C240.7303093664895 341.42896861957956, 240.84472104404614 335.53796705949213, 241.54960932735156 331.6654683026103 M240.6891583423267 348.2929562595795 C241.34033145448183 341.6532588349617, 240.85412219518574 335.6824545470347, 241.16468985658824 331.98328086646245" stroke="#000000" stroke-width="1.2" fill="none"></path></g><g><path d="M264.6870672867164 332.1051903953779 C269.8808849417689 331.48593740199317, 275.98449515292 332.94244306629207, 281.7863383689312 331.3511778284386 M264.1879249603656 331.692934564007 C270.63809025249435 332.23895710825195, 277.12047683383156 332.15230894667627, 281.9652082730258 331.8238828674404 M281.6821346844583 331.9286619680104 C282.42188054627496 335.913684030964, 282.6686781572868 339.23328028058575, 281.69721916273625 347.6120988458713 M282.02983236143547 331.8062046173069 C282.049338460662 337.4941734850246, 281.72519103583573 343.87354681504354, 282.1971307459493 347.80898130498883 M281.4670150542895 347.51078429142 C274.7057704530727 347.7676863061233, 267.9137652625649 347.51068330825495, 263.6914699477193 348.0215281807899 M282.1056772452315 348.2905970279335 C274.8554252854812 347.83724965701913, 267.7606011236148 347.75083226660945, 263.7362595873624 347.6740201733258 M263.22504647326105 347.568947905947 C264.68323112778273 343.0108959782745, 263.42307983116996 339.10261743650955, 263.759970399522 332.77141066509733 M263.7659218561257 347.9469423549845 C264.44865856123954 342.69911263710276, 264.33027515641754 337.84209532437546, 263.99604514178236 331.70998225195666" stroke="#000000" stroke-width="1.2" fill="none"></path></g><g><path d="M217.87981245402221 354.0782262818803 C223.76159444645089 353.2093048068722, 227.65683336995838 353.808852872454, 236.8051485671527 353.7617018450436 M217.58661568358974 354.0269085373124 C223.45187935256948 354.32595439702993, 228.68242588368918 353.7996049825524, 236.21459894274946 353.59544513825733 M236.52125269716242 354.34692272445517 C236.18760232901784 357.9637155809959, 236.0750269700917 361.18546277277704, 236.44351493134462 370.4155409109391 M236.36370858320717 354.10532217124813 C236.0556316578954 358.32372995273835, 236.17317777903983 361.96057653751836, 235.7866481529499 369.6941531038254 M236.88096325833942 370.28909176059454 C230.3614132058581 369.4917882331994, 226.04026877037438 370.25640032604156, 218.5823318202844 370.70128495105473 M235.71496385379157 370.4142344039878 C230.47651497647797 369.7088467535701, 225.21448128313116 369.8089169036493, 217.87994250537014 370.3500694958927 M217.86854594657413 370.6004497381192 C218.21534276632158 365.06348010394925, 218.4359826157426 358.0891818731595, 217.64897846366355 354.74621347847443 M218.21751458090213 369.8502342397855 C217.69797644708152 365.73605774226326, 217.82477696845723 362.24459407304187, 217.82923413154128 354.2460529703273" stroke="#000000" stroke-width="1.2" fill="none"></path></g><g><path d="M241.04490695449553 353.7195632004096 C245.32327054790912 354.39813386100354, 247.9553705975027 353.98897545354333, 259.69555783504296 353.5467883981169 M241.28576352548578 354.0625057652999 C246.75791035355627 353.8553314177641, 251.8508531044293 354.3153991713937, 259.3118474383389 353.5853373527451 M259.40724487442395 353.9489007334551 C258.82269060186024 359.1699541864634, 259.2891355573163 363.6339391137178, 259.170460020722 369.7998271016018 M258.8650711793496 354.1381842558957 C259.27331939378575 359.912678132266, 259.2815840059871 364.829858881288, 259.00533316091804 369.92474154917363 M258.46378553454366 369.17614701392284 C251.93424097823262 369.43311623452945, 245.40289611562258 369.58260887218404, 241.71052985211028 370.2183788439488 M258.78407772374874 369.93732126139696 C254.92377556100828 370.31429680044056, 250.76083681613056 369.8989994362159, 241.2454437726916 370.1832201596203 M241.30691134218534 370.3857850685632 C240.42417056388905 365.9357311874818, 240.81081113486385 361.69865837740605, 240.44127182275668 354.17943147452854 M240.78382847635143 370.1601725817533 C240.63423004148186 363.9822791065002, 240.66259225243058 357.96095005814163, 240.7757474791941 353.61776817152804" stroke="#000000" stroke-width="1.2" fill="none"></path></g><g><path d="M264.5519983621019 353.2599669736043 C270.47216192189615 353.4370856893984, 277.76899276828385 354.43608774949803, 281.19484414746285 353.99320502032595 M264.42152396888883 353.9719061163317 C270.07507168689403 353.8683718818841, 276.03895828907497 354.2059041783209, 282.3788658049391 353.89954866507253 M281.3150630296353 353.9086284832018 C282.33169693452925 358.568409341291, 282.0785589338153 362.2035234539404, 281.7243514457995 370.5201295881015 M281.66542742722845 353.87906641198515 C281.75798300282594 359.92041799876324, 281.8099277946105 364.90877837869726, 282.3592885026526 370.1385127064338 M282.00036666961984 369.5690677327115 C277.6222608816281 369.8291120548632, 273.5430765048109 370.16432311368703, 263.61128601623915 370.00803581030885 M282.04681318565576 369.9670865345041 C275.9793085271662 369.7205193530671, 270.44170450534784 369.90130082329307, 263.6424465464051 369.9876709769513 M263.9060884485508 369.3065464511125 C264.69693988592974 363.950240779817, 263.8598993220501 357.8813890287181, 264.58819819552775 353.4865406102796 M264.13469727334024 369.97481888283687 C263.7580454516843 365.0678510630925, 263.7264009265971 360.6471181023916, 264.33909896150783 354.29192677758755" stroke="#000000" stroke-width="1.2" fill="none"></path></g><g><path d="M218.09539074079234 376.5557828033465 C223.71366835524384 375.3926823325167, 229.67762416007636 376.83838870889616, 236.62990407096805 376.5243037072616 M218.21551257158714 376.41152919758997 C222.5260886579604 376.20767714668835, 226.54679370766394 376.3699215927854, 236.01450494931342 375.98740855100016 M236.7609427298542 376.1038900579105 C236.52167569454377 381.9708707226819, 236.41626212153153 388.7985467198219, 236.0305054137685 391.8693850466662 M235.886513866871 376.0038559374835 C235.72158409202248 382.52798844228016, 235.70611382209123 388.54429136876803, 235.6781994480771 392.06356030735924 M235.38333511050897 391.37065160817605 C230.06711270953878 392.45861988231024, 224.09238031993738 391.52595792544764, 218.81079157695606 391.86786303484075 M236.14882194272144 391.82482154752756 C231.01072631476293 392.2709107058604, 226.64109869630042 392.02417697100447, 217.7868772381821 391.936631507489 M218.3186270418717 391.3732124354133 C218.5145994184817 388.7883139734562, 218.37926988051683 385.3222596839259, 217.73873712596247 376.07018812192786 M218.03068422858763 391.7279296833892 C218.3667469085803 386.3468232232648, 217.87168771581128 380.9008525199668, 218.08001051066833 376.0745523833847" stroke="#000000" stroke-width="1.2" fill="none"></path></g><g><path d="M241.73210134377786 375.6603767737147 C246.7511203466261 375.91724936305815, 253.27626746526417 375.3950164049931, 259.31412199245557 376.2116934259994 M241.04106096469758 376.266102657465 C246.13407812490277 376.09819219600365, 251.3443239265968 376.2995266763023, 258.71843434814895 375.9172780967895 M258.7696852030447 376.2566405329123 C258.58377707463603 381.6317320022683, 259.3784045385819 386.6941085323842, 258.2688572027321 392.5326259051837 M259.0622986775574 376.22690526221413 C259.08966247701835 380.44040553064104, 258.85182906373814 383.9713871718712, 259.36064202783103 391.84623760691966 M258.60457795814557 391.636473079292 C255.71975693027304 392.0131564958984, 251.97708751621613 392.73569739384544, 240.70924518787206 391.79434793970097 M259.0916752359234 391.8991920468207 C253.46056312492445 392.18807611056405, 247.91606290863797 391.9077985059138, 241.0419556962884 392.0085071756152 M241.4755139853221 392.451610338359 C241.11985511608614 386.30805281676857, 241.19039022919517 381.9482755407893, 240.367613534103 376.21574957438463 M240.793754231607 391.6690262375209 C240.83372918235247 385.8330343260947, 240.75561470202524 379.5771047616031, 240.80164941935774 375.6086871752147" stroke="#000000" stroke-width="1.2" fill="none"></path></g><g><path d="M264.1092088350815 375.441569521174 C270.6512865245249 376.0997017630528, 276.9950179495507 375.3627738376905, 281.4068471635237 376.50937932488387 M264.2594650685919 376.2021287102291 C268.8799667402699 375.84072055370234, 274.4329111747321 375.88018280104626, 282.2945276219367 375.62159582805964 M281.4604697119858 375.5642628965882 C281.6476972694502 380.65393261535695, 282.2331685700647 386.1574270693124, 281.8568048484787 391.5638643660899 M281.6497312755803 376.3893008828746 C281.6152878237964 381.8919673589096, 282.25300227300374 388.30985579436026, 282.3491057019091 392.1607900287335 M281.7298982121693 391.4467452415382 C276.1161873182668 392.6797498836021, 270.3464181855474 392.41945046073704, 263.77826012307116 391.63258512388 M281.8825112833787 391.5882678147111 C274.8630992384175 391.8522921342251, 268.2899991965696 391.78635783289644, 264.3798245364881 391.6325704641149 M264.75955486742805 392.18940002223377 C263.5168548709456 387.3216973444483, 263.20327913190187 381.63598596529863, 263.97428643265545 376.23103198481977 M263.6445446292691 391.86885144177734 C263.57597577387156 385.94155588086016, 264.2097903133802 380.0332698439309, 264.22984592672714 376.13854907521795" stroke="#000000" stroke-width="1.2" fill="none"></path></g><g><path d="M501.45705541310735 218.90224047557282 C521.2856608368681 218.8193892468239, 542.2864559400585 221.0981940158391, 601.2123582180777 221.59476930231182 M499.21690098407703 220.74617905590685 C525.6108809697153 218.98989637123248, 553.1145424358293 220.28212188734216, 599.3495513848914 219.78953013415637 M601.5231480032461 219.09117991914488 C601.666630406134 263.1681173385907, 601.2737717788602 307.48163169132425, 599.0339605219679 399.774772493764 M600.4635464731167 219.88426958565543 C600.1093211642423 256.2184099564207, 600.0799652883202 294.2457680214015, 599.4446168333776 400.1543526238763 M598.5763384892575 400.17963604318084 C565.3339221123149 398.2253917456078, 530.7449503701434 400.25828791948487, 500.79521606394985 400.08662017375 M600.0275466562875 399.23636295906374 C565.8315560316391 400.80982031015486, 532.3399441638893 399.826742827294, 500.0334991816954 400.18527753464673 M499.21428343041146 398.57427072563473 C500.17589740326787 358.32033058180417, 499.2019514872846 314.71083698247935, 499.320524134816 218.55447616467487 M500.11651601257216 399.4348941719794 C498.50547113487346 352.1912283553435, 499.46342402934994 306.0530923260258, 500.0467331970016 220.5570901528082" stroke="#DAA520" stroke-width="2.8" fill="none"></path></g><g><path d="M508.14101056141175 232.8809253572988 L591.4941319612378 230.96776392857697 L592.8307781384523 387.28698633996055 L506.93978232649533 388.00986748273556" stroke="none" stroke-width="0" fill="#FDF6E3"></path><path d="M507.8548757191471 230.97422677423168 C535.0259895487853 233.61937188621613, 563.3904779160885 231.32506948533654, 592.9770653744349 232.90410184525334 M508.3771268174323 232.49211658428393 C526.6671136467586 232.80650629896834, 545.7474398755256 232.31030390962187, 592.4413191543207 232.03056951432143 M591.010636237945 233.11869885041682 C591.7933089895004 278.85940246795855, 592.2803841470613 325.42269954787827, 590.9192017852478 388.02039950008674 M592.5687014263949 231.43000503478962 C592.1696356898802 280.2132488160829, 592.0127320887034 327.54856683788165, 592.3403103476059 388.21267583979994 M592.5414084453555 387.0202824287585 C560.4601076856504 387.8883713161428, 527.5469169598863 387.4726879153561, 507.45189607832987 387.5049709638455 M591.6772277175783 388.1132342911087 C569.9859433970523 388.9995185801927, 547.8060994292532 388.0152824062195, 508.34481467069037 388.3011395984586 M507.81063860810843 388.40005011342527 C507.08129571988553 344.2031788403917, 507.8638008084497 297.26158558868264, 507.69392061119635 232.04742347109192 M508.0254953073998 388.036536168663 C508.7847789902607 354.9370722233684, 508.7396029087914 321.8113388995514, 507.6526633086081 231.8896291378222" stroke="#DAA520" stroke-width="1.4" fill="none"></path></g><g><path d="M362.9906949586297 238.6922434640012 C362.9906949586297 238.6922434640012, 362.9906949586297 238.6922434640012, 362.9906949586297 238.6922434640012 M362.9906949586297 238.6922434640012 C362.9906949586297 238.6922434640012, 362.9906949586297 238.6922434640012, 362.9906949586297 238.6922434640012 M360.3161149086364 255.66967563279277 C365.62681683562346 248.40558806531686, 370.87399144878395 241.16598890806068, 375.8242898430408 237.36915717993986 M357.5593495074671 256.4548488850089 C365.555402275139 248.71189967016278, 370.3907305481673 240.79906416157036, 373.6441987091828 237.97427054067575 M365.87516975607616 263.0673987957657 C367.2771670036415 258.17675014527356, 371.2820701873675 252.27583182750303, 380.2887532968982 243.0526474233353 M364.0376961421897 261.2359888711643 C367.9389558633725 256.7625903055981, 372.05783446536526 251.82324537924424, 380.2926736495028 242.3442597120288 M373.5535673610078 264.4689415734219 C376.3104865625945 259.58749273638807, 380.8534321504403 254.1386377360491, 388.795473261338 248.0709361568253 M372.2069541498823 264.893369777914 C376.9924264560298 258.62596497391854, 380.21280660953437 255.31165554004804, 386.2942926694057 248.50354335070696" stroke="none" stroke-width="1" fill="none"></path><path d="M373.1884553366112 237.20794648483258 C375.9477344705186 237.7414781091824, 379.5008455809879 240.6687049275667, 381.38306388687073 242.96816269373193 C383.26528219275355 245.26762045989716, 384.7098100011582 248.33342727411687, 384.48176517190814 251.00469308182394 C384.2537203426581 253.67595888953102, 382.06428404185596 256.90870126989444, 380.0147949113703 258.99575753997436 C377.96530578088465 261.0828138100543, 375.1061277597661 263.2098456601756, 372.1848303889941 263.5270307023034 C369.2635330182221 263.84421574443127, 364.9268797607775 262.36346945429426, 362.48701068673824 260.8988677927414 C360.04714161269897 259.4342661311885, 358.2685855001446 257.4608122178972, 357.54561594475825 254.7394207329862 C356.8226463893719 252.01802924807515, 357.2493313254785 247.23624679832832, 358.1491933544201 244.57051888327524 C359.0490553833617 241.90479096822216, 360.11318269443734 239.91457820076835, 362.94478811840787 238.74505324266775 C365.7763935423784 237.57552828456716, 373.0446488104958 237.61779859233556, 375.13882589824334 237.55336913467175 C377.2330029859909 237.48893967700795, 375.81084344345066 238.3213489116099, 375.5098506448932 238.35847649668494 M373.3480142618629 237.2901239816095 C376.2418957669055 237.82347797289705, 381.0336454062476 239.7080928729418, 382.67472936094293 242.00151203941365 C384.31581331563825 244.29493120588552, 383.72375408954906 247.80977057232394, 383.19451799003485 251.05063898044065 C382.66528189052065 254.29150738855736, 381.85242893271504 259.6243364471015, 379.4993127638575 261.4467224881139 C377.146196595 263.2691085291263, 372.08080347631915 262.3485955925866, 369.0758209768899 261.98495522651524 C366.0708384774606 261.6213148604439, 363.49486683098564 260.98280587865816, 361.46941776728175 259.2648802916857 C359.44396870357787 257.54695470471324, 357.45263766346983 254.11475396331457, 356.92312659466654 251.6774017046805 C356.39361552586325 249.24004944604644, 356.84145484786177 247.08242809328084, 358.2923513544621 244.64076673988131 C359.7432478610624 242.1991053864818, 362.7068408661477 238.44022200633728, 365.62850563426855 237.02743358428333 C368.5501704023894 235.61464516222938, 374.2095976050968 236.0831901787998, 375.8223399631872 236.16403620755756 C377.43508232127755 236.2448822363153, 375.3462982286147 236.8672044150112, 375.3049597828107 237.51250975682981" stroke="#000000" stroke-width="2" fill="none"></path></g><g><path d="M369.78181038137365 264.4812820575027 C371.35631702862406 276.3305714760239, 368.37050337996703 288.72411648168446, 369.9299320802039 321.40735065106094 M370.57106306109375 264.3844576518063 C370.0133735633744 285.930582182153, 369.3919693499318 307.2718090538184, 370.8943990243668 320.90568027371063" stroke="#000000" stroke-width="2" fill="none"></path></g><g><path d="M369.8986277358889 318.73286911568954 C367.20255388626805 329.3780246113801, 365.0038587065109 341.4965742368187, 357.6929156847486 360.8914559316363 M369.4858980520974 320.3035353919765 C366.4743020081059 333.350187073154, 361.6129519509827 343.9816373611664, 358.43827898581566 360.3856141708323" stroke="#000000" stroke-width="2" fill="none"></path></g><g><path d="M368.8193846343407 318.1882088517636 C372.78993862279754 332.3496777993752, 377.1731398841106 348.83719499806926, 380.6489637075673 361.49593432139415 M370.16817485459245 320.30151918280745 C375.7584478746923 335.50600287149695, 379.9485492375643 351.665841945633, 382.0606347444644 360.70372698155546" stroke="#000000" stroke-width="2" fill="none"></path></g><g><path d="M368.29279707682537 285.7973900911237 C352.1535150555634 286.820300356297, 330.1284698023899 290.2729382649734, 309.86688525260007 290.407936494785 M369.53607660529445 284.7838504453985 C353.0107972111358 286.79939306169126, 334.96054975977654 287.91183386774196, 309.1759341534628 289.3381704972479" stroke="#000000" stroke-width="2" fill="none"></path></g><g><path d="M368.05938451039856 285.3209709291884 C355.18175659524763 292.26829279844526, 341.98093366064904 298.06492245760535, 316.8625035711994 310.15462532656454 M369.9183981919232 284.8946785905542 C359.06879989901233 289.7304216091582, 346.8205161934156 295.51252349748506, 315.1637082985766 309.3509558453982" stroke="#000000" stroke-width="2" fill="none"></path></g><g><path d="M310.68620820856734 299.78910756783176 C306.44240478058384 298.985708583763, 301.2208429223812 299.1799054161534, 299.4601095898624 300.16111151043197 M309.46494151119873 299.56950130020044 C306.65358162503185 299.79987208173463, 303.06721079665147 300.3494860796199, 299.88562456075476 299.5396689030996" stroke="#000000" stroke-width="1.8" fill="none"></path></g><g><path d="M399.23200235516555 300.56775904309103 C403.18500346103656 299.48161741289556, 407.29155665269406 300.0348089350503, 409.686915544591 300.4713815610046 M399.6561644924686 299.8192309068408 C403.291830888521 299.6108255664825, 407.1483950222678 300.1261229556254, 410.1853610702112 300.2175440535726" stroke="#DAA520" stroke-width="1.8" fill="none"></path></g><g><path d="M419.2724291833175 300.49349361167725 C422.63190504694967 300.0331294965835, 424.28814705461764 299.5089555694156, 429.5421164943701 300.5871956172565 M419.9750629046753 299.8299444083204 C423.01449617992495 300.35451616468646, 427.0099987607331 300.3309222664712, 429.6096282821857 300.35126277696713" stroke="#DAA520" stroke-width="1.8" fill="none"></path></g><g><path d="M440.40101104070743 300.534419017285 C442.52458423156935 300.40900285928086, 446.56845118422393 300.18793722162224, 449.76022482400043 299.9103300681958 M440.26996071451276 299.7948920541436 C442.751737181352 299.9766602111222, 445.71910437985315 299.8133729954969, 450.22101866836715 299.7573036043236" stroke="#DAA520" stroke-width="1.8" fill="none"></path></g><g><path d="M459.60144843863907 299.9139388627703 C461.9471184839027 299.2582379347463, 465.18687857353217 299.6050866442411, 469.50904163219445 299.90075845717746 M460.3889989222618 300.2750877645123 C463.365348191795 299.92315093410735, 466.63392369411406 300.02082869536395, 469.6730283703922 300.2688976615542" stroke="#DAA520" stroke-width="1.8" fill="none"></path></g><g><path d="M480.3226945712946 299.3318600256022 C483.48447796128494 300.5609854289341, 487.22391933700874 300.3490768597519, 490.51752704834746 299.7191194431841 M479.888811350132 300.05037931476676 C482.7046496658883 300.0407308896251, 485.1209903863135 300.07480486930257, 489.9879475865574 299.6112966460498" stroke="#DAA520" stroke-width="1.8" fill="none"></path></g><g><path d="M100.46638618272316 439.6414499078104 C300.0000610506341 439.3023186189407, 499.10016268964176 440.18403636326786, 700.1716575403161 439.9694442901276 M99.9919990366492 439.7730629394817 C223.4780857382683 437.4832947202061, 346.85855240545686 438.1767979999012, 700.1319315069785 439.5508670136936" stroke="#000000" stroke-width="2" fill="none"></path></g><text x="400" y="560" text-anchor="middle" font-family="sans-serif" font-size="16" fill="#222" font-style="italic">"We didn’t do anything wrong — but somehow, we lost."</text></svg>