<?xml version="1.0" encoding="UTF-8"?>
<svg width="800" height="600" viewBox="0 0 800 600" xmlns="http://www.w3.org/2000/svg"><rect width="800" height="600" fill="#FFFFFF"></rect><g><path d="M99.2117290896585 398.9213137774155 C332.29865222619117 398.20938144320286, 563.3692823540438 398.39137638076215, 701.0883854486527 399.6414669037279 M99.57671004455739 399.8617321993466 C232.91305249767453 399.3609154193974, 366.19838117206274 399.41948313253783, 699.5553225855024 400.171116786919" stroke="#000000" stroke-width="2.2" fill="none"></path></g><g><path d="M242.2687670033344 306.0019616642025 C242.2687670033344 306.0019616642025, 242.2687670033344 306.0019616642025, 242.2687670033344 306.0019616642025 M242.2687670033344 306.0019616642025 C242.2687670033344 306.0019616642025, 242.2687670033344 306.0019616642025, 242.2687670033344 306.0019616642025 M243.34147038605246 317.014763553666 C244.80253279591835 313.1198325647178, 250.75367691738617 309.8436923478462, 253.82092273914648 301.644174503888 M241.99061270137398 318.3607011566139 C246.1350114045055 314.03072569637857, 249.28040635724813 310.34461908187717, 255.49587934993232 302.1362912285775 M250.7487496031261 322.8992490650116 C253.5422883511946 317.292706753834, 255.95870782423899 313.9669757254957, 258.8732415613453 310.6365976143347 M249.11854385622527 321.38347069600024 C252.5257765714784 318.2059602692828, 255.46461483289653 314.8198236993252, 258.368368711425 311.6090974044637" stroke="none" stroke-width="1" fill="none"></path><path d="M247.97709402459043 303.2785870915098 C249.95522149233557 302.5271889092741, 252.89357734454344 301.3848269457921, 254.69402696537696 302.22398699708634 C256.49447658621045 303.0631470483806, 258.0318257160485 306.256755866748, 258.7797917495915 308.3135473992752 C259.52775778313446 310.3703389318024, 259.74238599856244 312.5358943588503, 259.18182316663484 314.56473619224937 C258.62126033470724 316.5935780256484, 256.9813165601723 319.314823721461, 255.41641475802578 320.4865983996694 C253.8515129558793 321.6583730778778, 251.87625578966964 321.6726393033414, 249.7924123537559 321.59538426149976 C247.70856891784217 321.51812921965814, 244.50142958993825 321.4025068923869, 242.9133541425434 320.02306814861976 C241.32527869514854 318.6436294048526, 240.352883381403 315.67689329745133, 240.26395966938668 313.318751798897 C240.17503595737037 310.96061030034264, 240.6723739919021 307.6978243759898, 242.3798118704455 305.8742191572938 C244.0872497489889 304.0506139385978, 248.905318503456 302.8404406437396, 250.50858694064704 302.37712048672097 C252.11185537783808 301.9138003297023, 252.15362424415596 302.89645815845654, 251.9994224935918 303.0942982151819 M246.89187820432878 302.7786940510571 C249.14711791836348 301.85734309996735, 252.69362068424277 302.1876465039737, 254.8444909262644 303.06173982125733 C256.995361168286 303.93583313854094, 259.0334337051094 305.97188413895583, 259.79709965645856 308.02325395475884 C260.5607656078077 310.07462377056186, 260.1435134219337 313.31789465072063, 259.4264866343591 315.3699587160754 C258.7094598467845 317.4220227814302, 257.18207501705984 319.41964201133965, 255.49493893101123 320.33563834688766 C253.8078028449626 321.2516346824357, 251.54565835900004 321.05340884928324, 249.30367011806732 320.86593672936345 C247.0616818771346 320.67846460944367, 243.511457554347 320.4197851833835, 242.04300948541487 319.210805627369 C240.57456141648274 318.00182607135446, 240.58227495664502 315.64221479839387, 240.49298170447454 313.6120593932764 C240.40368845230407 311.58190398815896, 240.3506842275902 308.73842880519874, 241.50724997239195 307.0298731966641 C242.6638157171937 305.32131758812943, 246.67359331392274 303.9966877236461, 247.43237617328504 303.3607257420684 C248.19115903264733 302.72476376049065, 246.07772012501053 303.0721345751518, 246.05994712856577 303.2141013071975" stroke="#000000" stroke-width="2" fill="none"></path></g><g><path d="M248.70948324501455 331.62675634004574 C251.12111636215963 345.4456881343749, 252.85843919303372 358.50866002432616, 255.55845028850294 364.6881043338645 M249.33925765006416 332.01523371864505 C252.87492688070736 345.5492111292551, 253.031599314464 358.3484408034001, 254.8085257894663 365.6007604643056" stroke="#000000" stroke-width="2" fill="none"></path></g><g><path d="M255.97709771346422 365.24866609287574 C250.31706265980276 369.7372687813851, 248.98794396235076 377.570648461175, 241.663576086751 395.39143122300055 M254.51292444975422 364.92257741142305 C250.59898888748904 374.86448748714713, 244.86640415807295 387.58647781986895, 241.7095848185039 395.8520768482847" stroke="#000000" stroke-width="2" fill="none"></path></g><g><path d="M254.73406846751575 366.0104684078937 C259.3472302358034 376.50791774628465, 264.0516455653043 390.0686001567745, 266.7208931225356 395.3646158767994 M255.4338354334586 365.79610281316394 C258.22096389682133 371.9125055655552, 260.9915371374058 379.6221750260795, 267.89822366231397 395.940674469216" stroke="#000000" stroke-width="2" fill="none"></path></g><g><path d="M248.05435487435605 341.74949043673536 C258.6972523880791 338.5443665266748, 270.1854041764817 340.27248413096873, 289.3872392343202 333.08288412524945 M250.141497462786 342.85266141714254 C263.05238276939986 340.77673953449016, 274.42799498519196 338.6152117727586, 289.5854970303813 335.7577301296958" stroke="#000000" stroke-width="2" fill="none"></path></g><g><path d="M541.5997583650199 307.8288889692809 C541.5997583650199 307.8288889692809, 541.5997583650199 307.8288889692809, 541.5997583650199 307.8288889692809 M541.5997583650199 307.8288889692809 C541.5997583650199 307.8288889692809, 541.5997583650199 307.8288889692809, 541.5997583650199 307.8288889692809 M541.0682938870784 317.9659999471294 C545.4130282253475 313.57370019972615, 549.2379177214344 309.01415040738027, 557.7929373500127 304.44180091117033 M543.5633844413136 318.99346696561537 C545.7897423765078 314.77917020099943, 550.4578623469932 310.18274075265185, 556.7606507637594 302.77439967316275 M549.2468209113819 322.5124358805573 C551.1575621908014 321.7183438870671, 556.0246214292541 317.7414560064554, 557.4826898805846 312.1667615058146 M548.7707006026947 324.1683514428779 C553.1838261340288 319.009265099964, 555.7790581231066 315.88468787545, 559.1201852541847 312.77499897062097" stroke="none" stroke-width="1" fill="none"></path><path d="M553.8616590537086 301.283705433827 C555.8151064104618 301.75237791879624, 556.8600370755912 303.7758318923716, 557.7456047387949 305.82619219703025 C558.6311724019986 307.8765525016889, 559.5175905132555 311.09639822807026, 559.1750650329304 313.58586726177873 C558.8325395526053 316.0753362954872, 557.3364966898432 319.14623709535164, 555.6904518568446 320.76300639928127 C554.0444070238459 322.3797757032109, 551.1795839523287 323.31403111812506, 549.2987960349384 323.2864830853564 C547.4180081175481 323.25893505258773, 545.8576576003508 322.19344164864964, 544.4057243525027 320.59771820266917 C542.9537911046547 319.0019947566887, 541.011798102994 315.8898148376335, 540.5871965478502 313.7121424094736 C540.1625949927064 311.5344699813137, 540.7488572865506 309.3046541448587, 541.8581150216398 307.53168363371 C542.9673727567291 305.75871312256123, 544.9971360637662 303.82438573321724, 547.2427429583857 303.074319342581 C549.4883498530053 302.3242529519448, 554.0429218356107 302.7754802866231, 555.3317563893571 303.03128528989254 C556.6205909431035 303.28709029316195, 555.2232253304037 304.56271384568606, 554.975750280864 304.60914936219757 M552.8740027939847 303.2862273875967 C555.1222111849188 304.0226160978398, 558.99933494937 304.0684201593823, 560.2035038253068 306.1622361664763 C561.4076727012437 308.2560521735703, 560.8598330116781 313.2677654650731, 560.0990160496053 315.8491234301606 C559.3381990875325 318.4304813952481, 557.2689095066545 320.7395445573184, 555.63860205287 321.6503839570011 C554.0082945990856 322.5612233566838, 552.291626135742 321.6986126505468, 550.3171713268988 321.31415982825683 C548.3427165180556 320.92970700596686, 545.3919168752524 320.8255849666338, 543.7918731998104 319.34366702326145 C542.1918295243685 317.8617490798891, 540.9913347404699 314.6922557448824, 540.716909274247 312.42265216802275 C540.442483808024 310.1530485911631, 541.189689984979 307.65973398269466, 542.1453204024726 305.7260455621034 C543.1009508199662 303.7923571415122, 544.4044524192471 301.12055772278643, 546.4506917792086 300.82052164447526 C548.49693113917 300.5204855661641, 553.1525682761569 303.5135511624921, 554.4227565622413 303.9258290922366 C555.6929448483256 304.3381070219811, 554.3950605633765 303.1852761099982, 554.0718214957149 303.2941892229424" stroke="#000000" stroke-width="2" fill="none"></path></g><g><path d="M550.9173020848544 331.23208822655755 C550.5032165343636 340.06377591670037, 549.2738067506111 348.26208754191947, 543.2623084338302 364.85687692644706 M550.6594306739165 332.5265511728743 C549.3818684681813 339.43934805204634, 547.7102967899376 345.89435810180436, 545.9542148843517 364.8640834053663" stroke="#000000" stroke-width="2" fill="none"></path></g><g><path d="M545.9076572325674 366.0985091433949 C540.4271907506134 377.02079155655946, 534.3874167718366 388.95185468683445, 531.286432617975 393.3913973099651 M544.5245556739948 365.71004283515657 C540.747925674369 373.63658632051494, 537.4769079325167 382.9907268684529, 531.7678128212214 395.81226213719026" stroke="#000000" stroke-width="2" fill="none"></path></g><g><path d="M545.6312520596789 365.1231308302937 C550.9003631019812 372.7883791707002, 551.9214285173281 382.91266570723906, 559.4902330918125 395.3762373435596 M545.1245498518158 365.57974446514714 C548.7734260322744 371.42636605223424, 551.4823144582556 377.54809542661405, 558.9043651424385 395.1444380396903" stroke="#000000" stroke-width="2" fill="none"></path></g><g><path d="M550.5187045182762 342.89454396382524 C539.3838870111734 341.94812286078053, 530.5311288166287 337.7811925684519, 511.3435453320477 333.9740613559588 M549.2089648079103 341.8901752067147 C534.2662612957384 338.46943913735925, 518.694337018302 336.06680826794667, 510.50774779640676 335.7045871112928" stroke="#000000" stroke-width="2" fill="none"></path></g><g><path d="M396.73565081866485 332.95192273541545 C396.73565081866485 332.95192273541545, 396.73565081866485 332.95192273541545, 396.73565081866485 332.95192273541545 M396.73565081866485 332.95192273541545 C396.73565081866485 332.95192273541545, 396.73565081866485 332.95192273541545, 396.73565081866485 332.95192273541545 M401.4036928452062 342.65534666490936 C402.8435664364501 340.2375432009549, 405.2192442033402 338.8518535227431, 405.79371357415397 338.3958893804726 M401.8413600981471 342.604466515115 C403.244892403175 340.6971380275901, 404.65630873036196 339.0736982508935, 405.7493671713764 338.2407571253947" stroke="none" stroke-width="1.2" fill="none"></path><path d="M400.6745295273342 332.43226247799 C401.6292320795826 332.4722486438892, 402.9923623949479 333.18101064130553, 403.7288016823192 333.9987340699448 C404.4652409696905 334.8164574985841, 404.9878303708988 336.362663182616, 405.0931652515618 337.33860304982556 C405.1985001322248 338.3145429170351, 404.9782476727821 339.0104882010521, 404.3608109662971 339.8543732732022 C403.7433742598121 340.6982583453523, 402.5332349408667 342.0119923870752, 401.3885450126515 342.40191348272634 C400.2438550844363 342.79183457837746, 398.4872933076417 342.7036559624588, 397.4926713970058 342.1938998471089 C396.49804948636984 341.68414373175904, 395.7164065110001 340.4781047924625, 395.42081354883584 339.34337679062685 C395.12522058667156 338.2086487887912, 395.44634362746285 336.51246895579965, 395.7191136240201 335.3855318360952 C395.99188362057737 334.25859471639075, 396.09778542688707 333.13302125694065, 397.05743352817944 332.5817540724001 C398.0170816294718 332.0304868878595, 400.73569521144634 332.2472283212146, 401.47700223177424 332.0779287288519 C402.21830925210213 331.90862913648914, 401.5590830129617 331.37158026608626, 401.50527565014664 331.5659565182236 M398.34453878256835 332.7756067001233 C399.1624812432035 332.7392950878983, 400.75279082534655 332.91140036054924, 401.7136069983526 333.41975775534706 C402.6744231713586 333.9281151501449, 403.588869357156 334.7708801380209, 404.10943582060463 335.82575106891034 C404.63000228405326 336.88062199979976, 404.95297474908455 338.9833912325805, 404.8370057790443 339.74898334068365 C404.7210368090041 340.5145754487868, 404.5285117176136 340.03513325522385, 403.41362200036315 340.4193037175292 C402.2987322831127 340.80347417983455, 399.30244048667396 341.88619757853553, 398.14766747554154 342.05400611451586 C396.9928944644091 342.2218146504962, 397.1987175558726 342.0577105831315, 396.4849839335687 341.4261549334113 C395.7712503112648 340.79459928369107, 394.0262750979448 339.64934868104905, 393.8652657417183 338.26467221619447 C393.7042563854918 336.8799957513399, 394.56889416285196 334.00953754842135, 395.51892779620965 333.11809614428375 C396.46896142956734 332.22665474014616, 398.7903012898753 333.1819417675604, 399.5654675418643 332.9160237913689 C400.34063379385327 332.6501058151774, 400.050376297719 331.4119153416666, 400.16992530814355 331.522588287135" stroke="#DAA520" stroke-width="2.4" fill="none"></path></g><g><path d="M221.28410951280412 261.1521686642251 C229.19298389887874 261.2271919671901, 236.19686775634517 261.27901346580654, 255.5738180429247 260.3098309451329 M220.27536927879558 259.3122150449931 C231.55844785375768 259.6351417853029, 242.54372068957488 260.2723820736753, 254.82180215151368 259.7453908608068 M254.98988312883682 260.45425421606535 C254.66571499262363 267.4179628998555, 253.81540633696764 274.9027393524471, 253.77250903893605 284.62934716177085 M255.03543683517833 259.29763302777695 C255.25115158584748 269.57968215559134, 255.16236807093654 279.05780726852527, 255.62045264580664 284.57233430537286 M254.2529725056828 283.50726959064616 C240.61015356167204 284.21032686136056, 227.62106146935588 285.50161766946314, 220.32933788842945 284.1539308057213 M255.19693497364668 285.54174157904373 C244.00651056939742 284.7004915242019, 232.49953848012538 284.84370646059375, 220.61579533157234 285.0742914844519 M221.44532668115798 285.0995442979828 C218.93986065925944 276.1054291996268, 220.20557322463208 265.2091181241436, 219.59528906820302 258.9768858948825 M219.38351128430574 285.4987951000582 C219.39994940350772 278.0639890073975, 219.43346729804125 269.9751206504507, 219.40912396504203 260.37932688754427" stroke="#000000" stroke-width="1.2" fill="none"></path></g><g><path d="M225.1857769526287 268.22994841151166 C233.26677666414392 269.00470329611124, 240.16162308966534 267.5480861501109, 245.57890623638295 267.61781785464177 M225.0479212414324 267.85898369654444 C230.86802531219868 267.965550296832, 236.4622594296849 268.4575302497118, 244.55509089493006 268.23687246563173" stroke="#000000" stroke-width="0.8" fill="none"></path></g><g><path d="M224.14528597200626 274.6118329415451 C231.31464716768562 274.2172844256806, 235.7232271927258 274.2236228384238, 239.53406672390156 274.49830438685444 M225.3712188995768 275.1854889105555 C228.88330519965197 274.89490375787443, 232.47353627611668 274.6688608539444, 240.24305399498488 274.7061634101715" stroke="#000000" stroke-width="0.8" fill="none"></path></g><text x="400" y="560" text-anchor="middle" font-family="sans-serif" font-size="16" fill="#222" font-style="italic">"I never wanted him to have less. I wanted myself to have more."</text></svg>