<?xml version="1.0" encoding="UTF-8"?>
<svg width="800" height="600" viewBox="0 0 800 600" xmlns="http://www.w3.org/2000/svg"><rect width="800" height="600" fill="#FFFFFF"></rect><g><path d="M98.91837475007083 420.5866134589767 C224.63553203019225 422.39337273379294, 347.31971424025505 423.4978067271466, 699.4984327688578 420.45984660510624 M99.77143556184443 419.6707147247355 C326.3444990964664 417.5358512478354, 551.3701900569009 417.4320784994636, 699.4849593881668 419.72036016650577" stroke="#000000" stroke-width="2" fill="none"></path></g><g><path d="M325.3890694759528 243.1060129253442 C325.3890694759528 243.1060129253442, 325.3890694759528 243.1060129253442, 325.3890694759528 243.1060129253442 M325.3890694759528 243.1060129253442 C325.3890694759528 243.1060129253442, 325.3890694759528 243.1060129253442, 325.3890694759528 243.1060129253442 M327.5306326183265 249.9840698627471 C329.41606231003266 247.53336992009284, 332.26382847768264 245.03671438455845, 334.4169038360565 241.92031301658005 M327.2146974918554 249.82417954127757 C329.4456891139755 247.4648316944541, 331.8964013948011 244.31386855830206, 334.7208515987954 241.70073345419195" stroke="none" stroke-width="0.7" fill="none"></path><path d="M328.9498694810699 240.73451403361344 C330.24104875595395 240.56710278296015, 332.2478871478651 240.13567872080412, 333.3578985693351 240.79503104911146 C334.4679099908051 241.4543833774188, 335.1986310530164 243.3575076896832, 335.60993800988996 244.69062800345745 C336.0212449667635 246.0237483172317, 336.3424158933284 247.67530982074757, 335.8257403105763 248.79375293175704 C335.3090647278242 249.9121960427665, 333.6337741372156 250.7894840883345, 332.5098845133775 251.40128666951423 C331.38599488953935 252.01308925069398, 330.17211237752167 252.8129871657327, 329.0824025675476 252.46456841883546 C327.99269275757354 252.11614967193822, 326.7113889697393 250.4189786505113, 325.9716256535332 249.31077418813078 C325.2318623373271 248.20256972575027, 324.70225048966347 246.8939473745508, 324.64382267031095 245.81534164455235 C324.58539485095844 244.7367359145539, 324.814217199112 243.8126358960733, 325.621058737418 242.8391398081401 C326.427900275724 241.8656437202069, 328.73362239615614 240.38208278029464, 329.4848719001469 239.9743651169532 C330.2361214041377 239.56664745361178, 330.18576938238255 240.36910083579843, 330.12855576136263 240.3928338280915 M328.6672236278797 240.0045088246458 C329.623593238519 239.6608000386453, 330.7591192451406 239.37676182910843, 332.0902017114386 239.8852724465707 C333.42128417773665 240.39378306403296, 336.1613904709328 241.6342368256332, 336.6537184256678 243.05557252941935 C337.1460463804028 244.4769082332055, 335.72191415121813 247.2023086376198, 335.0441694398485 248.4132866692877 C334.3664247284788 249.62426470095556, 333.4707912201384 249.59542964841802, 332.5872501574498 250.32144071942665 C331.70370909476117 251.04745179043528, 331.034298868995 252.75526950480105, 329.74292306371683 252.76935309533954 C328.45154725843867 252.78343668587803, 325.8966629736891 251.39763786841655, 324.83899532578073 250.40594226265767 C323.78132767787235 249.4142466568988, 323.43713828956896 248.32243264895976, 323.3969171762666 246.81917946078624 C323.3566960629642 245.31592627261273, 323.4362655928293 242.54381055373563, 324.5976686459665 241.38642313361657 C325.75907169910374 240.22903571349752, 329.66940335362057 240.09476989209185, 330.3653354950901 239.87485494007203 C331.06126763655965 239.6549399880522, 328.7483517119741 239.86019608968098, 328.77326149478364 240.06693342149762" stroke="undefined" stroke-width="1.4" fill="none"></path></g><g><path d="M329.6100502684368 258.15679445170116 C328.7532170335336 263.2889831196393, 329.46061828671685 269.5090342447846, 328.99539010722316 278.06937127064367 M329.58524373355635 257.39912893341943 C329.0601196845394 264.2843251775899, 329.3613623246222 271.6153532575731, 329.7076512728635 277.64645819330065" stroke="undefined" stroke-width="1.2" fill="none"></path></g><g><path d="M465.8080195155178 241.94413555137794 C465.8080195155178 241.94413555137794, 465.8080195155178 241.94413555137794, 465.8080195155178 241.94413555137794 M465.8080195155178 241.94413555137794 C465.8080195155178 241.94413555137794, 465.8080195155178 241.94413555137794, 465.8080195155178 241.94413555137794 M466.2120197204784 250.39606209109647 C468.0767710307475 247.27742885624554, 470.54284426037344 245.62647396429514, 473.4798664534135 241.5527830735269 M466.6264247802381 250.09801114196114 C468.61706530670904 247.9032525542514, 470.97649678115 245.16873830472647, 473.5369922869221 241.98220111542744" stroke="none" stroke-width="0.7" fill="none"></path><path d="M470.8102597065594 240.9261049072419 C472.11087697391474 240.86413956677404, 474.51387953883136 240.93512324103455, 475.4083333919789 241.82302876614364 C476.3027872451264 242.71093429125273, 476.38852269863753 244.8769445292154, 476.1769828254447 246.25353805789652 C475.9654429522519 247.63013158657765, 474.9860418759321 249.15147421227238, 474.13909415282217 250.08258993823034 C473.29214642971226 251.0137056641883, 472.2367864372533 251.7016140394606, 471.09529648678523 251.84023241364434 C469.9538065363172 251.9788507878281, 468.54024939851115 251.4106855888678, 467.29015445001403 250.9143001833328 C466.0400595015169 250.41791477779782, 464.0225558653784 249.969403889752, 463.5947267958025 248.86191998043444 C463.1668977262266 247.75443607111688, 464.31966805361543 245.4621978946662, 464.72318003255856 244.26939672742745 C465.1266920115017 243.0765955601887, 464.83311265338756 242.35685859063338, 466.0157986694614 241.70511297700207 C467.1984846855352 241.05336736337077, 470.8695942986403 240.54623815558517, 471.81929612900143 240.35892304563967 C472.76899795936254 240.17160793569417, 471.8128215669624 240.5807475717208, 471.71400965162803 240.58122231732912 M468.02138419114823 239.71072003005304 C469.03647605283015 239.4817835117315, 470.44978625926484 240.3870228803494, 471.58956643938785 240.88723180470117 C472.72934661951086 241.38744072905294, 474.2648437507195 241.5166837242479, 474.8600652718863 242.7119735761636 C475.4552867930531 243.90726342807926, 475.3961083708973 246.75347289056228, 475.16089556638894 248.05897091619525 C474.9256827618806 249.36446894182822, 474.22937407551404 249.99750574229896, 473.44878844483605 250.54496172996144 C472.66820281415806 251.09241771762393, 471.8426347488935 251.3855231699856, 470.477381782321 251.3437068421702 C469.1121288157485 251.30189051435482, 466.3992970982783 250.9767542543063, 465.2572706454011 250.29406376306912 C464.1152441925239 249.61137327183195, 463.88532436852256 248.31135989568654, 463.6252230650579 247.24756389474717 C463.3651217615933 246.1837678938078, 463.08530010034684 245.20034010659896, 463.6966628246131 243.9112877574329 C464.30802554887936 242.62223540826682, 466.64973764513206 240.1193690163594, 467.2933994106555 239.51324979975084 C467.937061176179 238.90713058314228, 467.5450214057946 240.09016493220597, 467.55863341775375 240.27457245778146" stroke="undefined" stroke-width="1.4" fill="none"></path></g><g><path d="M471.03668526941584 256.5718244897448 C471.23971958801235 264.8733791217506, 470.17476122917077 270.33631161802435, 469.15473232116994 277.58763072448625 M470.04222482516207 258.523886991867 C470.7933195938433 264.8374833763702, 470.911717361229 271.5539137256521, 470.078288510448 277.26600919572326" stroke="undefined" stroke-width="1.2" fill="none"></path></g><g><path d="M304.1593382893727 313.42715971181696 C304.1593382893727 313.42715971181696, 304.1593382893727 313.42715971181696, 304.1593382893727 313.42715971181696 M304.1593382893727 313.42715971181696 C304.1593382893727 313.42715971181696, 304.1593382893727 313.42715971181696, 304.1593382893727 313.42715971181696 M306.6481304648759 319.3704283804834 C307.61554512845015 317.847210555128, 309.8136926772321 316.521653591416, 314.2547091482929 311.8493325313895 M306.3494400298063 319.7769553802268 C309.3585417380864 316.57494902219895, 311.934982943107 313.0352756865704, 313.59689355154893 311.6140648162277 M314.14881692947057 320.1786722283159 C315.2304480894712 318.7690731899739, 315.53886746181706 318.59121062406433, 318.0491930960777 316.13772520850677 M314.648704212613 319.9378517851408 C315.92292649741194 318.23446465101637, 317.1135467536482 316.86052911091724, 317.69551458715625 315.90787000123316" stroke="none" stroke-width="0.7" fill="none"></path><path d="M310.39389341500856 310.565290666583 C311.5897409795862 310.66585586788557, 313.6784103717483 310.9127415087431, 314.7632030639794 311.76463723098914 C315.8479957562105 312.61653295323515, 316.8882743034644 314.3822281115124, 316.9026495683952 315.67666500005924 C316.91702483332597 316.9711018886061, 315.7876936551492 318.51031116760004, 314.84945465356407 319.53125856227035 C313.9112156519789 320.55220595694067, 312.5886501190361 321.5940104640266, 311.2732155588843 321.80234936808125 C309.9577809987325 322.0106882721359, 307.9987470196426 321.3665999380921, 306.9568472926533 320.7812919865982 C305.914947565664 320.1959840351043, 305.5035622444774 319.49836708461754, 305.0218171969486 318.2905016591179 C304.54007214941976 317.0826362336183, 303.6785213615593 314.6430494817116, 304.0663770074805 313.53409943360055 C304.45423265340173 312.4251493854895, 306.02009428473866 312.07898893770755, 307.348951072476 311.63680137045145 C308.6778078602133 311.19461380319535, 311.30828408643555 311.1663861031202, 312.0395177339044 310.8809740300638 C312.77075138137326 310.59556195700736, 311.93900284673055 309.8719246012039, 311.736352957289 309.9243289321131 M311.2794833430507 311.04575951792975 C312.55772464955464 311.06911101593255, 312.9625742126929 310.5403735202888, 313.88934596774845 311.2931169801231 C314.816117722804 312.0458604399574, 316.6525212244126 314.3448323240919, 316.840113873384 315.5622202769354 C317.02770652235534 316.77960822977894, 316.0043825413378 317.417455119131, 315.0149018615766 318.59744469718424 C314.02542118181543 319.7774342752375, 312.03350753301606 322.1255267769289, 310.90322979481675 322.64215774525485 C309.77295205661744 323.1587887135808, 309.4167911072523 322.3654590386394, 308.23323543238064 321.6972305071399 C307.04967975750895 321.0290019756404, 304.6714687031825 319.6928680941895, 303.80189574558653 318.63278655625777 C302.9323227879906 317.572705018326, 302.68306715338963 316.70558211611103, 303.01579768680494 315.3367412795496 C303.34852822022026 313.96790044298814, 304.78313888757236 311.4087172612632, 305.79827894607854 310.4197415368889 C306.8134190045847 309.43076581251466, 308.17906502279254 309.3893232009218, 309.106638037842 309.40288693330416 C310.03421105289146 309.4164506656865, 311.1167579182111 310.0878767754477, 311.36371703637536 310.50112393118303" stroke="undefined" stroke-width="1.4" fill="none"></path></g><g><path d="M310.1171497796287 328.9117984240949 C309.1701362237474 334.84146974758727, 309.78270860707005 342.5518383217847, 310.9869185658454 349.4917306261789 M310.621327438001 327.72506120241945 C310.2602730781461 332.9582539883344, 309.8718627317726 338.7657102709521, 310.7794931951642 348.04049898734286" stroke="undefined" stroke-width="1.2" fill="none"></path></g><g><path d="M487.23313438543465 310.91919751124067 C487.23313438543465 310.91919751124067, 487.23313438543465 310.91919751124067, 487.23313438543465 310.91919751124067 M487.23313438543465 310.91919751124067 C487.23313438543465 310.91919751124067, 487.23313438543465 310.91919751124067, 487.23313438543465 310.91919751124067 M485.7994676997751 320.6337394499952 C487.91062370942325 318.319370638717, 489.25292163194763 316.61242701718305, 493.00288191286495 313.4563683177165 M486.7290253420208 320.5297994036614 C488.47913973208915 318.4224854300538, 490.61150490859313 316.3506733534928, 493.43496659651635 312.4326499411057 M494.3858210510552 321.1185589062851 C494.5921783140551 320.86789267113045, 494.7077850674789 320.643179546557, 494.95118378367033 320.2934340889116 M494.32866546023394 321.0483350774076 C494.498663874527 320.8256157975709, 494.75206160814207 320.60066090541045, 494.95147828312724 320.2643904745246" stroke="none" stroke-width="0.7" fill="none"></path><path d="M491.7780765991863 309.6011890044963 C492.7883182861465 309.9593536674512, 493.7077636606663 311.72858549678404, 494.3429171610641 312.8650939448566 C494.97807066146197 314.00160239292916, 495.5341019725473 315.079167208096, 495.5889976015735 316.42023969293166 C495.6438932305997 317.7613121777673, 495.50182436701823 319.97715970635846, 494.67229093522127 320.9115288538704 C493.8427575034243 321.8458980013823, 492.134217860494 322.07671389881995, 490.6117970107918 322.02645457800304 C489.0893761610896 321.97619525718613, 486.6065222796328 321.4714180478498, 485.53776583700807 320.60997292896894 C484.4690093943833 319.7485278100881, 484.2695791600587 318.001279412866, 484.1992583550434 316.8577838647179 C484.1289375500281 315.71428831656976, 484.5624854680299 314.79364757275766, 485.11584100691624 313.7489996400804 C485.6691965458026 312.70435170740313, 486.34803326084517 311.2365649274875, 487.5193915883615 310.5898962686541 C488.6907499158778 309.9432276098207, 491.3521187901535 309.82090220868884, 492.1439909720141 309.86898768708 C492.93586315387466 309.91707316547115, 492.39850560654224 310.81234911202307, 492.270624679525 310.878409139001 M489.8808926123832 309.83195781167194 C491.18639129500934 309.7119904584423, 493.19072029891987 310.46559060280987, 494.2357672518594 311.36925743887343 C495.2808142047989 312.272924274937, 496.0030389594135 314.1284115313455, 496.15117433002024 315.2539588280532 C496.29930970062696 316.37950612476095, 495.68080535176404 316.91083398187527, 495.1245794754998 318.12254121911985 C494.56835359923554 319.33424845636443, 494.0016666188596 321.90808269267956, 492.81381907243485 322.52420225152053 C491.6259715260101 323.1403218103615, 489.36383540990863 322.30101889526696, 487.99749419695144 321.8192585721658 C486.63115298399424 321.3374982490646, 485.4368576170664 320.51789378252397, 484.61577179469174 319.6336403129135 C483.7946859723171 318.749386843303, 482.74357346430156 317.7554937587326, 483.07097926270353 316.51373775450287 C483.3983850611055 315.27198175027314, 485.5272361342728 313.3675392826013, 486.58020658510344 312.18310428753506 C487.63317703593407 310.99866929246883, 489.0995297092953 309.87873359504067, 489.38880196768724 309.40712778410546 C489.67807422607916 308.93552197317024, 488.47934358825535 309.2610709950626, 488.31584013545506 309.35346942192376" stroke="undefined" stroke-width="1.4" fill="none"></path></g><g><path d="M489.23114483360064 329.0201027885385 C491.24816732224434 333.34573720072035, 489.62610197616755 339.24906578220777, 488.68291047447633 347.44445420979105 M490.3123440778088 327.98251033655214 C489.7191016062562 333.57828563483264, 490.08231445816625 338.8752144883958, 489.6832638778055 347.47591799432485" stroke="undefined" stroke-width="1.2" fill="none"></path></g><g><path d="M395.58404337197226 351.8260405550673 C395.58404337197226 351.8260405550673, 395.58404337197226 351.8260405550673, 395.58404337197226 351.8260405550673 M395.58404337197226 351.8260405550673 C395.58404337197226 351.8260405550673, 395.58404337197226 351.8260405550673, 395.58404337197226 351.8260405550673 M398.05950547101025 361.4477659774313 C399.04848323955304 359.2155934362388, 400.34639732373284 357.82431159046456, 404.2410960370129 353.3625512826 M398.5931395076726 360.9371982475192 C401.11332054387 357.58630526752876, 403.80108481482614 354.81876119860647, 405.1027114819794 353.2847560450542" stroke="none" stroke-width="1" fill="none"></path><path d="M399.51636935519304 350.26290710714704 C400.54545610319326 350.2069182451625, 401.85951369720783 350.84915789921905, 402.8286376254826 351.56852202041193 C403.79776155375737 352.2878861416048, 404.9931867182211 353.44794985850325, 405.33111292484165 354.5790918343044 C405.66903913146217 355.71023381010554, 405.309481402587 357.17994205666594, 404.85619486520574 358.3553738752187 C404.4029083278245 359.5308056937714, 403.6964413606842 361.1788747518974, 402.61139370055406 361.631682745621 C401.5263460404239 362.0844907393446, 399.4877578646172 361.4151711820456, 398.34590890442485 361.0722218375603 C397.2040599442325 360.729272493075, 396.3994108024828 360.51640603343293, 395.76029993939983 359.573986678709 C395.12118907631685 358.63156732398505, 394.5668319089445 356.67887650472125, 394.5112437259271 355.4177057092167 C394.4556555429097 354.15653491371216, 394.6080565723657 352.85414219955004, 395.42677084129537 352.00696190568175 C396.24548511022505 351.15978161181346, 398.4556567930391 350.7256603680808, 399.42352933950514 350.334623946007 C400.39140188597116 349.9435875239332, 401.03685603418154 349.5156525489532, 401.23400612009146 349.660743373239 M397.1661481359454 350.44324986818674 C398.5645498064165 349.77004187245853, 401.76286801023764 349.64211092357175, 403.0931997485728 350.0762604945026 C404.4235314869079 350.51041006543346, 404.55616561956526 351.7816599774059, 405.14813856595623 353.0481472937717 C405.7401115123472 354.3146346101375, 407.0395847140674 356.35681127585667, 406.64503742691875 357.6751843926974 C406.2504901397701 358.99355750953816, 404.1390119623519 360.2096065699229, 402.7808548430643 360.95838599481635 C401.42269772377665 361.7071654197098, 399.4415810435505 362.2323155727414, 398.4960947111928 362.16786094205787 C397.55060837883514 362.10340631137433, 397.7178887838394 361.4504370434782, 397.1079368489181 360.57165821071504 C396.4979849139968 359.6928793779519, 395.0073035531747 358.2456497815823, 394.83638310166504 356.89518794547905 C394.66546265015535 355.5447261093758, 395.427263963963 353.58876570625205, 396.08241413986 352.4688871940956 C396.737564315757 351.34900868193915, 398.194768086322 350.54586613314734, 398.7672841570471 350.17591687254037 C399.3398002277722 349.8059676119334, 399.48110129883673 349.97135029812364, 399.51751056421074 350.2491916304537" stroke="#4A90D9" stroke-width="2" fill="none"></path></g><g><path d="M399.22214140213606 367.3036723300838 C399.57528248623754 374.73594302115134, 400.08120350372565 378.9815815837855, 400.8473337609791 387.8588003848142 M400.0471380866171 368.3444627637237 C399.38324455450544 375.11272594286305, 400.391360075016 384.0409521323201, 399.4504894583909 388.050757435657" stroke="#4A90D9" stroke-width="1.8" fill="none"></path></g><g><path d="M346.2303205356256 235.11922898789547 C350.1613925240439 236.93106283321492, 356.25439976824356 237.0439266143168, 363.29094541847235 237.01575952987412 M345.698169212404 236.09936060037575 C350.43502273229336 235.95791910740414, 355.21542551556877 236.526730196376, 363.7178856438782 235.7455997697774 M364.06355895740415 236.3301371819161 C364.0066200700252 239.01628332529287, 363.45021842475586 241.33525565672673, 364.04152919826015 246.48374835046832 M363.8044713364931 236.19087569243507 C364.0839042249547 239.6363675602122, 363.6924168232289 244.03527761481732, 363.79588174607295 245.93944658069879 M363.3243055607472 245.67864537227317 C360.1202713119399 246.72363725482072, 355.15817679324743 245.51338844889793, 345.9906179363977 245.1485746987848 M364.18674033510854 246.48010338782245 C359.56197107910947 246.20184058915243, 355.3966620192917 245.63351672626632, 346.17048114279436 246.52041776661153 M346.0708129961467 245.8228415601493 C345.54322951986023 242.2334395669082, 345.96539624909815 238.06848622215503, 345.77686254223374 236.3304503444477 M346.282464715491 246.1025482458764 C345.92749544106675 243.0155756503455, 346.2336761035082 240.2422238888916, 346.2750198734478 235.94030596339817" stroke="#000000" stroke-width="0.8" fill="none"></path></g><g><path d="M486.9827123211093 235.76703025770072 C491.5447178446684 236.01077672973014, 496.82281817314737 235.80074602421186, 504.4191748238797 235.54183974011335 M485.95366541250763 236.15444146279174 C492.3898298315611 235.77813204305897, 499.12938680801483 235.894853277872, 504.1120626556883 236.2728682745201 M503.67121505426655 236.12391602892762 C503.47258044759275 239.85217256692826, 504.04167620461743 243.26487677235824, 503.82138281994366 246.18428067448664 M503.8550108989011 235.79988395957847 C504.14800128498854 239.51782328891034, 504.0368137906058 242.82848857263517, 503.71657812808525 246.02115137725113 M503.627547767341 246.84466429536755 C499.66726570649587 244.84729960596206, 495.8637547216562 245.4087396715392, 486.03692228000637 245.6178655392272 M504.4946588609525 245.8718378090094 C500.141387811979 246.34742907463152, 496.57976318362705 245.83553027832377, 486.14235772572164 245.68289929493693 M485.9167359545407 246.09505990895187 C485.96594282958944 243.01932190382487, 485.5440218874022 240.49039572477892, 485.51154786636346 235.67861459791908 M485.96304840133126 246.06454496297383 C485.9689000190027 243.7783423068616, 485.8644537118752 241.04767697536894, 485.8419969966146 235.80027988286318" stroke="#000000" stroke-width="0.8" fill="none"></path></g><g><path d="M325.0141667031934 305.0905709941246 C332.4783781891634 306.1445265923381, 340.5627412346668 305.5710555884882, 343.48228629593063 306.69433459116476 M325.9794153383912 305.49253342729105 C331.06280786777097 305.5888733168115, 334.6831042452184 305.9387911363355, 343.8813882205098 306.4869095038997 M344.1112601645521 305.91722359354696 C343.54181833553986 309.67461995233396, 344.55174138472694 312.33736890754864, 344.1091863009831 315.5080104325412 M344.27759414033807 305.9193877819899 C343.7693081832026 308.238508988542, 344.0994879224238 310.95109828043275, 343.79978053252347 315.89426165123257 M344.1600957980446 316.8963652456837 C338.44643115867456 315.2614601958044, 330.9543045688925 316.63882118071143, 325.4363931394111 316.3182713560367 M344.42410004430343 316.2660893455262 C339.2307569507286 316.1393705610181, 334.80384497185605 315.7864696458214, 326.52246817232617 315.95392013817406 M326.27730402001475 316.14890146349643 C325.78579119253385 312.7119648600254, 326.08982361163976 308.1838506640517, 325.72777944206615 305.98416860550486 M326.2602895016651 316.1406361883082 C325.78664219722805 313.1919679357071, 326.05898528996624 309.6604195751663, 326.2174161183181 306.20652680835957" stroke="#000000" stroke-width="0.8" fill="none"></path></g><g><path d="M506.8859484774116 305.35077047281624 C512.151885287661 306.74592843879384, 520.1142809242364 306.6193247569527, 524.6746033929207 306.96940536992184 M505.8750946725702 305.60586310214455 C509.55724461238594 306.1509558077211, 512.6964257930242 305.68402450158374, 524.4590984176507 305.59818678348927 M524.453263375018 306.01631299284196 C524.3124259580499 307.8880652252486, 523.767854983082 311.2959504699282, 523.7839249974023 316.57553962683437 M524.1585651200136 305.87527114639715 C523.7790538941681 309.52250742882586, 524.2026110059236 313.02594316981026, 523.9187160197346 316.04290075561346 M523.172350482686 315.65178105340107 C519.9397822176755 315.26312857039903, 516.1947585411766 316.4938317315631, 505.87965166486686 315.7348698747476 M523.774143399879 316.37820363077327 C518.3843004239998 316.3839274380874, 512.2630413993953 316.35049572364403, 506.1410323061342 316.09605349439846 M506.4992688035497 316.20413228024614 C505.5919370937901 313.32959663297106, 506.0566533887438 310.5700642600005, 506.3491945938023 305.94217450024433 M506.199766388226 316.1149645803912 C505.8943256211671 312.79343563696983, 505.9661060884484 309.3104111766223, 505.8917621819842 306.0724614220052" stroke="#000000" stroke-width="0.8" fill="none"></path></g><g><path d="M419.1173746246326 339.15792847592087 C419.1173746246326 339.15792847592087, 419.1173746246326 339.15792847592087, 419.1173746246326 339.15792847592087 M419.1173746246326 339.15792847592087 C419.1173746246326 339.15792847592087, 419.1173746246326 339.15792847592087, 419.1173746246326 339.15792847592087 M421.36839926821267 346.12140235556575 C422.6639444470767 344.0869682390521, 423.96517423748224 343.28084962358366, 425.8192948175883 340.768671713557 M420.92973705187353 346.0369963437885 C422.01497446597693 344.8593756584944, 423.2005492460726 343.5849116352167, 425.4503070557568 340.9281260573866" stroke="none" stroke-width="0.8" fill="none"></path><path d="M421.3179368339328 337.56270009363743 C422.0691575389645 337.47618864013543, 423.1228824846959 338.0792541454421, 423.9051101161071 338.75889336253346 C424.6873377475183 339.4385325796248, 425.67021561147294 340.7381246520967, 426.0113026223999 341.6405353961855 C426.3523896333269 342.5429461402743, 426.4412177695604 343.5524327466585, 425.95163218166874 344.1733578270662 C425.4620465937771 344.79428290747387, 424.0268311716315 345.05002159158437, 423.0737890950498 345.36608587863157 C422.1207470184681 345.68215016567876, 421.0449851098191 346.236979352865, 420.2333797221786 346.06974354934954 C419.4217743345381 345.9025077458341, 418.51770093678044 345.06171397109165, 418.20415676920663 344.36267105753876 C417.8906126016328 343.6636281439859, 418.17273778447674 342.77420322585823, 418.35211471673574 341.8754860680323 C418.53149164899474 340.9767689102063, 418.6771553210007 339.50443417699057, 419.28041836276066 338.97036811058314 C419.8836814045206 338.4363020441757, 421.46883578251857 338.7334266827906, 421.9716929672953 338.6710896695875 C422.4745501520721 338.6087526563844, 422.368647081628 338.6273911804168, 422.29756147142115 338.5963460313647 M421.633033187748 337.9279831045218 C422.3909966361655 337.9855476460046, 424.2824863415136 338.47760381701465, 424.99643641470317 338.99380783748325 C425.7103864878927 339.51001185795184, 425.7627842866655 340.21869527462167, 425.91673362688516 341.0252072273334 C426.0706829671048 341.8317191800451, 426.4473835696881 343.07868835808597, 425.9201324560211 343.8328795537537 C425.39288134235414 344.5870707494214, 423.7259437776189 345.1270231286178, 422.75322694488324 345.55035440133963 C421.78051011214757 345.97368567406147, 420.7876528960279 346.70462561253606, 420.08383145960704 346.3728671900847 C419.3800100231862 346.0411087676334, 418.74683308736746 344.25700194861315, 418.5302983263582 343.5598038666315 C418.31376356534895 342.8626057846499, 418.6987871569696 342.9103966500221, 418.78462289355133 342.189678698195 C418.87045863013304 341.4689607463679, 418.62580604181466 339.96651355420886, 419.04531274584866 339.2354961556688 C419.46481944988267 338.5044787571287, 420.8377638568376 338.0940440308392, 421.3016631177554 337.8035743069545 C421.7655623786732 337.5131045830698, 421.652384479853 337.24278789811024, 421.82870831135534 337.4926778123606" stroke="#4A90D9" stroke-width="1.6" fill="none"></path></g><g><path d="M412.70371811037336 353.4578168273988 C412.70371811037336 353.4578168273988, 412.70371811037336 353.4578168273988, 412.70371811037336 353.4578168273988 M412.70371811037336 353.4578168273988 C412.70371811037336 353.4578168273988, 412.70371811037336 353.4578168273988, 412.70371811037336 353.4578168273988" stroke="none" stroke-width="0.5" fill="none"></path><path d="M414.57970364201856 352.38009303800743 C414.85014521780346 352.4024778615858, 415.1166441694278 352.80091063943786, 415.23642562979524 353.1004553446703 C415.3562070901627 353.40000004990276, 415.2830531724628 353.84627009780587, 415.2983924042234 354.1773612694021 C415.313731635984 354.5084524409984, 415.5344994860769 354.8803473316977, 415.328461020359 355.08700237424785 C415.12242255464105 355.293657416798, 414.3610768055816 355.40578404772737, 414.0621616099156 355.41729152470305 C413.76324641424964 355.4287990016787, 413.7957111613394 355.3477805514914, 413.5349698463632 355.15604723610176 C413.274228531387 354.96431392071213, 412.64475263096364 354.5401554053333, 412.4977137200583 354.2668916323654 C412.35067480915296 353.9936278593975, 412.47218021875506 353.7784526917203, 412.65273638093123 353.5164645982944 C412.8332925431074 353.25447650486853, 413.3233601391109 352.82555281300625, 413.5810506931152 352.69496307181 C413.83874124711946 352.5643733306137, 414.09232512907505 352.76256747670374, 414.19887970495705 352.73292615111677 C414.30543428083905 352.7032848255298, 414.1595462108485 352.48354655041396, 414.2203781484073 352.5171151182881 M414.19086126395734 352.6505447871646 C414.5464446336469 352.5697663997365, 414.6380764045441 352.3332093876462, 414.9285103953888 352.5199593099545 C415.2189443862335 352.7067092322628, 415.93702694531584 353.43457591608535, 415.93346520902554 353.7710443210144 C415.92990347273525 354.1075127259435, 415.2658143073993 354.15931338270286, 414.90713997764703 354.5387697395291 C414.5484656478948 354.9182260963553, 414.02259173126293 355.91557350996095, 413.78141923051214 356.0477824619715 C413.54024672976135 356.17999141398207, 413.6646537491706 355.48455186093815, 413.4601049731424 355.3320234515926 C413.2555561971142 355.179495042247, 412.7327070235031 355.4784079086477, 412.55412657434294 355.1326120058982 C412.3755461251828 354.7868161031487, 412.23936504061624 353.6673824203859, 412.3886222781815 353.2572480350955 C412.5378795157468 352.84711364980507, 413.1060297079971 352.7144507135242, 413.4496699997345 352.6718056941557 C413.7933102914719 352.6291606747872, 414.252217135334 353.1019125540132, 414.45046402860606 353.0013779188846 C414.64871092187815 352.900843283756, 414.7692409671145 352.12062514313527, 414.63915135936696 352.06859788338414" stroke="#4A90D9" stroke-width="1" fill="none"></path></g><g><path d="M417.8626062924449 338.21153570657873 C420.1533185597969 337.7151795889153, 422.5661637655592 337.98329399543456, 426.0660687805807 338.2519454346283 M418.04486854673286 337.8820223286179 C420.15603439433204 337.98734549003206, 422.0985102568632 338.090214134009, 425.8648746172211 338.08244077850065 M426.00059843953113 338.14878320210624 C426.2147992856066 339.3370086675467, 425.9786602619814 341.0664510891155, 426.06672686081373 343.78349374298375 M425.9736033484595 338.1139211503732 C426.0616589792285 339.3480365313424, 426.02262224713564 340.5954990871319, 426.0607434751623 343.9272080764632 M425.76240049902594 343.82718235435897 C424.13349958057023 344.1806107938496, 422.450758742676 343.7950585150009, 418.29898000143936 343.86085849112146 M425.8814027067659 344.02486666583223 C422.7994028827865 343.900227152084, 419.82571350556316 343.8796355733561, 417.9384406478334 343.8653456038987 M418.14194138634923 344.12048487824853 C417.9350243663999 342.22656778263314, 418.1275353278106 340.49454878693484, 417.8861824612481 338.21152896758696 M417.95332237989203 343.8848049804954 C417.91415053614884 342.07533698423305, 418.0759850693753 340.1655057115272, 417.92600766150304 337.96824533198867" stroke="#4A90D9" stroke-width="1.2" fill="none"></path></g><text x="400" y="560" text-anchor="middle" font-family="sans-serif" font-size="16" fill="#222" font-style="italic">"The gap between what's known and what's voiced is the measure of unsafety."</text></svg>