<?xml version="1.0" encoding="UTF-8"?>
<svg width="800" height="600" viewBox="0 0 800 600" xmlns="http://www.w3.org/2000/svg"><rect width="800" height="600" fill="#FFFFFF"></rect><g><path d="M99.28044036161874 399.20780453654385 C338.2919493976999 400.6363681300536, 576.689242143088 400.2658502049673, 699.046020682909 400.1683744185008 M100.01474656692892 400.38249951275117 C313.72612429860914 397.8044528468053, 527.0310837603812 397.8333657167616, 699.5675968676281 399.7005815252913" stroke="#000000" stroke-width="2" fill="none"></path></g><g><path d="M350 380 C357.91591834772265 353.07878517600454, 365.70332321875185 342.16140569186757, 378.78689522303074 350.7009691408616 M348.4583359205805 378.4014792112563 C358.83177074203405 352.58042968128115, 365.96877582897747 341.38373743056843, 382.2829799050689 350.3986072374122 M380 350 C391.5489335791236 356.930508760184, 396.7819335178045 347.4130614079516, 391.2175407808605 319.6134058075975 M379.11303466715174 348.5175397206924 C395.43012126465686 355.53879044926236, 394.93725271369505 345.41303016691194, 389.13765660494994 321.77748635888236 M390 320 C382.5682833410627 293.25152088360556, 385.8375079414166 276.6854212999868, 401.1366991368388 271.88706992239366 M390.4108226822474 319.0231521858676 C384.6301811839148 294.5879589177389, 387.180543339653 277.4091786943854, 401.1620348643737 268.61724732727805" stroke="#000000" stroke-width="2.4" fill="none"></path></g><g><path d="M395.94714845846863 259.39077345677543 C395.94714845846863 259.39077345677543, 395.94714845846863 259.39077345677543, 395.94714845846863 259.39077345677543 M395.94714845846863 259.39077345677543 C395.94714845846863 259.39077345677543, 395.94714845846863 259.39077345677543, 395.94714845846863 259.39077345677543 M399.55899565908123 267.050478821752 C401.7828670015788 265.79549662162185, 402.3662066205993 263.46636613677236, 404.34411799436225 261.33688108705803 M400.14609603492727 267.1193181433099 C401.3409342794587 265.2515185324304, 403.23695238966184 263.4184881974995, 404.33374469764533 261.63533305957566" stroke="none" stroke-width="1" fill="none"></path><path d="M401.1946333865007 257.9600394377297 C402.1159277595216 258.42981182602915, 402.87501537284794 259.6435279628584, 403.4857903803405 260.43589078670516 C404.0965653878331 261.2282536105519, 404.83150168206333 261.6932776620871, 404.8592834314562 262.71421638081017 C404.8870651808491 263.73515509953324, 404.47078081124926 265.9172181737792, 403.6524808766979 266.5615230990434 C402.83418094214653 267.20582802430766, 401.06223349474146 266.7645460123346, 399.94948382414793 266.5800459323957 C398.8367341535544 266.3955458524568, 397.87364524091157 266.0108824303447, 396.9759828531369 265.45452261940994 C396.0783204653622 264.8981628084752, 394.7881266709627 264.1913758578036, 394.5635094974998 263.2418870667874 C394.3388923240369 262.2923982757712, 394.9916132002776 260.6994002585358, 395.6282798123596 259.7575898733126 C396.26494642444163 258.81577948808945, 397.28165380636364 257.98245149987474, 398.3835091699919 257.5910247554485 C399.48536453362016 257.1995980110222, 401.3969019907217 257.4071335573609, 402.2394119941293 257.40902940675517 C403.0819219975369 257.4109252561494, 403.52799911342663 257.43409057310544, 403.4385691904376 257.6023998518142 M400.82367213877114 257.183759329468 C401.6528480939796 257.62259769329324, 402.64485918905063 259.30516207456856, 403.33975107781407 260.18315383523 C404.0346429665775 261.0611455958914, 404.8794276075905 261.7622866328562, 404.99302347135193 262.45170989343643 C405.10661933511335 263.14113315401664, 404.6919821107491 263.51931060856896, 404.02132626038264 264.3196933987112 C403.35067041001616 265.12007618885343, 401.97351477070947 267.1172514237034, 400.96908836915316 267.25400663428996 C399.96466196759684 267.3907618448765, 398.7288652370566 265.6379943907258, 397.99476785104486 265.14022466223065 C397.2606704650331 264.6424549337355, 397.15650984200926 265.2632378576218, 396.56450405308266 264.2673882633192 C395.97249826415606 263.27153866901665, 394.06478547421074 260.320398833401, 394.44273311748515 259.1651270964152 C394.82068076075956 258.00985535942937, 397.56752121506037 257.62111135518956, 398.83218991272923 257.3357578414043 C400.0968586103981 257.05040432761905, 401.76275233095004 257.28287851998687, 402.03074530349835 257.4530060137038 C402.29873827604666 257.6231335074208, 400.5929807815043 258.2370195059349, 400.4401477480191 258.356522803706" stroke="#000000" stroke-width="2" fill="none"></path></g><g><path d="M550.5798121136296 369.7166890017693 C561.3408423484551 369.5255439272571, 571.543454639304 368.4961920121786, 589.7721461043327 369.3311283477965 M550.4905536062964 370.5318356811313 C559.2038426258567 370.2475558890991, 569.2888510022639 370.7367274432293, 589.8001673701604 369.9287490524146 M589.6544732758585 370.28761232521407 C588.9698631197557 375.6983677812026, 589.7518686967836 379.86768312404183, 590.5389840702633 383.96352153805174 M589.6625195221126 370.3101382995239 C589.6527835365129 373.1487518804729, 590.1653810596237 375.8804758882075, 590.262239946677 384.70527804969356 M588.6423241501782 386.42009066033614 C575.2517191849724 385.25724831463856, 562.5853964693606 383.9491338669913, 549.2366093052644 385.00109275991827 M589.8715892483959 384.63217573109796 C574.3598908280451 385.5762082587378, 559.6871717777192 385.21036948699214, 549.8856889195223 384.2490902332835 M550.4260491966254 385.8298770910688 C548.8705246913134 382.4239504198569, 548.8214411049665 377.93791683977605, 549.1001940334626 369.5130019929355 M550.3853507345742 385.35175433330943 C550.2306783662052 381.7635839485438, 549.4707420587288 378.1733326644425, 550.497013917245 370.5399914918057" stroke="#5B8C5A" stroke-width="1.8" fill="none"></path></g><g><path d="M548.727549617245 352.07754957138184 C558.1411752896266 352.3367617397693, 567.8777872120604 350.9004287275042, 591.5070722331818 352.06105932731367 M550.5777915854436 351.5536593206472 C557.7825132932302 351.375026586105, 566.111102712014 351.723151872935, 590.2655451532399 352.0895698013097 M590.6098265951822 351.7621707522677 C590.1639929632172 357.70630165977155, 589.6816010280683 361.64240716116467, 589.3992460196024 366.8700038538877 M590.405410713678 351.5713330716992 C589.6920229858507 357.6120460645248, 590.3630050848814 363.9329279085171, 589.919744384394 366.84068997858583 M590.1577691467093 367.5728507225252 C576.9248001460409 367.3912895522566, 566.3279228806126 367.9705016902492, 550.9482023472018 366.5913323518874 M589.7669843388176 366.72470668359324 C580.3520081526485 366.63881317058764, 571.2089799914928 366.9113440744419, 550.3949605708552 367.2883852965373 M549.3228920492292 367.3388116245752 C550.7201319005183 363.2022212916955, 549.5718908545451 360.7876443035184, 550.9934671803818 351.0473403081012 M550.5792179006792 366.9611151101006 C550.3040961720844 361.91870070949096, 550.117683460304 356.9616910862669, 549.6632750860916 352.5368905146561" stroke="#5B8C5A" stroke-width="1.8" fill="none"></path></g><g><path d="M549.5485539611282 333.3821936438971 C566.419936817025 333.19416160818304, 581.6344118092854 333.46513218295865, 589.9814056000552 333.7436125862834 M549.9667098039454 333.24733160188606 C565.2584967360398 334.60348016475956, 580.592108464586 333.87892324618133, 589.4378595716382 334.1739759231267 M589.5763850712623 333.5286710720483 C589.8097620006206 338.0941150672713, 590.373007716331 342.9483469292694, 590.3752689861718 349.03350287443726 M590.1814379300706 333.7567623481432 C589.7152377618984 337.1046298686932, 589.6298218584794 341.379902051154, 589.7672456480205 348.7325104244583 M591.052615578757 348.0288420295769 C575.9098362663129 348.5298693634488, 560.6490262775993 348.93975526732726, 548.6566128364065 347.7496534262441 M590.6367353429326 349.60964820812285 C580.3512628154912 349.08699880105166, 572.2009472573418 349.6683973338626, 550.116804347756 348.2254351784547 M549.696900805877 349.5772250911159 C549.3841614927528 343.93099075552607, 549.854289909768 340.444219664168, 550.9379785756316 332.9460194834908 M549.7632906065472 348.9377412893509 C550.5813936341098 345.7893069833553, 550.5861404004856 343.43526733351206, 550.267290385858 334.0138348843012" stroke="#5B8C5A" stroke-width="1.8" fill="none"></path></g><g><path d="M549.2764367161856 317.10633481124665 C564.9877769146814 316.57648403223766, 580.6300080764703 316.7499381985453, 591.1146719280487 314.62116618065266 M549.3749017171183 316.6397139839855 C566.5152427572525 315.9996468433429, 581.3489951551469 316.04834497788204, 589.2777440448912 316.3408986224518 M591.1877018553132 316.24260385723966 C590.90323395549 321.0207225597566, 591.0454537371414 326.49797235812684, 589.1437763320816 331.1111672287281 M590.4971011714314 315.43547508973836 C589.8648037274282 320.89735737774373, 590.3138087026912 324.53852719090077, 589.5910757878929 330.85358451661585 M589.4393560476791 331.81728570243916 C581.949480500124 329.51259475166324, 572.7077989663485 332.2924554291151, 550.1970775613865 329.7076787886465 M589.3753948311665 330.73889099204945 C575.9868844479821 331.3560670723632, 560.9248945228198 330.4808121452277, 550.218588846792 331.7886614549475 M550.8493417254705 331.5073734636445 C550.2339557232881 326.2856667124168, 549.8745766459954 321.2073295012064, 549.7100243802752 315.1670225703682 M549.5073535746473 330.75460325382335 C549.9919199503978 327.4637031252909, 549.6482801595636 323.7695296449606, 549.9031773143911 316.02495698155786" stroke="#5B8C5A" stroke-width="1.8" fill="none"></path></g><g><path d="M193.56989721348634 310.04413477645664 C193.56989721348634 310.04413477645664, 193.56989721348634 310.04413477645664, 193.56989721348634 310.04413477645664 M193.56989721348634 310.04413477645664 C193.56989721348634 310.04413477645664, 193.56989721348634 310.04413477645664, 193.56989721348634 310.04413477645664 M194.0589255291471 320.1935241193749 C195.45315239172345 317.7512319631892, 198.7132671659273 315.1869771578548, 206.64585179090025 307.5752960495464 M194.6968855870668 321.4785335123146 C197.0743552380394 318.74031227684, 200.3733843466889 314.5384934555459, 205.20615589460948 309.3244847767207 M203.71260234861148 324.05316365130136 C205.3058215899502 320.3557616720402, 207.76732437791708 318.96579037202423, 207.9525933308147 317.2846249355966 M203.33555530066798 323.47738351859056 C205.0286347327266 321.51326853160936, 207.14503695384002 319.1189076801156, 208.1887759251681 317.49315532536275" stroke="none" stroke-width="1" fill="none"></path><path d="M203.47710274190112 306.6490006562755 C204.96402666553217 307.39237195603624, 207.3253788055702 309.9082247118379, 208.07204017173078 311.6342773132783 C208.81870153789134 313.3603299147187, 208.49479185766972 315.1690441983717, 207.95707093886446 317.005316264918 C207.4193500200592 318.8415883314643, 206.4336451828907 321.63670957995254, 204.8457146588991 322.6519097125561 C203.25778413490752 323.6671098451597, 200.30672141942813 323.42688903958583, 198.42948779491485 323.0965170605395 C196.55225417040157 322.76614508149316, 194.97995507023333 321.9509749578571, 193.58231291181937 320.66967783827795 C192.1846707534054 319.3883807186988, 190.02888447492217 317.199006983632, 190.04363484443104 315.4087343430646 C190.0583852139399 313.61846170249726, 192.39006976006488 311.5475066775864, 193.6708151288727 309.9280419948736 C194.95156049768053 308.30857731216076, 195.82420402261386 305.84583928626944, 197.72810705727807 305.69194624678767 C199.63201009194228 305.5380532073059, 203.53426318588328 308.4604691956107, 205.09423333685797 309.0046837579829 C206.65420348783266 309.5488983203551, 206.96380785880848 308.9187958234786, 207.08792796312622 308.9572336210208 M200.31686141199762 306.96178186278854 C202.086178808516 306.6765887823111, 205.30981106615837 306.98088359955, 206.5715617550859 307.76919375577165 C207.83331244401342 308.5575039119933, 207.76188662550368 309.5373725639505, 207.88736554556283 311.6916428001183 C208.01284446562198 313.8459130362861, 208.05137962543097 318.96939199702297, 207.32443527544078 320.6948151727783 C206.5974909254506 322.42023834853364, 205.12192981826723 321.54496989525865, 203.5256994456216 322.0441818546505 C201.92946907297596 322.54339381404236, 199.3863331162943 323.9334380319571, 197.747053039567 323.69008692912956 C196.10777296283968 323.446735826302, 194.64242660733117 322.12880191497027, 193.6900189852577 320.5840752376852 C192.73761136318421 319.0393485604002, 191.7670457446419 316.7108970624822, 192.03260730712617 314.42172686541915 C192.29816886961044 312.1325566683561, 193.88760267007225 308.14120339107376, 195.2833883601632 306.84905405530685 C196.67917405025415 305.55690471953994, 199.85142983957027 306.7670538802159, 200.4073214476719 306.6688308508176 C200.96321305577354 306.5706078214193, 198.82913258509782 306.1775826776365, 198.618738008773 306.2597158789172" stroke="#000000" stroke-width="2" fill="none"></path></g><g><path d="M200.05038141942828 332.95902936212485 C199.8866924602193 340.2560492432799, 201.03670529487346 348.14368933055033, 200.26660865039497 364.812187768603 M199.974414140725 333.3325296070296 C200.49227445485113 345.9658098075826, 199.38706836486153 357.4151366246311, 200.30571155854656 365.426099474541" stroke="#000000" stroke-width="2" fill="none"></path></g><g><path d="M199.00314924291123 364.6488387992686 C197.70156663517048 371.4728465886156, 196.44470796438398 380.7175879192066, 188.23881320992706 394.24029776822476 M199.77968102737353 364.47682398028275 C196.4520756094789 375.2623675513335, 193.17841340795448 386.81659776888324, 189.0315812528705 394.1871370179283" stroke="#000000" stroke-width="2" fill="none"></path></g><g><path d="M201.9067712962455 365.5181524716925 C201.6019141776757 371.73548477683175, 206.04072557005384 380.0900224205779, 209.89788296405644 394.3240532866958 M199.085111325968 364.11097494588194 C202.64279210281964 371.9845824766949, 205.2443862097737 379.4497668964433, 209.71014225300453 394.49479443881836" stroke="#000000" stroke-width="2" fill="none"></path></g><g><path d="M200.2750755915526 343.5512068728688 C215.27722668722527 339.51269971003995, 227.52996124840922 332.8724643177003, 233.0894753562422 329.8030300961594 M199.46661379904447 341.75293595219813 C210.43153764414063 337.8493313881012, 218.95503399910592 334.4419902531621, 234.03678486895365 329.73489057356903" stroke="#000000" stroke-width="2" fill="none"></path></g><g><path d="M229.26002969905528 315.1271838933815 C243.66801882325004 315.67533364834964, 255.21889883914216 315.1767290661382, 260.36399318549996 314.1974517236682 M230.17671855225024 315.26605756869355 C237.1705284062237 314.2702055566794, 244.72369342375492 315.2700857398265, 259.053474040967 315.1859848095702 M260.7537211865603 315.0665992011573 C260.70145204218767 321.96827819585377, 259.00131130127994 327.5417220824215, 258.23045053021195 350.7343556723827 M259.47852305454296 315.4105967462476 C260.25708119279153 323.3753027218311, 259.91763776103693 330.57143826709773, 259.0694583171941 349.77361169112595 M260.1024860223047 350.07527017594526 C253.59434638225378 350.5789339214868, 245.93273133220433 349.397270014465, 231.15818382311468 351.47131991357446 M259.4488930468149 349.08415085515776 C252.73214047559827 349.80996510729767, 243.86294581878784 349.4196383223974, 229.1929420938341 350.5762433586981 M230.34351910313848 348.55241964319146 C229.6271869974754 341.0835026733606, 227.99944280997937 334.8167717556688, 231.56848949869004 316.8537019776433 M230.49246363788578 350.562693775106 C229.99751592457505 338.6129460997139, 229.3496699672225 329.0652695273644, 229.27776096538435 314.7023126625684" stroke="#000000" stroke-width="1.4" fill="none"></path></g><g><path d="M238 335 C242.58435477440108 329.2871225442617, 245.53536823628755 326.1551524993499, 250.6432054328564 331.9627588685015 M236.50706059661331 333.8279742173132 C244.21684419344072 329.33647426151185, 246.90151011886454 328.64584773441385, 249.50070729373186 331.31832506046055" stroke="#000000" stroke-width="1.2" fill="none"></path></g><g><path d="M429.8338401663888 300.5905102429561 C454.9780351258918 302.91116665692317, 479.22766202234 309.0953228154483, 539.6065255661603 320.8096684067663 M430.6283024626535 300.4335478308486 C474.2547669512525 307.21038723478085, 516.831079572043 314.5915848843654, 540.6634332411203 320.31611235628225" stroke="#999" stroke-width="1" fill="none"></path></g><g><path d="M529.8193693585788 314.4391029985363 C532.5562575530148 316.8556380320532, 536.0023037332879 318.5292434111628, 540.6190992667945 319.4365593881111 M530.3204545993233 315.11488357100734 C532.6376493500455 316.2451806256673, 534.441529832093 317.37768755418574, 539.9125999907453 319.8413238132333" stroke="#999" stroke-width="1" fill="none"></path></g><text x="400" y="560" text-anchor="middle" font-family="sans-serif" font-size="16" fill="#222" font-style="italic">"When a measure becomes a target, it ceases to be a good measure."</text></svg>