<?xml version="1.0" encoding="UTF-8"?>
<svg width="800" height="600" viewBox="0 0 800 600" xmlns="http://www.w3.org/2000/svg"><rect width="800" height="600" fill="#FFFFFF"></rect><g><path d="M385.0196922495354 69.44863000602238 L416.0332454435346 70.34654200353998 L564.4107654460166 469.0057593335186 L236.81064134339525 469.61466663956804" stroke="none" stroke-width="0" fill="#FBEFC9" fill-rule="evenodd"></path><path d="M386.51134195198637 70.82712271683839 C398.35638580442543 68.92288248212282, 404.77197085802624 70.05696200004051, 412.38986111601616 69.8440876076374 M386.8605587049437 70.14932904206768 C397.27059999667864 70.21357647747347, 407.27007390963587 68.94097926374593, 414.868000766559 69.77032608368744 M415.0930733114472 70.1799881581698 C470.7714597348992 226.9923042921184, 531.8608605780693 384.3171716850387, 564.7748825275672 470.68112510763905 M414.5407311964472 70.23054983604851 C447.3810536067652 153.0467464134815, 477.82069409047324 235.9531379875279, 564.6740216835466 469.92093770482745 M565.3795933627205 468.8094500662683 C453.01953881577 471.04616433230933, 343.22992696130103 469.00512879138944, 236.1367723803307 470.7692738874821 M565.4985919440314 469.9790307437157 C493.3881985522607 467.9935613831677, 420.5142015623205 468.0611433973272, 234.43815067241368 470.56870783088027 M235.0125186285902 470.8867386053152 C272.798911776995 367.95189663580555, 310.8151829555313 264.9839744720408, 386.74433399754133 69.96889748354573 M235.31286662127062 469.52068400136346 C282.16209987306274 340.63177995574927, 331.5508172508609 210.32249862141416, 385.4322930732517 70.29697671263092" stroke="#DAA520" stroke-width="1.6" fill="none"></path></g><g><path d="M380.98901376258334 44.141318602915746 L418.3833926194187 43.756098061789714 L418.7503601010643 70.57442802550582 L379.3969506531481 69.82657382398389" stroke="none" stroke-width="0" fill="#DAA520"></path><path d="M381.6725637507384 42.787181440165384 C387.8665596233984 45.3566465502876, 398.4493397405711 42.660690348104275, 421.329842422989 45.276425591676215 M379.9031254061822 43.93636993697595 C393.49574462998294 44.56879765460014, 405.0514197053258 43.48417576155947, 419.6008294231983 44.84735557705358 M418.4448216909758 44.55629972796815 C421.59598363615703 52.17466467693615, 418.39726885654545 59.44588300677991, 421.59990815763206 71.17965381721633 M420.7435117981756 43.93830801984779 C419.4518809516389 49.956709489046006, 420.4763894167612 57.572754923060444, 419.6610748213246 70.82135398775696 M420.3953000345944 69.9785038343357 C404.4157705792091 70.95824372925685, 393.6789881789068 69.3613729913396, 378.7000708701369 69.95992363188253 M419.270357505174 69.8985507523251 C408.18768358974984 71.1622106604861, 396.59799104001013 69.87250315767201, 379.57526093634533 69.776933246762 M380.4002675267262 68.50689265118513 C379.71301163271613 61.29820902003626, 380.27062842797534 52.86023288639411, 380.32159855962846 44.937830183386 M380.21483972449306 69.60965110424596 C380.0888403946316 62.41406399772078, 379.74705229541667 55.56792084642741, 380.2629315856719 44.01069020515179" stroke="#000000" stroke-width="2" fill="none"></path></g><g><path d="M119.36900162519325 469.4594114652053 C253.41451532453013 469.1019276348454, 386.71610709446475 469.88705005651246, 680.7024025766395 470.6718531265946 M120.46928134734294 470.4505570894146 C237.58976664828108 467.84250883791634, 354.2044380891283 467.44693596248226, 680.4597930319159 470.2700247108122" stroke="#000000" stroke-width="2.4" fill="none"></path></g><g><path d="M387.47744502502667 375.25438097028723 C387.47744502502667 375.25438097028723, 387.47744502502667 375.25438097028723, 387.47744502502667 375.25438097028723 M387.47744502502667 375.25438097028723 C387.47744502502667 375.25438097028723, 387.47744502502667 375.25438097028723, 387.47744502502667 375.25438097028723 M387.0344159402649 385.90600948673705 C391.41022932485873 381.8357971775273, 396.4823002461818 375.9617789627657, 402.93693380671647 370.4041641161268 M389.04258812400406 385.6444164114123 C394.1522354728077 378.58960500017577, 399.8285950143079 372.22121711074004, 404.2276498735847 369.4167849625973 M394.81231161895283 392.1328977087788 C401.99538494500626 384.2737380288353, 407.48999267363337 378.96409083156357, 411.9327766174115 372.24384105606447 M394.86451340275727 391.03408480134254 C401.21780841890256 384.49475122058135, 406.60173899219336 377.05082354359314, 409.71291294872367 372.752636487675 M404.2708404340914 392.23719307806414 C406.9294690882571 391.0781011349318, 406.90010250289885 388.6720846091561, 412.6015344875115 382.50612586095747 M404.00081155311767 392.2943113022936 C406.2910730231943 390.53646385934763, 408.13229419572644 387.7649328838551, 411.92150175835957 383.94051239089754" stroke="none" stroke-width="1" fill="none"></path><path d="M394.772854117102 368.6369551539173 C397.21136164938804 367.2275362297067, 399.9799219073991 366.4109440189162, 402.7382450280834 367.1784885971125 C405.49656814876766 367.9460331753088, 409.66527849462045 371.03536198300066, 411.3227928412078 373.24222262309496 C412.9803071877951 375.44908326318927, 413.0735565953303 377.7051191266817, 412.6833311076075 380.4196524376782 C412.2931056198847 383.1341857486747, 410.81125105647334 387.52365074271574, 408.9814399148712 389.52942248907385 C407.15162877326907 391.53519423543196, 404.4351351491373 392.3101972953217, 401.7044642579947 392.4542829158269 C398.9737933668521 392.59836853633215, 395.01382592764446 391.91752804533945, 392.59741456801544 390.3939362121053 C390.1810032083864 388.87034437887115, 388.0280254590616 385.87199638720415, 387.2059961002206 383.31273191642197 C386.3839667413796 380.7534674456398, 386.0845678997606 377.65203598108246, 387.66523841496945 375.0383493874121 C389.2459089301783 372.42466279374173, 394.80944854926565 368.89215406319516, 396.69001919147377 367.6306123543998 C398.5705898336819 366.3690706456044, 399.0397398711604 367.2746098445171, 398.94866226821824 367.46909913463963 M399.59397485468486 367.2132482633924 C402.14724286579155 367.1059284029197, 406.4663711290916 368.2318070991983, 408.74502743711616 370.0938804136759 C411.0236837451407 371.9559537281535, 412.627312063853 375.82962269771497, 413.26591270283205 378.3856881502578 C413.9045133418111 380.94175360280065, 413.90645207003774 383.2309037611117, 412.5766312709904 385.43027312893287 C411.24681047194304 387.62964249675406, 408.0081859376069 390.49030417992816, 405.28698790854804 391.581904357185 C402.56578987948916 392.67350453444186, 399.24101892236905 392.83389524538984, 396.2494430966372 391.979874192474 C393.25786727090536 391.1258531395582, 388.66706380933533 388.8068073464048, 387.33753295415704 386.4577780396902 C386.00800209897875 384.1087487329756, 387.7853898001405 380.65671104468237, 388.2722579655676 377.8856983521863 C388.7591261309947 375.1146856596902, 388.34309197867685 371.72249397453413, 390.25874194671974 369.8317018847139 C392.1743919147626 367.9409097948936, 398.33340287469554 366.8166050200746, 399.7661577738249 366.5409458132648 C401.19891267295424 366.265286606455, 398.76400987968213 368.0172531823521, 398.85527134149584 368.17774664385496" stroke="#000000" stroke-width="2" fill="none"></path></g><g><path d="M401.495698371501 393.37710490033015 C398.1649474782145 405.7438714613557, 401.4772680667404 418.67758971688335, 400.8978845788022 429.18921458193876 M399.93572245709566 393.0206483089897 C400.1431008369338 407.58121603500973, 399.4229141275223 420.7082386787406, 400.062492881969 430.08085796870455" stroke="#000000" stroke-width="2" fill="none"></path></g><g><path d="M398.57496586507995 429.59232529892665 C395.04837172443104 437.14583520674756, 390.40475915162517 448.23451678739315, 384.51517560671164 458.2289557814404 M400.2463866352545 430.82902135412826 C396.9284279382085 438.9020274246034, 391.8360427924665 445.6199543394323, 385.75518706555204 459.12826653097915" stroke="#000000" stroke-width="2" fill="none"></path></g><g><path d="M400.77898715047127 431.75204470941367 C404.90492600996544 439.6651433265337, 407.4944146947511 448.6122006741739, 414.9601476861874 461.28865778401774 M399.37544651791086 429.677258180043 C404.0148323444309 438.3658083295178, 409.6349560626202 447.67668253755005, 413.2604410688556 460.18874847461916" stroke="#000000" stroke-width="2" fill="none"></path></g><g><path d="M400.41741032059304 400.5642857810734 C393.6168966715752 409.3520435909993, 389.4670480972063 415.3173451510553, 380.6284846385715 424.7746945606268 M399.86282277146984 401.7923382696732 C394.9839856929744 409.39558861538745, 388.2206364434923 415.8134461022792, 382.1713733516747 423.5065205903184" stroke="#000000" stroke-width="2" fill="none"></path></g><g><path d="M382.271828248058 425.5787476992816 C389.2126209969621 427.2349559502166, 395.31588498723994 432.9523892142519, 397.1701949559436 435.07608253976264 M382.54861496704535 424.11882103209774 C386.2876595876906 427.34852330333786, 391.3620058546876 429.6616600134588, 397.9141945165956 433.60480153501703" stroke="#000000" stroke-width="2" fill="none"></path></g><g><path d="M398.68893117094586 402.03510063562226 C406.7617929171578 407.2029962949727, 411.52613980847343 414.68909642562807, 416.32819478768187 425.1039452202609 M400.1700665240537 401.26654093569607 C406.27206110920775 408.7336104838829, 410.9092139932436 416.0944185646488, 417.6269574244514 424.0542192075236" stroke="#000000" stroke-width="2" fill="none"></path></g><g><path d="M416.57496189063465 422.88329189408 C415.9566551022541 426.75752527751104, 412.19913008795027 429.86458784741376, 400.2064023143931 433.6504888405154 M418.7924522561469 424.71222417658663 C412.8480663959952 427.04964349400547, 407.959754927089 430.36161175634066, 402.17997240118405 433.8926584861055" stroke="#000000" stroke-width="2" fill="none"></path></g><g><path d="M389.150529339875 456.1619317460194 C395.64324950824687 455.26413823922485, 405.05631122758825 454.9660634316494, 412.0206196576106 455.69316570350395 C418.98492808763297 456.4202679753585, 427.195156501134 458.96237302624286, 430.9363799200092 460.5245453771468 C434.67760333888435 462.08671772805076, 435.9303145437873 463.4064705328979, 434.46796017086166 465.0661998089275 C433.005605797936 466.72592908495704, 428.11305258109434 469.2947125053263, 422.16225368245546 470.48292103332415 C416.2114547838166 471.671129561322, 406.30602819786975 472.418079866393, 398.76316677902844 472.1954509769146 C391.2203053601871 471.97282208743616, 382.5375673893135 470.4492327594962, 376.90508516940764 469.14714769645366 C371.2726029495018 467.8450626334111, 365.9753498946976 466.08188023043783, 364.9682734595933 464.3829405986592 C363.961197024489 462.6840009668806, 365.1355271256542 460.3025074374428, 370.86262655878204 458.9535099057818 C376.58972599190986 457.6045123741208, 392.7436399969601 456.6884403297862, 399.3308700583601 456.2889554086934 C405.91810011976014 455.88947048760065, 410.38052262418415 456.6151832951721, 410.3860069271821 456.5566003792252 M386.66577231851784 456.54303775526677 C393.4156927424589 455.44138221880735, 404.2693694535716 454.96938124018135, 411.6448819423495 455.39200470244793 C419.02039443112744 455.8146281647145, 427.15227379003437 457.61673407242336, 430.91884725118535 459.07877852886634 C434.68542071233634 460.5408229853093, 435.43106877649416 462.2279655325692, 434.2443227092555 464.16427144110577 C433.0575766420169 466.1005773496423, 429.1496672751679 469.42598045780926, 423.7983708477536 470.69661398008566 C418.4470744203393 471.96724750236206, 409.5659601117467 471.89798312057195, 402.1365441447696 471.788072574764 C394.70712817779247 471.678162028956, 385.292843861045 470.99158609388695, 379.22187504589107 470.037150705238 C373.1509062307371 469.08271531658903, 367.57751770951535 467.8509218508498, 365.71073125384584 466.06146024287034 C363.8439447981763 464.2719986348909, 364.6403429811436 460.9098590265998, 368.021156311874 459.3003810573612 C371.4019696426044 457.69090308812264, 383.26421601451716 457.0236933533252, 385.99561123822815 456.40459242743884 C388.72700646193914 455.7854915015525, 384.08217689236113 455.17317533543144, 384.4095276541399 455.5857755020431" stroke="none" stroke-width="0" fill="#EFE3BE"></path><path d="M410.7952397376133 456.21367978643275 C417.4997535348328 456.39392982296204, 425.54990055994494 457.45539027556583, 429.5052876735418 458.8947621664976 C433.4606747871386 460.3341340574294, 435.4614137557753 463.06557170823214, 434.5275624191943 464.8499111320236 C433.59371108261325 466.634250555815, 429.57255656608135 468.41862231588766, 423.90217965405543 469.60079870924625 C418.2318027420295 470.78297510260484, 408.0988873836461 471.9415558970263, 400.5053009470387 471.942969492175 C392.91171451043124 471.9443830873237, 384.1052271753866 470.466309171067, 378.3406610344108 469.60928028013836 C372.576094893435 468.75225138920973, 367.3291194328155 468.43661701652866, 365.9179041011839 466.80079614660315 C364.50668876955234 465.16497527667764, 366.4085715269399 461.58354069395534, 369.8733690446213 459.7943550605854 C373.3381665623027 458.0051694272155, 378.90235549137566 456.621607263621, 386.7066892072724 456.0656823463834 C394.51102292316915 455.50975742914585, 410.62837614657394 456.23810041517424, 416.6993713400019 456.4588055571599 C422.77036653342986 456.67951069914557, 423.20391951303316 457.02277400896503, 423.13266036784034 457.38991319829734 M411.43179393676496 455.63816490122133 C418.3040665903206 456.1386034999961, 426.98366552855987 458.3555674332728, 431.0260667780559 459.9695678465404 C435.06846802755194 461.5835682598079, 436.9100422636825 463.92208806814347, 435.6862014337412 465.3221673808266 C434.4623606037999 466.72224669350976, 429.2675845836237 467.09003220833125, 423.6830217984079 468.3700437226394 C418.09845901319204 469.6500552369476, 409.64891791482734 472.3805080459609, 402.178824722446 473.0022364666756 C394.70873153006465 473.6239648873903, 384.88030531695995 473.0471891204519, 378.86246264411983 472.10041424692764 C372.8446199712797 471.1536393734034, 367.74900644570454 469.3392871130731, 366.07176868540546 467.3215872255302 C364.3945309251064 465.3038873379873, 365.384701696057 462.0331617957481, 368.79903608232524 459.9942149216701 C372.2133704685935 457.95526804759214, 379.5290885932754 455.9088822304632, 386.55777500301485 455.08790598106253 C393.5864614127543 454.2669297316619, 406.98451948199755 454.74231470656196, 410.971154540762 455.06835742526636 C414.9577895995264 455.39440014397076, 410.6967828651691 456.8977983611288, 410.4775853556014 457.0441622932889" stroke="#caa" stroke-width="1" fill="none"></path></g><text x="400" y="560" text-anchor="middle" font-family="sans-serif" font-size="16" fill="#222" font-style="italic">"The fear of being exposed is not evidence that you are."</text></svg>