<?xml version="1.0" encoding="UTF-8"?>
<svg width="800" height="600" viewBox="0 0 800 600" xmlns="http://www.w3.org/2000/svg"><rect width="800" height="600" fill="#FFFFFF"></rect><g><path d="M100.75451424198411 421.0455322168708 C278.75430218408997 419.1720529383539, 455.16473102617505 420.16747190638574, 700.8394001437053 418.88001902110386 M99.82681821358655 419.7696802512511 C308.6926673061504 418.1082891393896, 517.027196198989 417.47144214029464, 699.9200732033071 419.8985538371818" stroke="#000000" stroke-width="2" fill="none"></path></g><g><path d="M250.14004514222654 309.4162619118223 C320.030106774778 310.25084299845736, 392.21762131365585 310.8621515462402, 549.4112017346188 309.10221928915144 M250.54324282599023 310.74687439796423 C352.9625076667714 310.95377126750833, 457.1190173843969 311.24025485413176, 549.4681916270035 309.1793487622071 M549.0214051323172 309.36919447449526 C548.4496061964062 333.9534586692575, 551.3187725635839 356.3718125124341, 551.609070839352 389.3027135788321 M550.7635471338995 311.15572990343975 C550.610395652931 339.54808915658776, 551.6489972850006 368.0798055707226, 550.7806334409338 390.7671904871402 M548.4142263518822 389.98163096219344 C436.8408241381454 389.5017274233921, 327.7885872537605 391.93298600809493, 249.14132006483564 390.42895299913556 M550.0950774136477 389.8974069386393 C436.66590766413117 390.65430684258445, 323.92319327701466 391.77032692836985, 249.809299232979 390.6926674650277 M249.22603156601667 390.908043438633 C247.1928191289051 372.8450447500595, 247.9716829587145 355.3980438319783, 248.8488286902917 311.04293634678646 M250.01530881704622 390.38808504260305 C250.3971678098194 361.35674817404936, 252.02065552035492 334.265451059032, 248.97239994559254 309.4939722050339" stroke="#000000" stroke-width="2" fill="none"></path></g><g><path d="M274.91051356887533 268.12634938534495 C274.91051356887533 268.12634938534495, 274.91051356887533 268.12634938534495, 274.91051356887533 268.12634938534495 M274.91051356887533 268.12634938534495 C274.91051356887533 268.12634938534495, 274.91051356887533 268.12634938534495, 274.91051356887533 268.12634938534495 M274.7115773548863 278.1245912430415 C275.53552755023946 274.67016433470764, 278.95370650510046 272.5806909903329, 282.9384107355123 268.64898528104465 M274.6034487607863 277.62191847663087 C277.812004777134 274.1221987932241, 280.9334153634525 269.9047246922202, 282.2951574982324 268.46091553436884 M279.45325242870683 279.9487702801944 C282.6403433315367 278.0422280047763, 285.75035139844607 273.8175599965628, 287.239480414556 271.47990166960165 M280.3599333243617 280.2685126645541 C282.4552817436795 277.6759945974939, 285.83316724613064 274.1600452565493, 287.2406529457881 272.5641914207229" stroke="none" stroke-width="0.7" fill="none"></path><path d="M279.9593668517604 266.8418539533711 C281.3210550643972 266.7524171913108, 282.5826662937448 268.25328747838296, 283.92037048275967 269.3006693562412 C285.2580746717745 270.34805123409944, 287.41958041064186 271.81236426873005, 287.9855919858495 273.1261452205207 C288.55160356105716 274.43992617231135, 288.2130252171114 275.9384043069598, 287.3164399340057 277.183355066985 C286.4198546509 278.42830582701015, 284.18904198964145 280.11588316989986, 282.6060802872151 280.59584978067176 C281.02311858478873 281.07581639144365, 279.10896703358424 280.46577115698165, 277.8186697194476 280.06315473161624 C276.52837240531096 279.6605383062508, 275.83578740045647 279.16719887699116, 274.86429640239527 278.1801512284792 C273.89280540433407 277.1931035799672, 271.95673007155267 275.84559621659434, 271.98972373108046 274.1408688405442 C272.02271739060825 272.4361414644941, 273.7229996610464 269.0131424019022, 275.0622583595622 267.95178697217847 C276.40151705807796 266.89043154245473, 279.00351291518473 268.0069035859579, 280.02527592217507 267.7727362622019 C281.0470389291654 267.53856893844585, 281.0717994659408 266.64396830423516, 281.19283640150434 266.5467830296423 M280.2591745539034 265.77912409634456 C281.50738868358127 265.40085896263275, 281.74949066153647 266.5196035260289, 282.75440679348213 267.5127770272215 C283.7593229254278 268.5059505284141, 285.5127473125169 270.3501749765348, 286.2886713455774 271.73816510349997 C287.06459537863793 273.12615523046514, 288.0983496885947 274.4442558537695, 287.4099509918453 275.8407177890127 C286.7215522950959 277.23717972425584, 283.6462986993505 279.06144904956255, 282.1582791650811 280.1169367149589 C280.67025963081176 281.17242438035527, 279.5701492942927 282.6304017274472, 278.4818337862291 282.17364378139075 C277.3935182781655 281.7168858353343, 276.6755099963058 278.7972293521444, 275.62838611669935 277.3763890386205 C274.5812622370929 275.9555487250966, 272.465684852853 275.0761804437385, 272.1990905085904 273.64860190024734 C271.93249616432786 272.2210233567562, 273.12065097070786 269.7464020244687, 274.02882005112394 268.81091777767364 C274.93698913154003 267.8754335308786, 276.91966821643825 268.44439537897836, 277.6481049910868 268.0356964194769 C278.3765417657354 267.6269974599754, 278.05740850679615 266.32081044588307, 278.39944069901526 266.3587240206647" stroke="#000000" stroke-width="1.4" fill="none"></path></g><g><path d="M279.7077732867021 287.4625798905986 C280.56101781432426 292.2442726482989, 279.86453849155123 297.7172174057763, 279.3688554699722 304.23040214113905 M280.83196774930923 287.80871108076366 C279.7234201633752 293.2611833675047, 279.6568520644631 296.54466661398317, 279.8469592673395 306.8423177796399" stroke="#000000" stroke-width="1.2" fill="none"></path></g><g><path d="M511.92637419063567 259.5089887534331 C511.92637419063567 259.5089887534331, 511.92637419063567 259.5089887534331, 511.92637419063567 259.5089887534331 M511.92637419063567 259.5089887534331 C511.92637419063567 259.5089887534331, 511.92637419063567 259.5089887534331, 511.92637419063567 259.5089887534331 M515.6845668543874 268.94523537884675 C518.295435367193 265.2020142551986, 519.3901095095819 262.94738543393237, 526.0073628688029 256.1002886886722 M515.3672785926182 267.91397169801934 C518.3219599204701 264.24540714089125, 522.2305192480057 259.67102072610834, 525.0383249388692 256.1261867185628" stroke="none" stroke-width="1" fill="none"></path><path d="M520.5259809884925 254.48272057433084 C522.0237663434516 254.496656874025, 524.1111534169906 255.1744363325722, 525.3689472438077 256.40843479309467 C526.6267410706248 257.6424332536171, 527.8919728989105 260.15731817984863, 528.0727439493952 261.88671133746556 C528.2535149998799 263.6161044950825, 527.3879094817112 265.4240839071093, 526.4535735467163 266.78479373879605 C525.5192376117213 268.1455035704828, 524.2453243872659 269.6270388228907, 522.4667283394253 270.05097032758584 C520.6881322915848 270.474901832281, 517.4028070911886 270.21044965302667, 515.7819972596727 269.32838276696697 C514.1611874281568 268.44631588090726, 513.3598996075127 266.4234033590426, 512.74186935033 264.7585690112278 C512.1238390931474 263.093734663413, 511.4911873345112 260.8177448734416, 512.0738157165766 259.33937668007815 C512.656444098642 257.8610084867147, 514.6501218957367 256.6683998018542, 516.2376396427226 255.88835985104723 C517.8251573897085 255.10831990024028, 520.7222612116225 254.90070027662475, 521.5989221984923 254.65913697523638 C522.4755831853622 254.417573673848, 521.4247250594258 254.39293175945858, 521.4976055639421 254.438980042717 M520.1015273528236 254.49093829300566 C521.709294334024 254.07270615969557, 523.4816102107762 254.24308601101194, 524.6720780276165 255.32779290920286 C525.8625458444568 256.4124998073938, 526.8185167898191 259.1863047680969, 527.2443342538654 260.99917968215124 C527.6701517179117 262.8120545962056, 528.029236978285 264.63547095166865, 527.2269828118943 266.2050423935289 C526.4247286455037 267.7746138353892, 523.9101584453546 269.8348003779797, 522.4308092555218 270.4166083333128 C520.951460065689 270.9984162886459, 519.906415354864 270.540489842919, 518.3508876728978 269.6958901255274 C516.7953599909316 268.8512904081358, 514.271884220883 266.7953537692738, 513.097643163725 265.3490100289633 C511.9234021065671 263.90266628865277, 511.03201581868586 262.3527629345298, 511.3054413299501 261.0178276836644 C511.57886684121434 259.682892432799, 513.539334268193 258.4439807589335, 514.7381962313106 257.339398523771 C515.9370581944281 256.23481628860856, 517.7759023362266 254.89705057962755, 518.4986131086555 254.3903342726895 C519.2213238810843 253.88361796575145, 518.7162015702519 254.3439646428343, 519.0744608658838 254.29910068214275" stroke="#CC3333" stroke-width="2" fill="none"></path></g><g><path d="M521.1081643366236 279.38981060332225 C518.9368478326793 284.5987377975098, 518.0054070470663 292.6064369772964, 520.6881131600827 299.2716353046499 M519.0365482414272 277.28088979220877 C519.5463156943108 283.17631720989783, 519.8525399186733 290.43228478957366, 519.2426217019379 299.3769624399181" stroke="#CC3333" stroke-width="1.6" fill="none"></path></g><g><path d="M511.5838830383351 285.7617108897122 C501.19637058309536 288.27644849816664, 492.1134318781424 291.0797621415302, 480.6927822385758 295.49104615753686 M509.274607000789 285.08055081453404 C503.2819302343756 286.6956601206857, 496.6810386892107 289.3405443839688, 480.0048852907956 294.76755180304224" stroke="#CC3333" stroke-width="1.4" fill="none"></path></g><g><path d="M379.87983489204584 330.6519183672368 C383.85665836583706 329.75184129779603, 388.8447132457742 330.2871767916474, 395.1163742026263 330.0407686151893 M379.6950171506707 330.11836411820417 C383.81410507117 329.95904808674885, 387.6875311725437 330.0238917223958, 396.1928658538756 330.10456533836475 M396.8228366349903 330.02823269443655 C396.35077262982367 333.6124188454911, 396.415392034107 338.42158310905734, 395.665942121236 346.7270314714841 M395.52640718163065 330.274686163222 C395.95402831871024 334.8684535406154, 396.20117630751025 339.35048100913235, 396.3034421177488 346.4030965073604 M395.426821187517 345.33479436641755 C390.72058073692324 346.36199671875187, 385.94152938155554 346.4215001043866, 380.2699031069993 345.70543536285237 M396.2107411907711 346.42910502074113 C389.8092173210144 346.34053616086885, 384.87929002041415 345.9156997969549, 379.6806554065102 346.0759538800732 M380.08266846104243 346.56041292592886 C380.2114507798231 341.5772823501159, 379.2413756281914 338.81144307972176, 379.63334097236947 329.1273175495338 M380.41132259973887 346.14306952951415 C379.99089785405016 339.4251983761287, 379.63332110634184 333.4032669526923, 380.3054183957229 329.72703284324666" stroke="#000000" stroke-width="1.4" fill="none"></path></g><g><path d="M383.1166494685893 334.3632354129816 C383.1166494685893 334.3632354129816, 383.1166494685893 334.3632354129816, 383.1166494685893 334.3632354129816 M383.1166494685893 334.3632354129816 C383.1166494685893 334.3632354129816, 383.1166494685893 334.3632354129816, 383.1166494685893 334.3632354129816 M385.45642801059006 336.2366671261367 C385.6105723152837 336.0712952812968, 385.80808309868104 335.89756270646626, 385.9387374505964 335.623048641436 M385.42697068315806 336.294441360848 C385.5700600213169 336.18008833815736, 385.75111278010115 335.92058566096864, 386.05781202082 335.59029130367963" stroke="none" stroke-width="0.4" fill="none"></path><path d="M384.443260906567 333.6008249635593 C384.71379563531934 333.7104281547606, 385.1656132091885 334.6046471512538, 385.3963214948547 334.8102044223665 C385.6270297805209 335.0157616934792, 385.6742213728046 334.5122640571615, 385.82751062056417 334.83416859023544 C385.98079986832374 335.1560731233094, 386.4450829144343 336.4102834193809, 386.31605698141203 336.7416316208101 C386.18703104838977 337.0729798222393, 385.2747985159875 336.8404812151258, 385.0533550224307 336.8222577988107 C384.8319115288739 336.8040343824956, 385.23981070600007 336.8512146890189, 384.9873960200711 336.6322911229195 C384.73498133414216 336.41336755682016, 383.7981616485876 335.9472824966159, 383.53886690685704 335.5087164022146 C383.27957216512647 335.07015030781326, 383.2631463506326 334.09049662261475, 383.4316275696876 334.0008945565117 C383.60010878874255 333.91129249040864, 384.2477815207642 334.97513033058516, 384.5497542211868 334.9711040055962 C384.8517269216094 334.96707768060725, 385.17668738488277 333.9548577639757, 385.24346377222327 333.9767366065781 C385.31024015956376 333.9986154491804, 384.77617758147693 334.95125474088195, 384.95041254522977 335.10237706121035 M384.2325785595856 333.198679641105 C384.8759409206879 333.2265012677334, 387.15793267654755 333.1328966047599, 387.3641169188733 333.56764204974456 C387.5703011611991 334.00238749472925, 385.9168184847303 335.5374447963128, 385.46968401354036 335.8071523110132 C385.0225495423504 336.07685982571365, 384.65103554676364 335.38620469706973, 384.6813100917337 335.18588713794713 C384.7115846367037 334.98556957882454, 385.70732373349426 334.57874341148755, 385.6513312833606 334.60524695627754 C385.59533883322695 334.63175050106753, 384.4788154921042 335.16645313191486, 384.3453553909318 335.3449084066872 C384.21189528975935 335.5233636814595, 384.6420257459709 335.8651563428427, 384.8505706763262 335.67597860491134 C385.0591156066815 335.48680086698, 385.44349182825493 334.5175247797556, 385.5966249730636 334.2098419790991 C385.7497581178723 333.9021591784426, 385.7978493150394 334.0815012487033, 385.7693695451784 333.8298818009725 C385.7408897753174 333.57826235324166, 385.24448031327483 332.76414526614053, 385.42574635389764 332.7001252927142 C385.60701239452044 332.6361053192878, 387.1141496142211 333.32261757707374, 386.85696578891515 333.4457619604145" stroke="#000000" stroke-width="0.8" fill="none"></path></g><g><path d="M389.4954238441652 341.23323237454053 C389.4954238441652 341.23323237454053, 389.4954238441652 341.23323237454053, 389.4954238441652 341.23323237454053 M389.4954238441652 341.23323237454053 C389.4954238441652 341.23323237454053, 389.4954238441652 341.23323237454053, 389.4954238441652 341.23323237454053" stroke="none" stroke-width="0.4" fill="none"></path><path d="M390.65714079353523 340.9848894116961 C390.8840888112762 341.087757033003, 391.004425956006 340.60325651746587, 391.2032191626916 340.5910239673 C391.4020123693772 340.5787914171341, 391.8478483309823 340.6446541784125, 391.8499000336488 340.9114941107009 C391.8519517363153 341.1783340429893, 391.2173514015414 341.9346472682108, 391.21552937869063 342.1920635610304 C391.21370735583986 342.44947985385, 391.818158576522 342.52012604868384, 391.8389678965442 342.4559918676184 C391.8597772165664 342.391857686553, 391.4641601781401 342.09730702613865, 391.3403852988239 341.80725847463793 C391.2166104195077 341.5172099231372, 391.4072239948254 340.8074467502035, 391.0963186206468 340.71570055861423 C390.7854132464682 340.62395436702496, 389.54540678294956 341.1632195110376, 389.4749530537523 341.25678132510234 C389.40449932455505 341.3503431391671, 390.44581679302695 341.54168631542603, 390.6735962454632 341.2770714430025 C390.9013756978995 341.012456570579, 390.6141608202885 339.85812470480914, 390.8416297683698 339.6690920905612 C391.0690987164511 339.4800594763133, 392.090556354163 340.15403836865545, 392.03840993395113 340.14287575751507 M390.83897198671434 341.1435709993277 C391.2388036608873 341.02399613635276, 391.2583907811104 340.11731269494, 391.3324479316933 339.98596899735037 C391.4065050822762 339.85462529976076, 390.9352732293247 340.05074496519563, 391.28331489021195 340.3555088137902 C391.6313565510992 340.6602726623848, 393.21816358514326 341.80723573355505, 393.4206978970169 341.8145520889178 C393.62323220889056 341.8218684442806, 392.8674718849762 340.3646819252304, 392.4985207614538 340.39940694596675 C392.12956963793135 340.4341319667031, 391.7218424681214 341.9111428620841, 391.2069911558822 342.0229022133358 C390.69213984364296 342.1346615645875, 389.65605448168446 341.3595341326513, 389.40941288801855 341.069963053477 C389.16277129435264 340.78039197430274, 389.8560467705442 340.3802471693035, 389.7271415938867 340.2854757382903 C389.5982364172292 340.1907043072771, 388.30050275911736 340.68487148865495, 388.6359818280737 340.5013344673976 C388.97146089703 340.3177974461403, 391.25281115746674 339.26102097958955, 391.74001600762466 339.1842536107464 C392.2272208577826 339.10748624190325, 391.6083963895607 340.0053376805844, 391.55921092902133 340.0407302543386" stroke="#000000" stroke-width="0.8" fill="none"></path></g><g><path d="M489.50899444622036 290.27320084071164 C428.69289357780724 292.34775051781014, 366.83223812696497 293.8011312426842, 299.8197458820377 295.5291036586957 M490.24707163277003 290.0753784020233 C422.38825216148643 291.8045841015903, 355.2385581647746 293.2504225659012, 300.34599264394126 294.6313897856268" stroke="#CC3333" stroke-width="0.8" fill="none"></path></g><g><path d="M495.30874471305464 275.19601175733493 C445.19867559006093 275.29707402345053, 397.2728217886997 277.43355988800937, 295.62313736430144 280.01895103842014 M495.2125175035891 275.2029566955616 C431.4126062936751 275.9987984115521, 367.58286452048884 277.7826032197815, 294.6419593095769 280.20622127027275" stroke="#CC3333" stroke-width="0.8" fill="none"></path></g><text x="400" y="560" text-anchor="middle" font-family="sans-serif" font-size="16" fill="#222" font-style="italic">"See the setup before you're at the table with loaded dice."</text></svg>