<?xml version="1.0" encoding="UTF-8"?>
<svg width="800" height="600" viewBox="0 0 800 600" xmlns="http://www.w3.org/2000/svg"><rect width="800" height="600" fill="#FFFFFF"></rect><g><path d="M120.02188317397513 160.02253571263677 C119.92256288642085 213.56310698820263, 119.66803007025504 266.1184231869546, 119.62639087728398 379.63775613872525 M119.81643038715204 159.81309343275623 C119.86953104898066 233.3772112372557, 120.24271332801986 306.85903019250793, 119.90249496737678 379.95863374169414" stroke="#000000" stroke-width="0.5" fill="none"></path></g><g><path d="M200.3263239304542 160.04492953063138 C200.79953058068935 231.53758489993444, 200.75242288284454 301.8797156140949, 199.70050603677666 380.2782755072699 M199.75241355952502 159.99618699257996 C199.87151412252993 246.40034490382695, 199.62004057530555 332.78655279357105, 199.86811694385102 379.91973394504345" stroke="#000000" stroke-width="0.5" fill="none"></path></g><g><path d="M280.2947226139635 160.15049146828406 C279.7746210334177 219.30115244375108, 280.2263528046783 279.07167133015867, 280.5117523527392 380.50017599311496 M280.2210064842952 160.09576647062642 C279.58852852876345 212.55730702407072, 279.4450771826363 264.9143885671661, 280.0421684078325 380.1832504334865" stroke="#000000" stroke-width="0.5" fill="none"></path></g><g><path d="M359.5818053486295 160.10116222861515 C359.918218879336 214.74237183755085, 359.60703905884765 269.9522814383528, 359.77042436165675 380.3317777743431 M360.14672036709 160.18660424579966 C359.95631868994514 223.77442875923123, 359.8820743847448 287.21846595023277, 360.08372252681585 379.8142973370231" stroke="#000000" stroke-width="0.5" fill="none"></path></g><g><path d="M440.07436069880015 160.16139673603806 C439.55032734232856 204.6526635790469, 439.740272324013 248.41617345515883, 439.87440368483203 380.30929742357023 M439.809581047449 160.1934306529931 C439.9549418053508 238.93780176795065, 439.93648869737933 317.5596537033932, 439.9612587765453 379.7745822303705" stroke="#000000" stroke-width="0.5" fill="none"></path></g><g><path d="M520.5183426273854 159.75718292927345 C520.3591018578046 246.63682871649917, 519.8471224703924 333.6457798128122, 519.9628530334791 379.5191235574913 M520.1542686358936 159.80198219505593 C520.0080456342171 213.36995498325336, 519.9674512612073 267.20451732073747, 519.8106578111642 380.0391596304273" stroke="#000000" stroke-width="0.5" fill="none"></path></g><g><path d="M119.78635475705643 180.19276054049186 C278.62027920764154 180.42423053710652, 436.761386197821 180.7696969784244, 520.2016515622967 179.86430004844775 M119.94921211463216 179.89304676239573 C242.8142065556836 180.2633764788974, 365.412698344 180.40141257811814, 520.0570269883543 180.03306462108225" stroke="#000000" stroke-width="0.5" fill="none"></path></g><g><path d="M120.16237747610398 229.88253508493779 C259.60943633990297 229.94082474038402, 398.90318947557193 229.884391889937, 519.8768184912187 230.06669580386725 M120.02821437205215 230.00633948732488 C252.22350778672012 230.20475370677815, 384.3771241047809 230.202383266431, 519.9858629119362 230.06303396671126" stroke="#000000" stroke-width="0.5" fill="none"></path></g><g><path d="M119.73565138949589 279.7537279813405 C238.11760060763547 280.02406682954495, 355.80058181772023 280.01605142177885, 520.1417894624472 280.10358187433496 M120.13635928636658 279.9055335459957 C207.96161198053318 280.17013826259324, 296.29210000379084 280.033672217853, 520.126907115338 279.8894634608683" stroke="#000000" stroke-width="0.5" fill="none"></path></g><g><path d="M120.2614005797573 329.9360460301387 C209.29228878599324 329.4498037451521, 298.29644484698787 329.06025891505004, 520.2909307534867 329.8926625628341 M119.97156557089968 330.0603144359739 C250.10364333599875 330.69599228204066, 380.29289527263836 330.69921538389036, 519.9476264468015 329.8696349143667" stroke="#000000" stroke-width="0.5" fill="none"></path></g><g><path d="M119.89379529707882 379.84191226800937 C275.9780918349952 379.98933445317556, 432.38921599168793 380.4058653553083, 520.05476462986 379.98473244198584 M119.98438555222013 379.86113897579645 C269.97205054809604 380.4938278615403, 420.239170045056 380.23649405753287, 519.9981255831859 379.91778760085595" stroke="#000000" stroke-width="0.5" fill="none"></path></g><g><path d="M336.9761089574813 261.1285506372828 C336.9761089574813 261.1285506372828, 336.9761089574813 261.1285506372828, 336.9761089574813 261.1285506372828 M336.9761089574813 261.1285506372828 C336.9761089574813 261.1285506372828, 336.9761089574813 261.1285506372828, 336.9761089574813 261.1285506372828 M337.4104964425743 280.71853206957843 C341.157017381798 273.99700153996235, 346.7228277658297 264.09037594690807, 356.8121654402348 256.10784779106973 M338.03995546435965 279.4498748831202 C342.45253844670646 273.1282289906844, 349.2475189541528 266.1480659852353, 358.0260556664388 255.22890717018072 M349.7330609481119 284.4930910851887 C352.089044395345 277.6143883056508, 361.097496612131 272.66790392805734, 363.2368643927787 264.4930208276211 M349.3272893691592 284.529083919831 C351.8751531869067 280.19036571963414, 354.2491440074449 277.1774776995478, 365.3497585912963 264.9302317211708" stroke="none" stroke-width="1.5" fill="none"></path><path d="M357.3246734654059 255.78625892799334 C360.2722714082629 257.0360781233315, 363.0380635015046 260.2378794389702, 364.3505319475608 263.32742018901274 C365.663000393617 266.4169609390553, 366.1428611648428 271.01914092343407, 365.19948414174314 274.3235034282485 C364.25610711864346 277.62786593306294, 361.59610517377087 281.4719998404757, 358.6902698089626 283.15359521789946 C355.7844344441544 284.83519059532324, 351.08276874054604 284.71103662308445, 347.76447195289353 284.4130756927911 C344.446175165241 284.11511476249774, 340.9430988351477 283.5919156275985, 338.7804890830476 281.3658296361393 C336.6178793309475 279.13974364468015, 335.09035458131876 274.4285064902434, 334.78881344029287 271.05655974403606 C334.487272299267 267.6846129978287, 335.13040947565884 263.8495523126921, 336.9712422368922 261.1341491588953 C338.8120749981255 258.4187460050985, 342.37304373575176 255.44932737684465, 345.833810007693 254.76414082125527 C349.2945762796342 254.07895426566589, 355.6653129344162 256.5350931807227, 357.7358398685394 257.023029825359 C359.80636680266264 257.5109664699953, 358.3933538281276 257.61444484121523, 358.2569716124322 257.69176068907313 M354.9822940151229 254.77616298608217 C357.88734724230324 255.74496090831974, 362.5822534809158 258.34689032575693, 364.0480197575943 261.486336749596 C365.5137860342728 264.625783173435, 364.6236630439576 270.06287130913023, 363.77689167519367 273.6128415291163 C362.9301203064297 277.16281174910233, 361.17499725435505 280.7185338697774, 358.9673915450106 282.7861580695123 C356.7597858356662 284.8537822692472, 353.7581948798232 286.43004935101504, 350.53125741912714 286.0185867275257 C347.3043199584311 285.60712410403636, 342.2835484331761 282.8761599036268, 339.6057667808344 280.31738232857623 C336.9279851284927 277.7586047535257, 334.6433404735463 273.7966312923171, 334.4645675050769 270.6659212772225 C334.2857945366075 267.53521126212786, 336.7766237860087 264.100876614708, 338.53312897001797 261.5331222380084 C340.2896341540272 258.9653678613088, 342.1257140623021 256.1833259238651, 345.0035986091324 255.25939501702473 C347.88148315596266 254.33546411018438, 354.1867305451809 255.84262001867143, 355.8004362509997 255.98953679696626 C357.4141419568185 256.1364535752611, 354.6520863285374 255.99927301213714, 354.685832844045 256.1408956867937" stroke="undefined" stroke-width="3" fill="none"></path></g><g><path d="M346.2450472630369 261.23583781984627 C346.2450472630369 261.23583781984627, 346.2450472630369 261.23583781984627, 346.2450472630369 261.23583781984627 M346.2450472630369 261.23583781984627 C346.2450472630369 261.23583781984627, 346.2450472630369 261.23583781984627, 346.2450472630369 261.23583781984627 M343.296543419746 277.40366031900766 C346.5363822185514 272.45333967664965, 348.7543803439589 267.9984601163661, 354.14131284570277 263.2633804168649 M344.08123679031945 277.14379090343493 C346.41591310318836 271.74308831321116, 350.0238322932792 268.9896419539682, 355.3650671811881 263.2399929506171 M349.9377103562601 280.3370308660179 C353.1381204942567 279.12154002089096, 358.35312824313485 274.38295182044334, 361.0539583913577 265.98804256498556 M349.40728375859 282.3549078808497 C352.70528045975055 278.8746607407422, 355.5475731391711 274.29437430935064, 362.9477412863839 267.1085588181249" stroke="none" stroke-width="1" fill="none"></path><path d="M345.9892917836689 261.5300508432849 C347.8298964427791 260.4844566981693, 350.18624370268924 260.2831384565618, 352.272160732897 260.757248903954 C354.3580777631048 261.2313593513462, 357.1049372686078 262.6216663692077, 358.5047939649155 264.374713527638 C359.90465066122323 266.1277606860683, 360.6583553129788 269.27491525701157, 360.6713009107434 271.2755318545361 C360.684246508508 273.2761484520606, 359.98559401386086 275.103404964742, 358.582467551503 276.37841311278527 C357.1793410891451 277.6534212608285, 354.71578944386505 278.657796681741, 352.25254213659616 278.92558074279543 C349.7892948293273 279.1933648038499, 345.75164055630285 278.86463865881836, 343.80298370788967 277.98511747911203 C341.8543268594765 277.1055962994057, 340.9959563310328 275.43488263449495, 340.5606010461172 273.64845366455734 C340.1252457612016 271.8620246946197, 340.40536233747616 269.16684990097497, 341.19085199839606 267.2665436594863 C341.97634165931595 265.3662374179976, 344.42487940455567 263.35168512232485, 345.27353901163656 262.2466162156251 C346.12219861871745 261.1415473089254, 346.08372593402635 260.5743148251257, 346.28280964088157 260.63613021928785 M350.4903651108789 259.67056381087104 C352.33009395390917 259.77581984814196, 354.3654601134382 260.5217431096257, 356.0351793176055 262.2266694351139 C357.70489852177286 263.9315957606021, 360.29893929717036 267.73630684182365, 360.508680335883 269.9001217638002 C360.71842137459566 272.06393668577675, 358.6675041772205 273.67602038601785, 357.29362554988154 275.2095589669731 C355.9197469225426 276.7430975479283, 354.0053176664011 278.76675367324714, 352.2654085718492 279.1013532495317 C350.52549947729733 279.4359528258163, 348.58313076476804 278.2266725664513, 346.85417098257034 277.2171564246805 C345.12521120037263 276.2076402829097, 342.84478053007984 274.3927269495282, 341.891649878663 273.04425639890695 C340.9385192272461 271.6957858482857, 340.64018215357424 271.08322046966686, 341.13538707406906 269.12633312095323 C341.6305919945639 267.1694457722396, 343.4356436596952 262.79029361622315, 344.862879401632 261.3029323066253 C346.29011514356876 259.8155709970274, 348.80392584509616 260.39333396443453, 349.69880152568965 260.20216526336594 C350.59367720628313 260.01099656229735, 350.0165951172617 260.0441689373469, 350.23213348519306 260.1559201002139" stroke="undefined" stroke-width="2" fill="none"></path></g><g><path d="M348.2394614234385 266.9445945792427 C348.2394614234385 266.9445945792427, 348.2394614234385 266.9445945792427, 348.2394614234385 266.9445945792427 M348.2394614234385 266.9445945792427 C348.2394614234385 266.9445945792427, 348.2394614234385 266.9445945792427, 348.2394614234385 266.9445945792427" stroke="none" stroke-width="1.25" fill="none"></path><path d="M350.4896767040561 267.08805000754575 C351.1108987585704 266.98692076221533, 350.2451915833756 267.6192047106071, 350.75247639302427 267.9073505246296 C351.25976120267296 268.19549633865205, 353.095358327663 268.22595025993894, 353.5333855619481 268.8169248916806 C353.97141279623315 269.4078995234223, 353.67072690858976 270.7142650127536, 353.38063979873476 271.4531983150799 C353.09055268887977 272.1921316174062, 352.5766197887891 273.0434545535008, 351.79286290281806 273.25052470563827 C351.009106016847 273.45759485777575, 349.22324364379426 272.9521267954955, 348.6780984829083 272.6956192279047 C348.13295332202233 272.43911166031387, 348.9237354154146 272.0808071869101, 348.52199193750243 271.7114793000934 C348.12024845959024 271.3421514132767, 346.3181038957422 271.2702469088939, 346.2676376154353 270.47965190700455 C346.21717133512846 269.6890569051152, 347.6592895792545 267.5652140364563, 348.21919425566136 266.9679092887574 C348.7790989320682 266.3706045410585, 349.1063677892761 266.95125288562235, 349.62706567387664 266.8958234208111 C350.1477635584772 266.84039395599984, 351.2644030671033 266.63170632447225, 351.3433815632647 266.6353324998899 M349.45308706722204 266.45344842981234 C349.6101507223879 265.749452908633, 349.19472620125424 265.68387326286506, 349.9366065687097 266.05226866916985 C350.67848693616514 266.42066407547463, 353.62774675002044 267.8031129210915, 353.90436927195464 268.663820867641 C354.18099179388884 269.5245288141905, 351.8570830480474 270.7521713124729, 351.596341700315 271.21651634846694 C351.3356003525826 271.68086138446097, 352.4448698816531 271.21352680413696, 352.3399211855604 271.4498910836052 C352.2349724894677 271.6862553630735, 351.5419540060798 272.39863153000863, 350.96664952375875 272.6347020252766 C350.3913450414377 272.8707725205446, 349.37975978128594 273.26453057562844, 348.88809429163433 272.866314055213 C348.3964288019827 272.4680975347976, 348.3382820525907 271.044215816806, 348.016656585849 270.24540290278395 C347.6950311191072 269.4465899887619, 347.07497577720983 268.54134814472377, 346.9583414911837 268.0734365710806 C346.8417072051576 267.60552499743744, 346.7935281907634 267.34732748275223, 347.3168508696925 267.43793346092514 C347.8401735486215 267.52853943909804, 349.67336018737365 268.4300466580404, 350.0982775647579 268.6170724401179" stroke="undefined" stroke-width="2.5" fill="none"></path></g><g><path d="M155.90252590367618 188.52451789406888 C155.90252590367618 188.52451789406888, 155.90252590367618 188.52451789406888, 155.90252590367618 188.52451789406888 M155.90252590367618 188.52451789406888 C155.90252590367618 188.52451789406888, 155.90252590367618 188.52451789406888, 155.90252590367618 188.52451789406888 M159.82104131032617 193.14691732739553 C161.49560656463896 191.58302419916964, 163.33833474256295 189.0328530235616, 165.17700977897215 186.43084580476466 M159.31390445105654 194.26476793582017 C161.5275145814575 191.59018328051633, 163.54886831504845 188.69878994434836, 164.96580611443082 186.8159937048278" stroke="none" stroke-width="0.7" fill="none"></path><path d="M159.241306493758 185.01344762626516 C160.14850244453194 184.7717341579477, 160.745380817254 185.35086722136214, 161.60536768201092 185.7266182035525 C162.46535454676786 186.10236918574287, 163.87132851120455 186.4268970479323, 164.40122768229963 187.26795351940737 C164.93112685339472 188.10900999088244, 164.96160186110234 189.7451134735516, 164.78476270858138 190.77295703240287 C164.60792355606043 191.80080059125413, 164.23472733426505 192.87863645629275, 163.3401927671739 193.43501487251487 C162.44565820008276 193.991393288737, 160.5869757358381 194.17884740715107, 159.4175553060345 194.11122752973557 C158.2481348762309 194.04360765232008, 157.1264391062224 193.61367804288756, 156.3236701883522 193.02929560802184 C155.520901270482 192.44491317315612, 154.61812220661534 191.41671058783703, 154.60094179881338 190.60493292054127 C154.58376139101142 189.79315525324552, 155.51774227529395 188.9840025843398, 156.22058774154038 188.15862960424724 C156.92343320778681 187.33325662415467, 158.43398778829922 186.20024006698742, 158.81801459629196 185.65269503998596 C159.2020414042847 185.1051500129845, 158.55554035453568 184.96022929017187, 158.5247485894968 184.8733594422385 M159.10684860570578 184.51938393389216 C159.99848324338885 184.4339565938602, 162.4316336613178 184.63359281820067, 163.19516349883702 185.53682098366951 C163.95869333635625 186.44004914913836, 163.52979101877526 188.9096639490754, 163.6880276308212 189.9387529267052 C163.84626424286716 190.96784190433502, 164.3198260500569 191.10354233213957, 164.14458317111283 191.71135484944833 C163.96934029216877 192.31916736675709, 163.4811352191931 193.02861578109065, 162.6365703571568 193.58562803055779 C161.79200549512052 194.14264028002492, 159.99742898341418 195.30280586580983, 159.07719399889515 195.05342834625117 C158.15695901437613 194.8040508266925, 157.81580358995228 192.8627357279568, 157.11516045004265 192.08936291320578 C156.41451731013302 191.31599009845476, 155.1937616497425 191.0617544283307, 154.87333515943743 190.4131914577451 C154.55290866913236 189.76462848715954, 154.63548753623775 189.30378032062555, 155.1926015082122 188.19798508969234 C155.74971548018664 187.09218985875913, 157.76731231199537 184.20129681838506, 158.2160189912841 183.7784200721458 C158.66472567057284 183.35554332590652, 157.91612716675863 185.1760291674553, 157.88484158394456 185.66072461225681" stroke="#000000" stroke-width="1.4" fill="none"></path></g><g><path d="M170.80908371103644 200.92300323065484 C216.60730447223054 214.79199774335706, 263.60072142441044 230.38103833797922, 324.25174233039525 249.6299018637918 M169.97125774946758 199.7731651242229 C226.49285113570517 218.96849372005445, 282.41512121566626 236.5798546536884, 325.40997471019944 249.66305310833036" stroke="#000000" stroke-width="1.2" fill="none"></path></g><g><path d="M494.5444040252365 347.75008609274147 C494.5444040252365 347.75008609274147, 494.5444040252365 347.75008609274147, 494.5444040252365 347.75008609274147 M494.5444040252365 347.75008609274147 C494.5444040252365 347.75008609274147, 494.5444040252365 347.75008609274147, 494.5444040252365 347.75008609274147 M497.33452264432947 354.76790517638125 C499.94429050529516 351.896458739415, 501.7824156871942 348.8611520375358, 502.6668648774566 347.75631089025535 M496.9719861293986 353.5452027437467 C499.0244969670456 351.4907814449212, 501.32683248512046 349.1559705245243, 502.8546738368124 347.09544166551854" stroke="none" stroke-width="0.7" fill="none"></path><path d="M497.9020566647127 344.86175822572244 C498.7820635203043 344.39635280385926, 501.30151683404137 344.1934560826255, 502.2180397650259 344.5956185776215 C503.1345626960104 344.9977810726175, 502.9489845357581 346.1785510968092, 503.40119425061965 347.27473319569833 C503.8534039654812 348.37091529458746, 504.94866002394025 350.2693259392311, 504.9312980541954 351.17271117095646 C504.91393608445054 352.0760964026818, 504.1229372487645 351.9760195439312, 503.2970224321504 352.69504458605047 C502.4711076155363 353.4140696281697, 500.91860294484303 355.24606375094004, 499.97580915451067 355.4868614236721 C499.0330153641783 355.7276590964042, 498.6034872289292 354.95545093163196, 497.64025969015637 354.13983062244273 C496.6770321513835 353.3242103132535, 494.66294126461406 351.71501561005203, 494.19644392187337 350.59313956853657 C493.7299465791327 349.4712635270211, 494.1661023804395 348.38807950031816, 494.8412756337123 347.40857437334995 C495.51644888698513 346.42906924638174, 497.6331848122047 345.1579484351966, 498.2474834415102 344.7161088067272 C498.8617820708157 344.27426917825784, 498.33979171011015 344.5644616886885, 498.5270674095454 344.7575366025337 M496.6367894204983 345.9216547189155 C497.60540196519906 345.24255454646425, 501.18744186793134 344.40477684830546, 502.4316372268075 344.8493114279905 C503.6758325856836 345.2938460076755, 503.4384864049096 347.4251563368726, 504.10196157375526 348.5888621970254 C504.7654367426009 349.75256805717817, 506.7524237540516 350.9374090869628, 506.4124882398815 351.8315465889071 C506.0725527257114 352.72568409085136, 503.1613970183782 353.5889571224221, 502.0623484887346 353.95368720869106 C500.963299959091 354.31841729496006, 500.5640225930911 354.03607165092683, 499.8181970620198 354.019927106521 C499.0723715309485 354.00378256211513, 498.57723870933745 354.26849337919174, 497.5873953023068 353.856819942256 C496.5975518952761 353.4451465053202, 494.0572610595527 352.49762143197586, 493.8791366198357 351.5498864849065 C493.70101218011877 350.60215153783713, 495.9365748555706 349.3073192564379, 496.51864866400507 348.17041025983985 C497.10072247243954 347.0335012632418, 496.8977129845209 345.24042377885354, 497.3715794704426 344.72843250531827 C497.8454459563643 344.216441231783, 499.3268015105272 344.8728325646856, 499.36184757953504 345.0984626186281" stroke="#000000" stroke-width="1.4" fill="none"></path></g><g><path d="M489.2672374346104 340.8872325569503 C445.43811817333545 321.0789036758235, 401.96756766197507 301.23388497841063, 375.4731872515968 290.944910976247 M489.7489212917624 339.7724448253596 C457.43029321189584 325.45470966816214, 425.9077560367575 311.38743537498226, 375.02490020880475 289.603932507559" stroke="#000000" stroke-width="1.2" fill="none"></path></g><g><path d="M341.807796966416 209.67812722406535 C341.807796966416 209.67812722406535, 341.807796966416 209.67812722406535, 341.807796966416 209.67812722406535 M341.807796966416 209.67812722406535 C341.807796966416 209.67812722406535, 341.807796966416 209.67812722406535, 341.807796966416 209.67812722406535 M341.6026414919554 217.67014788067345 C344.1131048737835 213.9054151337206, 349.0694730924725 212.14288670269238, 353.56928817047697 207.75789053125544 M342.94893842856794 218.63000986921654 C345.10255637658616 214.3924432189345, 348.94568900554424 211.00415636105984, 351.7970847870727 206.61812183933588 M344.9256619705791 222.6289947846468 C350.2505555829546 217.55166116816608, 353.9894756585647 212.62309017013862, 359.39773802849965 210.8924915919505 M345.2816227123864 222.9279576925975 C349.4361142581569 219.7699228055189, 352.34769904152046 214.70801253053867, 357.2604558371027 209.11234527943986 M354.54652528876 223.0749149869194 C355.0765422236728 221.889877426795, 357.22565915255495 220.00876831187236, 359.5984613339328 216.59735908250474 M353.7811595764878 222.73760970200723 C355.85984010025027 220.52499444021095, 357.7061560063109 219.06453260751482, 359.4793349097284 216.89175798113757" stroke="none" stroke-width="0.75" fill="none"></path><path d="M346.1742543123968 205.77666770129755 C347.6057263825643 205.00048489596543, 350.4112345423408 205.87987229204452, 352.3162069875672 206.49415491632266 C354.22117943279363 207.1084375406008, 356.49852306662194 207.62401734442173, 357.6040889837554 209.4623634469663 C358.70965490088884 211.30070954951086, 359.1919941533728 215.54702931449927, 358.94960249036774 217.52423153158998 C358.7072108273627 219.50143374868068, 357.49305229717345 220.28122457867119, 356.1497390057251 221.32557674951047 C354.80642571427677 222.36992892034976, 352.81374176306804 223.51871203289895, 350.8897227416776 223.79034455662574 C348.96570372028714 224.06197708035253, 346.1123053906084 224.18980376703612, 344.60562487738247 222.9553718918712 C343.0989443641565 221.7209400167063, 342.3235851581187 218.5878376314305, 341.84963966232175 216.3837533056362 C341.3756941665248 214.1796689798419, 340.92720893715705 211.51254357373853, 341.76195190260074 209.73086593710542 C342.59669486804444 207.94918830047231, 345.56923535654937 206.2339278258352, 346.8580974549841 205.6936874858376 C348.1469595534188 205.15344714583998, 349.44909730013933 206.2294029020718, 349.4951244932092 206.48942389711976 M346.3005927120839 207.16037517604877 C348.0882289570613 206.72989835518592, 350.7327080599146 206.6934984379541, 352.37255969091655 207.2521510492054 C354.0124113219185 207.81080366045668, 354.99685312734704 209.23044387229703, 356.1397024980956 210.51229084355649 C357.2825518688441 211.79413781481594, 359.2179417523048 213.16465421751988, 359.2296559154079 214.94323287676207 C359.24137007851095 216.72181153600425, 357.6264266228775 219.84139423009987, 356.2099874767139 221.1837627990096 C354.79354833055027 222.52613136791933, 352.47723091318903 222.96356619951968, 350.73102103842604 222.9974442902205 C348.98481116366304 223.03132238092132, 347.48142920685575 222.2903224820991, 345.7327282281358 221.38703134321457 C343.9840272494158 220.48374020433005, 341.12226348816375 219.53666206457484, 340.2388151661062 217.5776974569133 C339.3553668440486 215.61873284925178, 339.5676163346048 211.59457315376258, 340.4320382957903 209.6332436972455 C341.29646025697576 207.6719142407284, 344.1881723333271 206.05476866127094, 345.425346933219 205.80972071781073 C346.66252153311086 205.56467277435053, 347.743758103823 208.1367665157821, 347.8550858951417 208.16295603648425" stroke="#000000" stroke-width="1.5" fill="none"></path></g><g><path d="M349.951826220462 214.22077891446446 C350.86734861283816 212.26762061950106, 349.9885942748682 208.52293911379894, 349.7915131264381 204.8568078483252 M349.9317712562052 214.53625487314278 C349.4548080449299 212.1700002566532, 349.672350287023 208.93866498895096, 350.1381125212461 205.0697045780932" stroke="#000000" stroke-width="1.2" fill="none"></path></g><g><path d="M349.483268358798 215.61898680798998 C352.25444415037 215.2390838633246, 355.04355340369256 215.30399188589948, 357.451803973519 215.21723730541862 M350.2675395477118 214.8220075838617 C351.7603647857408 214.70878062855343, 353.8847213400837 215.24850445768146, 357.74813388130013 214.99302107576187" stroke="#000000" stroke-width="1.2" fill="none"></path></g><g><path d="M522.1889057594511 175.67916180820785 C522.1889057594511 175.67916180820785, 522.1889057594511 175.67916180820785, 522.1889057594511 175.67916180820785 M522.1889057594511 175.67916180820785 C522.1889057594511 175.67916180820785, 522.1889057594511 175.67916180820785, 522.1889057594511 175.67916180820785 M523.0989045204666 183.9097013470272 C527.3202129402438 179.30777580053754, 531.1588522715547 176.379645382421, 534.7287440138466 173.34044275837522 M524.6690548577799 183.621958419585 C526.5793668511587 181.1752589605817, 528.6492774603433 179.2991381787846, 532.7467435703245 173.3678907545137 M529.8079553279428 187.97586559362665 C532.2158568256824 184.9878935889637, 535.324766351159 181.56826670368048, 537.4133582708944 177.23573814968117 M529.9755537097107 188.1252102388005 C533.4563948601166 184.46306211268185, 536.6663751632077 181.57506360770859, 538.5486960407674 178.13856170580385" stroke="none" stroke-width="0.9" fill="none"></path><path d="M526.5944815931567 172.58518948377798 C527.9730893629298 171.96510918562873, 530.7714122319787 172.8547427681986, 532.64016638487 173.2301261287 C534.5089205377612 173.60550948920138, 536.8670523709714 173.39893621245503, 537.8070065105039 174.8374896467864 C538.7469606500365 176.27604308111776, 538.6345545946385 180.01584252508442, 538.2798912220654 181.86144673468814 C537.9252278494923 183.70705094429186, 537.0090064092896 184.81711610264176, 535.6790262750656 185.91111490440866 C534.3490461408416 187.00511370617556, 532.066733560752 188.41467103855985, 530.3000104167215 188.4254395452895 C528.533287272691 188.43620805201914, 526.3763066901186 187.23218043143825, 525.0786874108823 185.97572594478646 C523.781068131646 184.71927145813467, 522.9807298923296 182.62028663897962, 522.5142947413034 180.8867126253788 C522.0478595902772 179.153138611778, 521.2991463201372 176.97081066982525, 522.2800765047253 175.57428186318162 C523.2610066893135 174.177753056538, 527.3028410734992 172.96655258167897, 528.3998758488324 172.50753978551697 C529.4969106241656 172.04852698935497, 529.0126407680932 172.69619388803935, 528.8622851567245 172.8202050862097 M531.0562474959706 173.4931612415558 C532.7389082960283 174.0108904546381, 536.441917752853 175.648103562881, 537.4618334399239 177.03952796906728 C538.4817491269948 178.43095237525355, 537.7079071656797 180.44193848510855, 537.1757416183962 181.84170767867352 C536.6435760711126 183.24147687223848, 535.363022262218 184.29759628583764, 534.2688401562225 185.43814313045715 C533.174658050227 186.57868997507666, 532.1727595169655 188.3306699364553, 530.6106489824234 188.6849887463906 C529.0485384478814 189.03930755632587, 526.5493485931236 188.8704146624844, 524.89617694897 187.56405599006888 C523.2430053048165 186.25769731765337, 521.2669785384059 182.66044800891484, 520.6916191175026 180.8468367118975 C520.1162596965993 179.03322541488018, 520.4110911434801 177.8372008884299, 521.4440204235506 176.68238820796483 C522.476949703621 175.52757552749978, 524.8418978381792 174.81293447930244, 526.8891947979255 173.91796062910714 C528.9364917576718 173.02298677891184, 532.756612526378 171.3267156812232, 533.7278021820284 171.31254510679304 C534.6989918376788 171.29837453236289, 532.9708093790032 173.51888231341832, 532.7163327318278 173.83293718252628" stroke="undefined" stroke-width="1.8" fill="none"></path></g><g><path d="M530.9305705428281 170.0885017673898 C531.3685453395598 174.29461591637076, 531.1801047412907 184.27502426505347, 531.4204365684287 189.40468811004442 M530.4778391323638 170.54225511255945 C530.8377974903975 174.68979708014564, 529.7183827705919 179.63039726322918, 529.0227225907913 190.3160401706456" stroke="undefined" stroke-width="1.5" fill="none"></path></g><g><path d="M525.6455217028026 174.03383256861642 C526.8463822105796 174.8995621405951, 529.8402426218287 173.97205969640746, 534.1031518202259 173.32092836277735 M525.0953453246815 173.5183419202996 C529.2372456484338 173.5808135390441, 532.3061019872048 174.11299174921263, 534.7262691537576 173.82643576874634" stroke="undefined" stroke-width="1.2" fill="none"></path></g><g><path d="M524.7878098313768 185.74767890825848 C526.9479863652589 185.2326944653365, 530.9828359765175 185.4080924395764, 534.7589931660665 186.16690166864038 M524.8433938493732 186.4364580841985 C526.7676203487365 185.85612477144684, 529.5577781116168 185.63823286955778, 534.7828756493267 186.07571441852627" stroke="undefined" stroke-width="1.2" fill="none"></path></g><text x="400" y="560" text-anchor="middle" font-family="sans-serif" font-size="16" fill="#222" font-style="italic">The solution isn't the best option — it's the most obvious one.</text></svg>