<?xml version="1.0" encoding="UTF-8"?>
<svg width="800" height="600" viewBox="0 0 800 600" xmlns="http://www.w3.org/2000/svg"><rect width="800" height="600" fill="#FFFFFF"></rect><g><path d="M114.6972494491631 156.68035652415585 C114.6972494491631 156.68035652415585, 114.6972494491631 156.68035652415585, 114.6972494491631 156.68035652415585 M114.6972494491631 156.68035652415585 C114.6972494491631 156.68035652415585, 114.6972494491631 156.68035652415585, 114.6972494491631 156.68035652415585 M116.07265945146692 162.72814477634097 C118.27825683584575 159.99854309302054, 120.15777285474537 157.73701189709666, 122.52168750974012 155.29692357520645 M116.26380863235865 162.78764496762815 C117.54630797303894 161.46775249010648, 118.53140843897715 159.12953357999987, 122.55660334102161 155.10214008818684 M120.53026960110455 166.23043255412807 C120.95608167184275 164.39748895791726, 122.23740963628083 163.05460755183984, 126.61147064056424 157.98647551348472 M119.62943871103516 165.8298778292608 C122.47673698567473 163.58902324161411, 124.6750281139517 160.562817173477, 126.27922294261367 158.3519741969262" stroke="none" stroke-width="0.6" fill="none"></path><path d="M121.96959996138709 154.9842752070621 C123.29731786770141 155.350521306502, 125.03565091566594 156.20662130460784, 125.75867751142077 157.14086665083153 C126.4817041071756 158.07511199705522, 126.50826349976431 159.3400946351627, 126.30775953591608 160.58974728440427 C126.10725557206784 161.83939993364584, 125.75872187271341 163.7464805185422, 124.55565372833135 164.63878254628102 C123.35258558394929 165.53108457401984, 120.5210521073015 165.7950511426682, 119.08935066962376 165.94355945083714 C117.65764923194601 166.09206775900608, 116.68481299495093 166.5181113808636, 115.96544510226491 165.52983239529462 C115.24607720957889 164.54155340972565, 114.94651508091943 161.532505480929, 114.77314331350757 160.0138855374233 C114.59977154609572 158.49526559391762, 114.17718939835459 157.57993899432935, 114.92521449779383 156.41811273426046 C115.67323959723308 155.25628647419157, 117.71565922798234 153.34430881267338, 119.26129391014304 153.04292797700995 C120.80692859230373 152.74154714134653, 123.33012819508767 154.11428111359055, 124.19902259075803 154.60982772028 C125.0679169864284 155.10537432696947, 124.69103193770727 155.93592061397501, 124.47466028416521 156.01620761714676 M124.0913633997211 155.53355527711216 C125.10094850489617 155.7557959117933, 124.78666797821504 155.81558387473476, 125.14843157956713 156.66527565193192 C125.51019518091923 157.5149674291291, 126.78062797085872 159.3781973952913, 126.26194500783372 160.63170594029512 C125.74326204480872 161.88521448529895, 123.10922877401127 163.463232063126, 122.03633380141717 164.1863269219548 C120.96343882882307 164.9094217807836, 120.93383326887485 164.84940141834582, 119.82457517226912 164.97027509326784 C118.71531707566339 165.09114876818987, 116.18012788787179 165.76162452508598, 115.38078522178283 164.91156897148693 C114.58144255569387 164.06151341788788, 115.20505675608547 161.25993142374716, 115.02851917573534 159.86994177167355 C114.85198159538521 158.47995211959994, 113.60879107663406 157.55548662214886, 114.32155973968203 156.5716310590452 C115.03432840273 155.58777549594151, 118.12346534326674 154.5473912564731, 119.30513115402317 153.96680839305145 C120.4867969647796 153.3862255296298, 121.03829047585154 153.08722355797397, 121.41155460422061 153.08813387851532 C121.78481873258968 153.08904419905667, 121.55525210778947 153.51551544371196, 121.54471592423762 153.97227031629964" stroke="#000000" stroke-width="1.2" fill="none"></path></g><g><path d="M184.69141799807565 156.57476127415387 C184.69141799807565 156.57476127415387, 184.69141799807565 156.57476127415387, 184.69141799807565 156.57476127415387 M184.69141799807565 156.57476127415387 C184.69141799807565 156.57476127415387, 184.69141799807565 156.57476127415387, 184.69141799807565 156.57476127415387 M185.5691092084243 162.92821982168132 C187.55418044676674 159.7311310803626, 188.94193807551144 159.21997298269858, 192.84769596813214 155.4695286495455 M185.80170663102757 163.09898129967291 C188.25529128855354 160.81363001970288, 190.1390048866285 157.73540389000817, 192.67738423299676 155.1423156130036 M189.40663218898092 164.8677394252091 C191.61399237604894 163.57017533751005, 194.7808179795289 161.52183203512027, 195.92689157788914 159.2142432315377 M190.0874694061042 165.64089357480722 C191.73960416012477 163.29921997659898, 192.75224595236935 161.98146043037968, 195.98918668396814 158.6567150992585" stroke="none" stroke-width="0.6" fill="none"></path><path d="M187.8085206793116 154.9029691128106 C188.72605743445558 154.42520468749186, 190.48002635221 154.02285489226284, 191.60858290653493 154.48648493317265 C192.73713946085988 154.95011497408245, 193.80308850287742 156.56257003411633, 194.57986000526122 157.68474935826947 C195.35663150764503 158.8069286824226, 196.33237896819858 160.14679851511897, 196.26921192083782 161.2195608780915 C196.20604487347705 162.29232324106403, 195.20358957353835 163.45861141685026, 194.2008577210966 164.12132353610468 C193.19812586865487 164.7840356553591, 191.55188088329498 165.2827451791694, 190.2528208061874 165.195833593618 C188.95376072907982 165.1089220080666, 187.56190985972023 164.3654541065733, 186.4064972584512 163.59985402279628 C185.25108465718216 162.83425393901925, 183.55270617530806 161.83460998852533, 183.32034519857316 160.6022330909558 C183.08798422183827 159.36985619338625, 183.9281371380707 157.1779626074947, 185.01233139804174 156.20559263737906 C186.09652565801278 155.23322266726342, 188.97503802724327 155.18822449079806, 189.8255107583994 154.768013270262 C190.6759834895555 154.34780204972594, 190.38056240931388 153.63151610242184, 190.11516778497844 153.68432531416272 M187.95329249980406 154.96161048069365 C188.9983252145938 154.56452664674813, 191.21176184018506 153.89739926032252, 192.48970317684334 153.93839562278205 C193.7676445135016 153.9793919852416, 195.22312688208046 154.34450690869195, 195.62094051975365 155.20758865545088 C196.01875415742683 156.0706704022098, 195.22889840032207 157.3641626704129, 194.8765850028824 159.11688610333556 C194.52427160544272 160.86960953625822, 194.26729872738704 164.74735255032633, 193.50706013511567 165.7239292529868 C192.7468215428443 166.7005059556473, 191.2637165484863 164.84808689975432, 190.31515344925415 164.97634631929844 C189.36659035002202 165.10460573884257, 188.82346788001163 167.00571097358846, 187.8156815397229 166.49348577025148 C186.80789519943417 165.9812605669145, 184.95012420397666 163.3983265420057, 184.26843540752182 161.90299509927655 C183.58674661106699 160.4076636565474, 182.9521438644217 158.7539755561913, 183.7255487609938 157.52149711387673 C184.4989536575659 156.28901867156216, 188.3500421374572 154.91608035553514, 188.9088647869544 154.50812444538914 C189.46768743645163 154.10016853524314, 187.32888187099144 154.80183561129067, 187.07848465797713 155.07376165300076" stroke="#000000" stroke-width="1.2" fill="none"></path></g><g><path d="M256.4224012542563 155.32893002852654 C256.4224012542563 155.32893002852654, 256.4224012542563 155.32893002852654, 256.4224012542563 155.32893002852654 M256.4224012542563 155.32893002852654 C256.4224012542563 155.32893002852654, 256.4224012542563 155.32893002852654, 256.4224012542563 155.32893002852654 M253.9206698091356 163.99309279443958 C257.60789882037255 162.69577043966177, 258.35036441984016 159.13606588125037, 264.4667421637065 154.82194873009072 M255.14518665863076 164.24959102694152 C256.8061428281702 161.87281860597997, 258.6363140807175 159.85106519293825, 262.8496815340389 155.01960387910503 M260.07792785832766 165.8430642139493 C262.3331295824943 164.21856132183734, 263.3742928545418 162.47621015618367, 265.76527865612394 160.02630008865785 M259.9635706288938 166.14240525484507 C261.8847963365955 164.75780228629907, 263.7307285985781 162.8427299406786, 265.5040519637304 160.09358489295244" stroke="none" stroke-width="0.6" fill="none"></path><path d="M260.9554550148779 153.284306830818 C262.376298685586 153.38245946051143, 264.2456851925286 154.25434470724736, 264.9285942043991 155.34576982846897 C265.61150321626957 156.4371949496906, 265.10412824541686 158.53059540705652, 265.0529090861008 159.8328575581477 C265.0016899267847 161.1351197092389, 265.3388800493107 162.0065055960478, 264.62127924850256 163.15934273501605 C263.9036784476944 164.31217987398432, 261.78109009646744 166.26376400390524, 260.7473042812519 166.74988039195733 C259.71351846603636 167.23599678000943, 259.4548223385965 166.5951171805653, 258.41856435720933 166.07604106332863 C257.38230637582217 165.55696494609197, 255.16658673898203 164.80839174227395, 254.5297563929289 163.63542368853737 C253.89292604687577 162.4624556348008, 254.2320022836734 160.4803268875947, 254.5975822808905 159.03823274090914 C254.96316227810757 157.59613859422356, 255.52645973486332 155.78646101396524, 256.72323637623134 154.98285880842397 C257.9200130175994 154.1792566028827, 260.85590970220227 154.40261636338005, 261.77824212909866 154.2166195076615 C262.70057455599505 154.03062265194296, 262.35873288333045 153.69675339175708, 262.2572309376098 153.86687767411277 M262.6309076924588 154.68709505684419 C263.9043537032227 154.68966878046055, 264.9232538746492 154.18817994613386, 265.59985300130614 155.3039907374231 C266.27645212796307 156.41980152871236, 267.01433502399186 159.74514542920986, 266.6905024524002 161.3819598045797 C266.36666988080856 163.01877417994956, 264.8115651577593 164.47564694232994, 263.65685757175606 165.12487698964213 C262.50214998575285 165.77410703695432, 260.78823822021326 165.474014599164, 259.7622569363808 165.27734008845283 C258.7362756525484 165.08066557774166, 258.2294990971049 164.68053523279178, 257.5009698687615 163.94482992537502 C256.7724406404181 163.20912461795825, 255.7233295304925 161.732156390326, 255.39108156632025 160.86310824395215 C255.058833602148 159.9940600975783, 255.13559545382552 159.67303286845726, 255.50748208372812 158.73054104713202 C255.87936871363073 157.7880492258068, 256.4876787050563 156.15911042702328, 257.6224013457359 155.20815731600084 C258.75712398641554 154.2572042049784, 261.8049466295913 153.34259352801956, 262.3158179278058 153.0248223809973 C262.82668922602033 152.70705123397505, 261.0550755188301 152.8038614898173, 260.6876291350228 153.30153043386733" stroke="#000000" stroke-width="1.2" fill="none"></path></g><g><path d="M324.3014806045245 156.03474177554233 C324.3014806045245 156.03474177554233, 324.3014806045245 156.03474177554233, 324.3014806045245 156.03474177554233 M324.3014806045245 156.03474177554233 C324.3014806045245 156.03474177554233, 324.3014806045245 156.03474177554233, 324.3014806045245 156.03474177554233 M324.62514548299123 162.46608156914542 C327.6649359662938 160.01060349747894, 330.0226596226725 157.35792568497874, 331.4989307723573 155.60122349311408 M325.05640372233756 163.05894350309566 C327.0953023122532 160.24025831743674, 329.8428788381 156.32488237571164, 332.5004215652905 155.1989159530095 M329.14812925597647 164.45755174515554 C331.6906813072846 163.51089580599907, 333.28207817740434 161.30448597791954, 334.7058563176018 158.64665914978232 M329.7151909323471 164.81559099511833 C331.2702860482165 163.40365390072807, 332.14978804513015 162.2292888247611, 335.24262458466177 159.1855443082319" stroke="none" stroke-width="0.6" fill="none"></path><path d="M331.568220593259 154.46381665241648 C332.7804781034619 154.7285148138318, 334.5341506626547 156.2097804197348, 335.0754173293616 157.15248328441314 C335.61668399606845 158.09518614909146, 334.91952042995337 158.95196738903675, 334.8158205935002 160.12003384048646 C334.712120757047 161.28810029193616, 335.2028745113007 163.33671859644357, 334.45321831064246 164.1608819931114 C333.7035621099842 164.9850453897792, 331.74596921046856 165.07588383718368, 330.3178833895507 165.06501422049325 C328.8897975686328 165.05414460380283, 327.0406712393128 164.60499952261077, 325.88470338513525 164.0956642929688 C324.7287355309577 163.58632906332682, 323.67630336523723 163.3175686123607, 323.3820762644855 162.00900284264145 C323.0878491637337 160.7004370729222, 323.40374245832993 157.4090057440838, 324.1193407806248 156.24426967465328 C324.83493910291963 155.07953360522276, 326.4001773594626 155.23415335563328, 327.6756661982545 155.0205864260584 C328.95115503704636 154.80701949648352, 330.7850173788942 155.09390768637203, 331.772273813376 154.9628680972039 C332.75953024785775 154.83182850803578, 333.6310372109605 154.17280328433924, 333.59920480514495 154.23434889104962 M330.89990546024825 153.03076583700508 C332.31213290025016 153.52618836138643, 335.55588801076675 157.08193614611156, 336.13581778189075 158.48100179817757 C336.71574755301475 159.8800674502436, 334.73005176046706 160.4224498092193, 334.3794840869922 161.42515974940113 C334.0289164135173 162.42786968958296, 335.0440245599143 163.9640754386313, 334.0324117410417 164.49726143926864 C333.0207989221691 165.03044743990597, 329.60122111472657 164.78339007959897, 328.3098071737565 164.62427575322502 C327.0183932327864 164.46516142685107, 326.76014324360824 164.26624610356933, 326.28392809522126 163.54257548102493 C325.8077129468343 162.81890485848052, 325.45476389852934 161.33417912066403, 325.4525162834347 160.28225201795865 C325.4502686683401 159.23032491525328, 325.74523344064005 158.1075859566515, 326.2704424046535 157.23101286479275 C326.795651368667 156.354439772934, 327.7230338965868 155.60025274642328, 328.60377006751565 155.02281346680624 C329.4845062384445 154.4453741871892, 331.02776977599865 153.7386052430742, 331.55485943022666 153.7663771870905 C332.08194908445466 153.79414913110682, 331.6595340177054 154.85155756943254, 331.7663079928835 155.18944513090406" stroke="#000000" stroke-width="1.2" fill="none"></path></g><g><path d="M395.8273413721441 154.61060027098102 C395.8273413721441 154.61060027098102, 395.8273413721441 154.61060027098102, 395.8273413721441 154.61060027098102 M395.8273413721441 154.61060027098102 C395.8273413721441 154.61060027098102, 395.8273413721441 154.61060027098102, 395.8273413721441 154.61060027098102 M395.6774990447257 162.4013867059087 C398.6312490152161 159.36293679877292, 400.18402665255604 156.47102703740882, 402.945191185604 154.28190094172507 M395.4592103174705 162.83992674067974 C396.9090858992165 160.63615867482412, 398.74948633268974 158.66913134694252, 402.1694689705358 155.2611904973277 M399.2735574280599 166.4878235028575 C400.13454529255296 164.51654666902536, 402.52963582474274 163.0764355775854, 406.7463593913871 157.10726922902012 M398.47231879728605 165.9194543406134 C401.8773944353012 163.89048836706135, 404.14347361927986 160.84704942268954, 406.10975685527677 158.19000891526494" stroke="none" stroke-width="0.6" fill="none"></path><path d="M400.4679968002336 154.1304827315069 C401.61343887778116 154.12258558350007, 401.87350360955327 154.62478913495664, 402.6810714618154 155.25494841958562 C403.48863931407755 155.8851077042146, 404.82498560377826 156.76626573701705, 405.31340391380627 157.91143843928074 C405.8018222238343 159.05661114154444, 406.1368161540649 160.70524512392393, 405.6115813219833 162.12598463316783 C405.0863464899017 163.54672414241173, 403.5060606255194 165.80353177143704, 402.16199492131665 166.4358754947441 C400.8179292171139 167.06821921805115, 398.6538218721676 166.49347375014796, 397.54718709676666 165.92004697301013 C396.4405523213657 165.3466201958723, 396.2294940344091 164.04701542440955, 395.52218626891096 162.9953148319171 C394.81487850341284 161.94361423942468, 393.2659949165368 160.99175023024583, 393.3033405037778 159.6098434180555 C393.3406860910188 158.22793660586518, 394.6838384044965 155.6038393004809, 395.74625979235725 154.70387395877526 C396.808681180218 153.80390861706962, 398.72298820038986 154.41653715513326, 399.6778688309424 154.2100513678217 C400.6327494614949 154.00356558051016, 401.4480175166472 153.30209224792196, 401.4755435756723 153.46495923490605 M396.9814663037333 154.6986665754814 C398.3364836452021 153.97917723764934, 400.31662650318077 153.68835546452178, 401.7973061207281 153.88902423305487 C403.2779857382754 154.08969300158796, 405.2070091924845 154.84976027451006, 405.86554400901707 155.9026791866799 C406.5240788255496 156.95559809884975, 406.1812525086429 158.856326959676, 405.7485150199234 160.206537706074 C405.3157775312039 161.55674845247196, 404.2489930984673 163.17639913901007, 403.26911907670006 164.00394366506777 C402.28924505493285 164.83148819112546, 401.1854804934469 164.76373568762125, 399.8692708893199 165.1718048624202 C398.55306128519294 165.57987403721916, 396.4291648835848 166.88477243734425, 395.3718614519382 166.45235871386157 C394.31455802029154 166.0199449903789, 393.5451473248648 163.98479725248353, 393.52545029944014 162.5773225215241 C393.5057532740155 161.1698477905647, 394.6035846080343 159.43186331146137, 395.2536792993903 158.00751032810496 C395.9037739907463 156.58315734474854, 396.9678171235159 154.84974355262784, 397.4260184475762 154.03120462138557 C397.88421977163654 153.2126656901433, 397.97310986740104 152.7320054038068, 398.00288724375224 153.09627674065138" stroke="#000000" stroke-width="1.2" fill="none"></path></g><g><path d="M465.2306208668703 156.64137898935172 C465.2306208668703 156.64137898935172, 465.2306208668703 156.64137898935172, 465.2306208668703 156.64137898935172 M465.2306208668703 156.64137898935172 C465.2306208668703 156.64137898935172, 465.2306208668703 156.64137898935172, 465.2306208668703 156.64137898935172 M464.81646563925136 164.5113008158265 C467.1278070652692 160.28562560284104, 470.1946477112815 158.60699418298623, 472.6429755211805 154.55843665793236 M465.72530236645423 163.15807463011285 C468.5735837752352 161.06974638577353, 470.474547886048 157.41801317050133, 473.1006068326426 155.54074818780995 M470.0831768538074 166.80323387040906 C471.27229503066604 165.63301345564233, 471.6480679228831 163.12970839757907, 474.91312994557615 160.67294834001973 M469.9318446089281 165.97637721752622 C471.5783217825821 164.3185301352038, 473.86411432232336 162.4435481393072, 474.4546980326251 160.69638376893428" stroke="none" stroke-width="0.6" fill="none"></path><path d="M467.494887343819 154.22905467308286 C468.79504492844626 153.6356351284903, 471.3403265976687 153.0664329424169, 472.488263319079 153.74015353546798 C473.6362000404893 154.41387412851907, 473.9143803562095 156.8752952739849, 474.3825076722807 158.27137823138946 C474.85063498835194 159.66746118879402, 475.60049074955685 161.13099924789654, 475.2970272155064 162.11665127989534 C474.9935636814559 163.10230331189413, 473.4742989811479 163.6288328692333, 472.56172646797785 164.1852904233823 C471.6491539548078 164.7417479775313, 470.9900161263528 165.56446964508547, 469.82159213648606 165.45539660478946 C468.6531681466193 165.34632356449345, 466.33222716953856 164.2902066205574, 465.5511825287773 163.5308521816062 C464.77013788801605 162.77149774265501, 465.2233761079996 162.00768414377714, 465.13532429191844 160.89926997108228 C465.04727247583725 159.7908557983874, 464.4081876742616 157.9169861560998, 465.0228716322901 156.88036714543705 C465.6375555903186 155.8437481347743, 467.9413429433154 155.24638036246222, 468.82342804008925 154.67955590710585 C469.7055131368631 154.11273145174948, 470.2854366123193 153.4586373922682, 470.31538221293306 153.47942041329884 M473.0006480986997 155.82815011237244 C473.8838082715006 156.2706944867232, 473.822712037303 155.96505793360572, 474.2930062945715 157.18876295919685 C474.76330055184 158.41246798478798, 476.1844340352346 161.76171472192166, 475.82241364231066 163.17038026591928 C475.46039324938675 164.5790458099169, 473.38049761990055 165.37095390771876, 472.1208839370281 165.64075622318248 C470.86127025415567 165.9105585386462, 469.32832004643734 165.28808612347814, 468.26473154507585 164.78919415870163 C467.20114304371435 164.29030219392513, 466.3017950284446 163.32402710926567, 465.73935292885926 162.64740443452337 C465.17691082927394 161.97078175978106, 465.1604252217902 161.69535526298367, 464.89007894756395 160.72945811024775 C464.6197326733377 159.76356095751183, 463.66502077339055 158.0515775722542, 464.1172752835016 156.8520215181079 C464.5695297936127 155.65246546396162, 466.0943836209535 154.0545650427884, 467.60360600823043 153.53212178537004 C469.11282839550734 153.00967852795168, 472.39798115458916 153.54235212811568, 473.1726096071631 153.7173619735978 C473.94723805973706 153.89237181907993, 472.3856287648316 154.27890815946387, 472.251376723674 154.5821808582627" stroke="#000000" stroke-width="1.2" fill="none"></path></g><g><path d="M535.7185450611864 155.63998598027217 C535.7185450611864 155.63998598027217, 535.7185450611864 155.63998598027217, 535.7185450611864 155.63998598027217 M535.7185450611864 155.63998598027217 C535.7185450611864 155.63998598027217, 535.7185450611864 155.63998598027217, 535.7185450611864 155.63998598027217 M536.4466272105619 164.41642995726428 C537.175147182806 162.1609163071192, 540.0506967055035 158.91444029410067, 542.9132328366893 154.58100810249263 M535.1026517000172 163.10542941724177 C537.1196143630419 161.42093672887364, 539.4016489949995 157.93702364321715, 542.4733579440262 155.28035431837756 M538.2576654506915 168.22155947085216 C540.8257430825745 164.20279419883698, 544.0459900875238 161.79061364418496, 544.5891435721737 160.0180587241332 M538.4463034462939 167.65775846031616 C539.658582976559 166.01121042609364, 542.1114866434048 164.2461360373338, 545.054868401172 159.8704690961122" stroke="none" stroke-width="0.6" fill="none"></path><path d="M539.730329210007 153.06120876445368 C540.7286197675643 152.93167504890496, 542.1338853347029 154.09875548776913, 543.0497315129128 155.22901459356044 C543.9655776911227 156.35927369935175, 544.7963442244743 158.47535927813763, 545.2254062792662 159.84276339920157 C545.654468334058 161.21016752026551, 546.3454111859146 162.49452973895302, 545.6241038416637 163.43343931994406 C544.9027964974127 164.3723489009351, 542.2607840383607 165.08459944994735, 540.8975622137605 165.47622088514788 C539.5343403891602 165.86784232034842, 538.512136612021 166.25655785557166, 537.4447728940625 165.78316793114732 C536.3774091761039 165.30977800672298, 534.8724189546299 163.9402754819405, 534.4933799060093 162.6358813386019 C534.1143408573887 161.33148719526332, 534.9762977296764 159.1113356461152, 535.1705386023388 157.9568030711158 C535.3647794750011 156.80227049611636, 534.8190933430905 156.46264412208157, 535.6588251419832 155.70868588860534 C536.498556940876 154.95472765512912, 539.345099665436 153.81896179052455, 540.2089293956953 153.43305367025843 C541.0727591259547 153.0471455499923, 540.6960478171018 153.33430838832183, 540.8418035235395 153.39323716700866 M539.8474341481482 152.90914727584808 C540.7967298958828 153.06103636249225, 542.2001285767268 155.26069197444525, 543.1618102947659 156.40315443725302 C544.1234920128051 157.5456169000608, 545.1598367492167 158.72026747666558, 545.6175244563827 159.76392205269462 C546.0752121635488 160.80757662872367, 546.3094490584016 161.59460003025046, 545.9079365377625 162.6650818934273 C545.5064240171233 163.73556375660414, 544.3556841484939 165.87106252492129, 543.2084493325478 166.1868132317557 C542.0612145166018 166.50256393859013, 540.226705514361 164.81559128765116, 539.0245276420861 164.55958613443374 C537.8223497698112 164.30358098121633, 536.8039255658821 165.6066160603194, 535.9953820988985 164.65078231245118 C535.186838631915 163.69494856458297, 533.9910787530623 160.18873027407665, 534.173266840185 158.8245836472245 C534.3554549273076 157.46043702037235, 536.2836270307279 157.20023409186496, 537.0885106216341 156.46590255133825 C537.8933942125403 155.73157101081154, 538.3245945423463 154.67473048977968, 539.0025683856222 154.41859440406432 C539.6805422288982 154.16245831834897, 541.1115922174871 155.1430781963755, 541.1563536812898 154.9290860370461" stroke="#000000" stroke-width="1.2" fill="none"></path></g><g><path d="M607.2097311703599 154.18570225498527 C607.2097311703599 154.18570225498527, 607.2097311703599 154.18570225498527, 607.2097311703599 154.18570225498527 M607.2097311703599 154.18570225498527 C607.2097311703599 154.18570225498527, 607.2097311703599 154.18570225498527, 607.2097311703599 154.18570225498527 M607.8354392534441 161.38052431995644 C608.603451597112 160.85022610488258, 610.0835763901689 157.70831028483812, 612.5463961734921 155.55202531986603 M606.8200907906112 161.8365789881914 C608.8217277584762 160.14626624855742, 610.5617371921932 157.89845394347387, 612.2329142811441 156.19131332954288 M608.9061066616734 165.74149977512423 C612.2904053246257 164.95248654534555, 613.3875332532887 162.71993511443145, 615.9378532063815 157.56815326299832 M609.3456060175286 167.12033501397357 C611.4888204729806 165.14801769148377, 612.0013135142121 163.0996571920966, 617.0709244021084 158.7777367840791" stroke="none" stroke-width="0.6" fill="none"></path><path d="M611.1766706368418 155.122577442187 C612.2748755519187 155.27041206064743, 613.9310613533421 155.73862162378904, 614.5577577820346 156.64737421072948 C615.1844542107272 157.55612679766992, 615.1533264609858 159.2752635762818, 614.9368492089966 160.5750929638296 C614.7203719570074 161.87492235137742, 613.8964933638706 163.38886683355898, 613.2588942700994 164.44635053601633 C612.6212951763282 165.50383423847367, 612.0990427872666 166.88873108553992, 611.111254646369 166.91999517857374 C610.1234665054715 166.95125927160757, 608.2886524982679 165.58802503236703, 607.3321654247143 164.6339350942193 C606.3756783511607 163.6798451560716, 605.7894881439037 162.47516115039846, 605.3723322050474 161.19545554968747 C604.9551762661912 159.91574994897647, 604.5503414720072 158.0925370641867, 604.8292297915766 156.95570148995333 C605.108118111146 155.81886591571995, 605.9309369465713 154.90690444300492, 607.0456621224643 154.37444210428728 C608.1603872983573 153.84197976556965, 610.6515954692939 153.8261986834019, 611.5175808469345 153.76092745764745 C612.3835662245751 153.695656231893, 612.3292894264041 153.71757559469592, 612.2415743883081 153.98281474976045 M611.0697261465328 152.64622445926318 C612.5207446989211 152.95076747633027, 613.7099511725954 155.52056383280984, 614.4155930746293 156.47793635879918 C615.1212349766632 157.43530888478853, 615.2039238284323 157.32814862417882, 615.3035775587365 158.3904596151993 C615.4032312890407 159.45277060621976, 615.6987319981174 161.6751860706651, 615.0135154564547 162.85180230492193 C614.328298914792 164.02841853917877, 612.1456676262887 164.9176251063586, 611.1922783087605 165.45015702074036 C610.2388889912322 165.98268893512213, 610.2908519235755 166.24105163488613, 609.2931795512849 166.04699379121251 C608.2955071789943 165.8529359475389, 606.0520130194516 165.5605085536321, 605.2062440750166 164.2858099586987 C604.3604751305816 163.0111113637653, 604.1980950171273 160.02026541661743, 604.2185658846747 158.39880222161207 C604.2390367522221 156.7773390266067, 604.5497618650356 155.284953787989, 605.3290692803005 154.55703078866654 C606.1083766955653 153.82910778934408, 607.8995340087963 154.30397936071986, 608.8944103762634 154.03126422567738 C609.8892867437305 153.7585490906349, 610.9011198023316 152.87846619584138, 611.2983274851034 152.92073997841166" stroke="#000000" stroke-width="1.2" fill="none"></path></g><g><path d="M117.42137649911717 216.0239627548063 C117.42137649911717 216.0239627548063, 117.42137649911717 216.0239627548063, 117.42137649911717 216.0239627548063 M117.42137649911717 216.0239627548063 C117.42137649911717 216.0239627548063, 117.42137649911717 216.0239627548063, 117.42137649911717 216.0239627548063 M117.73052267032038 224.39563372742217 C120.54081480913617 223.0277863231675, 122.65574602568384 218.38364764273007, 125.06703608479229 217.02101874959683 M117.30256305545763 225.59592089508936 C119.38095506907871 222.15923282759272, 122.03992096751305 220.00169941049037, 124.73540849306737 217.42774121321787" stroke="none" stroke-width="0.7" fill="none"></path><path d="M117.37975272558579 216.07184542886606 C118.28803716848665 215.70432437962148, 120.69895967377926 214.5625254960954, 121.94786703641375 214.86356946644602 C123.19677439904825 215.16461343679666, 124.25545894672115 216.84651076993538, 124.87319690139273 217.87810925096983 C125.49093485606431 218.90970773200428, 125.93875518594584 220.11447822205804, 125.65429476444322 221.05316035265275 C125.3698343429406 221.99184248324747, 123.97245348197153 222.809591815911, 123.16643437237708 223.5102020345381 C122.36041526278264 224.21081225316522, 121.83202049102836 225.1004738013833, 120.81818010687653 225.2568216644153 C119.80433972272469 225.4131695274473, 117.93420476140484 225.13822712064766, 117.08339206746605 224.44828921273012 C116.23257937352726 223.75835130481258, 115.9187322377788 222.0944595614071, 115.71330394324377 221.11719421691006 C115.50787564870875 220.13992887241304, 115.45100047916081 219.64360234609467, 115.85082230025587 218.58469714574795 C116.25064412135093 217.52579194540124, 117.3802401069333 215.32306089595932, 118.11223486981412 214.76376301482978 C118.84422963269493 214.20446513370024, 120.1753916758727 215.03655552676403, 120.24279087754077 215.2289098589708 M121.65039098140865 216.83399762496262 C122.39730972193576 216.9655801805373, 122.26957511654844 216.94566550199605, 123.00495276322384 217.75448722118975 C123.74033040989924 218.56330894038345, 125.9894042841677 220.5224588757594, 126.06265686146106 221.6869279401248 C126.13590943875442 222.8513970044902, 124.58406216874435 224.45534366266781, 123.44446822698404 224.741301607382 C122.30487428522373 225.0272595520962, 120.40830799918709 223.6162119146887, 119.22509321089922 223.40267560841008 C118.04187842261135 223.18913930213145, 117.1306501191757 223.90171633907033, 116.34517949725686 223.46008376971025 C115.55970887533803 223.01845120035017, 114.56251790447592 221.46515368338436, 114.51226947938622 220.7528801922496 C114.46202105429651 220.04060670111483, 115.53274143726573 219.85690866457156, 116.04368894671865 219.18644282290157 C116.55463645617156 218.51597698123157, 116.88787304427913 217.45135624959974, 117.57795453610376 216.7300851422297 C118.26803602792839 216.00881403485968, 119.68366669442277 215.2280934979827, 120.1841778976664 214.85881617868134 C120.68468910091003 214.48953885937996, 120.49072572132766 214.38823017435897, 120.58102175556553 214.5144212264214" stroke="undefined" stroke-width="1.4" fill="none"></path></g><g><path d="M185.10663164350598 217.88629868353212 C185.10663164350598 217.88629868353212, 185.10663164350598 217.88629868353212, 185.10663164350598 217.88629868353212 M185.10663164350598 217.88629868353212 C185.10663164350598 217.88629868353212, 185.10663164350598 217.88629868353212, 185.10663164350598 217.88629868353212 M188.12084628125413 223.21022705723223 C190.1593397104824 221.9199367732851, 191.42597848412416 219.40970786536795, 192.75593230011947 216.67787257001308 M187.39729723442568 224.26015092979773 C189.6357906621577 221.35785298639217, 192.09489063058285 219.28086726946307, 193.18032643697632 217.38572554578872" stroke="none" stroke-width="0.7" fill="none"></path><path d="M187.47322762956156 215.7881018200946 C188.32952378992417 215.0652837378192, 190.73774621215034 214.53491535191426, 191.66088620461696 214.57411759122337 C192.58402619708357 214.61331983053248, 192.61831798281432 215.00502110821296, 193.01206758436123 216.02331525594914 C193.40581718590815 217.04160940368533, 194.06109257850795 219.56172177598773, 194.02338381389845 220.6838824776405 C193.98567504928894 221.80604317929328, 193.5012815168508 221.92363854251732, 192.78581499670426 222.75627946586587 C192.0703484765577 223.58892038921442, 190.66376797639796 225.54903763815366, 189.73058469301918 225.67972801773175 C188.7974014096404 225.81041839730983, 188.00663595421116 224.19158383258863, 187.18671529643152 223.54042174333438 C186.36679463865187 222.88925965408012, 185.16478000463985 222.70701228551792, 184.8110607463412 221.7727554822062 C184.45734148804257 220.8384986788945, 184.5842705933128 218.98269718516502, 185.06439974663968 217.9348809234642 C185.54452889996656 216.88706466176336, 187.02456012703814 215.9386398844816, 187.69183566630252 215.4858579120013 C188.3591112055669 215.033075939521, 188.84140611206485 215.25559009143038, 189.06805298222596 215.21818908858248 M189.47907200568923 215.70129420536352 C190.50695010767757 215.36420193741083, 193.52362346445494 214.7734824915757, 194.52720234902603 215.23819407154474 C195.5307812335971 215.7029056515138, 195.553662517577 217.0798808815125, 195.50054531311577 218.4895636851778 C195.44742810865452 219.89924648884312, 194.8061987461737 222.4669733957849, 194.20849912225862 223.69629089353663 C193.61079949834354 224.92560839128836, 192.6906260899129 225.58168281095556, 191.9143475696253 225.86546867168826 C191.1380690493377 226.14925453242097, 190.40945775820086 225.95698720865644, 189.55082800053304 225.39900605793284 C188.69219824286523 224.84102490720923, 187.64052024818167 223.60486250957075, 186.7625690236185 222.51758176734663 C185.88461779905535 221.4303010251225, 184.28857349204466 220.11266523636078, 184.2831206531541 218.87532160458812 C184.27766781426354 217.63797797281546, 185.54212517864107 215.8773802687739, 186.72985199027508 215.0935199767106 C187.9175788019091 214.30965968464733, 191.00961984222826 214.01871353462315, 191.40948152295806 214.17215985220847 C191.80934320368786 214.3256061697938, 189.40901937037216 215.93726972624276, 189.12902207465382 216.01419788222245" stroke="undefined" stroke-width="1.4" fill="none"></path></g><g><path d="M255.54494616282358 216.84178064190894 C255.54494616282358 216.84178064190894, 255.54494616282358 216.84178064190894, 255.54494616282358 216.84178064190894 M255.54494616282358 216.84178064190894 C255.54494616282358 216.84178064190894, 255.54494616282358 216.84178064190894, 255.54494616282358 216.84178064190894 M258.8682624570338 222.82823352106655 C258.8814302696143 221.52148393446134, 259.9158810833659 220.22331916608718, 262.7054114737197 216.97772994795898 M258.3000003594496 222.82382290162593 C259.87672326848394 221.35925590560112, 260.6796305209503 219.50651199824023, 263.3345726615213 216.61719465803716" stroke="none" stroke-width="0.7" fill="none"></path><path d="M261.42368516116966 215.07782642806254 C262.4007032440394 215.36173287141676, 263.1167277461974 216.72175434410192, 263.79919607659014 217.55994925331242 C264.4816644069829 218.39814416252293, 265.6724282999869 219.01287738754317, 265.5184951435262 220.10699588332557 C265.3645619870655 221.20111437910796, 263.9285392550787 223.28337984166672, 262.87559713782576 224.1246602280068 C261.8226550205728 224.9659406143469, 260.0660977616717 225.10014258307146, 259.20084244000856 225.15467820136618 C258.3355871183454 225.2092138196609, 258.2871244550717 225.2388288584544, 257.68406520784686 224.45187393777516 C257.081005960622 223.6649190170959, 255.9394928064202 221.70073847062383, 255.58248695665952 220.43294867729063 C255.22548110689885 219.16515888395742, 255.13308349823245 217.6623172750476, 255.5420301092828 216.84513517777594 C255.95097672033313 216.0279530805043, 256.782407530451 215.86754116212097, 258.0361666229615 215.52985609366073 C259.289925715472 215.19217102520048, 262.34904644973835 214.78182258454714, 263.064584664346 214.81902476701455 C263.78012287895365 214.85622694948196, 262.3228236239372 215.47931302673587, 262.3293959106075 215.75306918846525 M260.36821372860777 214.76864484889984 C261.3937345712113 214.49558778886646, 261.7411714030583 214.46352633758795, 262.72796741066344 215.24596817335217 C263.7147634182686 216.02841000911639, 266.2940492363716 218.18055880958667, 266.2889897742389 219.46329586348506 C266.28393031210624 220.74603291738345, 263.6119804312609 221.83999373540013, 262.6976106378672 222.94239049674258 C261.7832408444734 224.04478725808502, 261.65268140299526 225.86507470774552, 260.8027710138764 226.07767643153966 C259.95286062475753 226.2902781553338, 258.3254358663459 224.93539268555367, 257.59814830315406 224.21800083950734 C256.8708607399622 223.50060899346101, 256.7250512557791 222.48317353852326, 256.4390456347253 221.77332535526162 C256.1530400136715 221.06347717199998, 255.8884929040717 221.04899273479785, 255.88211457683119 219.95891173993758 C255.87573624959066 218.8688307450773, 255.70737673772226 215.84209883036658, 256.4007756712821 215.23283938609993 C257.0941746048419 214.62357994183327, 259.293036992888 216.14688840093498, 260.0425081781901 216.3033550743376 C260.79197936349215 216.4598217477402, 260.66806633106296 216.21710952208946, 260.8976027830945 216.17163942651564" stroke="undefined" stroke-width="1.4" fill="none"></path></g><g><path d="M324.6411456393552 217.28060577966585 C324.6411456393552 217.28060577966585, 324.6411456393552 217.28060577966585, 324.6411456393552 217.28060577966585 M324.6411456393552 217.28060577966585 C324.6411456393552 217.28060577966585, 324.6411456393552 217.28060577966585, 324.6411456393552 217.28060577966585 M329.4650409728191 224.27584316082687 C329.61278351721137 223.43296128863673, 331.5410091902499 222.29481950733918, 333.7205892490026 218.87690767802223 M328.2929613772196 224.49041562569644 C331.0390984790693 222.82876934013444, 332.4331928622218 219.6418117709515, 334.75565217885753 217.9798133494491" stroke="none" stroke-width="1" fill="none"></path><path d="M331.63329431712407 214.65447863004567 C332.5501801431702 215.01066450045423, 333.4146549545468 216.42356287383575, 333.98892111448004 217.34375015319708 C334.5631872744133 218.2639374325584, 335.1724820884737 219.25829485905237, 335.0788912767236 220.1756023062136 C334.9853004649735 221.0929097533748, 334.20423953075044 222.1909502121436, 333.4273762439793 222.84759483616443 C332.6505129572082 223.50423946018526, 331.22786825398333 223.8952404640187, 330.417711556097 224.11547005033864 C329.6075548582107 224.33569963665857, 329.3419049460834 224.63498428982518, 328.5664360566613 224.16897235408408 C327.7909671672392 223.70296041834297, 326.44026711951733 222.44312483344234, 325.76489821956443 221.319398435892 C325.08952931961153 220.19567203834166, 324.3196082868051 218.39678823285115, 324.51422265694396 217.426613968782 C324.70883702708284 216.45643970471284, 325.7083200490796 215.91884302389576, 326.9325844403979 215.4983528514771 C328.15684883171616 215.07786267905846, 331.08071823609805 214.82073651005362, 331.85980900485356 214.90367293427005 C332.63889977360907 214.98660935848648, 331.6431563416392 215.99216082948118, 331.60712905293093 215.99597139677576 M327.9346360671205 216.04346226516097 C328.56763817774873 215.62500121101797, 329.4832168328787 215.1384301419767, 330.2983380550689 215.24284665548564 C331.11345927725904 215.34726316899457, 332.0088385991957 215.88624774143142, 332.8253634002616 216.66996134621468 C333.6418882013275 217.45367495099794, 335.2803479003023 218.64394238736398, 335.19748686146437 219.9451282841851 C335.11462582262646 221.24631418100623, 333.30592734058655 223.6100436186561, 332.3281971672343 224.47707672714142 C331.35046699388204 225.34410983562674, 329.9962980767017 225.29776820708707, 329.3311058213507 225.14732693509703 C328.66591356599974 224.99688566310698, 329.2134630997579 224.47777712509787, 328.3370436351284 223.57442909520105 C327.4606241704989 222.67108106530424, 324.7326026874317 220.70505704832757, 324.07258903357365 219.72723875571617 C323.4125753797156 218.74942046310477, 323.7414100957735 218.21339177045115, 324.37696171197996 217.70751933953258 C325.0125133281864 217.201646908614, 327.2347294640743 217.2310537063295, 327.8858987308122 216.6920041702047 C328.5370679975501 216.15295463407992, 328.42906028747205 214.6017398352574, 328.2839773124072 214.4732221227838" stroke="undefined" stroke-width="2" fill="none"></path></g><g><path d="M396.7694222219473 217.70514934705977 C396.7694222219473 217.70514934705977, 396.7694222219473 217.70514934705977, 396.7694222219473 217.70514934705977 M396.7694222219473 217.70514934705977 C396.7694222219473 217.70514934705977, 396.7694222219473 217.70514934705977, 396.7694222219473 217.70514934705977 M398.6448884637476 226.19840922051569 C399.104767515493 224.21238848162264, 402.02719364137084 222.31140295311656, 405.4367543621633 216.97608805340204 M397.8546507104135 225.2232753309535 C400.0269803727732 223.13369928567226, 403.0894643391776 220.3891808679719, 404.26019331805253 217.80449083626132" stroke="none" stroke-width="0.7" fill="none"></path><path d="M401.73838596592645 215.318306458238 C402.4959625761574 215.6210404595063, 403.83605729949153 217.03143648680643, 404.41795665004213 218.02298867177146 C404.99985600059273 219.0145408567365, 405.5728817407335 220.23749275787083, 405.2297820692301 221.26761956802815 C404.8866823977267 222.29774637818548, 403.453858570039 223.40939792292417, 402.35935862102156 224.20374953271536 C401.2648586720041 224.99810114250656, 399.8507578760746 226.05575354205095, 398.6627823751253 226.03372922677536 C397.47480687417595 226.01170491149978, 395.6987918114944 225.00503480346316, 395.23150561532566 224.0716036410618 C394.7642194191569 223.13817247866047, 395.6066482717509 221.4897286460359, 395.85906519811283 220.43314225236728 C396.1114821244748 219.37655585869865, 396.1022096758102 218.52076520358193, 396.7460071734974 217.73208527905004 C397.3898046711846 216.94340535451815, 398.5895577833601 216.0253786813795, 399.721850184236 215.70106270517596 C400.85414258511196 215.37674672897242, 402.8558030662831 215.83135484050197, 403.53976157875303 215.78618942182882 C404.22372009122296 215.74102400315567, 404.0811079076993 215.23275705189036, 403.8256012590554 215.43007019313703 M402.7602223777178 213.65311321839903 C403.67634106047274 213.51539555950916, 404.1438409816056 215.0475390467838, 404.62410079928947 216.0052639709402 C405.10436061697334 216.9629888950966, 405.7813026091816 218.22051723771565, 405.64178128382116 219.3994627633374 C405.50225995846074 220.57840828895914, 404.92195682560987 222.35661098785135, 403.78697284712695 223.0789371246707 C402.651988868644 223.80126326149002, 399.9869272353457 223.76005887363596, 398.8318774129235 223.7334195842534 C397.6768275905013 223.70678029487084, 397.2520038335084 223.56512225731726, 396.85667391259375 222.9191013883754 C396.4613439916791 222.27308051943353, 396.80680799179135 220.77977070729753, 396.45989788743566 219.85729437060226 C396.11298778308 218.934818033907, 394.56439308262946 218.3734657972422, 394.7752132864596 217.38424336820373 C394.9860334902897 216.39502093916525, 396.49747503987817 214.43475226108905, 397.72481911041626 213.92195979637137 C398.95216318095436 213.4091673316537, 401.73296097833645 214.20883804944143, 402.1392777096882 214.30748857989772 C402.54559444103995 214.40613911035402, 400.40867310100145 214.28890119219437, 400.1627194985266 214.5138629791092" stroke="undefined" stroke-width="1.4" fill="none"></path></g><g><path d="M465.58341129590855 216.57363973123967 C465.58341129590855 216.57363973123967, 465.58341129590855 216.57363973123967, 465.58341129590855 216.57363973123967 M465.58341129590855 216.57363973123967 C465.58341129590855 216.57363973123967, 465.58341129590855 216.57363973123967, 465.58341129590855 216.57363973123967 M466.50966615329673 224.10787050369473 C468.1656894019647 223.27576033499687, 469.42265176748793 221.52748174036938, 473.57962455635686 216.98140031790592 M465.60194758623607 224.4699843028478 C467.9582173207061 222.96790712999487, 469.92217557458554 220.8033979399469, 474.0891549240844 216.26694279862468" stroke="none" stroke-width="0.7" fill="none"></path><path d="M468.90032553391814 215.72064387554266 C469.89365758499 215.28193713442388, 471.4143028920294 214.07521113349088, 472.3731529574694 214.25894427296467 C473.3320030229094 214.44267741243846, 474.27110687710297 215.68269116359758, 474.6534259265582 216.82304271238533 C475.03574497601346 217.96339426117308, 475.02765683147067 219.85900636012474, 474.6670672542009 221.1010535656912 C474.30647767693114 222.34310077125764, 473.10476826562785 223.69627265710244, 472.4898884629396 224.27532594578412 C471.8750086602513 224.8543792344658, 472.0550019451081 224.48119027758912, 470.97778843807134 224.5753732977813 C469.9005749310346 224.6695563179735, 467.0511185766708 225.4940693956923, 466.0266074207193 224.84042406693732 C465.00209626476783 224.18677873818234, 464.95079471520233 221.9781434206276, 464.8307215023627 220.6535013252514 C464.710648289523 219.3288592298752, 464.75118603901274 217.69692231220574, 465.3061681436813 216.89257149468017 C465.8611502483499 216.0882206771546, 467.4185252354656 216.19348369228462, 468.16061413037403 215.8273964200979 C468.90270302528245 215.46130914791118, 469.77032132158445 214.6346467669115, 469.75870151313194 214.69604786155986 M471.7195239155078 215.99863599323274 C472.69495866543474 215.9495331310012, 471.62140705586427 216.5605561458412, 472.1360453834944 216.94515491992175 C472.6506837111245 217.3297536940023, 474.6280714885453 217.44500646261676, 474.8073538812885 218.30622863771612 C474.98663627403175 219.16745081281547, 473.81114750584544 220.9293152521946, 473.21173973995366 222.11248797051783 C472.6123319740619 223.29566068884105, 472.0317698335302 225.09965474192586, 471.2109072859378 225.40526494765544 C470.39004473834547 225.71087515338502, 469.3913892858069 224.22731685416844, 468.28656445439964 223.94614920489522 C467.1817396229924 223.664981555622, 464.91632229483974 224.7717168461408, 464.5819582974941 223.71825905201612 C464.2475943001485 222.66480125789144, 465.9739215773744 218.75273264771863, 466.28038047032584 217.62540244014713 C466.58683936327725 216.49807223257562, 465.55742900737187 217.38907118868406, 466.42071165520247 216.95427780658702 C467.28399430303307 216.51948442448997, 470.64814925246617 215.12214345182056, 471.4600763573093 215.01664214756494 C472.2720034621524 214.9111408433093, 471.52993105196225 216.3010793243995, 471.2922742842612 216.32126998105326" stroke="undefined" stroke-width="1.4" fill="none"></path></g><g><path d="M535.8704368844172 218.0476342151835 C535.8704368844172 218.0476342151835, 535.8704368844172 218.0476342151835, 535.8704368844172 218.0476342151835 M535.8704368844172 218.0476342151835 C535.8704368844172 218.0476342151835, 535.8704368844172 218.0476342151835, 535.8704368844172 218.0476342151835 M537.3904527026494 224.61529793112413 C539.0711192162075 223.30880621741622, 542.8461802520366 219.9546729423154, 545.4812705999163 217.221007242377 M538.1218167798451 224.62476563141388 C539.4387213316676 222.93624446207855, 541.9422923153426 219.57212678507463, 545.2211149294096 216.36476390506868" stroke="none" stroke-width="0.7" fill="none"></path><path d="M538.4338764936027 216.27012152848275 C539.4424090431046 216.1013345437863, 540.2959943796176 216.12849660506237, 541.3847511985878 216.2040238730778 C542.473508017558 216.27955114109324, 544.2326730820209 216.11716719847112, 544.9664174074239 216.72328513657538 C545.7001617328269 217.32940307467965, 546.0202532491907 218.74924885395922, 545.7872171510057 219.84073150170337 C545.5541810528208 220.93221414944753, 544.4282731881441 222.29709711948664, 543.5682008183145 223.27218102304036 C542.7081284484849 224.24726492659408, 541.9144058859981 225.761107476802, 540.626782932028 225.6912349230257 C539.339159978058 225.62136236924937, 536.7128626060946 223.65314531660326, 535.8424630944938 222.85294570038252 C534.972063582893 222.05274608416178, 535.4111570829316 221.67776971438994, 535.4043858624229 220.89003722570126 C535.3976146419143 220.1023047370126, 535.2239763562127 219.13721210864276, 535.8018357714419 218.12655076825052 C536.3796951866711 217.1158894278583, 538.2850018154819 215.20142326952907, 538.871542353798 214.82606918334778 C539.458082892114 214.4507150971665, 539.4962794563454 215.74791988895146, 539.321079001338 215.87442625116273 M539.9732178222268 213.72825879811384 C540.817675943377 213.75938248067507, 543.0976994310261 216.27155638261723, 544.1640491575745 217.28711855444774 C545.2303988841229 218.30268072627825, 546.6380277015144 218.90347462595585, 546.3713161815174 219.82163182909693 C546.1046046615204 220.739789032238, 543.5835384094382 222.02579086749967, 542.5637800375922 222.79606177329418 C541.5440216657462 223.5663326790887, 541.2721803076132 223.99543362246607, 540.2527659504415 224.44325726386404 C539.2333515932697 224.89108090526202, 537.1172686145114 226.1364263163396, 536.4472938945615 225.48300362168206 C535.7773191746116 224.82958092702452, 536.28791406232 221.63640810831612, 536.232917630742 220.52272109591885 C536.177921199164 219.4090340835216, 535.7180495602936 219.71339897614138, 536.1173153050935 218.8008815472984 C536.5165810498934 217.8883641184554, 537.9240200859756 215.452805355186, 538.6285120995415 215.0476165228609 C539.3330041131073 214.64242769053578, 539.7480722431277 216.26027449664645, 540.3442673864888 216.36974855334782 C540.9404625298499 216.4792226100492, 541.8842940399907 215.70647194145812, 542.2056829597079 215.70446086306916" stroke="undefined" stroke-width="1.4" fill="none"></path></g><g><path d="M605.3824794293052 216.1979202305779 C605.3824794293052 216.1979202305779, 605.3824794293052 216.1979202305779, 605.3824794293052 216.1979202305779 M605.3824794293052 216.1979202305779 C605.3824794293052 216.1979202305779, 605.3824794293052 216.1979202305779, 605.3824794293052 216.1979202305779 M605.6811825149158 224.7336672638971 C608.5976494025227 223.14734827235685, 609.8787398933869 220.2753388981069, 613.6501464415751 216.00506910905136 M606.8931765979253 223.53048519018085 C608.7174513876435 221.31687775565734, 611.5847782135477 218.15026470747011, 613.1791705690915 216.45755720019895" stroke="none" stroke-width="0.7" fill="none"></path><path d="M608.7255926346094 215.01562246700564 C609.7767223513939 214.7378475652422, 610.9928422959342 215.44824744910557, 612.0798430555631 215.89391292193315 C613.1668438151919 216.33957839476074, 614.7541527801657 216.6021938726994, 615.2475971923825 217.6896153039711 C615.7410416045993 218.7770367352428, 615.6102770974221 221.13163944060284, 615.0405095288639 222.41844150956337 C614.4707419603058 223.7052435785239, 612.8869535311505 224.89769238515228, 611.8289917810331 225.41042771773434 C610.7710300309157 225.9231630503164, 609.7957715168109 225.88654569562095, 608.692739028159 225.49485350505563 C607.5897065395072 225.1031613144903, 605.7885181738305 223.83692889199568, 605.2107968491224 223.06027457434246 C604.6330755244143 222.28362025668923, 605.1990105518713 221.97725765550874, 605.2264110799102 220.83492759913628 C605.2538116079492 219.69259754276382, 604.5387171143676 217.05735396296106, 605.3752000173558 216.20629423610768 C606.2116829203441 215.3552345092543, 609.0770568264413 215.89280242031268, 610.2453084978396 215.728569238016 C611.4135601692378 215.56433605571934, 612.4902912428421 215.24295410826738, 612.3847100457457 215.22089514232766 M613.1909946990131 216.1976376550331 C614.0931006332435 216.24160270642028, 614.095910215815 216.19763759968546, 614.3988141991239 217.0134580786918 C614.7017181824327 217.82927855769813, 615.4788094775563 220.0951576621257, 615.0084185988665 221.09256052907108 C614.5380277201766 222.08996339601646, 612.3790700767108 222.08116746334784, 611.5764689269845 222.99787528036398 C610.7738677772581 223.91458309738013, 611.0192983981163 226.60119373740616, 610.1928117005083 226.59280743116793 C609.3663250029002 226.5844211249297, 607.4123683124438 223.95462615499568, 606.6175487413363 222.94755744293462 C605.8227291702289 221.94048873087357, 605.4684972979292 221.53636864109416, 605.4238942738632 220.55039515880156 C605.3792912497972 219.56442167650897, 605.6407502497518 217.7968216537506, 606.3499305969409 217.03171654917912 C607.05911094413 216.26661144460763, 608.7346577330153 216.41269708689384, 609.6789763569977 215.95976453137254 C610.6232949809802 215.50683197585124, 611.5012344949575 214.2655501230562, 612.0158423408353 214.31412121605132 C612.5304501867131 214.36269230904645, 612.9114720967825 215.9259282704382, 612.7666234322644 216.25119108934342" stroke="undefined" stroke-width="1.4" fill="none"></path></g><g><path d="M117.18335101162849 275.44263505596666 C117.18335101162849 275.44263505596666, 117.18335101162849 275.44263505596666, 117.18335101162849 275.44263505596666 M117.18335101162849 275.44263505596666 C117.18335101162849 275.44263505596666, 117.18335101162849 275.44263505596666, 117.18335101162849 275.44263505596666 M116.0199099907025 285.7271780809905 C118.70239625461376 280.9179028908124, 122.63069809274742 279.5466654318353, 123.84355698260055 276.17684655138515 M117.06444719858047 284.1687440193264 C119.03739534408635 283.16412916447763, 120.59609824426704 280.67911592514656, 124.47425868870165 276.8784904883733" stroke="none" stroke-width="0.7" fill="none"></path><path d="M120.46219745977432 274.58821494740226 C121.60854524722592 274.5136438036615, 122.98924915121572 274.13473290489503, 123.79834727204592 275.02531369396706 C124.60744539287612 275.9158944830391, 125.21940253831174 278.55906604384796, 125.31678618475556 279.9316996818346 C125.41416983119937 281.3043333198212, 125.08313038070787 282.4539281344729, 124.38264915070883 283.2611155218867 C123.68216792070979 284.06830290930054, 122.20126166447315 284.3565391318284, 121.11389880476135 284.7748240063175 C120.02653594504955 285.19310888080656, 118.65258383258174 285.9785416776474, 117.858471992438 285.770824768821 C117.06436015229426 285.5631078599946, 116.8638097532433 284.55424324338986, 116.34922776389887 283.528522553359 C115.83464577455443 282.5028018633281, 114.67710053244926 280.91221974461985, 114.7709800563714 279.6165006286356 C114.86485958029354 278.32078151265137, 115.75304400476239 276.6169480388777, 116.91250490743175 275.7542078574534 C118.07196581010112 274.89146767602915, 120.76044665274297 274.5793168348465, 121.72774547238755 274.4400595400898 C122.69504429203214 274.3008022453331, 122.83245116686123 274.623299061932, 122.71629782529926 274.9186640889132 M121.75592454789238 275.53570353286335 C122.55358315387235 275.5750937829668, 122.29942915286281 275.5519484432126, 123.11150895566868 276.4444039159847 C123.92358875847455 277.3368593887568, 126.51093845948348 279.6062000692, 126.62840336472762 280.8904363694961 C126.74586826997175 282.17467266979224, 124.55527714533248 283.67740450252813, 123.81629838713346 284.1498217177613 C123.07731962893443 284.6222389329945, 123.01410163162082 283.8659945574365, 122.1945308155335 283.7249396608953 C121.37495999944618 283.5838847643541, 119.90684248349339 283.6777086347465, 118.89887349060956 283.3034923385141 C117.89090449772573 282.9292760422817, 116.68309865285659 282.0841558287019, 116.14671685823048 281.4796418835007 C115.61033506360437 280.87512793829944, 115.50600661740022 280.4688948357474, 115.6805827228529 279.67640866730665 C115.85515882830559 278.8839224988659, 116.59055382205563 277.61110944831216, 117.19417349094658 276.72472487285614 C117.79779315983754 275.8383402974001, 118.89969665678237 274.75092115532385, 119.30230073619863 274.35810121457064 C119.7049048156149 273.9652812738174, 119.42742385890786 273.9861480319225, 119.60979796744421 274.3678052283368" stroke="undefined" stroke-width="1.4" fill="none"></path></g><g><path d="M187.82451584550506 274.57445210255145 C187.82451584550506 274.57445210255145, 187.82451584550506 274.57445210255145, 187.82451584550506 274.57445210255145 M187.82451584550506 274.57445210255145 C187.82451584550506 274.57445210255145, 187.82451584550506 274.57445210255145, 187.82451584550506 274.57445210255145 M186.57016629493546 284.6076420539502 C189.2936722610124 281.3859424585824, 189.99839474768163 279.3187408794752, 193.91960984865864 277.2747190434392 M187.11295697412157 284.80767031466826 C188.60825446467956 281.90865949883835, 190.73853226166673 279.67735347348935, 193.21310177818415 277.3639410693268" stroke="none" stroke-width="0.7" fill="none"></path><path d="M190.65022994497707 274.3083676471922 C191.6497859580196 274.31625178359934, 192.45797508662974 275.33074183869553, 193.2144631866578 276.39831697037863 C193.97095128668587 277.46589210206173, 195.16684522619522 279.4778300867571, 195.18915854514546 280.7138184372907 C195.2114718640957 281.9498067878243, 194.29298520715483 283.17143327982046, 193.34834310035924 283.8142470735802 C192.40370099356366 284.4570608673399, 190.45357037008608 284.41933376869997, 189.52130590437196 284.570701199849 C188.58904143865783 284.722068630998, 188.58857015476596 285.34441517142113, 187.75475630607448 284.7224516604745 C186.920942457383 284.1004881495279, 184.87181978333192 281.9870100521754, 184.5184228122231 280.8389201341694 C184.16502584111427 279.6908302161635, 185.10454271895594 278.8536210466203, 185.63437447942155 277.83391215243887 C186.16420623988716 276.81420325825746, 186.43966794945948 275.0750386423582, 187.69741337501674 274.720666769081 C188.955158800574 274.3662948958038, 192.19993394456986 275.35508742291256, 193.18084703276517 275.7076809127754 C194.16176012096048 276.06027440263824, 193.84332215459696 276.77383885587545, 193.58289190418867 276.836227708258 M189.38578586507805 274.00123260550487 C190.40384510995628 273.94349701467297, 191.76462215761347 273.8715174962499, 192.88619398073916 274.91680213708116 C194.00776580386486 275.9620867779124, 195.84081372529482 278.98560606007175, 196.11521680383223 280.2729404504925 C196.38961988236963 281.5602748409133, 195.5253689956248 281.6806434384947, 194.53261245196362 282.6408084796059 C193.53985590830243 283.60097352071705, 191.3711689554257 285.6604591777327, 190.15867754186516 286.0339306971597 C188.94618612830462 286.40740221658666, 188.0049340432805 285.65771155511436, 187.25766397060033 284.88163759616776 C186.51039389792015 284.10556363722117, 185.84794757106084 282.1255595450537, 185.67505710578402 281.37748694348 C185.5021666405072 280.6294143419063, 186.0705463140573 281.2630705659444, 186.22032117893932 280.3932019867254 C186.37009604382132 279.52333340750636, 185.86743728245597 277.1925884745944, 186.573706295076 276.1582754681658 C187.27997530769602 275.1239624617372, 190.08695851669796 274.2526225395529, 190.45793525465942 274.18732394815373 C190.82891199262087 274.1220253567546, 188.6624441562238 275.3160849768006, 188.7995667228447 275.76648391977096" stroke="undefined" stroke-width="1.4" fill="none"></path></g><g><path d="M255.605518287815 277.84503288089064 C255.605518287815 277.84503288089064, 255.605518287815 277.84503288089064, 255.605518287815 277.84503288089064 M255.605518287815 277.84503288089064 C255.605518287815 277.84503288089064, 255.605518287815 277.84503288089064, 255.605518287815 277.84503288089064 M258.0307989808418 285.2263541165228 C261.50839579960933 284.94513032329354, 262.86182578262844 282.5889742259173, 264.71422124826194 278.24536689050075 M259.0490634982226 285.6746185734759 C260.77840090433534 284.620295200403, 261.84124297062357 282.37745120028745, 265.7249543122334 278.1909597042319" stroke="none" stroke-width="1" fill="none"></path><path d="M258.5364651693919 274.74124890422144 C259.66371586327125 274.214912919535, 261.12952540023974 274.1291319703389, 262.1615717712868 274.6044911590425 C263.19361814233383 275.07985034774606, 264.30563551626017 276.7457949377249, 264.72874339567403 277.5934040364428 C265.1518512750879 278.4410131351607, 264.8077666897967 278.6706551813004, 264.70021904777 279.69014575135 C264.5926714057433 280.70963632139956, 264.89116772992304 282.7117637077031, 264.083457543514 283.71034745674035 C263.27574735710493 284.7089312057776, 261.1049664113386 285.7144074193063, 259.85395792931564 285.68164824557374 C258.6029494472927 285.64888907184115, 257.3136207112094 284.3508499874761, 256.57740665137624 283.51379241434495 C255.8411925915431 282.6767348412138, 255.5617723910356 281.6465246093579, 255.4366735703167 280.6593028067867 C255.31157474959784 279.67208100421544, 255.54856978451096 278.4475204138397, 255.82681372706296 277.5904615989176 C256.10505766961495 276.73340278399553, 256.7774512933478 275.9130417573897, 257.10613722562874 275.5169499172541 C257.4348231579097 275.12085807711856, 257.6158292514376 275.11902326788663, 257.7989293207487 275.2139105581041 M259.87094897849846 276.28014865317 C261.06919628227706 275.9387338425322, 261.33290200609014 274.5855855174135, 262.00309767739094 275.0056928597692 C262.67329334869174 275.42580020212495, 263.4871868230553 277.64833227239944, 263.8921230063032 278.80079270730437 C264.29705918955113 279.9532531422093, 264.57633747791647 280.80336278709274, 264.43271477687847 281.92045546919866 C264.2890920758405 283.0375481513046, 263.90777272515754 284.8680909205135, 263.03038680007523 285.50334879993994 C262.1530008749929 286.1386066793664, 260.4845547989317 285.9154433050876, 259.1683992263845 285.7320027457573 C257.8522436538373 285.54856218642703, 255.68925209123051 285.2975347478525, 255.13345336479196 284.40270544395827 C254.5776546383534 283.507876140064, 255.8740293370502 281.72348963736107, 255.8336068677532 280.3630269223917 C255.7931843984562 279.0025642074224, 254.25619425914763 276.8902319602333, 254.8909185490099 276.2399291541423 C255.5256428388722 275.58962634805135, 258.953577283371 276.8484948498773, 259.6419526069268 276.46121008584583 C260.3303279304826 276.0739253218144, 259.36806404385936 273.9762263882634, 259.0211704903447 273.91622056995374" stroke="undefined" stroke-width="2" fill="none"></path></g><g><path d="M325.99632756777606 275.4342061713692 C325.99632756777606 275.4342061713692, 325.99632756777606 275.4342061713692, 325.99632756777606 275.4342061713692 M325.99632756777606 275.4342061713692 C325.99632756777606 275.4342061713692, 325.99632756777606 275.4342061713692, 325.99632756777606 275.4342061713692 M328.90257335677825 284.1735842701747 C330.81225013132496 282.66777122739205, 332.9376725913014 280.0781904147123, 334.4208336595263 277.94948324907836 M328.96218247985126 284.123141976852 C330.20274809537545 282.0829507272474, 332.2587372875175 280.72173448798435, 334.23551121034984 278.45321205653187" stroke="none" stroke-width="1" fill="none"></path><path d="M331.0386656883753 274.0718543556303 C331.970573254534 274.0719186902348, 332.12815866353014 276.0499069867156, 332.77523423171704 277.0492978334995 C333.4223097999039 278.0486886802834, 334.75276265519057 278.9493348298204, 334.9211190974967 280.0681994363338 C335.0894755398029 281.1870640428473, 334.31671432047375 282.91757741118704, 333.78537288555395 283.76248547258024 C333.25403145063416 284.60739353397344, 332.8305729981281 285.1773489771217, 331.73307048797807 285.1376478046932 C330.63556797782803 285.09794663226467, 328.22077649391167 284.1914306024763, 327.20035782465385 283.5242784380093 C326.179939155396 282.85712627354224, 326.07010905071706 281.86169884271214, 325.610558472431 281.13473481789106 C325.151007894145 280.40777079307, 324.33694036643556 280.160689813479, 324.4430543549376 279.16249428908293 C324.54916834343965 278.16429876468686, 325.08728120795735 275.6881270920125, 326.2472424034431 275.14556167151477 C327.4072035989289 274.60299625101703, 330.45244660481114 275.84052061221075, 331.4028215278522 275.9071017660964 C332.3531964508933 275.973682919982, 332.03735468774084 275.62570554321894, 331.94949194168936 275.5450485948286 M333.5589343818718 274.13885346272343 C334.3708497041911 274.23075668630463, 334.88647806037386 275.90172102255116, 334.9833788179482 276.93940312834445 C335.0802795755226 277.97708523413775, 334.6684400544078 279.21926849131034, 334.1403389273181 280.3649460974831 C333.6122378002284 281.5106237036558, 332.6229428845794 282.9207122829289, 331.81477205540995 283.8134687653807 C331.0066012262405 284.70622524783255, 330.30793930415996 285.7973414754491, 329.29131395230127 285.72148499219423 C328.2746886004426 285.64562850893935, 326.67043634412215 284.2523530434722, 325.71501994425773 283.3583298658514 C324.7596035443933 282.4643066882305, 323.4723641047846 281.45568844844604, 323.5588155531148 280.357345926469 C323.645267001445 279.259003404492, 325.38253098292466 277.44143841990115, 326.2337286342389 276.7682747339892 C327.08492628555314 276.09511104807723, 327.5758559647941 276.6092712204247, 328.66600146100023 276.31836381099737 C329.7561469572064 276.02745640157, 332.1211364416986 275.1457508244937, 332.77460161147576 275.02283027742527 C333.42806678125294 274.89990973035685, 332.51942727421965 275.45022097168317, 332.5867924796635 275.58084052858686" stroke="undefined" stroke-width="2" fill="none"></path></g><g><path d="M395.61110426470674 277.64883660270146 C395.61110426470674 277.64883660270146, 395.61110426470674 277.64883660270146, 395.61110426470674 277.64883660270146 M395.61110426470674 277.64883660270146 C395.61110426470674 277.64883660270146, 395.61110426470674 277.64883660270146, 395.61110426470674 277.64883660270146 M398.56020551944493 283.5422094066175 C400.3291383843943 282.91034508277016, 401.18424525020885 280.8152294351805, 404.49605683333874 277.2083804429765 M398.1905252505402 284.2992776450294 C399.49656452235337 282.0652131672953, 400.9890346570855 280.3444111426134, 404.3844830786346 277.1118562746489" stroke="none" stroke-width="0.7" fill="none"></path><path d="M399.175377384778 275.2633854680392 C400.2032664989661 275.3057929970096, 402.14330146764854 276.03398721420314, 403.19732178163207 276.54301153312923 C404.2513420956156 277.0520358520553, 405.25691078624794 277.59485123338294, 405.4994992686793 278.31753138159576 C405.74208775111066 279.0402115298086, 405.2540126134387 279.9181001533361, 404.6528526762202 280.879092422406 C404.05169273900174 281.8400846914759, 402.70007052756216 283.42809507150986, 401.8925396453683 284.08348499601504 C401.0850087631744 284.73887492052023, 400.8299652274145 284.93192942688654, 399.807667383057 284.81143196943725 C398.78536953869946 284.69093451198796, 396.5757810704921 284.0560458731299, 395.75875257922297 283.3605002513195 C394.94172408795384 282.66495462950905, 394.9137990419193 281.6088594498886, 394.90549643544216 280.63815823857465 C394.89719382896504 279.6674570272607, 394.9873776550798 278.6000110931729, 395.7089369403602 277.53629298343577 C396.43049622564064 276.47257487369865, 398.61028432411916 274.4811975763099, 399.2348521471248 274.2558495801518 C399.85941997013043 274.03050158399367, 399.40865389841787 276.0066738885385, 399.4563438783941 276.1842050064869 M401.3004474165639 275.14819000923933 C402.179730888471 275.3421665055342, 405.3245873026832 275.52082671089477, 405.6486091998038 276.73019271553034 C405.9726310969244 277.9395587201659, 403.56104873592574 281.06405116518084, 403.2445787992873 282.40438603705286 C402.92810886264886 283.7447209089249, 404.56353550596697 284.352559986452, 403.7497895799733 284.7722019467624 C402.93604365397965 285.1918439070728, 399.5071293470229 285.22972159168876, 398.36210324332546 284.9222377989151 C397.21707713962803 284.6147540061414, 397.45572029842316 283.9132589292632, 396.8796329577888 282.92729919012055 C396.3035456171544 281.9413394509779, 395.26143492013085 280.12365697181946, 394.905579199519 279.00647936405915 C394.5497234789072 277.88930175629883, 393.86212042915685 277.08610362666326, 394.7444986341178 276.2242335435588 C395.62687683907876 275.36236346045433, 399.149049281169 273.90487623068515, 400.1998484292849 273.8352588654323 C401.25064757740074 273.76564150017947, 400.9170285544118 275.5690688073219, 401.04929352281283 275.8065293520417 C401.1815584912139 276.0439898967615, 401.04444739679445 275.3174676107927, 400.993438239691 275.2600221337511" stroke="undefined" stroke-width="1.4" fill="none"></path></g><g><path d="M468.04446963488635 274.36355082695513 C468.04446963488635 274.36355082695513, 468.04446963488635 274.36355082695513, 468.04446963488635 274.36355082695513 M468.04446963488635 274.36355082695513 C468.04446963488635 274.36355082695513, 468.04446963488635 274.36355082695513, 468.04446963488635 274.36355082695513 M467.99251598107827 284.0754081483296 C468.55755681552256 282.4894123022811, 469.48321118717536 280.0453406809426, 474.6705455156422 276.75366982987464 M467.75277900596 283.93043927976714 C469.17664733824324 282.1847664533244, 471.2547230256578 280.2180501796081, 473.99271153489434 276.60730948508444" stroke="none" stroke-width="0.7" fill="none"></path><path d="M467.8111455348122 274.6319595003235 C468.63561144276576 274.21340615656754, 470.3094233140973 273.83554465697534, 471.3369895868425 274.4404268946873 C472.3645558595877 275.0453091323992, 473.53616624064875 277.1372219656879, 473.9765431712835 278.2612529265951 C474.4169201019182 279.3852838875023, 474.14188755912267 280.31482396097954, 473.97925117065074 281.1846126601303 C473.8166147821788 282.0544013592811, 473.5246273055897 282.76707571891814, 473.00072484045205 283.47998512149957 C472.4768223753144 284.192894524081, 471.8787480803633 285.40995315144886, 470.83583637982474 285.46206907561896 C469.79292467928616 285.51418499978905, 467.5247483621198 284.5189822240148, 466.7432546372206 283.79268066652025 C465.96176091232144 283.0663791090257, 466.1679663348176 282.1626285599435, 466.14687403042956 281.1042597306518 C466.1257817260415 280.04589090136005, 466.0851807908508 278.29875323300485, 466.6167008108923 277.44246769076983 C467.14822083093384 276.5861821485348, 468.9546501627484 276.4988809442892, 469.3359941506785 275.9665464772417 C469.7173381386086 275.4342120101942, 468.9884446861785 274.2179494364995, 468.9047647384729 274.2484608884846 M472.6684800139464 275.5234350017174 C473.8532410627975 275.7259268493306, 475.72406460259265 277.28891085248176, 475.8943718240191 278.10857034942387 C476.0646790454456 278.928229846366, 474.19474885570514 279.27687511937586, 473.6903233425053 280.44139198337007 C473.1858978293054 281.6059088473643, 473.55063414327776 284.2003718127278, 472.86781874482006 285.0956715333893 C472.18500334636235 285.9909712540508, 470.8064986745549 286.25114485894227, 469.5934309517591 285.8131903073391 C468.3803632289633 285.3752357557359, 466.1559549052328 283.3788574877575, 465.5894124080452 282.46794422377025 C465.02286991085754 281.557030959783, 466.029235005751 281.3600417759841, 466.1941759686332 280.34771072341573 C466.3591169315154 279.3353796708474, 465.9646547058803 277.44319168643915, 466.5790581853384 276.3939579083601 C467.1934616647965 275.34472413028107, 468.86230262616516 274.307392484508, 469.8805968453817 274.05230805494165 C470.8988910645983 273.7972236253753, 472.13729199907993 274.4393987964313, 472.68882350063785 274.86345133096205 C473.24035500219577 275.2875038654928, 473.1747602764625 276.2569195474593, 473.1897858547291 276.5966232621262" stroke="undefined" stroke-width="1.4" fill="none"></path></g><g><path d="M534.7857363968637 279.38032915424463 C534.7857363968637 279.38032915424463, 534.7857363968637 279.38032915424463, 534.7857363968637 279.38032915424463 M534.7857363968637 279.38032915424463 C534.7857363968637 279.38032915424463, 534.7857363968637 279.38032915424463, 534.7857363968637 279.38032915424463 M538.7151003935601 285.56349745937393 C539.5929853986352 283.75557215515073, 540.5344124515063 282.437607357782, 543.3516752004042 278.6131651694079 M537.6139333104429 285.1104458708801 C539.0969358617856 282.82468745249537, 540.6037553044376 281.5786711335001, 543.5165536290912 278.4619817554047" stroke="none" stroke-width="0.7" fill="none"></path><path d="M540.0291909715062 276.1156838186781 C540.964256712449 276.1708895188118, 542.2070503574276 276.10351511082155, 543.0747219484457 276.7406771782561 C543.9423935394638 277.3778392456906, 544.9836386219379 278.7655808003652, 545.2352205176143 279.9386562232852 C545.4868024132907 281.11173164620516, 545.4359945998685 283.09231084565255, 544.5842133225037 283.77912971577604 C543.7324320451389 284.4659485858995, 541.2777185645629 284.02851683142666, 540.1245328534251 284.059569444026 C538.9713471422873 284.09062205662536, 538.5463285186896 284.2671427220242, 537.6650990556769 283.96544539137204 C536.7838695926642 283.6637480607199, 535.296978506367 283.03666094133126, 534.8371560753488 282.24938546011316 C534.3773336443306 281.46210997889506, 534.4192817664027 280.1865810722044, 534.9061644695678 279.24179250406337 C535.3930471727328 278.29700393592236, 536.5753235396695 277.2103839471542, 537.7584522943395 276.58065405126723 C538.9415810490094 275.9509241553803, 541.4445691273388 275.6941474589174, 542.0049369975876 275.4634131287416 C542.5653048678364 275.23267879856576, 541.2227951854596 275.164865581375, 541.1206595158324 275.19624807021216 M540.0443680446115 276.3559686535522 C541.359179805974 276.32313305170857, 543.0304116798166 276.25952674650847, 544.026826333498 276.9281385302996 C545.0232409871794 277.5967503140907, 546.0662870537568 279.2481218744768, 546.0228559666997 280.3676393562989 C545.9794248796426 281.48715683812105, 544.2924353413013 283.0472779616458, 543.7662398111553 283.6452434212324 C543.2400442810093 284.243208880819, 543.8789756305579 283.8720033860707, 542.865682785824 283.95543211381846 C541.8523899410901 284.03886084156625, 538.8538965959801 284.4458343846002, 537.6864827427521 284.1458157877191 C536.5190688895241 283.84579719083797, 536.313822522598 283.147749517656, 535.8611996664562 282.1553205325317 C535.4085768103143 281.16289154740736, 534.7897556250181 279.2238533620807, 534.9707456059012 278.1912418769732 C535.1517355867844 277.1586303918657, 536.132792985111 276.62064620634686, 536.947139551755 275.95965162188656 C537.7614861183989 275.29865703742627, 539.1373753215948 274.2141644105568, 539.8568250057652 274.22527437021154 C540.5762746899356 274.23638432986627, 541.0343462815159 275.98168149895105, 541.2638376567774 276.02631137981484" stroke="undefined" stroke-width="1.4" fill="none"></path></g><g><path d="M604.1105832657689 278.6929014444793 C604.1105832657689 278.6929014444793, 604.1105832657689 278.6929014444793, 604.1105832657689 278.6929014444793 M604.1105832657689 278.6929014444793 C604.1105832657689 278.6929014444793, 604.1105832657689 278.6929014444793, 604.1105832657689 278.6929014444793 M607.2886610220505 285.0631983793051 C609.1180183567839 283.4512156971394, 610.6059658986396 281.1488152871514, 613.3860339677697 277.54749399756867 M606.8824644412242 284.1283295578709 C609.2099311347487 281.9284309190739, 611.2018741096113 279.84670160256627, 614.1283547892431 276.6558723152757" stroke="none" stroke-width="0.7" fill="none"></path><path d="M608.8904561420886 275.5699401936318 C610.1472665168337 275.3537788674597, 612.6395869517847 275.87314944727916, 613.7418373817517 276.28358714960405 C614.8440878117186 276.69402485192893, 615.3444099586544 277.1883172420622, 615.5039587218902 278.0325664075811 C615.6635074851259 278.8768155731, 615.4078468621673 280.2545467193947, 614.6991299611665 281.34908214271724 C613.9904130601657 282.4436175660398, 612.174951773626 284.1640919427214, 611.2516573158853 284.5997789475163 C610.3283628581445 285.0354659523112, 610.0378722512799 284.2573278565859, 609.159363214722 283.96320417148655 C608.2808541781642 283.6690804863872, 606.78780745775 283.7528310541606, 605.9806030965385 282.8350368369203 C605.173398735327 281.91724261968005, 604.3404054031654 279.43023691740154, 604.3161370474531 278.45643886804504 C604.2918686917409 277.48264081868854, 604.6931694106587 277.50525371646484, 605.8349929622652 276.99224854078113 C606.9768165138718 276.47924336509743, 610.1715632965592 275.7697560432222, 611.1670783570926 275.3784078139429 C612.162593417626 274.9870595846636, 611.8367750532591 274.6123071371204, 611.8080833254656 274.6441591651056 M611.3610774677062 276.0608424138648 C612.4732941727955 275.9668216299523, 612.7207577163662 275.6523151881693, 613.4884211246067 276.16410716652916 C614.2560845328472 276.675899144889, 615.9338157143349 277.8456113506154, 615.9670579171494 279.1315942840239 C616.000300119964 280.4175772174324, 614.5193607466878 282.8230383636337, 613.6878743414939 283.8800047669801 C612.8563879362999 284.9369711703265, 611.7885036116995 285.1666652668359, 610.9781394859862 285.4733927041024 C610.1677753602728 285.78012014136897, 609.7229972292448 286.51709354013127, 608.8256895872139 285.7203693905794 C607.928381945183 284.9236452410275, 606.0805944116687 281.68394906299056, 605.5942936338006 280.6930478067911 C605.1079928559325 279.7021465505917, 605.4533840326197 280.37080543898713, 605.9078849200054 279.7749618533826 C606.362385807391 279.17911826777805, 607.3504130211186 277.808882559834, 608.3212989581145 277.1179862931639 C609.2921848951105 276.4270900264938, 611.2054299794229 275.7340716677571, 611.7332005419809 275.629584253362 C612.2609711045388 275.5250968389669, 611.4454311039277 276.3514417282405, 611.4879223334626 276.49106180679297" stroke="undefined" stroke-width="1.4" fill="none"></path></g><g><path d="M330.05242479519535 239.58667572424076 C330.2216480907886 246.65223126718863, 330.0861200480207 252.923115020467, 330.08719088322835 260.015914926511 M330.05515456699857 240.03642055402173 C329.98732944599465 247.54946497724262, 330.18252074344696 255.31038101778375, 330.2092155896501 260.2402415651852" stroke="undefined" stroke-width="1" fill="none"></path></g><g><path d="M541.1742398850042 250.75568103951784 C544.7102931412992 246.83675747131457, 549.697781443821 243.1431221826866, 559.1644467814841 238.46822070250178 M540.6725181247439 250.41579991638395 C544.4492072798959 247.66326523157176, 549.0001636851305 245.10979045523314, 560.8623501061948 240.97581371620748" stroke="undefined" stroke-width="2" fill="none"></path></g><g><path d="M559.8955716238369 240.1073013935602 C568.6890105515513 241.70055668220434, 572.1807089858054 246.96454423563173, 580.5479048684983 248.87038259368427 M559.4248209138877 240.56612581361426 C567.2046928386237 243.46353306338887, 574.47807045185 248.5100920242931, 580.9765169848705 249.92625062502265" stroke="#000000" stroke-width="2" fill="none"></path></g><g><path d="M540.6806963235489 330.9251045009952 C544.4960395510878 336.6533401304799, 548.432612597956 342.9115253723771, 553.1436645157889 348.20484066039387 M540.1891635067169 330.96433797004033 C544.845500682154 336.4662469775499, 548.1782666509054 340.2601592792388, 555.0504607842705 350.3285946407006" stroke="#000000" stroke-width="1.4" fill="none"></path></g><g><path d="M556.4523928973941 348.56075816097126 C550.0734396249138 358.8290802368184, 541.815748748926 366.47084156959295, 540.8883720707626 368.8107563470679 M554.9903647487544 350.3322890129039 C551.8093605331327 355.90603412303284, 548.0407818709492 359.6335243197648, 540.1184495901225 369.6236584725082" stroke="#000000" stroke-width="1.4" fill="none"></path></g><g><path d="M541.4888754306608 370.31360247431695 C534.7290708375233 364.6066772082562, 529.7214434074452 356.5427066311332, 525.2533299043039 348.18341455940094 M540.6835630191497 370.87994900503884 C536.1984375886499 363.4317685227612, 530.9278582597947 357.1883574246943, 525.7656046743436 350.4539997693045" stroke="#000000" stroke-width="1.4" fill="none"></path></g><g><path d="M526.5508293423541 348.11584353396165 C527.4073324530511 344.59902576804643, 533.200339698044 340.7994041123154, 541.1839971739125 329.91851439228975 M525.4540989966271 350.732522188688 C530.2105252075539 342.33718030015416, 535.8992397109653 335.30982161948714, 539.7356886573729 329.7877662066659" stroke="#000000" stroke-width="1.4" fill="none"></path></g><g><path d="M100.3876920055465 360.3224834751823 C250.26141725227967 352.1032813202951, 400.532517289669 344.5052257786464, 500.0808715642113 340.06317932484444 M99.83963019842658 360.14136349208917 C236.06430813844324 353.6099015937306, 372.0846391094897 346.73818633396434, 500.1906788301124 339.9863626021395" stroke="undefined" stroke-width="1.5" fill="none"></path></g><g><path d="M100.2120637229121 359.95554026977163 C242.38793193285716 364.44147516547633, 385.10763126111624 368.36782483304785, 500.3949494402302 369.75589504066244 M100.1960121565739 359.852946146777 C252.16284627654355 363.6126282520717, 404.1069225992963 367.57478953065174, 499.9771234717576 370.0403168423378" stroke="undefined" stroke-width="1.5" fill="none"></path></g><text x="400" y="560" text-anchor="middle" font-family="sans-serif" font-size="16" fill="#222" font-style="italic">Cooperate first. Mirror after. Win forever.</text></svg>