<?xml version="1.0" encoding="UTF-8"?>
<svg width="800" height="600" viewBox="0 0 800 600" xmlns="http://www.w3.org/2000/svg"><rect width="800" height="600" fill="#FFFFFF"></rect><g><path d="M114.90488213394724 155.53583587002709 C114.90488213394724 155.53583587002709, 114.90488213394724 155.53583587002709, 114.90488213394724 155.53583587002709 M114.90488213394724 155.53583587002709 C114.90488213394724 155.53583587002709, 114.90488213394724 155.53583587002709, 114.90488213394724 155.53583587002709 M116.35056493473144 161.51110010351138 C118.03341155147977 160.80076780522768, 119.46379938500338 157.25924061263763, 122.94764798344275 153.33306357693908 M115.27973696217661 162.97408004312993 C117.82651305555557 159.4683215900843, 120.95985795382641 156.60089854038006, 122.23347842550352 153.89817214906773 M118.97616213690206 164.42830220206127 C121.57263352090202 162.6251742822524, 123.52770976049584 161.93049977689486, 126.15081763837594 157.88456084564487 M119.34761174139038 165.28363391511203 C122.8017629580956 161.8591253363427, 124.37632084745826 159.27477759893367, 126.85709995235077 158.05676735828501" stroke="none" stroke-width="0.6" fill="none"></path><path d="M119.40450845911386 153.61781586934535 C120.68325578487746 153.19928357832617, 122.28435546360228 153.50275379523163, 123.37290777180112 154.06025408135878 C124.46146007999997 154.61775436748593, 125.40405115919665 155.5948783594953, 125.93582230830694 156.96281758610823 C126.46759345741722 158.33075681272115, 126.87858218134619 160.81699794231704, 126.56353466646281 162.26788944103632 C126.24848715157944 163.7187809397556, 125.17161363933403 165.19033225060338, 124.04553721900669 165.6681665784238 C122.91946079867935 166.14600090624424, 121.15636328551908 165.51458317882717, 119.80707614449875 165.13489540795888 C118.45778900347842 164.7552076370906, 116.79521492148938 164.07311785346525, 115.94981437288475 163.39003995321406 C115.10441382428012 162.70696205296287, 114.92701979759164 162.32453501111075, 114.73467285287096 161.03642800645167 C114.54232590815027 159.7483210017926, 113.89518954157637 156.71555355440208, 114.79573270456066 155.66139792525962 C115.69627586754495 154.60724229611716, 119.43558213887042 154.95935144692527, 120.1379318307767 154.7114942315969 C120.84028152268297 154.46363701626854, 119.30188823733545 154.12619663904695, 119.00983085599833 154.17425463328945 M119.82183823637678 153.23582959139233 C120.90641832033839 153.0916680115006, 121.83650655054748 155.62314263785132, 122.63620673208736 156.3906039231901 C123.43590691362724 157.15806520852888, 123.93051157336568 156.5629871125176, 124.62003932561602 157.84059730342506 C125.30956707786636 159.11820749433252, 127.24310611872012 162.57169424935583, 126.7733732455894 164.05626506863487 C126.30364037245867 165.54083588791391, 123.25018600604606 166.347531863047, 121.80164208683165 166.7480222190993 C120.35309816761723 167.1485125751516, 119.324802952449 166.95405450308735, 118.08210973030292 166.45920720494863 C116.83941650815683 165.9643599068099, 115.13877411079345 165.02793478326782, 114.34548275395517 163.77893843026692 C113.55219139711689 162.529942077266, 112.85553322129779 160.45633839951648, 113.32236158927321 158.9652290869432 C113.78918995724864 157.4741197743699, 116.25712602694196 155.40966688646924, 117.14645296180768 154.83228255482717 C118.0357798966734 154.2548982231851, 118.40627970963702 155.6889965252903, 118.65832319846756 155.50092309709078 C118.9103666872981 155.31284966889126, 118.37976508963355 153.99765712532061, 118.65871389479088 153.70384198563005" stroke="#000000" stroke-width="1.2" fill="none"></path></g><g><path d="M184.101280006193 157.3867751376776 C184.101280006193 157.3867751376776, 184.101280006193 157.3867751376776, 184.101280006193 157.3867751376776 M184.101280006193 157.3867751376776 C184.101280006193 157.3867751376776, 184.101280006193 157.3867751376776, 184.101280006193 157.3867751376776 M185.79042830108253 162.76914078082322 C186.10878311214233 161.3439087168716, 188.85648145440535 160.0607772334398, 193.0353774252725 154.71684819218282 M184.77172180840827 163.86407797693423 C187.57079829285985 160.90771397046356, 191.26280843902987 157.3873936990746, 192.80907372678988 155.81704927873025 M191.1423990182438 166.31180142826327 C193.15447176667402 162.6100716740726, 195.3623699318334 159.52556945819907, 195.43910409542835 157.84474538657187 M190.07216720008404 165.53953894718984 C192.2925711748086 163.00700835063705, 193.86265018913878 161.4997428953413, 196.5032115259483 158.84886092856112" stroke="none" stroke-width="0.6" fill="none"></path><path d="M187.2380949298325 154.36244647076342 C188.48777321189618 153.79837928008277, 190.64522238147163 154.57124793246268, 192.071147395444 155.0608488688333 C193.49707240941638 155.5504498052039, 195.0046971368069 156.26411993943526, 195.7936450136667 157.300052088987 C196.58259289052648 158.33598423853874, 197.18586313381664 160.17445617447834, 196.80483465660282 161.2764417661438 C196.423806179389 162.37842735780924, 194.5979336070835 163.176197099303, 193.50747415038384 163.91196563897964 C192.4170146936842 164.64773417865626, 191.5674926040883 165.65414821522364, 190.26207791640496 165.69105300420358 C188.95666322872162 165.72795779318352, 186.83833334676495 164.71540637259352, 185.67498602428378 164.1333943728592 C184.5116387018026 163.55138237312485, 183.5938910698837 163.2663446024784, 183.2819939815179 162.19898100579752 C182.9700968931521 161.13161740911664, 183.10392496751643 158.91804971718864, 183.80360349408892 157.72921279277386 C184.5032820206614 156.5403758683591, 186.64093589844492 155.63998013902508, 187.48006514095272 155.06595945930886 C188.3191943834605 154.49193877959263, 188.80799181849218 154.38751119403096, 188.83837894913563 154.2850887144765 M187.7128928271923 153.1274379572288 C188.8598064186642 152.77593059616595, 190.86876552590013 153.303201677052, 191.93740806542178 153.92716475545322 C193.00605060494343 154.55112783385445, 193.39448445860373 155.37496606609758, 194.12474806432218 156.87121642763617 C194.85501167004062 158.36746678917476, 196.69407122307535 161.63974953611185, 196.3189896997325 162.90466692468476 C195.94390817638964 164.16958431325767, 192.96712836591186 163.80479762085199, 191.87425892426495 164.4607207590737 C190.78138948261804 165.1166438972954, 191.0072338471591 167.19152200507787, 189.76177304985103 166.84020575401496 C188.51631225254295 166.48888950295205, 185.3367299173501 163.32220095380782, 184.40149414041647 162.35282325269625 C183.46625836348284 161.38344555158469, 184.0216614643079 162.15498443207565, 184.1503583882492 161.0239395473455 C184.2790553121905 159.89289466261533, 184.47086452813483 156.55787720431906, 185.17367568406434 155.5665539443154 C185.87648683999385 154.57523068431172, 187.62151260777532 155.40796183365387, 188.36722532382632 155.07599998732346 C189.11293803987732 154.74403814099304, 189.47424609218436 153.52502271289043, 189.6479519803703 153.57478286633292" stroke="#000000" stroke-width="1.2" fill="none"></path></g><g><path d="M256.67966933784555 154.22755676830528 C256.67966933784555 154.22755676830528, 256.67966933784555 154.22755676830528, 256.67966933784555 154.22755676830528 M256.67966933784555 154.22755676830528 C256.67966933784555 154.22755676830528, 256.67966933784555 154.22755676830528, 256.67966933784555 154.22755676830528 M256.21115460786905 162.3383229342202 C258.8849450699729 159.52319327623775, 259.4867228574288 158.2908667444487, 261.28896782605796 156.3440806241498 M256.6609922182077 161.6448365501829 C258.1000491735176 160.31862344295075, 258.8371087794334 158.57022194958492, 262.0601007760943 156.00610959964763 M260.0886793605466 167.95482390387943 C260.93741764860414 163.08258688037972, 264.2719632974786 161.63688705990512, 266.5214701215242 156.65847356249844 M258.78490001845705 167.16217976583116 C261.07359619759313 165.3694735351687, 261.8922450242252 162.46240446745298, 266.58528286753955 158.0514962208649" stroke="none" stroke-width="0.6" fill="none"></path><path d="M260.90446238750826 154.6292273294667 C262.16731624642347 154.63625738920206, 263.6076142197334 155.09071907974342, 264.39426436502225 156.0497482734703 C265.1809145103111 157.00877746719718, 265.55848215702815 159.16195872205608, 265.6243632592412 160.38340249182798 C265.69024436145423 161.60484626159987, 265.548872830316 162.31375411247137, 264.78955097830067 163.37841089210167 C264.03022912628535 164.44306767173197, 262.33670747448735 166.46969077279613, 261.06843214714934 166.77134316960982 C259.8001568198113 167.07299556642351, 258.14293087948414 166.10172404455577, 257.1798990142725 165.18832527298392 C256.2168671490609 164.27492650141207, 255.66513791713675 162.53997705871274, 255.29024095587968 161.29095054017876 C254.91534399462262 160.04192402164477, 254.7429959312813 158.82072463494683, 254.93051724673012 157.69416616178003 C255.11803856217892 156.56760768861324, 255.39596335736854 155.09419566835183, 256.4153688485726 154.53159970117792 C257.43477433977665 153.96900373400402, 260.0296391805603 154.37262097560028, 261.0469501939544 154.31859035873663 C262.06426120734847 154.26455974187297, 262.538035149196 153.96034638405058, 262.5192349289371 154.20741599999602 M256.46813062823765 152.88805071044715 C257.1840260355069 152.5004567020992, 258.9587255775633 154.62818440274245, 260.40876980038195 155.4380978140346 C261.8588140232006 156.24801122532674, 264.2668841221059 157.00108698565, 265.1683959651495 157.74753117819995 C266.0699078081931 158.4939753707499, 265.7810995069324 158.88714042499237, 265.8178408586434 159.91676296933431 C265.85458221035447 160.94638551367626, 266.0971923912645 163.04000514927486, 265.3888440754156 163.92526644425172 C264.68049575956667 164.81052773922858, 263.0730216124756 165.0609563971562, 261.56775096355 165.2283307391955 C260.0624803146244 165.39570508123484, 257.4469690847508 165.59886013121678, 256.35722018186186 164.9295124964877 C255.26747127897298 164.2601648617586, 255.47306935078652 162.612799953479, 255.02925754621663 161.212244930821 C254.58544574164674 159.81168990816298, 253.23326787220498 157.54514999940181, 253.6943493544425 156.52618236053954 C254.15543083668 155.50721472167726, 256.8684434837565 155.49139147022754, 257.7957464396417 155.09843909764734 C258.72304939552686 154.70548672506715, 259.4344712203136 154.2073330505809, 259.2581670897536 154.16846812505827" stroke="#000000" stroke-width="1.2" fill="none"></path></g><g><path d="M326.38835165490434 156.52381810982132 C326.38835165490434 156.52381810982132, 326.38835165490434 156.52381810982132, 326.38835165490434 156.52381810982132 M326.38835165490434 156.52381810982132 C326.38835165490434 156.52381810982132, 326.38835165490434 156.52381810982132, 326.38835165490434 156.52381810982132 M326.51176027393376 165.3452955241579 C327.2270152450771 162.8572240937701, 330.31807163098756 159.67499345079284, 333.344760919577 155.96703369420158 M326.10951912864766 164.20201534949845 C328.6659086762207 162.28104899565028, 330.4412501079792 159.40398676304622, 333.1363409144574 155.6918745585453 M330.6098860027657 167.54357251276852 C332.43273989436796 165.95869335691066, 332.7395800639001 164.98362659019483, 336.00439796631855 160.94010798212463 M329.80051146597503 167.29270640741763 C331.68588135210473 165.01296066847783, 334.047731847883 163.06151191904385, 336.187709752213 159.86848316452352" stroke="none" stroke-width="0.6" fill="none"></path><path d="M328.31720290688884 154.32735966665797 C329.4424602659334 153.9683534906148, 331.5276730568718 154.5952775235145, 332.7423146830546 155.0075568991442 C333.9569563092374 155.41983627477387, 335.1136604874655 155.6051582633543, 335.60505266398576 156.801035920436 C336.096444840506 157.9969135775177, 336.2307978028384 160.69788968539777, 335.69066774217634 162.1828228416343 C335.15053768151427 163.66775599787084, 333.3763683051737 164.95496881983374, 332.3642723000131 165.71063485785515 C331.35217629485254 166.46630089587657, 330.79341484209203 167.0080556889323, 329.6180917112128 166.71681906976283 C328.44276858033356 166.42558245059337, 326.2204570752975 165.08001432830324, 325.31233351473776 163.96321514283827 C324.40420995417804 162.8464159573733, 324.0328298184412 161.2066694874424, 324.1693503478544 160.01602395697296 C324.3058708772676 158.8253784265035, 325.20400692077294 157.9704440503875, 326.13145669121684 156.8193419600216 C327.05890646166074 155.6682398696557, 328.994624520154 153.6233938281757, 329.7340489705177 153.10941141477753 C330.47347342088136 152.59542900137936, 330.691835522728 153.33922366667173, 330.56800339339884 153.73544747963265 M328.26998363140314 155.6052175047495 C329.1779085430063 155.47841456234542, 329.43607426151027 155.25673001830313, 330.37302706126593 155.34289555221594 C331.3099798610216 155.42906108612874, 332.7542085513908 155.3756518265679, 333.89170042993715 156.12221070822628 C335.0291923084835 156.86876958988466, 337.25826802038506 158.30891854660396, 337.1979783325441 159.8222488421663 C337.13768864470313 161.33557913772862, 334.881468468428 164.10425786993605, 333.52996230289125 165.2021924816003 C332.1784561373545 166.30012709326454, 330.14428575060373 166.33294564190078, 329.0889413393237 166.40985651215175 C328.03359692804366 166.48676738240272, 328.07505275313486 166.50766955736103, 327.197895835211 165.66365770310608 C326.32073891728714 164.81964584885114, 324.49779825029566 162.76507839866858, 323.82599983178045 161.34578538662203 C323.15420141326524 159.92649237457547, 322.33698499727706 158.12539136337455, 323.1671053241199 157.1478996308268 C323.9972256509628 156.17040789827905, 328.0831041547774 155.98748974954117, 328.8067217928376 155.4808349913355 C329.5303394308978 154.97418023312986, 327.61723939925184 154.13369256857428, 327.50881115248103 154.1079710815929" stroke="#000000" stroke-width="1.2" fill="none"></path></g><g><path d="M394.47606363485187 157.410991434893 C394.47606363485187 157.410991434893, 394.47606363485187 157.410991434893, 394.47606363485187 157.410991434893 M394.47606363485187 157.410991434893 C394.47606363485187 157.410991434893, 394.47606363485187 157.410991434893, 394.47606363485187 157.410991434893 M394.6955822630279 163.20142672228826 C399.0584724277515 160.40101730965978, 401.04868360561784 157.98587914286588, 402.6486978481059 154.9400754844533 M395.278496494294 164.05963427716512 C397.70413417640174 161.2690649253201, 399.66202884985563 159.39995822507356, 403.3382891158619 155.18820185013897 M399.78308252789924 166.3473837306216 C402.2440460928931 164.77679682276468, 402.9771190413888 162.59505205350968, 404.74957570866496 159.96834250310422 M400.20818647288206 166.59396821821034 C400.78532742326735 165.3198678750914, 402.09449276396737 163.46660416858936, 405.59695443156613 160.20930264844495" stroke="none" stroke-width="0.6" fill="none"></path><path d="M402.01105212513556 153.62495758993657 C403.0873411092993 154.13470636667276, 403.7706126406932 156.36563441705937, 404.36552836049293 157.70598314528615 C404.9604440802927 159.04633187351294, 405.84787956562616 160.35816458132047, 405.58054644393405 161.66704995929737 C405.31321332224195 162.97593533727428, 403.55555787668624 164.76123958917734, 402.76152963034014 165.5592954131476 C401.96750138399403 166.35735123711785, 402.0547491400552 166.6025143669769, 400.81637696585756 166.45538490311898 C399.5780047916599 166.30825543926107, 396.36800200827304 165.5395220376252, 395.33129658515435 164.6765186300002 C394.29459116203566 163.8135152223752, 394.7704413595796 162.45175213314633, 394.5961444271456 161.27736445736903 C394.4218474947116 160.10297678159174, 393.7302343109195 158.71211426823479, 394.28551499055027 157.63019257533634 C394.840795670181 156.5482708824379, 396.48006183737107 155.33161334304958, 397.9278285049302 154.78583429997832 C399.3755951724893 154.24005525690706, 401.9618319134086 154.1424322192326, 402.97211499590503 154.3555183169087 C403.98239807840145 154.5686044145848, 404.13320937437146 155.9382469665815, 403.9895269999087 156.06435088603482 M398.84527795706094 153.75058126567725 C399.9061461117446 153.38402989022887, 401.9201954328964 154.05962623692926, 403.1204080879654 154.59441708118845 C404.32062074303445 155.12920792544764, 405.80811763373043 155.8186747597116, 406.0465538874753 156.95932633123246 C406.28499014122013 158.09997790275332, 405.1538157714181 160.2709331391453, 404.5510256104345 161.43832651031363 C403.9482354494509 162.60571988148195, 403.42723125010883 163.08026831139358, 402.42981292157356 163.9636865582423 C401.4323945930383 164.84710480509102, 399.4824203758659 166.69734860392518, 398.5665156392228 166.73883599140592 C397.65061090257973 166.78032337888666, 397.6283511217481 165.10064735530366, 396.9343845017151 164.21261088312679 C396.2404178816821 163.3245744109499, 394.8242641056337 162.4856051039896, 394.4027159190247 161.4106171583446 C393.98116773241566 160.3356292126996, 393.8793256527356 158.72838742180576, 394.405095382061 157.7626832092568 C394.9308651113864 156.79697899670785, 397.0710763626715 156.24868373202366, 397.5573342949772 155.61639188305085 C398.0435922272829 154.98410003407804, 396.9671375498062 154.10580263690994, 397.3226429758952 153.96893211541996" stroke="#000000" stroke-width="1.2" fill="none"></path></g><g><path d="M464.1375609243479 158.34122246437647 C464.1375609243479 158.34122246437647, 464.1375609243479 158.34122246437647, 464.1375609243479 158.34122246437647 M464.1375609243479 158.34122246437647 C464.1375609243479 158.34122246437647, 464.1375609243479 158.34122246437647, 464.1375609243479 158.34122246437647 M465.85018612254237 163.86124992504156 C467.0821052796895 161.53819844672825, 470.54748660938526 159.74570593711627, 472.217486932398 157.21214852774486 M465.78483894772893 163.4669022347376 C468.01524886456 161.87102569633805, 470.0194720620311 159.92175512780753, 472.9327615122844 156.81210974228057 M471.75456146564585 164.64006815882368 C473.067073863579 163.43470311974937, 473.7124257843371 162.34658971629014, 475.97870154475095 159.7111810325454 M471.9953933888186 165.00036398203753 C473.0299198714467 163.34976926309812, 474.659566896104 161.5414442081665, 476.4188223377078 159.44542721894766" stroke="none" stroke-width="0.6" fill="none"></path><path d="M470.8568574182516 154.33418375009688 C471.8440990266449 154.35180452546973, 471.8416221178223 155.09755614570423, 472.76932117518544 155.9782864090477 C473.6970202325486 156.8590166723912, 475.9430671427898 158.3800021460371, 476.4230517624304 159.61856533015776 C476.90303638207104 160.85712851427843, 476.48934899820836 162.54510659237934, 475.6492288930293 163.4096655137716 C474.8091087878503 164.2742244351639, 472.60872759610186 164.5276289644998, 471.38233113135607 164.8059188585115 C470.1559346666103 165.08420875252318, 469.2957760923757 165.2814925743312, 468.29085010455464 165.07940487784168 C467.28592411673355 164.87731718135217, 466.0218742754363 164.74301475905864, 465.35277520442963 163.59339267957435 C464.683676133423 162.44377060009006, 463.97836264915225 159.51566632341365, 464.27625567851453 158.1816724009359 C464.5741487078768 156.84767847845814, 465.96015241304247 156.3492111967291, 467.1401333806032 155.58942914470782 C468.3201143481639 154.82964709268654, 470.66310777535625 153.9636472245705, 471.35614148387896 153.6229800888082 C472.04917519240166 153.28231295304587, 471.46809769763945 153.4526584487035, 471.29833563173946 153.54542633013395 M467.9787777645259 153.23772604173976 C469.1809214486046 152.9817879980381, 471.420757814316 155.18268565519517, 472.80997873732355 156.0961716230797 C474.1991996603311 157.00965759096422, 475.77994686802333 157.8863024641392, 476.31410330257114 158.71864184904697 C476.84825973711895 159.55098123395476, 476.41804670816794 159.93857946819168, 476.0149173446106 161.09020793252637 C475.6117879810532 162.24183639686106, 475.141125386516 165.1088474625399, 473.89532712122696 165.62841263505513 C472.6495288559379 166.14797780757036, 469.8982062516359 164.3110789184366, 468.540127752876 164.20759896761768 C467.1820492541161 164.10411901679876, 466.5024184213945 165.44505475132055, 465.7468561286675 165.0075329301416 C464.9912938359405 164.57001110896263, 464.1177223469041 162.78586225739537, 464.00675399651396 161.58246804054386 C463.89578564612384 160.37907382369235, 464.20756491884737 158.94309319321985, 465.08104602632665 157.78716762903258 C465.9545271338059 156.6312420648453, 468.411541662266 155.00300089086647, 469.24764064138975 154.64691465542026 C470.0837396205135 154.29082841997405, 470.0009206702818 155.60109873884295, 470.0976399010692 155.6506502163553" stroke="#000000" stroke-width="1.2" fill="none"></path></g><g><path d="M537.5027609639361 154.54095521523558 C537.5027609639361 154.54095521523558, 537.5027609639361 154.54095521523558, 537.5027609639361 154.54095521523558 M537.5027609639361 154.54095521523558 C537.5027609639361 154.54095521523558, 537.5027609639361 154.54095521523558, 537.5027609639361 154.54095521523558 M535.5901174784378 164.7334533561351 C538.2147851536362 161.96723524212527, 538.5616691281139 159.9914942320567, 544.0927341459138 154.50408472075156 M535.7057226620735 163.52355221802833 C538.862808591043 160.75709062222705, 541.6993443837134 157.3917160673333, 544.3940836388907 154.31931085998565 M539.7597663922435 166.4764199082905 C541.7076796381526 165.6574044298746, 542.9598717968638 164.48314061177342, 545.8277193803334 158.80467868762926 M539.5406327581081 166.8527908568397 C541.414746496346 164.75271971316684, 543.9956171708998 162.76691618866784, 546.5930306441907 160.03489394957356" stroke="none" stroke-width="0.6" fill="none"></path><path d="M539.7510894983214 154.02610877684384 C540.7544188139719 153.8353113962784, 542.6938913524917 153.62825423806925, 543.8283949430584 154.65187417164228 C544.962898533625 155.6754941052153, 546.2527581834086 158.77973398456558, 546.5581110417214 160.16782837828205 C546.8634639000343 161.55592277199852, 546.531358604203 161.8979474775592, 545.6605120929357 162.98044053394113 C544.7896655816685 164.06293359032307, 542.7318003032454 166.17016341239375, 541.3330319741181 166.6627867165737 C539.9342636449907 167.15541002075364, 538.294070967658 166.60765615309285, 537.2679021181714 165.93618035902082 C536.2417332686848 165.2647045649488, 535.6813706591754 163.78124700188957, 535.1760188771989 162.63393195214152 C534.6706670952224 161.48661690239348, 533.8519173049996 160.39661441346902, 534.2357914263123 159.0522900605325 C534.619665547625 157.70796570759597, 536.3436923139366 155.39939708185673, 537.4792636050753 154.5679858345223 C538.614834896214 153.73657458718785, 540.3880341353487 154.26960300715706, 541.0492191731446 154.06382257652587 C541.7104042109405 153.85804214589467, 541.5200677525171 153.41224564794433, 541.4463738318506 153.33330325073513 M537.1384232745505 152.6486489870735 C538.3216466285015 152.21612600492443, 541.9001161067436 152.39270312957365, 543.4825933677589 153.3270670087866 C545.0650706287743 154.26143088799955, 546.4156858707153 157.0130986717891, 546.6332868406429 158.25483226235121 C546.8508878105705 159.49656585291333, 545.5580719443619 159.83478488617192, 544.7881991873247 160.77746855215938 C544.0183264302875 161.72015221814684, 542.7402145815454 163.17042654725537, 542.01405029842 163.91093425827606 C541.2878860152946 164.65144196929674, 541.2076330911527 165.36027271425996, 540.4312134885723 165.2205148182834 C539.6547938859919 165.08075692230682, 538.3843375482106 163.94220028234503, 537.3555326829376 163.0723868824166 C536.3267278176645 162.20257348248816, 534.7643526171714 161.26816669917895, 534.258384296934 160.00163441871288 C533.7524159766965 158.73510213824682, 533.6943620367528 156.34225000998856, 534.3197227615132 155.4731931996201 C534.9450834862736 154.60413638925166, 537.3381294301142 155.08576050609093, 538.0105486454962 154.78729355650228 C538.6829678608782 154.48882660691362, 538.2481591267156 153.60040647052517, 538.3542380538049 153.68239150208808" stroke="#000000" stroke-width="1.2" fill="none"></path></g><g><path d="M603.6954765397609 157.75587227804039 C603.6954765397609 157.75587227804039, 603.6954765397609 157.75587227804039, 603.6954765397609 157.75587227804039 M603.6954765397609 157.75587227804039 C603.6954765397609 157.75587227804039, 603.6954765397609 157.75587227804039, 603.6954765397609 157.75587227804039 M606.3439158199003 163.02163177559058 C607.3826244318826 161.22916608247445, 610.3766141065963 159.09871650226677, 612.7303953140074 155.4298863214094 M606.6347875919889 162.60084900503796 C608.224514562197 160.36893288821963, 609.6454070661053 159.03990649047088, 612.5225113940489 155.35410048465457 M609.2753851886781 166.08561474834636 C611.3968190751857 164.06590220966305, 614.8676264549786 160.09259551245506, 616.5340279363322 158.30603069195263 M610.3581949417828 165.44199860593935 C611.4568056631833 164.33197250405277, 613.2396667101937 162.21691787519165, 615.8768420980534 158.89221460412543" stroke="none" stroke-width="0.6" fill="none"></path><path d="M610.2646367315855 154.33676987382398 C611.5522605495325 154.37218319465862, 614.3406194989125 155.52644067302748, 615.2623651034704 156.33483449205696 C616.1841107080284 157.14322831108643, 615.8472315477347 157.84119467708393, 615.7951103589328 159.18713278800084 C615.7429891701308 160.53307089891774, 615.7742505223583 163.17566564310115, 614.9496379706587 164.4104631575583 C614.1250254189591 165.64526067201544, 612.016424884915 166.50605436814797, 610.8474350487354 166.59591787474375 C609.6784452125559 166.68578138133952, 608.880102270592 165.8128932402683, 607.9356989535813 164.94964419713293 C606.9912956365706 164.08639515399756, 605.9132307033483 162.5860376095116, 605.1810151466713 161.41642361593162 C604.4487995899942 160.24680962235163, 603.1125144661366 158.85050405560733, 603.5424056135191 157.931960235653 C603.9722967609016 157.01341641569869, 606.4119226967948 156.4503301314585, 607.7603620309662 155.90516069620563 C609.1088013651377 155.35999126095277, 611.1434237211766 155.03522987067973, 611.633041618548 154.66094362413577 C612.1226595159193 154.2866573775918, 610.7369817871197 153.57417744082116, 610.6980694151943 153.65944321694192 M606.728699616877 153.63786919366555 C607.9576510086645 153.2796345379235, 610.8017289405982 154.2132496029953, 612.0148529696067 154.662827874177 C613.2279769986153 155.1124061453587, 613.3372479734969 155.0425539557908, 614.0074437909285 156.33533882075585 C614.6776396083601 157.6281236857209, 615.9013037193049 161.13091152535637, 616.0360278741965 162.4195370639673 C616.1707520290881 163.70816260257826, 616.0904425203544 163.38741015914945, 614.8157887202785 164.06709205242151 C613.5411349202027 164.74677394569358, 609.639376915014 166.71490048511674, 608.3881050737411 166.49762842359968 C607.1368332324682 166.2803563620826, 607.9889920186846 163.83192386479993, 607.3081576726407 162.76345968331916 C606.6273233265969 161.69499550183838, 604.4519999569623 161.0880921353981, 604.303098997478 160.08684333471504 C604.1541980379936 159.08559453403197, 605.6407252334117 157.54335339239117, 606.4147519157351 156.75596687922072 C607.1887785980585 155.96858036605028, 608.431783662279 155.77431133256846, 608.9472590914187 155.3625242556924 C609.4627345205583 154.95073717881633, 609.4460914332305 154.4279140025126, 609.5076044905729 154.28524441796438" stroke="#000000" stroke-width="1.2" fill="none"></path></g><g><path d="M114.69189362469302 217.6262984710193 C114.69189362469302 217.6262984710193, 114.69189362469302 217.6262984710193, 114.69189362469302 217.6262984710193 M114.69189362469302 217.6262984710193 C114.69189362469302 217.6262984710193, 114.69189362469302 217.6262984710193, 114.69189362469302 217.6262984710193 M116.98662670751236 223.42461178390045 C119.30685871538259 221.5366408942418, 121.45427698405307 219.50145806835997, 122.85168901816323 216.79876893875203 M116.81353364604153 224.1947572398588 C118.73258798511614 221.80070311544313, 119.91276089100259 220.34837640373948, 123.0784049685146 217.20778065796682" stroke="none" stroke-width="0.7" fill="none"></path><path d="M118.38899725673699 216.47626078612547 C119.14941634371236 215.97925211777226, 120.02378531801078 214.2676288519812, 120.95337377347884 214.50958531223614 C121.88296222894691 214.7515417724911, 123.15370482682408 216.9324633315374, 123.96652798954534 217.92799954765516 C124.7793511522666 218.92353576377292, 125.70266177905715 219.44020456471208, 125.83031274980641 220.48280260894265 C125.95796372055567 221.52540065317322, 125.71511377592279 223.4549041982029, 124.73243381404089 224.18358781303857 C123.74975385215899 224.91227142787423, 121.20513787699878 225.0264529271717, 119.93423297851506 224.85490429795664 C118.66332808003133 224.68335566874157, 117.91663538089108 223.8431280779783, 117.10700442313859 223.15429603774814 C116.2973734653861 222.465463997518, 115.47619440401827 221.64643299387652, 115.07644723200012 220.72191205657566 C114.67670005998197 219.7973911192748, 113.92323411570402 218.51682807393448, 114.70852139102969 217.60717041394298 C115.49380866635536 216.6975127539515, 118.77079625928145 215.77572332336223, 119.78817088395414 215.26396609662666 C120.80554550862682 214.7522088698911, 121.0395001423691 214.41546837333613, 120.81276913906576 214.53662705352954 M120.32241116526153 215.48766625032013 C121.70108145675343 214.8997201674622, 123.3242522447436 214.41269966336347, 123.90536364027383 214.75761851712468 C124.48647503580406 215.1025373708859, 123.42703186574725 216.2303489164644, 123.80907953844294 217.55717937288748 C124.19112721113864 218.88400982931054, 126.37884012964336 221.61456340765076, 126.19764967644798 222.71860125566303 C126.0164592232526 223.8226391036753, 124.01489181646124 223.72475674315365, 122.72193681927062 224.1814064609611 C121.42898182208 224.63805617876858, 119.53654246367405 225.60052995981374, 118.43991969330425 225.45849956250777 C117.34329692293444 225.3164691652018, 116.84118596334334 224.22652624216227, 116.1422001970518 223.3292240771253 C115.44321443076028 222.43192191208834, 114.14866513798528 221.06839774222388, 114.24600509555505 220.07468657228608 C114.34334505312482 219.0809754023483, 115.74023139035306 218.20224038163923, 116.72623994247043 217.36695705749852 C117.7122484945878 216.53167373335782, 119.72384373708093 215.575229419242, 120.16205640825928 215.06298662744192 C120.60026907943762 214.55074383564184, 119.49053288111818 214.36195995344735, 119.3555159695405 214.29350030669806" stroke="#4A90D9" stroke-width="1.4" fill="none"></path></g><g><path d="M185.23222789080322 217.99547783562707 C185.23222789080322 217.99547783562707, 185.23222789080322 217.99547783562707, 185.23222789080322 217.99547783562707 M185.23222789080322 217.99547783562707 C185.23222789080322 217.99547783562707, 185.23222789080322 217.99547783562707, 185.23222789080322 217.99547783562707 M186.9694238195198 224.2147549703967 C189.7555795005082 221.61684148505483, 191.8165418504411 220.18235101264645, 192.97361410720927 218.22439067026318 M188.0631531309581 224.51529179006982 C189.76750170281932 222.66550653396448, 190.66026552233572 220.54183152911403, 194.08703814261636 217.28604517408348" stroke="none" stroke-width="0.7" fill="none"></path><path d="M188.77818627473167 215.98921036652274 C189.81842137393073 215.36672154244368, 190.74447901716815 214.75001907684742, 191.4890390337473 215.01954580242074 C192.23359905032646 215.28907252799405, 192.77992519247937 216.53217514514415, 193.2455463742067 217.60637071996254 C193.71116755593403 218.68056629478093, 194.15477976306107 220.3897942615007, 194.28276612411128 221.464719251331 C194.41075248516148 222.53964424116128, 194.61940032925446 223.5927333784093, 194.01346454050793 224.0559206589444 C193.4075287517614 224.51910793947948, 191.69385487274207 224.25633697508354, 190.64715139163204 224.24384293454162 C189.600447910522 224.2313488939997, 188.49023149379695 224.42514990220903, 187.7332436538478 223.9809564156929 C186.97625581389866 223.53676292917677, 186.5188397184102 222.57996664841883, 186.10522435193715 221.57868201544488 C185.69160898546411 220.57739738247093, 184.89903343725706 218.9438833361423, 185.25155145500955 217.97324861784915 C185.60406947276203 217.002613899556, 187.67592903857033 216.06158957698355, 188.22033245845208 215.75487370568598 C188.76473587833382 215.4481578343884, 188.2757384449207 216.22801988550188, 188.5179719743 216.1329533900638 M191.73777585309065 215.69647521352388 C192.56010346447076 215.76910187778603, 194.17520914166454 217.00640404687238, 194.82645422605424 217.6782129576724 C195.47769931044394 218.35002186847242, 195.81763501626747 218.7343099101383, 195.6452463594289 219.72732867832394 C195.47285770259035 220.72034744650958, 194.6429491911102 222.65324163694143, 193.79212228502288 223.63632556678624 C192.94129537893556 224.61940949663105, 191.58943087092754 225.57542109216104, 190.54028492290496 225.6258322573928 C189.49113897488238 225.67624342262457, 188.4244149767353 224.82742729939662, 187.49724659688738 223.93879255817686 C186.57007821703945 223.0501578169571, 185.40316057070362 221.12430728562734, 184.97727464381734 220.29402381007426 C184.55138871693106 219.4637403345212, 184.4464392026515 219.80326738723767, 184.9419310355697 218.9570917048584 C185.4374228684879 218.11091602247916, 186.66590232070723 216.0013524335755, 187.95022564132648 215.21696971579877 C189.23454896194573 214.43258699802203, 191.809720695108 214.37741112372953, 192.64787095928517 214.25079539819805 C193.48602122346233 214.12417967266657, 193.02274500049222 214.34622989390286, 192.97912722638944 214.45727536260983" stroke="#4A90D9" stroke-width="1.4" fill="none"></path></g><g><path d="M255.41062603185546 218.0500309267854 C255.41062603185546 218.0500309267854, 255.41062603185546 218.0500309267854, 255.41062603185546 218.0500309267854 M255.41062603185546 218.0500309267854 C255.41062603185546 218.0500309267854, 255.41062603185546 218.0500309267854, 255.41062603185546 218.0500309267854 M256.4328402992324 224.5299632725815 C260.3052674169176 222.62060138137443, 261.85831900658405 219.34286300240692, 263.40331843161783 216.99473226908086 M257.3131727897674 225.47279517906068 C259.1230943518068 222.88002919458833, 260.2478535622052 222.03712933700749, 264.05636282268006 217.8443935989356" stroke="none" stroke-width="0.7" fill="none"></path><path d="M261.0834180212737 214.41719355952463 C262.0762332537936 214.65550700439263, 264.2988850991216 217.18443656527853, 264.9033471820147 218.11671002671733 C265.50780926490785 219.04898348815613, 264.81088125157055 218.97505989674073, 264.71019051863243 220.01083432815736 C264.6094997856943 221.04660875957399, 264.98933230719126 223.52756653473045, 264.299202784386 224.33135661521712 C263.60907326158076 225.13514669570378, 261.78485066638973 224.8199159738772, 260.5694133818009 224.83357481107743 C259.3539760972121 224.84723364827767, 257.98775333030403 225.04527865611615, 257.0065790768532 224.41330963841858 C256.02540482340237 223.781340620721, 254.96317603103418 222.0852633033732, 254.68236786109586 221.04176070489203 C254.40155969115753 219.99825810641084, 254.80998154125626 219.08790436505677, 255.32173005722328 218.15229404753143 C255.8334785731903 217.21668373000608, 256.5238202967141 215.85810981938045, 257.75285895689797 215.42809879973987 C258.9818976170818 214.9980877800993, 261.77209913852823 215.30932940245242, 262.6959620183264 215.57222792968798 C263.61982489812453 215.83512645692355, 263.42333473911185 216.82371528712946, 263.2960362356868 217.0054899631532 M259.0585923997019 215.37573419736228 C260.34919276688015 214.97795276575258, 261.89697316384843 215.54343717033964, 262.6413437381824 216.00066609552408 C263.38571431251637 216.45789502070852, 263.22577819058716 217.34310175109374, 263.5248158457057 218.1191077484689 C263.8238535008242 218.89511374584407, 264.41209929825027 219.89071791960566, 264.43556966889366 220.6567020797751 C264.45904003953706 221.42268623994454, 264.4890412930396 221.94968956954898, 263.665638069566 222.71501270948562 C262.8422348460924 223.48033584942226, 260.5669611179441 225.2107677870317, 259.49515032805226 225.2486409193949 C258.4233395381604 225.28651405175808, 257.8036580627204 223.73448104030936, 257.23477333021486 222.94225150366478 C256.66588859770934 222.1500219670202, 256.47128052989063 221.29443710180536, 256.08184193301906 220.49526369952744 C255.69240333614752 219.69609029724953, 254.36069457657018 219.15454356451863, 254.89814174898558 218.14721108999728 C255.43558892140098 217.13987861547594, 258.5889052358792 214.73434624732965, 259.3065249675115 214.45126885239935 C260.0241446991438 214.16819145746905, 259.2092166320166 216.4314406137445, 259.20386013877925 216.44874672041541" stroke="#4A90D9" stroke-width="1.4" fill="none"></path></g><g><path d="M326.9744068059061 216.65885278091253 C326.9744068059061 216.65885278091253, 326.9744068059061 216.65885278091253, 326.9744068059061 216.65885278091253 M326.9744068059061 216.65885278091253 C326.9744068059061 216.65885278091253, 326.9744068059061 216.65885278091253, 326.9744068059061 216.65885278091253 M330.49926195190824 224.69098668748546 C331.1484949023715 223.81660108930785, 332.3687893603515 222.38711732933388, 334.85993023667106 219.84193292462393 M330.55336570950186 224.68606163778287 C331.3195766366009 223.35264284800428, 332.9551229201495 222.26058830082792, 334.3239262916653 220.1779380135609" stroke="none" stroke-width="1" fill="none"></path><path d="M328.52819757083506 215.36457700402028 C329.6599447895419 215.2278082966881, 331.3362843219647 216.01128669302486, 332.3042641899742 216.52365630204568 C333.27224405798376 217.0360259110665, 334.045897631711 217.6691303905701, 334.33607677889233 218.43879465814527 C334.62625592607367 219.20845892572044, 334.4581208365789 220.220888518555, 334.0453390730622 221.14164190749665 C333.6325573095455 222.0623952964383, 332.82217476853634 223.27108247764716, 331.85938619779193 223.9633149917952 C330.8965976270475 224.65554750594322, 329.1404274337441 225.42485124231203, 328.2686076485959 225.2950369923849 C327.3967878634477 225.16522274245776, 327.2872112845677 224.09245186639208, 326.62846748690276 223.1844294922324 C325.9697236892378 222.2764071180727, 324.2358300375289 220.96056422614765, 324.31614486260617 219.84690274742684 C324.39645968768343 218.73324126870602, 326.1230853106081 217.15868672571736, 327.1103564373662 216.5024606199075 C328.0976275641243 215.84623451409766, 329.6574005479098 216.16231691384147, 330.2397716231549 215.90954611256768 C330.82214269840006 215.6567753112939, 330.59694538469915 215.11607361804695, 330.60458288883706 214.98583581226484 M331.85185849018615 214.02871737508352 C333.20385582991764 214.08531820998897, 334.09498485975314 214.53606940160788, 334.5394798973615 215.3685003411012 C334.98397493496986 216.20093128059452, 334.37962074651784 217.72802434043982, 334.5188287158364 219.02330301204347 C334.6580366851549 220.31858168364712, 336.1292281709882 222.03165005862843, 335.3747277132728 223.1401723707231 C334.62022725555744 224.24869468281776, 331.2984190679247 225.62050623785896, 329.9918259695441 225.67443688461148 C328.68523287116346 225.728367531364, 328.146321993357 224.04372814531635, 327.53516912298915 223.46375625123815 C326.9240162526213 222.88378435715995, 326.50783264904777 222.93959032749936, 326.32490874733696 222.19460552014226 C326.14198484562615 221.44962071278516, 326.0970303990981 220.02778550811462, 326.4376257127243 218.99384740709561 C326.7782210263505 217.9599093060766, 327.8311489861706 216.7541817972076, 328.368480629094 215.9909769140283 C328.9058122720174 215.227772030849, 329.2849514519162 214.71661207870065, 329.6616155702647 214.41461810801977 C330.0382796886132 214.11262413733888, 330.64237278629287 213.8547136039802, 330.628465339185 214.17901308994297" stroke="#CC3333" stroke-width="2" fill="none"></path></g><g><path d="M397.23316352956033 215.45824752884764 C397.23316352956033 215.45824752884764, 397.23316352956033 215.45824752884764, 397.23316352956033 215.45824752884764 M397.23316352956033 215.45824752884764 C397.23316352956033 215.45824752884764, 397.23316352956033 215.45824752884764, 397.23316352956033 215.45824752884764 M397.1466931125305 223.2123134365572 C400.401849424408 222.2110239837492, 401.23979204230335 219.02630102235756, 403.76360449524583 217.3649502053661 M397.73819578592133 223.4349818634475 C399.99667788798996 221.31322760366305, 401.96198739251207 219.44976390019357, 404.68710694370856 216.86909082387098" stroke="none" stroke-width="0.7" fill="none"></path><path d="M397.0821582236054 215.63195926214092 C398.0199272975575 215.04594696723348, 400.83089019242516 215.20187245418177, 402.12330361510834 215.41423843204586 C403.4157170377915 215.62660440990996, 404.37601082998094 216.0350606607716, 404.8366387597045 216.90615512932544 C405.29726668942806 217.7772495978793, 405.0259325204873 219.5903686872045, 404.88707119344986 220.64080524336904 C404.7482098664124 221.6912417995336, 404.8751959712903 222.36115780529974, 404.00347079748 223.20877446631275 C403.13174562366976 224.05639112732575, 400.72672410453066 225.41918031939207, 399.6567201505884 225.72650520944717 C398.58671619664614 226.03383009950227, 398.19353699016887 225.94455778337286, 397.58344707382633 225.05272380664326 C396.9733571574838 224.16088982991366, 396.2602424849406 221.4389553111002, 395.9961806525331 220.37550134906957 C395.7321188201256 219.31204738703894, 395.67134144944094 219.69639454208465, 395.9990760793812 218.67200003445961 C396.3268107093215 217.64760552683458, 397.4518214272481 214.78072491626904, 397.9625884321747 214.2291343033194 C398.4733554371013 213.67754369036976, 398.94081607823676 215.24304756794177, 399.06367810894085 215.3624563567617 M400.88944716626537 216.22313551374913 C401.9320808194685 216.49707223096016, 404.72817751022154 216.69669129169387, 405.4699937885885 217.46971490518519 C406.2118100669555 218.2427385186765, 405.88664437412206 219.633688857888, 405.34034483646724 220.8612771946971 C404.7940452988124 222.0888655315062, 402.97207872951236 223.89522175449093, 402.1921965626596 224.83524492603988 C401.41231439580685 225.77526809758882, 401.5377434644928 226.56481974076422, 400.6610518353508 226.5014162239907 C399.7843602062088 226.43801270721718, 398.08920864263985 225.27932720528253, 396.93204678780774 224.45482382539885 C395.7748849329756 223.63032044551517, 393.94202697272476 222.8334367896315, 393.71808070635814 221.5543959446887 C393.4941344399915 220.27535509974592, 394.92338459817165 217.7333212621353, 395.5883691896081 216.78057875574223 C396.25335378104455 215.82783624934916, 396.85514695336286 215.86905774142417, 397.70798825497684 215.8379409063304 C398.5608295565908 215.80682407123663, 400.22951317359787 216.69314193251142, 400.705416999292 216.5938777451796 C401.1813208249862 216.4946135578478, 400.56773956842596 215.42841587913694, 400.5634112091417 215.24235578233953" stroke="#4A90D9" stroke-width="1.4" fill="none"></path></g><g><path d="M465.1937128071553 217.55989299656824 C465.1937128071553 217.55989299656824, 465.1937128071553 217.55989299656824, 465.1937128071553 217.55989299656824 M465.1937128071553 217.55989299656824 C465.1937128071553 217.55989299656824, 465.1937128071553 217.55989299656824, 465.1937128071553 217.55989299656824 M467.8362263876065 224.41155036200442 C468.2314567579566 223.4833954364816, 469.0942417225725 222.3193960936706, 473.15323052835305 218.53104621185187 M467.32601225925856 224.93174066170252 C468.8083753382761 222.64943884915846, 469.6523392500131 221.13259447832965, 473.01647424886363 217.97109996268594" stroke="none" stroke-width="0.7" fill="none"></path><path d="M468.7055098102035 215.37161352079872 C469.48481760734813 214.97634213242597, 470.130495337414 214.41211781599708, 470.9881829181308 214.86999936202946 C471.8458704988476 215.32788090806184, 473.22549986051774 216.93713516901596, 473.8516352945043 218.11890279699304 C474.4777707284909 219.30067042497012, 474.86665997011255 220.89101055723222, 474.7449955220504 221.96060512989192 C474.6233310739882 223.0301997025516, 473.9466858878392 223.98424565068456, 473.12164860613143 224.5364702329512 C472.2966113244237 225.08869481521782, 470.80547192291874 225.22838901698458, 469.7947718318038 225.27395262349174 C468.7840717406889 225.3195162299989, 467.8927755939694 225.43694211278407, 467.0574480594417 224.80985187199417 C466.222120524914 224.18276163120427, 465.0901537753846 222.72350556466375, 464.78280662463766 221.51141117875238 C464.47545947389074 220.299316792841, 464.57386927370345 218.7167871643273, 465.21336515496006 217.53728555652594 C465.85286103621667 216.3577839487246, 467.92656117748527 214.70708682926224, 468.61978191217736 214.43440153194433 C469.31300264686945 214.16171623462643, 469.4046844239378 215.8412015701353, 469.3726895631126 215.90117377261853 M471.59933427618273 214.95112759241854 C472.92461454323484 215.38759838324918, 475.5709840637468 215.9698932819897, 475.9660864359478 216.92551252440603 C476.36118880814877 217.88113176682236, 474.38389577650315 219.46320364062822, 473.96994850938887 220.6848430469166 C473.5560012422746 221.90648245320497, 474.4204185777768 223.36483465677418, 473.482402833262 224.25534896213628 C472.54438708874716 225.14586326749838, 469.54336119272506 225.996625693026, 468.34185404230004 226.02792887908913 C467.140346891875 226.05923206515226, 466.80638293909806 225.6119896127948, 466.2733599307118 224.44316807851501 C465.7403369223256 223.27434654423524, 465.3924517377795 220.06473822175587, 465.14371599198256 219.0149996734105 C464.89498024618564 217.96526112506513, 464.3747527145261 218.8985528907535, 464.78094545593024 218.14473678844286 C465.1871381973344 217.3909206861322, 466.4418850895153 215.1364946873072, 467.58087244040746 214.49210305954662 C468.7198597912996 213.84771143178605, 470.69787138096774 214.04889009602692, 471.614869561283 214.27838702187944 C472.53186774159826 214.50788394773195, 473.15576046517424 215.79110438590803, 473.0828615222991 215.86908461466163" stroke="#4A90D9" stroke-width="1.4" fill="none"></path></g><g><path d="M534.3121079665782 218.01801254709937 C534.3121079665782 218.01801254709937, 534.3121079665782 218.01801254709937, 534.3121079665782 218.01801254709937 M534.3121079665782 218.01801254709937 C534.3121079665782 218.01801254709937, 534.3121079665782 218.01801254709937, 534.3121079665782 218.01801254709937 M536.7303551087123 222.7734376481432 C538.9876213161789 220.67183514054602, 541.6123341357143 220.50374309522573, 544.2564166111139 216.73529942269047 M537.7133519490925 223.22360019274805 C539.1931861264513 221.19726545904126, 541.8436844727713 219.04541701525883, 543.5983047959319 216.67793595593827" stroke="none" stroke-width="0.7" fill="none"></path><path d="M541.4109985392437 215.3161330793886 C542.5541283523941 215.53871473959967, 543.5398100671831 217.21540918870997, 544.2175074769722 217.9331571432026 C544.8952048867612 218.65090509769524, 545.4937370335518 218.61728169451814, 545.477182997978 219.62262080634437 C545.4606289624043 220.6279599181706, 544.9429356304931 223.13425600437859, 544.1181832635294 223.96519181416005 C543.2934308965657 224.79612762394152, 541.5087612929366 224.50560650321677, 540.5286687961959 224.60823566503322 C539.5485762994552 224.71086482684967, 539.1726582409361 225.08649575500007, 538.2376282830855 224.58096678505873 C537.302598325235 224.0754378151174, 535.5187428303745 222.7310069910786, 534.9184890490922 221.5750618453852 C534.3182352678098 220.41911669969178, 534.2384369354728 218.68937600310025, 534.6361055953913 217.64529591089834 C535.0337742553098 216.60121581869643, 535.997836999501 215.63914357804828, 537.3045010086031 215.3105812921738 C538.6111650177052 214.9820190062993, 541.6109397516024 215.51672406853092, 542.476089650004 215.6739221956515 C543.3412395484057 215.83112032277208, 542.6072616988342 216.15766289379533, 542.4954003990134 216.25377005489722 M538.2967225484226 215.7366785011987 C538.9383116391572 215.26833654414085, 539.7110515653092 214.9437638917517, 540.4099211697796 215.09418444984294 C541.1087907742501 215.24460500793418, 541.6263421826876 215.68298607227206, 542.4899401752455 216.63920184974614 C543.3535381678033 217.59541762722023, 545.4191070560184 219.86719916385763, 545.591509125127 220.83147911468737 C545.7639111942356 221.7957590655171, 544.481273886989 221.98578711381342, 543.5243525898968 222.4248815547246 C542.5674312928046 222.8639759956358, 540.7267990400044 222.93995599520895, 539.8499813425739 223.46604576015451 C538.9731636451434 223.99213552510008, 539.0748704840673 225.76514338594322, 538.2634464053137 225.581420144398 C537.4520223265602 225.3976969028528, 535.2928292952281 223.8469384279545, 534.9814368700524 222.3637063108832 C534.6700444448768 220.8804741938119, 536.1792761984805 218.02857195812152, 536.3950918542595 216.6820274419701 C536.6109075100385 215.33548292581867, 536.2552920651285 214.3557806519322, 536.2763308047265 214.28443921397462 C536.2973695443245 214.21309777601704, 536.2605717220413 215.958866345363, 536.5213242918478 216.25397881422467" stroke="#4A90D9" stroke-width="1.4" fill="none"></path></g><g><path d="M605.4621326863196 217.592174743873 C605.4621326863196 217.592174743873, 605.4621326863196 217.592174743873, 605.4621326863196 217.592174743873 M605.4621326863196 217.592174743873 C605.4621326863196 217.592174743873, 605.4621326863196 217.592174743873, 605.4621326863196 217.592174743873 M607.8761099024737 224.9923617331598 C609.173360642207 222.42327102609713, 610.4788173805248 222.32184677130795, 613.2274220692465 216.88550916619008 M607.4522318031169 224.26918828682366 C608.7796118950029 223.29583609201134, 610.3835001740385 221.7543203205426, 613.5195954491929 217.34724287000466" stroke="none" stroke-width="0.7" fill="none"></path><path d="M609.103745811622 215.07520244513347 C610.1436291047854 214.95934298070117, 611.3839081152123 216.12292367919477, 612.2707625211965 216.55667044653805 C613.1576169271807 216.99041721388133, 614.0144356972995 216.8427041318932, 614.4248722475269 217.67768304919318 C614.8353087977542 218.51266196649314, 615.250783039757 220.53554525941053, 614.7333818225604 221.5665439503378 C614.2159806053638 222.59754264126508, 612.2761001730216 223.33326116414392, 611.3204649443475 223.8636751947568 C610.3648297156733 224.3940892253697, 609.8894501982153 224.7396827955235, 608.9995704505154 224.7490281340151 C608.1096907028156 224.75837347250672, 606.6589165231364 224.89861618343647, 605.981186458148 223.9197472257065 C605.3034563931596 222.9408782679765, 604.9796261333756 219.97650838697407, 604.9331900605853 218.87581438763524 C604.8867539877949 217.77512038829641, 604.9792184477932 217.99341190607777, 605.7025700214057 217.31558322967348 C606.4259215950182 216.6377545532692, 608.6313460477261 215.10253909505494, 609.2732995022603 214.80884232920954 C609.9152529567946 214.51514556336414, 609.4925312070337 215.39936254399512, 609.554290748611 215.55340263460116 M610.0075024662779 214.46578763297933 C610.9073779755696 213.853533323511, 612.085418481811 214.5961426134188, 613.0108494888647 215.00007819449618 C613.9362804959184 215.40401377557356, 615.1025837785527 216.0534581668416, 615.5600885086002 216.8894011194435 C616.0175932386477 217.7253440720454, 616.2109260792695 218.8985790102963, 615.7558778691498 220.01573591010754 C615.3008296590301 221.1328928099188, 613.8002895679911 222.60417053820598, 612.8297992478817 223.592342518311 C611.8593089277724 224.58051449841602, 610.8428666367029 226.04738981643325, 609.9329359484941 225.9447677907377 C609.0230052602853 225.84214576504215, 608.0751802742059 223.99719510575548, 607.3702151186292 222.97661036413774 C606.6652499630525 221.95602562252, 606.0744719610582 220.86914227175484, 605.7031450150336 219.8212593410312 C605.3318180690089 218.77337641030758, 604.6267803688415 217.62526842552154, 605.1422534424815 216.689312779796 C605.6577265161216 215.75335713407048, 608.2361828794435 214.3818973308458, 608.7959834568736 214.20552546667795 C609.3557840343037 214.02915360251012, 608.2606149554694 215.14319824103748, 608.5010569070623 215.63108159478895" stroke="#4A90D9" stroke-width="1.4" fill="none"></path></g><g><path d="M115.28144804083564 277.76437500688957 C115.28144804083564 277.76437500688957, 115.28144804083564 277.76437500688957, 115.28144804083564 277.76437500688957 M115.28144804083564 277.76437500688957 C115.28144804083564 277.76437500688957, 115.28144804083564 277.76437500688957, 115.28144804083564 277.76437500688957 M116.64919617391374 284.3277359657215 C118.12410031681324 282.80274192270997, 119.49086115575892 281.1604310345215, 122.28465668267015 277.7429540097534 M116.88956356402032 284.9289123246184 C118.85797769803041 282.5159881668636, 120.3575597794702 280.9554618437148, 123.2408655628256 278.1812780477693" stroke="none" stroke-width="0.7" fill="none"></path><path d="M121.30021922195124 276.4513401293902 C122.45196222464781 277.07438426278424, 124.5853757640789 277.62493324756457, 125.1347374329705 278.53547537107687 C125.68409910186209 279.44601749458917, 124.98569734734829 281.1398059122735, 124.59638923530076 281.914592870464 C124.20708112325323 282.68937982865447, 123.58728754931155 282.69871704489265, 122.79888876068533 283.18419712021984 C122.0104899720591 283.669677195547, 120.97550693297552 284.81139182016534, 119.8659965035434 284.82747332242724 C118.75648607411128 284.84355482468914, 117.11149856634675 283.83754150011544, 116.14182618409264 283.2806861337911 C115.17215380183852 282.7238307674668, 114.20293689785461 282.39240696653707, 114.04796221001872 281.4863411244811 C113.89298752218284 280.58027528242513, 114.48785658278244 278.89480049646914, 115.21197805707727 277.84429108145537 C115.93609953137211 276.7937816664416, 116.99467323545639 275.49135994704557, 118.39269105578774 275.1832846343984 C119.79070887611908 274.8752093217512, 122.68649688776068 275.8725273011171, 123.6000849790654 275.9958392055721 C124.51367307037012 276.11915111002713, 123.97363711716041 275.7600438278055, 123.87421960361601 275.9231560611286 M120.45221719907093 275.30155733828377 C121.69732987165577 275.2287597552985, 122.52585268026829 274.9354763128419, 123.22217638948871 275.33686553330887 C123.91850009870913 275.73825475377583, 124.4184165658279 276.6232018603661, 124.63015945439342 277.7098926610857 C124.84190234295895 278.79658346180526, 124.83541381919083 280.71334810491874, 124.4926337208819 281.85701033762626 C124.14985362257296 283.0006725703338, 123.64392022272071 284.0740640347211, 122.57347886453982 284.57186605733085 C121.50303750635894 285.0696680799406, 119.11900911835889 285.2063089567852, 118.06998557179661 284.8438224732848 C117.02096202523433 284.4813359897843, 116.74934198561972 283.40513755828016, 116.27933758516616 282.3969471563281 C115.8093331847126 281.38875675437606, 115.18322303944217 279.7790152722081, 115.24995916907523 278.79468006157236 C115.31669529870828 277.81034485093664, 116.07177091475519 276.95648265200225, 116.6797543629645 276.4909358925136 C117.28773781117381 276.025389133025, 118.58584065164015 276.3268324614022, 118.89785985833106 276.0013995046405 C119.20987906502197 275.67596654787883, 118.56450360048689 274.38274205953456, 118.55186960310992 274.53833815194355" stroke="#4A90D9" stroke-width="1.4" fill="none"></path></g><g><path d="M186.59564649885564 276.1562382636978 C186.59564649885564 276.1562382636978, 186.59564649885564 276.1562382636978, 186.59564649885564 276.1562382636978 M186.59564649885564 276.1562382636978 C186.59564649885564 276.1562382636978, 186.59564649885564 276.1562382636978, 186.59564649885564 276.1562382636978 M189.17556484657234 282.4450555477024 C189.3734985078223 282.25520454025747, 190.39828036048 280.43193518974874, 192.91882909284985 278.2947309887397 M188.32449829798543 283.202797061712 C189.69458092699577 281.52790233448974, 191.03724806842328 280.18421882221173, 193.36031222326605 277.65386354896873" stroke="none" stroke-width="0.7" fill="none"></path><path d="M189.66591206463895 275.7382422028029 C190.6697527808639 275.4266406912599, 191.10901517178746 275.92689720716413, 191.7711649787149 276.2518718537117 C192.43331478564232 276.57684650025925, 193.20972748734033 276.6605787249734, 193.63881090620362 277.6880900820882 C194.0678943250669 278.715601439203, 194.422513167498 281.3784894144971, 194.34566549189466 282.4169399964005 C194.26881781629132 283.45539057830393, 193.98056433783105 283.51214368750385, 193.1777248525835 283.91879357350876 C192.37488536733596 284.3254434595137, 190.49810915258612 285.0689135733368, 189.52862858040936 284.8568393124299 C188.5591480082326 284.644765051523, 187.93655843123258 283.3078930724348, 187.36084141952293 282.64634800806726 C186.78512440781327 281.9848029436997, 186.15935878858758 282.01814478059606, 186.07432651015148 280.88756892622445 C185.98929423171538 279.75699307185283, 186.25636468390258 276.9363978180472, 186.85064774890637 275.8628928818375 C187.44493081391016 274.7893879456278, 188.96311195894478 274.4570261743158, 189.64002490017415 274.44653930896624 C190.31693784140353 274.4360524436167, 190.7816955967434 275.6013650705304, 190.91212539628256 275.7999716897401 M188.3151727776954 275.07247332418206 C189.34038564920178 274.51332481615657, 190.23374868074725 273.53254590830346, 191.16688352659878 273.5914232837075 C192.1000183724503 273.65030065911156, 193.35891194741544 274.50097572259216, 193.91398185280462 275.4257375766065 C194.4690517581938 276.3504994306208, 194.49636632070704 278.0515561954263, 194.497302958934 279.13999440779344 C194.49823959716096 280.22843262016056, 194.71080524142872 281.11478048064475, 193.91960168216644 281.9563668508092 C193.12839812290417 282.7979532209737, 190.8107114094645 283.74141709987487, 189.7500816033604 284.18951262878005 C188.6894517972563 284.63760815768524, 188.15597082828043 285.06757124240136, 187.55582284554194 284.64494002424016 C186.95567486280345 284.22230880607896, 186.28916378972673 282.9594554995308, 186.14919370692937 281.65372531981274 C186.009223624132 280.34799514009467, 186.39961632028604 277.59326543152366, 186.71600234875774 276.81055894593163 C187.03238837722944 276.0278524603396, 187.94071778299895 277.3849954633743, 188.04750987775952 276.95748640626044 C188.1543019725201 276.5299773491466, 187.21967439764933 274.47523239461884, 187.35675491732118 274.2455046032485" stroke="#4A90D9" stroke-width="1.4" fill="none"></path></g><g><path d="M257.064038740592 276.46287938062585 C257.064038740592 276.46287938062585, 257.064038740592 276.46287938062585, 257.064038740592 276.46287938062585 M257.064038740592 276.46287938062585 C257.064038740592 276.46287938062585, 257.064038740592 276.46287938062585, 257.064038740592 276.46287938062585 M260.05605974481404 285.3347566563297 C262.1598182775989 283.9204856223405, 263.0297137777673 281.08828467797287, 265.30720773569726 279.54608750843335 M259.6694451945212 285.3108385126117 C260.904242343509 283.91404763344843, 262.5357269745808 282.47783781592005, 266.0626245922875 278.2795020442619" stroke="none" stroke-width="1" fill="none"></path><path d="M259.4724609189397 274.7113783174674 C260.39948200267986 274.7168056259578, 261.6894375550761 275.4498562236256, 262.489243078796 275.9981032694939 C263.2890486025159 276.54635031536225, 263.7847102325148 277.0549547802291, 264.2712940612592 278.0008605926772 C264.7578778900036 278.94676640512535, 265.9067948427884 280.468814163883, 265.40874605126254 281.6735381441826 C264.9106972597367 282.8782621244822, 262.3369274787588 284.7674461260851, 261.28300131210415 285.22920447447495 C260.2290751454495 285.69096282286483, 260.03665554700444 284.6788750265824, 259.0851890513346 284.44408823452187 C258.1337225556648 284.20930144246137, 256.27819466936756 284.4584780139816, 255.5742023380853 283.82048372211204 C254.87021000680306 283.18248943024247, 254.6345527732397 281.81751456401105, 254.86123506364112 280.6161224833043 C255.08791735404253 279.41473040259757, 255.9742278392189 277.6995666248265, 256.9342960804937 276.6121312378718 C257.89436432176853 275.52469585091706, 260.1288395505647 274.240336865615, 260.62164451128996 274.0915101615759 C261.1144494720152 273.9426834575368, 259.88602773292155 275.61198019374234, 259.8911258448454 275.71917101363726 M258.62351209741695 274.81629805593803 C259.842390250784 274.95634623294546, 262.0281978998975 275.9464046198178, 263.15925691222697 276.33449563308244 C264.2903159245564 276.72258664634705, 265.1565635449893 276.30392431119657, 265.40986617139356 277.1448441355258 C265.6631687977978 277.985763959855, 265.42697936744264 280.31954708350065, 264.6790726706526 281.38001457905756 C263.93116597386256 282.44048207461447, 261.72185676391763 283.1523816460051, 260.9224259906532 283.5076491088671 C260.1229952173888 283.8629165717291, 260.483937561048 283.5898011431642, 259.882488031066 283.51161935622963 C259.28103850108397 283.43343756929505, 257.92499260333426 283.6211553086968, 257.3137288107613 283.0385583872596 C256.7024650181883 282.45596146582244, 256.5062352063527 281.20069159836135, 256.21490527562827 280.01603782760657 C255.92357534490387 278.8313840568518, 254.8987715832185 276.5311327137108, 255.56574922641488 275.93063576273096 C256.23272686961127 275.3301388117511, 259.4679368121659 276.67898365298055, 260.21677113480655 276.4130561217273 C260.9656054574472 276.1471285904741, 260.25127950320973 274.4745313869642, 260.058755162259 274.3350705752116" stroke="#CC3333" stroke-width="2" fill="none"></path></g><g><path d="M328.38390377254535 274.85966851500314 C328.38390377254535 274.85966851500314, 328.38390377254535 274.85966851500314, 328.38390377254535 274.85966851500314 M328.38390377254535 274.85966851500314 C328.38390377254535 274.85966851500314, 328.38390377254535 274.85966851500314, 328.38390377254535 274.85966851500314 M328.72809979191175 286.1986768191206 C331.24847968626864 283.9945449061335, 333.042968192689 281.58621415686514, 334.70811483548204 278.6949044771964 M329.30131774505463 286.311925957552 C331.1661671878755 283.63133046525877, 333.6235521371705 281.37206141026434, 334.9183884655184 279.7169659108878" stroke="none" stroke-width="1" fill="none"></path><path d="M330.3693343259777 275.03859530255215 C331.35571959205504 275.1505724015142, 332.4612479298684 275.4989813853874, 333.05099187134374 276.1265565026296 C333.64073581281906 276.7541316198718, 333.7129586609595 277.80557808483496, 333.9077979748297 278.80404600600536 C334.1026372886999 279.80251392717577, 334.5952081710607 281.21558456660136, 334.2200277545649 282.1173640296519 C333.84484733806914 283.0191434927025, 332.77296739091423 283.70777675584947, 331.65671547585504 284.2147227843086 C330.54046356079584 284.72166881276775, 328.4521747369246 285.6768489377888, 327.52251626420957 285.1590402004067 C326.59285779149457 284.6412314630246, 326.3800468303539 282.1053479995692, 326.07876463956495 281.10787036001597 C325.777482448776 280.11039272046276, 325.3507975220281 280.192345011842, 325.71482311947597 279.1741743630876 C326.07884871692386 278.1560037143332, 327.3239091663714 275.7076030972826, 328.2629182242523 274.9988464674898 C329.2019272821332 274.290089837697, 330.49900519985056 274.7113275463573, 331.34887746676156 274.92163458433083 C332.19874973367257 275.13194162230434, 333.2274300632273 276.14113348715046, 333.3621518257183 276.260688695331 M329.81574494996994 275.9077258358616 C330.8820800111432 275.677961539096, 332.62977284089425 276.6711841019569, 333.4888248195528 277.00567125984634 C334.34787679821136 277.3401584177358, 334.7829500618244 277.1525405691596, 334.97005682192116 277.9146487831982 C335.1571635820179 278.67675699723674, 335.2410871378053 280.57761670089917, 334.61146538013344 281.5783205440776 C333.98184362246155 282.579024387256, 331.96004997922364 283.39481527201775, 331.19232627588974 283.9188718422689 C330.42460257255584 284.4429284125201, 330.6534375251382 284.89164833715415, 330.00512316013015 284.7226599655847 C329.3568087951221 284.5536715940152, 328.0515613528064 283.62396255880475, 327.3024400858414 282.90494161285216 C326.5533188188764 282.18592066689956, 325.44561862782314 281.3450642971311, 325.5103955583402 280.4085342898691 C325.5751724888572 279.47200428260714, 327.2242671516609 278.1163811148943, 327.6911016689435 277.2857615692802 C328.15793618622604 276.45514202366616, 328.04551639831686 275.87303002782596, 328.3114026620355 275.4248170161848 C328.57728892575415 274.9766040045437, 329.2650298932914 274.6302047361744, 329.2864192512554 274.5964834994335" stroke="#CC3333" stroke-width="2" fill="none"></path></g><g><path d="M396.0538102362331 276.7086620391526 C396.0538102362331 276.7086620391526, 396.0538102362331 276.7086620391526, 396.0538102362331 276.7086620391526 M396.0538102362331 276.7086620391526 C396.0538102362331 276.7086620391526, 396.0538102362331 276.7086620391526, 396.0538102362331 276.7086620391526 M397.3433520038794 284.1069141373456 C400.7736219626926 281.1548754795477, 402.00049395333 278.0451806474616, 403.2018254091338 277.6978880042119 M397.752539524854 283.61612423889756 C400.02296364138704 281.2752674864335, 401.7527399403616 279.53361113125754, 403.9705150061687 277.01089683357526" stroke="none" stroke-width="0.7" fill="none"></path><path d="M400.08842786309117 275.12758449316567 C401.2368165249737 274.66447789143274, 402.7956155541353 274.36672823297215, 403.4084767595897 274.9399555774608 C404.0213379650441 275.51318292194946, 403.57210114934185 277.4500562097267, 403.7655950958176 278.56694856009756 C403.9590890422934 279.6838409104684, 404.65769115324 280.803165483865, 404.5694404384444 281.6413096796858 C404.4811897236488 282.4794538755066, 404.16957963895936 283.18204273794373, 403.2360908070441 283.59581373502226 C402.3026019751288 284.0095847321008, 400.2454954571879 284.3643297012752, 398.96850744695263 284.12393566215707 C397.6915194367174 283.8835416230389, 396.23174691683926 282.915980837549, 395.57416274563263 282.1534495003135 C394.916578574426 281.390918163078, 394.96869643015486 280.4267222236834, 395.023002419713 279.54874763874426 C395.07730840927115 278.67077305380514, 395.06413764414475 277.4486321531927, 395.89999868298156 276.8856019906787 C396.7358597218184 276.3225718281647, 399.4054574854405 276.31591301196215, 400.0381686527339 276.17056666366017 C400.67087982002727 276.0252203153582, 399.8366400502973 276.2170412084426, 399.69626568674187 276.01352390086686 M399.6245086677314 275.48295150992476 C400.97251960169666 275.1788440772457, 402.26139207078006 275.4129127446708, 403.1865040533095 275.69867553350184 C404.1116160358389 275.9844383223329, 404.9510165359871 276.16008704994937, 405.1751805629077 277.1975282429112 C405.39934458982833 278.234969435873, 404.8535973575727 280.9820484461988, 404.5314882148332 281.92332269127263 C404.20937907209367 282.86459693634646, 404.13528529774777 282.31243648898237, 403.2425257064706 282.84517371335414 C402.3497661151934 283.3779109377259, 400.06307365611195 285.0279226920766, 399.1749306671701 285.1197460375032 C398.2867876782282 285.21156938292984, 398.40004421766116 284.2545195363766, 397.9136677728193 283.39611378591377 C397.4272913279774 282.5377080354509, 396.75105425537424 281.0955550073773, 396.2566719981187 279.9693115347261 C395.76228974086314 278.8430680620749, 394.7515028332093 277.33497188094844, 394.9473742292859 276.63865295000664 C395.1432456253625 275.94233401906484, 396.9549063548484 276.13222250212624, 397.43190037457845 275.7913979490754 C397.9088943943085 275.4505733960246, 397.3984160464478 274.8286673496428, 397.80933834766626 274.59370563170177" stroke="#4A90D9" stroke-width="1.4" fill="none"></path></g><g><path d="M464.7551126289805 279.4542343658712 C464.7551126289805 279.4542343658712, 464.7551126289805 279.4542343658712, 464.7551126289805 279.4542343658712 M464.7551126289805 279.4542343658712 C464.7551126289805 279.4542343658712, 464.7551126289805 279.4542343658712, 464.7551126289805 279.4542343658712 M468.4067211673225 284.74423574470194 C470.7225259495533 282.358730418128, 473.08995823125645 279.29758753158313, 474.28188189436565 276.89142775699065 M468.18262251273484 284.46385424077994 C470.66247940838036 281.9856773458853, 472.8229322367735 279.4274966868472, 474.7400623619728 276.99993815557167" stroke="none" stroke-width="0.7" fill="none"></path><path d="M468.0861526576799 276.0885019726544 C468.91499023712424 275.402837248983, 469.21331788397066 274.6947728328242, 470.3023393706352 274.91647009615605 C471.39136085729973 275.1381673594879, 473.9203666721594 276.4725972519588, 474.62028157766713 277.4186855526455 C475.32019648317487 278.3647738533322, 474.54435762195106 279.6997053130306, 474.50182880368175 280.5929999002762 C474.45929998541243 281.4862944875218, 474.8776879079767 282.07028105220127, 474.36510866805133 282.7784530761191 C473.852529428126 283.4866251000369, 472.5906927818643 284.5147921033465, 471.42635336412957 284.8420320437832 C470.26201394639486 285.1692719842199, 468.3622572527178 285.4145375122648, 467.37907216164314 284.7418927187391 C466.39588707056845 284.0692479252134, 465.9149481805839 281.74452236534756, 465.52724281768155 280.80616328262903 C465.1395374547792 279.8678041999105, 464.6984948748476 280.0658137388309, 465.05283998422897 279.1117382224279 C465.40718509361034 278.1576627060249, 466.9899263253666 275.86483220021825, 467.6533134739696 275.08171018421115 C468.3167006225726 274.29858816820405, 469.00898664707626 274.26790642626753, 469.0331628758469 274.4130061263852 M471.3444973299108 275.00923886479194 C472.3157593818042 275.44567802164124, 474.14054643419126 276.570698451108, 474.58035395173664 277.42717152542326 C475.020161469282 278.2836445997385, 474.24479107105077 279.339341803962, 473.9833424351832 280.14807731068345 C473.72189379931564 280.9568128174049, 473.34901450185583 281.71389043496947, 473.0116621365312 282.27958456575203 C472.67430977120654 282.8452786965346, 473.023004867851 283.137597345371, 471.9592282432354 283.54224209537875 C470.89545161861975 283.94688684538653, 467.6915041040991 285.11683877638745, 466.6290023888374 284.70745306579875 C465.5665006735757 284.29806735521004, 465.9341245481288 282.22094772063156, 465.58421795166504 281.08592783184645 C465.23431135520127 279.95090794306134, 464.0991648887217 278.7836123940714, 464.529562810055 277.89733373308803 C464.95996073138826 277.0110550721047, 467.0028675236973 276.41099607866965, 468.16660547966467 275.7682558659462 C469.330343435632 275.1255156532227, 470.8809345629433 274.19426058637873, 471.51199054585925 274.040892456747 C472.1430465287752 273.8875243271152, 471.7980949056566 274.33679390547604, 471.95294137716036 274.84804708815557" stroke="#4A90D9" stroke-width="1.4" fill="none"></path></g><g><path d="M535.456273619847 275.98817928934966 C535.456273619847 275.98817928934966, 535.456273619847 275.98817928934966, 535.456273619847 275.98817928934966 M535.456273619847 275.98817928934966 C535.456273619847 275.98817928934966, 535.456273619847 275.98817928934966, 535.456273619847 275.98817928934966 M536.0771646130323 283.11090140625777 C539.1241865972271 281.189552977494, 540.2502678019534 278.96124927578524, 543.0158388077703 277.1753625998763 M536.5842056643579 283.261141144556 C539.0730950811331 281.2362142313858, 540.9522858793897 278.85516436792085, 542.469421739698 277.28638737083605" stroke="none" stroke-width="0.7" fill="none"></path><path d="M538.4056557715226 275.2339392910318 C539.4213871730589 275.1118268667619, 541.0350614196286 275.176199375926, 542.1424943775133 275.7869199631755 C543.2499273353981 276.39764055042497, 544.5131003325833 277.8283577725141, 545.050253518831 278.8982628145289 C545.5874067050787 279.9681678565437, 545.832060998276 281.36299762135445, 545.3654134949996 282.2063502152642 C544.8987659917233 283.04970280917394, 543.1819414791566 283.5016072679875, 542.2503684991726 283.9583783779873 C541.3187955191886 284.4151494879871, 540.9213176277731 285.0004228933323, 539.7759756150953 284.9469768752631 C538.6306336024174 284.89353085719387, 536.1175284196145 284.53693729997167, 535.3783164231055 283.637702269572 C534.6391044265965 282.73846723917234, 535.2950175933722 280.8640963869989, 535.3407036360418 279.551566692865 C535.3863896787113 278.2390369987311, 534.8891915622116 276.5148364277237, 535.6524326791227 275.76252410476866 C536.4156737960338 275.0102117818136, 538.8881111117535 274.9956788988163, 539.9201503375084 275.0376927551345 C540.9521895632633 275.0797066114527, 541.6953550184862 276.06214324014854, 541.844668033652 276.0146072426778 M540.4866681111001 275.5251142583548 C541.6135925129847 276.0517440021236, 542.3655860087516 277.4721017262916, 543.2932624959144 278.36302657246284 C544.2209389830772 279.2539514186341, 546.0608220542779 280.1718543788631, 546.0527270340766 280.8706633353823 C546.0446320138753 281.5694722919015, 544.1709886342048 281.8281083454215, 543.2446923747065 282.555880311578 C542.3183961152081 283.28365227773446, 541.4492623493284 285.0433820306561, 540.4949494770865 285.23729513232115 C539.5406366048446 285.4312082339862, 538.5983741159358 284.55344116802064, 537.518815141255 283.71935892156824 C536.4392561665742 282.88527667511585, 534.428475886818 280.9783622067001, 534.0175956290018 280.23280165360694 C533.6067153711856 279.48724110051376, 534.4258670722808 280.0324969981763, 535.0535335943575 279.2459956030092 C535.6812001164343 278.45949420784206, 537.0125230730463 276.02109762906315, 537.7835947614626 275.5137932826041 C538.5546664498789 275.0064889361451, 539.1657630747214 276.22978858763094, 539.6799637248553 276.202169524255 C540.1941643749891 276.17455046087906, 540.4596523052961 275.42258629652184, 540.8687986622658 275.34807890234856" stroke="#4A90D9" stroke-width="1.4" fill="none"></path></g><g><path d="M606.0401112719729 276.395175570471 C606.0401112719729 276.395175570471, 606.0401112719729 276.395175570471, 606.0401112719729 276.395175570471 M606.0401112719729 276.395175570471 C606.0401112719729 276.395175570471, 606.0401112719729 276.395175570471, 606.0401112719729 276.395175570471 M608.630296903283 282.97878574024935 C608.9460728108573 282.29995186348447, 611.204941989511 279.76109251976044, 612.9450273376328 276.51694408890614 M607.8864183435275 283.55159838368047 C610.230873498 281.33825875075894, 612.2202155320214 278.7373764449322, 613.0054692389515 277.15749524885535" stroke="none" stroke-width="0.7" fill="none"></path><path d="M610.9232675601799 274.94036954303715 C611.7593778747224 275.03352784507854, 611.6286152178252 275.60310539700725, 612.408811319478 276.31093126226915 C613.1890074211308 277.01875712753105, 615.2634647923381 278.1395655425587, 615.6044441700963 279.1873247346086 C615.9454235478544 280.23508392665843, 614.9763169520361 281.70315173521533, 614.4546875860267 282.59748641456827 C613.9330582200173 283.4918210939212, 613.5639411674574 284.26013903432295, 612.4746679740398 284.5533328107264 C611.3853947806222 284.8465265871298, 608.9961886411936 284.7669301802158, 607.9190484255208 284.356649072989 C606.841908209848 283.9463679657622, 606.4237435387658 282.8368772018143, 606.0118266800032 282.0916461673656 C605.5999098212405 281.3464151329169, 605.4340288012705 280.84480290500505, 605.4475472729448 279.8852628662968 C605.4610657446191 278.9257228275885, 605.1975608898741 277.1527020911451, 606.092937510049 276.3344059351159 C606.9883141302238 275.5161097790867, 609.6585251507149 275.06916859756876, 610.8198069939937 274.97548593012164 C611.9810888372724 274.8818032626745, 612.9182965531492 275.5394055621385, 613.0606285697215 275.7723099304331 M610.4746937139059 274.6659017088091 C611.3475731753003 274.38999207304556, 611.4843460228374 274.7544860202017, 612.2559769141964 275.63115743147983 C613.0276078055554 276.507828842758, 614.681042351252 278.76055745803654, 615.1044790620599 279.92593017647795 C615.5279157728678 281.09130289491935, 615.096421437372 281.9505043008164, 614.7965971790439 282.6233937421282 C614.4967729207159 283.29628318344, 614.3288261762773 283.68365864694863, 613.3055335120919 283.9632668243487 C612.2822408479065 284.24287500174876, 609.9593337706416 284.65949285312394, 608.6568411939315 284.3010428065287 C607.3543486172215 283.94259275993346, 606.0500899573799 282.8441415812287, 605.4905780518314 281.8125665447774 C604.931066146283 280.78099150832605, 604.8705729717805 279.1582954413249, 605.2997697606407 278.1115925878208 C605.728966549501 277.06488973431664, 607.5971370533448 276.19940541336973, 608.0657587849932 275.53234942375246 C608.5343805166417 274.8652934341352, 607.619039051063 274.2480783890789, 608.1115001505315 274.1092566501172 C608.6039612499999 273.97043491115545, 610.9922401269863 274.56215423903495, 611.0205253818037 274.6994189899822" stroke="#4A90D9" stroke-width="1.4" fill="none"></path></g><g><path d="M329.42709375518643 239.62036222930269 C329.45740475915017 248.30115545720145, 330.36159213757514 255.4365653137379, 329.58606476000443 259.5820281944551 M330.1356576876964 240.01754899533205 C329.68415781677663 244.76088054197598, 330.04134573097946 249.4958404923477, 330.210658668708 259.91114083988805" stroke="#CC3333" stroke-width="1" fill="none"></path></g><g><path d="M540.7125133389562 250.8310937939299 C546.4039315793635 248.05210488785593, 550.1803152300095 246.91495144699036, 561.8289621339105 240.65080009882513 M539.7624818611826 249.99644230010148 C547.4433786672757 245.88174896683603, 553.2768773916565 242.43118240146762, 560.9791205318747 240.5963597522092" stroke="#4A90D9" stroke-width="2" fill="none"></path></g><g><path d="M559.3961625689826 241.92076650911648 C565.7944204481712 244.46408652879444, 572.1533611970414 245.68155932351578, 578.7452459312099 248.4477571281716 M560.9480795173683 239.6619831456709 C568.5024891503598 243.837407955517, 575.432745620511 247.55286644231575, 580.368355914962 250.48428470887916" stroke="#000000" stroke-width="2" fill="none"></path></g><g><path d="M541.0998656572639 328.7185932560661 C546.2400534406852 337.2695453419555, 550.3172135043086 343.44874160346205, 554.6001412947847 348.99925124535787 M540.1980965436574 330.54440650412056 C544.1301466227319 335.09959039003485, 548.5196939593478 340.22959921025006, 554.2505816017843 350.958918029062" stroke="#000000" stroke-width="1.4" fill="none"></path></g><g><path d="M554.4004992423404 350.86973713916757 C549.9276828567648 355.9043365632122, 544.5989463604601 364.7052813047047, 540.0230393948942 368.8279536335437 M555.8929659088647 349.48613154649837 C548.7904645968665 356.6535973228851, 544.1918593776892 365.078009590972, 540.5914048016433 370.4709679528213" stroke="#000000" stroke-width="1.4" fill="none"></path></g><g><path d="M541.1787275452682 370.2051670231754 C535.2371718877057 366.95203569835195, 535.2219405263094 361.1432734936412, 523.4730171356647 348.02715242472306 M539.3196414858332 370.649550905483 C535.337951246046 364.7471762042464, 533.4568750361439 359.286494013229, 524.9453397412117 349.84865804419087" stroke="#000000" stroke-width="1.4" fill="none"></path></g><g><path d="M526.575483803088 351.03572953390415 C531.4178608483975 343.05448995218643, 534.3512331607063 335.24838967770614, 540.5832467301792 331.4651304466465 M524.4189323446847 350.6860803274073 C530.4013432643751 343.12940858364544, 536.2561816202148 335.00756212623077, 539.9318887047712 330.96478722537364" stroke="#000000" stroke-width="1.4" fill="none"></path></g><g><path d="M99.74532269677285 359.8180929757334 C249.76717787715214 353.0060851493148, 400.28235993040084 345.8106237230679, 499.5773878799463 340.3357635765786 M99.9049167460527 360.2079485934563 C225.24153978844564 354.40758541226205, 350.7612982022304 348.06858195829454, 500.04915617711595 339.95698165441934" stroke="#4A90D9" stroke-width="1.5" fill="none"></path></g><g><path d="M99.97411254076378 359.6027082184767 C253.9162952083375 363.1153290044713, 407.1591118748184 367.34884089886623, 500.42956224361444 369.937836326888 M99.98652580218523 360.2207964896777 C197.04849036049305 362.7517415298453, 294.2953687267747 365.25911581910833, 499.98830928281615 370.083678302809" stroke="#CC3333" stroke-width="1.5" fill="none"></path></g><text x="400" y="560" text-anchor="middle" font-family="sans-serif" font-size="16" fill="#222" font-style="italic">Cooperate first. Mirror after. Win forever.</text></svg>