<?xml version="1.0" encoding="UTF-8"?>
<svg width="800" height="600" viewBox="0 0 800 600" xmlns="http://www.w3.org/2000/svg"><rect width="800" height="600" fill="#FFFFFF"></rect><g><path d="M200.17988584366495 300.5068168184394 C282.4703702646327 302.2261642487333, 364.2387054901971 303.6819250584239, 600.3121871425652 298.85420133724665 M200.48213494506723 299.75751015836477 C315.13102063251347 301.65345014072943, 428.7185036982247 301.7241202103975, 600.506554618797 300.63606100255845 M599.0155510791492 300.777172571276 C598.9991828532446 326.2876859981276, 600.236335826612 353.1469645269802, 601.2697710411187 419.7526727028783 M599.4572810104031 300.8645649343138 C598.857779665534 333.3068854765678, 599.63173921624 369.04796229140317, 599.4714495052846 419.9463123343446 M601.3497412205253 419.0045861148448 C443.92271453676904 420.09609831661413, 284.8431568906449 420.58677273554355, 200.1181101606663 420.5808758441453 M600.5145148425516 419.82261931318794 C503.50149190692963 420.6700758484795, 407.5710947243049 421.4818033539294, 200.33540470147778 420.4232172069415 M202.25274177521945 421.2649351775207 C201.08450745390917 388.7124882943367, 202.99938560411454 361.64657340619823, 201.50414971114384 299.70112882857757 M199.21504678346068 420.79731799324225 C201.83335168350726 378.1176732214292, 201.7370362462296 339.047881145752, 200.68467207976755 299.9662607403548" stroke="#000000" stroke-width="2" fill="none"></path></g><g><path d="M392.15169437933355 226.94114970811899 C392.15169437933355 226.94114970811899, 392.15169437933355 226.94114970811899, 392.15169437933355 226.94114970811899 M392.15169437933355 226.94114970811899 C392.15169437933355 226.94114970811899, 392.15169437933355 226.94114970811899, 392.15169437933355 226.94114970811899 M394.34813067646655 235.4477029857798 C398.2090235544697 232.07999118085294, 402.26313389387735 228.57636185423098, 405.1753783346758 223.64141415116782 M395.10014573125255 235.5623210889763 C397.9812504115242 233.27786125573812, 399.07947937076875 230.45761311329875, 404.8841516848809 225.20245076642652" stroke="none" stroke-width="1" fill="none"></path><path d="M396.3408033873794 223.09523356773647 C397.78421859833475 222.29026748989236, 400.49768328516404 221.47387371734018, 402.24027035401355 221.9159007931405 C403.98285742286305 222.35792786894083, 405.9613080025525 224.41664058373848, 406.7963258004764 225.74739602253837 C407.63134359840024 227.07815146133825, 407.3995477581927 228.401108083382, 407.2503771415567 229.9004334259398 C407.10120652492077 231.3997587684976, 407.05441386626654 233.32593240403557, 405.9013021006606 234.7433480778852 C404.74819033505463 236.16076375173483, 401.86079326747614 238.04534540877333, 400.3317065479211 238.40492746903766 C398.80261982836606 238.764509529302, 397.93041044543105 237.83158363812623, 396.72678178333024 236.90084043947118 C395.5231531212294 235.97009724081613, 393.83353426266376 234.5251831808386, 393.10993457531623 232.8204682771074 C392.3863348879687 231.1157533733762, 391.7417557269896 228.55418237778593, 392.385183659245 226.672551017084 C393.0286115915004 224.79091965638207, 396.1297152437378 222.33328031981912, 396.9705021688485 221.53068011289577 C397.8112890939592 220.7280799059724, 397.47283059478656 221.46589359158622, 397.42990520990907 221.8569497755439 M396.07585341200905 223.1592469538148 C397.4481649447888 222.12116156253524, 399.5899990031534 221.0593871515734, 401.3534275946054 221.39450793165182 C403.1168561860574 221.72962871173024, 405.7836163033876 223.69734576302622, 406.656424960721 225.16997163428533 C407.5292336180544 226.64259750554444, 406.60876950009475 228.59227244716828, 406.59027953860584 230.2302631592065 C406.57178957711693 231.8682538712447, 407.80736489780475 233.94613855735233, 406.5454851917874 234.99791590651455 C405.28360548577007 236.04969325567677, 400.7651393256128 236.58279084191525, 399.01900130250164 236.54092725417985 C397.2728632793905 236.49906366644444, 397.22058718889053 235.76946460920263, 396.0686570531206 234.7467343801021 C394.9167269173507 233.7240041510016, 392.71784229004066 231.98441991841136, 392.107420487882 230.40454587957672 C391.4969986857233 228.82467184074207, 391.3285514647754 226.4142605962281, 392.4061262401685 225.26749014709424 C393.48370101556156 224.12071969796037, 397.8039201799068 223.9912733820467, 398.5728691402405 223.5239231847735 C399.34181810057424 223.05657298750032, 397.2686267618832 222.4869842730505, 397.0198200021707 222.46338896345503" stroke="#000000" stroke-width="2" fill="none"></path></g><g><path d="M398.7208286899844 245.7132440000002 C400.1294957653848 252.91117960543932, 398.938081939635 256.7755497680278, 398.60410832486934 268.82854477565104 M399.57062839584154 245.88959035827423 C399.5251666196118 254.5330351393229, 399.14905062600735 263.32579279034235, 399.7550944537661 270.27880911012863" stroke="#000000" stroke-width="1.8" fill="none"></path></g><g><path d="M236.92432898687977 323.88133346234736 C236.92432898687977 323.88133346234736, 236.92432898687977 323.88133346234736, 236.92432898687977 323.88133346234736 M236.92432898687977 323.88133346234736 C236.92432898687977 323.88133346234736, 236.92432898687977 323.88133346234736, 236.92432898687977 323.88133346234736 M236.57043966226985 331.6352454273122 C239.22590887561662 329.04368163247375, 240.09544650806862 327.3393005423539, 243.2136427168303 325.0508131602505 M236.51591939893888 331.75043226406893 C239.3082146530961 328.7777840043127, 241.05662330294044 326.66041667406466, 242.50761981125567 324.9236148454701" stroke="none" stroke-width="0.6" fill="none"></path><path d="M239.28219524390443 323.11589471593 C240.2352640992293 323.25582841661054, 241.4518445501839 324.2388959441528, 242.37647340263217 324.78810989686593 C243.30110225508045 325.3373238495791, 244.5405696108595 325.5340928337614, 244.82996835859404 326.411178432209 C245.11936710632858 327.2882640306566, 244.68369387753404 328.95394044820756, 244.11286588903937 330.0506234875514 C243.5420379005447 331.1473065268952, 242.43718654477107 332.533373559664, 241.40500042762605 332.9912766682718 C240.37281431048103 333.44917977687953, 238.8696015791859 333.1906331311309, 237.9197491861693 332.7980421391978 C236.96989679315269 332.40545114726467, 236.16057141719713 331.641380864013, 235.70588606952643 330.6357307166733 C235.25120072185572 329.63008056933364, 234.9590394003388 327.9238374699758, 235.19163710014504 326.7641412551597 C235.42423479995128 325.6044450403436, 236.13755832166746 324.17175455235923, 237.1014722683639 323.67755342777656 C238.06538621506033 323.1833523031939, 240.38522387738138 323.92586117562354, 240.9751207803236 323.79893450766366 C241.56501768326584 323.6720078397038, 240.8894838789969 323.029411647123, 240.64085368601732 322.9159934200174 M241.64006133235108 322.2263445022063 C242.74122876361588 322.50233897906475, 243.6978989625845 324.2461212982107, 244.18888612173996 325.1772359514735 C244.6798732808954 326.1083506047363, 244.64848252162375 326.6799425007106, 244.5859842872838 327.81303242178313 C244.52348605294384 328.9461223428557, 244.3616702816706 330.93914188315796, 243.81389671570028 331.97577547790894 C243.26612314972996 333.0124090726599, 242.3456710209782 334.1204433504712, 241.29934289146195 334.03283399028913 C240.2530147619457 333.9452246301071, 238.42586756557637 332.2948274431456, 237.5359279386029 331.4501193168164 C236.64598831162942 330.60541119048725, 236.32070171394082 329.7032093942952, 235.95970512962109 328.96458523231416 C235.59870854530135 328.22596107033314, 235.084843354376 328.0519395078163, 235.3699484326844 327.0183743449303 C235.6550535109928 325.9848091820443, 236.78733060670908 323.2852998337181, 237.6703355994715 322.7631942549982 C238.55334059223395 322.2410886762783, 240.11583892707068 323.8990801312666, 240.66797838925893 323.8857408726108 C241.22011785144718 323.87240161395505, 241.0076540938338 322.8836605255261, 240.9831723726011 322.6831587030634" stroke="#000000" stroke-width="1.2" fill="none"></path></g><g><path d="M240.4049538044426 337.95854127168093 C238.88738414091117 341.4460597698153, 240.53411679918642 345.8231458767816, 240.82986653396313 354.86880059108717 M240.1853316810431 337.58577521022715 C240.27568186592876 343.4746127712769, 240.0805590711672 347.67051466435026, 240.35964431265097 354.6088248500826" stroke="#000000" stroke-width="1.2" fill="none"></path></g><g><path d="M316.61587697433214 334.8555675365374 C316.61587697433214 334.8555675365374, 316.61587697433214 334.8555675365374, 316.61587697433214 334.8555675365374 M316.61587697433214 334.8555675365374 C316.61587697433214 334.8555675365374, 316.61587697433214 334.8555675365374, 316.61587697433214 334.8555675365374 M318.35612024947693 341.15740680007167 C319.03908041911825 338.970801075487, 320.80886221189445 338.04630611539613, 323.5948772709925 334.6473605248547 M317.4663042842279 341.1238532689736 C319.78329967787204 338.6077046633977, 321.67091330459226 336.4681831484264, 323.2184964733864 334.8267189888551" stroke="none" stroke-width="0.6" fill="none"></path><path d="M321.1286619250957 332.9388647539181 C322.13666914640925 333.0308332109836, 322.2341930712984 333.99606811100114, 322.9796040131128 334.8280811774181 C323.7250149549272 335.66009424383503, 325.3173259051627 337.02828105929973, 325.60112757598205 337.9309431524196 C325.8849292468014 338.8336052455395, 325.4152772608208 339.4072141144046, 324.68241403802887 340.2440537361374 C323.94955081523693 341.0808933578702, 322.25831997061186 342.61969954495595, 321.2039482392305 342.9519808828162 C320.14957650784913 343.28426222067645, 319.1956747680837 342.82451708395115, 318.35618364974073 342.237741763299 C317.5166925313978 341.6509664426469, 316.74220627623663 340.3249223318753, 316.16700152917264 339.43132895890346 C315.59179678210864 338.5377355859316, 314.80212984479664 337.67103340991633, 314.9049551673567 336.87618152546804 C315.0077804899168 336.08132964101975, 315.6813841040201 335.3410378815846, 316.78395346453306 334.6622176522136 C317.88652282504603 333.9833974228426, 320.774089183047 333.15921330065134, 321.52037133043467 332.80326014924196 C322.26665347782233 332.4473069978326, 321.255520954618 332.3805694305364, 321.2616463488589 332.52649874375726 M317.7119318303683 332.35553738393827 C318.54911971607834 331.8341420704602, 320.14331745759006 332.5275834236753, 321.27415302400567 333.2087787059395 C322.4049885904213 333.8899739882037, 323.7748307418106 335.3620556302489, 324.4969452288619 336.4427090775234 C325.21905971591315 337.52336252479785, 325.87669754439935 338.8424753075334, 325.6068399463133 339.69269938958627 C325.33698234822725 340.54292347163914, 323.8281760994297 341.06382662355355, 322.8777996403454 341.54405356984046 C321.92742318126113 342.02428051612736, 321.00513103423924 342.71562134991655, 319.9045811918076 342.5740610673078 C318.804031349376 342.4325007846991, 317.25539447472624 341.19899131772627, 316.2745005857555 340.6946918741881 C315.29360669678476 340.1903924306499, 314.0123667320739 340.3823925072291, 314.0192178579833 339.54826440607883 C314.0260689838927 338.71413630492856, 315.6120666828969 336.5537370264585, 316.31560734121206 335.6899232672864 C317.0191479995272 334.8261095081143, 317.88274156717745 334.6395816457609, 318.2404618078742 334.3653818510463 C318.598182048571 334.0911820563317, 318.26749809614256 334.06763951681774, 318.4619287853926 334.0447244989987" stroke="#000000" stroke-width="1.2" fill="none"></path></g><g><path d="M320.0857986236568 347.16274265117494 C320.2841807544744 353.1274096802466, 319.5149431614897 357.78545971433977, 320.36210614291974 364.8086018287395 M319.59979523415325 347.5049479035344 C319.487116464292 352.8137155584086, 319.98655575544177 356.8994523935667, 319.87525158786445 363.4774436214977" stroke="#000000" stroke-width="1.2" fill="none"></path></g><g><path d="M477.3234453006154 332.7801350609477 C477.3234453006154 332.7801350609477, 477.3234453006154 332.7801350609477, 477.3234453006154 332.7801350609477 M477.3234453006154 332.7801350609477 C477.3234453006154 332.7801350609477, 477.3234453006154 332.7801350609477, 477.3234453006154 332.7801350609477 M475.96738265555183 341.34151731019045 C478.17796104228523 338.64336454678886, 480.42159808719686 337.5614142572346, 482.82708243845707 333.79869880088376 M476.60809301881216 341.1912993173991 C478.6780221176059 339.02255498025465, 480.38412146609363 336.95609552024933, 482.9503617759831 333.6597594708821 M482.61141890875194 342.3844751091399 C483.13051504886704 341.28169304032923, 484.85870513630545 339.225282133324, 485.7483174221276 338.80699009398484 M482.33197263446783 342.29301487740594 C482.9579436421767 341.5255205733561, 483.7433174572077 340.6085971789592, 485.70669175866396 338.7057301161108" stroke="none" stroke-width="0.6" fill="none"></path><path d="M480.4899109060589 332.3254674361821 C481.57122784255887 332.3024261149112, 483.44988746387867 333.58351592288363, 484.2128986562762 334.4938554463835 C484.9759098486737 335.4041949698834, 485.1729353627729 336.6107958850205, 485.067978060444 337.7875045771815 C484.9630207581151 338.9642132693425, 484.3263517099827 340.75357428168326, 483.58315484230275 341.55410759934966 C482.8399579746228 342.35464091701607, 481.6612741424445 342.4608158189037, 480.6087968543642 342.59070448318005 C479.5563195662839 342.7205931474564, 478.28880531909016 342.7937308149466, 477.26829111382096 342.3334395850076 C476.24777690855177 341.8731483550686, 474.79366530902195 340.8488189681276, 474.4857116227491 339.82895710354603 C474.1777579364762 338.80909523896446, 474.981970536841 337.349548687181, 475.4205689961839 336.21426839751825 C475.85916745552674 335.0789881078555, 476.21365746104215 333.5475243396254, 477.11730237880613 333.0172753655693 C478.0209472965701 332.48702639151315, 479.97046551061527 332.984007786755, 480.8424385027677 333.03277455318135 C481.71441149492017 333.0815413196077, 482.31692349223334 333.3347389366796, 482.3491403317209 333.3098759641274 M478.66026738945567 333.2277464801492 C479.4659393875795 333.04684908418113, 480.06142625011455 333.92529077587614, 481.1277279777389 334.4978071537263 C482.1940297053633 335.07032353157643, 484.5138907364326 335.6781571421353, 485.058077755202 336.66284474725023 C485.60226477397146 337.64753235236515, 484.8862988938254 339.6080516381257, 484.39285009035547 340.40593278441594 C483.8994012868855 341.2038139307062, 482.957807628835 340.9678819305082, 482.0973849343824 341.45013162499185 C481.23696223992977 341.9323813194755, 480.2876503237093 343.4638250484659, 479.2303139236397 343.2994309513179 C478.1729775235701 343.1350368541699, 476.59555173588024 341.4168521603809, 475.7533665339648 340.4637670421041 C474.9111813320494 339.5106819238273, 474.0048565944396 338.33402932398985, 474.17720271214733 337.5809202416571 C474.34954882985505 336.82781115932437, 475.9895811016624 336.4964253747604, 476.78744324021096 335.9451125481078 C477.58530537875953 335.39379972145514, 478.6497368143919 334.7555417734319, 478.9643755434387 334.2730432817414 C479.2790142724855 333.79054479005094, 478.83601744539584 333.0349425297973, 478.6752756144919 333.0501215979649" stroke="#000000" stroke-width="1.2" fill="none"></path></g><g><path d="M478.76910316067153 347.8746387792041 C479.9212317438995 352.8583604992219, 480.1901423382519 356.49253906522335, 479.9301175835889 364.8677527234976 M479.4269397250733 348.0984922327779 C479.4057122630233 352.4960285866558, 480.14641756892877 357.8287836974583, 479.97225932845055 363.53871175508516" stroke="#000000" stroke-width="1.2" fill="none"></path></g><g><path d="M557.4140960960204 322.9010960195353 C557.4140960960204 322.9010960195353, 557.4140960960204 322.9010960195353, 557.4140960960204 322.9010960195353 M557.4140960960204 322.9010960195353 C557.4140960960204 322.9010960195353, 557.4140960960204 322.9010960195353, 557.4140960960204 322.9010960195353 M556.7798905988717 331.47461141898435 C558.6218315067308 330.0637549824233, 560.0178953140988 326.91202609781783, 563.4868716095152 323.52171661124316 M556.7006538917152 331.80058384805085 C558.7487983220583 328.69190483379333, 561.9041868709127 325.9218561983062, 562.8505754930817 324.295057285448 M562.4791836847664 332.5958670866166 C562.7906917070153 332.008576516891, 563.293401503078 331.48897260320325, 563.7175721236138 330.8204113239528 M562.2673873782243 332.43088828347766 C562.903251877481 331.8060497818584, 563.2959189717014 331.3150582937894, 563.6149714419704 330.9100363716795" stroke="none" stroke-width="0.6" fill="none"></path><path d="M561.9759483054089 322.67945583680586 C562.9808923853342 322.8383452402748, 563.6666875445812 324.4979044430425, 564.1605619338842 325.3592279920919 C564.6544363231872 326.22055154114133, 565.1575639864925 326.7009940562806, 564.9391946412265 327.8473971311023 C564.7208252959606 328.993800205924, 563.657248358912 331.32306469476214, 562.8503458622885 332.2376464410222 C562.0434433656649 333.1522281872823, 561.1619524873571 333.4595040435961, 560.0977796614851 333.3348876086628 C559.0336068356131 333.21027117372955, 557.2893336307359 332.24945696883395, 556.4653089070566 331.48994783142274 C555.6412841833774 330.7304386940115, 555.3155239553233 329.61668943923775, 555.1536313194093 328.77783278419554 C554.9917386834953 327.93897612915333, 555.1383782010267 327.41191160498977, 555.4939530915727 326.45680790116944 C555.8495279821187 325.5017041973491, 556.0843811671274 323.4182956349415, 557.2870806626854 323.0472105612734 C558.4897801582434 322.6761254876053, 561.7521091175244 324.05221281951145, 562.7101500649211 324.2302974591609 C563.6681910123178 324.40838209881036, 563.223588392034 324.03386846038467, 563.0353263470658 324.1157183991702 M557.8223553239918 322.6793844101173 C558.7276944236468 322.30650546734194, 561.1496136630988 323.06217402852303, 562.0316588759705 323.47205224576254 C562.9137040888422 323.88193046300205, 562.7175884255741 324.4413632586474, 563.1146266012219 325.1386537135544 C563.5116647768696 325.83594416846137, 564.4832067056918 326.63574735891933, 564.4138879298567 327.65579497520446 C564.3445691540217 328.6758425914896, 563.393097478033 330.20721444948623, 562.6987139462115 331.25893941126526 C562.0043304143899 332.3106643730443, 561.1842828575583 333.9148182467824, 560.247586738927 333.96614474587864 C559.3108906202957 334.0174712449749, 557.8579030624136 332.5413961403525, 557.0785372344235 331.56689840584266 C556.2991714064334 330.5924006713328, 555.7358573995386 329.2581252292978, 555.5713917709863 328.11915833881955 C555.406926142434 326.9801914483413, 555.6475161600792 325.56388213180486, 556.0917434631099 324.73309706297334 C556.5359707661405 323.9023119941418, 557.8707358149946 323.25505238069076, 558.2367555891698 323.1344479258305 C558.6027753633449 323.01384347097024, 558.1445874046635 323.7041419763763, 558.2878621081609 324.0094703338119" stroke="#000000" stroke-width="1.2" fill="none"></path></g><g><path d="M560.692660809284 338.34372936665926 C559.5272712979224 343.2747269393772, 558.773131589253 346.99476530365615, 558.8112567643263 354.3439473258444 M560.1575606628506 337.43382920496686 C560.504920506622 343.35137713738675, 560.2077037489547 347.98927152236047, 559.5594875507093 354.0216378069521" stroke="#000000" stroke-width="1.2" fill="none"></path></g><g><path d="M275.2771023910754 276.3950981468081 C275.2771023910754 276.3950981468081, 275.2771023910754 276.3950981468081, 275.2771023910754 276.3950981468081 M275.2771023910754 276.3950981468081 C275.2771023910754 276.3950981468081, 275.2771023910754 276.3950981468081, 275.2771023910754 276.3950981468081 M276.56581302670526 281.51454296383935 C278.2336288650754 280.47392331610223, 279.5841812632078 277.8249314676261, 283.0058213864125 275.6606719003631 M276.9035752669572 282.2653396904065 C278.388513841699 280.58942319860296, 279.93451167458073 278.62787552542204, 282.73648677684963 275.4711359965372 M282.60744857469695 282.7264397441812 C283.5477759958485 282.2100039176264, 284.18250492773416 281.22429549197346, 285.1610793669523 279.8833765489434 M282.95867016389855 283.1114656492086 C283.69161674963 281.83785253224676, 284.6919948299355 280.5476492259961, 285.3099740947613 279.78699826145817" stroke="none" stroke-width="0.6" fill="none"></path><path d="M282.1757893427233 274.02710064545147 C283.0619699616599 274.4739664727508, 283.3498543181051 275.33375857037913, 283.8112373707394 276.22633654127867 C284.27262042337367 277.1189145121782, 284.9426153428563 278.431499682386, 284.9440876585291 279.3825684708487 C284.9455599742019 280.3336372593114, 284.57246479741116 281.34367167918293, 283.82007126477623 281.93274927205493 C283.0676777321413 282.52182686492694, 281.6208154239093 283.02006038851437, 280.4297264627197 282.91703402808065 C279.23863750153015 282.81400766764693, 277.6518089879451 282.06009689644054, 276.67353749763896 281.3145911094526 C275.6952660073328 280.5690853224646, 274.772850702745 279.28690606586446, 274.56009752088283 278.4439993061529 C274.34734433902065 277.6010925464413, 274.64381143406183 276.9815905408675, 275.39701840646586 276.2571505511831 C276.1502253788699 275.5327105614987, 278.06338130761526 274.46608682418054, 279.07933935530684 274.0973593680463 C280.0952974029984 273.72863191191203, 281.0901062899759 274.13461253478727, 281.4927666926153 274.04478581437746 C281.8954270952547 273.95495909396766, 281.479422579102 273.67626385148264, 281.4953017711435 273.5583990455875 M282.50221938152634 273.7390873777876 C283.39399576224787 274.20195065650876, 283.707634395847 275.0119863477378, 284.04466273805565 275.61449922549156 C284.3816910802643 276.21701210324534, 284.71433097947425 276.19387651476313, 284.52438943477824 277.3541646443104 C284.33444789008223 278.51445277385767, 283.42381553168127 281.4733036213985, 282.90501346987946 282.57622800277534 C282.38621140807766 283.6791523841522, 282.34533586789814 284.0334457047688, 281.41157706396734 283.97171093257145 C280.47781826003654 283.90997616037413, 278.3858468247981 282.9338433837805, 277.3024606462947 282.20581936959144 C276.21907446779136 281.47779535540235, 275.1522523614881 280.85360503532974, 274.91125999294724 279.60356684743687 C274.6702676244064 278.353528659544, 275.4032262601944 275.66430504649236, 275.8565064350497 274.70559024223417 C276.309786609905 273.746875437976, 276.7845662462722 274.08521361533286, 277.63094104207926 273.8512780218877 C278.4773158378863 273.61734242844256, 280.4682141529198 273.2867014994285, 280.934755209892 273.30197668156336 C281.40129626686416 273.31725186369823, 280.5346273599786 273.66613040906077, 280.4301873839123 273.94292911469694" stroke="#000000" stroke-width="1.2" fill="none"></path></g><g><path d="M280.29849552044686 289.24057690748134 C279.9427338169715 295.39888170882557, 278.8082696241999 300.12855496830474, 279.7879311645212 302.9001721109653 M280.19105671708866 287.76714309929275 C280.0612371972187 291.66397736030734, 279.794569323469 294.66403532455513, 280.48121511227714 303.4480467712779" stroke="#000000" stroke-width="1.2" fill="none"></path></g><g><path d="M516.3369309944957 275.268144229553 C516.3369309944957 275.268144229553, 516.3369309944957 275.268144229553, 516.3369309944957 275.268144229553 M516.3369309944957 275.268144229553 C516.3369309944957 275.268144229553, 516.3369309944957 275.268144229553, 516.3369309944957 275.268144229553 M517.718123982693 281.93155859702597 C518.184700413802 279.49607402287126, 520.8148516788631 278.03536115610893, 523.1340997551777 274.53681247446895 M517.2974100407266 281.34999455872213 C518.5524471218622 279.9866166682946, 520.0823791712296 278.39140909137444, 523.5927363952369 274.42454755210827" stroke="none" stroke-width="0.6" fill="none"></path><path d="M518.3164150793591 273.84704697648357 C519.1135796726719 273.5597351738541, 520.2855534636166 273.72063016922823, 521.2604288077359 273.91114825971744 C522.2353041518553 274.10166635020664, 523.4478130642116 274.1413560719341, 524.1656671440751 274.9901555194188 C524.8835212239386 275.8389549669035, 525.7871422927867 277.955024138858, 525.5675532869168 279.0039449446256 C525.3479642810469 280.05286575039315, 523.7940334112288 280.6383571935456, 522.8481331088552 281.2836803540242 C521.9022328064816 281.9290035145029, 520.7894075677423 282.74361587892935, 519.8921514726754 282.87588390749744 C518.9948953776086 283.00815193606553, 518.2705226977582 282.8352056736077, 517.4645965384545 282.0772885254327 C516.6586703791509 281.31937137725777, 515.2504335545497 279.45645723198925, 515.0565945168531 278.3283810184479 C514.8627554791566 277.2003048049065, 515.806021368651 276.00281812190013, 516.3015623122751 275.30883124418455 C516.7971032558992 274.61484436646896, 517.6731753403153 274.3489304734903, 518.0298401785977 274.16445975215436 C518.3865050168802 273.9799890308184, 518.3171298945776 274.21974795537017, 518.4415513419693 274.20200691616856 M520.3233364183244 273.1211679307328 C521.1172672460191 272.9190566800662, 521.5157412068478 273.4899009393866, 522.0980200332642 274.1955274565555 C522.6802988596806 274.90115397372443, 523.5914776971667 276.4051747690116, 523.817009376823 277.35492703374643 C524.0425410564792 278.3046792984813, 523.7242314718396 278.98405304440587, 523.4512101112016 279.89404104496475 C523.1781887505635 280.80402904552363, 523.1278447937656 282.5151383302979, 522.1788812129946 282.8148550370999 C521.2299176322236 283.11457174390193, 518.8144122051424 282.0942724157295, 517.757428626576 281.69234128577676 C516.7004450480097 281.290410155824, 516.4678340421538 281.2470471476012, 515.8369797415962 280.4032682573836 C515.2061254410387 279.559489367166, 513.7661334823697 277.76182994532655, 513.9723028232312 276.62966794447107 C514.1784721640927 275.4975059436156, 516.190226450381 274.1986200135232, 517.0739957867655 273.6102962522505 C517.95776512315 273.0219724909778, 518.921921832848 273.2568514047989, 519.2749188415379 273.0997253768347 C519.6279158502277 272.94259934887054, 518.9917097429992 272.7085437567488, 519.1919778389044 272.66754008446554" stroke="#000000" stroke-width="1.2" fill="none"></path></g><g><path d="M521.0819923515777 286.79756027377874 C520.0530841761984 291.28698912766384, 521.2798872510664 294.41810539116364, 520.511491177658 305.19420361413455 M520.1318263915105 287.7662464757795 C520.6213387585439 293.23708931443343, 520.266873364019 299.13499527768226, 519.8611545809558 304.31392640346735" stroke="#000000" stroke-width="1.2" fill="none"></path></g><g><path d="M394.3874823822391 423.66160058988874 C394.3874823822391 423.66160058988874, 394.3874823822391 423.66160058988874, 394.3874823822391 423.66160058988874 M394.3874823822391 423.66160058988874 C394.3874823822391 423.66160058988874, 394.3874823822391 423.66160058988874, 394.3874823822391 423.66160058988874 M396.90379972860654 431.95097022452694 C400.90356925016243 428.6866197480919, 403.83939802392746 424.5358987778776, 406.14898009423695 422.2706604320485 M397.9428350868421 431.7858129277271 C399.7725821158088 429.26198716276707, 401.94917042985827 426.72041784549305, 405.3658461076702 422.6660665941396" stroke="none" stroke-width="1" fill="none"></path><path d="M402.31746334018453 420.28645096948486 C403.59616598486514 420.65995095640204, 404.86761203443615 421.92274737864045, 405.5062558098741 423.00966035497737 C406.1448995853121 424.0965733313143, 406.52582868366534 425.5373386774203, 406.14932599281235 426.8079288275062 C405.77282330195936 428.0785189775921, 404.1950000432689 429.78048087308923, 403.24723966475625 430.63320125549285 C402.2994792862436 431.48592163789647, 401.5600852688293 431.762547747475, 400.46276372173634 431.924251121928 C399.36544217464336 432.085954496381, 397.7967873002299 432.34996293265436, 396.66331038219835 431.6034215022108 C395.5298334641668 430.8568800717672, 394.0506082883336 428.7578242750946, 393.661902213547 427.4450025392666 C393.27319613876045 426.13218080343864, 393.6368577112841 424.8399647115961, 394.3310739334788 423.72649108724295 C395.02529015567353 422.6130174628898, 396.6015644803518 421.21330338516896, 397.82719954671524 420.76416079314754 C399.0528346130787 420.3150182011261, 401.0032530038859 421.03769825520357, 401.6848843316594 421.0316355351146 C402.36651565943293 421.02557281502567, 401.79457821697866 420.8496945072464, 401.91698751335616 420.72778447261396 M400.57069768458615 419.9668035938124 C401.78559520086395 420.1008430410042, 404.01803850268243 421.4048751926369, 404.9598584527636 422.42469868603257 C405.9016784028448 423.44452217942825, 406.20231421771086 424.84497681053926, 406.22161738507333 426.0857445541866 C406.2409205524358 427.3265122978339, 405.8990448221138 428.9999961370393, 405.0756774569386 429.86930514791646 C404.2523100917634 430.7386141587936, 402.6451920514353 431.32703250802876, 401.28141319402204 431.30159861944935 C399.9176343366088 431.27616473086994, 398.07520032823436 430.2049075292383, 396.89300431245897 429.71670181644004 C395.7108082966836 429.22849610364176, 394.4063156894464 429.5539266185434, 394.18823709936987 428.3723643426598 C393.97015850929336 427.1908020667762, 394.8932124752248 424.14201585830654, 395.58453277200005 422.62732816113856 C396.2758530687753 421.1126404639706, 397.2388936431453 419.54762366166244, 398.3361588800215 419.284238159652 C399.43342411689775 419.0208526576415, 401.47784229113944 421.0137457276196, 402.16812419325765 421.04701514907566 C402.85840609537587 421.0802845705317, 402.5863207202511 419.3955220439664, 402.4778502927307 419.4838546883883" stroke="#4A90D9" stroke-width="2" fill="none"></path></g><g><path d="M400.7959858982495 436.70401985900827 C400.1736443988991 444.414016035734, 398.56079468491447 451.47603748660464, 399.9668756704413 458.80950423850356 M399.9151188803529 437.3093230022173 C399.5643289253837 445.88335675339545, 400.64124552174735 453.0154973124241, 399.9599980917693 457.3572592942578" stroke="#4A90D9" stroke-width="1.6" fill="none"></path></g><g><path d="M427.34310486977097 403.28400540087233 C427.34310486977097 403.28400540087233, 427.34310486977097 403.28400540087233, 427.34310486977097 403.28400540087233 M427.34310486977097 403.28400540087233 C427.34310486977097 403.28400540087233, 427.34310486977097 403.28400540087233, 427.34310486977097 403.28400540087233 M429.5176854571234 407.77960914855487 C431.19481233364775 406.6879050541699, 432.1615627219817 405.77425586785733, 433.68634451414357 403.8704553702179 M429.7968789390963 408.22435457839146 C430.71360478917944 407.0241564076344, 431.36011469739975 406.09559204245795, 433.8328070172649 403.4566987880011" stroke="none" stroke-width="0.6" fill="none"></path><path d="M428.9472397785439 402.24930700248495 C429.4640273625279 401.9562562157469, 430.49200723666553 401.82285786095406, 431.132985551661 402.0105067521622 C431.7739638666565 402.19815564337034, 432.5615407167472 402.75921866278304, 432.79310966851676 403.3752003497337 C433.02467862028635 403.99118203668434, 432.7308560450984 405.0227863685751, 432.52239926227867 405.706396873866 C432.31394247945894 406.39000737915694, 432.05544963554433 407.1893402579806, 431.5423689715985 407.4768633814791 C431.0292883076526 407.76438650497767, 429.9645286218313 407.42381189660546, 429.44391527860347 407.43153561485735 C428.92330193537566 407.43925933310925, 428.8968667090635 407.92566898105434, 428.41868891223146 407.5232056909906 C427.94051111539943 407.1207424009269, 426.71984841066705 405.7627055874252, 426.5748484976113 405.016755874475 C426.42984858455554 404.2708061615248, 427.14191927442823 403.4524912475076, 427.54868943389704 403.0475074132894 C427.95545959336584 402.64252357907117, 428.6579489241557 402.76524292855714, 429.01546945442414 402.58685286916574 C429.3729899846926 402.40846280977433, 429.5510246133408 401.9419556066075, 429.69381261550797 401.97716705694097 M430.20678105228825 401.5457184839368 C430.83551434776786 401.6200872489496, 432.2383674774545 403.2678830128223, 432.7325141476655 403.90920162947344 C433.22666081787645 404.55052024612456, 433.22711092937976 404.79373056055863, 433.1716610735539 405.39363018384364 C433.116211217728 405.99352980712865, 432.92655054413234 407.16863422038205, 432.3998150127101 407.50859936918346 C431.8730794812879 407.84856451798487, 430.7323737893775 407.3544305222264, 430.01124788502057 407.43342107665194 C429.2901219806636 407.5124116310775, 428.54022224051835 408.29133037537315, 428.0730595865685 407.98254269573687 C427.60589693261863 407.6737550161006, 427.4169086340345 406.1784465747281, 427.20827196132126 405.5806949988343 C426.99963528860803 404.9829434229405, 426.5323295847392 404.8834200822139, 426.82123955028896 404.3960332403741 C427.1101495158387 403.9086463985343, 428.19191482153093 402.8839201306197, 428.94173175461975 402.6563739477954 C429.6915486877086 402.42882776497106, 430.9785709814428 403.0161643327792, 431.32014114882196 403.0307561434281 C431.66171131620115 403.045347954077, 431.0780858170404 402.92166464394023, 430.99115275889505 402.74392481168866" stroke="#4A90D9" stroke-width="1.2" fill="none"></path></g><g><path d="M420.4359145307299 417.15487134380373 C420.4359145307299 417.15487134380373, 420.4359145307299 417.15487134380373, 420.4359145307299 417.15487134380373 M420.4359145307299 417.15487134380373 C420.4359145307299 417.15487134380373, 420.4359145307299 417.15487134380373, 420.4359145307299 417.15487134380373" stroke="none" stroke-width="0.5" fill="none"></path><path d="M422.55871170351185 416.6692628168974 C422.887891123383 416.6049964240267, 423.46066406351446 416.7943502690511, 423.5685024344009 416.9052126167533 C423.67634080528734 417.0160749644555, 423.169910210928 416.9875521497273, 423.20574192883055 417.3344369031107 C423.2415736467331 417.6813216564941, 423.93301886936604 418.63770707372106, 423.78349274181625 418.98652113705356 C423.63396661426646 419.33533520038606, 422.61444521451307 419.27911446889914, 422.30858516353186 419.4273212831057 C422.00272511255065 419.57552809731226, 422.2084026165074 420.0419802512155, 421.9483324359289 419.8757620222929 C421.68826225535037 419.70954379337036, 420.95728562104597 418.76758283624775, 420.74816408006086 418.4300119095704 C420.53904253907575 418.09244098289304, 420.7192253535931 418.0932519651419, 420.69360319001817 417.8503364622289 C420.6679810264432 417.60742095931585, 420.25814351539617 417.28028563348545, 420.5944310986112 416.97251889209224 C420.93071868182625 416.66475215069903, 422.52301998021454 415.973224872286, 422.7113286893083 416.0037360138696 C422.89963739840204 416.0342471554533, 421.7641791398285 416.95332003891394, 421.72428335317363 417.15558574159417 M422.66570776505426 417.4018138344085 C422.9567058498857 417.4704949297592, 422.8392235501878 416.83127903724466, 422.91258755658873 416.9964128362365 C422.98595156298967 417.1615466352284, 423.03357885990704 417.95189239885735, 423.10589180345994 418.3926166283596 C423.17820474701284 418.8333408578618, 423.5771386413527 419.41884081692416, 423.34646521790614 419.6407582132499 C423.1157917944596 419.86267560957566, 422.1487864224382 419.76317505158664, 421.72185126278083 419.72412100631396 C421.29491610312346 419.6850669610413, 421.05054194184413 419.7257605295534, 420.784854259962 419.40643394161395 C420.5191665780799 419.0871073536745, 420.1896799760849 418.16765657287743, 420.12772517148807 417.8081614786775 C420.06577036689123 417.4486663844776, 420.13205246173914 417.4458363074226, 420.4131254323808 417.2494633764145 C420.6941984030225 417.0530904454064, 421.4615961493844 416.798838989016, 421.814162995338 416.62992389262877 C422.1667298412916 416.4610087962415, 422.42896027885314 416.30698144686795, 422.52852650810235 416.2359727980909 C422.62809273735155 416.1649641493139, 422.4637609420075 415.9714826329902, 422.41156037083334 416.20387199996657" stroke="#4A90D9" stroke-width="1" fill="none"></path></g><text x="400" y="560" text-anchor="middle" font-family="sans-serif" font-size="16" fill="#222" font-style="italic">"The intelligence was always there. The theatre was blocking it."</text></svg>