<?xml version="1.0" encoding="UTF-8"?>
<svg width="800" height="600" viewBox="0 0 800 600" xmlns="http://www.w3.org/2000/svg"><rect width="800" height="600" fill="#FFFFFF"></rect><g><path d="M99.44728412290266 420.42633194796485 C295.6060677789394 421.2091770748739, 493.1852443749264 420.09962952478963, 699.3336447462368 420.11272301361726 M99.46908499456677 420.4266384777085 C332.84116446143867 417.1799564881534, 565.8801693289879 416.47838391087, 700.5296565704851 420.1421800619363" stroke="#000000" stroke-width="2" fill="none"></path></g><g><path d="M314.8221415934707 263.07060851131587 C314.8221415934707 263.07060851131587, 314.8221415934707 263.07060851131587, 314.8221415934707 263.07060851131587 M314.8221415934707 263.07060851131587 C314.8221415934707 263.07060851131587, 314.8221415934707 263.07060851131587, 314.8221415934707 263.07060851131587 M317.13482031770263 269.75575560369776 C319.0623140963905 268.1603342169394, 321.0639586995169 264.47356126408465, 323.8989232788117 262.17946926035506 M317.1179396031202 269.99598729174704 C317.8552652613404 268.2383905791614, 319.9410773116079 266.6873070839927, 323.51359529016725 261.85154384084706" stroke="none" stroke-width="0.7" fill="none"></path><path d="M318.31438742047806 259.8424066071036 C319.58501245439265 259.45507663504225, 321.556039930596 260.4076562298627, 322.8980841972135 261.1495319764073 C324.240128463831 261.89140772295184, 325.80741655228496 263.1950096221902, 326.36665302018304 264.29366108637095 C326.9258894880811 265.3923125505517, 326.8155359441385 266.5871820988357, 326.25350300460207 267.74144076149196 C325.69147006506563 268.89569942414823, 324.22084529604814 270.53592778694775, 322.9944553829643 271.2192130623084 C321.76806546988047 271.9024983376691, 320.08335005917024 272.0919777276039, 318.89516352609917 271.8411524136559 C317.7069769930281 271.5903270997079, 316.7752967785289 270.56977939664586, 315.8653361845379 269.71426117862046 C314.9553755905469 268.85874296059507, 313.58558471838774 267.8425604345939, 313.43539996215327 266.7080431055035 C313.2852152059188 265.57352577641313, 314.0460550320112 263.8962233609564, 314.9642276471312 262.90715720407803 C315.8824002622512 261.91809104719965, 317.9749709234769 261.1101849130751, 318.9444356528732 260.7736461642332 C319.9139003822695 260.43710741539127, 320.7799416797887 260.9292170095955, 320.7810160235091 260.8879247110266 M319.84213799652616 259.7165427514807 C321.32079230903605 259.32867229049725, 322.8093934150822 260.2990449049698, 323.8043942890671 261.0850615843552 C324.799395163052 261.87107826374057, 325.31984259039166 263.2677632054581, 325.8121432404355 264.4326428277932 C326.3044438904793 265.5975224501283, 327.22629942444235 267.02418913286624, 326.75819818933024 268.0743393183657 C326.29009695421814 269.1244895038651, 324.39248077162813 270.2783292728022, 323.00353582976277 270.73354394078984 C321.6145908878974 271.1887586087775, 319.5567377286312 270.82954629051954, 318.4245285381382 270.8056273262916 C317.29231934764516 270.7817083620636, 317.1159929174689 271.33809470562625, 316.21028068680454 270.590030155422 C315.3045684561402 269.8419656052178, 313.16209265776126 267.6324654395098, 312.9902551541521 266.31724002506627 C312.818417650543 265.0020146106227, 314.32780269087294 263.64320614975736, 315.17925566514964 262.69867766876064 C316.03070863942634 261.7541491877639, 317.6135048667792 261.01231082707017, 318.09897299981225 260.65006913908604 C318.5844411328453 260.2878274511019, 318.06250775170116 260.42416230785227, 318.0920644633479 260.52522754085584" stroke="#000000" stroke-width="1.4" fill="none"></path></g><g><path d="M319.1342468632083 276.7228057745007 C318.73410098232404 284.97003097280947, 319.04966921815173 290.1464414381453, 320.05469542678577 300.60903791156306 M320.4373439561472 277.9312716480272 C319.4223236824613 285.45104897859085, 319.5106458659858 292.05176959081376, 319.59715642428296 299.9706441163294" stroke="#000000" stroke-width="1.4" fill="none"></path></g><g><path d="M321.2632611706246 301.1125440731953 C318.95458019905936 306.23312039319643, 317.12501842590655 311.1346843529405, 313.3194664835141 317.5840911191698 M320.13814727965683 299.48527758188425 C318.09762008487996 306.0172919040153, 316.5495678384219 310.2677674045173, 313.45752011220947 318.01708596699075" stroke="#000000" stroke-width="1.2" fill="none"></path></g><g><path d="M319.78348804160345 299.32708798059997 C321.49951892004003 303.5087729146959, 323.10890643704585 309.74864250186874, 326.9390758529189 318.16459387685956 M320.25151593399437 299.2740267265576 C321.37788090275603 306.30276050867826, 323.3195775882158 311.45596817790806, 325.8635632837403 317.4558827077745" stroke="#000000" stroke-width="1.2" fill="none"></path></g><g><path d="M475.78236676259087 262.53982027177165 C475.78236676259087 262.53982027177165, 475.78236676259087 262.53982027177165, 475.78236676259087 262.53982027177165 M475.78236676259087 262.53982027177165 C475.78236676259087 262.53982027177165, 475.78236676259087 262.53982027177165, 475.78236676259087 262.53982027177165 M477.3310839441841 269.55684312487153 C479.93359067661476 267.7465482558801, 481.4700707497266 265.3796861216426, 483.5462483877974 262.05852665579346 M476.96811808882075 270.50525776739045 C479.63507508852024 267.52503322272986, 481.59310907473514 264.84238967614937, 483.38486838769796 262.74200428044946" stroke="none" stroke-width="0.7" fill="none"></path><path d="M480.08335840739903 259.9680799525531 C481.17368363123563 259.9350730581557, 481.9134782528996 260.56622930701616, 482.8342695955295 261.4558821824605 C483.75506093815943 262.3455350579049, 485.13294387027554 264.18959094041384, 485.60810646317833 265.3059972052192 C486.0832690560811 266.4224034700246, 486.36968125286626 267.14793565523485, 485.6852451529464 268.1543197712928 C485.0008090530265 269.1607038873508, 482.7075317992447 270.69824573699645, 481.501489863659 271.34430190156695 C480.2954479280733 271.99035806613745, 479.48004011235076 272.39123392427086, 478.44899353943237 272.0306567587159 C477.41794696651397 271.67007959316095, 475.94336130632666 270.25399556241047, 475.3152104261486 269.1808389082371 C474.68705954597056 268.1076822540637, 474.56556070128516 266.740735174727, 474.68008825836415 265.59171683367555 C474.79461581544314 264.4426984926241, 475.073749996134 263.09888954574046, 476.0023757686225 262.2867288619287 C476.9310015411111 261.4745681781169, 479.44420370165767 260.9873147656757, 480.25184289329553 260.71875273080474 C481.0594820849334 260.45019069593377, 480.79685307736077 260.7680445529084, 480.84821091844964 260.67535665270304 M480.0684609038837 260.0731028279173 C481.33742704767553 260.09059633025663, 482.99269770645253 261.17858333016744, 483.9776652668064 261.7445824001331 C484.9626328271603 262.3105814700987, 485.7039140333994 262.2328497036357, 485.9782662660068 263.46909724771126 C486.2526184986142 264.70534479178684, 486.2598420903871 267.92639552645255, 485.6237786624508 269.16206766458646 C484.98771523451444 270.39773980272037, 483.38592213278537 270.65951227793215, 482.1618856983887 270.8831300765146 C480.937849263992 271.106747875097, 479.25918506545366 270.83777890299353, 478.2795600560706 270.5037744560812 C477.2999350466875 270.1697700091689, 477.07031532709703 269.84305125705606, 476.2841356420901 268.8791033950405 C475.4979559570832 267.9151555330249, 473.73221981427497 266.00528362893084, 473.56248194602904 264.7200872839878 C473.3927440777831 263.4348909390448, 474.354152906276 262.0334436695313, 475.2657084326145 261.16792532538227 C476.17726395895295 260.3024069812332, 478.34727065882714 259.7634526570654, 479.0318151040598 259.5269772190934 C479.7163595492924 259.2905017811214, 479.1326980843353 259.37861047523825, 479.3729751040104 259.7490726975504" stroke="#000000" stroke-width="1.4" fill="none"></path></g><g><path d="M478.99963864286156 276.8545755511537 C479.29721552152336 282.645868188078, 480.13902898003266 291.2775515951383, 478.8258890055518 301.25617689451457 M480.13008572628746 278.42266646248163 C479.50411036411225 285.8724222015127, 480.1028075234068 292.2749913414645, 479.6141909594617 299.9618931861451" stroke="#000000" stroke-width="1.4" fill="none"></path></g><g><path d="M480.0264116950126 300.34257461808073 C477.1263779555062 306.75763376926193, 475.83687239428065 313.0333762093832, 474.7730354047087 317.71262016259817 M480.6847426851963 300.15817987907354 C478.9230511165844 303.28452756689546, 477.3595248620175 308.2386808618944, 474.581902050191 317.7059693679859" stroke="#000000" stroke-width="1.2" fill="none"></path></g><g><path d="M479.7815087827254 299.5007813652073 C481.25664764030955 307.5979838758617, 483.4986245220606 314.960488855006, 485.7438214305672 319.3512492072989 M480.61187578759797 299.9954814096549 C482.3019826535161 305.61059970290574, 484.36746437860273 311.38208547228413, 485.70504551645143 318.2046613022434" stroke="#000000" stroke-width="1.2" fill="none"></path></g><g><path d="M296.7504074854229 332.1619212961727 C296.7504074854229 332.1619212961727, 296.7504074854229 332.1619212961727, 296.7504074854229 332.1619212961727 M296.7504074854229 332.1619212961727 C296.7504074854229 332.1619212961727, 296.7504074854229 332.1619212961727, 296.7504074854229 332.1619212961727 M296.7829156593646 341.6920695519627 C299.4951248573413 337.7393629529035, 302.6905802659309 334.949224573387, 303.74248821116066 332.21577294273817 M296.7055072210443 341.2266200678667 C298.4591676873461 338.9996334013515, 300.8682618504784 337.09831557148715, 304.3218789357249 332.3366948476362" stroke="none" stroke-width="0.7" fill="none"></path><path d="M300.0650476551686 330.6165509512394 C301.28297840309233 330.76253568330566, 303.29950083572254 331.2802993762915, 304.29750974896416 332.12506618566823 C305.2955186622058 332.96983299504495, 305.9829994947453 334.5969695871328, 306.0531011346183 335.6851518074996 C306.12320277449135 336.77333402786644, 305.3940145739193 337.62724856553035, 304.71811958820246 338.6541595078691 C304.0422246024856 339.68107045020787, 303.23824176741743 341.43020350319046, 301.99773122031723 341.84661746153216 C300.75722067321703 342.26303141987387, 298.5483701377479 341.57215759553134, 297.2750563056011 341.15264325791924 C296.00174247345427 340.73312892030714, 294.8375161851658 340.2345820470007, 294.3578482274365 339.3295314358595 C293.8781802697072 338.42448082471833, 293.96091992977074 336.95992911403044, 294.39704855922525 335.7223395910722 C294.83317718867977 334.484750068114, 295.86123032815675 332.7201305349811, 296.9746200041635 331.9039942981101 C298.0880096801703 331.0878580612391, 300.2627744594861 331.05620952208653, 301.07738661526594 330.82552216984635 C301.8919987710458 330.59483481760617, 302.03222683318 330.58400572841003, 301.8622929388426 330.5198701846689 M299.4967301813388 330.8836247067219 C300.8006613625356 330.67112055075995, 302.57232342448265 330.7418121217854, 303.78608006512286 331.14854976832845 C304.9998367057631 331.5552874148715, 306.7031620619754 332.168371194879, 306.77927002518 333.32405058597993 C306.8553779883846 334.47972997708086, 305.0019307727866 336.5559282334144, 304.24272784435067 338.0826261149339 C303.48352491591476 339.6093239964533, 303.36216091503223 342.0055233427436, 302.2240524545645 342.48423787509665 C301.0859439940968 342.96295240744973, 298.5854961585272 341.52948347476575, 297.41407708154435 340.9549133090524 C296.2426580045615 340.3803431433391, 295.7353520310252 340.0101069027422, 295.1955379926675 339.0368168808167 C294.6557239543098 338.0635268588911, 294.1890417522821 336.3528279195217, 294.1751928513982 335.1151731774991 C294.1613439505143 333.87751843547653, 294.2916331652443 332.58291335077735, 295.1124445873643 331.610888428681 C295.93325600948424 330.63886350658464, 298.34944075643875 329.4809391662313, 299.10006138411813 329.28302364492095 C299.8506820117975 329.0851081236106, 299.68495044895303 330.05844410174643, 299.6161683534404 330.42339530081887" stroke="#000000" stroke-width="1.4" fill="none"></path></g><g><path d="M301.2088245051786 348.347389061856 C301.52850266809645 354.3135560456885, 298.96484558553294 358.8553048541787, 298.660243612807 368.7361046718463 M300.46427318491027 348.2433336835889 C300.91426704323004 354.8974347975351, 299.64826290446103 363.23356081956825, 299.8851495212478 369.56599095709464" stroke="#000000" stroke-width="1.4" fill="none"></path></g><g><path d="M299.59894722542424 368.55610089961857 C298.91748998999344 374.49537742925406, 298.02577183607013 378.53911050691727, 292.74735493574366 387.3256305685082 M300.584065201521 370.51809087152037 C298.46251055316225 373.88677726983053, 296.6477347698934 379.78684094725634, 294.58763885706895 388.4398177552841" stroke="#000000" stroke-width="1.2" fill="none"></path></g><g><path d="M301.23178447612685 371.4856878816273 C301.3384254180204 377.01438970101236, 303.1783389594065 383.7479564393431, 306.20777923831616 387.45622964998057 M300.7372081051021 370.50760471647754 C301.89517237992493 376.22215971086484, 304.5897595389662 382.53517501705994, 306.0087668646589 388.6172557273517" stroke="#000000" stroke-width="1.2" fill="none"></path></g><g><path d="M496.13507316752396 331.90766476885096 C496.13507316752396 331.90766476885096, 496.13507316752396 331.90766476885096, 496.13507316752396 331.90766476885096 M496.13507316752396 331.90766476885096 C496.13507316752396 331.90766476885096, 496.13507316752396 331.90766476885096, 496.13507316752396 331.90766476885096 M496.930821579927 339.56883735337095 C499.4104593398265 337.7374126617048, 499.88496971666035 336.073011145918, 504.51683785746735 332.4527566056634 M496.37393276975257 339.97743702203746 C498.12020125305025 338.2174231451107, 499.7706455053912 336.2968789923584, 504.10669607914133 332.0432470487866" stroke="none" stroke-width="0.7" fill="none"></path><path d="M499.91225846392985 330.33000193606966 C500.9972779010628 330.2381221867367, 501.80363367066724 330.5750744272395, 502.79569784559635 331.1884682878044 C503.78776202052546 331.80186214836937, 505.43479326155807 332.72069498460917, 505.86464351350446 334.01036509945936 C506.29449376545085 335.30003521430956, 505.9227264402097 337.63779625172367, 505.3747993572746 338.9264889769055 C504.82687227433945 340.2151817020873, 503.8181682502085 341.20929961398554, 502.5770810158937 341.7425214505504 C501.33599378157896 342.27574328711523, 499.09074311470255 342.62397201561583, 497.92827595138584 342.12581999629464 C496.76580878806914 341.62766797697344, 496.3501131148037 339.75079252088386, 495.6022780359935 338.75360933462315 C494.85444295718327 337.75642614836244, 493.38994601253563 337.24059615090266, 493.44126547852454 336.1427208787305 C493.49258494451345 335.0448456065583, 494.7871985651637 333.30167026107904, 495.9101948319271 332.1663577015901 C497.03319109869045 331.0310451421011, 499.311130770985 329.59166055380115, 500.1792430791048 329.3308455217968 C501.0473553872246 329.07003048979243, 501.05611248826534 330.48035062825164, 501.11886868064596 330.60146750956386 M502.5978788666883 330.94463562991143 C503.675459469878 331.0380948385242, 504.6562474310464 331.708258364641, 505.13070282145185 332.54326173952285 C505.6051582118573 333.3782651144047, 505.48190972438505 334.665069721447, 505.44461120912126 335.9546558792027 C505.4073126938575 337.2442420369583, 505.8714546669296 339.40608827288503, 504.90691172986925 340.28077868605675 C503.9423687928089 341.15546909922847, 501.1897825881083 341.14036975266083, 499.6573535867591 341.2027983582331 C498.1249245854099 341.2652269638054, 496.51457868006185 341.2704966147771, 495.712337721774 340.6553503194905 C494.9100967634862 340.0402040242039, 495.0803639460429 338.7643928014063, 494.843907837032 337.5119205865136 C494.60745172802115 336.2594483716209, 493.9166759944426 334.21069487137686, 494.29360106770895 333.1405170301345 C494.6705261409753 332.07033918889215, 495.690453486797 331.61463420495556, 497.1054582766302 331.09085353905954 C498.5204630664634 330.5670728731635, 502.1344321230835 330.07481619610303, 502.78362980670795 329.99783303475834 C503.4328274903324 329.92084987341366, 501.1784911813573 330.52408686682446, 501.00064437837693 330.6289545709915" stroke="#000000" stroke-width="1.4" fill="none"></path></g><g><path d="M500.9430103262337 349.56850889465994 C501.45891824150306 353.7673172088958, 501.36252440160035 357.6195145416998, 501.5516702194812 371.5193143607587 M500.57904345003635 347.73622800671137 C499.7739088469572 352.03641143213866, 500.14618852906193 357.27509881160705, 500.14245882819216 369.4731783248865" stroke="#000000" stroke-width="1.4" fill="none"></path></g><g><path d="M499.83742524065093 370.69048337607455 C498.1966929336999 373.42730821415745, 497.89714863872103 378.13713911786743, 492.96719444170924 387.66746295427623 M499.3892212348959 369.6983400194711 C497.0073723050175 376.08473671420234, 495.41915290978017 383.37559945072405, 494.06027500620365 388.335829891599" stroke="#000000" stroke-width="1.2" fill="none"></path></g><g><path d="M500.7084903253351 370.5245774544505 C502.19556579799007 375.0737258883655, 503.01581090836953 377.9570001633343, 506.3422696135029 389.10583784975626 M499.2817644316846 369.89839247622376 C502.4077741731806 376.41954103365913, 503.9985211018919 383.00695067187553, 506.1180769197727 387.3613250374721" stroke="#000000" stroke-width="1.2" fill="none"></path></g><g><path d="M397.5949352297555 230.34787379678153 C397.5949352297555 230.34787379678153, 397.5949352297555 230.34787379678153, 397.5949352297555 230.34787379678153 M397.5949352297555 230.34787379678153 C397.5949352297555 230.34787379678153, 397.5949352297555 230.34787379678153, 397.5949352297555 230.34787379678153 M397.405019065901 240.43585653235218 C399.67974985284474 238.08142799274714, 401.5584262569415 235.56987578296688, 404.7684031717223 232.66515773419746 M397.1438848997567 240.56468670736865 C398.8191125366728 238.00617585721758, 399.97170942900516 236.3929505879417, 404.42384882972976 231.97134080284002" stroke="none" stroke-width="0.7" fill="none"></path><path d="M402.3460601919897 230.93086020471702 C403.505192367806 231.3372239510487, 403.85991370176765 231.7477850021604, 404.44950942192537 232.84361943806914 C405.0391051420831 233.93945387397787, 405.92384285423316 236.25177684050067, 405.8836345129361 237.50586682016944 C405.84342617163907 238.75995679983822, 405.2909775898325 239.64202467039422, 404.2082593741432 240.36815931608183 C403.1255411584539 241.09429396176944, 400.61957055999085 241.93086945903394, 399.38732521880036 241.86267469429507 C398.15507987760986 241.7944799295562, 397.7466819619831 240.67007890261954, 396.8147873270004 239.9589907276485 C395.88289269201766 239.2479025526775, 394.0157884841125 238.69471278677486, 393.7959574089039 237.59614564446895 C393.57612633369536 236.49757850216304, 394.88698450549293 234.54762562242902, 395.495800875749 233.36758787381302 C396.1046172460051 232.18755012519702, 396.3280055761831 230.99131112529756, 397.44885563044056 230.5159191527729 C398.569705684698 230.04052718024826, 401.25315981656104 230.45229627112056, 402.22090120129377 230.51523603866505 C403.1886425860265 230.57817580620954, 403.24374309073806 230.82802389909057, 403.25530393883685 230.89355775803986 M400.0465149536546 230.39879504480913 C401.58701448829515 230.61577989658446, 404.1080234626801 231.42062073949714, 405.1200355816669 232.0798280674287 C406.13204770065374 232.73903539536028, 406.0494194769456 233.13879414179155, 406.11858766757575 234.35403901239852 C406.1877558582059 235.56928388300548, 406.2653217344344 237.9825472419854, 405.5350447254476 239.37129729107048 C404.80476771646084 240.76004734015555, 402.943577950827 242.43683509684953, 401.73692561365516 242.686539306909 C400.53027327648334 242.93624351696846, 399.5595457500584 241.5841290738647, 398.2951307024166 240.86952255142728 C397.0307156547748 240.15491602898987, 394.8849289588926 239.43716413563152, 394.1504353278043 238.39890017228447 C393.415941696716 237.36063620893742, 393.56514208888393 235.69161524881486, 393.888168915887 234.63993877134507 C394.21119574289 233.5882622938753, 395.1755518988364 232.95401381200108, 396.08859628982253 232.08884130746586 C397.0016406808087 231.22366880293063, 398.7633555604176 229.9236154911356, 399.36643526180376 229.44890374413373 C399.9695149631899 228.97419199713187, 399.4656366773945 228.93958305994627, 399.7070744981393 229.24057082545468" stroke="#000000" stroke-width="1.4" fill="none"></path></g><g><path d="M399.8676702926366 247.18651336519028 C400.67105376110953 252.135096985146, 398.48271639187175 259.09290294734024, 401.4664288371128 268.5725413602449 M400.06218848447804 247.27510540348516 C400.3413171481676 255.06291614179815, 399.8587120051017 263.24349767676006, 399.66058831775393 270.6361386328356" stroke="#000000" stroke-width="1.4" fill="none"></path></g><g><path d="M399.34746661366677 268.9066226682109 C398.562075450466 276.14002319762324, 395.9193226828244 281.68634994621027, 395.16656024120454 287.1388651598529 M399.7970612341365 269.9261002540165 C398.20796301917215 275.73022664819194, 396.21989386102223 282.1499203307539, 393.54959355457373 287.95588298155633" stroke="#000000" stroke-width="1.2" fill="none"></path></g><g><path d="M399.1742840632481 269.9735192554016 C400.06460603081615 274.8590611355777, 401.7419654050455 278.06286832427355, 406.77603398238233 289.4359857308747 M400.6173864683855 270.3106960472775 C401.84266998145466 275.5803236375029, 404.14450978143583 281.86072987979884, 405.820387213967 288.4686651817658" stroke="#000000" stroke-width="1.2" fill="none"></path></g><g><path d="M391.308295669756 317.63389093625983 C391.308295669756 317.63389093625983, 391.308295669756 317.63389093625983, 391.308295669756 317.63389093625983 M391.308295669756 317.63389093625983 C391.308295669756 317.63389093625983, 391.308295669756 317.63389093625983, 391.308295669756 317.63389093625983 M395.8879894276563 326.9436514412079 C397.9736950275739 323.65847516959917, 401.3665355179133 320.40056589566774, 405.7359839763559 315.8852340852835 M395.6414030746289 327.95289275513073 C398.70464987768776 323.5888984631175, 401.58808135432207 321.65892499361524, 406.0030784837291 314.7016368389774" stroke="none" stroke-width="1.2" fill="none"></path><path d="M400.5986505692986 311.35372233410993 C402.3679923191131 311.6114370361147, 405.12874664969974 313.3692763722484, 406.3898915854884 314.7793192992752 C407.65103652127704 316.18936222630197, 407.99012651259045 318.0595807581277, 408.1655201840306 319.8139798962707 C408.3409138554707 321.56837903441374, 408.48572688300794 323.6562965105494, 407.44225361412936 325.30571412813345 C406.39878034525077 326.9551317457175, 403.78047262945864 329.2788750812854, 401.9046805707592 329.71048560177513 C400.0288885120597 330.1420961222649, 397.8877477279674 328.93118100581495, 396.18750126193254 327.8953772510721 C394.4872547958977 326.85957349632923, 392.46748254524914 325.26218700052425, 391.7032017745502 323.4956630733181 C390.9389210038513 321.72913914611195, 390.8643165167666 319.1401179034365, 391.601816637739 317.2962336878352 C392.33931675871133 315.4523494722339, 393.9937353400306 313.374608543216, 396.1282025003844 312.43235777971023 C398.26266966073825 311.49010701620443, 402.99384441404624 311.6015831412825, 404.408619599862 311.6427291068006 C405.82339478567775 311.68387507231864, 404.8000813199648 312.5961691454296, 404.616853615279 312.67923357281853 M401.5848226779547 310.58520622898305 C403.4582754732508 310.7004281226871, 406.62902331661144 313.340983348712, 408.02653340964235 314.92340286206564 C409.42404350267327 316.5058223754193, 410.358666196303 318.21957030778094, 409.9698832361401 320.0797233091051 C409.58110027597724 321.9398763104292, 407.30469604519857 324.5746971148465, 405.69383564866513 326.0843208700106 C404.0829752521317 327.59394462517463, 401.880204666454 329.0466614051992, 400.3047208569395 329.1374658400895 C398.72923704742504 329.22827027497976, 397.5490151028738 327.47066697596506, 396.24093279157813 326.6291474793522 C394.93285048028247 325.7876279827393, 393.20439093963984 325.6149036524065, 392.4562269891656 324.0883488604124 C391.70806303869136 322.5617940684183, 391.0956236988586 319.27932110701295, 391.75194908873266 317.4698187273876 C392.4082744786067 315.6603163477622, 394.64681258113166 314.2339815645528, 396.39417932840985 313.23133458266005 C398.14154607568804 312.22868760076733, 401.58723528865426 311.5492095247794, 402.2361495724019 311.4539368360312 C402.8850638561496 311.3586641472829, 400.1723829320066 312.68417833359536, 400.28766503089605 312.6596984501705" stroke="#CC3333" stroke-width="2.4" fill="none"></path></g><g><path d="M393.9996685220522 313.29251957336936 C397.0541085842008 318.4880068102816, 402.74128859815613 321.09484968408907, 406.059003576218 326.64897731001133 M393.7200670244667 313.543297404076 C398.14945475015026 318.07692588687183, 402.6810055607752 323.0285565156641, 406.3436122974718 326.3295421840055" stroke="#CC3333" stroke-width="2" fill="none"></path></g><g><path d="M405.75266932595434 314.08033355534235 C401.8765963726944 318.76452115580133, 396.7364593051364 321.6548587558072, 393.46269461416534 325.4808482338065 M406.2776186507293 313.9672197443968 C401.5936278666326 318.1500511661205, 396.7106766403963 323.3938685450836, 393.68983451424475 326.1777558490909" stroke="#CC3333" stroke-width="2" fill="none"></path></g><text x="400" y="560" text-anchor="middle" font-family="sans-serif" font-size="16" fill="#222" font-style="italic">"When ownership belongs to everyone, it belongs to no one."</text></svg>