<?xml version="1.0" encoding="UTF-8"?>
<svg width="800" height="600" viewBox="0 0 800 600" xmlns="http://www.w3.org/2000/svg"><rect width="800" height="600" fill="#FFFFFF"></rect><g><path d="M118.01988889324504 340.13889925248935 C131.86019800135543 338.4351910031329, 145.08393614839343 334.8900834634644, 181.35483387918822 331.18607462589637 M119.41374465702965 339.450592949227 C139.4604297362046 336.4489696084977, 158.85376686114992 334.17024422299806, 179.64609389113502 330.0921917633391" stroke="undefined" stroke-width="2.5" fill="none"></path></g><g><path d="M181.08318179372108 328.1502407900101 C201.18780932554398 322.88686290199144, 220.9594329326316 316.2654486149242, 240.48769187522393 311.12747949528887 M180.34992712578878 330.11846972645867 C199.47217413182773 323.56674501091067, 219.63317877676315 316.37276090471755, 240.2934149636257 309.5469994394328" stroke="undefined" stroke-width="2.5" fill="none"></path></g><g><path d="M240.5642420056648 310.0666399339806 C262.1831691394602 297.98587480256487, 287.65167462244256 286.2971727847036, 299.1890172041106 280.7948736117399 M240.999046067503 310.9955811796358 C257.9196068713282 300.8802046680524, 276.3936076678392 291.3200261129546, 299.83026248612606 279.55827268128587" stroke="undefined" stroke-width="2.5" fill="none"></path></g><g><path d="M298.68995188801705 280.80659594422326 C318.82231853004356 265.85212201303233, 332.4909857486709 254.62719518443558, 361.7677232859554 236.99545174097156 M299.98828975964085 279.82722248773024 C318.9327665635343 264.2069292752429, 338.6931915019397 249.89911653484052, 359.444702629621 235.7698769783017" stroke="undefined" stroke-width="2.5" fill="none"></path></g><g><path d="M360.6291214711167 234.87106587647315 C383.91013436949436 211.14952829078456, 406.92423461394105 187.6328264247439, 421.1201198448778 175.59993458400731 M359.522414637894 234.66131565239593 C371.7175423775361 221.85530919676592, 385.13788327768935 210.0253301991108, 420.0671464241084 175.88744319852387" stroke="undefined" stroke-width="2.5" fill="none"></path></g><g><path d="M421.1985099356132 174.5504191961428 C431.4188751751257 162.0668762171093, 445.44285675962885 144.9011236024697, 481.2865170880494 101.71172517504408 M419.87602190524285 174.81346835435485 C442.00115055427625 147.364193320779, 464.10986292159413 118.84659494757064, 479.4189407778195 99.80834584284777" stroke="undefined" stroke-width="2.5" fill="none"></path></g><g><path d="M141.4890231005876 161.6585598041321 C155.3707139313793 160.35085368890466, 175.00724863570085 160.17621083727354, 219.15595904814748 158.685672955446 M140.2383993752286 160.3597275194768 C161.8702056401615 159.2122273428952, 182.52322103327197 160.17802103995066, 219.6145847150747 159.6199606619068 M219.72638047794305 160.37500213578065 C219.66833829638477 179.95426075065262, 218.63622067800546 202.23458390726006, 218.0950709225433 218.44756716694545 M220.58100181009596 160.66966999684144 C220.65651957454978 176.71571267688074, 221.07907313486356 193.73738624186925, 219.27641523078972 219.47874267473549 M221.79829405174286 221.71614099778392 C202.49084212996206 221.22466505805306, 186.46898824904235 218.62535387550972, 140.11708222998791 220.43159350592575 M219.4170202564448 219.84303125739356 C198.21295162261742 219.6872925150842, 176.54664610786745 220.03030587745425, 139.63058828090874 220.9930158212745 M141.88277605710866 221.64802261045173 C139.42501643460028 203.8683304664486, 140.8735225164945 189.0960023273495, 138.89076390865654 161.55627280716706 M139.7714124621421 219.48409172574696 C141.22315951188565 201.4129164195254, 139.98986331729432 183.48281109427978, 140.91714708865445 159.43001669918198" stroke="#000000" stroke-width="1.5" fill="none"></path></g><g><path d="M141.09276010062476 161.46677570872455 C148.41421048347607 155.05428140735356, 155.32167826529994 153.59732445398424, 180.77276094154436 141.22461413777773 M139.68153980332323 159.06043670696093 C155.54683578015417 152.34530858744415, 170.72983111095783 144.36572175028854, 180.30144468850887 140.54644522558985" stroke="#000000" stroke-width="1.5" fill="none"></path></g><g><path d="M178.11208180621105 140.33051377268364 C189.59213228931605 146.23072087728377, 201.2335819770732 150.31973243787215, 221.1381930548095 159.39678492149545 M179.42929266077311 140.11801320325532 C195.90178084838738 147.85699107873916, 209.12366741618288 154.85335628490625, 219.8360443294207 159.4067949068294" stroke="#000000" stroke-width="1.5" fill="none"></path></g><g><path d="M155.3871498587849 163.21053605104854 C156.35139627150326 183.6820367687189, 154.5349658641366 201.19599722953635, 153.39075456065473 213.70678438990876 M154.35777925128258 164.92815518024145 C154.16749659909124 182.9188092062019, 153.70149005177413 200.28694270292672, 155.90241202405824 215.16617246232929" stroke="#000000" stroke-width="1.5" fill="none"></path></g><g><path d="M178.3422339750628 163.16050877931858 C179.10488706529338 183.07403130764504, 178.60789433629444 203.39798492105072, 180.2903506910993 215.70223541471617 M179.81698139101752 164.98197896856328 C179.19547067818837 177.36458822796536, 179.39730616185332 188.93987087094845, 179.91344506457258 215.9553202728756" stroke="#000000" stroke-width="1.5" fill="none"></path></g><g><path d="M203.03913814558314 164.47930808495383 C206.09140893225728 176.67000979100482, 204.58493483406656 187.79601728254303, 204.94746751075775 216.64868479489823 M205.28360598183835 165.2177749551025 C205.14503889949074 182.20616704429779, 204.38941171908044 200.20866615398796, 205.89561554727283 214.9435570138952" stroke="#000000" stroke-width="1.5" fill="none"></path></g><g><path d="M450.0600787713004 159.71040961244245 C453.50577683060993 162.95836535175133, 456.30721500930196 164.77848473915688, 460.44509594601647 164.4961275063683 M450.5147622918076 159.69992787293248 C452.8007986471094 161.40233255004364, 454.15205810412925 161.99495124729435, 460.3529559164354 164.6398306769094" stroke="undefined" stroke-width="2" fill="none"></path></g><g><path d="M460.01861183639147 164.6855026350648 C461.70848727902984 165.3016755433114, 466.15784388445945 168.34224975514707, 470.03658866446494 169.30700444806257 M460.53468258768413 165.45262594996112 C463.65919075168375 166.01692772335218, 466.28794036962375 168.26623208556776, 469.949272043786 169.8465094634763" stroke="undefined" stroke-width="2" fill="none"></path></g><g><path d="M468.3394704426631 171.5309746729888 C473.2290296360048 198.79450156870791, 474.2257802309038 232.58747471231132, 481.6244096363387 298.84742699515516 M469.7263060085354 170.64740079471034 C473.63140629313216 208.21538135039316, 476.35432144880866 244.6769407799201, 480.6119309160799 299.1198924338413" stroke="undefined" stroke-width="3" fill="none"></path></g><g><path d="M323.9602600119979 370.34640905636627 C332.0586627677363 365.53027493984393, 335.87643169508806 365.7741711376925, 344.494650638347 361.56757427953806 M324.46695099521355 370.69720798268503 C330.29106273380904 366.50669445025557, 335.1388690672713 364.6374454579466, 344.27699899906924 359.89477313740167" stroke="undefined" stroke-width="2" fill="none"></path></g><g><path d="M345.28268974117003 360.65489217201633 C347.3289804750915 360.4362637088805, 351.88202468215115 359.3651495485719, 354.02621195140676 359.38132348410477 M345.2823527107433 359.58386786885205 C348.1840515053893 360.0450041671248, 352.01526506779385 360.3661510212743, 354.54689469025817 359.56001082403935" stroke="#000000" stroke-width="2" fill="none"></path></g><g><path d="M355.7127708501573 358.5393342277115 C360.84808095339054 360.3220387645723, 364.89725984906016 364.0421690802508, 374.8291124059757 371.73933362995155 M354.57202264932494 360.9275745376058 C362.21181486466486 363.4715359566774, 370.5823953707277 366.6895871009886, 374.530696095006 370.06724151349727" stroke="undefined" stroke-width="2" fill="none"></path></g><text x="400" y="560" text-anchor="middle" font-family="sans-serif" font-size="16" fill="#222" font-style="italic">Reputation is compound interest in trust.</text></svg>