<?xml version="1.0" encoding="UTF-8"?>
<svg width="800" height="600" viewBox="0 0 800 600" xmlns="http://www.w3.org/2000/svg"><rect width="800" height="600" fill="#FFFFFF"></rect><g><path d="M289.01997522107183 236.6660884968153 C289.01997522107183 236.6660884968153, 289.01997522107183 236.6660884968153, 289.01997522107183 236.6660884968153 M289.01997522107183 236.6660884968153 C289.01997522107183 236.6660884968153, 289.01997522107183 236.6660884968153, 289.01997522107183 236.6660884968153 M289.15798026733813 251.45339932904156 C292.3984996569558 243.44195184422583, 297.03481778163075 239.85191815294854, 302.5916876592912 232.76933707118175 M286.8935008418899 249.4782540417447 C290.9914594582815 246.219941903715, 296.7295827588957 240.58922321352432, 303.79540629824385 233.00900281439127 M293.3994689407674 258.12409066091703 C297.4575780842102 253.03231254241123, 303.4452802810218 246.79603375380987, 310.2983260763104 235.5722024215758 M292.60614240650983 256.50245035782336 C298.78097922293597 251.04598234312675, 304.2306592109301 243.8868319237699, 311.15645721130454 236.79475095320075 M302.47242892135245 255.53268881749614 C305.86993750726987 253.9628938501024, 308.5697611874275 250.73651562114964, 313.4862651901341 243.89185072897044 M304.2035598093324 255.7866159780414 C306.01948022536567 253.47045319710966, 309.59329015581346 249.2240403383955, 313.6610310882443 245.45107545702103" stroke="none" stroke-width="1" fill="none"></path><path d="M296.1489231866043 230.9171395383616 C299.1893094830102 229.95445786877156, 304.1153245635493 230.7105792008036, 306.91577647552964 232.31223525614539 C309.71622838751 233.91389131148716, 311.68967179004244 237.83572000350912, 312.95163465848646 240.5270758704122 C314.21359752693047 243.21843173731529, 315.3740039661173 245.9008689380846, 314.4875536861939 248.46037045756387 C313.6011034062705 251.01987197704312, 310.48548759359466 254.37066548416323, 307.6329329789462 255.8840849872878 C304.78037836429775 257.39750449041236, 300.46875097439363 257.9087368787331, 297.3722259983032 257.54088747631124 C294.27570102221273 257.17303807388936, 291.15738222268266 255.6799399196031, 289.05378312240356 253.67698857275644 C286.95018402212446 251.67403722590979, 284.80615619157425 248.30093736156618, 284.7506313966285 245.52317939523127 C284.6951066016827 242.74542142889635, 286.37054829363524 239.47701710118326, 288.72063435272906 237.0104407747469 C291.0707204118229 234.54386444831056, 296.85696144468574 231.51089140848785, 298.85114775119126 230.7237214366132 C300.8453340576968 229.93655146473856, 300.8695037368804 231.93007037298125, 300.68575219176233 232.28742094349911 M306.48935117573194 232.95463896109976 C309.20940928938523 233.92626075842864, 311.33736764388726 236.11985290720546, 312.6424705231063 238.84524572279642 C313.9475734023253 241.57063853838739, 314.9029403551618 246.45666919311768, 314.319968451046 249.30699585464552 C313.73699654693024 252.15732251617337, 311.8015225087621 254.45170399345108, 309.14463909841163 255.94720569196355 C306.48775568806116 257.442707390476, 301.71613229201546 258.40329248166444, 298.37866798894316 258.2800060457204 C295.04120368587087 258.1567196097764, 291.34250304559197 257.4940536567147, 289.11985327997775 255.2074870762994 C286.8972035143635 252.92092049588413, 285.2866548172448 247.51799515455403, 285.0427693952578 244.5606065632288 C284.79888397327073 241.60321797190355, 285.9400423219401 239.53826628705863, 287.65654074805553 237.46315552834793 C289.37303917417097 235.38804476963722, 292.02167331325654 233.08463255489133, 295.3417599519505 232.1099420109646 C298.6618465906445 231.13525146703788, 305.58478599902577 231.2548249446581, 307.57706058021944 231.61501226478754 C309.5693351614131 231.97519958491696, 307.7151042134673 233.67834117756357, 307.2954074391125 234.27106593174113" stroke="#000000" stroke-width="2" fill="none"></path></g><g><path d="M298.0734695311879 258.3268192528918 C299.9143298198134 277.3032716500645, 299.42859065335233 300.39917607135766, 298.0149400255061 310.5219700078868 M299.8382730081276 258.0511651590071 C299.30250213948364 273.4026008736543, 300.8009081228704 288.3965755800511, 299.76904948339677 309.94253983858215" stroke="#000000" stroke-width="2" fill="none"></path></g><g><path d="M299.8007713022363 308.72565170843905 C296.11929387837137 321.18001118383194, 294.6504917182173 331.82698075060097, 286.4511472441967 354.65051646332785 M299.79169631158237 310.0618360955093 C297.163878741288 321.31161487228314, 292.84914696464483 333.0756767075354, 287.64839283616647 354.3897051223093" stroke="#000000" stroke-width="2" fill="none"></path></g><g><path d="M298.5484686330122 308.1946524824333 C306.60555982983493 329.33047549593476, 307.9875993976948 344.4811361039428, 313.0059284268868 355.9228895174888 M299.4607393674675 310.92147545501905 C304.810581572221 325.3348365158987, 307.4804890586243 340.78478338111506, 312.3730707455086 355.29641624228833" stroke="#000000" stroke-width="2" fill="none"></path></g><g><path d="M298.4796910474011 273.1709189891443 C330.53634967109156 273.10467782985125, 364.003850084973 273.1450145133761, 379.35236015457957 271.9087189864942 M300.50984128966786 274.31076198561294 C322.60528521755447 272.38329589427525, 344.585113340741 272.22165654162825, 379.5552717451704 269.11136091124047" stroke="#000000" stroke-width="2" fill="none"></path></g><g><path d="M298.93161911768794 273.93835242121764 C286.5306487190104 276.5734216047597, 269.8619326365905 276.8399830848792, 254.38177043099756 278.11288778842203 M300.13947404407355 274.63755035585575 C289.6307689510503 274.9263003897456, 276.9659683880448 277.8369052150218, 255.6255821005014 279.0159258728289" stroke="#000000" stroke-width="2" fill="none"></path></g><g><path d="M380 230 C392.7961273262249 255.9247691115149, 394.48542058588913 283.3645070470902, 381.3109935341 309.83845285323565 M378.2161368988365 231.5247459533271 C393.8642533139982 254.68728964437943, 394.8252467750792 281.9790727384011, 379.32988816571697 307.9889950310925" stroke="#DAA520" stroke-width="3" fill="none"></path></g><g><path d="M379.3984899178128 230.20023104620495 C344.38202081765445 244.723525668704, 311.35229912856494 259.5012816641303, 259.02599204316067 281.1118897821607 M379.8087449904403 229.66458037396666 C348.322967071195 241.98122238933007, 317.0876594145933 255.15666087431362, 258.5004388930512 280.58540732139517" stroke="#000000" stroke-width="1.4" fill="none"></path></g><g><path d="M380.5869096598534 309.36005174121624 C345.72669925522916 300.94798111871853, 308.9301280990531 292.59421155602377, 258.07326896763607 279.6501495113519 M379.4276871109543 309.8026318652557 C349.00619127701685 302.7311960453117, 319.0174214655043 295.15958368680225, 257.8952292071543 280.1771249578894" stroke="#000000" stroke-width="1.4" fill="none"></path></g><g><path d="M254.90047106852685 279.87232791571455 C284.820463382468 278.6077624823286, 314.8741120523913 276.2736865507608, 382.7256235925194 269.45488871083546 M254.6767132563161 280.0721093391528 C281.35779802098915 277.9167356231724, 307.58598226128504 275.56531815962745, 382.2902686787783 270.01102453408794" stroke="#DAA520" stroke-width="2" fill="none"></path></g><g><path d="M633.8887783608092 262.17827572954 C633.8887783608092 262.17827572954, 633.8887783608092 262.17827572954, 633.8887783608092 262.17827572954 M633.8887783608092 262.17827572954 C633.8887783608092 262.17827572954, 633.8887783608092 262.17827572954, 633.8887783608092 262.17827572954 M627.9670945872405 274.33670381068265 C632.959953436281 270.72696418153254, 637.6517240049037 267.68013598834665, 645.062733916403 256.7038177104883 M629.2139926113454 275.6954477074203 C634.1929231314631 269.7537555467746, 639.6342429054408 263.66231486458645, 646.4435428205214 255.7599038222283 M631.6027672146043 280.53451680164335 C639.3686530805517 270.9489552601834, 646.2316403193447 264.68024666343996, 651.0576406642477 257.05123957818086 M631.3623325616865 279.96206294036256 C639.3380048745814 272.0325518019348, 645.9736444767267 263.61906267041604, 652.1976658365488 257.085587046528 M633.8301672758317 285.90081123517695 C642.4898791375241 274.3034495429622, 652.6576720769392 264.12564705009623, 657.089048980684 257.9049224081144 M634.5920492246576 285.19388381729686 C639.3295295122577 279.20076563866854, 643.6149667728437 273.19112822948983, 658.0718613243814 257.48517713454504 M635.3668517408572 289.5527278203413 C644.6176273769709 280.35523829304077, 655.6669596680479 269.4110367131107, 660.9618553829345 259.44528939013503 M636.7708424100931 289.9396106070091 C644.4206735412471 280.00358994804554, 653.4213300224745 270.3826537160456, 662.4623052441044 260.13965676398703 M640.6258654630236 291.61856206657404 C650.2886606902574 281.3612991433836, 656.7800853112325 271.8448473874569, 666.6570556664702 263.0029571373968 M642.1745246503936 291.44337764662504 C650.5879875447731 279.730417942953, 660.1403024492475 269.12344662315405, 666.3293124340385 263.0858673934558 M646.0248112841381 293.617358886544 C652.5504689846779 286.62089671149806, 659.1086595320564 279.2668222195449, 669.2772718798745 266.48265800215876 M646.5918771585092 293.7946263742212 C654.3050963938656 283.50983111056075, 663.9267622392745 273.55617323891585, 668.5980229406798 267.24656013873147 M654.2652345114531 293.7354218857314 C657.8342213192819 288.6946671953642, 661.5871137711831 283.06765675976607, 670.0546273904507 274.22681442393116 M653.2922554413198 293.40455012671976 C657.1394576619662 289.09896346446243, 660.5199402918229 284.47899909285144, 668.920313227021 274.7037939357399 M662.234036137877 291.88345995692765 C663.3530949134449 289.35425805232495, 665.1495646678976 285.98603080998197, 670.0203678963986 280.1253401394984 M661.1605975857648 291.71073540956803 C663.3338501735667 289.1506698160759, 665.7800519656215 287.18366409966177, 670.3117091863262 280.728412944859" stroke="none" stroke-width="0.6" fill="none"></path><path d="M645.6984050022522 255.20685835068687 C649.7606295484818 254.17402460321657, 656.0038715875983 255.2821719054145, 659.8097991571123 257.2867722832135 C663.6157267266262 259.29137266101253, 666.8239666760146 263.15062729329327, 668.5339704193359 267.2344606174809 C670.2439741626572 271.31829394166857, 671.2757870374132 277.74374736620024, 670.0698216170398 281.7897722283395 C668.8638561966663 285.8357970904787, 665.1923867352309 289.38393620058207, 661.2981778970953 291.51060979031644 C657.4039690589598 293.6372833800508, 651.1831581490729 295.1618813569857, 646.7045685882266 294.5498137667455 C642.2259790273803 293.9377461765053, 637.3482161753611 291.0474120050386, 634.4266405320175 287.8382042488753 C631.5050648886738 284.62899649271196, 629.2956500784488 279.5356851989335, 629.1751147281643 275.2945672297654 C629.0545793778798 271.0534492605973, 630.8745915141399 265.7790479515262, 633.7034284303103 262.39149643386656 C636.5322653464807 259.00394491620693, 643.8708833509755 256.13334034487025, 646.1481362251867 254.96925812380752 C648.4253890993979 253.80517590274476, 647.317120487004 255.12193279795733, 647.3669456755771 255.40700310749008 M649.6101750119864 254.70015816410316 C653.9502517475189 254.448130779092, 660.3615732602279 257.6637897160481, 663.7500275176052 260.49760803569745 C667.1384817749824 263.3314263553468, 669.2787956735077 267.74872255836715, 669.94090055625 271.7030680819995 C670.6030054389922 275.65741360563186, 669.7701046864165 280.51566435495755, 667.7226568140586 284.2236811774917 C665.6752089417007 287.93169800002585, 661.8654898805206 292.2133382611163, 657.6562133221029 293.9511690172044 C653.4469367636851 295.6889997732925, 646.8332017703965 296.1073841582904, 642.4669974635523 294.6506657140202 C638.100793156708 293.19394726974997, 633.562909602168 289.1672667545852, 631.4589874810372 285.21085835158294 C629.3550653599063 281.25444994858066, 629.0095426749563 275.25258854172466, 629.8434647367671 270.9122152960065 C630.677386798578 266.5718420502883, 633.2356484500497 261.75115022360245, 636.4625198519025 259.16861887727384 C639.6893912537553 256.58608753094524, 646.9555510361233 255.8958505933377, 649.2046931478841 255.41702721803492 C651.4538352596448 254.93820384273212, 649.7091950067845 256.0571708749167, 649.9573725224673 256.295678625457" stroke="#ccc" stroke-width="1.2" fill="none"></path></g><g><path d="M640.535020708281 267.9557660585099 C640.535020708281 267.9557660585099, 640.535020708281 267.9557660585099, 640.535020708281 267.9557660585099 M640.535020708281 267.9557660585099 C640.535020708281 267.9557660585099, 640.535020708281 267.9557660585099, 640.535020708281 267.9557660585099 M639.1522224110757 277.86764631138215 C641.0476156734817 273.6935936397195, 645.7852739567832 269.7481411552435, 651.8666604650053 264.3450039162293 M638.9729833197051 277.15945978480534 C642.0288878655015 273.6949100513799, 644.5767086996548 270.2193291915515, 651.0880712462215 264.0982281065978 M640.9378352383391 283.76267306410335 C646.4098384926446 277.1836639942643, 650.827130806234 271.95412045312395, 655.0120155722601 265.26178094830817 M640.434519716677 282.33495290189626 C645.7356017640225 276.45531938467195, 650.8208150916765 271.362102237168, 655.5146379959676 265.425990822538 M646.0114790171041 285.0422558545335 C648.9566962753423 280.5118200608112, 653.5252540357772 275.74258851164984, 659.1182981793324 268.29836236378515 M644.7288478808155 285.9431940903023 C649.5672858147735 281.2513372019618, 653.300229425069 275.951225710015, 659.7398459552036 269.2531503006498 M650.3505768394078 286.23210532207963 C654.2268723152974 283.238337741375, 657.39403001355 280.8394859343943, 662.3825532392734 273.71981124031373 M651.3676006484321 286.7339336299306 C653.9940516729578 282.8240254442684, 656.9024532523118 279.3802505446448, 661.1490934041182 273.98028739640455" stroke="none" stroke-width="0.6" fill="none"></path><path d="M647.0469819002788 263.49392467750823 C649.3465592917894 262.99632668965967, 652.9807808640506 263.5323555944636, 655.3232014853901 264.73936735299503 C657.6656221067295 265.9463791115265, 660.0135295967202 268.3992933728221, 661.1015056283156 270.7359952286969 C662.189481659911 273.07269708457164, 662.6236555213201 276.38217388752673, 661.8510576749622 278.75957848824373 C661.0784598286044 281.13698308896073, 658.7812579178898 283.6759850716116, 656.4659185501688 285.0004228329988 C654.1505791824478 286.32486059438605, 650.6047008160778 286.99292001517426, 647.9590214686366 286.706205056567 C645.3133421211954 286.41949009795974, 642.1827898370635 285.1305499567236, 640.5918424655218 283.28013308135513 C639.0008950939801 281.42971620598667, 638.4226476899685 278.15794885235294, 638.4133372393867 275.60370380435626 C638.4040267888049 273.04945875635957, 639.0385270868356 270.01628244661515, 640.535979762031 267.95466279337495 C642.0334324372265 265.89304314013475, 646.057073183865 264.0537622451004, 647.3980532905592 263.23398588491517 C648.7390333972535 262.4142095247299, 648.4391313133779 262.9670914352304, 648.5818604021962 263.0360046322635 M653.6585482698963 262.6837694444291 C655.9887379861161 263.22902356618823, 658.3054391145467 266.061326837236, 659.6726937676382 268.2296989933236 C661.0399484207296 270.39807114941124, 661.9658627021563 272.92787021696296, 661.8620761884453 275.69400238095477 C661.7582896747342 278.4601345449466, 660.7820646394559 282.90878447840316, 659.0499746853719 284.8264919772744 C657.3178847312879 286.7441994761456, 654.2853737413334 287.20501073863545, 651.4695364639408 287.2002473741821 C648.6536991865482 287.1954840097287, 644.3183829747386 286.5149645865853, 642.1549510210162 284.7979117905541 C639.9915190672939 283.08085899452294, 638.8753314408918 279.4563961346026, 638.488944741607 276.89793059799496 C638.1025580423222 274.33946506138733, 638.7196728172246 271.6233478905573, 639.8366308253073 269.44711857090823 C640.9535888333901 267.2708892512592, 642.7846172702348 264.72606137381075, 645.1906927901033 263.8405546801008 C647.5967683099718 262.95504798639087, 652.823868004074 264.13663028492215, 654.2730839445181 264.1340784086487 C655.7222998849622 264.13152653237523, 654.1522008568777 263.72038454482146, 653.885988432768 263.8252434224602" stroke="#ccc" stroke-width="1.2" fill="none"></path></g><g><path d="M647.1316315188094 271.04008636393974 C647.1316315188094 271.04008636393974, 647.1316315188094 271.04008636393974, 647.1316315188094 271.04008636393974 M647.1316315188094 271.04008636393974 C647.1316315188094 271.04008636393974, 647.1316315188094 271.04008636393974, 647.1316315188094 271.04008636393974 M647.3528801637982 279.1992623735667 C649.3863103387556 276.2828118006191, 651.0153514517324 273.16137758247226, 653.4809611817374 271.72241832679265 M646.7563806140203 278.6029208764419 C648.7788921121099 276.7607982708493, 650.5363993497372 274.796827129456, 653.3756997542831 271.2259026566998" stroke="none" stroke-width="0.6" fill="none"></path><path d="M649.8366207601074 270.2388019084502 C650.870070003217 270.1655899868003, 652.7431199170113 270.2937192884668, 653.6700561987949 270.9084416978296 C654.5969924805785 271.5231641071924, 655.2930212033964 272.89342631426496, 655.398238450809 273.92713636462713 C655.5034556982216 274.9608464149893, 654.9422561642243 276.15721339935544, 654.3013596832706 277.11070200000245 C653.6604632023168 278.06419060064945, 652.524915755762 279.16420172016285, 651.5528595650866 279.6480679685092 C650.5808033744112 280.1319342168556, 649.4404044630583 280.4001552063228, 648.4690225392184 280.0138994900807 C647.4976406153785 279.6276437738386, 646.2792221230001 278.27512638916255, 645.7245680220475 277.3305336710568 C645.1699139210949 276.38594095295105, 644.9103352272556 275.3904396271926, 645.1410979335028 274.34634318144634 C645.37186063975 273.30224673570007, 646.2076755370138 271.705893453519, 647.1091442595307 271.065954996579 C648.0106129820476 270.426016539639, 649.9141027797093 270.7268231888005, 650.5499102686042 270.5067124398065 C651.1857177574991 270.2866016908125, 651.0540492638005 269.71139557544046, 650.9239891928997 269.7452905026149 M649.8343981944327 269.25211115282656 C650.8465471723621 269.0644856314114, 650.9105580768064 270.5308233527025, 651.6693461323255 271.2818047476687 C652.4281341878445 272.03278614263485, 653.9369013926339 272.91451298423806, 654.3871265275469 273.7579995226236 C654.8373516624599 274.60148606100915, 654.6147924190074 275.5018405726118, 654.3706969418035 276.3427239779819 C654.1266014645997 277.183607383352, 653.7372657834411 278.1254167004653, 652.922553664324 278.80329995484436 C652.107841545207 279.48118320922345, 650.5926028134991 280.48476060088547, 649.4824242271013 280.4100235042564 C648.3722456407036 280.33528640762734, 646.9562359831484 279.15277358402426, 646.2614821459376 278.3548773750698 C645.5667283087269 277.55698116611535, 645.2199556701846 276.7376873636635, 645.3139012038366 275.6226462505298 C645.4078467374886 274.50760513739607, 646.3177631548302 272.45100955350074, 646.8251553478499 271.66463069626764 C647.3325475408695 270.87825183903453, 647.9233261864541 271.1550688833414, 648.3582543619543 270.9043731071312 C648.7931825374545 270.653677330921, 649.443553124928 270.22401737056265, 649.4347244008509 270.1604560390066" stroke="#ccc" stroke-width="1.2" fill="none"></path></g><g><path d="M101.10201902673371 380.5526668360721 C252.63672307536024 381.2342895789028, 402.97770779378783 380.4828122378633, 699.014366118022 379.5040809155049 M99.52871314855857 379.5331720504607 C311.0273809365656 382.166449156067, 522.5621027066212 382.5831600065335, 700.434942844309 379.8491559781547" stroke="#000000" stroke-width="2" fill="none"></path></g><text x="400" y="560" text-anchor="middle" font-family="sans-serif" font-size="16" fill="#222" font-style="italic">"The shot falls from you like snow from a bamboo leaf."</text></svg>