<?xml version="1.0" encoding="UTF-8"?>
<svg width="800" height="600" viewBox="0 0 800 600" xmlns="http://www.w3.org/2000/svg"><rect width="800" height="600" fill="#FFFFFF"></rect><g><path d="M49.4274539179093 401.262859459214 C253.50223847496787 395.8248903812259, 458.1949925638767 396.43997941926887, 750.2786063547928 398.87847747204876 M49.61399933424968 400.4697115218847 C247.6378961347676 397.93980152171775, 446.68673357294483 396.96211349962, 750.1510276460988 400.18186874068505" stroke="#000000" stroke-width="2.2" fill="none"></path></g><g><path d="M97.85105723749109 394.1586935422466 C113.24993324751206 396.0354529853243, 125.89206987443607 396.39009947521356, 138.3152313179904 397.3969650964515 M99.65744058241236 394.31204010291066 C109.13825851966774 396.5104437244416, 117.75759626408674 396.60797993665636, 139.55164161664737 394.2692761107006 M138.90712754979884 395.1195217505852 C140.0914964733258 398.08085038017543, 140.23498195833017 399.696768584819, 139.9710707131709 403.91844636842677 M140.06854514229522 395.2317058058895 C140.2931444310319 397.08049494677357, 140.3231274471079 400.07212845867576, 140.44993193294587 405.3433396138116 M137.73421214380423 404.9138806653962 C130.10383325183932 406.40677793696574, 122.1520084944149 407.8375424463364, 102.34559620833117 406.12637341814855 M140.83771230884574 405.9780523790874 C131.373811543411 404.9263712152603, 123.51845200687204 405.35574297882494, 99.13652752214465 404.0676454141332 M99.7246796577719 405.4325679762838 C100.83869310610962 401.4120365143686, 100.98309407559032 398.87612849527306, 100.46921095075501 395.18482883968886 M100.03492461490049 405.09624765863424 C99.33488443999899 401.0081325498826, 99.81738584123329 397.5549992951594, 100.35946810120551 394.7546517062848" stroke="#000000" stroke-width="1.4" fill="none"></path></g><g><path d="M210.701328984434 392.71265599904604 C222.1749593978168 394.66469923303595, 234.56437452774472 393.2648562740993, 250.15112821233728 395.02071375127196 M209.16836872352536 393.8232944029124 C224.9966028339042 394.7462583657276, 239.23496190003007 394.3105251297224, 250.84331280129805 395.84567505048653 M251.1887381332725 394.1785608575171 C250.80055338180262 396.9170025689419, 250.9649562860701 400.75582537390454, 251.17217805104477 405.1432750469949 M249.66230389831492 394.8878157905677 C250.2022315582071 397.4136168972401, 250.34337203227588 400.6983323602178, 250.0889138620888 404.8922861356863 M248.37342246469493 406.935483958896 C240.92226313538416 406.8505712932118, 226.13068368457925 405.41913778632005, 208.7857497454929 406.11060582591006 M250.69077665815033 404.74055033917045 C237.72818588065968 403.451727312093, 224.84460551203125 405.6865615540692, 209.5760748249221 405.36936985986387 M209.76777330148934 404.2553886882797 C210.81850046642896 402.8380680475225, 209.44742671672378 400.53141572314223, 209.31287056835697 394.0871170115176 M209.65558269813556 404.67999721591536 C209.57313135683384 400.7204151362396, 210.62236926742435 396.4880682686254, 210.46751533805602 395.46260938145866" stroke="#000000" stroke-width="1.4" fill="none"></path></g><g><path d="M318.412068082233 394.0182807645475 C336.58966348502474 393.5730600349061, 351.6321454236742 393.09682467721757, 360.41911137724026 397.21378721100933 M318.8044297032459 395.7552713529364 C333.22072325998363 394.10144097110754, 346.0454416580995 394.2275254683758, 360.93808836524806 395.5402492513795 M359.9968512242277 394.8134938464829 C359.22094593094306 398.4381425078911, 358.999147511652 401.2756391787037, 359.91338579389503 404.13989308032563 M359.8984037121618 395.16030028729296 C359.9077641833355 397.1644461512845, 360.0714332314016 399.94771599979794, 359.4048364361438 404.5788451820966 M359.3726771797811 406.24383139832156 C344.5478375941904 405.2971488433263, 327.94862737817874 405.25777271161735, 320.62751237437175 406.13286477072575 M361.17153206613165 405.57704515848934 C349.3928690018274 405.0004273447254, 339.59247007204056 404.737487391882, 319.6706059768946 403.9982064438088 M320.0418315376941 404.1417089561703 C319.40569893079066 402.00803925863016, 319.18208523699826 399.3105952309788, 320.5475302297601 395.5234336737964 M320.4086961049532 405.0657079627868 C320.69580302049025 402.06502042842897, 319.7679540814641 399.18500420120097, 319.5775418601434 395.214006601009" stroke="#000000" stroke-width="1.4" fill="none"></path></g><g><path d="M428.4289910773362 396.9238335869915 C440.3107208450084 393.1053411619857, 448.19718680010465 396.7657532794431, 471.8935324066077 393.46950009866487 M429.7180274711464 394.01405029233376 C437.4171192904775 395.06199257149785, 445.46721548994844 395.8707665161837, 469.3505087902214 396.18990756724475 M469.196418220851 394.68276733452717 C470.71722605574513 397.1982946035817, 470.8515251946127 401.3218629288667, 469.57250328375466 405.9876990720463 M469.56898537390856 394.79735785156697 C469.4161082320839 397.02041985837286, 469.42100856472985 399.6927631675554, 469.68308517492164 404.8281610763691 M469.1490073002198 404.37534348538776 C463.68947189567115 406.9858503675764, 454.15331070933274 403.57991467940343, 431.16331727296705 404.0646713322065 M470.34797294220493 405.6141105162291 C455.17526884705484 405.11371644013605, 440.55667507223353 404.39335856883724, 429.7208962101803 404.2940239987936 M428.88984893128617 405.02505675789655 C429.94461446832435 403.5475683403389, 430.8735376779519 400.0538507435321, 429.14397215335225 395.7594175882504 M429.52019385760127 405.32204067806805 C430.50691968482266 401.8058532311648, 429.9529162443787 397.06979435728636, 429.77225047221435 395.4239733468312" stroke="#000000" stroke-width="1.4" fill="none"></path></g><g><path d="M538.3168120209858 394.64921297506413 C552.0333160676531 393.4861117907179, 568.8566927555167 396.5299523579566, 578.723427138109 394.409893762856 M539.3974296802882 394.39246727222775 C550.9758530883132 395.29494287253374, 562.1007885322385 395.0459077883592, 580.1833676829789 396.0376456098625 M578.8623918450581 394.49932905488134 C579.3152132609949 397.2714867887545, 580.6056277994483 401.5715750433066, 580.5110784426826 405.4457616970577 M579.6843569537778 394.9845002303949 C580.4127997044104 398.86735875641983, 579.9856997469292 401.4300545853917, 579.5644044929946 404.5331733207953 M577.8267255232373 403.2578104082253 C566.8185859980235 405.32753227773577, 555.0739451491453 404.38382475090935, 541.3977360476496 406.6149097419435 M579.8367587411974 405.3189055226524 C567.4113818998649 406.066827201248, 555.918269596486 405.09149133554354, 538.8353702770943 404.2748767566448 M540.9090592285448 404.1817255313216 C539.2058354286391 400.90633828740465, 539.3411664700836 398.042087288242, 540.7712877162497 396.03935967948973 M539.78368211627 405.0270244790342 C539.5953090846925 403.46846692592476, 539.7618284282247 401.1164394838835, 539.5217186927196 394.83909663647677" stroke="#000000" stroke-width="1.4" fill="none"></path></g><g><path d="M652.1365600571439 397.2677556016756 C659.1590067795913 396.855831674904, 672.4634762881652 394.8890325166465, 689.6218486619528 394.6697311162705 M648.9784590619203 394.4524131362783 C659.4573512318419 394.10392216473565, 666.9623517482341 395.77001137522586, 689.2135453242441 395.5664366508197 M689.3656813950124 395.6092072530028 C690.498463466908 396.37602438049004, 691.1918621888872 399.85916572803023, 690.3101194376181 405.60005737187936 M690.249816413055 395.0706266317678 C689.6856278828265 398.80163103505606, 689.4964333378155 403.157734920669, 689.7298365159725 404.6215741599463 M690.695042249413 405.40565835582714 C676.7324924780971 406.1979582086751, 662.4497558246717 403.55127510947847, 650.9798036350071 404.6639625256223 M689.7596553059266 405.47355413698716 C677.0214826855274 403.9970269027428, 663.8750463835732 405.3418333067768, 649.7723011303527 405.6485544236825 M650.6947772620154 405.5886074100941 C651.0217430051923 402.12526205908387, 650.7401831897186 397.62157883572485, 648.8082853259293 395.59688138370893 M649.4359438785606 405.2568082491047 C650.2911654227398 401.8471828726955, 650.3127446477245 397.4071643183062, 650.0264535762614 394.5231403136999" stroke="#000000" stroke-width="1.4" fill="none"></path></g><g><path d="M115.47414018253279 328.28237347740315 C115.47414018253279 328.28237347740315, 115.47414018253279 328.28237347740315, 115.47414018253279 328.28237347740315 M115.47414018253279 328.28237347740315 C115.47414018253279 328.28237347740315, 115.47414018253279 328.28237347740315, 115.47414018253279 328.28237347740315 M113.75856416770735 339.69309688174536 C118.08660125669607 337.99191532695545, 119.17953518436158 335.70057321701734, 125.89582211772323 329.0379950476282 M115.55486387749451 340.93388340101194 C118.74123428895184 336.7004050280034, 122.73386847511811 331.9816835184824, 124.83544003960934 330.1941464308374" stroke="none" stroke-width="1" fill="none"></path><path d="M120.33907223345757 327.0057254905665 C121.86262534043662 326.9417580234973, 123.62965052959977 328.6409337515012, 124.9401044917552 329.89724467230906 C126.25055845391064 331.1535555931169, 128.04312034197758 332.8440530639207, 128.20179600639017 334.5435910154134 C128.36047167080275 336.24312896690617, 126.74698303798641 338.68277727502766, 125.89215847823077 340.0944723812655 C125.03733391847513 341.5061674875034, 124.61868684660607 342.63687870496966, 123.07284864785633 343.0137616528404 C121.5270104491066 343.39064460071114, 118.28714176675246 342.9435367005839, 116.6171292857324 342.3557700684899 C114.94711680471235 341.76800343639593, 113.84887296601678 340.96635086170164, 113.05277376173603 339.4871618602766 C112.25667455745528 338.0079728588516, 111.45665422923668 335.3254601144881, 111.84053406004787 333.48063605993974 C112.22441389085907 331.63581200539136, 113.79591474166233 329.5209229348684, 115.3560527466032 328.4182175329863 C116.91619075154406 327.31551213110424, 120.32430656859393 327.0020690477789, 121.20136208969308 326.86440364864745 C122.07841761079223 326.726738249516, 120.60190746927158 327.25782452336045, 120.61838587319811 327.59222513819765 M116.90499948391317 325.8440696910929 C118.7784303262053 325.25792760571323, 122.33943585055819 326.3742318125211, 124.26995123828607 327.323045620673 C126.20046662601395 328.2718594288249, 128.13556710950797 329.937749061022, 128.48809181028042 331.53695254000417 C128.84061651105287 333.13615601898636, 127.0414798196584 335.18349890817666, 126.38509944292072 336.9182664945662 C125.72871906618303 338.6530340809557, 125.8188094174739 341.1340722825909, 124.54980954985432 341.94555805834136 C123.28080968223473 342.7570438340918, 120.69394009926559 341.8442307047222, 118.77110023720321 341.78718114906894 C116.84826037514084 341.7301315934157, 114.35427815202728 342.53634168274635, 113.01277037748005 341.6032607244219 C111.67126260293283 340.6701797660974, 110.7811661805488 338.2409648251179, 110.72205358991987 336.188695399122 C110.66294099929094 334.13642597312617, 111.65353635118369 330.62345641553026, 112.6580948337065 329.2896441684468 C113.66265331622931 327.9558319213633, 116.07351870542803 328.27820225107155, 116.74940448505676 328.1858219166211 C117.42529026468549 328.0934415821706, 116.32957906179604 328.80671455810204, 116.71340951147891 328.7353621617438" stroke="#000000" stroke-width="2" fill="none"></path></g><g><path d="M118.28345860327278 349.991733805647 C118.84148091180921 358.7317111172363, 120.48395654424294 369.64441034326495, 118.42224800295794 378.76532390465786 M119.28814488057135 351.16437994962126 C118.9596956123975 358.2751439459655, 119.05059641205793 366.13995386004916, 119.73575569756593 380.2654779454129" stroke="#000000" stroke-width="2" fill="none"></path></g><g><path d="M118.68536516867583 379.2991624165229 C115.51820767868952 389.2614685108023, 112.44358180453018 400.45951923421046, 108.46389233353821 403.67442957888187 M120.59432298423268 379.1173813494818 C116.97171439923386 387.28051928474713, 114.63940819293202 392.8618121313088, 110.22698710801244 404.5756186812572" stroke="#000000" stroke-width="2" fill="none"></path></g><g><path d="M121.21255982273084 380.8515532708943 C121.39335155130937 387.0440104699894, 124.30542047258771 393.85763503624594, 130.1491999625057 405.0013975711156 M120.92227199935701 379.2997785470662 C122.45597505154767 386.12313720257004, 123.28585917587861 389.9852463633684, 129.98970499098562 405.66973173835476" stroke="#000000" stroke-width="2" fill="none"></path></g><g><path d="M119.69539552921582 360.7096116071639 C123.19464880014975 357.33339545031254, 128.08662851515214 358.3238553709289, 134.65489599606678 355.7200333277549 M120.61691138913542 360.50242470050557 C126.31870827640458 357.65082386754176, 132.1249485901223 355.84173593837943, 135.68406862036665 355.47834130237254" stroke="#000000" stroke-width="2" fill="none"></path></g><g><path d="M132.045174255618 348.8313036442399 C136.1802080172689 348.7609108758401, 141.93558285474708 347.0186182812247, 144.82173551319556 347.7233378624539 M131.7278759612441 347.8890179918713 C136.90945686652654 348.1260780693838, 141.28024646741648 348.04334122365077, 144.43749691056436 348.25498985205775 M142.93573312884644 348.3471049909307 C143.99278567481448 350.62260932155664, 143.16244296024803 354.52512811437765, 145.0771425757994 362.9500931470675 M143.6441057512088 347.83581926173656 C144.1096426144609 352.0243860741623, 143.74080438287822 357.0568477186299, 143.81050821361453 362.30858745173344 M144.01210834971147 362.1853295930617 C141.03184838774237 361.8833157300649, 137.40011851382548 362.4081394504362, 132.03370226379434 361.3982825576916 M143.8562498858057 361.93720796945206 C140.30673238327094 361.8300899544148, 136.9361077496192 362.422282718097, 132.3307399653877 361.7329971216239 M132.29382801403406 362.7082684566191 C131.55593980589222 357.9361452274997, 131.86718385269089 354.22380106355877, 132.31962900360597 348.7216404151144 M131.7361233665247 361.54212205164697 C131.62473694856394 358.62725549052976, 131.72746383116717 354.6722340971907, 131.7882875448162 347.9130417694338" stroke="#000000" stroke-width="1.2" fill="none"></path></g><g><path d="M541.1660134444932 294.20171032878386 C541.1660134444932 294.20171032878386, 541.1660134444932 294.20171032878386, 541.1660134444932 294.20171032878386 M541.1660134444932 294.20171032878386 C541.1660134444932 294.20171032878386, 541.1660134444932 294.20171032878386, 541.1660134444932 294.20171032878386 M543.7100929654769 306.36622563403364 C545.7026483423211 299.22022356439385, 549.5324978616926 296.41952952557307, 553.5881754291008 290.10767164721415 M542.0690170835255 305.4638454444305 C547.806708478334 299.4923326005857, 550.5710372405189 294.71629993885307, 554.4333896353209 290.94467349415146 M545.8645348986208 310.6510586736233 C549.8381975125399 305.84025639172677, 556.3927257717557 301.1486913090851, 561.4343607723707 297.6717968573545 M546.76410927473 311.7866598747728 C550.0275621683849 306.7964159365143, 554.4712535201667 302.79128365129026, 559.4295068670216 296.4013023452415" stroke="none" stroke-width="1" fill="none"></path><path d="M554.8759030753648 290.0258098150167 C556.7631033838973 290.6663579593044, 557.5701186827271 293.62769327957056, 558.3062020236686 295.6342194176484 C559.04228536461 297.64074555572626, 559.7604057940034 300.03131574319536, 559.2924031210141 302.06496664348373 C558.8244004480248 304.0986175437721, 557.2243288484178 306.4994296480181, 555.4981859857324 307.8361248193784 C553.7720431230471 309.17281999073873, 551.1028628747861 309.97305879219346, 548.9355459449015 310.08513767164555 C546.7682290150169 310.19721655109765, 544.0613403655506 309.93337693206934, 542.4942844064248 308.50859809609113 C540.927228447299 307.08381926011293, 539.761858842845 303.9125825890493, 539.5332101901467 301.5364646557765 C539.3045615374485 299.16034672250373, 539.8637774745796 296.0709551599289, 541.1223924902357 294.2518904964544 C542.3810075058918 292.4328258329799, 544.785156796282 291.3059432882326, 547.0849002840833 290.62207667492953 C549.3846437718847 289.9382100616265, 553.377373725924 289.8220681566364, 554.9208534170442 290.1486908166359 C556.4643331081644 290.4753134766354, 556.2495482555133 292.2691835523839, 556.3457784308047 292.5818126349264 M554.0515416126339 289.9930899590577 C556.0094011037855 290.4182398187896, 557.5751902044327 291.0388182050433, 558.8111727789419 292.93824485069393 C560.0471553534511 294.83767149634457, 561.8911723240269 298.699797246937, 561.4674370596891 301.38964983296137 C561.0437017953514 304.0795024189857, 558.1586671126395 307.622274630721, 556.2687611929155 309.0773603668399 C554.3788552731914 310.53244610295883, 552.2641903947684 310.2546934501772, 550.1280015413454 310.12016424967504 C547.9918126879223 309.9856350491729, 545.0631310336605 309.32164663737194, 543.4516280723774 308.2701851638271 C541.8401251110943 307.2187236902822, 541.0637223147264 306.1519062204634, 540.4589837736463 303.81139540840604 C539.8542452325662 301.4708845963487, 538.9859946756703 296.4150714639936, 539.8231968258964 294.2271202914832 C540.6603989761225 292.0391691189727, 543.0954999404737 291.48115660968, 545.4821966750027 290.6836883733433 C547.8688934095317 289.88622013700655, 553.1054054443897 289.61410975523927, 554.1433772330702 289.4423108734629 C555.1813490217506 289.2705119916865, 552.1818330644358 289.64170899940837, 551.7100274070852 289.65289508268495" stroke="#000000" stroke-width="2" fill="none"></path></g><g><path d="M548.7468600950704 320.75520774142785 C552.1891968568569 330.27325241986875, 552.3030985801126 341.400082629808, 551.3810348229425 358.78310457434685 M550.7515225918709 322.45566107809066 C549.5363032050506 330.31592082354877, 549.8468385442367 338.5579373327461, 550.5008593941265 360.8482368072138" stroke="#000000" stroke-width="2" fill="none"></path></g><g><path d="M550.4049987031788 358.00815663641566 C547.6810536532323 367.81487110097396, 542.4648867731541 379.2533455632997, 536.6821023837072 388.4463710332794 M550.8540239468593 360.5135020557811 C544.1180474772399 372.5718045473607, 539.3568685551537 383.429809567758, 535.9723834396103 390.97964838181827" stroke="#000000" stroke-width="2" fill="none"></path></g><g><path d="M551.7526524311609 358.58742512529085 C552.7500569158224 364.95957428607795, 554.3281593365502 372.4320777571914, 564.9265640130737 390.4004345470812 M550.9727281885537 360.9086420131901 C553.6693137747338 365.3589011859705, 556.690862294078 371.8753259480681, 564.1436818796893 389.91035551797034" stroke="#000000" stroke-width="2" fill="none"></path></g><g><path d="M548.7654220184487 331.64555548281436 C540.8172742053586 324.32429758036636, 528.7259475806693 314.92023731448904, 520.7719307028605 310.3358159045415 M549.6487888382147 332.35320320838764 C541.8928530317733 325.66965410487785, 535.2584091523905 321.3532837627425, 520.6518733860894 309.85104501842113" stroke="#000000" stroke-width="2" fill="none"></path></g><g><path d="M550.7402315376511 331.18011016625354 C557.9407029886688 325.2303367031761, 563.6080681989092 322.4110265441587, 579.4166728440922 308.4340421726118 M549.6850417250915 332.4410229523476 C558.5146763719627 326.06228282151534, 568.3849006424306 319.51966147450105, 580.9021729714631 309.4046106006002" stroke="#000000" stroke-width="2" fill="none"></path></g><g><path d="M648.955438061049 189.0565351768271 C644.919418658732 210.28499695098807, 638.9551902241325 227.59091738078496, 635.4461290647416 249.8297721944188 M650.4760482993561 189.36723367918376 C645.4238041518208 209.92294780309877, 640.7952341667319 228.4366624700315, 634.4027313385577 250.4465560797865 M635.0830992893591 251.14001481431487 C645.8920708414719 250.77713745244137, 659.4717716813623 251.67092444239114, 663.5858238734153 249.73438884446912 M635.7893650744999 249.83760401329326 C646.8136759983408 249.6505854556686, 658.1300452477212 249.4122651436931, 664.6426793436681 250.6500481970772" stroke="#DAA520" stroke-width="2.2" fill="none"></path></g><g><path d="M638.4923717021419 248.4035316539944 C647.7627186811698 248.9408982883292, 653.7182453767858 248.388178013843, 658.4938819472565 251.16285023781802 M639.7422760032778 249.73427602735032 C644.6913209041327 250.4681910672434, 648.7647798921122 249.3962466804619, 659.215608842942 250.2129492332738 M659.9105752375 249.30600282238632 C660.5045853948538 260.2389428448231, 659.1935064886452 271.51922133705386, 659.1331668451179 280.2646661962807 M659.819289015706 250.00455236257258 C659.368164235557 257.7345449083795, 659.7839566658744 265.2724555215377, 659.7911099935883 280.4099172640109 M658.4662909774568 280.98649366852726 C656.6506940562654 278.79310845465614, 651.6450832009749 278.38361434228796, 640.6217687796476 278.5195046001052 M659.4213159171495 280.7626697584614 C652.6374941064165 279.78405347903566, 645.1898110998449 279.0935297648147, 640.4677006603972 280.49516220661855 M638.7514698291938 280.3451676794862 C640.3500754484262 274.7317586941871, 640.547440834433 266.1989500824343, 639.0866899413738 251.04814771826062 M640.3595995914205 279.8954341060931 C639.2115841879065 269.4082230306014, 639.559574659846 258.23389924896975, 639.4687135221471 249.8914209462511" stroke="#DAA520" stroke-width="1.8" fill="none"></path></g><g><path d="M641.1345930758081 281.89546931036443 C643.0224341228634 284.6186224778838, 643.9419535538706 287.68770402573523, 650.022596611197 301.6008553800344 M641.4170855379831 280.29222405664956 C644.9979801844758 285.77057654299216, 646.7202756862821 291.6317627709455, 650.2810836228801 299.3844963721751 M649.2359930674687 298.51529231728523 C653.5441441732753 294.57984183673886, 657.1200591660445 285.83186856771925, 656.8139679115917 281.56866572703444 M649.7508242596198 299.6485904641439 C652.0062580002427 293.1301613554828, 654.7531590489477 287.41317514323237, 657.4961147587381 280.1475375778659" stroke="#DAA520" stroke-width="1.6" fill="none"></path></g><text x="400" y="560" text-anchor="middle" font-family="sans-serif" font-size="16" fill="#222" font-style="italic">"The dream assembles itself from the things you were willing to do."</text></svg>