<?xml version="1.0" encoding="UTF-8"?>
<svg width="800" height="600" viewBox="0 0 800 600" xmlns="http://www.w3.org/2000/svg"><rect width="800" height="600" fill="#FFFFFF"></rect><g><path d="M118.24590296639838 229.43283771440994 C146.09929155270584 231.99689944466098, 170.6803972836905 230.8741847555789, 188.48001661796852 228.1439959977267 M120.87801359479147 229.10910684989565 C144.267878939347 229.33578071535462, 166.0240653967206 230.50638946725326, 189.5641953266361 229.04231081264112 M188.19040384084528 231.31351867099556 C189.45230687003217 239.68044837573623, 188.07065972449183 244.50428079925854, 189.4477192261229 266.8273578982343 M190.8431222591849 229.855002075727 C189.5826546151648 239.3296163264351, 189.72580948561182 249.28062467981405, 189.73567730765902 265.2926573490928 M189.68155220096725 265.42643247059976 C164.80213669888911 266.9055672067866, 137.19151192652205 263.2659578944023, 119.10788948123776 266.9741896273051 M190.65626891416196 265.2006761459519 C165.16844147986703 266.1447160429165, 140.1221802595388 265.9551376412867, 119.53893232792008 264.101557155253 M118.65688315625343 263.7729169629321 C118.88452145950023 251.6408742153117, 119.14503931012459 242.6073835098084, 118.86354383490655 230.10220855408994 M120.15822542088515 264.7211947088524 C119.78319143534948 252.29246457735695, 120.05238886563504 239.097297768743, 120.21194445164844 230.85382290703336" stroke="#4A90D9" stroke-width="2" fill="none"></path></g><g><path d="M132.05080524634656 265.84149496036696 C132.05080524634656 265.84149496036696, 132.05080524634656 265.84149496036696, 132.05080524634656 265.84149496036696 M132.05080524634656 265.84149496036696 C132.05080524634656 265.84149496036696, 132.05080524634656 265.84149496036696, 132.05080524634656 265.84149496036696 M133.82454999291332 271.61996301620945 C135.88935661903432 268.57856158892383, 137.4928326278592 267.7419940436235, 139.32388497456972 265.034157880336 M133.92985862880545 271.14511206955086 C134.75355071711226 269.9336323349712, 136.0533730446935 268.4933541264993, 139.15278942835997 265.4393876417129" stroke="none" stroke-width="0.6" fill="none"></path><path d="M133.93609142634807 263.6838289292093 C134.95919137230317 263.62631112666736, 136.67534601203184 263.74903387177454, 137.66832263530134 264.22678313131865 C138.66129925857084 264.70453239086277, 139.5483243341675 265.63758303097075, 139.8939511659651 266.55032448647387 C140.2395779977627 267.463065941977, 140.15139872998236 268.96385976099555, 139.7420836260869 269.7032318643372 C139.33276852219143 270.4426039676789, 138.44480851515948 270.61733499640087, 137.43806054259232 270.9865571065239 C136.43131257002517 271.3557792166469, 134.53127489853546 271.9727917443952, 133.7015957906839 271.91856452507545 C132.87191668283236 271.8643373057557, 132.85443259831607 271.4025592430982, 132.45998589548302 270.6611937906056 C132.06553919264996 269.91982833811295, 131.43170601571575 268.2407616971293, 131.33491557368563 267.4703718101198 C131.23812513165552 266.6999819231103, 131.1996936485648 266.65639726792864, 131.8792432433023 266.0388544685486 C132.55879283803984 265.4213116691686, 134.85512327272926 264.2011795649452, 135.41221314211077 263.7651150138396 C135.9693030114923 263.32905046273396, 135.18840269607523 263.37056920357395, 135.2217824595913 263.4224671619147 M135.90855360391257 264.0327006456007 C137.14058750574506 263.9412259217347, 137.77006820044463 263.48627500583655, 138.1562629565494 263.98967877201204 C138.54245771265417 264.49308253818754, 138.30612496839993 265.8751037823641, 138.22572214054114 267.0531232426537 C138.14531931268235 268.2311427029434, 138.00691082087334 270.12155413514733, 137.67384598939668 271.0577955337499 C137.34078115792002 271.9940369323525, 136.9650705398564 272.55725159354677, 136.22733315168117 272.67057163426944 C135.48959576350592 272.7838916749921, 133.89751402943295 272.1769112308698, 133.24742166034514 271.73771577808594 C132.59732929125732 271.2985203253021, 132.74372353011057 270.62043344646895, 132.32677893715427 270.03539891756634 C131.90983434419798 269.45036438866373, 130.94501465564352 269.19374872988794, 130.7457541026074 268.22750860467016 C130.5464935495713 267.2612684794524, 130.6747228718903 265.1539080515673, 131.1312156189376 264.23795816625983 C131.5877083659849 263.32200828095233, 133.00889956875676 262.74102687823176, 133.4847105848911 262.731809292825 C133.96052160102545 262.72259170741825, 133.8047978127965 263.7331540066078, 133.98608171574372 264.18265265381916" stroke="#4A90D9" stroke-width="1.2" fill="none"></path></g><g><path d="M172.31779316524842 265.06970270965667 C172.31779316524842 265.06970270965667, 172.31779316524842 265.06970270965667, 172.31779316524842 265.06970270965667 M172.31779316524842 265.06970270965667 C172.31779316524842 265.06970270965667, 172.31779316524842 265.06970270965667, 172.31779316524842 265.06970270965667 M171.67654612245718 273.6807247693698 C173.97049961454738 269.74148949770904, 177.60141189848426 266.6941507457079, 178.89628905235276 264.70489225609145 M171.8318931484166 272.62289932066267 C173.83191889792693 270.6894570635977, 175.40768882904476 269.6485683931504, 178.65367244494178 265.28383371785253" stroke="none" stroke-width="0.6" fill="none"></path><path d="M174.94088061645846 263.275824163987 C175.5472789044685 262.8852705600935, 175.56611794370812 263.51272442282686, 176.29817664690486 263.8887830723287 C177.0302353501016 264.2648417218305, 178.9569505481968 264.7625465864953, 179.3332328356389 265.5321760609978 C179.70951512308102 266.3018055355003, 179.01954289422238 267.3565749175003, 178.55587037155746 268.50655991934383 C178.09219784889254 269.65654492118733, 177.06558175216256 271.75493089470086, 176.5511976996494 272.43208607205867 C176.03681364713626 273.10924124941647, 176.2978523304698 272.6788664079212, 175.46956605647856 272.56949098349065 C174.64127978248732 272.4601155590601, 172.50465766072887 272.40651125455037, 171.58148005570203 271.77583352547526 C170.6583024506752 271.14515579640016, 169.83741567415922 269.8690229465792, 169.93050042631756 268.78542460904 C170.0235851784759 267.70182627150075, 171.3921457971948 266.0138683567526, 172.13998856865203 265.27424350023983 C172.88783134010927 264.5346186437271, 173.92362543785106 264.5471507338879, 174.41755705506105 264.3476754699634 C174.91148867227105 264.1482002060389, 175.18250051927643 264.3146466307364, 175.1035782719119 264.07739191669276 M174.31564385982284 263.9590769585793 C175.3296164808426 263.6086457634848, 176.1257382082013 263.23149976838096, 176.9415514838533 263.3809372731052 C177.75736475950526 263.5303747778294, 178.95040029149985 264.0877557393453, 179.21052351373464 264.8557019869247 C179.47064673596944 265.6236482345041, 178.91331548884017 266.7926661876189, 178.5022908172621 267.9886147585817 C178.09126614568402 269.1845633295445, 177.3737999048941 271.2667667280856, 176.7443754842662 272.0313934127015 C176.11495106363827 272.7960200973174, 175.63136470480597 272.52518921919784, 174.72574429349467 272.5763748662773 C173.82012388218337 272.6275605133568, 171.76932094287994 273.25592908052545, 171.31065301639842 272.3385072951785 C170.8519850899169 271.4210855098315, 171.99058254392315 268.4538180552431, 171.97373673460552 267.0718441541955 C171.9568909252879 265.6898702531479, 170.65344788139728 264.7673493596276, 171.20957816049267 264.0466638888926 C171.76570843958805 263.32597841815766, 174.95538445418347 262.98736062270973, 175.31051840917786 262.7477313297857 C175.66565236417225 262.5081020368617, 173.7660909284369 262.43459276633564, 173.34038189045904 262.6088881313487" stroke="#4A90D9" stroke-width="1.2" fill="none"></path></g><g><path d="M239.36766409675755 229.41717390169023 C255.53484048951952 231.01232328597717, 273.0888938814071 230.11823228003098, 310.8694983966389 229.55764533292344 M240.89323161090513 229.138611956906 C255.8161900138857 231.40394534657122, 269.50729467519614 230.2002586774432, 310.33258005514654 230.6704035759969 M309.00057637879706 229.15203910057602 C308.91586383136286 244.86482105058127, 309.7145659789702 259.45652187722226, 308.82675238009847 265.43892841909616 M310.02947157947244 229.147913118087 C309.54193098335367 242.4221834895811, 310.97745017907783 255.84567815309538, 310.85416753450016 265.00474619445185 M309.7053235707665 263.7044469045678 C289.1317503432582 264.79898134928743, 271.33037318457815 264.66582618042526, 240.63660061505564 265.20946165211 M309.3413655755174 265.6237774371548 C290.6373339759409 265.88815451074674, 272.5071753653352 264.2198871258543, 239.68243139475186 264.2300979116798 M240.60897960666975 266.8218077071257 C239.1380452521667 253.96908042820473, 238.3574372615744 244.95236479566896, 239.81093483460992 231.39661186786083 M239.85185234846975 265.2896491080805 C239.8155934446921 255.83275608050437, 239.66122550157394 246.05766962569524, 239.8216066007341 230.779214370937" stroke="#CC3333" stroke-width="2" fill="none"></path></g><g><path d="M250.68889887818506 265.6210028731166 C250.68889887818506 265.6210028731166, 250.68889887818506 265.6210028731166, 250.68889887818506 265.6210028731166 M250.68889887818506 265.6210028731166 C250.68889887818506 265.6210028731166, 250.68889887818506 265.6210028731166, 250.68889887818506 265.6210028731166 M254.37332716763822 269.25686830079877 C255.7434953658701 267.5307889103347, 257.75413748754073 265.00764795925267, 258.5101906471239 264.7448347252127 M253.69104416965388 269.3859408617425 C254.53410049931693 268.5026923315972, 255.53381251805493 267.4365009390793, 258.0777214859764 264.3796233041102 M256.47344183259366 273.52372988165007 C258.1101251167875 273.1473690907328, 258.056385715184 272.2867941657522, 260.6166026753748 269.4240799399956 M256.8074981747182 273.7366277355222 C257.95856314959553 272.21140599085965, 259.4574155124666 270.9129734701211, 260.07153037314134 270.13758533397873" stroke="none" stroke-width="0.6" fill="none"></path><path d="M253.08909035132228 263.60434462223486 C254.10657545963542 263.20151767016904, 256.0453902431881 263.022495409322, 257.16051250401586 263.3457970375212 C258.27563476484363 263.6690986657204, 259.3374154916422 264.5575022832685, 259.7798239162891 265.54415439142997 C260.222232340936 266.53080649959145, 259.9892959690261 268.24175120420836, 259.81496305189734 269.26570968649025 C259.64063013476857 270.28966816877215, 259.5703882198227 271.2165600218474, 258.73382641351645 271.6879052851213 C257.8972646072102 272.1592505483952, 255.78494672321776 272.18282104806036, 254.79559221406004 272.0937812661338 C253.80623770490232 272.0047414842073, 253.3741843966738 271.87014018665536, 252.79769935857007 271.15366659356204 C252.22121432046634 270.4371930004687, 251.65732256674488 268.7525117744671, 251.33668198543768 267.79493970757375 C251.01604140413048 266.8373676406804, 250.3977258882478 266.0050742941514, 250.8738558707269 265.40823419220186 C251.34998585320602 264.8113940902523, 253.62223791581755 264.56935030928224, 254.19346188031224 264.2138990958764 C254.76468584480693 263.85844788247056, 254.47274380771447 263.3530456666434, 254.301199657695 263.2755269117669 M254.26127871734658 263.0466244031944 C255.095427409372 262.87117809787924, 256.2262247826585 264.3212745706326, 257.1405184067277 264.8357687950301 C258.05481203079694 265.3502630194276, 259.1850407957762 265.6039165258043, 259.74704046176174 266.1335897495793 C260.30904012774727 266.6632629733543, 260.76853807144585 266.96987352554044, 260.51251640264087 268.01380813767986 C260.2564947338359 269.0577427498193, 259.0209710911212 271.4894717260099, 258.2109104489317 272.3971974224159 C257.4008498067422 273.3049231188219, 256.5296754431669 273.5647171504844, 255.65215254950368 273.46016231611566 C254.77462965584047 273.3556074817469, 253.86996739778942 272.62163244454155, 252.94577308695239 271.7698684162034 C252.02157877611535 270.91810438786524, 250.48091003757008 269.2932241566908, 250.1069866844815 268.34957814608686 C249.73306333139294 267.4059321354829, 250.02148341790377 266.92835533696984, 250.70223296842096 266.1079923525794 C251.38298251893815 265.28762936818896, 253.70792324319703 263.796692917204, 254.1914839875847 263.42740023974426 C254.67504473197235 263.05810756228453, 253.62353584804242 263.62116913694035, 253.60359743474692 263.89223628782094" stroke="#CC3333" stroke-width="1.2" fill="none"></path></g><g><path d="M290.40425428752263 265.6946967910426 C290.40425428752263 265.6946967910426, 290.40425428752263 265.6946967910426, 290.40425428752263 265.6946967910426 M290.40425428752263 265.6946967910426 C290.40425428752263 265.6946967910426, 290.40425428752263 265.6946967910426, 290.40425428752263 265.6946967910426 M292.0582069815917 270.38003681752457 C294.0416869753977 269.7273951764586, 295.5603944420572 268.33871854814157, 298.31009754549854 263.5469301123766 M292.6328093737152 270.8599357965425 C293.44064096187464 269.42936814467475, 295.0122273061085 267.79137028940863, 297.67793682196645 264.3999695166354" stroke="none" stroke-width="0.6" fill="none"></path><path d="M293.541490727496 264.27886037706276 C294.5642597891587 263.899299525235, 296.22450074127215 262.62690556592423, 297.0721055020107 263.0080330540117 C297.9197102627492 263.3891605420992, 298.3891247877492 265.4626512867569, 298.62711929192733 266.5656253055878 C298.86511379610545 267.66859932441866, 298.84743496973954 268.68335938493556, 298.50007252707957 269.62587716699716 C298.1527100844196 270.56839494905876, 297.2075738730145 271.8505505108617, 296.54294463596744 272.22073199795744 C295.8783153989204 272.5909134850532, 295.25524379906466 271.97068657124066, 294.51229710479737 271.84696608957165 C293.7693504105301 271.72324560790264, 292.74091640012387 272.02486021516535, 292.0852644703637 271.4784091079432 C291.42961254060356 270.93195800072107, 290.8212212266024 269.57515781563524, 290.57838552623633 268.5682594462388 C290.33554982587026 267.5613610768424, 290.10583177680644 266.1960402218449, 290.62825026816716 265.43701889156466 C291.1506687595279 264.6779975612844, 292.92319066525044 264.2756827474734, 293.7128964744008 264.0141314645576 C294.50260228355114 263.75258018164175, 295.0998666876833 263.76180168785885, 295.3664851230693 263.86771119406956 M294.9005542702631 263.46699997282707 C296.1184659307511 263.1318822714128, 297.0288781280716 263.57216904985233, 297.7802726901091 263.85779731892626 C298.5316672521466 264.1434255880002, 299.2368927189493 264.28178189386796, 299.40892164248817 265.1807695872705 C299.580950566027 266.07975728067305, 298.9028846176283 268.17570239744896, 298.81244623134216 269.2517234793415 C298.72200784505605 270.327744561234, 299.7223585854128 271.24077534557784, 298.8662913247714 271.6368960786256 C298.01022406413 272.0330168116734, 294.87423905606477 271.711416204725, 293.6760426674939 271.62844787762816 C292.47784627892304 271.5454795505313, 292.14027037470146 271.83695772392474, 291.6771129933462 271.1390861160443 C291.21395561199097 270.4412145081639, 290.95814274319497 268.3467092571422, 290.8970983793626 267.44121823034567 C290.83605401553024 266.53572720354913, 290.5600897162094 266.3174843038043, 291.31084681035213 265.7061399552652 C292.06160390449486 265.0947956067261, 294.9071040698595 264.09847990420224, 295.4016409442189 263.7731521391112 C295.89617781857834 263.4478243740201, 294.4126893878586 263.5888434204896, 294.2780680565088 263.7541733647188" stroke="#CC3333" stroke-width="1.2" fill="none"></path></g><g><path d="M201.97213046110812 217.972110205492 C201.97213046110812 217.972110205492, 201.97213046110812 217.972110205492, 201.97213046110812 217.972110205492 M201.97213046110812 217.972110205492 C201.97213046110812 217.972110205492, 201.97213046110812 217.972110205492, 201.97213046110812 217.972110205492 M202.81717406395535 225.28508959842094 C205.56845631639962 223.833604242507, 208.73557676287766 219.97024880452616, 211.76685644652673 215.07617732982365 M203.7694729247458 225.48762080063491 C206.9448702238183 221.48551545157463, 210.80527381396513 216.59129755636985, 212.93882804760673 214.074351145331 M209.90234125679217 227.28658749279856 C213.34691830295833 223.27667661317597, 214.75634480663317 220.16059088607878, 217.56163466889313 218.7204688497008 M210.4548171721721 226.2642436080112 C213.10332601121004 223.30841591399093, 216.3425305545318 219.73728970900723, 217.77857231382905 218.1483873227943" stroke="none" stroke-width="0.75" fill="none"></path><path d="M209.09055092139008 213.40166728672392 C210.49492682626055 213.30411223295636, 212.91097650840499 213.94872992974626, 214.4749780257851 214.8147829799222 C216.03897954316523 215.68083603009813, 218.13291182961405 217.15497161365215, 218.47456002567074 218.59798558777945 C218.81620822172744 220.04099956190674, 217.518652699151 222.09084410659332, 216.52486720212528 223.47286682468595 C215.53108170509955 224.85488954277858, 214.00721525427022 226.3941297572702, 212.5118470435164 226.89012189633527 C211.0164788327626 227.38611403540034, 209.20515957623576 226.99917520898785, 207.55265793760242 226.4488196590763 C205.90015629896908 225.89846410916473, 203.5072000696843 225.02346458564745, 202.59683721171635 223.58798859686587 C201.6864743537484 222.1525126080843, 201.70966797105626 219.23508811116238, 202.09048078979473 217.83596372638675 C202.4712936085332 216.43683934161112, 203.3950212526472 216.02036886336643, 204.88171412414704 215.193242288212 C206.36840699564686 214.36611571305755, 209.7044615882549 213.16363018511453, 211.01063801879374 212.8732042754601 C212.31681444933258 212.58277836580567, 212.67064752379875 213.39576359961148, 212.71877270738014 213.4506868302854 M209.85891143875926 212.3620077270176 C211.82247765332983 212.65327107235544, 215.43323416097192 214.53663747067645, 216.51436537070805 215.638609673058 C217.59549658044418 216.74058187543955, 216.5631522652126 217.68153383039188, 216.34569869717606 218.9738409413069 C216.12824512913951 220.2661480522219, 216.15692243912622 221.97556129552294, 215.2096439624887 223.39245233854805 C214.2623654858512 224.80934338157317, 212.19722252555775 226.71725888683858, 210.6620278373511 227.47518719945765 C209.12683314914446 228.23311551207672, 207.03049758407423 228.77330906056366, 205.99847583324885 227.94002221426243 C204.96645408242347 227.1067353679612, 205.24456961112335 223.93622556574533, 204.46989733239877 222.47546612165027 C203.6952250536742 221.0147066775552, 201.3636342873302 220.51923349764166, 201.35044216090137 219.175465549692 C201.33725003447253 217.83169760174235, 203.08418526936873 215.5596371714263, 204.39074457382583 214.4128584339524 C205.69730387828292 213.26607969647853, 208.03932750678786 212.55007388021258, 209.18979798764394 212.2947931248487 C210.34026846850003 212.0395123694848, 210.9670935544557 212.89150705106806, 211.29356745896237 212.8811739017691" stroke="#000000" stroke-width="1.5" fill="none"></path></g><g><path d="M474.5499842431431 232.3182406380253 C474.5499842431431 232.3182406380253, 474.5499842431431 232.3182406380253, 474.5499842431431 232.3182406380253 M474.5499842431431 232.3182406380253 C474.5499842431431 232.3182406380253, 474.5499842431431 232.3182406380253, 474.5499842431431 232.3182406380253 M475.24727056911587 239.81964741063933 C478.60887006990635 237.3813438062973, 481.0115407706611 233.63494086621066, 485.3949734642526 230.9585557645035 M474.83447107981675 241.3361089260598 C479.11583720340457 237.00426184487702, 481.6021540666411 232.71383230692376, 483.7285167841322 230.09703007590858 M480.391258603087 242.31247204118648 C482.1945554095125 241.50613470053392, 485.5292158799768 238.4488637042256, 487.6817375489266 235.78124235760163 M481.16515730396515 243.2183341296919 C482.55006524184495 241.53964632052327, 484.25394879986686 239.351378333373, 486.6281921009369 236.72315038957868" stroke="none" stroke-width="0.75" fill="none"></path><path d="M483.2172457999686 229.11650055967817 C484.6026351830693 229.5004361693487, 485.185149974442 230.11441210398092, 485.6738218906809 231.3288821426598 C486.1624938069198 232.5433521813387, 486.3646549407386 234.75680148839248, 486.149277297402 236.40332079175147 C485.93389965406544 238.04984009511045, 485.56058565705524 240.3457981627474, 484.38155603066144 241.20799796281378 C483.20252640426764 242.07019776288016, 480.67763663199366 241.6653920688084, 479.0750995390391 241.57651959214968 C477.47256244608457 241.48764711549097, 475.87710153705194 241.53330422232554, 474.7663334729342 240.67476310286148 C473.65556540881647 239.8162219833974, 472.44064109268515 237.82482330275755, 472.4104911543328 236.42527287536532 C472.3803412159805 235.0257224479731, 473.57248469773316 233.64469434495538, 474.5854338428202 232.27746053850814 C475.5983829879072 230.9102267320609, 476.9018532953958 228.634458453657, 478.48818602485505 228.22187003668188 C480.0745187543143 227.80928161970675, 482.9963069072805 229.42051497951206, 484.10343021957544 229.80193003665738 C485.2105535318704 230.1833450938027, 485.1122262819896 230.52177956404714, 485.1309258986248 230.51036037955384 M481.85152353518436 228.81132959400182 C483.3543615266906 228.81794208870366, 483.04248655497577 229.50532463215777, 484.0585364925799 230.41416047390052 C485.074586430184 231.32299631564328, 487.6753281076948 232.88706252336948, 487.9478231608091 234.26434464445833 C488.2203182139234 235.6416267655472, 486.87791743161796 237.6868955336596, 485.6935068112658 238.67785320043365 C484.5090961909137 239.6688108672077, 482.18481314698533 239.76599154421834, 480.8413594386964 240.21009064510258 C479.4979057304074 240.65418974598683, 478.7159553896961 241.9123801894764, 477.63278456153216 241.34244780573908 C476.54961373336823 240.77251542200176, 475.1706420172226 238.0063706262834, 474.34233446971297 236.79049634267858 C473.51402692220336 235.57462205907376, 472.17069416442587 235.33050968842335, 472.6629392764744 234.04720210411008 C473.1551843885229 232.76389451979682, 475.7514474094682 230.177814883755, 477.2958051420042 229.09065083679894 C478.8401628745402 228.0034867898429, 481.2630723906397 227.67615668085188, 481.9290856716905 227.52421782237377 C482.59509895274124 227.37227896389567, 481.76468997893693 227.95710034960834, 481.29188482830875 228.17901768593035" stroke="#000000" stroke-width="1.5" fill="none"></path></g><g><path d="M481.14982321890284 249.7642222658779 C482.05537369528236 256.5303843803582, 479.1701177015542 268.0033802189627, 478.4234229353215 281.780126851959 M480.860455572461 248.82755230955814 C479.2476099408011 260.9933049682549, 479.86576731405427 272.0394009704249, 479.80353471702676 280.6470612144475" stroke="#000000" stroke-width="1.5" fill="none"></path></g><g><path d="M504.4258626692415 207.93845178718774 C504.4258626692415 207.93845178718774, 504.4258626692415 207.93845178718774, 504.4258626692415 207.93845178718774 M504.4258626692415 207.93845178718774 C504.4258626692415 207.93845178718774, 504.4258626692415 207.93845178718774, 504.4258626692415 207.93845178718774 M503.9638229833442 214.1651362310004 C505.6689879765248 210.23180758082734, 509.5161949348014 209.73600888076408, 512.144195031603 204.3438873467172 M505.0131114205467 213.8287663501579 C507.16533044339684 211.64702385313768, 508.46191983627415 208.3831004070346, 512.3190728762696 204.2291723715698 M509.1413604094914 216.57983178630366 C510.44029931010783 212.25152810448537, 513.7036166833451 208.76297422086614, 515.3016138130605 205.40478432143064 M508.1972471188831 215.34302033182158 C510.83277254167933 213.42014962563826, 511.8651499381956 211.53006459466326, 516.0472351323015 206.653015514147" stroke="none" stroke-width="0.5" fill="none"></path><path d="M510.6358041884678 203.64803473778704 C511.9253065386257 203.818608055338, 514.8866513057006 204.74267262720946, 515.6137050801002 205.87622283264068 C516.3407588544998 207.0097730380719, 515.169623221518 209.1286406621308, 514.9981268348649 210.44933597037428 C514.8266304482119 211.77003127861775, 515.3664174128824 212.85866708799927, 514.5847267601815 213.80039468210148 C513.8030361074807 214.7421222762037, 511.74538512084183 215.85274699542953, 510.30798291866006 216.0997015349875 C508.8705807164783 216.34665607454548, 507.0153061901348 215.97799396321128, 505.96031354709095 215.2821219194493 C504.9053209040471 214.58624987568734, 504.2088872804109 213.17703729292282, 503.97802706039687 211.92446927241573 C503.7471668403828 210.67190125190865, 503.89435876158166 209.05996285688815, 504.5751522270067 207.76671379640672 C505.25594569243174 206.4734647359253, 506.68666168915667 204.68549399210582, 508.062787852947 204.1649749095271 C509.43891401673733 203.6444558269484, 511.8234413278873 204.56997470869703, 512.8319092097486 204.64359930093434 C513.8403770916099 204.71722389317165, 514.1665000601241 204.50140371676474, 514.1135951441146 204.60672246295096 M510.58478766487445 203.7580162926557 C511.8383394788383 203.77951892227236, 514.41424852961 205.85138454828794, 515.5332941017534 206.73768551514408 C516.6523396738969 207.62398648200022, 517.2199702413841 207.79717024161107, 517.2990610977354 209.07582209379248 C517.3781519540867 210.3544739459739, 517.1028332007829 213.09149884041733, 516.0078392398611 214.40959662823246 C514.9128452789394 215.7276944160476, 512.1731381894164 216.82373653543885, 510.72909733220433 216.98440882068323 C509.2850564749923 217.1450811059276, 508.1585504505272 216.04279055334146, 507.34359409658913 215.3736303396987 C506.5286377426511 214.70447012605595, 506.55693175738355 214.22448888291046, 505.8393592085759 212.96944753882676 C505.12178665976825 211.71440619474305, 502.8925494769318 209.11044132222588, 503.0381588037433 207.84338227519652 C503.18376813055477 206.57632322816715, 505.27821449557183 206.13124346516094, 506.71301516944504 205.36709325665055 C508.14781584331826 204.60294304814016, 511.1294544644804 203.40030049313842, 511.6469628469825 203.2584810241342 C512.1644712294847 203.11666155512998, 509.8269498869621 204.21560049647775, 509.8180654644578 204.51617644262524" stroke="#000000" stroke-width="1" fill="none"></path></g><g><path d="M351.94398667467834 198.349343351304 C351.49313356113663 226.5309814008756, 348.774593100948 255.70423588287917, 349.8789241527846 300.1525686621117 M349.1126083821203 200.7943595205079 C348.6144850600857 227.7378536779632, 348.90631373377596 255.20340329498367, 350.84808528838204 300.3147130803062" stroke="#000000" stroke-width="1.5" fill="none"></path></g><g><path d="M345.0202775774496 289.13319232524503 C346.0581378863785 291.8133373880166, 348.1677907811377 294.32059590282637, 349.1959034925775 299.24541588437086 M345.5113591934787 289.47672576666304 C345.76028001666293 292.85090290770546, 346.9630315587448 294.9465194472051, 350.2333180857761 300.5075384416119" stroke="#000000" stroke-width="1.2" fill="none"></path></g><g><path d="M354.01164594548686 290.8415960587091 C354.4826180639405 292.66236578214114, 353.627336463146 295.62110973314583, 348.96784083164016 299.48257437907955 M354.64595770066865 290.07046135075984 C352.7795375759518 293.3396436413511, 351.37650525673166 296.9485396352308, 350.03305265184434 299.90628009313383" stroke="#000000" stroke-width="1.2" fill="none"></path></g><g><path d="M119.14241683504979 248.50431911846596 C104.97280886944124 250.66162089845977, 90.59658643764399 249.75290010060786, 80.95292034195006 251.77294943951037 M119.73380073564475 249.6197702612671 C107.80860975810415 249.14029890630837, 95.2748031498442 250.73998087603016, 79.50404752126278 249.6230633442181" stroke="#4A90D9" stroke-width="1.5" fill="none"></path></g><g><path d="M90.18014343580512 245.54230361361837 C85.94757884169726 247.87192062332096, 81.52433303655715 249.0975504804997, 80.13690661954725 249.13722960194357 M90.37490776256196 244.67236872143297 C87.34076529557689 246.5956048559836, 84.81238299237909 248.46451043286814, 79.56038590284717 249.59667941233303" stroke="#4A90D9" stroke-width="1.2" fill="none"></path></g><g><path d="M90.01268384740906 255.0433250828147 C87.059207794064 252.901912369985, 82.82439253270907 250.79767132118522, 80.72801289036245 249.6765359027326 M89.8335569185439 254.95110329413944 C86.02626133854054 253.01320536600238, 83.17691468794487 251.08049075648745, 80.28238452826285 250.50827587952978" stroke="#4A90D9" stroke-width="1.2" fill="none"></path></g><g><path d="M399.52941806731167 332.7520737600327 C400.9109222279959 333.42671997762477, 402.85574712757216 336.8379981657556, 404.2823458891142 339.94306393910676 M399.6634419740639 332.38191175636814 C401.147528017263 333.77956870827916, 401.9452610809523 335.7653517384465, 404.1633759790923 340.0035637309128" stroke="#4A90D9" stroke-width="1" fill="none"></path></g><g><path d="M404.4095059135116 340.0398197941657 C404.5768645612292 338.67384170514265, 406.7901439895391 336.79078564453533, 408.7005295115445 331.5398615325194 M404.15124212411973 340.1066730438702 C405.47779718856106 336.8192339948296, 406.5637383107695 334.49217360222616, 407.7370993746025 331.562702901233" stroke="#4A90D9" stroke-width="1" fill="none"></path></g><g><path d="M407.30467850167 331.4768167739188 C405.1606437097013 333.79807216701835, 403.9114968717845 334.72588381165747, 400.7443193933214 336.73894984028624 M408.3257294721334 332.13449490970294 C406.53762130858576 333.0064971102645, 404.0957809578456 334.0170384809627, 399.61695307966994 337.29520893022277" stroke="#4A90D9" stroke-width="1" fill="none"></path></g><g><path d="M400.3865126902111 337.3214413342741 C401.59182315510446 336.8712931198157, 404.38634172959496 336.4953816641634, 408.5481086954691 337.7614827684107 M400.33851901159034 336.95428220058636 C402.6001570227636 337.21843999893235, 405.4651761761586 336.8931948254329, 407.8079517698076 337.002279608708" stroke="#4A90D9" stroke-width="1" fill="none"></path></g><g><path d="M425.87159397451495 331.7071770347348 C426.72549727129325 333.31446972958486, 426.10735696948353 336.666490752261, 428.1958275246113 340.5719337082237 M425.2569174371486 332.25990024790775 C426.919830260218 335.07057859652065, 427.5730217749613 338.3078374347723, 428.93410852555826 339.94626658673496" stroke="#4A90D9" stroke-width="1" fill="none"></path></g><g><path d="M428.98233666533946 340.2215730721905 C429.1711972344241 338.645054249543, 430.36577618366596 335.6567988708004, 433.22061687795457 331.2094520283028 M428.5785913830332 339.5635975601668 C430.4665767457325 337.12933340473035, 431.23870841957813 335.1586826728361, 432.9459627837386 332.29317436384736" stroke="#4A90D9" stroke-width="1" fill="none"></path></g><g><path d="M433.212451131748 331.86226200956946 C431.1918205649155 332.9777246496843, 428.12063357607366 334.2454448225422, 424.09289031684267 337.4113135995645 M432.77280513611834 332.4232175548205 C430.6312991172596 333.604516824294, 428.11305353866317 334.5293147079259, 424.959945803483 337.05411728094964" stroke="#4A90D9" stroke-width="1" fill="none"></path></g><g><path d="M425.6553608819782 336.9075303977293 C427.47348699089645 336.7669328269564, 429.00168388148603 337.4756796152018, 432.6087037974703 336.2363482348865 M425.09241413837833 336.6988439346573 C427.09735604058994 337.251120302056, 428.7232658189941 336.7805810313472, 433.0162187748581 337.19360165777414" stroke="#4A90D9" stroke-width="1" fill="none"></path></g><g><path d="M449.5178836643755 332.63627478327976 C451.27684597281547 334.018396637466, 451.5102069419802 335.741033077314, 453.7159620919373 340.17595634961265 M450.1978628147351 331.91562886194134 C451.29565755341616 334.2805279176176, 452.57823027739704 337.027263812144, 453.6076326508172 339.9512387110668" stroke="#4A90D9" stroke-width="1" fill="none"></path></g><g><path d="M454.5120893144883 339.2104293356391 C455.37394390325574 338.2338339716724, 457.22386496444113 336.1744994260304, 457.9537500188786 331.9126625622716 M453.6643209051519 339.7972267155573 C454.56015934246955 337.8513082813285, 456.0076364165445 335.6242796847697, 457.8109037674787 331.7467899237168" stroke="#4A90D9" stroke-width="1" fill="none"></path></g><g><path d="M458.38934893968644 331.45958981674653 C454.92587845556307 332.3906638433457, 453.91813050927755 335.17934634333335, 449.15202161457404 337.6338364878293 M457.80743207461586 332.2378834348947 C455.97295770589164 333.5395405795009, 454.3242373696368 334.23614265554005, 450.09657597875673 336.53308822617333" stroke="#4A90D9" stroke-width="1" fill="none"></path></g><g><path d="M450.56402830583346 336.2262286349548 C453.0542619753732 337.61696777877944, 455.73175176462814 336.74197510404275, 458.57914055105107 337.60578443481813 M450.30519637870384 337.29648681312193 C451.91267737127225 337.3422183046582, 454.63298605633054 337.1309391955519, 458.2829358210725 337.0750930152108" stroke="#4A90D9" stroke-width="1" fill="none"></path></g><g><path d="M475.23655787782525 331.4541865233082 C476.90426932121153 334.78596240152245, 476.8606625244233 336.7314423945197, 479.87546589760194 340.4041987566288 M475.2040224315111 332.21665906444986 C475.8723383084399 333.6088407135031, 476.9563469885623 335.4205638616127, 478.9357146039023 340.16612619691006" stroke="#4A90D9" stroke-width="1" fill="none"></path></g><g><path d="M478.7729002827204 339.50010163626587 C480.4864041556393 338.63982278158085, 480.01553005541365 336.84393502606764, 482.2294902164625 331.3163900444038 M478.5969890825323 339.6073756249919 C479.92597427321374 338.5958498628383, 480.4712001521424 335.9591931515827, 482.95356743941414 332.24784008910706" stroke="#4A90D9" stroke-width="1" fill="none"></path></g><g><path d="M483.5660095337212 331.2662535881918 C480.6924635923121 333.1612076381863, 480.11606988372904 334.6869592412319, 474.6874631087226 337.0058333239093 M482.94828778362626 331.7222687029109 C479.80683125973667 333.4731145952576, 477.30869525198676 335.79617556565677, 475.1041839034245 336.6959703493215" stroke="#4A90D9" stroke-width="1" fill="none"></path></g><g><path d="M475.25626482822526 337.39399511888035 C476.76001655638737 337.5280825533576, 479.0076322861119 336.64804817940825, 482.4458215811903 337.36784241194835 M474.8317748693144 336.8746802287573 C477.996033672166 337.31346582800563, 481.44023805642877 336.9387975293087, 483.3692573175258 336.7010079849632" stroke="#4A90D9" stroke-width="1" fill="none"></path></g><g><path d="M500.02238002459944 332.31046685149073 C500.58854666020443 334.96428792962706, 502.4361881215763 337.47986740393964, 504.70315698632254 339.38309966590674 M499.7123708634571 332.41694100021715 C500.95273062938304 334.636361936784, 502.89510029372957 337.4330698076399, 503.85982538043044 339.77931924220513" stroke="#4A90D9" stroke-width="1" fill="none"></path></g><g><path d="M503.67771746653307 339.65609814823307 C504.5898028052736 338.3040232061608, 506.11785637590737 336.67518496107454, 507.83249224799505 331.4631229397895 M504.17877905420136 340.32082470116177 C505.70031804846553 337.1601470023636, 506.19697656075925 334.8014643700008, 508.0075823930473 332.3373157314437" stroke="#4A90D9" stroke-width="1" fill="none"></path></g><g><path d="M507.51029916733415 331.77154490376256 C506.4432966776583 332.1931385456249, 504.20159059358053 333.5923657577402, 499.1135649681382 337.9375687221423 M507.6254060121143 332.3416729257537 C504.85957380963805 334.32535575788097, 501.44437701511316 335.50011783652076, 500.13289132049636 336.97226273274146" stroke="#4A90D9" stroke-width="1" fill="none"></path></g><g><path d="M500.0823552191731 337.3476760927439 C502.3900438289483 336.479279383848, 504.9530142163196 337.6974843179623, 507.5478582520342 337.33174962628505 M499.68529235194507 337.28336275875574 C501.7148339773383 336.8796792110036, 503.5681422485639 336.8701596272841, 507.8697399307814 337.04693846746653" stroke="#4A90D9" stroke-width="1" fill="none"></path></g><text x="400" y="560" text-anchor="middle" font-family="sans-serif" font-size="16" fill="#222" font-style="italic">The market can't distinguish quality from junk — so it prices everything as junk.</text></svg>