<?xml version="1.0" encoding="UTF-8"?>
<svg width="800" height="600" viewBox="0 0 800 600" xmlns="http://www.w3.org/2000/svg"><rect width="800" height="600" fill="#FFFFFF"></rect><g><path d="M149.48055234155075 249.97918426330403 C169.3660135089639 248.37444159622467, 186.6526957754345 251.27585683359808, 208.42419886289517 249.43814284459276 M149.22265951031525 249.26405276239294 C165.2292068752371 250.70840624610116, 181.49315692836237 249.66976808389902, 209.44322444653204 250.836896164372 M209.4505110444393 250.0063513494157 C208.6605418917808 268.86919236094326, 210.22253456172564 285.0892160897061, 208.2256729712802 331.0072298569407 M210.44282757849754 250.26925611209572 C210.47131034103452 276.52736681813894, 211.35258020663827 304.00765211266435, 209.18756723898497 330.1332527622594 M209.4772770586509 329.3838264139496 C192.04305053064098 330.81677738427004, 177.8555381789194 329.10179488467435, 148.02042958667988 329.5253950577182 M209.78023280175614 329.95768079866826 C189.83878308622536 329.8084290414511, 171.71208734779134 329.81042698291236, 149.96197551397083 330.4719493927498 M148.47745825314146 330.9539612499319 C150.28734164698184 307.11358152969666, 150.14361747422785 286.581037771241, 151.91439769098227 251.29135831479488 M149.1279704766286 329.2294774421692 C149.87764826814808 311.6497103539344, 151.18451437788178 291.29948571538273, 150.70908894798637 249.9405408375367" stroke="undefined" stroke-width="2" fill="none"></path></g><g><path d="M179.34394532568558 240.75890790471016 C179.11681150114327 222.24918139058215, 180.25632808765707 204.91653979089264, 180.011153280974 190.47201673730774 M179.74692379788627 240.49845801748137 C179.90660794399054 220.60321579939205, 180.57621697197064 200.50971284280297, 180.4334636206402 190.38289421103812" stroke="undefined" stroke-width="3" fill="none"></path></g><g><path d="M172.46783214587688 198.78851743872573 C175.5488860220632 196.4416738385625, 178.21549520773385 193.57219192059478, 180.3594174769887 190.62579424172623 M171.65516068765172 199.79994116665648 C174.94990581217496 196.13306181003392, 178.26390075512242 192.56162777168313, 180.09592434039357 190.5848894038327" stroke="undefined" stroke-width="2" fill="none"></path></g><g><path d="M187.10437842365664 201.00322093212066 C186.33383503947323 196.38445933893973, 183.61856983583803 194.52596329516803, 180.8568608871357 190.33873655983012 M187.72205621028812 199.50003605524878 C184.8857335379325 196.35537834564812, 182.61023096363542 192.04907551470123, 180.39568193392822 190.40923939384874" stroke="undefined" stroke-width="2" fill="none"></path></g><g><path d="M161.56118793151896 336.68523744618574 C167.31939923874958 336.16395807793884, 175.52033301140085 334.9954568594621, 200.54466232482983 335.4368736747672 M160.58439283371683 335.6813364974288 C169.40597142958845 334.8593671687737, 179.54763676152498 334.83862206867786, 200.47324188436457 334.58872942097224 M198.3703796288025 334.36931814540844 C198.11413777608396 344.367995940518, 198.46508688325807 349.6755975602811, 198.27130022414346 354.50470996216876 M199.7085433962935 335.1789164544816 C199.26641513567705 341.6443558731516, 200.0166916260399 348.21929151276584, 199.97637363087927 355.07931703582034 M201.17966523440907 354.02399696452903 C187.34151234844595 354.163363654464, 179.4881506983849 353.9012948260106, 159.28337673866375 356.4689323553296 M200.55077305073337 354.29259791016375 C186.66974485456953 353.9997356174303, 175.2891138758383 354.74502875973656, 159.38717548010163 355.9292259948491 M159.18593945873786 354.17219454463446 C158.34199903082552 350.0745482609494, 159.14726718963917 345.9319628350881, 160.10376636546968 334.99416903262255 M159.90579210641394 354.6023916085255 C160.14049628299148 348.0438783472038, 159.06610914592292 342.84614831320397, 159.55427591615558 334.34894530448787" stroke="undefined" stroke-width="1.2" fill="none"></path></g><g><path d="M491.99978744205777 249.86926913326127 C505.2646086636055 252.29245572340608, 518.9054184054958 248.7026963644781, 550.5829200166069 249.93010324090216 M490.46897428522203 250.8293036738101 C506.47355058875934 249.68048668773568, 525.3721009099879 251.4068945114375, 550.3089145161283 249.84050644995236 M549.3281094824944 249.33726025511987 C551.0018382275575 265.93384259268436, 548.3203760213584 283.4416212883082, 551.3429065460538 328.68829723984794 M549.7186441625716 250.94448323599718 C550.3499525513187 267.1995335695348, 550.7120668707161 284.8174513488861, 550.9026089518856 330.63645507651387 M548.3491438373255 328.0324011959484 C528.9140581820529 329.7411958504085, 503.6665398893167 332.3914861744735, 491.29385850477246 329.3116409791314 M549.9329461803543 329.1148615975689 C531.7215183439246 329.6701117138536, 515.4136579424332 330.80481466728617, 490.2042249792471 329.74692807992324 M488.20483912997406 328.1879236674463 C491.1249797164149 304.43946646089006, 488.9929300036466 281.6521702533719, 490.6082948470281 250.96807353507904 M490.81763932041576 329.416716759052 C490.36181200520014 305.98090176433107, 491.2753284943816 282.47243229960696, 490.80444290496433 249.30955980119333" stroke="undefined" stroke-width="2" fill="none"></path></g><g><path d="M519.112606240901 240.05356840110971 C519.747328833357 223.69959129422767, 520.3968557455673 208.67208783291218, 519.9338932684416 190.76920229535747 M520.0447511790405 239.98000728029368 C520.0536983062049 227.25245381558173, 519.9886028406268 213.16711455173527, 520.0393338129991 190.30970709447269" stroke="undefined" stroke-width="3" fill="none"></path></g><g><path d="M510.84200987366177 199.76533040869333 C513.6336717844717 195.37461404079815, 516.8704435848977 194.38216954397015, 520.8869516087246 190.08226934018853 M512.0872880212554 200.14272407393636 C515.7352317525791 196.25954027660944, 518.2949424098932 192.19519672355543, 520.0061349608404 189.77253437737838" stroke="undefined" stroke-width="2" fill="none"></path></g><g><path d="M527.3250716032076 199.3938768189983 C526.9681199734418 197.887322106525, 523.7574813840642 195.19332183708167, 520.2727418199277 191.0616960685484 M527.8556590068587 199.71636177992673 C524.6927804666302 196.88344196374248, 522.1778790833117 192.04812753652828, 520.4489967834514 189.40205981196425" stroke="undefined" stroke-width="2" fill="none"></path></g><g><path d="M498.68290752525354 334.1917131452991 C514.3997089453704 333.3173942083829, 528.8701278670472 334.9591496754516, 539.4033029419883 334.4872467409408 M500.5973686595273 335.3708712169017 C516.2313044294059 334.24057601744124, 530.6912754608483 335.99122472762485, 539.8503385788239 335.13642689738737 M540.8502121462215 335.4524936685721 C538.3856883791672 341.6964333031136, 538.4583297670462 349.0443118292894, 539.5336721840276 356.5684689239547 M539.3605637897482 334.7006296792949 C540.4926757763074 340.8846523740867, 540.4882485617959 346.24925974019317, 540.2188140954927 355.07959703365594 M540.5469143945626 356.7688134728926 C524.1331749130829 357.2951736085604, 507.5130596891805 357.3511960459337, 500.2290972890719 353.4581067920507 M539.9909567196253 354.45918912985775 C530.1782616002444 355.771398177667, 518.6362802134187 355.1306611272238, 499.14002438664795 355.1468567913681 M500.04020048240363 353.66593840081634 C499.19958169466474 352.2378411079414, 500.19084184855654 346.45448409966275, 498.31212854682195 333.337909408107 M499.0984105346414 355.1521948329577 C499.8272828135584 349.33445092654995, 499.1516557343265 344.8119739749294, 500.392115598634 335.41691309855696" stroke="undefined" stroke-width="1.2" fill="none"></path></g><g><path d="M347.63200818619765 161.7710648862249 C352.7906853549948 222.86909215472886, 347.9191912672538 285.050775735217, 352.34708679751964 380.91624020582617 M350.46198532211065 160.60557304519133 C348.33959312152393 216.84541222675435, 350.40226984388926 273.6912997615945, 348.4719414169572 379.88777501419247" stroke="#000000" stroke-width="0.8" fill="none"></path></g><g><path d="M219.7173622423239 220.3346008894334 C280.0100923376266 220.23563152060686, 341.68197520201727 220.93466029569987, 479.7189540069933 219.4984765858394 M220.3105486349296 219.7622499382866 C305.09387651494603 219.5088197387661, 390.4644624406291 219.29656992036195, 480.03742170234375 220.25472475334527" stroke="undefined" stroke-width="1.2" fill="none"></path></g><g><path d="M479.440498437561 229.6876015526227 C399.41142695128593 229.64777128784033, 319.5770760625711 229.92300045710954, 220.17376841365018 229.87024088390436 M479.8588967440803 230.09842440900974 C407.5593027207009 230.7196553951291, 335.49046204781564 230.4945667079983, 219.83299260164452 230.23003079783567" stroke="undefined" stroke-width="1.2" fill="none"></path></g><g><path d="M209.7661231677291 350.2096630528832 C282.85411834589604 349.72623640991225, 354.96495739580456 349.7460998300737, 489.64737920142215 350.113561522524 M209.9128554218678 349.98135945282775 C272.877147095438 350.33672693281085, 335.3696331208367 350.2761568457107, 489.7901069392059 349.8285394833087" stroke="#000000" stroke-width="1" fill="none"></path></g><g><path d="M345.87076657620037 348.36133814358004 C345.87076657620037 348.36133814358004, 345.87076657620037 348.36133814358004, 345.87076657620037 348.36133814358004 M345.87076657620037 348.36133814358004 C345.87076657620037 348.36133814358004, 345.87076657620037 348.36133814358004, 345.87076657620037 348.36133814358004 M347.7385615922564 353.79089623253157 C349.0509881000928 349.9501716254856, 351.71538514303927 347.31183305813914, 351.9673628671691 345.9951769982572 M346.6115698054662 353.25993275501736 C348.8356912265553 350.3886277403926, 351.6918654546601 347.9854596903804, 352.7575542805015 346.1260904432943 M352.0975215757528 353.5733624631221 C352.6401624012404 352.6338539284516, 353.0943805262662 352.1592464803833, 353.81147365268527 351.6072956003754 M351.8531841060243 353.7280093119068 C352.33989029912226 353.06651416023857, 352.8172620221987 352.571814306323, 353.870760000988 351.4643238162717" stroke="none" stroke-width="0.5" fill="none"></path><path d="M348.72604638832655 346.05156087066325 C349.683371645837 345.4410024572621, 350.8947219698955 345.10774188260507, 351.7476833097383 345.43999586837043 C352.6006446495811 345.7722498541358, 353.5794562478901 347.06655096717725, 353.8438144273834 348.04508478525526 C354.1081726068767 349.02361860333326, 353.50099446906216 350.4215653384081, 353.3338323866982 351.3111987768383 C353.1666703043342 352.2008322152685, 353.5482946919653 353.09841472674384, 352.84084193319944 353.3828854158367 C352.1333891744336 353.6673561049296, 350.1280547681716 353.021530132833, 349.08911583410327 353.01802291139563 C348.05017690003496 353.0145156899583, 347.15717913290655 353.90673164777877, 346.6072083287897 353.3618420872126 C346.0572375246728 352.81695252664645, 345.9245884317045 350.5676575460648, 345.7892910094019 349.7486855479985 C345.6539935870993 348.92971354993216, 345.10059766435427 349.19398108509756, 345.79542379497434 348.44801009881456 C346.4902499255944 347.70203911253157, 349.2001883557051 345.4871092160673, 349.9582477931225 345.27285963030045 C350.7163072305399 345.05861004453357, 350.55283110827384 346.88567294772184, 350.3437804194785 347.16251258421335 M353.24382292421967 346.69645492724595 C353.8894504195483 346.6502625547514, 354.24922085873976 346.78618925312935, 354.41775996486376 347.429220157081 C354.58629907098776 348.0722510610326, 354.5800606363066 349.44596091451086, 354.2550575609638 350.5546403509557 C353.930054485621 351.66331978740055, 353.05060951155855 353.612902260482, 352.4677415128068 354.08129677575 C351.8848735140551 354.549691291018, 351.83990689915464 353.6403738829295, 350.75784956845325 353.365007442564 C349.67579223775186 353.08964100219845, 347.0211778026332 352.83806369627075, 345.9753975285984 352.42909813355686 C344.92961725456365 352.020132570843, 344.1600151792144 351.6905363434364, 344.4831679242446 350.91121406628054 C344.8063206692748 350.13189178912467, 347.3605146852725 348.49926399192856, 347.9143139987795 347.75316447062147 C348.4681133122865 347.0070649493144, 347.15135330627936 346.72118128847234, 347.80596380528664 346.4346169384381 C348.4605743042939 346.1480525884039, 351.33020192003204 345.8267997799919, 351.841976992823 346.0337783704162 C352.35375206561395 346.2407569608405, 350.8460081094019 347.64554622285965, 350.87661424203225 347.676488480984" stroke="#000000" stroke-width="1" fill="none"></path></g><g><path d="M279.8521242873914 139.51749273600166 C312.99437821289104 140.87315985561904, 346.26778447873073 140.82760494348844, 420.1971782993496 139.65536709897148 M279.9114003270016 140.00218790552967 C334.04642335677346 139.97802504681, 388.0659030182047 139.89965227083954, 420.20434510329886 140.21258092680742 M420.32431284445784 139.9614834078146 C419.5960698530482 159.50380289759252, 420.55110866679036 179.89862414190088, 419.9705630134527 210.23686578431233 M419.8651572226387 140.0295829347644 C419.9095272678534 158.42382132754602, 419.7736729330042 177.2828954964609, 419.7537760381319 210.20268004944435 M420.12386189664693 209.75520786023856 C371.8246111092489 210.51850790818906, 324.0655146757895 209.79313314763755, 279.4413274756075 210.06888401026822 M420.19730077939914 210.1690576617036 C375.81325476229364 210.14423901793194, 331.8048853007692 210.2753623759546, 279.8700246709947 209.92404843589813 M279.6442154788986 210.38805415220628 C279.5928537904209 194.81849810361217, 279.8913347529853 179.74482409908825, 280.3674021541257 139.56804159516122 M279.91539014344994 210.16841977459114 C279.9550922674757 195.12252413599666, 280.0924782741027 180.8318029735727, 279.77819603187623 140.03682538205877" stroke="#000000" stroke-width="0.6" fill="none"></path></g><g><path d="M348.1157671779488 141.86095199542743 C348.3150024274933 156.54850041504963, 351.3375890636975 175.90074942715157, 349.55287813902703 208.00037131668262 M350.9308981502248 140.84624596627626 C350.8968897618608 158.7797661055448, 349.7758791086136 177.42472860549648, 349.0502434618621 210.30678549483275" stroke="#000000" stroke-width="0.5" fill="none"></path></g><g><path d="M278.87592571629597 173.17846267677956 C336.68365031951663 173.97294168374, 390.9973592754285 175.18600500470697, 421.5227085635402 174.56115961902498 M280.85419139019933 175.68087367405596 C316.89439364618846 173.74575222646516, 352.35824412010004 174.75182025838188, 420.2836736017935 174.07225371917207" stroke="#000000" stroke-width="0.5" fill="none"></path></g><text x="400" y="560" text-anchor="middle" font-family="sans-serif" font-size="16" fill="#222" font-style="italic">Both sides know mutual restraint is optimal — and both defect anyway.</text></svg>