<?xml version="1.0" encoding="UTF-8"?>
<svg width="800" height="600" viewBox="0 0 800 600" xmlns="http://www.w3.org/2000/svg"><rect width="800" height="600" fill="#FFFFFF"></rect><g><path d="M435.2736694786565 255.1514198169603 C435.2736694786565 255.1514198169603, 435.2736694786565 255.1514198169603, 435.2736694786565 255.1514198169603 M435.2736694786565 255.1514198169603 C435.2736694786565 255.1514198169603, 435.2736694786565 255.1514198169603, 435.2736694786565 255.1514198169603 M436.8953192330838 264.277261699811 C438.52424408417767 260.67009172610597, 441.12607117936966 257.61915216909784, 442.2090337782703 254.94807625471555 M436.0810900447925 263.1879928715489 C437.85600867227316 261.80997251408604, 439.38431107404125 259.17602066542486, 442.928843883902 254.77570625821784 M441.98688732632877 266.3670141102266 C443.18026449604844 264.8346884330601, 443.4205022704452 264.21945181155735, 445.8924137253296 261.9042778894059 M441.75676346230114 265.97029325562573 C442.7126708014555 264.76950561713255, 443.8453566646524 262.98211540778357, 445.52295733329726 261.3000388089548" stroke="none" stroke-width="0.75" fill="none"></path><path d="M439.0872548686585 254.34776696505043 C439.9904647654928 254.10723541925955, 440.8783794348242 253.54092701605921, 442.0670038770747 254.0382627517766 C443.2556283193252 254.535598487494, 445.6726597080161 255.88265299930816, 446.21900152216153 257.3317813793549 C446.76534333630696 258.7809097594016, 445.80279365666405 261.3818136631958, 445.34505476194727 262.7330330320569 C444.8873158672305 264.08425240091793, 444.5460521736893 264.9124639836651, 443.47256815386095 265.4390975925211 C442.3990841340326 265.9657312013771, 440.1737440627233 266.196205538369, 438.9041506429772 265.89283468519295 C437.63455722323107 265.5894638320169, 436.5157603501601 264.48944624183605, 435.85500763538437 263.61887247346505 C435.1942549206086 262.74829870509404, 435.06028882975477 262.05329592922624, 434.9396343543226 260.6693920749671 C434.81897987889045 259.285488220708, 434.14811655333364 256.3679318258063, 435.1310807827913 255.31544934791037 C436.11404501224894 254.26296687001445, 439.72333528582806 254.47667171886673, 440.83741973106856 254.35449720759158 C441.9515041763091 254.23232269631643, 442.04366754681814 254.49718162229254, 441.8155874542345 254.58240228025946 M436.5647319024168 254.3069778994632 C437.6213978185446 253.55543803862358, 440.7621925782505 253.11580157090006, 442.2387907905087 253.55462796534573 C443.71538900276687 253.9934543597914, 444.8259036640715 255.5314575989493, 445.42432117596576 256.9399362661372 C446.02273868786 258.34841493332505, 446.08354652033347 260.9646436498791, 445.82929586187413 262.00549996847303 C445.5750452034148 263.04635628706694, 444.74837986948995 262.39429503716144, 443.8988172252098 263.18507417770076 C443.0492545809297 263.97585331824007, 441.9562312764258 266.6777529773569, 440.7319199961935 266.75017481170886 C439.50760871596117 266.82259664606084, 437.7261669147068 264.4526041111732, 436.55294954381606 263.6196051838127 C435.3797321729253 262.7866062564523, 434.1573156817928 262.56112617225887, 433.69261577084893 261.752181247546 C433.22791585990507 260.9432363228331, 433.127362219401 260.0823953497472, 433.764750078153 258.7659356355355 C434.402137936905 257.4494759213239, 436.7549760972169 254.70432662673602, 437.51694292336083 253.85342296227626 C438.27890974950475 253.0025192978165, 438.2737310753563 253.3670485837258, 438.3365510350166 253.660513648777" stroke="undefined" stroke-width="1.5" fill="none"></path></g><g><path d="M440.4108505449471 260.33976306831175 C417.1114436308753 259.72108432668057, 392.99194058661527 260.04939480719804, 349.72812482898263 259.93950091711554 M440.27174767551867 260.0742003856469 C404.6478340033743 260.1133509644031, 369.3472083384126 260.13859785518036, 350.1155084481915 259.8837538034067" stroke="undefined" stroke-width="0.8" fill="none"></path></g><g><path d="M408.1790173898313 320.37426864477015 C408.1790173898313 320.37426864477015, 408.1790173898313 320.37426864477015, 408.1790173898313 320.37426864477015 M408.1790173898313 320.37426864477015 C408.1790173898313 320.37426864477015, 408.1790173898313 320.37426864477015, 408.1790173898313 320.37426864477015 M408.3852386298316 328.0390921753093 C411.99586080675 325.2265553968409, 414.41603709244555 321.8830742208427, 417.4491440927161 318.3776405498985 M409.23165419763666 328.54463004696845 C412.41750337484984 325.32629563967936, 415.19597757658676 321.65695087421545, 417.69248553511204 318.97713052152153 M415.76957549147227 330.0137126605299 C417.55718163907005 329.2451742245409, 418.3084131022225 327.33793547458816, 420.3181667588355 323.7993836227943 M416.08679078245353 329.42153521467384 C417.02752593523724 328.3898695966757, 417.64659159968846 327.42714134857414, 420.7657404442382 324.75469716024185" stroke="none" stroke-width="0.75" fill="none"></path><path d="M415.9745298766105 318.4855964727475 C417.3652907881818 318.54553234764467, 418.866056785305 318.9056949869478, 419.52540160218734 319.81363908230895 C420.1847464190697 320.7215831776701, 420.32426677864373 322.470673668283, 419.93059877790466 323.93326104491416 C419.5369307771656 325.39584842154534, 418.33961012516806 327.53057621319317, 417.16339359775304 328.5891633420962 C415.987177070338 329.6477504709992, 414.08510556896766 330.2308173061312, 412.8732996134146 330.2847838183324 C411.6614936578615 330.3387503305336, 410.7356657023467 329.92900781788313, 409.8925578644346 328.9129624153035 C409.0494500265225 327.8969170127239, 408.1136833774924 325.59616526030425, 407.8146525859421 324.1885114028548 C407.5156217943918 322.7808575454053, 407.46595129093794 321.6327304594395, 408.0983731151326 320.4670392706068 C408.7307949393272 319.3013480817741, 410.3411339140865 317.49928124656105, 411.6091835311098 317.19436426985874 C412.8772331481331 316.8894472931564, 414.7338960514444 318.29614068081924, 415.70667081727214 318.63753741039284 C416.6794455830999 318.97893413996644, 417.3015536513319 319.4072879250767, 417.44583212607637 319.2427446473002 M411.64897563492394 316.8255161761165 C412.5331135407004 316.4665407559034, 413.57663720524766 316.66149796576525, 414.99803267779913 317.3554697155683 C416.4194281503506 318.04944146537133, 419.57593918525004 319.8925185433128, 420.17734847023263 320.9893466749347 C420.7787577552152 322.08617480655664, 418.97249500402876 322.5022520527252, 418.60648838769487 323.93643850529963 C418.240481771361 325.37062495787404, 419.028253585488 328.3970117068882, 417.9813087722292 329.59446539038134 C416.93436395897044 330.7919190738745, 413.77834757405714 331.58738894313086, 412.3248195081421 331.1211606062588 C410.8712914422271 330.65493226938673, 409.937528429503 328.105790170931, 409.26014037673906 326.7970953691491 C408.5827523239751 325.48840056736714, 408.23343508583196 324.19454207923275, 408.26049119155863 323.2689917955671 C408.2875472972853 322.34344151190146, 408.70212637926807 322.0987259451989, 409.4224770110989 321.2437936671553 C410.1428276429298 320.38886138911164, 412.3231405134075 318.5248974245086, 412.58259498254364 318.1393981273054 C412.84204945167977 317.75389883010223, 411.34352624558613 319.06902588206884, 410.9792038259158 318.9307978839363" stroke="undefined" stroke-width="1.5" fill="none"></path></g><g><path d="M413.6519631852583 324.06247105619855 C396.27495761343494 306.07840024113926, 378.4807636530605 288.67639265261556, 350.32180787290514 259.64066380704145 M413.4312881578428 323.9371970774697 C390.7688777648519 300.85404479201554, 368.17710241061735 278.2910624835928, 349.8113097076159 259.9780115020839" stroke="undefined" stroke-width="0.8" fill="none"></path></g><g><path d="M345.03881748093585 347.63813582852833 C345.03881748093585 347.63813582852833, 345.03881748093585 347.63813582852833, 345.03881748093585 347.63813582852833 M345.03881748093585 347.63813582852833 C345.03881748093585 347.63813582852833, 345.03881748093585 347.63813582852833, 345.03881748093585 347.63813582852833 M348.3130812857421 355.53864836006244 C350.3756035622149 353.45627210975806, 353.586138919197 351.2763866567203, 356.3570619715271 348.1543632566417 M348.2578632738235 355.4645041585771 C350.8729364739688 353.3245822165934, 352.6436410924686 351.4652599042337, 355.93970943262696 347.8964719215308" stroke="none" stroke-width="1" fill="none"></path><path d="M352.1755060036112 344.18133707037924 C353.4610542322323 344.6896504435672, 355.30026294836426 346.59676840079135, 355.9015247394432 347.72557500370675 C356.5027865305221 348.85438160662216, 356.11718520051807 349.8530840931448, 355.7830767500847 350.95417668787184 C355.44896829965137 352.0552692825989, 354.8393401476514 353.5235369680589, 353.89687403684326 354.33213057206916 C352.9544079260351 355.1407241760794, 351.30288266807065 355.62694792663007, 350.1282800852359 355.8057383119332 C348.9536775024011 355.9845286972364, 347.79105257075065 356.2255960931891, 346.8492585398347 355.4048728838881 C345.90746450891874 354.58414967458714, 344.8165440739459 352.1329602974722, 344.4775158997401 350.8813990561275 C344.13848772553433 349.62983781478283, 344.1046318478141 349.00392248089025, 344.81508949460004 347.89550543582016 C345.52554714138597 346.78708839075006, 347.4162613682972 344.6538000905087, 348.7402617804558 344.2308967857068 C350.06426219261436 343.80799348090494, 351.9016117747053 345.04742514504227, 352.75909196755134 345.3580856070089 C353.61657216039737 345.6687460689755, 354.0078074619245 346.1502514147291, 353.88514293753184 346.09485955750654 M351.86864472630066 344.13608666408663 C352.79062101932556 344.5821293933765, 353.99177309097195 345.21118039117505, 354.81129438112123 346.2346073419971 C355.6308156712705 347.25803429281916, 356.84451180236607 348.74291483058295, 356.7857724671963 350.2766483690188 C356.7270331320265 351.81038190745465, 355.54892501303505 354.56001329816803, 354.4588583701025 355.43700857261234 C353.36879172717 356.31400384705665, 351.7410244164663 355.7201125300123, 350.24537260960113 355.53862001568456 C348.74972080273596 355.35712750135684, 346.37202014992783 354.8810653872328, 345.48494752891133 354.348053486646 C344.59787490789483 353.8150415860592, 345.2358004778112 353.754023177956, 344.92293688350213 352.34054861216356 C344.61007328919305 350.9270740463711, 342.9418756069033 347.3629242344714, 343.6077659630568 345.8672060918912 C344.2736563192103 344.371487949311, 347.54690326474974 343.6793025376361, 348.9182790204232 343.3662397566826 C350.28965477609665 343.0531769757291, 351.3246732487149 343.79223657934625, 351.83602049709737 343.9888294061701 C352.34736774547986 344.185422232994, 351.9727252092522 344.14784322268133, 351.9863625107182 344.5457967176257" stroke="undefined" stroke-width="2" fill="none"></path></g><g><path d="M282.23841423132893 319.5468380211102 C282.23841423132893 319.5468380211102, 282.23841423132893 319.5468380211102, 282.23841423132893 319.5468380211102 M282.23841423132893 319.5468380211102 C282.23841423132893 319.5468380211102, 282.23841423132893 319.5468380211102, 282.23841423132893 319.5468380211102 M281.00463304763906 328.3371236133727 C284.5919753564208 326.49028931103953, 286.06021513026525 322.43564790987944, 291.7275409167815 319.0546862664602 M282.3200852601809 328.80258741217966 C284.1018896925834 326.1914690922205, 286.25684315799174 323.84121192475095, 290.92247121251233 318.4253380610859" stroke="none" stroke-width="0.75" fill="none"></path><path d="M286.3335923953721 317.5358553216716 C287.78049311674016 317.4361413369293, 289.91002831665645 318.13293116420186, 290.89779778302403 318.98645099240537 C291.8855672493916 319.83997082060887, 292.07231151697124 321.3916734551551, 292.26020919357745 322.65697429089266 C292.44810687018366 323.9222751266302, 292.64202208567315 325.5051430536324, 292.02518384266114 326.5782560068308 C291.4083455996491 327.65136896002923, 289.8451964818737 328.5756907506948, 288.5591797355055 329.09565201008314 C287.2731629891373 329.6156132694715, 285.6009817935019 330.0008849333576, 284.309083364452 329.6980235631612 C283.01718493540216 329.3951621929648, 281.3759035465664 328.42619510295725, 280.8077891612062 327.27848378890485 C280.23967477584597 326.13077247485245, 280.66249837575924 324.099743447873, 280.9003970522909 322.81175567884674 C281.1382957288225 321.5237679098205, 281.35940739166745 320.3577672356147, 282.23518122039616 319.55055717474744 C283.11095504912487 318.7433471138802, 285.1700149458286 318.178795913732, 286.15504002466304 317.96849531364325 C287.1400651034975 317.7581947135545, 288.0394103886815 318.0792277355339, 288.1453316934028 318.2887535742149 M287.1573429209489 318.03630779691025 C288.45758492116795 318.1410134090992, 289.8259042662295 318.3898587606377, 290.7597110089231 319.41185512738764 C291.6935177516167 320.43385149413757, 292.5132949152377 322.968901646604, 292.7601833771106 324.16828599741 C293.0070718389835 325.367670348216, 293.25630963156954 325.97379668360463, 292.2410417801606 326.6081612322235 C291.2257739287516 327.24252578084236, 288.1754646187828 327.4570380916016, 286.66857626865686 327.97447328912307 C285.1616879185309 328.49190848664455, 284.20592343276223 330.2123941727106, 283.19971167940486 329.71277241735226 C282.1934999260475 329.2131506619939, 280.8056529801113 326.0185987786767, 280.6313057485126 324.97674275697284 C280.4569585169139 323.934886735269, 281.5244765479932 324.7524652388434, 282.15362828981284 323.4616362871291 C282.7827800316325 322.17080733541485, 283.56887402529804 318.05765579792205, 284.4062161994305 317.2317690466873 C285.24355837356296 316.40588229545256, 286.84683418203485 318.38393099311514, 287.17768133460754 318.5063157797207 C287.50852848718023 318.62870056632624, 286.4107125202688 318.13388880426385, 286.39129911486646 317.96607776632055" stroke="undefined" stroke-width="1.5" fill="none"></path></g><g><path d="M285.85824258998343 323.66571226591947 C299.3888508430299 310.598446427801, 313.17519346676244 296.66708398020205, 350.31295798433706 260.4965400434711 M286.4051847745335 323.7204037539119 C300.35308431766043 309.51893435823325, 313.94076150140086 295.8093363678808, 350.16611624582237 260.28659130402" stroke="undefined" stroke-width="0.8" fill="none"></path></g><g><path d="M253.56732562576823 258.8480901171245 C253.56732562576823 258.8480901171245, 253.56732562576823 258.8480901171245, 253.56732562576823 258.8480901171245 M253.56732562576823 258.8480901171245 C253.56732562576823 258.8480901171245, 253.56732562576823 258.8480901171245, 253.56732562576823 258.8480901171245 M256.9531099480851 264.0954836767919 C259.3896670523618 262.39461491880894, 259.85157111262214 261.48840428738794, 263.67476087841436 256.1870749504487 M256.42745089397374 264.79732851476666 C258.7767819908012 262.14317677729434, 260.1566356693864 260.8501516547781, 263.4666830772281 255.4651348109145" stroke="none" stroke-width="0.75" fill="none"></path><path d="M259.6618802293915 254.04628998035423 C260.9183024581832 253.95422521565538, 263.19608537834085 255.34047430748217, 264.268698321373 256.06739510274707 C265.34131126440514 256.794315898012, 265.9606554500633 257.28373047744225, 266.0975578875844 258.40781475194365 C266.2344603251055 259.53189902644505, 265.76517315138585 261.8052740955789, 265.09011294649963 262.81190074975547 C264.4150527416134 263.818527403932, 263.26746585762953 264.1369004485792, 262.0471966582671 264.44757467700293 C260.8269274589047 264.7582489054267, 258.8771730097793 264.87517179797817, 257.768497750325 264.6759461202979 C256.65982249087074 264.47672044261765, 256.04779415990987 264.27822570126546, 255.3951451015415 263.2522206109214 C254.7424960431731 262.2262155205774, 253.62876800589657 259.67160021839663, 253.8526034001148 258.5199155782339 C254.076438794333 257.3682309380712, 255.47002702222636 256.8900778980009, 256.73815746685074 256.3421127699452 C258.0062879114751 255.79414764188945, 260.568300689466 255.41551956184546, 261.461386067861 255.23212480989952 C262.35447144625596 255.04873005795358, 262.0981209278489 255.19038100086678, 262.0966697372204 255.24174425826956 M261.99493972479775 252.8627239331681 C263.00781093964997 252.83112037644872, 263.52736171258965 254.3342295131984, 264.2054997635333 255.62014595354714 C264.8836378144769 256.90606239389587, 265.99194143766897 259.2377884489317, 266.06376803045964 260.57822257526055 C266.1355946232503 261.9186567015894, 265.4874873170724 262.738729039208, 264.63645932027725 263.6627507115202 C263.7854313234821 264.58677238383234, 262.46443628674473 265.904400180861, 260.95760004968884 266.12235260913366 C259.45076381263294 266.3403050374063, 256.9592314570039 265.55987794577806, 255.5954418979419 264.97046528115624 C254.23165233887988 264.3810526165344, 252.81725822630395 263.55482841448855, 252.77486269531678 262.58587662140275 C252.73246716432962 261.61692482831694, 254.74515901911258 260.47700125021873, 255.34106871201885 259.15675452264134 C255.93697840492513 257.83650779506394, 255.34375636540403 255.4328632125122, 256.35032085275435 254.66439625593824 C257.35688534010467 253.8959292993643, 260.8175079763351 254.43184230315683, 261.38045563612076 254.54595278319758 C261.9434032959064 254.66006326323833, 260.0563755678155 255.4564554859517, 259.7280068114683 255.3490591361828" stroke="undefined" stroke-width="1.5" fill="none"></path></g><g><path d="M259.59183394758253 260.17403758392925 C283.1683777609889 259.6742436287675, 305.3252218545239 259.8897332483296, 349.6037915243331 260.44496748833615 M260.08740038549 260.1857738240646 C287.6807794172112 259.7940388556569, 315.59624166706806 259.90243793916267, 350.02992304400976 260.2270813825936" stroke="undefined" stroke-width="0.8" fill="none"></path></g><g><path d="M280.3544267796414 193.35789134035784 C280.3544267796414 193.35789134035784, 280.3544267796414 193.35789134035784, 280.3544267796414 193.35789134035784 M280.3544267796414 193.35789134035784 C280.3544267796414 193.35789134035784, 280.3544267796414 193.35789134035784, 280.3544267796414 193.35789134035784 M284.1311225608885 202.24506624585968 C285.51505209783477 198.98102482744838, 286.71173227981745 198.74840262364808, 291.64282501055806 193.02986060114483 M282.5963597430508 202.36352743118331 C285.54267900279007 199.03416830314967, 289.27237966020147 195.48908090610365, 291.4885621545838 192.03255985317392" stroke="none" stroke-width="1" fill="none"></path><path d="M283.77584062920454 190.28850023291096 C284.8841730568726 189.6468962835606, 286.1256528478158 189.50986595479824, 287.2689136252165 189.8077922461926 C288.4121744026172 190.10571853758697, 289.69121551567196 190.91019208425178, 290.63540529360887 192.0760579812771 C291.5795950715458 193.24192387830243, 292.9662613267079 195.41265421023803, 292.9340522928379 196.8029876283446 C292.9018432589679 198.19332104645116, 291.4105640343118 199.58219944569174, 290.4421510903889 200.4180584899165 C289.473738146466 201.25391753414124, 288.4264027714635 201.65681369895412, 287.1235746293007 201.81814189369317 C285.82074648713797 201.9794700884322, 283.71921979501167 201.89252140111648, 282.62518223741256 201.38602765835074 C281.53114467981345 200.879533915585, 280.8956071098552 200.1657493334053, 280.5593492837059 198.77917943709863 C280.2230914575566 197.39260954079197, 280.0229652091072 194.3127074049573, 280.60763528051706 193.06660828051068 C281.1923053519269 191.82050915606405, 283.07354084188466 191.61525194035116, 284.06736971216503 191.3025846904188 C285.0611985824454 190.98991744048644, 286.56379594883504 191.14327779654488, 286.5706085021993 191.19060478091654 M284.2238387657028 191.04753780528128 C285.6984135004767 190.78024786502397, 289.7172496118092 190.8911284815363, 290.8701115259535 191.6141891820144 C292.0229734400978 192.3372498824925, 291.10100696594327 194.1812508847645, 291.14101025056857 195.38590200814983 C291.18101353519387 196.59055313153516, 291.5648802553576 197.9283314727237, 291.1101312337052 198.84209592232645 C290.6553822120528 199.7558603719292, 289.51471526745905 200.3384140475215, 288.41251612065435 200.86848870576642 C287.31031697384964 201.39856336401135, 285.7541430858281 202.3496424932203, 284.496936352877 202.0225438717961 C283.2397296199259 201.6954452503719, 281.82015280504686 199.6867115050105, 280.869275722948 198.90589697722126 C279.9183986408491 198.12508244943203, 278.86881887723104 198.55247512347376, 278.79167386028377 197.33765670506068 C278.7145288433365 196.1228382866476, 279.21374405900156 192.84063640080223, 280.40640562126447 191.61698646674276 C281.5990671835274 190.3933365326833, 285.1662236289653 189.9812760843487, 285.9476432338611 189.99575710070388 C286.7290628387568 190.01023811705906, 285.13811511241005 191.770689574961, 285.0949232506388 191.70387256487385" stroke="undefined" stroke-width="2" fill="none"></path></g><g><path d="M347.06849583499445 163.9006892349106 C347.06849583499445 163.9006892349106, 347.06849583499445 163.9006892349106, 347.06849583499445 163.9006892349106 M347.06849583499445 163.9006892349106 C347.06849583499445 163.9006892349106, 347.06849583499445 163.9006892349106, 347.06849583499445 163.9006892349106 M346.3465247190869 173.14865544031073 C347.9126823790192 170.69287847902044, 349.7783144514598 169.54542735805572, 353.54489990494557 165.82955286432212 M345.97087107914484 174.34735579113422 C347.6882432224735 172.2417640116874, 349.8051465534312 170.69032584492496, 353.92992240962826 165.24240648811406 M351.1445669159168 176.94229377528794 C353.3322707734206 176.1443753898048, 353.3757369114061 175.10750516092097, 357.21053113211724 171.60064543389637 M351.8417113624992 176.92273008356156 C353.3900629493174 175.18392865848418, 354.8974108223069 173.32360548978366, 356.40283366826156 171.2416377021678" stroke="none" stroke-width="0.75" fill="none"></path><path d="M352.47060155468785 164.435171189342 C353.4407917337691 164.60758902836267, 353.48046954791795 165.48309434359055, 354.0092509730762 166.3871361826659 C354.5380323982344 167.29117802174125, 355.4905300160877 168.60337900092574, 355.64329010563733 169.859422223794 C355.796050195187 171.11546544666228, 355.7432167071271 172.85550406094808, 354.9258115103741 173.92339551987556 C354.1084063136211 174.99128697880303, 352.27530960053554 176.27125593105336, 350.7388589251195 176.26677097735896 C349.2024082497034 176.26228602366456, 346.90685737964316 174.8656084450842, 345.7071074578777 173.89648579770906 C344.5073575361123 172.92736315033392, 343.76042511560127 171.3937225688591, 343.5403593945267 170.45203509310812 C343.32029367345217 169.51034761735716, 343.8373685605775 169.29375777564388, 344.38671313143044 168.24636094320323 C344.9360577022834 167.19896411076257, 345.2794339972684 164.79721550259092, 346.83642681964426 164.16765409846425 C348.3934196420201 163.5380926943376, 352.4457578978312 164.26512832005443, 353.7286700656855 164.46899251844323 C355.0115822335398 164.67285671683203, 354.8020710632118 165.2503747852986, 354.53389982677027 165.39083928879703 M348.7335002047946 164.43606320565738 C349.90114573675885 163.83755909190967, 350.43471834940476 163.81591619360395, 351.4761002113568 164.2333450074341 C352.5174820733089 164.65077382126427, 354.50638750729297 165.58427695055605, 354.9817913765071 166.9406360886383 C355.4571952457212 168.29699522672058, 354.5972946711045 171.0034273134161, 354.3285234266416 172.37149983592772 C354.05975218217867 173.73957235843935, 354.4303799033931 174.82661643380163, 353.3691639097294 175.14907122370812 C352.30794791606576 175.4715260136146, 349.2780622535129 174.4292854009737, 347.9612274646596 174.30622857536656 C346.6443926758063 174.18317174975942, 346.3731223342094 175.0103478677182, 345.4681551766095 174.4107302700653 C344.5631880190096 173.8111126724124, 342.59042538559254 171.89086170773245, 342.53142451906 170.70852298944922 C342.4724236525275 169.526184271166, 343.9063698950411 168.46267275235488, 345.11414997741446 167.31669796036596 C346.3219300597878 166.17072316837704, 349.29420299664196 164.264603868477, 349.77810501330003 163.8326742375158 C350.2620070299581 163.40074460655458, 348.1159814409098 164.4341950260237, 348.0175620773628 164.7251201745987" stroke="undefined" stroke-width="1.5" fill="none"></path></g><g><path d="M350.14783561986997 169.7324813478603 C349.7060341135768 198.4588951342757, 349.58552208642294 227.20069533295256, 350.5357199295344 260.43478650720215 M350.15581438204924 170.188135148207 C349.83315529145983 199.09742714529187, 349.9177090365164 228.43580308302637, 350.10951109464077 260.0405552313533" stroke="undefined" stroke-width="0.8" fill="none"></path></g><g><path d="M410.5700749636727 191.27649694153322 C410.5700749636727 191.27649694153322, 410.5700749636727 191.27649694153322, 410.5700749636727 191.27649694153322 M410.5700749636727 191.27649694153322 C410.5700749636727 191.27649694153322, 410.5700749636727 191.27649694153322, 410.5700749636727 191.27649694153322 M410.0499205524608 201.73653884996386 C411.98507002627747 197.46041673155278, 416.96358637467154 194.124984675354, 417.86319646586463 191.23092328653627 M409.26619325400804 200.86346770868036 C413.06180567762505 198.11645072588658, 416.45609471041985 194.30458591535728, 418.7531282576885 191.93382760104234" stroke="none" stroke-width="0.75" fill="none"></path><path d="M414.115698471937 189.20903268611923 C415.26884821889325 189.08591847279408, 417.03786713218267 190.0674556403551, 417.92680958816464 191.09942647969163 C418.8157520441466 192.13139731902817, 419.25185715196767 193.98100052918497, 419.44935320782884 195.40085772213837 C419.64684926369 196.82071491509177, 419.76605308105957 198.60092679395697, 419.1117859233318 199.6185696374121 C418.45751876560405 200.63621248086721, 416.90602614416196 200.95431089480707, 415.5237502614622 201.50671478286915 C414.1414743787625 202.05911867093124, 412.0315344948846 203.44922340640025, 410.8181306271335 202.9329929657847 C409.60472675938234 202.41676252516916, 408.6714485019064 199.71743531033803, 408.2433270549555 198.40933213917586 C407.8152056080046 197.1012289680137, 407.8632194829151 196.2713290284237, 408.2494019454279 195.0843739388117 C408.6355844079407 193.89741884919968, 409.3848043725133 191.9605037608977, 410.56042183003234 191.2876016015038 C411.73603928755136 190.61469944210992, 414.5728207775108 191.31308671727322, 415.30310669054194 191.04696098244844 C416.0333926035731 190.78083524762366, 415.00924763269245 189.75233884919263, 414.94213730821923 189.69084719255514 M412.717986414037 189.31862774388625 C414.22927291435167 188.8748901142855, 415.8934834004744 189.52140919482787, 417.0410980020079 190.3090472561164 C418.18871260354143 191.09668531740493, 419.4149927853253 192.56180599267876, 419.603674023238 194.04445611161748 C419.7923552611507 195.5271062305562, 418.8292918324871 197.86334499033217, 418.173185429484 199.20494796974873 C417.5170790264809 200.5465509491653, 416.8689180912302 201.70725205172369, 415.6670356052195 202.09407398811678 C414.46515311920876 202.48089592450987, 412.2401550980185 201.9020422024923, 410.96189051341975 201.52587958810736 C409.683625928821 201.1497169737224, 408.54359177114196 200.53337168304034, 407.9974480976271 199.837098301807 C407.45130442411227 199.14082492057366, 407.68196468156856 198.47578358672342, 407.6850284723306 197.34823930070735 C407.68809226309264 196.22069501469127, 407.42381757528796 194.50689032266848, 408.0158308421994 193.0718325857106 C408.6078441091109 191.63677484875274, 410.6594656452247 188.9478747061747, 411.23710807379933 188.73789287896014 C411.81475050237395 188.52791105174558, 411.4545005050146 191.4616097695074, 411.48168541364714 191.81194162242323" stroke="undefined" stroke-width="1.5" fill="none"></path></g><g><path d="M413.8255913619897 196.52089782334082 C389.5189961984895 220.02944688773982, 366.3395650191918 243.87249275806622, 349.4390243317769 260.1381977891786 M413.44487309256 196.39822161547434 C388.08499542587845 221.80184958864714, 362.6944186883348 246.84330449776965, 349.8885584998853 259.8412498509787" stroke="undefined" stroke-width="0.8" fill="none"></path></g><g><path d="M340.84203929260195 252.56403566678532 C340.84203929260195 252.56403566678532, 340.84203929260195 252.56403566678532, 340.84203929260195 252.56403566678532 M340.84203929260195 252.56403566678532 C340.84203929260195 252.56403566678532, 340.84203929260195 252.56403566678532, 340.84203929260195 252.56403566678532 M341.2456204322598 264.45083773007383 C344.2526537473277 260.88064886467674, 348.30958248827795 257.21112033655226, 351.6660497536674 251.55348585034284 M341.9571290594345 264.41386291747915 C345.0484168661084 259.78194117588333, 347.8902244217632 255.92171375202494, 351.69255510091165 251.23788424939923 M346.5251210495251 273.8979822075992 C350.70696312858894 264.8659319300741, 354.91536704989454 260.9678147364173, 360.1938539194319 251.39552933096354 M346.0021569486548 271.9730722529575 C351.74558895311463 266.03763635203353, 357.00375582820055 258.2228938607615, 362.1118397051767 253.0149063856525 M352.5380265743679 275.6642632519226 C357.01630359032424 272.4923580392746, 360.66174633575264 267.3669268089754, 368.09506520607556 258.23391214398646 M353.1328733756998 276.0512077082257 C355.37728916105624 271.4958376775405, 360.6786305587138 267.53059719977944, 367.1891279869737 259.0315430153769" stroke="none" stroke-width="1" fill="none"></path><path d="M347.42930745104263 247.88072853437805 C349.837795293569 247.24693690566153, 353.78937030957735 247.6160942581845, 356.15995385136875 248.82549243737284 C358.53053739316016 250.0348906165612, 360.5484496543465 252.57413508000903, 361.6528087017911 255.13711760950815 C362.75716774923575 257.70010013900725, 363.65440460398224 261.5228926960786, 362.78610813603655 264.20338761436756 C361.91781166809085 266.8838825326565, 359.10988708795765 270.01726039731284, 356.4430298941168 271.2200871192418 C353.776172700276 272.4229138411707, 349.3944806118661 271.92066122765203, 346.78496497299176 271.42034794594116 C344.17544933411745 270.9200346642303, 342.3091864757451 270.114335712002, 340.785936060871 268.2182074289766 C339.2626856459969 266.3220791459512, 337.61346991369055 262.67865355245874, 337.6454624837472 260.04357824778884 C337.6774550538039 257.40850294311895, 339.0913606085628 254.49685466445095, 340.9778914812112 252.40775560095736 C342.8644223538596 250.31865653746377, 347.1275885234752 248.13647451724887, 348.96464771963747 247.50898386682732 C350.80170691579974 246.88149321640577, 351.85410430883627 248.47073072068866, 352.0002466581848 248.64281169842815 M353.19731025949324 247.39753492650058 C355.83470804650625 248.07037304892026, 359.9026789428769 251.19763195037086, 361.6596169090895 253.28537594774997 C363.4165548753021 255.37311994512908, 364.20581692006175 257.5325266713363, 363.7389380567689 259.92399891077525 C363.2720591934761 262.3154711502142, 360.82572809486044 265.7755105366142, 358.8583437293324 267.6342093843838 C356.8909593638043 269.49290823215335, 354.68473200854766 270.48341661384916, 351.9346318636005 271.07619199739264 C349.1845317186533 271.6689673809361, 344.63551938867414 272.2905902021579, 342.3577428596495 271.1908616856446 C340.0799663306248 270.09113316913135, 339.1366508358286 267.1732279970659, 338.2679726894524 264.4778208983131 C337.39929454307617 261.7824137995603, 336.40600674423996 257.63269244383935, 337.14567398139195 255.0184190931277 C337.88534121854394 252.40414574241603, 339.9231727822995 249.81174537126162, 342.70597611236434 248.7921807940431 C345.4887794424292 247.7726162168246, 352.01220346142685 249.03473240118137, 353.84249396178114 248.90103162981663 C355.67278446213544 248.76733085845188, 353.77262603649694 248.0112150581717, 353.68771911449016 247.98997616585473" stroke="#000000" stroke-width="2" fill="none"></path></g><g><path d="M339.65294495163766 142.87930627157021 C339.65294495163766 142.87930627157021, 339.65294495163766 142.87930627157021, 339.65294495163766 142.87930627157021 M339.65294495163766 142.87930627157021 C339.65294495163766 142.87930627157021, 339.65294495163766 142.87930627157021, 339.65294495163766 142.87930627157021 M338.7492457752038 152.2511388107223 C341.8594451718255 149.7240670326367, 344.0035517411312 148.28586433243294, 349.31303291186896 142.57563854967313 M339.09535065373325 152.70191420991114 C342.10957229349106 149.35206629029358, 344.5750352119708 146.6609352083905, 348.5333570440684 142.69680980471315 M342.3306991603981 161.25013231696533 C345.267285811064 152.71675616327508, 352.8674446132119 147.47936067551498, 356.89801835128236 142.4258627094216 M341.08719860079526 159.7824241415924 C346.5185460697094 153.84313505713243, 350.3554562196453 149.18376853396273, 356.7228542030797 140.8999552400801 M347.32347414634216 163.21707136782936 C351.1890005510574 156.8345746800345, 359.07177277937564 148.23521757612954, 361.63861467988085 145.0254456844369 M347.13918957620524 162.18982762479632 C352.545347015642 156.20533105851104, 357.9493070372733 150.04146818335198, 360.99095858075833 144.94380056517508 M351.8435990068086 165.94965530625302 C354.3524291088991 160.81193486797338, 359.0492481770125 158.5701971112512, 362.88522474364896 151.02606790308988 M351.87251325377014 164.69531781983738 C355.37989956786794 161.72246043175957, 359.1291639779429 158.21890783216193, 363.29888460591366 152.00336272383336" stroke="none" stroke-width="0.75" fill="none"></path><path d="M354.51772908429535 138.55285752348848 C356.63999191724906 139.14274556082148, 359.16741781229365 141.92508108816324, 360.4326175852685 144.17054351475144 C361.6978173582433 146.41600594133965, 362.4632032790945 149.36087415586167, 362.1089277221443 152.02563208301765 C361.7546521651941 154.69039001017364, 360.5078594612445 158.51110476503757, 358.3069642435671 160.15909107768744 C356.1060690258897 161.8070773903373, 351.9013841131973 162.1439485410414, 348.90355641608005 161.9135499589169 C345.9057287189628 161.68315137679238, 342.2634345957339 160.66842992493713, 340.3199980608637 158.77669958494033 C338.37656152599357 156.88496924494353, 337.30607003689636 153.26800026182994, 337.24293720685915 150.56316791893616 C337.17980437682195 147.85833557604238, 338.5681639397253 144.41607935442136, 339.9412010806403 142.5477055275777 C341.31423822155534 140.67933170073405, 342.8223794007227 139.98300559654413, 345.4811600523491 139.35292495787428 C348.13994070397547 138.72284431920443, 354.1464465194972 138.77765031776028, 355.89388499039865 138.76722169555865 C357.6413234613001 138.75679307335702, 356.0285455574902 138.88043602458987, 355.9657908777578 139.29035322466453 M353.97414464504465 137.54019329523055 C356.5183882156 137.89667495775635, 359.02413250122584 140.02822252038493, 360.2929324606157 142.47256775241212 C361.56173242000557 144.9169129844393, 361.74765431956166 149.2404115856607, 361.5869444013839 152.20626468739368 C361.42623448320614 155.17211778912667, 361.2100610847839 158.51095079633023, 359.32867295154927 160.26768636281003 C357.44728481831464 162.02442192928982, 353.31957774561056 162.78665525555232, 350.29861560197634 162.74667808627234 C347.2776534583421 162.70670091699236, 343.29262652640205 161.8516068456727, 341.20290008974405 160.02782334713024 C339.11317365308605 158.20403984858777, 338.20662501947004 154.38595651264598, 337.76025698202847 151.80397709501756 C337.3138889445869 149.22199767738914, 337.41918822825005 146.65510107180822, 338.52469186509467 144.5359468413597 C339.6301955019393 142.4167926109112, 341.6976666059971 140.00439433594894, 344.3932788030962 139.08905171232644 C347.08889100019536 138.17370908870393, 352.9666949950574 138.90076296035696, 354.6983650476896 139.04389109962463 C356.4300351003218 139.1870192388923, 355.1433597770889 140.02331511342754, 354.7832991188895 139.94782054793254" stroke="#000000" stroke-width="1.5" fill="none"></path></g><g><path d="M325.24361458959316 148.0364090150966 C342.49606644090574 149.40884092401055, 359.17527405957634 149.9482875742287, 373.8193276883646 148.07840883757223 M325.43725125429575 149.80132107685313 C337.3378132211412 148.98029630282215, 350.4545915415013 150.84490799594863, 374.70831781324875 150.29380150616828" stroke="#000000" stroke-width="0.8" fill="none"></path></g><g><path d="M351.5833745328603 125.26594604963213 C350.5762067182915 140.87059276271546, 348.1920486855949 159.6768924145296, 350.5771292375225 176.16229515073957 M349.81348748117654 124.13619164426876 C350.285547356496 135.72837927854584, 349.0740356862618 146.7593210048371, 350.29454541065746 175.11769119556487" stroke="#000000" stroke-width="0.8" fill="none"></path></g><g><path d="M512.1932106840426 345.8667907459899 C512.1932106840426 345.8667907459899, 512.1932106840426 345.8667907459899, 512.1932106840426 345.8667907459899 M512.1932106840426 345.8667907459899 C512.1932106840426 345.8667907459899, 512.1932106840426 345.8667907459899, 512.1932106840426 345.8667907459899 M511.5956548883508 355.8754488836654 C517.5392989974222 351.2694888624228, 517.3021509846767 347.0178631145208, 522.2563978409014 341.73364619961416 M513.3610706524365 353.7220479919008 C516.3135273955012 349.57521295006813, 521.5120726052817 344.86667317980147, 524.7007040006408 341.27982820662777 M517.1053921353496 358.3467849756748 C518.960139845045 353.917377093391, 521.88225379859 350.0463787618803, 529.0540168998424 345.7243169416693 M517.5296211014133 358.7004620639931 C518.9693055626301 355.3046578840401, 523.6056864651523 351.2375318514456, 528.5258554659781 345.39641190697404" stroke="none" stroke-width="0.75" fill="none"></path><path d="M522.1231859624274 340.57840135013913 C523.9713961610723 341.0373306360504, 527.6390010960092 342.7282216885923, 528.7367207558468 344.46062326148956 C529.8344404156844 346.1930248343868, 529.2597006841668 348.91301767719284, 528.7095039214529 350.9728107875224 C528.159307158739 353.03260389785197, 526.9531779189952 355.251011052786, 525.4355401795634 356.81938192346706 C523.9179024401317 358.3877527941481, 521.4180633365386 360.23688045507845, 519.6036774848624 360.3830360116089 C517.7892916331862 360.52919156813937, 516.0945296583943 359.2354581866104, 514.5492250695058 357.69631526264993 C513.0039204806174 356.15717233868946, 510.6912120391742 353.15808118091144, 510.3318499515314 351.14817846784615 C509.9724878638886 349.13827575478086, 511.40375727073683 347.1932219551247, 512.393052543649 345.6368989842583 C513.3823478165612 344.0805760133919, 514.2991638989488 342.6123870109618, 516.2676215890044 341.81024064264784 C518.23607927906 341.00809427433387, 522.8540058289325 340.8399933733112, 524.2037986839827 340.82402077437445 C525.5535915390328 340.8080481754377, 524.5885193619132 341.6012339496134, 524.3663787193052 341.7144050490275 M521.2698727380722 339.60338297258124 C523.2087721092239 339.561657636541, 525.3867261069765 341.13414578959214, 526.7934737345644 343.1639184892358 C528.2002213621522 345.1936911888795, 529.6030285298405 349.43000773852526, 529.7103585035991 351.78201917044333 C529.8176884773577 354.1340306023614, 528.8071405981683 356.15754218650386, 527.4374535771162 357.2759870807443 C526.0677665560642 358.39443197498474, 523.4890115803505 358.1607843162723, 521.4922363772869 358.4926885358861 C519.4954611742232 358.82459275549985, 517.0597337355345 360.3731338485187, 515.4568023587342 359.2674123984268 C513.8538709819339 358.1616909483349, 512.5185042435012 354.0746220605642, 511.87464811648533 351.8583598353347 C511.2307919894694 349.64209761010517, 510.9368695431235 347.4528014781758, 511.59366559663886 345.9698390470496 C512.2504616501542 344.48687661592345, 514.2923135515766 343.7077540809184, 515.8154244375772 342.9605852485778 C517.3385353235778 342.2134164162372, 519.5126361787036 341.93682852358404, 520.7323309126422 341.486826053006 C521.9520256465808 341.0368235824279, 523.176608870678 340.44757764543823, 523.1335928412087 340.26057042510956" stroke="undefined" stroke-width="1.5" fill="none"></path></g><g><path d="M513.8531969552033 350.3932197479403 C515.815967792025 351.71920106096735, 516.4947724253965 354.4621212383658, 518.3555849564557 355.5638764990714 M513.6894131432084 350.0611563779589 C514.9670440340841 351.53366450330793, 516.0147955303486 353.2089740604291, 518.3289219986077 356.236608399276" stroke="undefined" stroke-width="2" fill="none"></path></g><g><path d="M519.1859413836157 354.87011462781027 C522.6281758071875 352.44148121503747, 525.4020241481206 347.1830385005312, 527.4921808697601 343.6403863824127 M518.0465312397484 355.89517291060116 C521.4763523756642 350.6473126766441, 525.7586209249711 346.31932140600026, 527.6013789666578 344.5793602145757" stroke="undefined" stroke-width="2" fill="none"></path></g><text x="400" y="560" text-anchor="middle" font-family="sans-serif" font-size="16" fill="#222" font-style="italic">The fix is never everyone should just cooperate. It's redesigning the game.</text></svg>