<?xml version="1.0" encoding="UTF-8"?>
<svg width="800" height="600" viewBox="0 0 800 600" xmlns="http://www.w3.org/2000/svg"><rect width="800" height="600" fill="#FFFFFF"></rect><g><path d="M434.6495083919049 255.93385785533496 C434.6495083919049 255.93385785533496, 434.6495083919049 255.93385785533496, 434.6495083919049 255.93385785533496 M434.6495083919049 255.93385785533496 C434.6495083919049 255.93385785533496, 434.6495083919049 255.93385785533496, 434.6495083919049 255.93385785533496 M436.76504644936557 264.5251769850225 C438.69748740249594 259.90395809509556, 441.67198393116615 256.2511014850332, 444.3277182364345 254.3568732651076 M436.0588445465081 263.39516708836453 C438.2980611005934 261.6970751538187, 439.3510156972248 259.84856893337457, 443.47112745489613 254.16697511736763 M442.7841922001336 265.6536410140341 C443.8168091445061 263.66639655324843, 444.9493700767241 262.5210863334837, 446.47940264230283 261.18630013579406 M442.4892600501593 265.1264477589301 C443.7040219518361 263.8296144341306, 445.381749368771 262.1941935975947, 446.4715807682882 260.5675835362608" stroke="none" stroke-width="0.75" fill="none"></path><path d="M443.3011494514595 254.3348442661553 C444.5447791602847 254.55852439541172, 444.9311613272526 255.3432239062081, 445.3125197642442 256.38200979958907 C445.6938782012358 257.42079569297005, 445.81785091827857 259.0895612529563, 445.5893000734092 260.56755962644115 C445.3607492285399 262.045557999926, 444.9576498381716 264.4440085173767, 443.941214695028 265.2500000404981 C442.9247795518844 266.0559915636195, 440.7702886805433 265.5893903493315, 439.4906892145475 265.40350876516953 C438.21108974855173 265.2176271810076, 437.2084194430785 265.01785390405075, 436.2636178990535 264.13471053552644 C435.31881635502845 263.2515671670021, 434.1137549524421 261.4451636499823, 433.8218799503974 260.10464855402375 C433.53000494835265 258.7641334580652, 433.7596556712047 257.17133854574655, 434.51236788678517 256.09161995977496 C435.26508010236563 255.01190137380337, 437.05472088493315 253.96849864311102, 438.33815324388024 253.62633703819424 C439.62158560282734 253.28417543327745, 441.2461909345677 253.7014861254965, 442.21296204046774 254.0386503302743 C443.17973314636777 254.3758145350521, 444.0343433772956 255.345864692371, 444.13877987928055 255.64932226686093 M441.40613780504606 252.84656698801405 C442.4001103113986 253.06062256864283, 443.4684840234723 254.81894914738837, 443.9861654388354 255.8507954838016 C444.50384685419857 256.8826418202148, 444.56802718905334 257.9351506956159, 444.51222629722497 259.03764500649345 C444.4564254053966 260.140139317371, 444.193127593503 261.4240021793682, 443.65136008786516 262.46576134906684 C443.1095925822273 263.5075205187655, 442.5026584572281 264.7957498670731, 441.26162126339796 265.2882000246853 C440.0205840695678 265.7806501822975, 437.29936931938454 265.765003104845, 436.20513692488424 265.4204622947401 C435.11090453038395 265.0759214846352, 434.7522913617431 264.3135151975548, 434.69622689639624 263.22095516405585 C434.64016243104936 262.1283951305569, 435.585004966244 260.2774560713884, 435.8687501328029 258.8651020937465 C436.1524952993618 257.4527481161046, 435.76115383455556 255.51876440093548, 436.3986978957495 254.7468312982045 C437.0362419569434 253.97489819547354, 438.7793777034683 254.14143316396695, 439.6940144999664 254.23350347736073 C440.6086512964645 254.3255737907545, 441.54203637343534 255.08276690280812, 441.8865186747381 255.29925317856723" stroke="#4A90D9" stroke-width="1.5" fill="none"></path></g><g><path d="M440.5350984979462 260.3207952756386 C414.71046080380415 260.7082461795179, 390.57326124966335 260.65493323529716, 349.5361988578201 259.9887610077304 M440.1163201450942 259.90741878472846 C413.11240159699 260.2207606629999, 386.3520405836889 260.20825711330053, 350.08662439954253 260.03951689582345" stroke="#4A90D9" stroke-width="0.8" fill="none"></path></g><g><path d="M409.1548802976463 321.2225733284605 C409.1548802976463 321.2225733284605, 409.1548802976463 321.2225733284605, 409.1548802976463 321.2225733284605 M409.1548802976463 321.2225733284605 C409.1548802976463 321.2225733284605, 409.1548802976463 321.2225733284605, 409.1548802976463 321.2225733284605 M410.0990275652288 328.83110059843546 C411.2101202091807 326.18533044137433, 412.77938575814005 325.2452082191486, 417.32022598047996 320.72610506699834 M410.86237207022276 328.39008070199003 C412.4230357553567 326.6164375140827, 413.67662851588307 324.819326215387, 417.2740697591053 320.94372100879934" stroke="none" stroke-width="0.75" fill="none"></path><path d="M415.3269854650137 318.14136225671695 C416.5871739112466 318.2913333829034, 418.6451104907295 318.4409232858482, 419.36176221953184 319.5945941651877 C420.0784139483342 320.74826504452716, 420.02378819933267 323.63595757717553, 419.6268958378278 325.0633875327538 C419.23000347632296 326.490817488332, 417.7512416550698 327.3390045760614, 416.98040805050266 328.15917389865734 C416.2095744459355 328.97934322125326, 416.11673012878384 329.856763773366, 415.00189421042506 329.9844034683293 C413.8870582920663 330.1120431632925, 411.43866790857015 329.8073310311721, 410.2913925403499 328.9250120684368 C409.1441171721296 328.04269310570146, 408.3378502627059 325.93950037220554, 408.1182420011033 324.6904896919175 C407.89863373950067 323.44147901162944, 408.3130643037835 322.36133403998855, 408.9737429707342 321.43094798670865 C409.63442163768485 320.50056193342874, 411.1004044601974 319.77643857145364, 412.0823140028074 319.10817337223807 C413.06422354541735 318.4399081730225, 414.33223723581494 317.58951226018223, 414.86520022639394 317.42135679141523 C415.39816321697293 317.25320132264824, 415.2113227373767 317.76373689008807, 415.28009194628123 318.09924055963614 M415.07762506279556 319.551698477673 C416.3628091183181 319.9508012434456, 418.91674840856103 319.8565374797504, 419.82118270685345 320.61223468922907 C420.72561700514586 321.36793189870775, 421.04708795794363 322.5869828164517, 420.50423085255017 324.08588173454496 C419.9613737471567 325.5847806526382, 417.5684547361837 328.6238031023824, 416.5640400744928 329.60562819778846 C415.55962541280195 330.5874532931945, 415.7644328990804 330.1114688221672, 414.477742882405 329.97683230698135 C413.19105286572955 329.8421957917955, 409.9490982446521 329.89543549550353, 408.84389997444015 328.79780910667336 C407.7387017042282 327.7001827178432, 407.9846531370099 324.5852031724668, 407.84655326113324 323.39107397400034 C407.7084533852566 322.1969447755339, 407.10311125741816 322.67730077427575, 408.01530071918006 321.6330339158749 C408.92749018094196 320.588767057474, 412.1508898390565 317.5320659022292, 413.3196900317048 317.12547282359515 C414.4884902243531 316.7188797449611, 414.64685916491334 319.04691568750474, 415.02810187506964 319.1934754440705 C415.40934458522594 319.34003520063624, 415.46485242915816 317.95869692328915, 415.6071462926426 318.00483136298965" stroke="#4A90D9" stroke-width="1.5" fill="none"></path></g><g><path d="M413.6058063897212 323.92913042537793 C398.5034821405392 308.50458703967456, 383.3152264455741 293.38237641387263, 350.1963965583919 260.13938893711696 M413.62083835676225 323.81965039232256 C392.0528960607923 302.6623492936491, 370.6826348601466 281.20684740521625, 350.0068269629525 260.05209552917955" stroke="#4A90D9" stroke-width="0.8" fill="none"></path></g><g><path d="M344.03333662956794 346.7640846593061 C344.03333662956794 346.7640846593061, 344.03333662956794 346.7640846593061, 344.03333662956794 346.7640846593061 M344.03333662956794 346.7640846593061 C344.03333662956794 346.7640846593061, 344.03333662956794 346.7640846593061, 344.03333662956794 346.7640846593061 M346.7428294878787 354.13544449280727 C349.20285119341656 352.6921327917252, 352.3095824598158 350.6976766564421, 355.3782254667355 346.13796516854694 M347.13873893078335 355.54766461028805 C349.72148717828486 352.09710652697396, 352.7674791803697 349.47847851567815, 354.6405445748203 346.6656641325067" stroke="none" stroke-width="1" fill="none"></path><path d="M347.3067429283782 343.62016848411616 C348.30115423187414 342.9274511140639, 350.0206083816847 343.14401658011343, 351.3361678493956 343.7841579718002 C352.6517273171065 344.42429936348697, 354.37168599517304 346.31059170595296, 355.20009973464346 347.4610168342368 C356.0285134741139 348.6114419625206, 356.3405270776227 349.6510588787248, 356.30665028621826 350.68670874150297 C356.2727734948138 351.7223586042811, 355.91524328760215 352.6093376244768, 354.9968389862167 353.6749160109057 C354.0784346848312 354.7404943973346, 352.11322125406105 357.01134616087154, 350.7962244779054 357.0801790600764 C349.4792277017498 357.1490119592812, 348.36241763570297 355.16937315442533, 347.09485832928283 354.0879134061346 C345.8272990228627 353.00645365784385, 343.6612030052977 351.8579805396555, 343.19086863938475 350.59142057033176 C342.7205342734718 349.324860601008, 343.4721550638581 347.4933088186203, 344.272852133805 346.48855359019217 C345.07354920375184 345.48379836176406, 346.87719200866707 344.99065750333455, 347.9950510590659 344.56288919976316 C349.1129101094647 344.1351208961918, 350.6754914531406 344.026078573107, 350.9800064361979 343.9219437687638 M348.21825945479065 344.58997412843655 C349.2211642467486 344.182755317112, 350.696051111026 344.1499765288966, 352.13130404939756 344.66296964076423 C353.5665569877691 345.17596275263185, 356.1010658422369 346.2866845313017, 356.8297770850199 347.66793279964236 C357.5584883278029 349.049181067983, 357.0275549559072 351.81756503848356, 356.5035715060954 352.95045925080814 C355.9795880562836 354.0833534631327, 354.81536447717247 353.87588454570323, 353.685876386149 354.4652980735897 C352.55638829512554 355.05471160147613, 351.32876520549627 356.6984166429665, 349.72664295995475 356.48694041812666 C348.1245207144132 356.27546419328684, 345.07979766305453 354.1718123561625, 344.0731429129 353.1964407245507 C343.06648816274543 352.22106909293893, 343.40513344378246 351.7408636086576, 343.6867144590274 350.6347106284559 C343.9682954742724 349.52855764825415, 344.85877987522724 347.50504011215867, 345.7626290043699 346.5595228433403 C346.66647813351256 345.6140055745219, 348.51741695994104 345.55348836869666, 349.1098092338835 344.9616070155456 C349.7022015078259 344.36972566239456, 349.2293211851287 342.9838333973425, 349.3169826480244 343.0082347244338" stroke="#CC3333" stroke-width="2" fill="none"></path></g><g><path d="M282.82552647750106 320.0572069103172 C282.82552647750106 320.0572069103172, 282.82552647750106 320.0572069103172, 282.82552647750106 320.0572069103172 M282.82552647750106 320.0572069103172 C282.82552647750106 320.0572069103172, 282.82552647750106 320.0572069103172, 282.82552647750106 320.0572069103172 M284.18371187532773 329.23390529597697 C285.6704788914285 325.6949276333449, 288.74772972909295 323.76433267520974, 290.52718467858307 319.1273057992999 M283.50592899721227 328.8453266375543 C285.8102348933134 325.4220081713493, 288.23070859950525 323.2932206749279, 291.06572391694203 320.08870374778104" stroke="none" stroke-width="0.75" fill="none"></path><path d="M284.9884905328301 318.3675809860952 C286.1592168710953 318.1987309764532, 288.6868858340723 318.4862555967293, 289.71616834920496 319.2229814112642 C290.7454508643376 319.9597072257991, 290.7790387950555 321.83051942370713, 291.16418562362594 322.78793587330455 C291.5493324521964 323.74535232290197, 292.43029883763677 324.0468907480315, 292.02704932062744 324.9674801088486 C291.6237998036181 325.88806946966565, 289.92510321236034 327.66524160490303, 288.74468852157014 328.31147203820694 C287.56427383077994 328.95770247151086, 286.1467425029586 328.8939142503476, 284.9445611758863 328.84486270867194 C283.742379848814 328.79581116699626, 282.19501005572766 328.9289331487985, 281.5316005591364 328.01716278815275 C280.8681910625451 327.105392427507, 280.7829995408691 324.66115501552764, 280.96410419633867 323.37424054479743 C281.1452088518082 322.0873260740672, 281.76172080090686 321.07546113692706, 282.61822849195346 320.2956759637716 C283.47473618300006 319.51589079061614, 285.20368783603624 319.15495088753954, 286.1031503426184 318.6955295058648 C287.00261284920055 318.23610812419, 287.9067305828851 317.416437055868, 288.01500353144644 317.539147673723 M284.19926042427977 317.85470800072335 C285.3697137878472 317.69519613012704, 286.8732242496219 318.17229192690763, 288.0282152872683 318.73331969751877 C289.18320632491475 319.2943474681299, 290.67161827432636 320.1732938697453, 291.1292066501583 321.2208746243902 C291.5867950259903 322.2684553790351, 291.071065447125 323.91260168774164, 290.77374554226003 325.0188042253883 C290.47642563739504 326.12500676303495, 290.21266020077286 327.2524868047298, 289.34528722096826 327.8580898502701 C288.47791424116366 328.4636928958104, 286.812237234367 328.6314298817136, 285.5695076634323 328.65242249863 C284.32677809249765 328.67341511554645, 282.9706231478027 328.63005537057666, 281.88890979536035 327.98404555176865 C280.807196442918 327.33803573296063, 279.1401764345441 326.134235899175, 279.07922754877814 324.77636358578206 C279.01827866301215 323.41849127238913, 280.7040543279459 320.88014784641877, 281.5232164807644 319.83681167141106 C282.3423786335829 318.79347549640335, 283.26441794715976 318.731335868703, 283.99420046568906 318.5163465357357 C284.72398298421837 318.3013572027684, 285.62704824051644 318.42899604666053, 285.9019115919402 318.5468756736072" stroke="#4A90D9" stroke-width="1.5" fill="none"></path></g><g><path d="M286.0031518135756 324.0816195391649 C303.3026598985369 306.5366998262398, 320.6617273022423 289.19184526539516, 349.90982116477534 260.00415292346787 M286.29175151404274 323.6456631374013 C305.21060446443335 304.5249507114599, 324.2036853264148 285.5266852513169, 349.8737002188917 259.9403586564018" stroke="#4A90D9" stroke-width="0.8" fill="none"></path></g><g><path d="M255.90146837404677 256.9020904723265 C255.90146837404677 256.9020904723265, 255.90146837404677 256.9020904723265, 255.90146837404677 256.9020904723265 M255.90146837404677 256.9020904723265 C255.90146837404677 256.9020904723265, 255.90146837404677 256.9020904723265, 255.90146837404677 256.9020904723265 M257.2648010348671 264.5564970549043 C257.85588795475064 263.7810216462902, 259.8312701272418 261.64358875576806, 264.56738102550935 255.48727902618504 M257.3877891349711 264.50687421096734 C258.8378085906594 263.1154806296153, 260.61355486329626 260.5788416711202, 264.27264178779546 256.17018884483616" stroke="none" stroke-width="0.75" fill="none"></path><path d="M258.2259757149732 254.40908116548843 C259.4341690411084 254.1653595531543, 261.69225953497835 254.19426937356698, 262.9915339872436 254.9064020985482 C264.29080843950885 255.61853482352942, 265.6152414372189 257.61975203422435, 266.0216224285648 258.6818775153757 C266.4280034199107 259.744002996527, 265.9969963942301 260.1382285125418, 265.429819935319 261.2791549854562 C264.8626434764079 262.42008145837065, 263.6844199924123 264.92401844389985, 262.6185636750981 265.5274363528623 C261.55270735778385 266.13085426182477, 260.27587537297336 265.13191773425973, 259.0346820314337 264.8996624392308 C257.79348868989405 264.66740714420183, 256.09434583781876 264.9151006007352, 255.17140362585997 264.1339045826887 C254.24846141390114 263.35270856464217, 253.36554423770352 261.4290704192102, 253.49702875968077 260.21248633095195 C253.62851328165803 258.9959022426937, 254.71472373910154 257.8053348173413, 255.96031075772356 256.8344000531392 C257.2058977763456 255.86346528893702, 259.9856152507396 254.7779488447198, 260.9705508714128 254.38687774573907 C261.955486492086 253.99580664675835, 261.9442033743708 254.55248011877597, 261.8699244817626 254.48797345925496 M261.5830308975112 255.25481102142447 C262.7549766297173 255.83473327878426, 264.6842637364632 257.23559439356296, 265.28218649775613 257.94113604663943 C265.88010925904905 258.6466776997159, 265.4544877565553 258.4099641346371, 265.1705674652688 259.4880609398833 C264.8866471739823 260.56615774512954, 264.3342317069032 263.2021584391894, 263.57866475003715 264.40971687811674 C262.8230977931711 265.61727531704406, 261.64953152444775 266.53856496286403, 260.6371657240724 266.7334115734472 C259.6247999236971 266.92825818403037, 258.6388091860744 266.72610853979137, 257.50446994778525 265.57879654161576 C256.3701307094961 264.43148454344015, 254.5169653306042 261.21172619721716, 253.83113029433747 259.84953958439365 C253.14529525807075 258.48735297157015, 252.71931341697703 258.5395651041822, 253.38945973018494 257.4056768646746 C254.05960604339285 256.271788625167, 256.285957381341 253.3609599136223, 257.85200817358486 253.04621014734798 C259.4180589658287 252.73146038107365, 262.0708585962829 255.06795215043192, 262.78576448364794 255.51717826702856 C263.500670371013 255.9664043836252, 262.39063907294906 255.66940789090157, 262.141443497775 255.74156684692775" stroke="#4A90D9" stroke-width="1.5" fill="none"></path></g><g><path d="M260.1884805171948 260.5701725525708 C282.1225947661252 260.2900501225583, 303.6067240942198 259.96636374274715, 349.523190400822 259.9491181482437 M259.93830600992 260.0140525445829 C279.9379115929725 260.0183950614004, 300.0602333374033 260.19412927359275, 349.9040748289402 260.2219572585617" stroke="#4A90D9" stroke-width="0.8" fill="none"></path></g><g><path d="M283.29177110509363 190.61123383347794 C283.29177110509363 190.61123383347794, 283.29177110509363 190.61123383347794, 283.29177110509363 190.61123383347794 M283.29177110509363 190.61123383347794 C283.29177110509363 190.61123383347794, 283.29177110509363 190.61123383347794, 283.29177110509363 190.61123383347794 M283.9057236030173 201.84194371096362 C287.16559250267693 199.46637458577354, 289.99525726910065 195.34197563409865, 290.9753849502704 193.1245447823216 M283.78750994144946 202.0652627925943 C285.3246688122929 200.38761541684343, 286.998993518662 198.35155104112212, 290.8410940098214 193.58421659664114" stroke="none" stroke-width="1" fill="none"></path><path d="M288.10413761957665 190.36610191141855 C289.4505080437955 190.61874431880062, 290.1899251119559 191.21006944902646, 290.8096385021837 192.3276608338844 C291.4293518924115 193.44525221874235, 291.64370473647443 195.64932710284558, 291.8224179609435 197.07165022056617 C292.00113118541253 198.49397333828676, 292.5641455243867 200.06502843979294, 291.88191784899806 200.861599540208 C291.19969017360944 201.65817064062307, 289.05112491331727 201.7280920725636, 287.7290519086118 201.85107682305656 C286.4069789039063 201.9740615735495, 285.2278895514355 202.25513668261104, 283.94947982076513 201.59950804316563 C282.67107009009476 200.94387940372022, 280.60933650487755 199.1786849384763, 280.05859352458936 197.91730498638415 C279.50785054430116 196.655925034292, 280.0886141356725 195.2690899240266, 280.64502193903604 194.03122833061278 C281.20142974239957 192.79336673719897, 282.0969936382008 190.96956095226213, 283.3970403447707 190.49013542590126 C284.6970870513406 190.0107098995404, 287.38235651250824 190.79040872085167, 288.44530217845534 191.15467517244758 C289.50824784440243 191.5189416240435, 289.60373982654903 192.48703701372403, 289.7747143404532 192.67573413547677 M288.5511626033119 190.68663131620082 C289.65845478257745 191.0519763168374, 289.51631275249053 190.9662690864087, 290.23856244496886 192.13625227095935 C290.9608121374472 193.30623545551, 292.7400125713899 196.16192341876268, 292.8846607581817 197.70653042350483 C293.02930894497354 199.25113742824698, 292.0255738553246 200.69261200445092, 291.10645156571985 201.4038942994122 C290.1873292761151 202.11517659437348, 288.68464808382987 201.89954593688134, 287.36992702055323 201.97422419327256 C286.0552059572766 202.04890244966379, 284.1871384037167 202.38885609724343, 283.21812518606004 201.8519638377595 C282.2491119684034 201.3150715782756, 282.04921590184637 200.2907769826465, 281.5558477146134 198.7528706363691 C281.0624795273804 197.2149642900917, 279.7688307936747 194.1365792646216, 280.2579160626622 192.62452576009514 C280.74700133164976 191.1124722555687, 283.22974107731403 190.08530096350793, 284.49035932853866 189.68054960921037 C285.7509775797633 189.27579825491281, 287.30094665994926 189.98350686715713, 287.82162557000987 190.19601763430984 C288.3423044800705 190.40852840146255, 287.6240793678265 190.70766409930135, 287.61443278890243 190.95561421212668" stroke="#CC3333" stroke-width="2" fill="none"></path></g><g><path d="M346.6723079138037 166.2063143160341 C346.6723079138037 166.2063143160341, 346.6723079138037 166.2063143160341, 346.6723079138037 166.2063143160341 M346.6723079138037 166.2063143160341 C346.6723079138037 166.2063143160341, 346.6723079138037 166.2063143160341, 346.6723079138037 166.2063143160341 M346.80450133282886 173.5071818509879 C350.080721253865 171.8943445381076, 352.4616347332841 167.99107843783676, 354.1307125246735 164.85813874029955 M346.81610765442963 174.43082291811143 C349.2450193777669 172.6294657950173, 350.2178712740879 170.4100028298532, 355.43060464683447 165.30950115761198" stroke="none" stroke-width="0.75" fill="none"></path><path d="M349.63778450526996 164.58289323077938 C350.8986430785384 164.35655575297517, 353.3006919666051 163.9973338294374, 354.43384588730066 164.61752103625264 C355.56699980799624 165.23770824306789, 356.302881939105 166.9043852683771, 356.4367080294433 168.30401647167088 C356.5705341197816 169.70364767496466, 355.8815864378371 171.6517047177682, 355.2368024293305 173.01530825601532 C354.59201842082393 174.37891179426242, 353.6584330347548 176.08229129430424, 352.5680039784037 176.4856377011536 C351.47757492205255 176.88898410800294, 350.02067026561747 176.0144820973227, 348.69422809122364 175.4353866971115 C347.3677859168298 174.8562912969003, 345.2756173508697 173.99236954765107, 344.6093509320407 173.01106529988635 C343.94308451321166 172.02976105212164, 344.3344881679188 170.70275565567667, 344.6966295782494 169.54756121052324 C345.05877098857997 168.39236676536981, 345.671958677604 166.99070315468222, 346.78219939402413 166.07989862896582 C347.8924401104443 165.16909410324942, 350.5433609259825 164.2310257856841, 351.35807387677033 164.08273405622487 C352.1727868275582 163.93444232676563, 351.6563327403621 165.04005861639865, 351.6704770987512 165.19014825221043 M350.50503584078507 164.65877322964528 C351.4844359275519 164.75602391102314, 353.3257265232524 165.1713291177202, 354.35516028108367 165.99971859491032 C355.38459403891494 166.82810807210043, 356.5802108434398 168.39216596196013, 356.6816383877727 169.62911009278596 C356.7830659321056 170.8660542236118, 355.8590606638716 172.27425585908952, 354.96372554708125 173.42138337986532 C354.0683904302909 174.56851090064112, 352.8587676493645 176.35889945892265, 351.30962768703057 176.51187521744083 C349.76048772469665 176.664850975959, 346.9244182094442 175.2709433975363, 345.6688857730778 174.33923793097438 C344.41335333671145 173.40753246441244, 343.80519116235644 171.90370456156614, 343.7764330688322 170.92164241806915 C343.747674975308 169.93958027457217, 344.6452943082437 169.59549333279463, 345.4963372119326 168.44686506999247 C346.3473801156215 167.2982368071903, 348.0490778432653 164.9815452523462, 348.8826904909655 164.02987284125618 C349.7163031386657 163.07820043016616, 350.19380870103214 162.44516104393423, 350.49801309813364 162.73683060345232 C350.80221749523514 163.0285001629704, 350.72518564454646 165.35495355264433, 350.70791687357433 165.7798901983647" stroke="#4A90D9" stroke-width="1.5" fill="none"></path></g><g><path d="M349.8334890151207 169.53021666649278 C349.46333264090725 190.4069402258726, 349.6770883322056 210.1867890422814, 350.57495945298956 259.4765746176324 M350.2435687208985 169.88935598507473 C350.27975806067855 197.46706585684444, 350.3331427001625 225.77560462026727, 349.89786347328004 260.03782645038973" stroke="#4A90D9" stroke-width="0.8" fill="none"></path></g><g><path d="M410.6665794715817 190.03537403704925 C410.6665794715817 190.03537403704925, 410.6665794715817 190.03537403704925, 410.6665794715817 190.03537403704925 M410.6665794715817 190.03537403704925 C410.6665794715817 190.03537403704925, 410.6665794715817 190.03537403704925, 410.6665794715817 190.03537403704925 M409.78299514122597 199.65282816158606 C412.1432715572279 197.81381360201627, 413.8857324293374 196.37463767550892, 416.0898499296804 191.83983276880429 M409.5480557237873 200.57122699166405 C410.45956418137445 198.61085975474452, 413.0506756966047 196.45065125129153, 416.7690480580348 192.14065073086635 M415.3206844653759 203.28382010485979 C416.4539804604678 201.56536159566244, 417.00902661353797 200.61460953168483, 418.0441580791152 199.85256046782104 M415.2585622574269 203.18480290524806 C416.1260529523655 201.9555691898788, 416.91656678654715 200.91642958150467, 418.5549108326587 199.61901689102444" stroke="none" stroke-width="0.75" fill="none"></path><path d="M413.9917451566586 190.08192253422044 C415.17957886711304 190.18061901020687, 417.99572113476563 191.0326320653838, 418.8050123233355 191.95371504809805 C419.6143035119054 192.8747980308123, 418.9023129426465 194.2938895529127, 418.847492288078 195.60842043050582 C418.7926716335095 196.92295130809893, 419.07736648747425 198.65723700169423, 418.47608839592425 199.84090031365668 C417.87481030437425 201.02456362561912, 416.6766663156631 202.51877067356568, 415.2398237387781 202.71040030228053 C413.8029811618931 202.90202993099538, 411.0387840948996 201.58419708439283, 409.85503293461414 200.99067808594575 C408.6712817743287 200.39715908749866, 408.40729758314905 200.30226667927468, 408.1373167770652 199.149286311598 C407.8673359709814 197.9963059439213, 407.8317785504524 195.57087419348295, 408.23514809811115 194.07279587988555 C408.6385176457699 192.57471756628814, 409.36393451369946 190.91205024839337, 410.5575340630179 190.1608164300136 C411.75113361233633 189.40958261163382, 414.4373321529895 189.46665339978324, 415.3967453940219 189.56539296960688 C416.35615863505427 189.6641325394305, 416.5124861255864 190.36624102853546, 416.31401350921226 190.75325384895547 M411.32767432641435 190.52360665949985 C412.2188664810196 190.3276079411871, 415.0837897110751 191.03039011717215, 416.35003814863745 191.93400701908718 C417.6162865861998 192.8376239210022, 418.66931371308846 194.850023210571, 418.92516495178853 195.94530807099 C419.1810161904886 197.04059293140898, 418.04311740690866 197.47331740074316, 417.8851455808378 198.50571618160117 C417.7271737547669 199.5381149624592, 418.9668131342171 201.61155968267352, 417.9773339953633 202.139700756138 C416.98785485650956 202.6678418296025, 413.4972472027977 202.05433959241373, 411.948270747715 201.67456262238812 C410.3992942926323 201.29478565236252, 409.39760987328265 200.5517394493713, 408.6834752648671 199.86103893598437 C407.9693406564516 199.17033842259744, 407.78775058801875 198.6921553794811, 407.663463097222 197.5303595420666 C407.53917560642526 196.3685637046521, 407.26204766515536 194.05667899343493, 407.93775032008665 192.89026391149736 C408.61345297501794 191.72384882955978, 411.0305013979485 190.70459723793203, 411.71767902680955 190.53186905044117 C412.4048566556706 190.3591408629503, 412.06847651078124 191.9593053811444, 412.0608160932528 191.85389478655213" stroke="#4A90D9" stroke-width="1.5" fill="none"></path></g><g><path d="M413.9623384650345 196.24612962642624 C391.3043880666078 218.20648014200668, 369.31885904111226 240.13574572577875, 349.8205089528361 260.5343145934591 M413.56119111712695 196.32440245268117 C395.7024904938303 213.83594399972336, 378.02834057428976 231.88245479086407, 349.9492953569162 260.0891033532485" stroke="#4A90D9" stroke-width="0.8" fill="none"></path></g><g><path d="M338.59960882080014 254.58975957721947 C338.59960882080014 254.58975957721947, 338.59960882080014 254.58975957721947, 338.59960882080014 254.58975957721947 M338.59960882080014 254.58975957721947 C338.59960882080014 254.58975957721947, 338.59960882080014 254.58975957721947, 338.59960882080014 254.58975957721947 M337.522781227697 267.237890789353 C344.905732773419 258.53245746981054, 348.3384946615128 255.40546012995782, 355.59727174837946 248.40472136058594 M338.69768343647354 266.6461676150266 C343.87144129219735 261.94704133554086, 346.8365230714032 256.5930754825156, 354.76204401835946 249.39668057792025 M344.00689479855396 272.0922154174536 C350.70755660144346 268.0166810023591, 352.180460490987 260.6061905046489, 361.585660248307 251.05480221457174 M344.9045180640961 270.4017126950028 C348.20716786206003 266.6107753443164, 353.03516326116835 263.72147393193177, 362.7963735569712 253.12610398531632 M355.6674546921857 272.5943813370974 C356.5758962980288 269.66576725827224, 358.2354223142563 268.59794989578154, 361.22656896463053 265.28110306182316 M355.74088614992627 271.96040694135246 C356.4227644815739 270.2594235371956, 357.87557582007423 268.29498044479027, 360.3069081408764 265.5120437680072" stroke="none" stroke-width="1" fill="none"></path><path d="M345.5890305237866 247.93032745077477 C348.0180723861981 246.86710635879848, 351.2146911412577 246.78971855139656, 353.8387165927214 247.53379601346958 C356.4627420441852 248.2778734755426, 359.89169861018365 250.0568144299371, 361.333183232569 252.39479222321293 C362.7746678549544 254.73277001648876, 362.9751575854235 258.73199614325836, 362.4876243270334 261.5616627731245 C362.0000910686433 264.39132940299066, 360.3820309044032 267.4891712022405, 358.40798368222835 269.37279200240977 C356.4339364600535 271.256412802579, 353.22901824701887 272.7971853559968, 350.6433409939841 272.8633875741398 C348.05766374094935 272.92958979228274, 345.16856428391765 271.34968095395044, 342.8939201640198 269.77000531126737 C340.61927604412193 268.1903296685843, 337.7453222432613 265.87611557775097, 336.99547627459697 263.3853337180413 C336.24563030593265 260.8945518583316, 336.2448297744934 257.6161728498422, 338.39484435203394 254.82531415300946 C340.5448589295745 252.03445545617672, 347.4716955075122 247.81497692345732, 349.8955637398402 246.6401815370449 C352.3194319721682 245.46538615063247, 353.1176030404763 247.3705234405547, 352.938053746002 247.7765418345349 M354.3988687187164 247.32651820504262 C357.0068549106854 247.98889351491027, 358.69699861509116 250.70195057449018, 360.20922016723205 252.91313258783123 C361.72144171937293 255.12431460117227, 363.6219091367685 257.93789590035993, 363.4721980315617 260.5936102850888 C363.3224869263548 263.24932466981767, 361.6518169010671 266.63605596551855, 359.3109535359911 268.84741889620454 C356.97009017091506 271.05878182689054, 352.4689504630214 273.5737458818249, 349.4270178411055 273.86178786920465 C346.38508521918965 274.1498298565844, 343.29746068012923 272.3504943899497, 341.0593578044959 270.57567082048314 C338.8212549288626 268.8008472510166, 336.40783828122784 265.8000907622371, 335.99840058730547 263.21284645240536 C335.5889628933831 260.6256021425736, 336.83139934148807 257.75493967454884, 338.60273164096174 255.05220496149258 C340.3740639404354 252.34947024843635, 343.9125337761284 248.03585671874214, 346.6263943841476 246.99643817406798 C349.3402549921668 245.9570196293938, 353.8634049488002 248.87240734805687, 354.88589528907715 248.8156936934475 C355.9083856293541 248.75898003883816, 352.74864173313995 246.82779839869855, 352.7613364258092 246.65615624641177" stroke="#000000" stroke-width="2" fill="none"></path></g><g><path d="M343.4064810656633 139.51714046866283 C343.4064810656633 139.51714046866283, 343.4064810656633 139.51714046866283, 343.4064810656633 139.51714046866283 M343.4064810656633 139.51714046866283 C343.4064810656633 139.51714046866283, 343.4064810656633 139.51714046866283, 343.4064810656633 139.51714046866283 M343.29517732673924 150.3885830393546 C345.96312060109886 147.26232628317632, 346.2001767982376 144.59052200020344, 352.7953780459318 139.57173943002095 M343.02539231728974 150.10573960759007 C345.9628437082795 146.91847616352078, 347.79283967112167 143.72613354868534, 351.91799421588644 138.88551614578984 M341.31849895541944 158.4246735466647 C347.2083746474621 151.3378463472947, 350.8704131860699 147.0123734950474, 356.85900796833744 141.156193776054 M342.28620572293624 158.45214333794075 C345.90288511235104 154.7171697450294, 349.9847348794739 149.85143599268025, 356.97478508338736 140.540163971902 M348.5855292468095 163.940760758302 C353.2344614163893 158.64791876565405, 357.06119238886976 150.6538463346672, 361.7873967069519 142.8311825451626 M347.71836240890536 162.63911917938876 C352.79133087941756 155.62630392302415, 357.81802982474494 149.05412035062812, 363.1700031156713 144.4501628118137 M354.1572399200952 164.3826919423821 C357.5310516044811 160.48071890496212, 359.49785016832794 159.3749199308626, 363.50430260675375 151.66391516569757 M354.21646228023866 163.63903940857276 C356.48192154394803 160.18942237344672, 358.99417572217266 157.0736329599662, 364.7397670411727 151.01160069506446" stroke="none" stroke-width="0.75" fill="none"></path><path d="M351.1125638764486 138.49751905294355 C353.94969513699596 138.6199542628082, 357.81675081144283 140.50167426114524, 359.8085620712261 142.36034799743996 C361.8003733310094 144.21902173373468, 362.96548937577097 147.27489677818699, 363.06343143514835 149.64956147071192 C363.1613734945257 152.02422616323685, 362.25030481717647 154.62617563113955, 360.39621442749046 156.60833615258946 C358.54212403780446 158.59049667403937, 354.575000093054 160.80318839579752, 351.9388890970324 161.54252459941134 C349.30277810101086 162.28186080302515, 346.7741320307647 162.08537123011118, 344.5795484513612 161.04435337427233 C342.38496487195766 160.0033355184335, 339.828721703513 157.86994843234837, 338.77138762061116 155.29641746437824 C337.71405353770933 152.7228864964081, 337.5092045746857 148.1799274299464, 338.2355439539503 145.60316756645156 C338.96188333321487 143.02640770295673, 340.84375184528756 141.12536363590365, 343.1294238961985 139.8358582834092 C345.4150959471094 138.54635293091476, 350.2052297259841 138.03345971703234, 351.94957625941584 137.86613545148492 C353.69392279284756 137.6988111859375, 353.541929661979 138.5045429065483, 353.59550309678883 138.83191269012462 M347.1048114700875 137.36376117625625 C349.67991359555003 137.09095636312716, 353.73711110097383 139.01039678005372, 356.27029776802715 140.25994761886585 C358.80348443508046 141.50949845767798, 361.51859636685873 142.68898249009095, 362.3039314724074 144.86106620912904 C363.08926657795604 147.03314992816712, 362.0118276841071 150.63917671011066, 360.98230840131896 153.29244993309428 C359.9527891185308 155.9457231560779, 358.4296088399032 159.11385653495915, 356.12681577567844 160.78070554703078 C353.82402271145367 162.4475545591024, 349.8304403659663 163.6158751668503, 347.16555001597027 163.29354400552398 C344.50065966597424 162.97121284419768, 341.87711561749035 161.21651320160223, 340.13747367570227 158.8467185790729 C338.3978317339142 156.47692395654357, 336.9291422279972 151.82576804717755, 336.7276983652417 149.07477627034797 C336.52625450248615 146.3237844935184, 336.80728013232215 144.10824981477765, 338.92881049916906 142.3407679180954 C341.050340866016 140.57328602141314, 347.7829479159747 139.23891801678084, 349.456880566323 138.4698848902545 C351.13081321667124 137.70085176372814, 349.0231268952792 137.6590512794629, 348.97240640125864 137.72656915893725" stroke="#000000" stroke-width="1.5" fill="none"></path></g><g><path d="M323.98405637267626 150.35694267320028 C336.08470080643156 148.07390053077418, 348.79348059808626 151.8201175898324, 376.653468722087 150.13542822592996 M324.746942945042 150.68244393888557 C341.9262984254262 148.894064359537, 360.92769115572827 150.598974754306, 375.0271290144658 150.94697156840311" stroke="#000000" stroke-width="0.8" fill="none"></path></g><g><path d="M351.1663086240623 124.34266515306103 C348.01866245284737 140.43119910742547, 350.25323291742285 152.35267884416734, 348.42427952267275 175.87799195548573 M349.62854094324445 124.27045081700811 C350.1018895285639 144.5626504987935, 349.4772018614781 162.44107308313872, 350.5138203159445 174.9766676166198" stroke="#000000" stroke-width="0.8" fill="none"></path></g><g><path d="M512.1025134410384 345.7879488354898 C512.1025134410384 345.7879488354898, 512.1025134410384 345.7879488354898, 512.1025134410384 345.7879488354898 M512.1025134410384 345.7879488354898 C512.1025134410384 345.7879488354898, 512.1025134410384 345.7879488354898, 512.1025134410384 345.7879488354898 M514.3558365557544 354.21844612563854 C517.2510066314957 350.2780167785265, 521.3363776585 344.7502929930384, 524.1820205614764 342.2481490579127 M512.5730410660155 353.51567604697266 C515.6712438055331 350.8484200120682, 518.4634985047113 347.9879745759671, 524.6234266590262 341.9556210083097 M517.1127452126107 359.87373641590483 C522.1588456152949 355.05194744325746, 527.2517232802779 347.4209321147755, 526.9944805350448 345.51062579495374 M516.8879758029522 358.80135452327346 C521.7168176556215 353.3276385699099, 525.1533095688914 348.7416124662678, 528.8082276472977 345.6000702048091" stroke="none" stroke-width="0.75" fill="none"></path><path d="M516.4097180462729 341.5649234250474 C517.9685613484136 340.6109978515848, 520.7475867112563 340.34588279005663, 522.6667076494359 341.00040597496456 C524.5858285876155 341.6549291598725, 526.8265949065583 343.9005885285412, 527.9244436753504 345.4920625344952 C529.0222924441425 347.08353654044913, 529.4092933586743 348.8305524996133, 529.2538002621889 350.54925001068835 C529.0983071657034 352.2679475217634, 528.4533651575446 354.44223358563465, 526.9914850964376 355.80424760094553 C525.5296050353306 357.1662616162564, 522.6730253855608 358.3062451845069, 520.4825198955471 358.72133410255356 C518.2920144055333 359.1364230206002, 515.4045731860075 359.40784788257355, 513.8484521563555 358.2947811092255 C512.2923311267035 357.1817143358774, 511.40396472695477 354.16515919181353, 511.1457937176351 352.0429334624651 C510.88762270831546 349.92070773311667, 511.24480918671713 347.4293455955189, 512.2994261004376 345.5614267331349 C513.354043014158 343.6935078707509, 516.272097613022 341.5385627746417, 517.4734951999578 340.8354202881613 C518.6748927868937 340.13227780168086, 519.5559394606115 341.0461174177854, 519.5078116220526 341.3425718142524 M517.7377957839619 342.25922024357544 C519.4358848647074 341.7300313479858, 521.3732562295623 341.21974345986854, 523.2192886018736 341.9520538509127 C525.0653209741848 342.68436424195687, 527.9155012055364 345.05180325985094, 528.8139900178296 346.6530825898403 C529.7124788301228 348.2543619198297, 529.0787018367537 349.5338918408951, 528.6102214756324 351.55972983084894 C528.1417411145112 353.5855678208028, 527.691789584199 357.45235588713047, 526.0031078511024 358.8081105295634 C524.3144261180058 360.16386517199635, 520.4260128494661 359.9060118198188, 518.4781310770528 359.6942576854464 C516.5302493046395 359.48250355107405, 515.4448200061971 359.2587400304963, 514.3158172166227 357.5375857233293 C513.1868144270483 355.8164314161623, 511.9853235893298 351.7603471930973, 511.70411433960606 349.36733184244446 C511.4229050898823 346.9743164917916, 511.8269599501299 344.3689483684286, 512.6285617182801 343.17949361941237 C513.4301634864304 341.9900388703961, 515.5620449515319 342.6400080117627, 516.5137249485077 342.2306033483471 C517.4654049454836 341.82119868493146, 517.8576018417853 340.54614151443513, 518.3386417001351 340.7230656389185" stroke="#4A90D9" stroke-width="1.5" fill="none"></path></g><g><path d="M514.274382960509 350.4101355897183 C515.3025792263884 351.7943037270757, 516.1756280917577 352.50682326053425, 517.7347565856547 355.9367416581692 M513.9447558437779 349.837686002549 C514.9810563750601 351.77427741685057, 516.3805601757119 353.22813999911386, 518.2708803533047 355.8992246557788" stroke="#4A90D9" stroke-width="2" fill="none"></path></g><g><path d="M517.4251943568471 357.24209532227707 C520.5555884835095 351.58605964727764, 525.5517662007425 347.0007934073156, 528.567045358718 343.2603882712481 M518.6498183046575 355.6284799366158 C521.9615277154845 350.53086635701413, 526.4200541756993 345.9274468796991, 528.3129443702541 343.5829648874437" stroke="#4A90D9" stroke-width="2" fill="none"></path></g><text x="400" y="560" text-anchor="middle" font-family="sans-serif" font-size="16" fill="#222" font-style="italic">The fix is never everyone should just cooperate. It's redesigning the game.</text></svg>