<?xml version="1.0" encoding="UTF-8"?>
<svg width="800" height="600" viewBox="0 0 800 600" xmlns="http://www.w3.org/2000/svg"><rect width="800" height="600" fill="#FFFFFF"></rect><g><path d="M162.31819318452156 241.80204013610648 C162.31819318452156 241.80204013610648, 162.31819318452156 241.80204013610648, 162.31819318452156 241.80204013610648 M162.31819318452156 241.80204013610648 C162.31819318452156 241.80204013610648, 162.31819318452156 241.80204013610648, 162.31819318452156 241.80204013610648 M156.27744088713973 258.6366193560701 C162.5084361682457 251.41432780419657, 169.5158860175916 247.52119885939166, 178.33598303800562 236.10186968323677 M158.71035119045243 260.02982176605076 C162.20358674133638 254.47440763729776, 166.95037720653326 250.041612928058, 179.1193763991868 235.3016740840786 M155.87008179671284 271.67858619202025 C164.9609210633439 265.6388423634681, 171.45429773355616 257.3227762921254, 187.39755001137763 237.6766862668667 M157.6608038948041 272.8140667941172 C167.92611230937092 260.979984339015, 177.17812131172906 249.8526444084452, 184.8087745106189 238.4986872936077 M164.70212771107882 275.8662809402687 C177.28098635818628 262.09625373588057, 186.4217749202575 250.07919024322663, 192.83752552089987 243.87369692542532 M163.4014473612103 277.2392295592749 C171.76623952394155 266.1150247916697, 179.78624018449028 258.07941739331017, 193.37002088797166 243.3817985265392 M169.5273126238237 281.8803352069914 C182.3394630615317 268.8102472815424, 190.58543363745883 257.6790849348533, 202.08921196127514 245.04841027414946 M169.94448932131485 280.5417222532927 C177.92039428468684 272.73900293237057, 183.5169137508815 265.305686322019, 202.11702593279657 245.69727728788737 M175.99323027079882 286.12413161014587 C185.5081099770476 276.3832320879853, 197.54378751019442 263.93952211458566, 205.93917862546039 251.67297400755098 M176.22753225097614 285.5808806083251 C184.50066345832235 278.2182902792896, 193.0232282251164 268.3895725946662, 206.3376235525559 252.58626638540184 M189.52218344179892 285.43821012732155 C197.74204038990547 275.42950839517374, 203.377067334315 265.46337282158504, 212.93149012718914 257.1018263416144 M189.06626699118533 283.4400037509485 C195.94292390453123 275.9836367353438, 204.3921697756131 268.4285974261665, 211.2876999882365 259.8296999998283" stroke="none" stroke-width="1" fill="none"></path><path d="M180.31510809380268 234.90512469082256 C185.56121998994172 234.36648199653078, 191.85811469368974 237.21860356787352, 196.15509612747113 240.49442782455355 C200.4520775612525 243.7702520812336, 204.8494079651114 249.29293554528564, 206.09699669649103 254.56007023090277 C207.34458542787067 259.82720491651986, 206.50716751478208 267.32166121616837, 203.64062851574897 272.09723593825623 C200.77408951671586 276.8728106603441, 194.26819491727872 281.5933721990119, 188.89776270229234 283.21351856343006 C183.52733048730596 284.8336649278482, 176.78427863694614 283.67210612339665, 171.41803522583078 281.818114124765 C166.05179181471541 279.9641221261333, 159.469188416361 276.2116091023532, 156.70030223560016 272.08956657164 C153.93141605483933 267.9675240409268, 153.84322906754988 262.16273929022367, 154.80471814126585 257.0858589404857 C155.76620721498182 252.00897859074774, 157.98871841548316 245.12339494712347, 162.46923667789602 241.62828447321223 C166.94975494030888 238.133173999301, 178.35652858725373 236.91251602115142, 181.6878277157429 236.1151960970183 C185.0191268442321 235.31787617288518, 182.41575287301134 236.52715367128226, 182.45703144883115 236.84436492841343 M183.22953113226322 236.95230916270148 C188.55685193256673 236.7946063113469, 193.96589368692153 238.3144684869199, 197.88671547346388 242.00175274057872 C201.80753726000623 245.68903699423754, 206.24683633706917 253.5930126797101, 206.75446185151728 259.07601468465447 C207.26208736596539 264.5590166895988, 204.52894127146428 270.7261943146346, 200.93246856015256 274.8997647702449 C197.33599584884084 279.07333522585515, 190.63686854390738 283.07976086183334, 185.17562558364693 284.11743741831606 C179.71438262338648 285.1551139747988, 173.2078060723258 283.5523973195982, 168.16501079858992 281.1258241091411 C163.12221552485403 278.699250898684, 157.13243021051218 274.01218992453937, 154.9188539412316 269.5579981555734 C152.705277671951 265.1038063866074, 153.15754673329894 259.3771969231492, 154.88355318290635 254.40067349534527 C156.60955963251376 249.42415006754138, 160.46275097454733 242.99480756096827, 165.27489263887603 239.69885758875 C170.08703430320472 236.40290761653173, 180.77405452970854 235.07434322689335, 183.75640316887845 234.62497366203561 C186.73875180804836 234.17560409717788, 183.55035149743784 236.1249874706133, 183.16898447389545 237.00264019960355" stroke="#000000" stroke-width="2" fill="none"></path></g><g><path d="M180.85398822892768 209.49917203704177 C179.7627838155679 245.49126022458836, 182.15905156033807 281.3559480844817, 178.51811449003853 311.78781153552626 M179.68053431223194 210.05104231171404 C179.62968326268117 241.3149479685262, 181.23650169538806 270.70426075616905, 179.07298437085726 309.5541406469048" stroke="#000000" stroke-width="1" fill="none"></path></g><g><path d="M129.43026454329564 261.8515562799778 C160.99086812486505 260.257914336411, 195.7738292645652 260.1441198808386, 228.05798553505463 260.34961174536494 M130.12481817891717 259.61711860710443 C165.89134601462027 259.77617575589437, 200.67616330972714 259.8133253626859, 229.31252967731066 259.0152228722403" stroke="#000000" stroke-width="1" fill="none"></path></g><g><path d="M98.94818464597877 238.3026145808065 C108.30910800159904 242.08459401285205, 117.02901674693508 242.82039060845207, 130.87998929593624 250.9854152403782 M99.42203192367433 240.00184831906816 C108.59484443221034 243.39349302497322, 116.5543622350014 245.67386592429796, 130.98964695681042 250.25971432145982" stroke="undefined" stroke-width="2" fill="none"></path></g><g><path d="M260.708022086062 279.74858891768133 C250.70611968815604 276.0492974857448, 241.94304138692226 275.0054311240733, 230.1537105976737 271.7633031841549 M260.0557973399568 279.66489175528824 C252.80807553668876 277.0623806841114, 244.06682832328502 274.6712709080893, 230.96640086884128 270.1159864509906" stroke="undefined" stroke-width="2" fill="none"></path></g><g><path d="M486.4821735771179 254.6158515193011 C486.4821735771179 254.6158515193011, 486.4821735771179 254.6158515193011, 486.4821735771179 254.6158515193011 M486.4821735771179 254.6158515193011 C486.4821735771179 254.6158515193011, 486.4821735771179 254.6158515193011, 486.4821735771179 254.6158515193011 M484.03420736867145 262.3213921793056 C487.5325290725131 257.61115081322197, 490.53532273443443 255.51292705740644, 501.6594935296619 246.76338630074764 M486.43107455994215 262.91775632360054 C490.6247975229427 258.85154255161973, 494.1444038173794 253.81951889668304, 500.5204464148618 245.19817262545413 M488.7117717955199 268.42339771406125 C493.4171159583378 258.54951408168483, 501.0382090299582 252.76596175884384, 504.9230762897104 245.88754805994628 M489.42894738685277 267.85604068547417 C493.0135442215447 263.3091875898571, 497.94339781355114 258.27623226531165, 506.7180531738995 248.48359709041856 M492.940597779185 271.02676636370256 C498.9763352734283 264.64052897766146, 507.0428918416276 254.8683838770132, 511.13637288640916 250.29305411395302 M492.2192078673868 271.4023905361069 C497.96613588723613 262.94168660214547, 505.42529695403306 255.94575340586053, 510.5680081568407 251.46741708767306 M494.51625925738 273.7132899258802 C497.8512177358513 272.2772687228073, 504.99563532243735 264.16621474121365, 515.5611177464059 253.32937217399862 M494.7670635022693 274.7093040919967 C500.6114274304453 266.8792427455117, 507.15545671715086 261.42953952278066, 513.3660661445641 253.360226732725 M503.53656385698827 273.8040822863444 C506.9640530540294 266.70954910802266, 513.1971778340868 263.24814766766957, 514.4638051713295 260.53998283949795 M502.64067550951535 273.26065458554666 C506.96176791905424 268.8781646112915, 510.8085274295341 264.536715588861, 514.9704036147571 260.35804240168574" stroke="none" stroke-width="0.6" fill="none"></path><path d="M501.25471399371327 244.32478380288438 C504.01478156916903 244.60096565904223, 507.8699441117268 248.16274915866524, 510.21721850370767 250.63760160841466 C512.5644928956885 253.11245405816408, 514.9497110877273 256.22079740133364, 515.3383603455986 259.17389850138085 C515.7270096034699 262.12699960142805, 514.7335780230453 265.87263495276636, 512.5491140509354 268.35620820869775 C510.36465007882543 270.83978146462914, 505.29055273027234 273.33898696494595, 502.23157651293883 274.0753380369692 C499.1726002956053 274.8116891089924, 496.98777082061775 274.3172730069636, 494.1952567469342 272.7743146408373 C491.40274267325066 271.231356274711, 486.7809062815002 267.8222559960618, 485.47649207083754 264.8175878402115 C484.17207786017485 261.8129196843612, 485.14957456134516 257.53350764737183, 486.36877148295804 254.7463057057353 C487.5879684045709 251.95910376409878, 490.0701151521846 249.79504007949123, 492.7916736005146 248.0943761903924 C495.51323204884466 246.3937123012936, 500.62613489155467 244.84837660987333, 502.6981221729381 244.54232237114235 C504.7701094543215 244.23626813241137, 505.13111090538473 245.7474699880479, 505.22359728881503 246.2580507580066 M506.516899470182 246.30925555162224 C509.1359239484936 246.9395801587748, 511.4037038299254 249.55467465491543, 512.4689635255789 252.31657069586703 C513.5342232212324 255.07846673681863, 513.5165748228885 259.4596380931028, 512.9084576441031 262.8806317973318 C512.3003404653177 266.30162550156075, 511.2701891084998 270.85180961239644, 508.82026045286665 272.8425329212408 C506.3703317972335 274.8332562300851, 501.4588423166448 275.25071620790686, 498.20888571030434 274.82497165039786 C494.9589291039639 274.39922709288885, 491.2935686206567 272.3321669175811, 489.3205208148239 270.28806557618685 C487.34747300899113 268.2439642347926, 486.5539710387245 265.58294597698875, 486.37059887530756 262.56036360203245 C486.1872267118906 259.53778122707615, 486.92588584069097 255.0812197970721, 488.2202878343221 252.15257132644908 C489.51468982795325 249.22392285582606, 491.46881261110843 245.84785191729682, 494.1370108370946 244.98847277829438 C496.8052090630807 244.12909363929194, 502.6264165930975 246.96048423712193, 504.2294771902391 246.99629649243445 C505.8325377873807 247.03210874774697, 503.5655478976882 245.31911012034584, 503.7553744199443 245.20334631016945" stroke="undefined" stroke-width="1.2" fill="none"></path></g><g><path d="M480.71609865103244 244.3034270834051 C480.71609865103244 244.3034270834051, 480.71609865103244 244.3034270834051, 480.71609865103244 244.3034270834051 M480.71609865103244 244.3034270834051 C480.71609865103244 244.3034270834051, 480.71609865103244 244.3034270834051, 480.71609865103244 244.3034270834051 M473.80347776900584 258.6000376995003 C479.92886042786694 250.36546546530877, 488.5607068464061 245.62843627184068, 494.5410967368592 235.62320028470512 M474.6227074077993 259.02943542499764 C481.645748515748 251.02748149408944, 488.3078404612409 244.56707765245795, 494.3027119141426 237.79545683066027 M477.3782781859378 265.21304398042196 C486.82867829997195 255.1177773668993, 497.5674151745342 245.22020459719124, 501.55745570844067 236.2115606039498 M477.08991421021364 266.80670253524124 C481.8946563040074 259.17006816807344, 489.3783593822548 253.87821688499932, 501.3299317577964 237.7037286321175 M480.69505277859747 271.6934260607893 C484.896997293296 265.67146511916246, 495.8184283516999 255.80052614866062, 509.3819415778047 239.00302753109324 M479.67987894646603 273.40983561091144 C487.8476422783893 262.02312696215574, 498.4112197164724 253.0289888473755, 509.11477889274937 240.04469932771295 M481.76317082638695 277.24372536561066 C494.54692700386033 265.19616427556684, 508.7152016850576 250.54660671686472, 513.7449008977416 241.2818904725576 M483.3726804260101 278.6278954584329 C493.3297969143469 267.07459814600446, 502.66760470092777 256.46420871984964, 515.5788508877885 240.9756669219597 M487.36132575103204 279.96907080336996 C498.3956247679726 267.5151111810157, 510.1304540538646 255.03919166974396, 518.9923808477198 245.8342173668611 M488.5037930002524 280.5032181834876 C496.97507164684174 271.63404424561236, 505.09636582388066 261.1505490935931, 519.6619483856206 245.58023027409558 M493.30197013699564 282.84629355908874 C506.869894457982 271.91785413603304, 514.3436673524577 258.62619086241085, 525.1152347431307 250.90644810561867 M494.00714210498444 283.7369128100116 C503.0233789317112 273.1386829077585, 512.5163648906193 264.209150980215, 524.4310635829197 250.7406692428526 M504.07815628583586 281.1751586354436 C510.49455784894207 274.0900619913358, 520.3289913373058 262.24664464279005, 523.4327081504994 256.67753207279105 M502.8871582932906 281.56478774775684 C510.5447281011601 273.7217945394859, 518.3961326514147 264.7579772656409, 524.364481302829 257.94207482474104" stroke="none" stroke-width="0.7" fill="none"></path><path d="M496.01106431190385 236.59729648466976 C501.35760683811174 235.67795919403022, 508.6435868051711 237.54978776625066, 513.4263331997438 239.93537311452377 C518.2090795943166 242.32095846279688, 522.9810730070194 246.32780826632774, 524.7075426793402 250.9108085743084 C526.4340123516611 255.49380888228904, 525.8157947377257 262.53158695580765, 523.7851512336686 267.43337496240764 C521.7545077296114 272.3351629690076, 517.2781184751817 277.60546312024104, 512.5236816549972 280.3215366139082 C507.76924483481264 283.0376101075754, 500.67775955269707 284.47798236384904, 495.25853031256145 283.7298159244107 C489.8393010724258 282.9816494849723, 483.3537112995933 279.71900255991227, 480.00830621418356 275.832537977278 C476.66290112877385 271.9460733946437, 475.02411900774973 265.71651415398037, 475.18609980010325 260.41102842860494 C475.34808059245677 255.1055427032295, 476.84941835921796 248.17229594391475, 480.98019096830456 243.99962362502544 C485.11096357739115 239.82695130613612, 495.8315744163786 236.60534233043796, 499.97073545462285 235.374994515269 C504.1098964928671 234.14464670010005, 505.5732051724195 235.9274714768377, 505.81515719776996 236.6175367340117 M497.9491310151675 236.82787569722652 C503.3076826559708 236.11366220852824, 511.16097595104196 238.0563658924172, 515.458294305576 240.71599705442793 C519.7556126601102 243.37562821643866, 522.2798882059901 248.07579204686422, 523.733041142372 252.7856626692908 C525.1861940787539 257.4955332917174, 526.3994821154552 264.16653587646624, 524.1772119238674 268.9752207889874 C521.9549417322796 273.7839057015085, 515.1554116808081 279.40727967363495, 510.3994199928453 281.6377721444174 C505.64342830488255 283.86826461519985, 500.902643181165 283.74271350097206, 495.6412617960908 282.3581756136821 C490.37988041101664 280.9736377263921, 482.5998866285767 277.49437716082707, 478.83113168240027 273.3305448206777 C475.0623767362238 269.1667124805283, 472.79149340575907 262.2625945941513, 473.02873211903216 257.3751815727858 C473.26597083230524 252.48776855142026, 476.3244405918152 247.41839034563094, 480.25456396203896 244.00606669248455 C484.18468733226274 240.59374303933816, 493.9668828484625 238.20784364346065, 496.60947234037474 236.90123965390754 C499.252061832287 235.59463566435443, 496.2431556753854 235.62315822184362, 496.11010091351244 236.1664427551658" stroke="undefined" stroke-width="1.4" fill="none"></path></g><g><path d="M472.51262842785184 237.17225921432384 C472.51262842785184 237.17225921432384, 472.51262842785184 237.17225921432384, 472.51262842785184 237.17225921432384 M472.51262842785184 237.17225921432384 C472.51262842785184 237.17225921432384, 472.51262842785184 237.17225921432384, 472.51262842785184 237.17225921432384 M466.1750057082869 250.43835179252275 C475.47361052691014 244.53074048535788, 477.83643413478563 236.7044882665149, 490.38733595583284 223.7348778742525 M468.27316491755124 252.60866102788128 C477.0989053854204 241.1760840297001, 485.25542796342876 233.21881466050317, 491.1263276649038 223.90477215826843 M467.32287516376994 262.08416964042476 C475.78890639411316 248.59610591667706, 488.7109279767197 239.25854717907475, 499.97036309000225 224.14587582993798 M466.1779353436052 261.80988957658195 C476.22311390176975 252.0440230175099, 485.00669758093795 241.3644629617075, 499.2630911114381 225.12515023220632 M469.044664315865 268.1459907149706 C475.5983356060109 259.2939270691423, 482.107519168581 252.50222213296828, 507.4370562466231 227.07482059416787 M468.47166079930537 270.2253047435325 C482.1378433308521 253.63750091872583, 495.4464774573748 236.73623257747147, 505.8182817180824 225.4419981943787 M471.5404723730372 274.2135385666973 C484.75241240845514 261.3873017517574, 498.69460379385276 244.3566850523255, 514.4482323069849 225.70847599011952 M470.38502271201963 275.04711039780256 C482.08427346545835 264.6401996634807, 490.2559842529398 253.6078292111407, 513.4790605439977 227.17029507487263 M475.2398011132571 283.5817308146748 C490.1179216349767 264.3168914930498, 507.0222849329191 246.37878742102748, 518.922358677891 231.11850569154856 M472.9822365695462 281.45355048505996 C488.19585424231315 265.3702319745326, 502.8653173634494 249.04583554250934, 517.3863597744083 230.63709194356431 M478.12815759486733 284.3552427605275 C489.9030812452774 275.4750062928336, 496.23894195174535 262.51499373001144, 523.2201061663502 234.79051963430592 M477.6745172473143 286.2496860791185 C491.1930236362191 270.2280957555797, 505.15838305969044 254.21417460474677, 522.7758638753118 235.95395978699932 M483.3198531176469 291.06837529004935 C495.4960159072343 274.6974619822842, 512.7808446201408 257.58663067958713, 526.3575041917079 239.6273998253552 M481.88273257332884 288.7406714891403 C495.70694025421346 274.4867850624402, 506.9070171943209 260.323964159371, 527.4729367575446 237.91000311054898 M485.11253963329045 295.0021916272663 C497.73147088573876 283.5568151134429, 508.9447891655309 270.9285942585271, 530.9948587648097 243.10794133281087 M487.73411133036166 293.5660383314828 C496.79659455363094 282.98949679584206, 507.12949154543634 271.31243279722435, 530.1247437594268 243.5444127811322 M492.7641622538696 294.18551921462443 C505.86898149762476 284.6978391145032, 514.5189422176246 269.3607468898548, 531.7796938446063 250.51196534321568 M494.94531686865366 293.910511951907 C504.31827521032847 283.6601058040549, 513.9085014010884 271.58685480067726, 531.4760105935409 251.46788043814342 M501.00877995886333 296.8717989812844 C513.6186701656839 281.9067342151552, 523.9068327203111 266.304153571729, 534.7783981262756 258.1322084736484 M502.1901815394041 294.8364842149499 C510.2440570472737 286.56375200385764, 518.1979999940727 275.5289223424449, 532.7580686937317 258.9426597119504 M507.9097714148544 294.45150440074127 C515.3891123432008 286.31976288487715, 522.8244898798048 281.69565839306813, 531.77257568943 271.7399654072355 M508.69175328216176 296.54709778384563 C514.7501237886119 288.9862111324999, 520.6750107123191 282.32004833416727, 530.1289015972491 270.4524112081648" stroke="none" stroke-width="0.8" fill="none"></path><path d="M490.1385798610341 224.28558883665298 C496.08121290624194 222.28339298529693, 505.97324262333854 223.92378513614324, 512.476791522159 226.63470792177407 C518.9803404209796 229.3456307074049, 525.6901307360805 234.59254264976576, 529.1598732539571 240.55112555043797 C532.6296157718338 246.50970845111019, 533.877247620904 255.2234537971902, 533.295246629419 262.38620532580734 C532.713245637934 269.5489568544245, 529.62357155172 278.0270907101645, 525.667867305047 283.5276347221409 C521.712163058374 289.02817873411726, 515.9311247617709 293.6063819784826, 509.56102114938096 295.3894693976656 C503.190917536991 297.1725568168486, 493.753529114396 296.81285918004806, 487.4472456307072 294.22615923723885 C481.1409621470184 291.6394592944296, 475.36365473735475 285.7998609625294, 471.7233202472481 279.8692697408104 C468.0829857571415 273.9386785190914, 465.446455475235 265.79010698952504, 465.6052386900676 258.64261190692474 C465.76402190490023 251.49511682432447, 468.2277870247869 242.68147429932603, 472.67601953624387 236.98429924520877 C477.12425204770085 231.28712419109152, 488.8606953149647 226.53120761642973, 492.29463375880954 224.4595615822212 C495.7285722026544 222.38791554801267, 493.2723575731691 223.99059116951858, 493.2796501993131 224.55442303995764 M498.8648782677815 222.81322112492313 C505.3075048253131 222.2200558302607, 515.3668081606256 226.746571051146, 520.7975801819367 231.0355180422989 C526.2283522032478 235.3244650334518, 529.3934672750032 242.00733747345282, 531.4495103956477 248.54690307184057 C533.5055535162923 255.08646867022833, 535.0228992145942 263.2927950245137, 533.1338389058038 270.27291163262544 C531.2447785970135 277.2530282407372, 525.8240852542159 286.3347429590378, 520.1151485429054 290.42760272051095 C514.406211831595 294.5204624819841, 505.82958771164664 295.07662980451386, 498.88021863794137 294.83007020146454 C491.9308495642361 294.5835105984152, 483.60656974348615 292.92546497061215, 478.41893410067394 288.9482451022149 C473.2312984578617 284.97102523381767, 469.3894777863749 277.87059358747615, 467.7544047810683 270.9667509910811 C466.1193317757616 264.062908394686, 466.31562202775416 254.0445005852976, 468.60849606883414 247.5251895238447 C470.9013701099141 241.00587846239176, 476.1692756434715 235.7618828435665, 481.5116490275483 231.85088462236345 C486.85402241162507 227.9398864011604, 497.581021597218 225.34093480943778, 500.6627363732949 224.05920019662642 C503.74445114937174 222.77746558381506, 500.25511953686686 223.400306374722, 500.0019376840096 224.1604769454953" stroke="undefined" stroke-width="1.6" fill="none"></path></g><g><path d="M551.2066782582965 261.8643473101239 C556.4762646646277 259.97285558232664, 560.5660678691717 259.6204254098092, 568.5275324857922 261.9570196787077 M549.202627473247 260.5178466654828 C556.5950596441069 259.9496816853277, 562.3467667630042 259.1923755958722, 570.370722903714 260.8642802830773" stroke="undefined" stroke-width="1.5" fill="none"></path></g><g><path d="M451.5795531542986 261.1774438173636 C444.5836733862256 258.7796905463821, 435.5408011324229 259.84169463579514, 431.5907855229023 261.1198106589822 M450.26296708011915 260.0441353546725 C445.066001762704 259.41933915558445, 440.04761237946224 258.9512957354553, 429.5423462298433 260.27856434890776" stroke="undefined" stroke-width="1.5" fill="none"></path></g><g><path d="M501.9045609450717 210.2958054564083 C499.6000829881394 204.0152859826505, 498.60954019352187 203.5850177375233, 500.4826182427111 191.55575954715079 M499.9366661946262 209.26356285153307 C499.29638834108687 202.9590386762747, 500.7868003748462 194.28338397617324, 499.171374728395 190.94093800724116" stroke="undefined" stroke-width="1.5" fill="none"></path></g><g><path d="M498.87264263680885 311.55848172682175 C501.5249293065504 312.9966020711728, 500.2433229644348 318.96453746262563, 501.80608311236335 330.6275301217232 M499.48362482572327 309.09202437834387 C499.11770734419025 317.7738335999694, 499.4881320544165 323.5012383309233, 499.0005535615796 330.13014874729686" stroke="undefined" stroke-width="1.5" fill="none"></path></g><g><path d="M455.51233181119915 174.6936590659684 C455.51233181119915 174.6936590659684, 455.51233181119915 174.6936590659684, 455.51233181119915 174.6936590659684 M455.51233181119915 174.6936590659684 C455.51233181119915 174.6936590659684, 455.51233181119915 174.6936590659684, 455.51233181119915 174.6936590659684 M455.6081134141961 183.8322717965412 C456.4528368139114 182.0214234386544, 460.48285875509356 178.75418573309886, 462.7217592706828 176.26229792654414 M455.7762193508537 183.64883996366953 C457.73955477174434 181.14333715305366, 459.76384465469533 179.3033067513558, 462.8438177564708 175.48652322624395 M461.99097400779425 185.16073669759464 C464.47939419664635 182.48862807751715, 465.51894151305663 181.15534075835475, 467.7204043511678 179.0753617127962 M462.31599451449483 184.86871939946224 C464.0645429035972 183.317432581636, 465.18585909943323 181.82648419889875, 466.88991160816516 179.7052744010752" stroke="none" stroke-width="0.7" fill="none"></path><path d="M459.9357858840514 174.78526179028023 C461.26802125425775 174.7651458484885, 462.02267317295514 175.09561170880164, 463.11254104193756 175.83021112775134 C464.20240891092 176.56481054670104, 466.13686370234365 178.03143286478357, 466.4749930979461 179.19285830397845 C466.8131224935485 180.35428374317334, 465.79285197915465 181.9329783065115, 465.14131741555207 182.79876376292063 C464.4897828519495 183.66454921932976, 463.7159031127371 183.74963115541078, 462.56578571633054 184.3875710424332 C461.41566831992395 185.0255109294556, 459.4852511398525 186.83051446363356, 458.2406130371124 186.62640308505516 C456.99597493437227 186.42229170647676, 455.77334064248305 184.37402834177186, 455.0979570998899 183.16290277096272 C454.4225735572968 181.95177720015357, 454.16719888791016 180.7160306207582, 454.1883117815536 179.35964966020032 C454.209424675197 178.00326869964243, 454.2101812439253 175.92508078923137, 455.22463446175044 175.02461700761543 C456.23908767957556 174.1241532259995, 459.233123694926 174.02947255883512, 460.27503108850425 173.9568669705047 C461.3169384820825 173.8842613821743, 461.4350220746186 174.40277330759704, 461.4760788232198 174.58898347763298 M459.4684243334425 173.02574532130686 C460.742042491781 173.0795938933141, 461.9711038093801 175.79083105893253, 463.1578095205702 176.61498687638755 C464.3445152317603 177.43914269384257, 466.0986075366258 176.8409028402097, 466.58865860058285 177.97068022603705 C467.0787096645399 179.10045761186439, 466.62475240313466 182.19638711475199, 466.09811590431235 183.39365119135152 C465.57147940549004 184.59091526795106, 464.9612767095871 184.6320100015974, 463.42883960764897 185.15426468563425 C461.89640250571085 185.6765193696711, 458.51660338768505 187.05852522716546, 456.90349329268366 186.5271792955727 C455.2903831976823 185.99583336397993, 454.03122057132754 183.3358333090999, 453.7501790376407 181.96618909607758 C453.46913750395385 180.59654488305526, 454.6205224102549 179.40678477296274, 455.2172440905626 178.3093140174388 C455.81396577087025 177.21184326191485, 456.55144877112514 176.13956066449714, 457.3305091194868 175.38136456293384 C458.1095694678485 174.62316846137054, 459.6727479009442 174.1538347473088, 459.8916061807324 173.760137408059 C460.11046446052063 173.3664400688092, 458.41510521892155 173.07980390463317, 458.64365879821605 173.01918052743497" stroke="undefined" stroke-width="1.4" fill="none"></path></g><g><path d="M459.7000295371204 190.10013955092683 C458.55953439255507 197.71710551065172, 461.39455621614565 203.20864677153997, 460.82029119144977 213.50075296611942 M459.2966330122933 192.58188582337672 C458.93276492279205 200.17437308117871, 460.59331780657106 208.23242010414157, 459.42311197414364 215.67064629757317" stroke="undefined" stroke-width="1.2" fill="none"></path></g><g><path d="M537.4655416747366 174.38379588097573 C537.4655416747366 174.38379588097573, 537.4655416747366 174.38379588097573, 537.4655416747366 174.38379588097573 M537.4655416747366 174.38379588097573 C537.4655416747366 174.38379588097573, 537.4655416747366 174.38379588097573, 537.4655416747366 174.38379588097573 M536.5988170475102 183.8752240109953 C538.3768481195114 183.03492372805897, 540.6578903693687 179.58253451737824, 543.9491400293049 177.44651989847782 M537.0422073656057 184.03529270346158 C538.9696344164856 181.55255576011987, 541.0311762956189 179.36180885972524, 543.1337886062097 177.23462959098444 M542.4629469116552 187.70250480167317 C542.9710120515216 185.62545168906914, 543.7251356571712 184.12201533134245, 547.1552715593892 182.84067496225535 M541.7556298569979 187.2982193259152 C543.5706464735515 185.9347254012549, 545.1241625492326 183.67565687096035, 546.4013344474691 182.40585959693303" stroke="none" stroke-width="0.7" fill="none"></path><path d="M537.3587157674634 174.5066850297756 C538.3832606153532 173.98735574888389, 539.4601954349819 174.00991090147153, 540.8036042236423 174.2725875937326 C542.1470130123028 174.53526428599366, 544.6743167646558 174.93903820564785, 545.419168499426 176.0827451833421 C546.1640202341961 177.22645216103635, 545.3096644238718 179.70135393517427, 545.2727146322632 181.13482945989807 C545.2357648406545 182.56830498462188, 545.9375811501072 183.86795687666813, 545.1974697497739 184.68359833168498 C544.4573583494405 185.49923978670182, 542.1206546388171 185.96257159034545, 540.8320462302628 186.02867818999906 C539.5434378217085 186.09478478965266, 538.6412799708024 185.84558569483235, 537.4658192984477 185.08023792960657 C536.290358626093 184.31489016438078, 534.1232162210621 182.79690966340894, 533.7792821961344 181.43659159864433 C533.4353481712068 180.07627353387971, 534.6618915666401 178.27173464692697, 535.4022151488817 176.91832954101892 C536.1425387311234 175.56492443511087, 537.6225560744908 173.84734886764537, 538.2212236895843 173.31616096319595 C538.8198913046779 172.78497305874654, 538.9446017241713 173.5372251491974, 538.9942208394425 173.7312021143224 M539.447830575609 172.74885582709777 C540.577937472634 172.7419581385836, 542.7376721050564 175.03789936582925, 543.6909129152606 176.0077844854254 C544.6441537254648 176.97766960502153, 544.9050768088755 177.8097902010105, 545.1672754368342 178.56816654467465 C545.4294740647929 179.32654288833882, 545.3926221959608 179.61019090953317, 545.2641046830128 180.55804254741037 C545.1355871700647 181.50589418528756, 545.4687949054063 183.45208948332626, 544.3961703591459 184.25527637193773 C543.3235458128855 185.0584632605492, 540.2097448431089 185.42906896827412, 538.8283574054507 185.3771638790791 C537.4469699677925 185.32525878988406, 536.9728778083329 184.58654606446157, 536.1078457331967 183.94384583676762 C535.2428136580604 183.30114560907367, 533.7382285856484 182.73098945677958, 533.6381649546331 181.5209625129153 C533.5381013236179 180.31093556905103, 534.4410734446452 178.14598617067747, 535.507463947105 176.68368417358195 C536.5738544495647 175.22138217648643, 539.4724652322336 173.12749769742229, 540.0365079693916 172.7471505303421 C540.6005507065495 172.36680336326194, 538.9079583101616 174.2504604769594, 538.8917203700523 174.40160117110088" stroke="undefined" stroke-width="1.4" fill="none"></path></g><g><path d="M540.5096575207345 192.69647856768893 C541.296545915126 196.76669457303714, 538.5298938452017 203.97124181875566, 539.655761352498 215.8155135341974 M540.8184905181546 191.3314259521958 C539.8989159737871 196.92345752067047, 540.3583803345246 201.60816579751716, 539.2934515171391 215.6994966742296" stroke="undefined" stroke-width="1.2" fill="none"></path></g><g><path d="M249.78117524163616 259.1929326080314 C282.84884893293463 260.4365476175896, 315.37842780812673 259.514492170666, 399.7148528999519 259.61397744476096 M250.49603718605533 260.19883529270305 C280.5481127967953 260.25943643650305, 312.4502601922287 260.71263395145365, 400.2397780179328 259.56076511419536" stroke="#000000" stroke-width="1.2" fill="none"></path></g><g><path d="M390.6125181597727 254.9947063454213 C391.8404477740695 256.4195086114903, 394.92213348381387 256.0199242745901, 400.25540678763474 260.59248868759823 M390.00793630353525 255.39211948756912 C393.3092542631856 257.30439979000386, 397.4215327718985 259.2168359826456, 400.22206030147305 259.4508127746082" stroke="#000000" stroke-width="1.2" fill="none"></path></g><g><path d="M389.61558641931094 264.19796031888984 C393.00821400655593 264.48175430088384, 394.96409843786273 261.89490212640027, 399.8733252630834 260.7425039846458 M389.54282807298966 265.5133407109582 C394.3854957249181 263.4298346516775, 398.43439715551847 260.55962655300135, 400.529002619543 259.4799771291841" stroke="#000000" stroke-width="1.2" fill="none"></path></g><g><path d="M129.65613090311615 340.4472837713236 C135.68844825612524 341.151762027831, 141.30863184134307 339.2843616230436, 159.14048519400495 340.592565615268 M130.20345811658007 340.0699778122938 C139.99938975914935 340.3098576375358, 149.36847448666657 339.69390190115416, 160.3311522774121 339.51751974744695 M161.04654927609812 340.9283494272794 C159.28588429415507 353.04228771000874, 159.4834661929951 365.92678423846104, 159.18550434899117 378.8788163779048 M159.99740864466116 339.74266549323187 C159.81207954022827 352.7949040860199, 160.21151965555063 364.6784714500468, 159.44684111698598 379.67128686854505 M159.6992313539635 379.76025425819324 C152.1440035436588 379.66554719615857, 143.78308078766293 378.85752405629853, 130.58871262446766 378.9262894388328 M160.34309631411037 379.7034805716436 C152.40837105719297 380.11663474603705, 143.87479941014652 380.5634707567281, 130.39878852298625 380.391170531106 M131.05755228153436 379.1277995125758 C131.1227238428737 365.74612047673463, 130.25839859926185 350.4274951328907, 130.93555409926202 338.86096956271246 M129.77658903122142 380.3915903812089 C130.461001185381 364.76291386269804, 130.26191143197752 349.0477231435139, 129.9099131091948 340.46143503307394" stroke="undefined" stroke-width="1.4" fill="none"></path></g><g><path d="M470.9165476589921 346.6572901595584 C481.2608366378934 343.1466215767062, 489.7773990156573 346.43394239490374, 519.728594448876 346.18298070951505 M469.0743695146684 345.84993563610004 C485.36508827017985 343.8964167747558, 502.0457035265428 345.4700162636486, 519.5938400489323 345.2496337607741 M520.7988150012436 344.13934116174113 C519.9696629927504 356.72441114274653, 519.8608420323407 366.2897314929019, 521.078389437912 379.866553037158 M519.1192882463586 344.8989792115398 C520.6107842812925 356.87431562670776, 519.7223287660107 367.09317717827577, 520.6745831810122 380.12023512023694 M520.688819321267 381.18570877223135 C500.5901157790295 381.47899524728774, 484.10311074254093 379.5565866918983, 468.2030145312748 381.08798592603875 M519.7883268468827 380.0687289952213 C504.5358208026972 380.504181578939, 488.54748804372105 379.487545889247, 470.4473283368051 380.18658775726203 M471.8459942378233 380.448401429641 C469.44407515048107 370.5858978709431, 469.55029580997103 358.9358803621709, 469.446605888205 343.5558799257775 M469.3555136862371 380.292230334385 C470.90865766844655 370.457663900207, 470.05535849019526 358.7381945521766, 469.35627620286357 345.8773647162499" stroke="undefined" stroke-width="1.2" fill="none"></path></g><g><path d="M493.46777069396927 343.5864689337021 C494.97225949227703 338.02350184960864, 496.56789920012267 330.1845512733514, 495.8331200822461 325.138346426858 M494.0709657523583 344.68264714362505 C494.5161860952516 339.958245917734, 495.6694746034094 333.29323226237045, 495.3787745223401 325.9975442112444" stroke="undefined" stroke-width="1" fill="none"></path></g><g><path d="M492.6957910499267 316.9928254962759 C492.6957910499267 316.9928254962759, 492.6957910499267 316.9928254962759, 492.6957910499267 316.9928254962759 M492.6957910499267 316.9928254962759 C492.6957910499267 316.9928254962759, 492.6957910499267 316.9928254962759, 492.6957910499267 316.9928254962759 M494.40566334320835 319.24659680439606 C494.81019159833056 318.76894060043804, 495.72624221173027 317.4810229475967, 497.63561549093595 315.4543855282483 M494.11884285108243 319.4974018986351 C495.0180661129149 318.67393755826447, 496.0528883392584 317.3052286948276, 497.46628977393175 316.1469219391955" stroke="none" stroke-width="0.4" fill="none"></path><path d="M495.2239349708328 314.9320143477923 C495.8518914919956 314.7958094042332, 496.6731164439042 315.03070001448873, 496.966175118535 315.4737495740912 C497.2592337931658 315.91679913369364, 497.0158099018221 316.8651271935297, 496.9822870186175 317.5903117054072 C496.94876413541294 318.3154962172847, 497.10947025559364 319.39824479687115, 496.76503781930757 319.8248566453563 C496.4206053830215 320.25146849384146, 495.2341628677251 320.10831080130794, 494.9156924009012 320.1499827963183 C494.5972219340773 320.19165479132863, 495.1715882403229 320.37468128671105, 494.85421501836413 320.0748886154185 C494.5368417964054 319.77509594412595, 493.376280708646 318.85904822164133, 493.0114530691487 318.3512267685631 C492.64662542965135 317.84340531548486, 492.4326447392521 317.39895210932696, 492.66524918138026 317.0279598969492 C492.8978536235084 316.65696768457144, 494.0707255668599 316.27194106258634, 494.4070797219177 316.1252734942966 C494.7434338769755 315.9786059260069, 494.2527297896729 316.27405078340064, 494.6833741117272 316.14795448721077 C495.11401843378144 316.0218581910209, 496.92136702432185 315.3015605234735, 496.9909456542433 315.36869571715727 M495.39463099556576 316.90516703877296 C495.92577649316837 317.26035911571364, 497.7689862464729 317.3607344147478, 498.273858985503 317.8150536692814 C498.77873172453315 318.26937292381496, 498.90764720062543 319.3009784805847, 498.4238674297464 319.63108256597445 C497.94008765886736 319.9611866513642, 496.0040311197452 319.7958200749745, 495.3711803602289 319.79567818161996 C494.7383296007126 319.79553628826545, 495.16479811612675 319.84551333239267, 494.6267628726486 319.6302312058475 C494.0887276291705 319.41494907930235, 492.5966374398175 318.6865831497675, 492.1429688993602 318.50398542234905 C491.68930035890287 318.3213876949306, 491.6254568957829 318.7967725668425, 491.9047516299045 318.53464484133684 C492.18404636402613 318.2725171158312, 493.6090380769699 317.4838882535332, 493.81873730408995 316.93121906931503 C494.02843653121 316.37854988509685, 492.72325289301233 315.55346781895594, 493.1629469926248 315.2186297360278 C493.6026410922373 314.8837916530997, 495.7589210801888 314.72037801182574, 496.4569019017649 314.92219057174617 C497.154882723341 315.1240031316666, 497.4615908110697 316.06793719098897, 497.3508319220814 316.4295050955504" stroke="undefined" stroke-width="0.8" fill="none"></path></g><text x="400" y="560" text-anchor="middle" font-family="sans-serif" font-size="16" fill="#222" font-style="italic">The pie is almost never fixed. The frame is.</text></svg>