<?xml version="1.0" encoding="UTF-8"?>
<svg width="800" height="600" viewBox="0 0 800 600" xmlns="http://www.w3.org/2000/svg"><rect width="800" height="600" fill="#FFFFFF"></rect><g><path d="M140.55828731379532 288.4413532449802 C144.57440554332175 289.3090116832972, 151.81248876833993 289.49295697100547, 161.99629438891117 289.0253254806801 M139.67566864014242 290.2962405066876 C147.65468525740647 290.22297566926824, 154.2522997590264 289.16726829245573, 160.07386577801745 289.6870305341103 M159.88390776610268 290.25048234957507 C161.51906052285867 297.5948504094157, 159.4849455034049 306.6418465895756, 161.84496470487812 321.5554114438915 M159.86902483382033 290.84622990980193 C160.7326189516172 299.0378263312615, 159.55847816714777 309.31780912492843, 160.40970490160254 320.58076238180166 M160.65555764667928 318.277482426822 C154.36081653287007 318.81388455066497, 147.99079857171657 321.429226965956, 141.05912217732174 320.5752593502779 M159.29278365201938 320.96885590215817 C152.70023970218008 319.4841496267151, 146.21918787383558 319.12944143322886, 140.3225714944835 320.13031586250685 M141.11588684595156 320.4190968540267 C139.56979470921038 310.7949926572147, 139.39079004855824 306.15870285964195, 139.06921419762477 289.2418020799868 M140.64000810406324 319.0512839541649 C139.29851772695665 309.6673446259019, 139.85426597578265 299.274654513219, 140.49291717943436 290.40378779225574" stroke="undefined" stroke-width="1.5" fill="none"></path></g><g><path d="M151.60976196770144 275.4488868903352 C147.19957812749774 280.50703665949857, 143.98633171856733 285.72462657737856, 140.46897708275424 291.66835364748704 M150.71117485750838 274.8265523474133 C146.94904142463767 280.360522310168, 143.3128397952149 285.92758678597016, 139.26658968674704 290.16440833012297" stroke="undefined" stroke-width="1.2" fill="none"></path></g><g><path d="M150.6985748554058 273.6280875532337 C152.29350723188037 278.83600989290477, 153.04168881747302 279.4967423676616, 161.0275532477323 290.69579627749647 M149.94796629680337 275.5180357773825 C153.9729280181969 280.41108228706975, 156.15947613956018 284.06377896384635, 160.79429251001469 289.1421573564439" stroke="undefined" stroke-width="1.2" fill="none"></path></g><g><path d="M188.66347949652197 269.3979873096468 C199.41612179695267 269.83731908919566, 206.516700115039 269.204741104649, 211.7489191130442 268.2612850794541 M189.93300384881493 269.7911180304179 C196.06001272133108 270.90164646647685, 201.12717829105804 270.3093943128601, 210.06338250484 270.2505214819752 M209.58233607529297 269.7947015994099 C211.21380387536797 288.9304769178902, 208.2665654047795 305.0925715747643, 210.04560455952776 318.0584310577554 M210.68435475117886 270.84559129100745 C209.8908617088009 287.74150954979166, 209.57876322098016 306.26418384456036, 210.21975469118624 320.681236553541 M209.04435780231287 320.76360412767946 C203.51600719630196 320.3500424656222, 199.76588094345217 321.41457026498836, 190.86633518389806 319.2045901061894 M209.23125121038356 320.8694050296977 C202.8071273639464 320.63635369898554, 196.24024686497899 319.68246144041575, 189.3089920778053 320.73505310951583 M189.07333189836743 321.6043497598579 C192.3162181624464 301.89205774722484, 188.91572241442236 283.42870110679297, 191.1019798980589 269.3049333491873 M190.93154442122093 320.7214930258603 C189.58933060930073 303.7114051570662, 190.89336532091522 287.54931890909427, 190.60493085450673 270.23122987910403" stroke="undefined" stroke-width="1.5" fill="none"></path></g><g><path d="M201.6184880973217 255.04159877978682 C197.91611817682778 260.3581721890721, 195.38111922492118 261.89699248276304, 189.70667391115944 270.3532274705092 M200.12528271314127 254.6948497405302 C197.2759629117907 259.61991222506333, 193.67177446116165 263.3513279848278, 190.7260997157111 270.0556027627241" stroke="undefined" stroke-width="1.2" fill="none"></path></g><g><path d="M201.13539862742732 254.5611206215103 C200.72620815072062 257.5760334157277, 202.92539756820383 261.2792722171466, 211.2414870415597 271.07815896477416 M199.46652838503297 254.47761381013228 C204.1431341570201 260.78899045053095, 208.11842936992878 265.8741755653543, 209.41832616329756 269.9730889178462" stroke="undefined" stroke-width="1.2" fill="none"></path></g><g><path d="M239.7789149138854 251.19124544011032 C246.67255335672434 248.55876136616376, 251.29222096405385 248.64656657388596, 260.7740642017414 251.50821613570764 M239.14543394680382 250.1786303207146 C244.5233990634878 250.15587494962992, 248.29362041483972 250.29123032033746, 260.61749134550894 249.69806389979996 M259.8324233697538 249.5692876335058 C260.3714762507058 268.59036995488566, 259.4582774516352 285.5029153875563, 258.6721430097227 318.2442353053111 M259.6947044177826 250.78822713806687 C260.3415809635258 269.40072919803055, 259.7856423924084 289.6741138121998, 259.5115985929316 319.6290546835484 M258.94646041042927 318.8951717689728 C255.24216482427087 318.4708383232989, 251.4095350582352 318.7474773844174, 239.03579021054034 320.25972451109624 M260.58449287979334 320.1910350961505 C256.2397025391927 319.46682932778367, 250.5365356180533 319.2157836958994, 240.0262545021764 320.67003358903355 M239.21831358237915 321.1811942511285 C238.05465525657397 298.2053926982811, 240.38660423177836 274.80625375434835, 238.6759208209784 248.0036694153493 M240.06070232209902 319.08036871861134 C240.10161054765368 301.64287722108276, 240.74291738321827 281.50988656084826, 240.18761139016905 250.30419554428516" stroke="undefined" stroke-width="1.5" fill="none"></path></g><g><path d="M249.62996157802306 235.0007021722889 C247.38359406260253 238.71149923120612, 244.3790088727065 243.9975865595177, 239.14684324779208 249.7647612394287 M250.0826525681958 234.299066370217 C245.947383951182 239.53650222361412, 242.94117712853745 244.3893181764066, 240.4745918118246 250.4092975239737" stroke="undefined" stroke-width="1.2" fill="none"></path></g><g><path d="M251.56148494796403 235.53632260698262 C255.0017926248966 239.46841859807927, 257.84191439477274 247.8825890252176, 258.81290374045255 251.67238609378336 M250.32153983850685 234.15969022752589 C252.5794164110822 238.08710572475195, 255.99301852537207 242.04176342721647, 259.5173164928089 249.87796895043758" stroke="undefined" stroke-width="1.2" fill="none"></path></g><g><path d="M289.99456422832895 231.47236128045205 C296.7144176581052 228.5180820073752, 301.4953847539604 231.31840577859717, 311.39631831092066 230.65874749084819 M290.87532335268986 230.4957529376113 C297.40247308883994 230.9344772510248, 306.4132999969274 230.3593960058059, 309.1738705763083 229.83798742040537 M309.822807925806 228.4982592171428 C311.4076307537951 250.7101718062797, 310.0645404296945 267.7693302866393, 308.339795962437 320.62027567578696 M310.45355539666383 229.49344575398985 C310.11861363697994 256.0724343244887, 309.430699906821 282.5207869093174, 309.24157943347956 320.08717454014374 M308.5059081038331 320.3378875863426 C303.89743187956645 318.98134347863487, 297.3117599402275 321.89221158917826, 288.34269033762496 318.1596683316984 M309.33669166955184 320.1544711384272 C302.9907290886443 320.92142071928725, 297.5843823496488 320.800785487867, 290.3552678367328 319.14132063835314 M289.13672162786054 318.89166757973334 C291.7704691095014 293.9520415974727, 290.43376988748196 266.0525576233086, 288.93632358606715 229.80040351382183 M289.04234593292193 320.14654420705966 C289.1217599502304 295.487758476447, 288.4329588750791 270.1941613818142, 290.68126738338395 229.26492414481442" stroke="undefined" stroke-width="1.5" fill="none"></path></g><g><path d="M301.2911881782723 214.0117355373015 C297.6110126870124 219.1927257381704, 292.34425855425593 225.0969497712234, 289.03440990087904 231.52426082478112 M300.38792527085405 215.1346071661808 C296.9704087828283 221.81639745813408, 293.0317971038398 227.0703995585383, 290.4611428505648 229.68310065467492" stroke="undefined" stroke-width="1.2" fill="none"></path></g><g><path d="M299.3057947085824 214.6994193688345 C303.05382811260824 218.2531619966301, 305.68517099001537 224.55130216601867, 308.6159235668347 230.122860579874 M299.3780757825125 215.42197499074757 C302.85804408015383 218.15618560551533, 304.76208194842513 222.46361308614925, 309.52020882911467 230.78486776669732" stroke="undefined" stroke-width="1.2" fill="none"></path></g><g><path d="M339.36679405703467 210.41981264785792 C346.2198826205281 208.54552410655933, 351.3268665527347 209.70095630607298, 359.95185790945567 209.6515834970711 M339.12877210907095 210.78450202148835 C344.9109962442737 209.62503924620273, 351.04873612357017 210.27471979939014, 359.6613584647929 209.27856471170193 M359.3310189771606 208.87724796288384 C359.3520765229273 252.06519594500764, 360.5689241841036 296.1176575513433, 360.54778996736064 320.93176358665795 M359.4528585155244 210.34975518680085 C361.22262463328315 239.85828765819292, 359.9881204284876 270.8395863036387, 359.27198195818806 320.7168513068188 M358.5160436563092 321.7810684462535 C354.0078793720951 320.2027825639395, 343.7618624306851 319.10824653118937, 341.54615343517884 319.9834782304137 M359.23567829211805 319.15246948795016 C354.82472899804253 319.99568319468773, 351.45381656197793 320.2731981652077, 339.6038082640515 320.82679253902035 M340.58272144371983 319.01766758813403 C340.7021208157983 280.5489937470695, 340.04726098535804 241.3832124772153, 339.1056276971996 208.91418818481918 M340.7155122253659 320.69974984952955 C341.31449724361505 288.2205788019051, 341.2241300423423 257.50945824382825, 339.8609936006818 209.2849916587535" stroke="undefined" stroke-width="1.5" fill="none"></path></g><g><path d="M349.224236122361 196.68450664301076 C348.356171388275 197.28750448410472, 346.7646573837493 199.91644767264793, 338.3797970953053 210.9467820180411 M349.28203655313047 195.45405202257334 C346.346019759857 199.96285869154573, 342.7184581173032 206.76348753367773, 340.659227140694 209.30152533608174" stroke="undefined" stroke-width="1.2" fill="none"></path></g><g><path d="M350.96103555112444 193.56325931665413 C352.4920329308053 196.35170445074925, 354.20485531656965 199.51793125269012, 360.6422252138455 209.9212221266063 M349.40814887404997 194.3806316577462 C352.1903890548031 197.96059053137833, 353.53164413856473 201.47723092724908, 360.13863862566535 209.43661797884795" stroke="undefined" stroke-width="1.2" fill="none"></path></g><g><path d="M400.6612296994433 288.8206827004774 C406.5591094357328 289.81892007073134, 409.17327302753193 291.42543651762185, 418.59834987761496 289.14830301998575 M400.65129151668935 290.0259651928683 C405.09076241789495 289.68537805350684, 411.71183510350824 289.93804031401146, 420.1749850914639 289.16570714672565 M418.5156627746282 288.6901557807364 C418.1313427854691 299.55847579239236, 421.13586442201057 308.7737352789489, 418.3165360365738 319.5033831156688 M419.3306568426377 290.20861802182685 C419.6542969430113 296.77635030472, 420.5536976135202 305.14447516404647, 419.0687558643444 320.4677484974953 M421.2908138616354 321.82722890669885 C414.4848887341993 318.623045278726, 409.68776587438646 319.2469510528602, 400.0816266248877 319.9911177830828 M419.05627400392035 319.39739210166533 C411.8316120534897 319.98172432051786, 404.14874569009095 320.94690102704664, 399.7567859345851 320.62141617605204 M400.47656797284964 319.9483375640946 C400.1242714692863 309.62824600833716, 401.0511889656935 298.1511611130872, 398.6110996363744 290.85026210561307 M399.81260139483476 320.206325241905 C399.9792104904152 309.0933789275626, 399.5483098212278 299.02762614345977, 400.34908323250323 289.76350297309085" stroke="undefined" stroke-width="1.5" fill="none"></path></g><g><path d="M408.3070977240031 274.8098032543933 C407.6473983748508 277.61505947716046, 404.96209323578415 283.8140426969873, 400.85162076096185 291.3210383697832 M409.9214729967118 275.71634392644773 C406.734959940714 278.9928743862406, 404.20139688199066 282.3908817454663, 400.74627210586215 289.2799182920475" stroke="undefined" stroke-width="1.2" fill="none"></path></g><g><path d="M409.6818253659112 273.6761125416707 C414.2028623653983 278.0114121658947, 414.38047469242343 282.7696706634554, 419.1404173399846 289.2364672760011 M410.4486730864539 275.86717318261526 C413.0210344684331 280.3131848593713, 415.23569928425667 283.3811667399258, 420.50197639034434 290.423035283885" stroke="undefined" stroke-width="1.2" fill="none"></path></g><g><path d="M449.4278614154364 269.15701078420756 C457.9758150964301 270.8468867775795, 465.2855779457348 270.71780522628455, 468.2686219280307 270.50448501243136 M449.6990212001651 269.1101964744225 C455.5564607269154 269.16741596852216, 463.1336879480601 270.4544257622056, 469.74235144085566 270.69992321737 M469.51898045197044 269.83988270372095 C469.80166243208896 279.8078789198436, 467.94787586346547 292.7575456532996, 470.7900332420194 320.6275174086833 M470.23304305069377 269.16833663059265 C469.3435781122778 287.50924481556194, 470.43040474073666 303.03111655297647, 469.55876538020243 319.47685000507096 M470.9137823684296 319.8111439192588 C466.178381216228 321.4019392233596, 458.13683425141255 319.9404614170348, 451.5158188123096 319.69950625955835 M469.45756127547423 319.508399701661 C464.1336476604804 320.6270733859968, 458.1793949791887 320.68633241345486, 450.57668794006116 319.2311573467215 M448.64568026362633 321.3172096944979 C449.52539968161324 301.5398568886216, 450.0663779891837 284.78767232623244, 450.34235717854676 270.44976275160286 M450.58971633826013 319.3912090416612 C450.88144826438963 305.5895787465235, 449.80156328246284 290.21671128226023, 449.92041235138544 269.61090783045046" stroke="undefined" stroke-width="1.5" fill="none"></path></g><g><path d="M459.34353900577 256.47356706588306 C457.5810934077417 258.57151699977663, 454.32871900798034 259.7570331183638, 449.3310320393693 269.1877605139263 M460.34425480894805 254.12857962592307 C455.70708323599666 261.63732229337563, 452.46294810038455 267.1794239133978, 449.7044043277026 270.6134890460561" stroke="undefined" stroke-width="1.2" fill="none"></path></g><g><path d="M458.6695598803107 255.2591043838567 C461.0107717496488 256.6637356180128, 464.37421552744865 261.137235513529, 470.8262745148846 270.6689163732154 M459.70960830147993 255.80290357640655 C462.8439522435882 257.7582414992678, 465.07493146996734 261.18246498642577, 469.7018298819752 269.2096321444776" stroke="undefined" stroke-width="1.2" fill="none"></path></g><g><path d="M499.9370480257446 251.40122562536266 C505.78550783660006 250.4220407340129, 515.7476889643643 250.32971878494726, 518.7816547547393 249.94930261348097 M500.0188154677599 249.7479424996297 C506.9875100738582 250.5649692974289, 512.5620990088318 250.1473908035636, 520.6975704477318 249.67416328478086 M521.3646904494633 251.56865248637567 C521.5826755156103 269.4093409985108, 521.253627842874 286.9369567160211, 518.0454628970024 321.66369991863996 M520.4534979271161 250.70093060405532 C521.1564901642759 272.3511771742432, 519.6745397103258 293.89384288987645, 520.790818319653 319.56171584635086 M518.1885848315533 319.78893400692255 C515.636799075975 320.91734055512273, 509.19554995951034 318.3035995659692, 501.19318934933074 320.5769729638443 M520.0669373641167 319.2205367779693 C514.8813481464141 318.8507408716342, 510.2153445634593 320.79164362702204, 500.7483671234542 320.5429353411956 M499.0618267059533 321.01157926243957 C498.43932191471913 290.566624618476, 498.57966359090165 263.45552386868303, 498.51113126565247 248.1942580411191 M500.153862144785 319.71630344246455 C499.2943221611859 296.5837592788626, 498.87948608424375 274.19102374991934, 499.1135552733423 249.86755632837074" stroke="undefined" stroke-width="1.5" fill="none"></path></g><g><path d="M510.51935986617474 235.98317358229244 C508.3777374556339 236.81123182251596, 504.89110115725674 241.32218507492877, 498.5402938534628 249.83923804099084 M510.208665721984 235.10910028311028 C507.3195839966376 239.5566454778458, 503.83875535230436 244.0002110926122, 499.37271777315516 250.18304532323873" stroke="undefined" stroke-width="1.2" fill="none"></path></g><g><path d="M509.70129099434763 236.60697289419898 C513.0383013376476 240.5539919522634, 516.88450372461 242.0266216893286, 521.740083751421 249.55318073075955 M509.7971620757221 234.6087891349755 C511.7121629082264 238.49707646653732, 514.696737629391 242.97281773000137, 519.2349434970359 250.70263082677826" stroke="undefined" stroke-width="1.2" fill="none"></path></g><g><path d="M548.454214168568 231.37207732148389 C554.7212375036258 229.2347100835962, 558.6942485132341 231.47984019290604, 571.2302455729285 229.62730717837712 M549.7202791975061 230.79236075202394 C557.7626925951804 229.8814048869874, 563.041884163076 229.985798288569, 569.3470354735521 230.35168576957315 M569.8652707041457 231.10991102811465 C570.9149514162929 255.84741023345347, 568.9494181070372 277.16742676423917, 571.6093902547225 319.09093536975195 M570.1146154261564 229.01233782887238 C569.8994344416126 259.76989755970845, 570.3084619348713 288.1062690249043, 569.9017134350695 319.4126858137143 M568.8615390296958 321.59830424856574 C563.875837104841 319.3773694038388, 556.5261444619609 321.0941526349657, 551.1937091878793 321.5847225797039 M570.561489094059 319.64453227724556 C561.6005651719913 319.2081024438447, 554.8147228620523 320.5052857078516, 550.6597024348391 320.2789238317755 M549.2567877393238 321.5235078826485 C551.7003843705312 286.723134153395, 549.6870873367594 248.4130415015519, 551.4530496293792 229.0507233407033 M549.7576255952335 320.94683625696206 C549.006292864266 295.9679693124021, 549.1928446554161 270.0718107384436, 549.3330399545181 229.23599517157203" stroke="undefined" stroke-width="1.5" fill="none"></path></g><g><path d="M559.9156127369656 215.77888061448567 C556.311905222296 222.1645424383651, 550.3214828995273 226.10189966822574, 549.5219414370272 228.68858393425435 M559.6078537664903 214.9654258641307 C557.7192935684618 218.6716475137895, 553.8752072514854 224.006195119756, 550.678823928817 230.4652991876951" stroke="undefined" stroke-width="1.2" fill="none"></path></g><g><path d="M559.7815430967909 213.71266851554594 C563.0708996583963 218.31201825737142, 566.4867886269708 223.95972622396323, 571.341997838852 229.90968547214942 M560.1755633135188 214.33843006093392 C563.8612081106528 220.8654562995047, 567.8598322898231 226.4975448207084, 570.4721739380901 230.06072673198486" stroke="undefined" stroke-width="1.2" fill="none"></path></g><g><path d="M599.2994620957697 210.19940503142777 C608.3970778728786 208.39194151572198, 613.3867196563273 208.74003967872244, 619.9309568892527 210.847582623222 M600.0880503331775 209.52077562705523 C605.4501226106449 210.52910388302712, 611.6952271845224 209.55133560386795, 619.7701261074891 210.66544690956198 M621.4823012232011 211.45013204451482 C620.9119774224135 249.0009284969315, 619.5024832058924 286.4600747026406, 621.2079227062152 319.10082784595573 M620.0709666756045 210.10167926439354 C620.3079720668384 248.61975320935824, 620.1666207820466 287.0666098896526, 619.9348708836285 319.97401294951294 M620.7935608961936 318.03388872679227 C614.0005842458248 320.5542237270951, 612.8469352590871 320.85957402023854, 600.8206083321846 318.05303953059257 M619.1283336195273 319.12236458567924 C616.1678535713974 320.6747097179897, 609.9660908215993 319.8603898155883, 600.7266814096158 319.631734088095 M600.3644433211642 319.0703364152209 C598.5924858832262 291.29769237642046, 598.2029709029522 259.13001095050504, 600.7922604657344 209.0676370519774 M600.9810737050082 319.58056155979665 C598.9698871915667 294.45672369276247, 599.3348668712288 267.3242836896625, 600.7497741955589 210.34454582349196" stroke="undefined" stroke-width="1.5" fill="none"></path></g><g><path d="M611.5272111825976 194.61015328457162 C606.4714800884456 200.16433137050026, 603.0354746423114 204.95094012909593, 599.4656681718944 208.7699388212995 M609.8324204745376 195.03198068056113 C606.6474069004325 198.3549281012319, 604.539207075135 203.87533681307477, 600.6472522306776 209.21948695582742" stroke="undefined" stroke-width="1.2" fill="none"></path></g><g><path d="M610.5254069510437 193.2930897774164 C610.3952975637118 198.90433997182066, 614.8062124755648 201.7123872555256, 620.5463804586485 209.53151618171412 M609.2907194266019 195.08083812896498 C614.269325191137 199.56220157842912, 616.6526921277596 206.43380330502427, 619.6211575317166 210.32903907263199" stroke="undefined" stroke-width="1.2" fill="none"></path></g><g><path d="M348.0075722605387 339.1527053481571 C349.4748469099125 351.6798766725261, 349.65499904474274 364.6958826559467, 350.53772449515037 380.1922016120259 M350.551850391243 339.02683165081584 C350.48013011442055 350.5810657368216, 351.19267270969755 360.0973668703415, 350.388407267491 379.78494137941334" stroke="undefined" stroke-width="3" fill="none"></path></g><g><path d="M338.99138749284475 368.72963857925623 C341.70277563404954 373.0788211916452, 345.5631116126262 375.63714318091706, 349.8285588825489 380.3651063675493 M339.36327362771834 369.66409710919345 C342.10802227679494 372.7418298392533, 345.43160081359457 375.3488679411873, 350.2176979006705 380.5899264200907" stroke="undefined" stroke-width="2.5" fill="none"></path></g><g><path d="M360.81823887424144 371.0395999022099 C357.6332693646844 371.9226298507986, 354.0827018927129 373.718927504132, 351.16698420147566 378.73928730395323 M360.577216340338 370.32621855684283 C356.97553148370565 372.3817993563543, 355.0175339825237 375.9782673753832, 350.70195715057554 379.7516552485904" stroke="undefined" stroke-width="2.5" fill="none"></path></g><g><path d="M318.0918139143554 398.7467312527656 C340.73469235261496 398.965145987532, 365.87206215991245 400.64878351682944, 378.28520920616705 399.85498603552026 M320.6478985679268 399.8133607690576 C339.2097046817426 400.70588784134566, 358.05565170669826 400.4656258871072, 379.55177500280513 400.21322198647715" stroke="undefined" stroke-width="2" fill="none"></path></g><g><path d="M340.3629169691465 390.25610399254595 C347.045151646646 390.5879640169839, 354.19881679366887 388.4657192771619, 358.61322025326984 389.04725531026384 M339.9831618205222 390.65681349118864 C347.47363749033883 389.78256958792895, 355.9748004293211 390.84773390360317, 360.5496192578146 389.66282663240804" stroke="undefined" stroke-width="1.5" fill="none"></path></g><g><path d="M339.7965104249858 389.70952217173595 C340.45335319209994 393.0950172764918, 339.11038123229264 395.14094630352844, 340.39605488714903 400.65140814296547 M340.4261050858364 389.70229756268924 C340.3868456462498 392.600288422878, 339.61373875273074 394.58350221656355, 340.1427311096111 399.60330002025194" stroke="undefined" stroke-width="1" fill="none"></path></g><g><path d="M359.8203054263548 390.0964648843033 C359.2386038566798 393.81487951685165, 360.15351425361007 395.34189561084355, 360.03724255044074 400.7145555955437 M359.88460188423863 390.0755337650756 C360.38546980043895 392.62511552429277, 359.86580531897704 394.4604693253739, 360.1133854190067 399.92631879915103" stroke="undefined" stroke-width="1" fill="none"></path></g><text x="400" y="560" text-anchor="middle" font-family="sans-serif" font-size="16" fill="#222" font-style="italic">Don't win the race — change what race you're running.</text></svg>