<?xml version="1.0" encoding="UTF-8"?>
<svg width="800" height="600" viewBox="0 0 800 600" xmlns="http://www.w3.org/2000/svg"><rect width="800" height="600" fill="#FFFFFF"></rect><g><path d="M138.9029540308876 298.3110025059846 C154.76806416960972 300.13757657825124, 170.21984894190462 299.25952118579005, 183.90178345843194 298.7738590456222 M140.34335668783575 300.97287711069697 C155.1520220312449 301.2794518677648, 168.8405115971655 301.43428084944105, 184.10686189814444 299.3643539218858 M185.91112725209624 300.2450236586662 C184.55083082505132 316.6342418889721, 185.92166370258144 335.0079820149, 183.8885568148991 360.9726523285147 M185.24047672873394 299.9921646411648 C184.16572828427604 314.0634329242485, 184.21924705342616 325.93085558756246, 184.56877341040752 360.5284867978138 M185.40837705779467 359.5510622268307 C173.68382899487173 359.1893976105097, 159.18143185500372 361.9394215421733, 141.59942185104228 360.7815562679083 M184.7087125645736 359.56271664519716 C172.37019937625925 359.8364992922031, 159.85308234394518 361.12912552006844, 140.99134868726443 359.53893725712595 M140.8574654361977 360.9476820891445 C140.7450620032438 337.1828424407262, 140.08975221346648 313.396421729253, 138.82211729540208 299.2679022341486 M140.56457112921944 360.35642188749034 C141.3431868657393 337.9441407570852, 140.28266605638518 314.92691417989914, 139.01085143633642 299.2417220230389" stroke="undefined" stroke-width="1.5" fill="none"></path></g><g><path d="M203.7299201311054 268.05607265285306 C215.84655588310451 269.26527269681634, 228.16459193274113 270.9050406637574, 250.82336761244972 270.3790890933713 M204.44533101594837 270.84360489003956 C213.61775473335027 269.814394471578, 224.39553152280843 270.6008458535139, 250.3014150753835 269.0137461701453 M249.69631391171376 269.4333060411992 C249.45347706976332 298.900263813567, 248.71808309771797 328.47381616280586, 248.18648712479285 360.5824693767768 M249.70165622064536 270.50968232143896 C249.47720391186792 300.4892476906413, 250.20149833340145 332.99408940390595, 250.75773990187614 360.9489583477946 M251.28991142990088 358.0918710604459 C239.61388256437843 359.84186183172665, 232.2775844386885 360.41909754016126, 204.56098204275645 358.4630616401647 M250.78511343229806 359.68311091018234 C236.23171621667174 360.5345470879149, 224.29109406254472 359.55530936233953, 204.49631042088203 359.3331450138298 M204.20195151620493 359.671024812984 C206.7029764070357 333.0581433464813, 204.4906438951123 306.27438182075696, 203.1893751879226 271.8761917353333 M205.01089533852692 359.7181849256263 C206.01011786542944 329.12798193690753, 205.15833487247482 297.0937993952, 204.50238738857377 270.8487891409429" stroke="undefined" stroke-width="1.5" fill="none"></path></g><g><path d="M269.4104225919708 239.03575877918178 C287.1786160651062 238.65945939619345, 304.0751837104083 241.88579436392675, 316.292527425517 241.27735710585512 M269.4003302621152 239.050401447518 C282.7084967776203 240.31230842104046, 295.00557143322084 239.4615038064599, 314.12224891678795 240.9570641247399 M314.18127914929204 239.99321950444417 C315.8590065540768 283.8621214335079, 315.30695482367395 327.40599921102773, 314.66891913452923 361.1645763571111 M315.92355119773015 239.84740631331752 C314.2881650218055 283.69134217815883, 314.1423594025363 326.57902291469543, 315.1132131256681 359.648053479505 M316.6531061844377 360.4816775184426 C300.40092924937056 361.6047405426424, 286.5715049905255 360.0284478432346, 269.4759439481159 359.51654442522715 M315.0958608238476 359.2481317902429 C296.6021758301776 359.5754268847928, 278.79551876409755 360.44081589627257, 270.3057824921446 360.6775430067868 M269.775147089252 360.94531223416664 C269.7596887774502 322.2650197023737, 271.2235857453477 288.4927641735527, 270.28795488348356 239.99066328095003 M270.6411879419127 359.751518437688 C269.460906640787 325.8561752534193, 269.38273236988636 292.6400649955917, 269.59081318404054 239.143870033762" stroke="undefined" stroke-width="1.5" fill="none"></path></g><g><path d="M333.41986531381804 201.43744285852685 C344.63211460769986 198.7686156399549, 358.36899600120256 199.58926482723098, 378.63210205056254 200.40776357487252 M335.46786901050325 199.7799877346557 C350.4047397876912 199.8829238413362, 365.4749329378928 199.63992945871254, 379.6794212014295 200.23362409756083 M381.4497591587741 200.7202591466371 C379.3484784815271 257.39330947229814, 379.42299700110425 317.53359678833755, 379.13595240118804 361.07583536911034 M379.6319686481326 200.06480892238625 C380.18249071836436 250.35756916744018, 379.4834657806667 300.6196243467971, 379.9902296448162 360.6140884726959 M381.4258952842539 360.281047000727 C367.56195122361703 360.2035690471214, 357.4140396474805 358.93730495460625, 335.41099466075826 361.3209374261384 M379.2976662995177 360.6777470542369 C365.9661427776751 360.42744834526565, 350.8252709361077 360.78918984653455, 335.87951852036144 359.04816439178876 M336.6373557918641 359.8904577323064 C335.5609400766498 324.4052121218161, 335.4368534431461 291.1660859157566, 336.2981628864792 201.35556095778298 M334.3903745859164 359.92331654846924 C332.6047862323295 311.56855087376897, 333.0895962439874 264.51307540015455, 334.6033011951586 200.24576503117538" stroke="undefined" stroke-width="1.5" fill="none"></path></g><g><path d="M401.56361977764584 148.97017859782324 C417.5181534279626 151.00618946496482, 434.8457826338043 147.74716074689542, 444.8427857047051 150.68633042934275 M399.5608772636556 149.89015675878244 C413.88625454091 149.11352406439804, 425.8267299384095 150.50351856801663, 445.2709978155181 150.97223657833632 M444.6373840296382 149.73856613432656 C446.1521295567285 201.54434849771664, 444.46686739631696 253.01169517699262, 444.16987828889614 358.55862868623115 M445.2222968392243 150.4250497904953 C445.83048319643177 198.60622314716903, 445.770540555847 246.81031728005982, 445.6222648029622 359.86245352850017 M446.6619313934415 358.9748658739708 C428.8170759047541 358.57356005955484, 415.31813169062286 361.99132886129667, 400.26863481013623 360.9465108542369 M444.15904167653423 360.59059872540956 C434.4482714200924 359.34543279175, 422.101847672124 360.5560109658605, 400.3555682936224 359.0696263361295 M398.4276765673937 360.838732297182 C402.15052769297574 309.79789491095505, 400.2286209634508 256.66622668213125, 398.28018683258546 150.13247739039335 M400.4388236613507 359.72370255891354 C400.1736767255063 304.86085187182454, 400.0665146344349 248.87189579807284, 399.43800141190405 150.49236815831313" stroke="undefined" stroke-width="1.5" fill="none"></path></g><g><path d="M463.58326790623494 89.02481356669769 C481.9994970962417 90.88954830697708, 496.6332862315902 89.46888904361559, 508.85427930314864 89.12496924743853 M465.0516421083363 89.71503643496573 C482.5969552618264 90.23796491804694, 500.5403881165506 88.89111097939225, 509.31551835979934 90.95463132188907 M508.83492849380974 89.06410128675456 C510.9924729776194 184.3199005096581, 510.6547575842454 275.63063565625043, 509.1722164734362 358.5693165591253 M510.6051393623324 89.75224577760797 C507.8733196738142 161.4518175871684, 508.9440550782363 232.58825394149588, 510.7288785075977 360.4972756210495 M511.4729947456892 361.9685166182849 C496.613584883496 361.7370110863473, 486.5843894801065 358.9820392259299, 463.6522085052279 359.16137700865977 M509.2557709615039 360.7347948167872 C501.3692652076047 359.9195821301171, 492.12208343930837 359.41186948764835, 464.55000412823364 359.74190415064277 M464.53332601667665 359.4772565264077 C463.8344996295454 289.59595797154645, 464.3194629905988 218.53224631249086, 464.3102676816421 89.66893374123292 M465.0311989229431 359.63068306701285 C466.083628489596 274.757338613871, 466.88476888050496 191.01008824055282, 464.7972270220493 89.96837264294666" stroke="undefined" stroke-width="2.5" fill="none"></path></g><g><path d="M488.084971595519 91.87532006243013 C485.3325957438201 84.49094254241814, 488.7188342541771 74.93812329763745, 487.24118401706284 58.99967492248488 M486.9644131448452 90.76053181129373 C487.7222673089132 81.9009535656797, 487.30622258217943 74.93801403328847, 487.14404117413 59.99957971220043" stroke="undefined" stroke-width="1.5" fill="none"></path></g><g><path d="M486.1713353446872 58.3917923901485 C495.2329160250452 60.07147285301036, 498.8471088369412 60.330037070345576, 505.7094022128596 59.77702847960713 M487.0359331489604 59.56877822262168 C494.73966862524424 60.920176711886704, 502.9756812885646 59.549602530333864, 506.7526470896518 60.88788060469841 M507.7332721723978 59.30278599736073 C506.85417072231473 64.54386528633604, 507.2634885558509 67.7417441756886, 507.4430502813496 72.57784144799324 M506.9975294872565 59.72375032000593 C506.4316151464371 62.76604539245026, 506.71620205278936 66.28486011929556, 507.0125167215206 72.18756234030351 M505.66828005624114 72.08697529854156 C498.2036754573214 70.55269348693523, 492.13185024313026 73.02809543955054, 487.7015016758428 71.4410135563519 M507.0171715680569 71.9706813712402 C500.34232411629563 71.84380676019279, 492.79681004573627 70.90251301456675, 487.61077093361024 72.4876854265988 M487.03268989908935 72.83072030728601 C485.84222692997616 67.86732613853953, 486.40911729330355 65.33645284960248, 486.32460525295306 60.8897731807395 M487.55177285436645 72.01557214822618 C486.7267000308827 67.70065562811295, 487.43654340240596 64.67113605707705, 487.15190308384985 60.01859120077735" stroke="undefined" stroke-width="1.2" fill="none"></path></g><g><path d="M120.3090772579439 280.02936183612843 C248.37310931947837 279.49951225536097, 376.1407914633051 279.60768035945904, 549.9584537481297 279.93242577216176 M120.0987113518119 279.99715365313233 C239.93785595445914 280.64199587868865, 359.92001443819066 280.6775236482016, 549.9348331752908 280.0849215337058" stroke="#000000" stroke-width="1" fill="none"></path></g><g><path d="M145.65381248367584 169.80601185322524 C155.29640216954505 170.54523395715356, 164.53467016354256 170.9246704953877, 175.43047835748567 170.86206559424716 M144.77622353076 169.7615414200577 C152.07434140807823 169.71029058677283, 159.10381993777924 169.63857166411606, 174.60379308027345 170.21379289046948 M175.29577867951195 169.69768527330197 C175.0741805005258 172.8867053400271, 174.86068539496404 175.3464936916082, 174.90494469626407 181.56423532976368 M174.76885621816677 169.96119886477805 C175.05102995903374 173.07332194723747, 175.24082849224916 175.7121937768864, 174.89099735850715 181.7426920682908 M174.45209242835043 182.7938667490365 C166.57512659805118 181.25230064694026, 155.79578644827 182.67085419434545, 144.10687910818058 181.94122270173187 M175.07762565323947 181.62078539802593 C168.41676324688632 181.54644982898438, 161.00911451206147 181.54640302472168, 144.71010539024846 182.03964310846942 M144.58190688925848 182.3801934320507 C144.79104348541694 179.02864456640293, 144.87210642510902 176.49024340262335, 144.6706627114715 169.76988680165587 M145.06929850558063 182.25587231299755 C144.86398052821352 178.0543196063043, 144.97137832648096 173.95444574903493, 145.04165737417458 169.96055438589428" stroke="#000000" stroke-width="2" fill="none"></path></g><g><path d="M159.91488280762712 182.83854100981773 C158.96901646842772 188.00924009247336, 160.82134649493315 194.50641922633937, 159.84905129329226 199.11303983305 M160.39743380673798 181.21012454567537 C160.66629030053417 186.0223942447591, 160.39604555759942 189.87475914839354, 159.88595472042627 199.50978413249922" stroke="#000000" stroke-width="2" fill="none"></path></g><g><path d="M177.63482857955555 146.4655226983736 C177.63482857955555 146.4655226983736, 177.63482857955555 146.4655226983736, 177.63482857955555 146.4655226983736 M177.63482857955555 146.4655226983736 C177.63482857955555 146.4655226983736, 177.63482857955555 146.4655226983736, 177.63482857955555 146.4655226983736 M178.27393308284712 151.55266540030752 C178.6457419362759 151.17995411579656, 179.8607013427816 149.6605882975544, 182.2606988318163 148.11015867322922 M178.12350607035538 152.0283431497856 C179.25770574671418 150.50115619518309, 180.48594260182514 149.4885738594556, 182.1145564962159 147.39406977128644" stroke="none" stroke-width="0.5" fill="none"></path><path d="M180.7779616549135 146.23678623852305 C181.5698836811957 146.23149608957272, 182.87820014280942 147.34587103496406, 183.15947167631114 148.0861803601557 C183.44074320981287 148.82648968534735, 182.7013038708731 150.08390139666872, 182.4655908559238 150.67864218967287 C182.22987784097452 151.27338298267702, 182.03146194302337 151.10642597243884, 181.74519358661544 151.6546251181806 C181.4589252302075 152.20282426392237, 181.39731230967658 153.7580625433093, 180.74798071747628 153.96783706412353 C180.09864912527598 154.17761158493775, 178.37385470913304 153.30701640470187, 177.8492040334137 152.91327224306593 C177.32455335769438 152.51952808143, 177.5551487915281 152.18883381355198, 177.60007666316028 151.60537209430782 C177.64500453479246 151.02191037506367, 178.10653386156176 150.2765580960436, 178.11877126320672 149.41250192760097 C178.1310086648517 148.54844575915834, 177.14102978234112 146.7286392896147, 177.67350107303008 146.421035083652 C178.20597236371904 146.11343087768927, 180.5276861467785 147.2373688339421, 181.31359900734046 147.56687669182463 C182.0995118679024 147.89638454970716, 182.36769549640803 148.56730749942665, 182.38897823640184 148.39808223094724 M177.9012683662368 147.9421717220502 C178.23600560194112 147.79145531950678, 180.0411913265878 146.02685243863928, 181.05458388208328 146.380553694101 C182.06797643757875 146.7342549495627, 183.46831274513391 149.13105309508643, 183.98162369920962 150.06437925482047 C184.49493465328533 150.9977054145545, 184.5085717642057 151.4878216253342, 184.13444960653752 151.98051065250513 C183.76032744886933 152.47319967967607, 182.53970731081677 153.01447917529686, 181.7368907532005 153.02051341784616 C180.93407419558423 153.02654766039547, 179.8843950563789 152.08587263462618, 179.31755026083982 152.01671610780105 C178.75070546530074 151.9475595809759, 178.49098767760827 153.05090693196928, 178.33582197996597 152.60557425689532 C178.18065628232367 152.16024158182137, 178.54969673767334 150.28619244876518, 178.38655607498598 149.34472005735725 C178.2234154122986 148.40324766594932, 177.04853419679284 147.52628641994218, 177.35697800384185 146.95673990844773 C177.66542181089085 146.38719339695328, 179.87888912483191 145.90313605146716, 180.2372189172799 145.9274409883905 C180.5955487097279 145.95174592531382, 179.58110076774463 147.06385813036016, 179.50695675852987 147.1025695299877" stroke="#000000" stroke-width="1" fill="none"></path></g><g><path d="M231.68569340714214 148.4007808866326 C231.68569340714214 148.4007808866326, 231.68569340714214 148.4007808866326, 231.68569340714214 148.4007808866326 M231.68569340714214 148.4007808866326 C231.68569340714214 148.4007808866326, 231.68569340714214 148.4007808866326, 231.68569340714214 148.4007808866326 M233.33669323623096 152.66115761616928 C234.23885631814392 151.67404266320747, 235.44691907125727 150.55168476667063, 237.00024610781156 148.86013957570833 M233.20084168661361 152.6224425961207 C234.4793799375274 151.3856844720045, 235.5630591501034 149.92469237930422, 236.87187114614545 148.5151141750858" stroke="none" stroke-width="0.5" fill="none"></path><path d="M234.42325275720953 148.21829525777804 C235.08316096725912 148.0043175378885, 235.37406645345666 147.76524690111623, 235.90002122909343 147.87339017375467 C236.4259760047302 147.98153344639312, 237.20693687771274 148.6099766294287, 237.57898141103007 148.8671548936087 C237.9510259443474 149.1243331577887, 238.2710354316952 148.73273305347553, 238.13228842899738 149.4164597588347 C237.99354142629957 150.10018646419385, 237.09822816934502 152.4370101949693, 236.74649939484326 152.96951512576362 C236.3947706203415 153.50202005655794, 236.46373519793718 152.79475961355104, 236.02191578198685 152.61148934360057 C235.5800963660365 152.4282190736501, 234.6513863639922 152.06676432111757, 234.0955828991412 151.86989350606075 C233.53977943429018 151.67302269100392, 233.1223623325477 151.96977554966472, 232.68709499288084 151.43026445325967 C232.25182765321398 150.89075335685462, 231.40705212462038 149.4571516523549, 231.48397886113992 148.63282692763048 C231.56090559765946 147.80850220290606, 232.72967659615415 146.87921751045198, 233.14865541199802 146.48431610491312 C233.5676342278419 146.08941469937426, 233.96183278274736 146.27003235938352, 233.99785175620306 146.26341849439734 M235.1210919142456 147.30244170193532 C235.80747535679552 146.92180312425276, 237.6864244673694 146.26450640363507, 238.23079607563997 146.8044354590872 C238.77516768391055 147.3443645145393, 238.70893262464972 149.7843322404911, 238.38732156386908 150.542016034648 C238.06571050308844 151.29969982880488, 236.62734577763035 151.11139622355677, 236.30112971095616 151.35053822402853 C235.97491364428197 151.58968022450028, 236.92292251868696 151.90502422589623, 236.4300251638239 151.9768680374786 C235.93712780896084 152.04871184906096, 234.036373728678 151.82105686931845, 233.3437455817777 151.7816010935227 C232.65111743487742 151.74214531772697, 232.48803702639506 152.0733882551478, 232.2742562824221 151.74013338270407 C232.06047553844914 151.40687851026036, 231.6894194780805 150.4046511354032, 232.0610611179399 149.78207185886046 C232.43270275779926 149.1594925823177, 233.76740599073122 148.28201029083115, 234.50410612157842 148.00465772344762 C235.2408062524256 147.7273051560641, 236.21773795476608 148.15495850004456, 236.48126190302298 148.1179564545593 C236.7447858512799 148.08095440907405, 236.27723046172156 147.8492990232324, 236.08524981111987 147.78264545053605" stroke="#000000" stroke-width="1" fill="none"></path></g><g><path d="M287.08773059056136 147.53555630427434 C287.08773059056136 147.53555630427434, 287.08773059056136 147.53555630427434, 287.08773059056136 147.53555630427434 M287.08773059056136 147.53555630427434 C287.08773059056136 147.53555630427434, 287.08773059056136 147.53555630427434, 287.08773059056136 147.53555630427434 M287.57980271350226 153.25902800622774 C288.98466422137056 152.06959608374564, 289.5099570942522 151.10611960560865, 291.7354977700791 147.93401435140638 M287.55790170037716 152.9077640509172 C288.77811821883006 151.70844921660597, 289.5599165598416 150.99766062929015, 292.23120818697555 148.06074926178928" stroke="none" stroke-width="0.5" fill="none"></path><path d="M290.42180588314477 146.8899842551046 C290.9562211872905 146.90457579264324, 293.1620199724981 147.6981285767407, 293.4915451136652 148.40425260343042 C293.8210702548323 149.11037663012016, 292.7552451282835 150.39249988913218, 292.39895673014735 151.12672841524295 C292.0426683320112 151.86095694135372, 291.8556542992207 152.48085647636225, 291.3538147248484 152.80962376009504 C290.8519751504761 153.13839104382782, 290.0584454889029 153.08141884205037, 289.3879192839137 153.09933211763968 C288.71739307892443 153.11724539322898, 287.6591752840573 153.24105903561514, 287.330657494913 152.91710341363083 C287.0021397057687 152.59314779164652, 287.4796597109264 152.0268014204564, 287.41681254904785 151.15559838573387 C287.3539653871693 150.28439535101134, 286.68205177999954 148.3315875225097, 286.95357452364175 147.68988520529567 C287.22509726728396 147.04818288808164, 288.1882896828297 147.4514166680073, 289.045949010901 147.30538448244968 C289.9036083389723 147.15935229689205, 291.8175013246879 146.6165946253914, 292.09953049206945 146.81369209194986 C292.381559659451 147.01078955850832, 290.8212317410154 148.5054424513452, 290.7381240151903 148.4879692818004 M290.24556934254764 148.3640234340132 C291.29026834378243 148.35919943803202, 291.81591639350313 148.1436111152917, 292.44582115613383 148.16892461184673 C293.07572591876453 148.19423810840178, 294.06427011222286 147.89539623950066, 294.024997918332 148.51590441334346 C293.9857257244412 149.13641258718627, 292.68458498321706 150.9980956353022, 292.21018799278863 151.89197365490352 C291.7357910023602 152.78585167450484, 291.6098872120823 153.85457944482593, 291.1786159757614 153.87917253095137 C290.74734473944045 153.9037656170768, 290.2112167232924 152.18481651950623, 289.62256057486303 152.0395321716561 C289.03390442643365 151.89424782380598, 287.92510262920143 153.1729897008065, 287.6466790851849 153.00746644385055 C287.3682555411684 152.84194318689458, 287.9590672586281 151.95393582550946, 287.9520193107641 151.04639262992032 C287.9449713629001 150.13884943433118, 287.2328315056099 148.29345142875076, 287.6043913980009 147.5622072703157 C287.97595129039195 146.83096311188064, 290.0332439445216 146.66057748363266, 290.1813786651103 146.65892767930993 C290.329513385699 146.6572778749872, 288.58109185879846 147.3378849068083, 288.4931997215331 147.5523084443792" stroke="#000000" stroke-width="1" fill="none"></path></g><g><path d="M342.1718997458762 149.04403924740677 C342.1718997458762 149.04403924740677, 342.1718997458762 149.04403924740677, 342.1718997458762 149.04403924740677 M342.1718997458762 149.04403924740677 C342.1718997458762 149.04403924740677, 342.1718997458762 149.04403924740677, 342.1718997458762 149.04403924740677 M343.4615880957929 152.73140834798755 C345.11220860534075 151.69754386488333, 344.97304526367236 151.11530088006307, 348.0337058718398 149.24092002265647 M344.1598573306083 153.29795566862407 C345.19943069165885 151.47630143261787, 346.50987457686904 150.04548739316735, 347.7426009882864 148.641266692448" stroke="none" stroke-width="0.5" fill="none"></path><path d="M345.9538680368764 146.15351619653654 C346.54436637635354 146.26207740722947, 347.36773384741593 148.49996898602674, 347.67674616183695 149.07714527682052 C347.98575847625796 149.6543215676143, 347.95948663620607 148.99902916363885, 347.80794192340244 149.61657394129924 C347.6563972105988 150.23411871895962, 347.1161150233456 152.1658190149434, 346.7674778850151 152.7824139427828 C346.4188407466846 153.3990088706222, 346.308488703049 153.3116158417255, 345.7161190934195 153.31614350833564 C345.12374948378994 153.32067117494577, 343.8638177601838 153.40752767078902, 343.21326022723787 152.80957994244363 C342.56270269429194 152.21163221409824, 341.9746743698753 150.36946009659562, 341.8127738957438 149.7284571382633 C341.65087342161235 149.087454179931, 341.85541717248816 149.24093413273928, 342.24185738244887 148.9635621924497 C342.6282975924096 148.68619025216012, 343.4494290113321 148.20043842195585, 344.13141515550825 148.06422549652578 C344.8134012996844 147.9280125710957, 345.95171446423285 148.07080524747377, 346.3337742475058 148.14628463986932 C346.71583403077875 148.22176403226487, 346.3180141396796 148.72212317077015, 346.4237738551459 148.51710185089902 M345.3704917378308 146.70111077338888 C345.706183638174 146.78031362036967, 345.23651021382227 148.07345562724635, 345.555472509042 148.40820516474884 C345.8744348042617 148.74295470225132, 347.1053895650519 148.44402564218464, 347.2842655091491 148.70960799840387 C347.46314145324635 148.9751903546231, 346.9839226658714 149.09168615446188, 346.62872817362546 150.0016993020642 C346.27353368137955 150.9117124496665, 345.6125511281047 153.597020151809, 345.1530985556735 154.1696868840177 C344.69364598324233 154.74235361622638, 344.4587436644353 153.62571267552272, 343.87201273903844 153.43769969531635 C343.2852818136416 153.24968671511, 341.80592602197316 153.90677164703544, 341.6327130032922 153.04160900277955 C341.4594999846113 152.17644635852366, 342.8550579077394 148.89267851888718, 342.8327346269528 148.2467238297811 C342.8104113461662 147.60076914067503, 341.0960124399283 149.39663556908573, 341.4987733185724 149.165880868143 C341.90153419721645 148.93512616720028, 344.42835939714166 147.40873482234826, 345.2492998988172 146.86219562412484 C346.0702404004927 146.3156564259014, 346.35723499536766 145.56766848373587, 346.42441632862557 145.88664567880235" stroke="#000000" stroke-width="1" fill="none"></path></g><g><path d="M398.48843547420444 147.64876312854142 C398.48843547420444 147.64876312854142, 398.48843547420444 147.64876312854142, 398.48843547420444 147.64876312854142 M398.48843547420444 147.64876312854142 C398.48843547420444 147.64876312854142, 398.48843547420444 147.64876312854142, 398.48843547420444 147.64876312854142 M399.1009282441313 153.5715839523528 C399.28361340720863 152.0253751949946, 399.8688287866558 151.68739632300915, 402.6888125766291 148.50499026167708 M398.8915214612117 153.49119486152824 C400.0314156451243 151.64877802190932, 401.5623718040841 149.76411747305335, 402.5664272654999 148.90165721783856" stroke="none" stroke-width="0.5" fill="none"></path><path d="M399.46102195070995 147.69682309826342 C400.20631532815736 147.5930680197972, 401.21118803756747 147.28085734979885, 401.8134321366984 147.47604379297334 C402.4156762358293 147.67123023614784, 402.75164680855653 148.37185977842026, 403.0744865454957 148.86794175731032 C403.39732628243485 149.36402373620038, 404.0750495180229 149.79569476512722, 403.7504705583334 150.45253566631374 C403.4258915986439 151.10937656750025, 401.7150311893497 152.53306439819482, 401.12701278735864 152.80898716442945 C400.5389943853676 153.08490993066408, 400.7094702441448 152.09463173554514, 400.22236014638685 152.10807226372145 C399.73525004862887 152.12151279189777, 398.59819186997635 153.24223665667566, 398.2043522008107 152.88963033348742 C397.8105125316451 152.53702401029918, 397.7937569229283 150.88686959939167, 397.85932213139307 149.99243432459195 C397.92488733985783 149.09799904979224, 398.3123197948452 148.1043469381664, 398.59774345159923 147.5230186846892 C398.88316710835323 146.94169043121198, 399.37090835259096 146.4426923097954, 399.57186407191716 146.50446480372864 C399.77281979124336 146.56623729766187, 399.81007091556614 147.6141166833941, 399.8034777675563 147.8936536482885 M399.5967031594418 146.24333882304046 C400.47463609369106 145.95608104843666, 401.36549402382343 147.2971263436075, 401.7782699082762 147.9657384455742 C402.1910457927289 148.63435054754092, 402.07899041301874 149.61759631237396, 402.0733584661582 150.25501143484072 C402.06772651929765 150.8924265573075, 401.6510167851124 151.35523455850543, 401.74447822711295 151.79022918037484 C401.8379396691135 152.22522380224424, 402.96646936434956 152.93652423850952, 402.63412711816153 152.8649791660571 C402.3017848719735 152.7934340936047, 400.58769693762616 151.70379635569222, 399.75042474998475 151.36095874566038 C398.9131525623433 151.01812113562855, 398.1140649540971 151.08586780205619, 397.6104939923129 150.80795350586604 C397.1069230305287 150.5300392096759, 396.7614714344347 150.29501949380256, 396.7289989792795 149.69347296851953 C396.69652652412424 149.0919264432365, 396.86307920423525 147.38590866760532, 397.4156592613813 147.1986743541679 C397.9682393185273 147.0114400407305, 399.7046221272934 148.68839747264585, 400.0444793221558 148.57006708789504 C400.38433651701814 148.45173670314423, 399.54719950989727 146.526355351352, 399.4548024305556 146.48869204566304" stroke="#000000" stroke-width="1" fill="none"></path></g><g><path d="M452.3979374045561 148.13612343166596 C452.3979374045561 148.13612343166596, 452.3979374045561 148.13612343166596, 452.3979374045561 148.13612343166596 M452.3979374045561 148.13612343166596 C452.3979374045561 148.13612343166596, 452.3979374045561 148.13612343166596, 452.3979374045561 148.13612343166596 M453.93551116505677 153.56618928850241 C454.11582658999197 152.15105604008352, 455.87890588223786 150.45482137171976, 456.8292890021799 148.09025088575217 M453.3975025267042 152.9308488387549 C455.03440511063275 151.27907190883164, 456.1749339182102 149.52603240531045, 457.3106849938922 148.63019545319077" stroke="none" stroke-width="0.5" fill="none"></path><path d="M454.6415763625327 147.77507622562393 C455.29299630050525 147.8539850679278, 455.48214854924873 147.88542160225967, 456.20894931531484 147.99563730880064 C456.93575008138095 148.1058530153416, 458.6348521396604 147.92784712338283, 459.0023809589293 148.43637046486978 C459.3699097781982 148.94489380635673, 458.8273363813983 150.3537763030833, 458.4141222309282 151.04677735772233 C458.00090808045815 151.73977841236137, 457.3952254991843 152.24727252521245, 456.5230960561088 152.59437679270397 C455.6509666130333 152.94148106019549, 453.90737865055377 153.4050282656388, 453.1813455724752 153.12940296267146 C452.45531249439665 152.85377765970412, 452.3439292400572 151.63503814540198, 452.16689758763744 150.94062497489983 C451.98986593521767 150.2462118043977, 452.0452929304152 149.47101339406674, 452.1191556579566 148.96292393965857 C452.19301838549796 148.4548344852504, 452.2022289599846 148.32377574973904, 452.6100739528857 147.89208824845073 C453.01791894578685 147.46040074716242, 453.9198936057052 146.42990787105762, 454.5662256153633 146.37279893192877 C455.21255762502136 146.31568999279992, 456.36466998276865 147.2511726073775, 456.488066010834 147.54943461367768 M454.1782610602648 148.70678007449789 C454.7070591284025 148.38539994851115, 456.39120375895203 147.30673019445794, 457.1356221090839 147.07074115771184 C457.88004045921576 146.83475212096573, 458.43264626034437 146.70410722259675, 458.6447711610559 147.29084585402126 C458.8568960617675 147.87758448544577, 458.535509323602 149.6977125051692, 458.4083715133533 150.5911729462588 C458.2812337031046 151.48463338734842, 458.28408491103323 152.1497198777765, 457.8819442995637 152.65160850055892 C457.4798036880942 153.15349712334134, 456.6034773034492 153.73981648771576, 455.995527844536 153.60250468295325 C455.3875783856228 153.46519287819075, 454.8092142045956 152.1424619601101, 454.23424754608465 151.8277376719839 C453.6592808875737 151.5130133838577, 452.7502639239234 152.41678401530203, 452.5457278934704 151.7141589541961 C452.34119186301746 151.0115338930902, 452.7120213875193 148.58576133533325, 453.00703136336676 147.6119873053483 C453.3020413392142 146.63821327536334, 454.1650337403518 145.76740715003342, 454.3157877485552 145.87151477428645 C454.46654175675855 145.97562239853949, 453.82087691434356 147.9348317001997, 453.91155541258706 148.23663305086652" stroke="#000000" stroke-width="1" fill="none"></path></g><text x="400" y="560" text-anchor="middle" font-family="sans-serif" font-size="16" fill="#222" font-style="italic">Winning an auction is statistical evidence of overpaying.</text></svg>