<?xml version="1.0" encoding="UTF-8"?>
<svg width="800" height="600" viewBox="0 0 800 600" xmlns="http://www.w3.org/2000/svg"><rect width="800" height="600" fill="#FFFFFF"></rect><g><path d="M138.30588211524085 289.85107195450456 C145.49839762513616 289.2291112741204, 156.20919623248108 290.85867905279724, 161.55764395964397 291.68568932831204 M140.71679115325958 290.45135289941805 C145.0571477167458 288.8817112627129, 149.77181127017363 289.9507894646759, 159.75716555122597 289.7839377658677 M161.78588130932926 290.9572089269733 C160.14018400747477 298.436656577422, 158.85740861729872 308.00672587156896, 159.46284878329485 320.47629101823327 M159.0803539419834 289.02914095319915 C159.8701384594181 299.13353440726365, 159.55278074961518 307.4073871486866, 159.02716471032727 320.7095393473811 M161.05087323981897 321.1283842515394 C155.41554019693567 321.1741279110234, 151.2842387437427 318.6849813193537, 139.48179481123822 320.5191661307392 M159.82036511399463 319.8973224349258 C153.73576359880323 318.95838805461636, 146.15106768469764 320.5231251212417, 139.1486846356692 319.5994695988605 M141.79560619798335 321.15896599432733 C140.70390295683254 308.30651861877703, 141.99878538791617 301.2000950819138, 138.61067878453488 289.7242174293545 M139.63929796311479 320.676767592704 C140.71028070843386 311.17425019563206, 139.2159421477848 303.5232196552123, 139.81859822323136 289.9469647635656" stroke="#CC3333" stroke-width="1.5" fill="none"></path></g><g><path d="M148.37295558911617 274.16520340206614 C145.01797429097053 282.0214248780536, 142.9933514185333 287.8427656414736, 139.9744495862166 290.2193914231047 M149.98977882676675 275.7336071691472 C146.2534878359996 279.73775866978417, 143.67350602848805 286.2064982916702, 140.5298923698122 290.4485134919202" stroke="#CC3333" stroke-width="1.2" fill="none"></path></g><g><path d="M148.80943774494185 274.82665592754273 C151.7380377340539 278.9554293103629, 154.89432411366434 284.03169248411785, 158.89492963988204 288.62188292367875 M149.32260279168477 275.246087955448 C152.72868164858394 279.11863834254774, 156.10413402149896 283.8611345156132, 160.7196484779867 289.7523326914513" stroke="#CC3333" stroke-width="1.2" fill="none"></path></g><g><path d="M188.49695905933822 269.47667066692736 C194.80988416260968 268.4002504234141, 202.81634323453136 270.0657981224392, 208.27333988849944 269.3130682885689 M189.55106464244906 269.9307960390523 C196.32567788227175 269.75416365796207, 203.65772250759133 268.96278041344505, 210.03039900889155 269.65209015600453 M209.83307575590047 270.9325198187145 C208.6568247237551 287.1751758035759, 209.63913796562412 307.5008800163657, 211.56529074516678 321.74539057875575 M210.81798088185502 270.9861794733676 C210.8150919490071 289.4872386744289, 210.22966969612838 308.42969637055796, 210.83511903572185 319.4767349234043 M210.9647011833575 321.7050220606999 C207.25522259367833 321.2158119143668, 201.42398478620623 319.09146663381586, 190.58252205782756 320.0653478062015 M210.7595993158016 320.0300822698893 C205.93075578502544 319.9216928269058, 200.4197930496538 319.17687631904795, 190.84595508877666 319.3845231248527 M188.48545697744524 320.93654747476614 C188.17388161533952 303.9220542428209, 189.37695617714974 285.5884617966569, 191.75554702657988 271.81930562073234 M190.33533667113306 320.1448910252727 C190.66499003646385 307.8136056311756, 190.96193855688924 297.65147834449056, 190.20837794035083 270.51953512330726" stroke="#CC3333" stroke-width="1.5" fill="none"></path></g><g><path d="M198.83494647287992 253.24717794790212 C195.52357242248428 260.0889641659651, 193.23954335334824 266.17830916067544, 190.81971885743343 271.12156583870757 M200.52073691545806 255.79460148412795 C196.35187081317633 260.89380500371163, 192.14022839447588 266.05841552662537, 189.37732023744763 270.3737445579576" stroke="#CC3333" stroke-width="1.2" fill="none"></path></g><g><path d="M200.4339348686958 256.7568616106337 C203.8524368920956 257.0856756580308, 203.7110192814834 263.2542049325157, 210.48423026274654 269.12231628988087 M200.04928866275137 255.63018988643856 C202.8585814913159 260.54691625327854, 207.80928729675722 265.96315184762466, 210.88368627411927 269.289838133463" stroke="#CC3333" stroke-width="1.2" fill="none"></path></g><g><path d="M240.9518237663416 249.4784072827932 C245.8977206775367 249.37624659959175, 256.5706038021075 249.8814640189474, 259.89605711868677 248.72580751291076 M239.05918362025395 249.93631148081337 C245.54185039496906 250.79006599034338, 249.90985696116923 250.8724044344283, 260.32345785507323 249.919369876156 M260.56844498612327 249.66162834527674 C257.98131943964296 275.0028448245344, 258.6254660397819 302.3090502316634, 258.4402557209884 319.363472643082 M260.02565887963897 249.05360470769892 C260.1830991215138 273.111552848266, 258.963260567971 294.35362010547897, 259.42864986533857 319.2404234166652 M259.4019266965835 321.90179146350016 C253.3720789354079 320.2148106825109, 247.28495337097345 321.9519160608554, 240.43596078269837 319.91205305705927 M259.17029323049434 319.7275955485871 C255.70171634535367 320.1735035897972, 250.71888320392904 320.859888757441, 240.5961659223542 319.7957445140982 M240.7128883166805 319.1814574060311 C239.83947690968512 297.0332262644611, 239.8210729275477 274.96143098399875, 240.35406621191322 249.16152423129705 M239.80854755680858 319.1813005279327 C239.03894416106868 296.18164611224915, 239.90293278002804 273.20650903537444, 239.0587212008769 250.90258055228375" stroke="#CC3333" stroke-width="1.5" fill="none"></path></g><g><path d="M248.35047708850675 235.98003815575186 C247.43752868694557 241.5809101917878, 240.67834542169803 245.73774916662083, 238.3718153536833 248.31627793204893 M249.47462218158535 235.45098969627017 C245.9640410502672 239.1546303320384, 243.0322248733038 244.34672701779846, 240.22994010913717 249.58709326266592" stroke="#CC3333" stroke-width="1.2" fill="none"></path></g><g><path d="M249.62001945770513 233.2261690992798 C252.21003212816416 237.3332278193014, 253.77533132872628 241.5277083418806, 258.59632972897936 250.3496115315404 M250.69016462418983 234.22588997942012 C253.70546025927197 239.9799501917803, 255.10511574996767 243.98756459368136, 260.18786965573236 250.83350156677326" stroke="#CC3333" stroke-width="1.2" fill="none"></path></g><g><path d="M291.55664709144327 229.71073600882482 C298.15229384610257 229.08109076436054, 301.5053905066086 231.97496625537616, 311.788138797294 228.42181904786975 M290.421155239957 229.14399724884169 C296.20807882677025 229.13278482294143, 301.39450818046356 230.59813476918762, 309.33420076135445 230.7896949218695 M310.43983092495176 230.0826426344204 C312.1627793714511 265.55684231015147, 311.4445394293657 299.5966470829891, 309.77652423637153 321.8783464250176 M310.3694036365199 229.3332428439455 C311.03504090574506 254.3692224177311, 310.1534008814038 278.69326569930377, 309.8371661540839 319.5636587485798 M309.59042050684263 320.53869617579227 C305.10817498430373 319.8109297988809, 303.2117464294897 318.6885037949542, 289.4823490812129 318.07759890546663 M309.6434327708338 319.8169447756684 C304.58171534869945 319.43364088549873, 299.0903408227219 320.4221260961996, 289.47276072195285 320.4050418985733 M288.12520855858133 321.5441199281641 C288.6181445686152 302.56119364185025, 289.25645027016816 283.15122945530265, 291.7131659829975 231.77626381736226 M289.93451632989604 320.9361362348348 C289.6274200013291 294.8914433157525, 290.98630555178653 267.52982156932853, 289.20253541651493 229.79750475131064" stroke="#CC3333" stroke-width="1.5" fill="none"></path></g><g><path d="M301.38039905029785 216.30427867365285 C298.524127232948 220.3873350303349, 291.6690693568184 226.2848506457816, 288.803071989999 230.27956918485245 M299.9140411821253 215.13346860504774 C295.425743732057 220.1635272262688, 292.92794606565525 226.92142088453775, 290.48867079076996 230.51003620657644" stroke="#CC3333" stroke-width="1.2" fill="none"></path></g><g><path d="M298.4513409998297 214.54001286993866 C302.42279459635046 219.570365912597, 304.4385626321343 220.95277758237384, 309.1956384616838 228.67008954934872 M300.24883485474214 214.85597809568756 C301.92780375249265 218.46961811838682, 305.14986758170653 223.4486872973719, 310.1554972903187 230.86830410447342" stroke="#CC3333" stroke-width="1.2" fill="none"></path></g><g><path d="M338.5350431780959 209.21964182693057 C347.12331617969636 208.4202943678742, 351.490156956609 212.16609486431452, 358.6494585525555 208.46598144415609 M340.7770375424892 209.92989012382634 C346.3524759416644 209.78641267658006, 350.4570937162729 209.63383434645604, 360.50626486691743 209.09912262388502 M358.6634278993488 211.5968859678773 C358.1615958870007 240.65860463966698, 358.83363664636295 268.76219343442534, 360.779938043522 321.7454172722595 M360.8912170127372 209.8232346847551 C361.3648031474587 239.1997782851495, 360.8036946522454 268.4599510135895, 359.7088211865503 319.8111421267624 M360.45328251708025 320.8516951583446 C354.1984189692811 321.2660295085778, 348.6782531930149 320.59010763763064, 339.3403424564931 318.60824514195195 M360.34128660191294 320.9229755620751 C354.7506972551821 319.4997488708735, 348.4029526874013 320.7232708243087, 339.365706113093 320.25584272479904 M341.6884286030343 318.6444393124458 C340.77547567048083 283.18517193454466, 338.4383239076376 241.8449372079501, 339.30677888605845 210.77863239345982 M340.9727963035796 320.2722122383457 C340.3461468846252 288.60303183524144, 341.70328069491586 258.92484930265886, 340.0053787488361 209.88308727955288" stroke="#CC3333" stroke-width="1.5" fill="none"></path></g><g><path d="M348.5387013166938 194.3434513684079 C345.83108943054845 199.45079632668794, 345.49233154582225 202.91432005118034, 339.96510895348354 211.2842810292394 M349.6850040927841 195.4372936396749 C346.37565444506015 200.17540085002713, 342.5090867353389 205.82474962204492, 340.63249314064154 209.60385857062593" stroke="#CC3333" stroke-width="1.2" fill="none"></path></g><g><path d="M348.8382993510443 194.62437090125812 C352.3507943150287 199.19012214021708, 354.9836508614402 205.6785193177718, 360.1346727233329 209.11106712617152 M350.10912264137346 195.04359549068883 C352.10333239447243 199.37188383374425, 355.6091571014425 204.1297495830599, 360.0876308838932 209.8644318426911" stroke="#CC3333" stroke-width="1.2" fill="none"></path></g><g><path d="M401.0537507965847 290.3739008368355 C404.06499565885423 291.3198422129933, 410.1083355031425 288.28997506152524, 419.0199265470646 288.97077746552907 M400.77364523027893 290.7532119414479 C406.3014300053108 290.6198443892748, 410.8580980481697 288.92361800478517, 419.2271334274336 289.8643384866167 M418.53177307358953 289.3862126729067 C419.9020682278288 301.64421306204235, 418.89635032052774 308.8595727484179, 418.6544252515248 321.24989115054615 M419.62359937539964 289.4953950032062 C419.00650145753315 300.5565183884577, 419.74779419501385 312.92239081730304, 420.21904358735327 319.24376939534386 M421.4069305511244 320.5743240493738 C413.3966247556976 322.1461764106754, 411.10768104599026 321.2043974619762, 398.34901109476004 319.42440463679 M420.17730253179946 320.51187760391326 C412.42377423816924 319.4909411415745, 405.54001949363385 320.28878306712505, 400.4421637741602 319.0911990185694 M398.72736460298137 319.27339691674894 C399.0334381574228 311.5596724403758, 398.82198833245025 307.12651921157317, 400.6669239250052 288.4613447071488 M400.8859819855537 320.2274568775221 C400.1124967115324 308.81817316627115, 399.23561351830165 298.0728112384551, 400.96127027847365 289.59820208514435" stroke="#CC3333" stroke-width="1.5" fill="none"></path></g><g><path d="M409.9589528232429 276.2472198640768 C407.0929964495523 280.79798077153026, 403.995392597096 286.9005527439373, 401.56469826517576 290.8880228842479 M409.5981732678896 274.7738082949791 C406.8021375683312 279.4648321738842, 403.93527975930334 283.150408859176, 399.3793512792926 290.5583783888515" stroke="#CC3333" stroke-width="1.2" fill="none"></path></g><g><path d="M408.3640024937106 273.3977276608541 C414.63776554687774 278.5602620865184, 415.4271126884818 283.4321666779854, 418.4968107373271 291.46664153068747 M409.1057287325376 275.27908347668904 C412.93995659026314 279.2059408314261, 415.20026944013597 281.7813080322173, 420.65274107064533 289.252241206396" stroke="#CC3333" stroke-width="1.2" fill="none"></path></g><g><path d="M451.52451218452046 268.91725053257375 C457.0368374819475 268.39118339226985, 463.5764927846344 270.1189857057454, 468.6600444430212 270.38468980646263 M450.3649635336313 269.0955930104897 C457.45389926452106 270.1313908002127, 463.6038229506399 269.52338998878383, 469.99364721690137 269.97306556008385 M468.5374971524568 268.37130922094474 C469.4299033835388 285.4616497186819, 469.03757918401885 302.7777923788508, 469.3942765189821 321.1744567147036 M470.1492185942147 270.1585682603788 C470.6495912811944 288.4465655356362, 471.01963040873164 305.77973252084695, 469.48165341032745 319.507056941833 M468.81581979258044 319.4377278460209 C463.052685185129 321.7209951112911, 455.4303709542206 318.22078391219355, 450.73712853597505 321.79489573413684 M470.3893350363207 320.2181653631931 C465.69416737152005 319.5322818395523, 461.22604187647215 319.1591802688624, 450.9834244602042 319.8898666860361 M451.99272385256484 318.8881022991442 C448.2529158159296 303.6843867365244, 451.2061560012789 283.99435583156634, 450.612348744507 269.46528478862774 M449.5191946203402 320.00166651575853 C449.52002040905023 300.4710197972073, 449.7186457607316 281.8953514674325, 449.18037951825625 270.91886860029877" stroke="#CC3333" stroke-width="1.5" fill="none"></path></g><g><path d="M461.6761939201844 256.2000717324699 C457.72130324135617 258.7318225638473, 454.94615851982604 261.519964759096, 451.5953521074965 269.35615362849484 M459.85599140272626 255.38612683503126 C456.42179511256427 261.2491019736823, 453.67901220936227 265.31150382119597, 449.99647259177124 270.26204731545516" stroke="#CC3333" stroke-width="1.2" fill="none"></path></g><g><path d="M461.21676683612145 253.5298071482612 C462.9832501726504 259.8960218015728, 467.74474559864586 266.42842077819347, 469.1984694512805 268.3367689771287 M460.77587091745676 254.5443019899412 C462.3353026704573 258.98268427518417, 465.44272508860604 263.43100288190357, 469.464965981462 270.65673956513353" stroke="#CC3333" stroke-width="1.2" fill="none"></path></g><g><path d="M499.3681856795632 249.1822860436565 C502.94922574725996 248.61970248445806, 509.3190292293597 250.57292989230575, 519.9081327791023 249.12110828573338 M499.89991469531924 249.0198981442844 C503.8975953622209 249.64632766977695, 508.26177139196744 250.51472110692154, 520.4442524604709 249.57882024905413 M520.2909685220649 250.43785677168952 C518.6605406880174 272.2138359348029, 521.0813214407913 291.64628107122735, 521.7876422474734 320.248668759613 M519.5780469638354 250.6850444742345 C519.8433120032498 273.2454026522485, 519.0172542860402 295.44672774519034, 520.4673040013283 319.00842486902843 M520.0791928560144 321.04165816288395 C517.402516366998 318.2919439513894, 511.23048159562035 320.70807143956347, 499.43594211507997 320.719224472826 M519.0092505195948 320.719689263005 C512.8565958304188 320.4365901793902, 505.9059004270823 319.61384771884616, 500.7460986548997 319.0865934988824 M500.70079509877206 318.54949320471417 C498.31920832685756 295.54998314345266, 499.57052577931495 265.3329827520492, 499.067975688143 250.47734577299693 M499.90973789631363 319.50670679614547 C500.06827326971023 296.3936330386761, 498.7623746685263 274.60530211437134, 500.89773031149133 249.6567734972645" stroke="#CC3333" stroke-width="1.5" fill="none"></path></g><g><path d="M508.556657871956 233.45464129661113 C507.7557367729157 238.08939554241994, 505.21288360209985 245.126558380368, 499.4789950136475 251.33752122295743 M509.6780168979564 235.82100093730307 C505.6168352598861 239.7938549575892, 503.57476982912016 245.61859819929666, 499.5150276143015 250.06754681595723" stroke="#CC3333" stroke-width="1.2" fill="none"></path></g><g><path d="M509.0934222211468 235.51533882784486 C511.7231845195123 241.42469430262818, 515.2642135020774 244.33392771006646, 519.137559217187 248.65900249730615 M509.50598274336363 234.3088060294407 C512.0396808304412 238.24594904943575, 515.0582073831011 240.7147503755941, 520.1095711281298 250.14819400943193" stroke="#CC3333" stroke-width="1.2" fill="none"></path></g><g><path d="M549.5564167983666 229.6860581627257 C555.615232986277 231.35756948435719, 564.0582182078738 228.71318792860643, 569.5426674730255 228.00393589247503 M549.3999462288983 230.51931102016866 C557.3424640011953 229.5484337032561, 565.4367681236605 229.56203368981352, 569.610860943737 229.56218250433568 M571.0025924804099 228.71535939443058 C569.930958152727 261.7213068936099, 570.3048703305236 290.3903988402482, 568.9221807594632 320.303890762286 M569.3208121561006 230.73359758984947 C570.46365676329 256.40090143533376, 569.8291124295545 284.9983928532207, 569.8012892834101 319.26463421515996 M568.894103213491 321.761010108585 C567.4395830045952 320.7988017810374, 560.0251974030936 321.64385888001675, 550.596441268114 321.0960421501998 M570.0526502880499 320.60908463752503 C563.3438134625686 319.08291919719017, 557.9274321625415 320.39976541861444, 550.1941638442058 319.6866045618487 M550.2135951902658 319.945640754354 C552.308371658343 297.449072701456, 552.1380556665019 275.25142781431754, 548.5253628688232 231.20435719135423 M549.303681985003 319.2877110558317 C549.2780193569954 295.32079230282966, 548.6862306676234 268.4624584660284, 549.6433249538679 229.34449479919215" stroke="#CC3333" stroke-width="1.5" fill="none"></path></g><g><path d="M561.6746624062465 213.59437038937 C555.3396507111199 218.1053537183759, 553.5390569619236 225.1540190491518, 551.1421198255849 229.0346898834784 M559.4315253602249 215.50582657682205 C558.0918322544157 219.17295957900862, 555.7298227370136 222.05215135271888, 550.8439795927947 229.78015329188565" stroke="#CC3333" stroke-width="1.2" fill="none"></path></g><g><path d="M560.6524959265327 214.83180294694412 C562.777794032374 219.7431876727805, 568.2680440589558 227.58382806414602, 568.4398679030758 230.80500193556344 M560.6608345208024 215.00186951648527 C563.2616924455972 221.4284414398178, 568.1701988394908 225.5890454232783, 569.5617101179637 229.13000483023976" stroke="#CC3333" stroke-width="1.2" fill="none"></path></g><g><path d="M598.7630089260733 211.80156129640505 C605.3189939600563 209.082715968271, 611.2589029532372 208.56592974376926, 620.0876379632138 209.53822563730742 M599.6796834380532 210.90527468643464 C605.4842950994238 210.15739417621904, 612.3360651136094 210.7784665188415, 620.0538876716284 209.49746163110413 M620.2455879192532 211.5245988351127 C619.9814435984777 250.98733051514336, 618.7999472563898 295.6668328299509, 618.6816541813203 318.10270201897225 M619.4921743013134 210.24612725850196 C621.1579104897048 239.65514515666703, 620.5341812908079 269.08394667648435, 619.6344026449584 319.22139376126296 M618.9853824636335 321.3395987177301 C612.2319716312415 320.01742783526635, 609.5459615427012 320.98295498247904, 598.2288562460016 318.48408079635567 M620.142212554136 320.5921383339482 C615.3611334406827 319.5139164107442, 608.9123347662663 320.6069229698008, 600.5977984436583 319.40617207854154 M600.2021327041964 320.815118207928 C599.8481467089032 280.16316717017656, 599.1008285037428 237.33584120177622, 599.380838580394 210.60948741689873 M599.9090435388607 319.6378855238491 C599.4986088302369 288.8895745221726, 599.7627394881364 255.7398242105626, 599.0689763633345 210.64708111538204" stroke="#CC3333" stroke-width="1.5" fill="none"></path></g><g><path d="M610.8643654364715 194.77365022295723 C604.402708713363 201.16266512037583, 601.3484329070704 208.3389133052599, 599.9721474512006 211.04467693399943 M609.7733357790962 194.36900465084085 C607.7415009605288 197.7152712371798, 605.9279598620283 201.99777813053896, 600.4420832147802 210.39084461195282" stroke="#CC3333" stroke-width="1.2" fill="none"></path></g><g><path d="M608.3789943851003 194.74783859060057 C612.5561361628116 200.19448520898362, 618.5087154853867 204.08086169249813, 619.8471724443094 209.9626343633537 M609.6062723677597 194.11352929795004 C613.2169328660235 200.71021988772324, 616.9270295558907 205.13706292052242, 619.3527463963317 209.35805842421797" stroke="#CC3333" stroke-width="1.2" fill="none"></path></g><g><path d="M350.533115911368 340.47507779527416 C351.5892922403171 354.01439627744134, 349.5896411473911 366.94783991426465, 349.77524114468594 378.40445165730296 M350.3926992272756 339.71301306261984 C349.90196668294095 352.6988335001116, 350.9453733977047 366.9538588968117, 350.84157594332333 379.1601729287677" stroke="#4A90D9" stroke-width="3" fill="none"></path></g><g><path d="M339.78440256655404 371.31586585494 C342.5430272126573 372.3490198079549, 347.1994097873995 375.280751610117, 351.2784252769274 379.59867756593786 M340.1110972840987 370.0914860219662 C343.6740335447734 373.59865089853093, 347.65580392121814 378.109027867509, 350.2716722920374 380.194983998195" stroke="#4A90D9" stroke-width="2.5" fill="none"></path></g><g><path d="M361.30521790834973 369.0529659424539 C357.27054479847584 372.43591307854314, 351.9858818712495 377.0681576382825, 348.90783129921704 380.6709298703716 M359.9082900502668 369.32402114483 C357.69455652100373 372.2005584937527, 355.11168877255096 374.10549055027985, 349.64379050891836 380.68060582994207" stroke="#4A90D9" stroke-width="2.5" fill="none"></path></g><g><path d="M320.71912642643616 399.5057485596566 C340.6436009411013 400.63990593881294, 362.00287643082163 397.9111039050675, 380.64912178036116 399.4531105606684 M319.1264696634953 400.7265726003381 C332.80269309953866 399.3528242544451, 346.32400446116867 399.9054290482899, 380.3168509615483 400.52194231819726" stroke="#4A90D9" stroke-width="2" fill="none"></path></g><g><path d="M338.5335151668712 388.76825857176743 C344.7217047599455 389.1601063870997, 350.0894022715725 391.47211219090593, 358.315407864384 389.3143572775949 M340.24878179421836 389.24993679538494 C348.144166154531 389.6319541748192, 355.86994425718746 390.33136630591247, 360.7312209790599 390.2540823232638" stroke="#4A90D9" stroke-width="1.5" fill="none"></path></g><g><path d="M340.2419032355661 389.2758814099377 C339.29668809682244 393.12979158647164, 340.5853963322122 396.979048258045, 339.9437935310782 400.6981919584879 M339.55794502258965 389.99443948603215 C340.06553364077587 393.28963029849433, 340.1540202312834 396.500040543472, 339.56088933053303 399.79569425783774" stroke="#4A90D9" stroke-width="1" fill="none"></path></g><g><path d="M359.437571967045 389.46082532162865 C359.6767673176872 393.8801231065136, 360.59461830119835 396.782532161795, 359.60883080530334 399.9237326926483 M359.8745952136236 390.22471551376424 C360.0251850298435 393.2291796260735, 360.2103331536741 396.5332453704878, 359.6698347454746 400.0818967858122" stroke="#4A90D9" stroke-width="1" fill="none"></path></g><text x="400" y="560" text-anchor="middle" font-family="sans-serif" font-size="16" fill="#222" font-style="italic">Don't win the race — change what race you're running.</text></svg>