<?xml version="1.0" encoding="UTF-8"?>
<svg width="800" height="600" viewBox="0 0 800 600" xmlns="http://www.w3.org/2000/svg"><rect width="800" height="600" fill="#FFFFFF"></rect><g><path d="M285.50690540585373 230.5025864507144 C297.4282514159217 229.74718876833387, 308.2679914053398 229.99488426032974, 314.23529223863915 229.96255780366062 M285.33852128882694 229.74259535814207 C293.80458491376044 229.77577032630458, 302.50027138373076 230.0003455100312, 314.7778877591468 230.03975684213745 M314.49577467151965 230.24811259717174 C314.4052682955377 244.65940262889384, 315.38484709389945 259.3007698796199, 314.61884056721465 275.3610282346697 M315.047153411486 229.93968378136526 C314.85977492916123 241.87328958680274, 315.24205197543034 252.9489676046878, 314.617969176747 275.36697650913726 M315.3769738770661 275.63733391897824 C307.40284050535433 275.58084830429254, 300.12783493459796 274.30115707041085, 285.61014745986944 274.317655529584 M315.140933602202 275.1731683619331 C306.00048100696483 274.9136069407188, 296.830073695369 275.2400134394529, 284.78389833318687 275.34755379934825 M284.7274255901769 274.5752323928834 C284.5648957370568 262.09542383643594, 285.40901461239207 247.40644132153807, 284.7995163206738 229.49326609693642 M285.34568822147065 274.8984252345788 C284.9665047834505 259.54965609508565, 285.050476156587 245.19907572487978, 285.315150775367 230.00643497055012" stroke="#000000" stroke-width="1.5" fill="none"></path></g><g><path d="M309.7946822328701 230.7398564229956 C320.5696101135804 229.4676755772646, 329.24741572395726 229.37709882690228, 340.00782733251594 230.42818482926648 M309.63343562033884 230.27601732550576 C315.78605402619036 229.6879647920233, 322.3785026404432 230.13530656328936, 340.04200151348255 230.27122735095023 M340.32743056180743 230.57954994890008 C339.17687123228353 244.22379927388556, 340.55307648048756 257.26855026041403, 340.6364813788416 274.59719860563655 M339.9124861545277 229.68295514399193 C339.91369307359236 244.70341516500002, 339.88220886579484 259.8343934793447, 339.72373870095305 275.26456514921153 M339.84168916527926 274.8067140554059 C330.407180171546 275.15712592212117, 321.4741883432227 274.4861766843108, 310.46998262317493 275.56961041653983 M340.0482497370181 275.39970320612 C332.27620784405406 275.3687719933744, 324.3548918271979 274.7855189296018, 309.7877396438165 275.11182514206297 M310.7705951201515 274.5632311664567 C309.5830035114164 265.1772978929777, 309.8317649993971 256.31891978995986, 309.373465458418 230.30933928066185 M310.1637974109929 275.2795725343744 C310.1798515146121 257.82220023596597, 309.7843567430905 239.52613537294133, 310.0256731606641 229.9523061726012" stroke="#000000" stroke-width="1.5" fill="none"></path></g><g><path d="M335.5140780636383 230.41690841784828 C346.71304089623595 229.73951533242004, 357.36456980383514 230.41584553395523, 365.0417819073433 229.88788730412432 M334.6005427530357 229.642988095623 C341.48516845776754 229.7142319419187, 347.99251490557464 230.29712190958037, 365.08371089667185 229.66238124705393 M365.2777668448865 230.4297614336067 C364.30125800099745 246.67326683624748, 364.80104138000513 262.6945789433772, 364.8078222910294 275.09261248320706 M364.94706347106217 230.27165208754224 C364.97053312939613 240.55960451618367, 364.5365388361931 252.294199379305, 364.6694860209478 274.98234247110076 M365.2172624732084 274.5131350015822 C354.49300044691284 274.7577209328671, 342.2097720959478 275.5907273078572, 335.505036104053 275.74541052830574 M365.30821544684915 275.06695025166806 C357.082311955189 274.6876642676818, 349.06453302663556 274.63271452818816, 335.30015878181223 274.8822465400002 M334.62797683389965 274.6848816185975 C334.3894096646602 265.4181809174917, 335.63331358234143 254.21282862183725, 334.70011178720733 230.34521304615436 M335.2076205777129 274.87591014503573 C334.6340125879953 260.69877332659445, 335.3639965289245 245.3362093110967, 334.78542414741975 230.10983042101032" stroke="#000000" stroke-width="1.5" fill="none"></path></g><g><path d="M359.4714663030661 229.3690772151696 C371.3182879297705 230.25818378597066, 383.3228151578788 230.47916587850466, 389.2508668055474 230.19903499286602 M360.11376247012254 230.30851229583118 C367.1531679990403 229.8851452331255, 374.9623686289436 230.31487160969684, 389.739877039667 229.61947966330206 M389.606772639482 229.87440803564303 C390.5243409543237 246.0266804503497, 389.72147804181577 260.8383800168525, 390.3062653568732 275.63403439107316 M389.78630461074715 229.87609054204862 C389.8317307856764 242.6100776249656, 390.17185461368416 255.57093554175978, 390.01161148026387 274.7616007060886 M390.27683600703654 275.0153746176251 C380.3256038441149 274.5472780695605, 370.6168382667717 274.73452835025313, 360.3165849785416 275.3114027525866 M389.7359886403046 275.19787355301946 C381.9007622513852 275.4370874286589, 372.76362618765467 275.03697932503775, 359.9851303326107 275.39238073319956 M359.99259943689736 274.46127467078884 C360.35556057322543 266.05528094584093, 359.90758683658976 256.3817587705178, 359.47792941258655 230.43549174698745 M360.15860451953904 274.6169762031413 C359.9007071077982 258.99000659543884, 359.6420395281359 242.86770911832608, 360.32683442432045 230.05957092195158" stroke="#000000" stroke-width="1.5" fill="none"></path></g><g><path d="M384.9716371932646 230.019791790656 C396.76597921839016 229.97507344719472, 408.14585950970564 230.6180159148, 414.4427876177242 229.70669491355966 M385.38414182421394 230.00702093726295 C393.2490537347012 230.02938244931858, 402.1143785569385 229.8966437867597, 415.2863031954854 229.77869833997923 M415.0059321452154 229.31124061078233 C415.4656028459111 245.3452694258587, 414.47460589580385 261.50578519567995, 415.5635751631477 275.3428592922469 M414.986757890318 229.6426665960353 C415.09773206883864 246.736844278367, 414.87244912940724 263.51010901935257, 414.90946124530507 274.7490965568717 M414.68496341955336 274.3132455901454 C406.2516345715282 274.4913947104269, 397.27353801077174 274.66394732961055, 384.3654303023503 275.09134335666255 M415.081502433818 275.3757961425325 C406.1923104726506 274.6744711205931, 396.5156997976158 275.34506411311855, 384.7969442252366 275.12996184430597 M384.5057243611168 275.2458791049613 C385.58384534162633 257.5036552314245, 384.68072595685976 239.64543222460986, 384.75331781967225 229.386892353274 M385.32284002911194 274.7264735346822 C384.9839151115584 260.4140368251274, 385.0219471287406 245.02300528819652, 384.74807780788944 229.61934012784428" stroke="#000000" stroke-width="1.5" fill="none"></path></g><g><path d="M290.2983320153645 299.94533147417764 C296.6476585889171 300.505121881101, 304.2363056302277 300.4298281323687, 319.6774772243504 300.2493642081645 M290.2692188274277 299.82561716051896 C298.91666668802964 299.8500729114307, 308.1788400746932 300.0132191283808, 319.90861053464187 299.9898368620077 M319.98791103243826 299.9951523118563 C319.85895317523426 301.0714340324826, 319.94115991530026 302.2004352730347, 320.01466601335267 304.9501369536024 M320.05152592555527 299.9834757791387 C320.03399317766923 301.8871566578915, 320.0428059980233 303.69510592106803, 320.0502987865957 304.9884415289264 M319.75496872551884 304.6431709839644 C313.74867521104335 305.0221474932766, 306.92874481730513 305.4127493346112, 290.0563540834825 305.025693179489 M320.0010011192972 304.9976977062573 C313.58355663370725 304.967257532694, 307.0391950488579 305.1721456859982, 289.8772142890614 304.8528597112238 M289.97227692242495 305.1306271579274 C289.9208840533084 303.57926366392536, 289.9747979342564 302.26997329774974, 289.9377313884865 299.94661901075784 M289.9642087469597 304.94326459854466 C289.93376406907424 303.7464033826205, 289.9314664684759 302.44620476423006, 289.99962233858065 299.9595802442237" stroke="undefined" stroke-width="1.2" fill="none"></path></g><g><path d="M290.0133120504781 294.1518946112465 C296.12579116241665 293.91327964306487, 303.7888314569659 293.73660365215505, 319.71942448882277 294.1283350174341 M289.9698190610669 294.03815436466346 C301.38084615712097 293.89853584104367, 312.46795026832933 294.25805017251867, 319.9688621813597 293.9813235510432 M320.021145999885 293.967034967638 C319.9096507364973 295.7788493903364, 319.9680997878698 297.24498354299965, 320.00154988228894 298.99404439528803 M319.97309624754337 293.93441507156814 C319.9895565528765 295.28549853321886, 320.0484412379152 296.735987978644, 319.99190352426143 299.06188664313777 M319.64047469852375 299.37801775012076 C308.45931636064284 298.6795638307996, 295.9459032993982 299.4973722709516, 289.7297590231259 299.35980406109536 M319.98400708183595 299.2467577314303 C312.02343147588726 298.7397646299487, 304.21019224496104 298.7083698434576, 290.1434169403801 299.063744920653 M289.96910232033116 299.04399100275685 C290.04490941501535 297.35952118374297, 289.9178578348716 295.82043281755205, 290.11318864994917 294.06204331645534 M289.9452439557877 298.95345209276724 C289.97098448251353 297.8280098094911, 289.99459151253023 296.56607256214306, 289.93704235191257 293.96540606533" stroke="undefined" stroke-width="1.2" fill="none"></path></g><g><path d="M289.448064193282 288.37187958346203 C300.73780129938285 288.431433181676, 311.43220142171367 288.1819473364125, 320.0087268508999 288.58918516449694 M290.2740115721171 288.0697580344127 C297.3774645294226 287.97926342220063, 304.2120404406287 287.9823835040963, 320.1421769523088 288.18658114590335 M320.020452160175 287.9386977948793 C320.0691589960852 289.18627759794697, 320.0987606080273 290.3036794237237, 320.0800915196202 293.0925437647207 M319.95560987570485 288.00230765926983 C320.0218291533696 289.51934589853636, 319.98045198715255 291.0839826836148, 320.0516298736268 292.9502419090472 M320.5990063025652 293.33800021650393 C310.9272352856615 292.8516179733601, 301.9155106635726 292.96315659842526, 290.50705184674445 292.57021390362274 M319.85815493396814 293.1013985979045 C310.8785930205404 293.1477547718636, 301.6029324938888 293.20132454381815, 289.8274456491057 292.88500247455056 M289.9418058218421 293.06621990987327 C289.86117311160035 291.1146949317156, 289.94832441205807 289.4366090917111, 290.02268572224915 288.1452975925228 M290.00147092321373 292.9808385079666 C289.9246239956072 291.78323137636505, 290.0467187129861 290.4992016490741, 289.94361776565694 288.04943503850717" stroke="undefined" stroke-width="1.2" fill="none"></path></g><g><path d="M289.42067193685233 282.0061749438688 C298.01878708430644 282.17273307961074, 305.6341292597687 281.56039952223847, 319.9095876566456 282.46501772886336 M289.72039835095444 282.2734890196167 C298.14655547399906 281.8522416082072, 305.7026463012516 281.8679429660646, 320.2872645401172 282.055457648929 M320.1093159636139 281.8711010995969 C320.0190882908168 283.64263530307574, 319.96640659484916 285.3274619146972, 320.0222700835197 287.1463743406945 M320.0244684079283 282.00721724399165 C319.98147516216585 283.15493673927125, 320.01720665213065 284.26942226460443, 319.9283381270347 287.01614762573536 M320.44166747642817 286.7409164041297 C313.6001738594988 286.6452522396625, 306.9936756985307 286.55831921403944, 290.1699615864096 287.2241545768809 M319.8405216662912 287.11530350888853 C311.35444040109877 287.0785804290915, 302.88909801978855 287.30790610211557, 290.24469834800425 287.02073003484475 M289.9740924602325 287.0021483510647 C290.03274657360197 285.3950672240499, 289.84542320059296 283.98059773077995, 289.8598833191275 281.94639020465536 M289.96879164525154 286.99863639875537 C290.026494792964 285.3462097969363, 290.00833249113373 283.66854224028185, 289.9907152891599 282.03142804003824" stroke="undefined" stroke-width="1.2" fill="none"></path></g><g><path d="M152.02323984591965 216.95261781223724 C152.02323984591965 216.95261781223724, 152.02323984591965 216.95261781223724, 152.02323984591965 216.95261781223724 M152.02323984591965 216.95261781223724 C152.02323984591965 216.95261781223724, 152.02323984591965 216.95261781223724, 152.02323984591965 216.95261781223724 M153.9156665178656 224.6675051244273 C155.9448770731245 219.71354428666027, 162.66774685859937 216.23060609271565, 164.27088890520852 212.08363469984414 M153.67357559380108 223.98282290759335 C156.13132288343562 221.05562525494588, 159.342980905896 217.36849562529807, 163.47184401747464 212.59768804359064 M159.7426951702064 226.0981144994759 C161.32279136041208 223.32903567948514, 165.1703284970456 220.9674421419036, 167.33804302778492 217.47478052070363 M159.61616034904313 227.68201070433685 C162.30357831243546 223.70780325687747, 165.81160957548153 220.67238814058172, 168.04555462661077 217.3917216247901" stroke="none" stroke-width="0.75" fill="none"></path><path d="M157.57843434340577 212.5642618649693 C159.3095368744273 211.727176943569, 161.8645580113433 211.423381695401, 163.49977117911723 211.96634033369912 C165.13498434689117 212.50929897199725, 166.53166435056298 214.0833125787195, 167.38971335004948 215.82201369475814 C168.24776234953598 217.56071481079678, 169.03551871727217 220.60829246293133, 168.64806517603623 222.39854702993094 C168.26061163480028 224.18880159693055, 166.46475815152453 225.75765670311222, 165.06499210263377 226.5635410967558 C163.665226053743 227.3694254903994, 162.07379688678543 227.4002540819682, 160.24946888269164 227.23385339179256 C158.42514087859786 227.06745270161693, 155.56457202725116 226.52477125066596, 154.11902407807102 225.56513695570197 C152.67347612889088 224.60550266073798, 151.88079127511494 222.96287431957037, 151.5761811876108 221.47604762200868 C151.27157110010668 219.98922092444698, 151.00922586825848 218.15025269262344, 152.2913635530463 216.6441767703318 C153.5735012378341 215.13810084804015, 157.82505347772354 212.98475351158163, 159.26900729633763 212.43959208825876 C160.71296111495172 211.8944306649359, 160.9727650500628 213.41462876050483, 160.95508646473087 213.37320823039468 M158.97885694669864 213.53917555115927 C160.61169762108284 213.41426682570653, 161.03805702662237 212.96230086150746, 162.4969631008413 213.6953865432554 C163.95586917506023 214.42847222500336, 166.72560788751414 216.30010349802092, 167.7322933920122 217.93768964164707 C168.73897889651025 219.57527578527322, 169.29629505796066 222.03523911284, 168.53707612782958 223.52090340501232 C167.7778571976985 225.00656769718464, 164.63942677119144 226.2446677208827, 163.17697981122578 226.85167539468102 C161.71453285126012 227.45868306847936, 161.20851027325074 227.43867306663645, 159.76239436803556 227.1629494478023 C158.31627846282038 226.88722582896816, 156.06426532848315 226.28051746725828, 154.50028437993464 225.19733368167607 C152.93630343138614 224.11414989609386, 150.4915893335772 222.32484572101552, 150.37850867674445 220.66384673430903 C150.2654280199117 219.00284774760254, 152.31764583792037 216.68020682161318, 153.82180043893808 215.2313397614372 C155.3259550399558 213.7824727012612, 158.79028876566372 212.42638024983043, 159.40343628285075 211.9706443732532 C160.01658380003778 211.514908496676, 157.63443093670782 212.1005744820811, 157.50068554206035 212.49692450197392" stroke="#000000" stroke-width="1.5" fill="none"></path></g><g><path d="M158.648019751378 237.6267825468829 C160.54713560041955 248.92081837950423, 161.40160534715815 258.6064383470945, 160.79237520247725 270.23283832894407 M160.92571044422314 236.8724803632888 C159.38023767938796 246.57696239033217, 159.36214528310597 255.78164775442403, 160.62258428662486 270.6691166222792" stroke="#000000" stroke-width="1.5" fill="none"></path></g><g><path d="M534.3512931214481 215.40204969584937 C534.3512931214481 215.40204969584937, 534.3512931214481 215.40204969584937, 534.3512931214481 215.40204969584937 M534.3512931214481 215.40204969584937 C534.3512931214481 215.40204969584937, 534.3512931214481 215.40204969584937, 534.3512931214481 215.40204969584937 M535.2965295247427 223.15527931078273 C538.2727013894001 221.12287154406746, 540.053158207443 217.85736252021283, 541.5524626668384 216.27013116461632 M535.6292555898112 223.04585357241174 C537.504977983653 221.5724289221013, 538.4989888922328 219.1124606407618, 541.9053745533133 216.43156652870982 M538.284923992808 228.83474465950394 C542.0227823649325 226.53688797585704, 544.7213174911823 219.6330625254739, 549.324413835883 218.60353964342215 M538.7701944658561 229.18201574283339 C542.6619134218148 223.92770995661215, 545.8201976597508 220.078521817429, 549.4444259717388 217.27935221251948" stroke="none" stroke-width="0.75" fill="none"></path><path d="M544.8404785599078 213.79346716922845 C546.5201670085997 214.17975677936482, 547.3578536076247 214.7000097701716, 547.9757395736129 216.24838645065986 C548.5936255396011 217.79676313114814, 549.3192823345958 221.29764958308027, 548.5477943558368 223.08372725215816 C547.7763063770778 224.86980492123604, 544.8300290385621 226.20545149162058, 543.346811701059 226.96485246512717 C541.8635943635559 227.72425343863375, 541.1858134966574 227.8897534991601, 539.6484903308178 227.64013309319768 C538.1111671649783 227.39051268723526, 535.3763727148964 226.6656250875541, 534.1228727060218 225.46713002935272 C532.8693726971471 224.26863497115133, 532.1112618578973 222.10155018928546, 532.12749027757 220.44916274398938 C532.1437186972428 218.7967752986933, 533.1397014846017 216.7499022346197, 534.2202432240581 215.55280535757618 C535.3007849635145 214.35570848053266, 536.9460243713833 213.5697962520044, 538.6107407143086 213.26658148172828 C540.2754570572339 212.96336671145215, 543.3542089552138 213.49343783122714, 544.2085412816098 213.7335167359194 C545.0628736080057 213.97359564061168, 543.7886845135474 214.48332746648515, 543.7367346726843 214.70705490988195 M542.3048251220505 211.34217431487747 C543.7648591869144 211.78454424732828, 544.639486146284 215.4337075876989, 545.6990949433052 216.90982130447472 C546.7587037403265 218.38593502125053, 548.7582606446388 218.88188498927994, 548.6624779041782 220.1988566155323 C548.5666951637177 221.51582824178465, 546.359185210225 223.45655091333407, 545.1243985005419 224.81165106198887 C543.8896117908589 226.16675121064367, 543.1529736639593 228.13155741292016, 541.2537576460802 228.32945750746117 C539.3545416282011 228.52735760200218, 535.4778137189272 227.3207583706524, 533.7291023932675 225.999051629235 C531.9803910676077 224.67734488781758, 530.9097071336365 221.81644258559666, 530.7614896921214 220.39921705895676 C530.6132722506062 218.98199153231687, 531.6531123414204 218.53827795951668, 532.8397977441763 217.4956984693956 C534.0264831469322 216.4531189792745, 536.1134710830022 214.9417689563929, 537.8816021086564 214.14374011823034 C539.6497331343105 213.34571128006777, 542.5213418284558 212.6855402063117, 543.4485838981011 212.70752544042023 C544.3758259677464 212.72951067452874, 543.6523987806509 214.02276696707102, 543.4450545265281 214.27565152288147" stroke="#000000" stroke-width="1.5" fill="none"></path></g><g><path d="M541.77377169781 234.6145371199812 C540.9374369061035 247.46795924703034, 541.626704289432 262.072914196713, 538.2847451008373 268.0219467387839 M539.4678056239395 236.75177614293025 C540.491264316765 249.7398350769347, 540.3323195268296 260.66845387501826, 540.72510923105 270.3604780740969" stroke="#000000" stroke-width="1.5" fill="none"></path></g><g><path d="M247.56871992376165 175.4578151274015 C247.56871992376165 175.4578151274015, 247.56871992376165 175.4578151274015, 247.56871992376165 175.4578151274015 M247.56871992376165 175.4578151274015 C247.56871992376165 175.4578151274015, 247.56871992376165 175.4578151274015, 247.56871992376165 175.4578151274015 M246.27581460677962 183.47874166656618 C248.69672733081643 180.37260914111982, 249.5277159672555 178.24782778796592, 252.07861546457085 175.54522609454207 M246.3250633219825 183.44998151583906 C248.48006259002574 180.61712303786035, 251.0453457086285 177.55204639119458, 252.41077298716075 175.9914025015086 M250.5806965769499 184.41064591307978 C251.37773007885474 182.9792427486427, 253.3097989964843 181.3814573145476, 254.65563376341248 179.49164772239854 M250.18689748218918 184.4993663635479 C251.11568955852331 183.34775315416803, 252.38398090703083 182.17923373286112, 254.71609430889882 178.96975688043847" stroke="none" stroke-width="0.5" fill="none"></path><path d="M250.39316091707192 175.12846124595828 C251.29539903035834 175.13670783105283, 252.541333541209 175.61622656411743, 253.29716175063263 176.31890965114445 C254.05298996005624 177.02159273817148, 254.7646078845596 178.2040251652503, 254.92813017361357 179.34455976812038 C255.09165246266753 180.48509437099045, 255.0163592436116 182.28697148066837, 254.27829548495643 183.16211726836482 C253.54023172630127 184.03726305606128, 251.64618205857013 184.34587885763173, 250.49974762168256 184.59543449429913 C249.35331318479498 184.84499013096652, 248.29008835169063 185.0631716969954, 247.39968886363104 184.65945108836914 C246.50928937557146 184.25573047974288, 245.4515108581716 183.07554385453898, 245.15735069332504 182.17311084254158 C244.8631905284785 181.27067783054417, 245.26453820900832 180.3275963013557, 245.63472787455174 179.24485301638464 C246.00491754009516 178.16210973141358, 246.42302717716748 176.3978608848658, 247.37848868658565 175.6766511327153 C248.33395019600383 174.95544138056482, 250.6266819023692 174.9518872663349, 251.3674969310607 174.91759450348172 C252.10831195975223 174.88330174062855, 252.0208470074736 175.21111192922723, 251.8233788587347 175.47089455559632 M249.3187533934762 174.42584601876197 C250.1278238865996 174.21371824030464, 250.82864264273226 175.04115040702914, 251.7862806640221 175.6637735186076 C252.7439186853119 176.28639663018606, 254.70376053310295 177.10020254513438, 255.06458152121513 178.16158468823284 C255.4254025093273 179.2229668313313, 254.31268176122742 181.16048923476728, 253.95120659269514 182.03206637719836 C253.58973142416286 182.90364351962944, 253.7489512937651 182.8170030615291, 252.89573051002145 183.39104754281936 C252.0425097262778 183.96509202410962, 249.89039461808457 185.47382237519437, 248.83188189023332 185.47633326493988 C247.77336916238207 185.4788441546854, 247.22645857123806 184.22123780650713, 246.54465414291397 183.40611288129236 C245.86284971458988 182.59098795607758, 244.83320730968765 181.91153284556412, 244.7410553202888 180.58558371365115 C244.64890333088996 179.25963458173817, 245.32931232895118 176.20837608454195, 245.99174220652088 175.45041808981446 C246.6541720840906 174.69246009508697, 247.9076447821287 176.26543953894307, 248.71563458570705 176.03783574528617 C249.5236243892854 175.81023195162928, 250.6210315244894 174.0390640378596, 250.83968102799096 174.0847953278731" stroke="#000000" stroke-width="1" fill="none"></path></g><g><path d="M447.88239734737687 174.68612319290477 C447.88239734737687 174.68612319290477, 447.88239734737687 174.68612319290477, 447.88239734737687 174.68612319290477 M447.88239734737687 174.68612319290477 C447.88239734737687 174.68612319290477, 447.88239734737687 174.68612319290477, 447.88239734737687 174.68612319290477 M446.8527346571804 182.4299173294336 C448.6022733637994 180.46165142561367, 449.88932630714066 177.91669326273927, 450.92405311707506 176.32923178833258 M446.2805574245327 182.30616153560092 C447.7330216487692 181.1442650927016, 448.45608847958397 179.7657061741487, 451.7621485200728 176.29118572303048 M449.25824003902727 185.43150086618257 C451.1212505503793 183.1476330258926, 452.23621045354736 181.77057590025348, 455.1287207292911 179.73941437564454 M449.30737707136706 185.15671799163275 C451.18610294320035 183.107428715253, 452.9877835051623 181.06146261820282, 454.3873846839909 178.91554358769602" stroke="none" stroke-width="0.5" fill="none"></path><path d="M449.67177204412104 174.84232509267656 C450.6228196110007 175.09226514452186, 452.4375484911753 176.22904485312716, 453.2425451158858 176.95909733968438 C454.0475417405963 177.6891498262416, 454.2818921158782 178.11925922032873, 454.50175179238397 179.2226400120198 C454.72161146888976 180.3260208037109, 455.0258219348847 182.7132685420039, 454.5617031749206 183.5793820898308 C454.0975844149565 184.4454956376577, 452.71081434822736 184.17033496353935, 451.71703923259923 184.41932129898126 C450.7232641169711 184.66830763442317, 449.64656376003853 185.51909528717925, 448.59905248115166 185.07330010248222 C447.5515412022648 184.6275049177852, 445.9275106633807 182.67819746406047, 445.431971559278 181.74455019079912 C444.9364324551753 180.81090291753776, 445.26825693828107 180.5893323447686, 445.62581785653555 179.47141646291405 C445.98337877479 178.3535005810595, 446.71960294273345 175.7832092843323, 447.57733706880504 175.0370548996719 C448.4350711948766 174.2909005150115, 449.9676302631199 174.96566861038227, 450.772222612965 174.9944901549517 C451.5768149628101 175.02331169952114, 452.41541160535047 175.1965202337304, 452.4048911678756 175.20998416708855 M448.61531315260487 176.27388937653316 C449.65721167621786 175.97941538021544, 450.482719043307 174.75531982280285, 451.5353576468083 174.82240203230128 C452.5879962503096 174.88948424179972, 454.2572252361974 175.6680466636638, 454.9311447736125 176.6763826335237 C455.6050643110276 177.6847186033836, 456.02501088695476 179.83699675472226, 455.5788748712988 180.87241785146068 C455.13273885564286 181.9078389481991, 453.2126322659875 182.37925561657323, 452.254328679677 182.8889092139542 C451.29602509336644 183.39856281133518, 450.70021217631825 183.8707620414044, 449.8290533534354 183.93033943574656 C448.9578945305526 183.98991683008873, 447.69320727698255 183.76083118962003, 447.0273757423801 183.24637358000723 C446.3615442077777 182.73191597039443, 445.89875496611364 181.79875614414928, 445.834064145821 180.8435937780697 C445.76937332552836 179.88843141199013, 446.05593636240064 178.49390979679646, 446.6392308206241 177.5153993835297 C447.22252527884757 176.53688897026296, 448.86070160738825 175.31702723474098, 449.33383089516184 174.97253129846914 C449.8069601829354 174.6280353621973, 449.52011629848744 175.35881151372175, 449.4780065472656 175.4484237658987" stroke="#000000" stroke-width="1" fill="none"></path></g><g><path d="M513.4378743783951 345.623747395183 C513.4378743783951 345.623747395183, 513.4378743783951 345.623747395183, 513.4378743783951 345.623747395183 M513.4378743783951 345.623747395183 C513.4378743783951 345.623747395183, 513.4378743783951 345.623747395183, 513.4378743783951 345.623747395183 M514.5829403152547 355.04959878847427 C516.8518131242296 350.0090253794061, 520.0458471988543 348.5138318845278, 521.9009293473828 343.52149797586327 M513.5443025383095 354.1763832250135 C516.6789589289767 349.7595797979569, 520.609066893607 347.14045278911146, 523.3975650212325 343.86768884336857 M518.2542721025164 357.09652266448785 C522.0562198476229 355.06739723642994, 523.7236632625084 351.0646444851486, 527.3159003271572 348.09543304581365 M518.2191257627888 358.146534345952 C522.1792875665274 354.4806564872633, 525.0500658198055 350.79184812274406, 527.4217631678332 348.7171150166629" stroke="none" stroke-width="0.75" fill="none"></path><path d="M517.6177326692244 342.8593917993876 C519.1610944386682 342.37942197724124, 521.5601160783258 342.7964982772233, 522.9618427258521 343.3513017676007 C524.3635693733784 343.90610525797814, 525.1704106184228 344.78144279999316, 526.0280925543819 346.18821274165225 C526.8857744903411 347.59498268331134, 528.3132790358825 349.98207273632727, 528.107934341607 351.79192141755533 C527.9025896473315 353.6017700987834, 526.188865623468 356.0325437904536, 524.7960243887288 357.04730482902045 C523.4031831539896 358.0620658675873, 521.5919522519439 358.00878835318844, 519.7508869331722 357.8804876489564 C517.9098216144005 357.7521869447243, 514.8834317114337 357.3937285195381, 513.7496324760987 356.277500603628 C512.6158332407637 355.16127268771794, 513.0102482928417 352.9470152795176, 512.9480915211623 351.1831201534959 C512.8859347494829 349.4192250274742, 512.1282531742884 347.2116392522278, 513.3766918460226 345.69412984749806 C514.6251305177568 344.1766204427683, 519.0004872699587 342.5705943006211, 520.4387235515674 342.07806372511743 C521.876959833176 341.58553314961375, 522.1300399796988 342.70294999644915, 522.006109535674 342.7389463944759 M524.4405800323113 342.3439077072232 C526.1386933161538 342.6438602446742, 527.3566855292145 344.77368291915116, 528.0427566402972 346.4798342314185 C528.7288277513799 348.1859855436859, 529.0580254556969 350.9849008865367, 528.5570066988074 352.5808155808272 C528.0559879419179 354.17673027511773, 526.4092740412384 354.9554226678693, 525.03664409896 356.05532239716166 C523.6640141566816 357.155222126454, 522.0615703645324 359.20320500540964, 520.3212270451371 359.18021395658127 C518.5808837257418 359.1572229077529, 516.1320321135504 357.09723877145495, 514.5945841825884 355.9173761041915 C513.0571362516264 354.737513436928, 511.21909138138085 353.6919082654817, 511.09653945936475 352.10103795300034 C510.97398753734865 350.510167640519, 512.6946786972374 348.1514037424523, 513.8592726504918 346.3721542293034 C515.0238666037462 344.5929047161545, 516.5340258978471 342.01875751194916, 518.0841031788916 341.42554087410707 C519.6341804599361 340.832324236265, 522.1279486175725 342.4934197471904, 523.1597363367591 342.8128544022509 C524.1915240559457 343.13228905731137, 524.0923331741864 342.9914719196017, 524.274829494011 343.34214880447007" stroke="#000000" stroke-width="1.5" fill="none"></path></g><g><path d="M518.5786937519073 348.767580504737 C518.5786937519073 348.767580504737, 518.5786937519073 348.767580504737, 518.5786937519073 348.767580504737 M518.5786937519073 348.767580504737 C518.5786937519073 348.767580504737, 518.5786937519073 348.767580504737, 518.5786937519073 348.767580504737" stroke="none" stroke-width="0.6" fill="none"></path><path d="M520.1852008393137 347.398948920779 C520.729536411347 347.6351544771709, 522.2732559148485 348.466032945423, 522.6797281882501 348.81345870382876 C523.0862004616517 349.1608844622345, 522.7015627785977 349.1908546287368, 522.624034479723 349.48350347121334 C522.5465061808484 349.77615231368986, 522.4355152977078 350.22656951178885, 522.2145583950023 350.56935175868784 C521.9936014922969 350.91213400558684, 521.8467138647852 351.1720766281937, 521.2982930634902 351.5401969526074 C520.7498722621951 351.9083172770211, 519.4662903659947 352.83163985440683, 518.9240335872324 352.7780737051701 C518.3817768084701 352.7245075559333, 518.1510399541326 351.83115707517345, 518.0447523909163 351.2188000571869 C517.9384648277 350.60644303920037, 518.051897857166 349.53195811691614, 518.286308207935 349.10393159725066 C518.5207185587041 348.6759050775852, 519.0818613321143 348.81324628030404, 519.4512144955305 348.6506409391942 C519.8205676589467 348.48803559808437, 520.1963972991707 348.2608204769173, 520.5024271884325 348.1282995505916 C520.8084570776944 347.9957786242659, 521.4457202601901 347.77603884328335, 521.2873938311017 347.85551538124 M521.7456963690095 346.7898963042957 C522.0104620164279 346.8451997596696, 520.7227387698158 346.74006308099104, 521.0364973428534 347.42857669291374 C521.350255915891 348.11709030483644, 523.6575824054016 350.14144671028873, 523.6282478072347 350.92097797583193 C523.5989132090679 351.70050924137513, 521.3912566906106 351.98964842490136, 520.860489753852 352.1057642861728 C520.3297228170934 352.22188014744427, 520.834430081861 351.8769882114074, 520.4436461866834 351.61767314346065 C520.0528622915058 351.3583580755139, 519.1193834392166 350.8148760013824, 518.515786382786 350.54987387849206 C517.9121893263555 350.2848717556017, 517.1329161741936 350.27654006112874, 516.8220638481 350.02766040611857 C516.5112115220064 349.7787807511084, 516.1359227067156 349.60586015637995, 516.6506724262243 349.0565959484311 C517.165422145733 348.50733174048224, 519.3070712070555 347.1524501850092, 519.9105621651523 346.73207515842546 C520.5140531232491 346.31170013184175, 520.1991228865786 346.2078271947705, 520.2716181748056 346.53434578892876 C520.3441134630325 346.860864383087, 520.0872602040681 348.56245377495407, 520.3455338945141 348.69118672337504" stroke="#000000" stroke-width="1.2" fill="none"></path></g><g><path d="M519.6698595694612 344.64497093188197 C519.0870353719237 342.9801431183341, 519.2976978632466 338.40830642325045, 520.8649120361308 334.20413145988624 M519.7540432119529 344.5615356652693 C520.0785915855606 340.87157765126767, 519.8850148922671 336.56043046607533, 519.8171272978956 333.73618905472796" stroke="#000000" stroke-width="1.2" fill="none"></path></g><g><path d="M524.1415891623507 352.9984212721485 C526.4498991527298 354.3899118571998, 528.6785159536274 356.2263274740598, 532.9588191654739 356.9484895831889 M524.0620952923356 353.1144453318493 C528.2315949357031 354.88948355521273, 531.0364036066911 356.5443579163877, 533.6460737889412 358.1160976304836" stroke="#000000" stroke-width="1.2" fill="none"></path></g><g><path d="M515.5523931639531 352.830040383552 C513.7158836604067 353.05230476827114, 512.8286007149633 354.2260480875757, 505.28165633815587 358.366733840635 M516.3244455673126 352.4845573101147 C512.7370374712846 354.00038369430723, 510.0489662350612 355.33154479260276, 506.1023464367532 358.0816232036744" stroke="#000000" stroke-width="1.2" fill="none"></path></g><text x="400" y="560" text-anchor="middle" font-family="sans-serif" font-size="16" fill="#222" font-style="italic">You can't detect a single bluff. But you can read patterns.</text></svg>