<?xml version="1.0" encoding="UTF-8"?>
<svg width="800" height="600" viewBox="0 0 800 600" xmlns="http://www.w3.org/2000/svg"><rect width="800" height="600" fill="#FFFFFF"></rect><g><path d="M284.8353649108763 229.38804879586087 C292.8182282202005 229.70409486061183, 299.88309212795383 230.117086975235, 315.0113180145444 229.38194997803149 M285.13800191311714 230.18989279238835 C294.91569658214655 230.20865872858542, 304.49207943011936 230.35907560955658, 314.8990930765889 230.3465785669071 M315.74763532598 229.7296997001849 C315.62826002031505 242.0502777908614, 315.15102917601394 253.09883257455405, 315.0554852167045 275.1783346855557 M314.9202487264463 229.93668250523694 C314.8334374776563 245.0448015850642, 314.6635935534111 260.28861245759333, 314.96829993865117 274.8058403706388 M315.1364998357551 274.83665116772215 C305.7668829122845 275.4283405836243, 297.7106450776438 274.8724088166762, 284.923498831059 274.91396702757294 M314.81610670627254 274.7127839871471 C304.66431624741824 274.9553267081648, 294.0972303353945 275.06757169561786, 285.20592499546154 274.92204813890856 M285.14584667699205 274.7252724524875 C285.29817002368964 260.8258200867985, 284.51703858833736 247.21342405737877, 285.67190291390597 230.74667407995682 M285.04002197641705 275.27139256056387 C284.92812161273633 262.4262651978372, 284.9094192738326 249.3174581892032, 284.84829623232196 230.12041771538745" stroke="#000000" stroke-width="1.5" fill="none"></path></g><g><path d="M310.34281990737685 229.86602855490466 C319.7444846313044 230.15277384181843, 327.6388178544472 229.96664204911832, 340.41366889077943 230.29760923975954 M309.8542261913628 230.11687909195538 C318.4735674106524 229.70973869556997, 327.12761126423146 229.88819138915142, 339.913542208705 230.25414246953127 M340.34239214581055 229.78398234329717 C339.6735983792558 246.75566037928033, 340.67508894463066 261.612028517527, 340.240931251594 274.9791628066219 M339.7004682961678 230.3159348762949 C340.1620926059963 244.33886067556082, 339.96505173298937 259.0516361509633, 339.683889820234 274.77686568059175 M340.02610600077895 275.7682737642313 C327.67766716143115 275.09992830750343, 316.7263667312693 274.64441138697117, 309.81066178552925 274.52382948050035 M340.2113079282276 275.37354621062633 C331.93782418477815 274.78731190316904, 323.8627200927234 275.3352929706582, 310.1884505146758 275.2686938308857 M310.4914660548278 274.7013931327 C310.2356492562503 261.25280754220705, 310.7466928758256 247.47422590794878, 309.6620449110059 230.147614783214 M309.8427706240968 274.9511802529778 C309.96226719639503 263.1391656743187, 309.741352937737 250.9314922403822, 309.9993845562193 229.62147663851698" stroke="#000000" stroke-width="1.5" fill="none"></path></g><g><path d="M335.78840878599414 230.12290770765296 C344.6472756321477 230.5723216608038, 354.3509721866515 229.91041841775737, 365.66231002783917 229.8451586356612 M334.85058520047113 230.27674975350584 C342.60890217769713 229.7723654535203, 350.4416617593041 229.7623280964994, 364.62452104052045 230.03646432922145 M364.74758434118814 230.6780114828299 C365.2432280774289 245.12488410380809, 364.55487930562384 258.77728124691845, 365.4222930528769 274.76921840261303 M365.31784588144717 229.75498942754115 C364.99924854711344 244.6091747545794, 365.0145521398549 258.8748845827498, 364.9507459380097 275.3335072481139 M365.1119116633207 275.1345881789298 C357.0974033489303 275.4199871877282, 348.11057912777204 274.73650329637087, 334.37487785817575 275.0923332713643 M365.0946719660956 274.9393223084294 C358.1258303011351 274.8863901729614, 350.97438293644154 274.63525912431504, 335.04483795516734 274.7412402451639 M335.4734808703167 275.1097429678806 C335.0362386589408 261.0573652692261, 334.151696040218 245.77562460530493, 334.537164835135 230.78299783742708 M335.35136628110087 275.19515911860645 C335.0439827485908 260.99379578932655, 335.2284139356603 247.48999945151112, 334.7484606298016 229.77773071362788" stroke="#000000" stroke-width="1.5" fill="none"></path></g><g><path d="M359.9581829203681 230.405155811046 C369.7071653104641 229.74370646879754, 377.9970106404752 229.5438121022881, 390.6407169775642 229.80936760483732 M360.35349858730234 230.39562668455645 C366.937093089886 230.31247484616088, 374.26480375953776 230.4027937825568, 389.97148283935826 230.1592636327389 M390.0555287040071 229.62173471353933 C390.6781003183722 245.90245074078297, 390.7217700085068 261.711336461072, 390.1366288905794 274.36190718484227 M390.11584688954923 229.83895568949805 C390.26676854072764 244.19724225725594, 390.07571951837684 259.0337522746922, 389.96148546632577 275.3296959048958 M389.7614008424947 275.2072984343842 C379.2142962005544 275.8519589003334, 369.48718759434894 274.3477627894465, 360.40110030567797 274.36817104284273 M389.72168904146355 275.3140162056537 C381.5036208719838 275.27941328637354, 373.37580526480775 274.9185609897929, 359.6924596861363 274.8844528869044 M359.2137810651505 275.25609124916537 C359.64267290062895 259.61620877437264, 360.75819283049765 244.0677862509731, 359.42061671134394 230.63564132882797 M359.7283373830485 274.7354407682448 C360.4961836575683 264.821346691293, 360.401067886391 255.54525032407008, 360.0313421667121 230.33043724935135" stroke="#000000" stroke-width="1.5" fill="none"></path></g><g><path d="M385.5400976544078 229.43760910865802 C393.75545989236906 230.75134780785288, 401.63935032962564 229.8395471721279, 415.3432100955989 229.90263136942673 M385.0842798581468 230.1800301938529 C395.619065970776 230.177721965643, 406.44682369544165 229.62958373010724, 414.6146560770396 230.26165839949283 M414.7582664236955 230.78707763827023 C414.6346645700021 243.33158146095582, 415.0104451724768 256.80080194710234, 414.82440929788913 275.0742082995183 M415.316766268611 229.9069865632013 C414.91061817196515 242.6382676488458, 415.30137206155536 254.99723681765073, 414.7803894424493 274.68714558338945 M415.5482800356586 274.2823063944875 C407.33415979712396 274.70238970030044, 401.45699923859877 275.0854459326911, 384.9843722027414 274.8246804210791 M415.35249744533 275.37174051254476 C406.76645581648563 274.63048656744763, 398.65073922018087 274.6408412991024, 384.98800306438756 275.2906721573172 M384.23539625731195 275.05650015067874 C385.0029855695539 264.10036932872026, 385.51878032161227 252.81504855749046, 384.6275806015075 230.41405651750316 M385.1125324674944 274.67036785013573 C384.7826223160231 264.6744818638899, 384.92357011072824 253.42937334048847, 384.8490300326023 229.851248572063" stroke="#000000" stroke-width="1.5" fill="none"></path></g><g><path d="M289.67353310025135 300.59693614151 C296.9778231120431 299.6905873561395, 304.72300202465266 300.3279184783775, 319.9882688424131 300.3701302518097 M290.1310728325312 300.2605381890512 C297.18434373676155 299.9796102330665, 304.09421146776845 300.2514234486563, 319.854739032354 300.0599960249809 M319.87733892873496 300.1131334352644 C320.03020913717603 301.40273087275347, 319.94631474304686 302.49797711443307, 319.93460575055366 304.976556293941 M320.05287697446664 299.93182711855826 C320.0299637021027 301.89995259724446, 320.05906120999873 303.7252039161653, 319.97156977551606 304.96401697263354 M319.91332106691726 305.468810629205 C312.50075781759466 305.12727959286457, 304.6256354771374 305.4125566264356, 290.19112500548243 304.5473360059337 M319.9051896777963 304.7670493111819 C310.5959119745931 305.28017694943105, 301.3462032818728 305.0674485554589, 289.84933430721657 304.82759060411985 M289.93633932670843 305.0927681806314 C290.0674124759138 303.3536879870528, 290.1396285204756 302.0787486069487, 290.0605516497014 299.8917150299132 M290.04089786884924 305.0626487833504 C289.9527205416395 303.0078808961791, 289.93989696072384 300.9653356208389, 290.0095671972474 300.0288469902305" stroke="#4A90D9" stroke-width="1.2" fill="none"></path></g><g><path d="M289.81553168624237 294.4169931809175 C296.27448380374557 293.9819858637018, 302.4739854402431 293.99936119306557, 319.65897786894976 293.6705381095993 M289.7262116400426 294.261260374195 C296.85232828319954 294.08245497927635, 304.0044596483179 294.2600730012624, 319.7091140406428 294.20224780960933 M319.873266657705 293.85706001478104 C320.10309444266176 295.5717001867306, 320.1187003618129 296.7847227143567, 319.9491980664269 298.8517154266891 M319.96105784182225 294.04576865202205 C320.06162856791985 295.58295892983233, 319.9863676303425 297.1288214627704, 319.9471052320279 298.93000867880727 M319.9599402597825 298.8702855229258 C312.40290830789485 299.352846753618, 304.08307404309613 298.89983046956763, 290.13342220038726 299.42631892503823 M319.75262338930816 299.01260454075555 C310.6624345454598 298.84116857066954, 301.71142479171334 298.7750428637855, 290.25849221237684 298.8261004019061 M290.07795777209833 298.91580984896274 C290.05731304320756 297.3115995398468, 290.09077661183574 295.2981050703676, 289.9311273176477 294.11664927018126 M290.0617359639292 298.9430812170376 C290.074697204931 297.84479390733173, 289.9968816346111 296.7195612782744, 290.0475028139954 293.981732830059" stroke="#4A90D9" stroke-width="1.2" fill="none"></path></g><g><path d="M290.21448386753724 287.5759498229896 C296.63956587591423 288.15057766687187, 302.9798531519685 288.17935836696296, 320.3575354849908 288.07274184326127 M289.7935381551948 287.71002836229457 C297.7789472383418 287.8771990865579, 305.5167963437776 287.97528774564756, 320.00708403515745 287.94849283740103 M320.14958783551845 288.13158116422403 C319.9566705444807 289.119002822826, 319.93418912769795 290.4437663048118, 320.11189201624575 292.91231111886833 M320.0605248441229 287.99545265796104 C319.97541323034056 289.45796913627606, 320.0564313592313 291.0340350520705, 320.0503855001982 292.9967700307542 M320.57635002130104 292.9480044606064 C312.96167013176984 292.79990230312643, 306.14063297275356 293.5976285317209, 290.5970275103808 292.5408481452913 M320.14827817980046 293.08783431076114 C308.9245757585105 293.2962373867728, 298.2333653351248 292.8382266713055, 290.1803213638606 293.0454784366917 M290.0237716796585 293.0908780976671 C290.0484315101457 291.68307088100386, 290.0590511609838 290.64157760479776, 289.93445321272895 288.0586373669105 M290.0506493098045 293.03157864799584 C290.0194409913815 290.9654121148472, 289.9453885573294 289.0651182135355, 290.01832800152346 288.0610222757664" stroke="#4A90D9" stroke-width="1.2" fill="none"></path></g><g><path d="M290.18998164311665 281.8194883702275 C301.9608683080782 281.44115081896734, 313.4849736181181 281.7755111728441, 319.77715785401034 281.8140178297435 M290.2614360425115 281.7183467587748 C298.2492465993146 282.1406312574527, 306.59852166829427 282.2678412575716, 320.08385442331326 281.92950100930216 M319.9619194298076 281.85347594635164 C320.09857743686933 283.44832512022447, 319.979147653007 284.87720236408177, 320.0743636021058 286.86326913720234 M319.95337402137585 281.9874028061072 C320.0642086745232 283.4213819461809, 319.97097060727305 284.9146103988173, 320.0522611011109 287.0646865182663 M320.55186686399924 287.24361213121915 C312.05005533072045 287.18147111278927, 304.71877067369735 287.2488532183663, 289.4521433305772 287.1086438917396 M319.74165716705284 287.1458185661671 C312.80254880078706 286.86906133525264, 306.2945385124245 287.299841552221, 290.15142573259453 287.23918201560156 M289.9995873181667 286.9722744644778 C290.0356447814066 285.85490070020614, 290.07176076848674 284.6611383871693, 289.9361035184432 282.13679141423063 M290.0202507074562 287.0301912057894 C289.950996356587 285.6776946962824, 289.9970427210332 284.4481778149698, 290.0097571647761 282.0129083169509" stroke="#4A90D9" stroke-width="1.2" fill="none"></path></g><g><path d="M155.87889178411749 213.679219941004 C155.87889178411749 213.679219941004, 155.87889178411749 213.679219941004, 155.87889178411749 213.679219941004 M155.87889178411749 213.679219941004 C155.87889178411749 213.679219941004, 155.87889178411749 213.679219941004, 155.87889178411749 213.679219941004 M152.38711904872116 224.3571599562324 C155.72163717425087 221.06534995921768, 158.36329269555006 219.6013647368435, 164.6886337275148 215.0381719439253 M154.01745764532475 225.2660801030047 C156.34285025553754 222.70554146275444, 158.41155826158018 219.65527407274183, 163.82729700788425 213.99571237201005 M160.03218648742143 228.53688126744066 C160.8784655127376 224.99175184598295, 164.92622833760618 223.55264598219074, 167.6286977134444 219.18583204991498 M159.12042341807546 228.52670165133125 C161.8832656691054 225.25193506846142, 164.42771832237932 222.48913882550644, 167.92012543315042 218.18748187950712" stroke="none" stroke-width="0.75" fill="none"></path><path d="M160.47886711026447 212.13639180029506 C162.18401144403273 212.27851841781404, 164.1113598095941 214.14800785551952, 165.26398582859898 215.26399868569158 C166.41661184760386 216.37998951586363, 167.07904993555223 217.20411582999597, 167.39462322429384 218.83233678132737 C167.71019651303544 220.46055773265877, 167.91298669900604 223.56647331624106, 167.15742556104857 225.03332439367992 C166.4018644230911 226.50017547111878, 164.52178980780013 227.23013078761124, 162.86125639654904 227.6334432459606 C161.20072298529794 228.03675570430994, 158.90461397584107 228.02520322293537, 157.19422509354197 227.4531991437761 C155.48383621124287 226.8811950646168, 153.42424277230782 225.77724523209795, 152.59892310275444 224.20141877100485 C151.77360343320106 222.62559230991175, 151.6847161461561 219.76451311436563, 152.2423070762216 217.99824037721754 C152.79989800628712 216.23196764006946, 154.36248109541583 214.510772094711, 155.94446868314753 213.60378234811628 C157.52645627087924 212.69679260152157, 160.3064492661876 212.4818139537653, 161.73423260261174 212.55630189764932 C163.16201593903588 212.63078984153333, 164.60069395908272 213.89740816634023, 164.51116870169238 214.05071001142034 M158.59928954982507 212.08897836132942 C160.41342160093478 211.59769480493694, 162.22986201016684 211.8844613941892, 163.760026770664 212.65901982939738 C165.29019153116118 213.43357826460556, 167.11413538643 215.06050424159508, 167.7802781128081 216.73632897257846 C168.4464208391862 218.41215370356184, 168.23922096458057 220.9253888365477, 167.75688312893263 222.71396821529774 C167.2745452932847 224.50254759404777, 166.48713607589926 226.47109490692233, 164.88625109892055 227.4678052450786 C163.28536612194185 228.46451558323488, 160.27085923524982 228.97441427876822, 158.15157326706043 228.69423024423534 C156.03228729887104 228.41404620970246, 153.0608433368421 227.2264202461817, 152.1705352897842 225.7867010378814 C151.28022724272628 224.34698182958107, 152.39156044915606 221.72989541704024, 152.80972498471294 220.05591499443344 C153.22788952026983 218.38193457182663, 153.92135232927606 217.13634054581863, 154.67952250312555 215.7428185022405 C155.43769267697505 214.3492964586624, 156.4937036141618 212.14185841381192, 157.35874602780984 211.69478273296474 C158.22378844145788 211.24770705211756, 159.78569378896842 213.0121525707166, 159.86977698501386 213.06036441715747" stroke="#000000" stroke-width="1.5" fill="none"></path></g><g><path d="M160.1163352721763 235.92550723174352 C159.86094092375382 246.32425049937126, 158.9633950838354 258.5919881455867, 159.07081028645567 270.95644139664324 M159.78087681382257 235.81459933710212 C159.35938737477147 246.60863610621126, 159.77968809724263 256.9160518707085, 159.268775994593 269.94737201463244" stroke="#000000" stroke-width="1.5" fill="none"></path></g><g><path d="M531.391317537216 218.12903414961175 C531.391317537216 218.12903414961175, 531.391317537216 218.12903414961175, 531.391317537216 218.12903414961175 M531.391317537216 218.12903414961175 C531.391317537216 218.12903414961175, 531.391317537216 218.12903414961175, 531.391317537216 218.12903414961175 M533.8982439400504 224.4614860754553 C536.532895406758 221.75981984306168, 540.0346006329228 217.97417271224273, 543.6001531079494 213.35743395618965 M534.5427172103539 224.45475414184804 C536.6038422819385 221.2665568509107, 539.7928918550662 217.85773184533141, 543.3027209917262 212.9100536672486 M538.2282895044982 227.47486801447826 C542.5212334198411 224.70307588766886, 544.5563185434494 220.61804609598659, 548.4270502744441 217.0981086651753 M538.4984465736903 228.78434697079587 C540.2878306068914 225.58570958483062, 542.2249832982444 223.5564156192924, 547.7949257140136 218.10770945638853" stroke="none" stroke-width="0.75" fill="none"></path><path d="M540.3901855001894 211.01871586271332 C542.0355045508542 210.93481608295593, 544.8136899924281 212.43639445456787, 546.1298283752916 213.80612377852677 C547.4459667581551 215.17585310248566, 548.2941552497215 217.43879325824182, 548.2870157973707 219.23709180646674 C548.2798763450199 221.03539035469166, 547.086699208622 223.21878042942492, 546.0869916611867 224.59591506787635 C545.0872841137515 225.97304970632777, 543.9227313784611 226.90638538140854, 542.2887705127591 227.49989963717533 C540.6548096470572 228.09341389294212, 537.7968777099112 228.90247541088493, 536.283226466975 228.15700060247704 C534.7695752240387 227.41152579406915, 534.0139278501296 224.7078729334371, 533.2068630551414 223.02705078672804 C532.3997982601533 221.34622864001898, 531.0492712685023 219.6806813267491, 531.440837697046 218.07206772222273 C531.8324041255898 216.46345411769636, 533.6455398560594 214.2496103931602, 535.5562616264042 213.37536915956977 C537.466983396749 212.50112792597935, 541.3383756257157 212.7326171987686, 542.905168319115 212.8266203206801 C544.4719610125143 212.9206234425916, 545.0958815209501 213.85541339129048, 544.9570177868002 213.93938789103876 M541.69988922765 211.70358681960246 C543.5057007794506 212.4045874875034, 546.8830311093191 215.80794518393682, 548.1019617719379 217.27863413482052 C549.3208924345568 218.74932308570422, 549.7482302392367 218.83035104399573, 549.0134732033633 220.52772052490462 C548.27871616749 222.2250900058135, 545.0863476109747 225.97356457846772, 543.6934195566978 227.4628510202738 C542.3004915024209 228.9521374620799, 542.2939512397368 229.62757016305255, 540.6559048777016 229.46343917574112 C539.0178585156664 229.29930818842968, 535.0769018185292 227.9059250227026, 533.8651413844866 226.47806509640512 C532.653380950444 225.05020517010763, 533.5919098034838 222.8290248733444, 533.3853422734459 220.89627961795617 C533.178774743408 218.96353436256794, 531.9171252848367 216.3508920471877, 532.6257362042592 214.8815935640758 C533.3343471236816 213.41229508096393, 535.7778718613372 212.61888579486043, 537.6370077899802 212.08048871928477 C539.4961437186232 211.5420916437091, 542.8064700792302 211.6626642375706, 543.7805517761169 211.65121111062192 C544.7546334730037 211.63975798367323, 543.6327617250067 211.88676275173745, 543.4814979713003 212.01176995759266" stroke="#000000" stroke-width="1.5" fill="none"></path></g><g><path d="M539.2051944054818 236.87742265863216 C540.0037070446862 248.0212755626408, 540.1430121311968 257.1472342127468, 539.6072327883236 269.99151002285146 M539.420163892143 236.83068309617482 C539.3560628665804 244.91654708159544, 539.5092998720505 255.82387683599535, 540.2012133468422 270.90719641670967" stroke="#000000" stroke-width="1.5" fill="none"></path></g><g><path d="M246.63419642220646 177.2954722280196 C246.63419642220646 177.2954722280196, 246.63419642220646 177.2954722280196, 246.63419642220646 177.2954722280196 M246.63419642220646 177.2954722280196 C246.63419642220646 177.2954722280196, 246.63419642220646 177.2954722280196, 246.63419642220646 177.2954722280196 M247.1171363865487 183.85082200936776 C247.921511435893 181.2138280261403, 249.00494968277857 179.04810162615703, 252.49903016975117 175.44956537671777 M246.2044113024372 183.93895688287833 C247.89059362109532 181.90349576542968, 250.1598744317599 179.43224692412332, 252.9062242643896 176.01410591270061 M250.85254183882586 185.06482089241976 C251.83696361970675 182.96432357290996, 253.12363330726603 181.64189273322174, 255.85354869058278 179.77540162410713 M250.54026257525516 185.04815576980505 C251.56914232207367 183.55625040409808, 253.0130783638496 182.0364226054715, 255.46809573916994 179.56592940818845" stroke="none" stroke-width="0.5" fill="none"></path><path d="M248.79401137665516 176.02700339109106 C249.95773134019566 175.66765135553015, 251.4497940990813 175.56583330388543, 252.39984551961606 175.7503630888762 C253.34989694015084 175.934892873867, 253.96471033900167 176.2417316625955, 254.49431989986388 177.1341821010357 C255.0239294607261 178.02663253947588, 255.95103068065873 179.91608414692735, 255.5775028847893 181.10506571951734 C255.2039750889199 182.29404729210734, 253.29416395795178 183.77094170662545, 252.25315312464738 184.26807153657566 C251.21214229134299 184.76520136652587, 250.36242347329062 184.3146565053367, 249.33143788496298 184.08784469921855 C248.30045229663534 183.8610328931004, 246.67362304293246 183.54297899025633, 246.0672395946815 182.90720069986685 C245.46085614643053 182.27142240947737, 245.65315035306034 181.1457610986136, 245.69313719545718 180.27317495688172 C245.73312403785403 179.40058881514983, 245.70700997387567 178.38642806547836, 246.30716064906255 177.67168384947547 C246.90731132424943 176.9569396334726, 248.82109774595477 176.2472205542513, 249.2940412465785 175.9847096608645 C249.76698474720223 175.7221987674777, 249.18710295238344 176.08057470707743, 249.14482165280484 176.09661848915465 M248.04558405558927 174.8206253759332 C248.92188450581727 174.75274648356566, 250.31111248600328 176.0357352114135, 251.35111702759414 176.5733528700967 C252.391121569185 177.1109705287799, 253.8860738334687 177.3776943119453, 254.28561130513444 178.0463313280323 C254.68514877680016 178.71496834411928, 253.99379438896102 179.40707781423646, 253.7483418575885 180.58517496661858 C253.502889326216 181.7632721190007, 253.5955320150514 184.49512087316376, 252.81289611689937 185.11491424232506 C252.03026021874734 185.73470761148636, 250.20236407825263 184.7987537453079, 249.05252646867635 184.30393518158638 C247.90268885910007 183.80911661786487, 246.63165014742847 182.86569160876013, 245.91387045944177 182.14600285999606 C245.19609077145506 181.426314111232, 244.63646837266666 180.69938881992624, 244.7458483407561 179.98580268900199 C244.85522830884557 179.27221655807773, 245.77911735261154 178.7021914078617, 246.57015026797848 177.86448607445055 C247.36118318334542 177.0267807410394, 249.09021107299128 175.49345545866896, 249.49204583295779 174.95957068853505 C249.8938805929243 174.42568591840114, 249.09382174105207 174.34556339957908, 248.98115882777756 174.66117745364713" stroke="#000000" stroke-width="1" fill="none"></path></g><g><path d="M445.64203077126666 176.71364122049187 C445.64203077126666 176.71364122049187, 445.64203077126666 176.71364122049187, 445.64203077126666 176.71364122049187 M445.64203077126666 176.71364122049187 C445.64203077126666 176.71364122049187, 445.64203077126666 176.71364122049187, 445.64203077126666 176.71364122049187 M445.66665497442784 182.5411770659643 C447.01143574376664 180.6226440017244, 449.2570198554646 178.3497372702486, 452.369116526775 175.95501289717032 M446.3415622355914 182.50430714265477 C448.0120655300619 180.06291845617017, 450.15521612437436 177.36350351839556, 451.62921088468823 175.4514786757037 M448.8921004242105 185.51180290393782 C449.89189540742063 183.7252105156149, 452.24805775772916 180.98121961900802, 455.63321007701455 178.1636342285323 M448.4050573343952 185.6939788360313 C450.2648516253335 183.5684296416844, 452.35876535719933 181.3322219206816, 454.6269699013405 177.78891701426673" stroke="none" stroke-width="0.5" fill="none"></path><path d="M448.49643579846344 175.11119254933303 C449.36810058437015 174.71210273359208, 450.33740260301215 175.201718311968, 451.3187624746138 175.57624708528326 C452.3001223462154 175.95077585859852, 453.7962680089153 176.46741384652, 454.38459502807325 177.35836518922466 C454.9729220472312 178.2493165319293, 455.0977167109148 179.69086505798373, 454.8487245895614 180.92195514151123 C454.599732468208 182.15304522503874, 453.63895693605355 183.96140686525297, 452.8906422999528 184.74490569038966 C452.14232766385203 185.52840451552635, 451.50629675617574 185.65241138685982, 450.358836772957 185.62294809233137 C449.2113767897382 185.59348479780292, 446.79515537766065 185.32266782473442, 446.0058824006401 184.5681259232189 C445.2166094236195 183.81358402170338, 445.7133002298291 182.37088832609552, 445.62319891083337 181.09569668323815 C445.53309759183765 179.82050504038077, 445.00040099797945 178.03973288742893, 445.4652744866656 176.91697606607465 C445.9301479753517 175.79421924472038, 447.64459933679507 174.79932278911463, 448.41243984295005 174.35915575511257 C449.18028034910503 173.9189887211105, 449.88338013530654 174.19237084256247, 450.0723175235954 174.27597386206222 M449.1492523222799 175.87601454386666 C449.9694000709886 175.7909935979553, 451.4090880562515 176.3934455057945, 452.48931111493613 176.76328191959837 C453.56953417362075 177.13311833340225, 455.36007641950465 177.01645734278497, 455.63059067438775 178.0950330266899 C455.90110492927084 179.1736087105948, 454.8633927840964 182.31930403043498, 454.11239664423476 183.23473602302786 C453.36140050437314 184.15016801562075, 452.14147463247923 183.34703307812293, 451.1246138352178 183.58762498224723 C450.1077530379564 183.82821688637154, 448.7389049692365 184.94548426646654, 448.01123186066616 184.6782874477736 C447.2835587520958 184.4110906290807, 447.3082201262299 182.8202682606941, 446.7585751837959 181.98444407008967 C446.20893024136194 181.14861987948524, 444.8107606389017 180.49111812337011, 444.7133622060621 179.66334230414714 C444.61596377322246 178.83556648492416, 445.4443586072788 177.8685394351671, 446.1741845867582 177.01778915475174 C446.9040105662376 176.16703887433638, 448.38826584644295 174.9032482768089, 449.09231808293873 174.558840621655 C449.7963703194345 174.2144329665011, 450.1866536114533 174.96728719639032, 450.39849800573296 174.9513432238283" stroke="#000000" stroke-width="1" fill="none"></path></g><g><path d="M511.92615205950244 346.9596532188064 C511.92615205950244 346.9596532188064, 511.92615205950244 346.9596532188064, 511.92615205950244 346.9596532188064 M511.92615205950244 346.9596532188064 C511.92615205950244 346.9596532188064, 511.92615205950244 346.9596532188064, 511.92615205950244 346.9596532188064 M513.6495180727763 353.3867082530908 C517.436207889986 351.12627661410716, 518.1446505128926 346.65950516711763, 523.9564767099525 342.5863204177309 M512.9590215799608 353.99252495171265 C517.7209409331861 350.41349412577785, 521.0342924062203 345.174164570284, 522.2821183065562 343.88575127599995 M518.7623568631377 357.3879895385277 C518.1630258323136 356.96858134885093, 522.2462804877729 353.30912026944424, 527.1567358981872 347.75699589118176 M518.3274584482645 358.37954754119187 C520.3059211053375 356.2404790176164, 522.9627212492572 353.39375123727956, 527.4545254768403 347.58563550858764" stroke="none" stroke-width="0.75" fill="none"></path><path d="M519.6128535471564 342.04727116304474 C521.3789065560999 341.8133316078799, 524.6800924713525 342.24139432118443, 525.9442234290523 343.5794170449611 C527.208354386752 344.9174397687377, 527.0561552247685 348.21430685357336, 527.197639293355 350.07540750570473 C527.3391233619415 351.9365081578361, 527.4956575496196 353.3373714952728, 526.7931278405712 354.74602095774947 C526.0905981315227 356.1546704202261, 524.5481288508149 357.94940828589586, 522.9824610390639 358.5273042805646 C521.4167932273128 359.1052002752333, 519.1989068097284 359.0483214596258, 517.3991209700653 358.2133969257619 C515.5993351304021 357.378472391898, 513.1309454338475 355.35307448048843, 512.183746001085 353.51775707738113 C511.2365465683224 351.68243967427384, 511.1784678256098 348.87712938113054, 511.71592437349005 347.2014925071183 C512.2533809213703 345.52585563310606, 513.884930537723 344.26453607535666, 515.4084852883666 343.46393583330763 C516.9320400390102 342.6633355912586, 519.9998659626061 342.4351399558001, 520.8572528773515 342.3978910548242 C521.7146397920968 342.3606421538483, 520.5086564665061 343.23141732783824, 520.5528067768386 343.2404424274523 M518.1138046438649 341.1482035474679 C519.6825128278147 341.0781407551477, 522.3322675805122 342.3902326020841, 523.7402814508392 343.58643212119154 C525.1482953211663 344.782631640299, 525.8655442125932 347.0289998914512, 526.5618878658272 348.3254006621127 C527.2582315190612 349.62180143277425, 528.4170367363731 350.1815062200317, 527.9183433702426 351.36483674516074 C527.4196500041121 352.5481672702898, 525.1334762101277 354.40672178151056, 523.5697276690444 355.4253838128871 C522.005979127961 356.44404584426366, 519.9961868943623 357.37151880674116, 518.5358521237428 357.47680893342 C517.0755173531232 357.5820990600988, 516.038740903397 357.18722063382023, 514.8077190453275 356.05712457296016 C513.5766971872581 354.9270285121001, 511.451143025941 352.3351679090268, 511.1497209753259 350.6962325682596 C510.84829892471083 349.05729722749237, 511.664420356749 347.73020996130356, 512.999186741637 346.22351252835705 C514.333953126525 344.71681509541054, 518.4297745829001 342.43541361578355, 519.1583192846537 341.6560479705805 C519.8868639864072 340.8766823253775, 517.2633731119015 341.386650950545, 517.3704549521581 341.5473186571387" stroke="#000000" stroke-width="1.5" fill="none"></path></g><g><path d="M517.7805108322766 348.07373067835067 C517.7805108322766 348.07373067835067, 517.7805108322766 348.07373067835067, 517.7805108322766 348.07373067835067 M517.7805108322766 348.07373067835067 C517.7805108322766 348.07373067835067, 517.7805108322766 348.07373067835067, 517.7805108322766 348.07373067835067 M519.6046658215043 353.3948497434 C520.7294237281423 351.8101876355258, 522.7867055681766 350.64101465645854, 523.9038017503755 348.51443152401305 M519.7400015521703 353.6168064686638 C520.6269464542357 352.3975819762339, 521.7346133321915 350.8139305341607, 523.55003240078 349.35783590368914" stroke="none" stroke-width="0.6" fill="none"></path><path d="M520.4429552779395 347.9933403712835 C521.003631891653 347.8939334496345, 521.8171935481835 347.472333774302, 522.2765830768748 347.7370476697939 C522.7359726055661 348.00176156528585, 523.1854005444002 348.88714741437605, 523.1992924500877 349.58162374423506 C523.2131843557752 350.2761000740941, 522.8301617097443 351.3360402238166, 522.3599345109994 351.90390564894807 C521.8897073122546 352.4717710740795, 521.0982802808379 352.8735208009613, 520.3779292576187 352.98881629502387 C519.6575782343995 353.10411178908646, 518.5704874687776 352.97108239478314, 518.0378283716842 352.5956786133237 C517.5051692745908 352.22027483186423, 517.279298831365 351.42742795541477, 517.1819746750585 350.7363936062673 C517.084650518752 350.04535925711986, 517.154475323404 348.8796732682556, 517.4538834338452 348.4494725184389 C517.7532915442865 348.01927176862216, 518.5301207673637 348.2551694418628, 518.9784233377061 348.15518910736694 C519.4267259080485 348.0552087728711, 519.7116646624233 347.84834432991397, 520.1436988558999 347.84959051146393 C520.5757330493764 347.8508366930139, 521.4701966336269 348.2108268180487, 521.5706284985654 348.16266619666686 M520.3356420280167 348.43592824301726 C520.7357648017799 348.100756012928, 521.0048965689089 347.06602369613097, 521.4359514193142 346.99657148656775 C521.8670062697195 346.9271192770045, 522.9803502686426 347.2711044555766, 522.9219711304485 348.019214985638 C522.8635919922543 348.7673255156993, 521.4163647947123 350.7093224938607, 521.0856765901494 351.48523466693604 C520.7549883855866 352.26114684001135, 521.02429457056 352.62994807898576, 520.9378419030714 352.6746880240898 C520.8513892355829 352.7194279691938, 521.0334811946642 351.75488361350995, 520.5669605852182 351.7536743375601 C520.1004399757722 351.7524650616102, 518.6960505073556 352.7597764830931, 518.1387182463957 352.6674323683906 C517.5813859854358 352.57508825368814, 517.3714688675155 352.09161554765046, 517.2229670194587 351.19960964934523 C517.0744651714018 350.30760375104, 517.0586302654829 347.6445715567306, 517.2477071580544 347.31539697855925 C517.4367840506259 346.9862224003879, 517.819170662204 349.24001248816774, 518.3574283748877 349.22456218031687 C518.8956860875714 349.209111872466, 520.5364114238722 347.4783027730699, 520.4772534341571 347.2226951314541" stroke="#000000" stroke-width="1.2" fill="none"></path></g><g><path d="M520.9717926828001 344.0021931443731 C520.1683534210815 342.704682823048, 520.9273458193371 340.09494362441774, 519.7201984343678 334.1674522665239 M520.2380706773735 345.3590499636778 C519.8287856448964 341.08411885043057, 519.8752746159864 337.6776211239974, 520.1941579265487 334.49058298490667" stroke="#000000" stroke-width="1.2" fill="none"></path></g><g><path d="M523.6785425810513 352.5731105219118 C526.6023724987373 353.3741991660356, 528.3022305939153 354.29068986431446, 535.1033838872585 358.4916471495896 M524.5487145294278 353.41715475539485 C527.8038215646853 354.42142327038295, 531.2487456381099 356.1710959692125, 534.4312331006024 358.37829443078857" stroke="#000000" stroke-width="1.2" fill="none"></path></g><g><path d="M516.2864984172388 353.28558348524945 C512.534709101269 354.3061243880385, 509.47768690833414 356.9969248635296, 506.4653227212364 358.52963632595106 M516.4020369778992 352.72699539087546 C512.8185348199539 354.27009257975817, 510.1026959132089 355.71498232021827, 506.0853732825242 357.62766844565186" stroke="#000000" stroke-width="1.2" fill="none"></path></g><text x="400" y="560" text-anchor="middle" font-family="sans-serif" font-size="16" fill="#222" font-style="italic">You can't detect a single bluff. But you can read patterns.</text></svg>