<?xml version="1.0" encoding="UTF-8"?>
<svg width="800" height="600" viewBox="0 0 800 600" xmlns="http://www.w3.org/2000/svg"><rect width="800" height="600" fill="#FFFFFF"></rect><g><path d="M100.99136374366526 419.2291729979044 C253.0286249400658 417.7311356105602, 405.6470627290405 417.96418538633026, 699.039719807472 419.4341943559528 M99.8482848273889 420.09200773299335 C232.2050353755026 417.5723081152239, 365.4046699882055 417.70332751963093, 700.0839703920093 420.5261064302754" stroke="#000000" stroke-width="2" fill="none"></path></g><g><path d="M314.08822530656744 294.232936656815 C314.08822530656744 294.232936656815, 314.08822530656744 294.232936656815, 314.08822530656744 294.232936656815 M314.08822530656744 294.232936656815 C314.08822530656744 294.232936656815, 314.08822530656744 294.232936656815, 314.08822530656744 294.232936656815 M311.1795516252972 309.39780162546856 C316.52106969452524 304.8127496145194, 320.119120269938 302.88292587756587, 324.66006643373464 295.6808753824421 M312.3600266614996 307.17131714942485 C315.41268251879046 305.3891568046747, 317.917162487012 301.2728550432213, 324.17637888789056 294.9430337769953 M321.75230694024003 311.47634118137285 C323.2225275141578 307.3158514557452, 324.7318976682373 305.39897474164326, 330.1490092611852 300.46054675396556 M320.7128137099664 310.9201147156522 C324.8388397307969 307.42468729653297, 327.6576005886851 303.26975245570736, 329.35869274298346 300.8521002700238" stroke="none" stroke-width="1" fill="none"></path><path d="M318.8472846744021 292.2017687472211 C320.7393147294064 292.06187949318115, 324.6410596819015 292.8058889701036, 326.3677259447307 293.97022139681366 C328.0943922075599 295.13455382352373, 328.8659563542282 297.07323411835347, 329.20728225137725 299.18776330748153 C329.5486081485263 301.3022924966096, 329.43666543585715 304.85743783358197, 328.41568132762484 306.6573965315819 C327.3946972193925 308.4573552295819, 324.8958381654658 309.1878532848217, 323.0813776019834 309.9875154954812 C321.26691703850094 310.7871777061407, 319.52606235494784 312.08936289254734, 317.5289179467302 311.4553697955388 C315.53177353851254 310.82137669853023, 312.14699503975083 307.94135417601865, 311.09851115267753 306.18355691342987 C310.05002726560423 304.4257596508411, 310.69546447252515 302.9512766984896, 311.2380146242904 300.9085862200062 C311.7805647760556 298.8658957415228, 312.84752549588586 295.52338019111755, 314.3538120632689 293.9274140425294 C315.8600986306519 292.33144789394123, 319.1001434554121 291.6666265788215, 320.2757340285886 291.33278932847713 C321.4513246017651 290.9989520781328, 321.54195542562564 291.6570526323895, 321.40735550232813 291.9243905404633 M317.1584573532061 293.58937951258304 C319.37138535712927 292.6909943521736, 323.18874156518496 291.57003524608353, 324.95102804555364 292.45293939180067 C326.7133145259223 293.3358435375178, 327.158796567833 296.78871013786056, 327.73217623541825 298.8868043868857 C328.3055559030035 300.9848986359108, 328.7806320137464 303.390354012293, 328.3913060510652 305.04150488595116 C328.001980088384 306.6926557596093, 326.77170760203387 307.70643422724277, 325.396220459331 308.79370962883456 C324.02073331662814 309.88098503042636, 322.0227478693328 311.53742791534876, 320.13838319484785 311.56515729550205 C318.2540185203629 311.59288667565534, 315.50699973227023 310.3593856310483, 314.0900324124212 308.96008590975435 C312.67306509257213 307.5607861884604, 311.91235750989745 305.13713217988004, 311.63657927575343 303.1693589677384 C311.3608010416094 301.20158575559674, 311.5833893846092 298.99033127417187, 312.435363007557 297.1534466369046 C313.2873366305048 295.3165619996374, 316.0496598396051 292.9398156037235, 316.7484210134401 292.148051144135 C317.44718218727513 291.35628668454655, 316.29459417245386 292.2375170697831, 316.62793005056704 292.40285987937364" stroke="#000000" stroke-width="2" fill="none"></path></g><g><path d="M319.5188422884713 321.32668306564415 C319.6155293490353 332.1707133950559, 322.5912704242924 341.9684389860743, 323.61360661527823 353.23446637797224 M320.83451165591407 321.7830606295057 C321.89232868667375 331.5049354836045, 323.28721208074415 339.1447173913518, 325.1626227494053 354.65989990811204" stroke="#000000" stroke-width="2" fill="none"></path></g><g><path d="M326.76050576918396 355.7727417655128 C320.44213989728985 366.5568918620841, 315.54523380982033 378.12405642723587, 312.1475557948544 385.28695060400247 M325.64504773368895 355.8034940184532 C323.20930703296574 360.9686628769616, 319.7025230242497 367.6060036177555, 312.07237768858835 384.72994407895146" stroke="#000000" stroke-width="2" fill="none"></path></g><g><path d="M326.6179255788985 353.6454571466702 C328.87889962512554 364.2298164082344, 333.7732821354457 372.9252029526131, 336.171257103651 385.8741366771311 M324.91102426096455 355.3300276527617 C331.1051778357206 366.68614538228326, 334.28785887116493 377.43401820921844, 337.8879922936823 384.24721866385204" stroke="#000000" stroke-width="2" fill="none"></path></g><g><path d="M321.3807435302686 330.3824397277808 C337.52875672297563 328.3764574354662, 357.56407979331254 328.0220961184559, 368.129180506224 326.4312880139531 M319.81377353278344 331.15429944662486 C336.4796368681398 330.7908255863116, 352.31342463311466 328.4034488353987, 369.94997984951186 324.0184850107268" stroke="#000000" stroke-width="2" fill="none"></path></g><g><path d="M473.08311820650613 295.96875012031546 C473.08311820650613 295.96875012031546, 473.08311820650613 295.96875012031546, 473.08311820650613 295.96875012031546 M473.08311820650613 295.96875012031546 C473.08311820650613 295.96875012031546, 473.08311820650613 295.96875012031546, 473.08311820650613 295.96875012031546 M472.30531191108713 308.6655551547076 C479.03637208409253 304.5048149868297, 481.95288147947076 298.7054454237744, 483.71459714781344 295.82585583535206 M473.34561216352665 308.87405343650124 C477.2725760662059 303.6580516599978, 479.83364132540527 299.96605628923317, 484.3830635113974 294.17183097213245 M481.0797335853796 311.90104708367505 C483.732648139244 307.61061303747044, 486.324884991295 303.1004626317703, 490.87575459913614 302.55665277904353 M480.39544307190135 311.31954654779724 C483.2223353636673 309.3591979319629, 484.9125962706344 306.16876493117627, 489.9703196700304 301.11158039883946" stroke="none" stroke-width="1" fill="none"></path><path d="M478.04387838904796 293.2997648597466 C480.04281489851246 292.84729330023237, 483.80061334943343 293.0590209292848, 485.68901408897614 294.1136289832128 C487.57741482851884 295.1682370371407, 488.8555749768286 297.7549238317553, 489.3742828263042 299.62741318331416 C489.89299067577974 301.499902534873, 489.527799893982 303.45594366846035, 488.8012611858296 305.3485650925657 C488.07472247767726 307.24118651667106, 486.856009927007 310.0134668940993, 485.01505057738996 310.98314172794613 C483.1740912277729 311.952816561793, 479.8243225352786 311.76385253910485, 477.7555050881272 311.1666140956467 C475.68668764097583 310.56937565218857, 473.9603634314734 308.9948811430687, 472.6021458944815 307.39971106719713 C471.2439283574896 305.80454099132555, 469.54916670354186 303.4741470546056, 469.606199866176 301.59559364041735 C469.6632330288101 299.7170402262291, 471.3061576345734 297.54069268690785, 472.9443448702862 296.1283905820674 C474.582532105999 294.716088477227, 477.90756800197073 293.5155291906611, 479.4353232804527 293.121781011375 C480.9630785589346 292.7280328320889, 482.0015260765491 293.75797356793237, 482.1108765411781 293.7659015063509 M482.1676694307337 293.13890153178454 C484.2402120832913 293.52336464649545, 486.8544258032788 294.01752929505597, 487.8621822419506 295.4182890745357 C488.86993868062245 296.8190488540155, 488.4607807892177 299.4299982012949, 488.21420806276467 301.5434602086631 C487.9676353363116 303.65692221603126, 487.41498676951664 306.38245895530923, 486.3827458832322 308.0990611187449 C485.35050499694773 309.81566328218054, 484.00451594514664 311.6031054240949, 482.02076274505777 311.843073189277 C480.0370095449689 312.0830409544591, 476.5317093673248 310.49841433402696, 474.48022668269914 309.5388677098376 C472.42874399807346 308.5793210856482, 470.2457646554858 307.8699338407115, 469.71186663730356 306.0857934441405 C469.1779686191213 304.3016530475695, 470.3722156828526 301.1034558574988, 471.27683857360574 298.83402533041146 C472.1814614643589 296.56459480332416, 473.4542505181778 293.54263327697555, 475.1396039818226 292.46921028161665 C476.82495744546736 291.39578728625776, 479.97655226226925 292.1785249903271, 481.3889593554745 292.3934873582581 C482.8013664486798 292.60844972618906, 483.3976255396857 293.60823282423786, 483.6140465410543 293.7589844892024" stroke="#000000" stroke-width="2" fill="none"></path></g><g><path d="M479.63922507809417 322.52971118331556 C479.13467941997976 332.621934996922, 475.9892415723185 347.42087730938437, 474.20670088399413 354.03809241545935 M480.840638355284 322.7256200574462 C479.40063803623565 327.8950360981031, 478.2868532848107 335.9938357591105, 475.8924140867661 354.17805940105416" stroke="#000000" stroke-width="2" fill="none"></path></g><g><path d="M473.3326651019279 355.8370273160507 C471.6329789565398 364.56779100514086, 465.6574213497704 375.95753243584403, 460.29250797429796 383.7497061685728 M474.7465118846716 355.1002373523099 C471.8375415502066 363.8084618304852, 468.1434352193787 372.4366968704794, 461.3539850667219 384.9074936294427" stroke="#000000" stroke-width="2" fill="none"></path></g><g><path d="M473.36488378661426 354.7027090080572 C477.83911193327026 362.064673242699, 482.4015999179639 370.71853368229125, 489.110324868299 383.93294384905386 M474.2689573437051 354.86608640235295 C480.13131888144153 365.81097725058385, 484.16894812578016 376.58265066189693, 487.7141467370142 384.49671387356653" stroke="#000000" stroke-width="2" fill="none"></path></g><g><path d="M478.96914710443787 332.7853047216382 C469.8167183037049 330.902305619058, 454.5804744468516 328.30760369809866, 428.0597145259897 325.61055183981784 M479.88811645929496 331.987525626893 C466.69382510994865 329.5379613730512, 454.33917995296446 327.72187508071045, 430.20579296142887 325.68324943296943" stroke="#000000" stroke-width="2" fill="none"></path></g><g><path d="M394.44526625304826 324.33585684128184 C394.44526625304826 324.33585684128184, 394.44526625304826 324.33585684128184, 394.44526625304826 324.33585684128184 M394.44526625304826 324.33585684128184 C394.44526625304826 324.33585684128184, 394.44526625304826 324.33585684128184, 394.44526625304826 324.33585684128184 M399.31344837419954 332.9188890917521 C402.43776202688537 330.6668478917454, 403.1605990971808 328.43040201392137, 406.6010464698607 326.55657703697545 M400.04718548360904 333.41686373405463 C401.6504293901902 332.0252865577904, 402.2380892663782 330.4140036466062, 406.18764844038765 326.52521737656764" stroke="none" stroke-width="1.3" fill="none"></path><path d="M399.05657801613773 321.18412024986634 C400.3396204632244 320.751299087419, 402.2546862725925 320.79176204342525, 403.2880751668066 321.32597895209966 C404.3214640610207 321.86019586077407, 404.906274252874 323.21934624017376, 405.25691138142224 324.3894217019127 C405.60754850997046 325.5594971636516, 405.61695039733115 327.1764722199083, 405.3918979380957 328.34643172253317 C405.1668454788603 329.51639122515803, 404.93350636026054 330.65447831755233, 403.9065966260098 331.40917871766186 C402.87968689175904 332.1638791177714, 400.62656203701084 332.81236445709595, 399.2304395325911 332.8746341231902 C397.83431702817137 332.9369037892845, 396.40111340940945 332.6361143363973, 395.5298615994914 331.78279671422746 C394.6586097895734 330.9294790920576, 394.16358104010015 329.01902299829464, 394.00292867308286 327.7547283901712 C393.84227630606557 326.4904337820477, 393.79814375818563 325.20908005785503, 394.5659473973876 324.19702906548656 C395.3337510365896 323.1849780731181, 397.7928050320734 322.27234374154426, 398.6097505082948 321.6824224359604 C399.4266959845162 321.09250113037655, 399.3382364503874 320.73706995614, 399.4676202547162 320.6575012319833 M402.1927401514826 322.5575770908732 C403.1059182509119 322.80772188367376, 403.34579400748606 322.1023937619003, 404.1327615243983 323.0899532809245 C404.9197290413105 324.07751279994864, 407.17373345044115 327.166661566269, 406.914545252956 328.4829342050181 C406.6553570554708 329.79920684376725, 403.62062519244586 330.23205953097977, 402.5776323394873 330.9875891134191 C401.53463948652876 331.74311869585847, 401.6300510207326 332.83416759177726, 400.65658813520463 333.0161116996542 C399.68312524967666 333.1980558075311, 397.7967923542833 332.8915727987686, 396.7368550263197 332.07925376068073 C395.6769176983561 331.26693472259285, 394.72585977393993 329.42004345058757, 394.29696416742314 328.14219747112696 C393.86806856090635 326.86435149166635, 393.52653822838573 325.3316029038003, 394.16348138721884 324.4121778839171 C394.80042454605194 323.4927528640339, 396.92736115846253 322.91633966604843, 398.1186231204218 322.6256473518278 C399.309885082381 322.3349550376072, 400.55233382791675 322.8690826826719, 401.3110531589744 322.66802399859336 C402.06977249003205 322.4669653145148, 402.54374353661115 321.6385322925706, 402.67093910676783 321.41929524735656" stroke="#DAA520" stroke-width="2.6" fill="none"></path></g><g><path d="M370.1403128839135 395.0599619675028 C372.7248129615908 395.38647205259224, 374.6841235494241 394.66539034118983, 377.94802844269043 395.1661886453879 M369.8311837386359 394.908124525628 C372.1934755285763 394.81901565039345, 374.33115695003534 394.85492611576876, 377.84540656902607 394.8458363690378 M377.8203230092861 395.2244328760323 C378.34238302621304 396.50566288373943, 378.2206381845041 397.7400918115352, 378.11729104028836 400.79958235268475 M378.0453380623631 395.04671482780475 C377.913756492385 396.9386321160671, 377.82471434824004 398.9653363493418, 377.873586437032 401.00920797403114 M377.69542933842354 400.67916595423844 C375.9129069074691 401.37274084367476, 373.40337384476567 400.6305594582381, 370.06945893618035 401.1959437162264 M378.1389321534413 400.83299303654616 C375.8124193077188 400.8060008456189, 373.9692466377374 401.1712033259776, 370.0161359431779 401.0282667446247 M370.3029887118209 401.27229105065015 C369.89858132511694 399.0102587744792, 369.6937435336197 396.80648324081795, 370.1272972491908 394.71411528390536 M370.0590386650308 401.1547232221906 C369.80998365752566 399.73229674203554, 369.89479776615747 398.3117314118224, 369.8636899744418 395.06342204339444" stroke="#DAA520" stroke-width="1.2" fill="none"></path></g><g><path d="M380.00322153585756 391.0162728463641 C382.2413805721854 391.00866595541305, 384.5174130815473 391.1098141360796, 388.209590396278 391.1551004759289 M380.18313952895545 391.12344104994924 C382.08495029363087 391.1144504596201, 383.7189395954584 390.7667773009909, 388.1816000349975 390.94078068140226 M387.69703679397423 390.77474142687464 C387.7534547442454 392.9392726081975, 388.3711278518916 394.6738639167244, 388.3016342772196 396.6628444252979 M388.08504080427656 391.13213402488464 C388.0544943111875 392.8624132939727, 387.98711094941393 394.59473107838267, 387.95177638334184 397.0336133157069 M388.47044450696717 397.34819286576925 C385.7982683223849 397.0786831290791, 383.8469796183783 396.8914841933062, 379.9606382468747 396.62723206238746 M387.9103285304093 397.061828729807 C385.43239110185806 396.93917048180333, 382.6169689039659 397.15751911926964, 380.2332429292715 396.82996900281125 M380.18474671446074 397.25012381926 C379.76503525683364 395.61347599903684, 380.12188070770736 393.9003067989979, 380.2753349200599 390.7133851848003 M380.0336236129086 396.8683260128322 C379.95619358134485 395.7300781733014, 379.9843643401511 394.4602515905849, 379.83320676909796 391.14689452595866" stroke="#DAA520" stroke-width="1.2" fill="none"></path></g><g><path d="M390.3081073401018 386.89109769778133 C392.8407320292345 387.4072879517516, 395.2259388785915 386.95145206376407, 398.3974618921872 387.02183807273065 M390.07533728807795 386.96974516840487 C392.9042126275743 387.1693094212769, 395.58269568183454 387.0722301787991, 398.1888500469818 387.2191306540242 M397.86106647665696 387.0250554157887 C398.02612842668384 388.6301833226351, 398.29330671192935 390.59278542494275, 398.24056323608016 392.8299526861771 M397.82008055537403 386.9406814982137 C398.2051876945695 389.03830676604593, 398.03488382930203 391.51982164873164, 397.98223121755353 392.85469367471086 M398.3717047734231 393.2679980905138 C395.7567056656271 392.6478579865363, 392.3578194203762 392.7479331839844, 389.6979564293382 393.35965095950036 M398.18860377345453 392.90866243183535 C395.1055183286444 393.01141740855553, 392.3246280329097 393.0669589085559, 389.8559007078999 392.87608042948534 M390.3294065549886 392.84249836877444 C390.3185463208028 391.5346777696226, 390.086864383276 389.3796985454264, 389.657194520923 386.9547725375552 M390.15499778019927 392.8541612673324 C389.9425420673796 391.5203830823591, 389.93005659755414 389.80328845834805, 389.85762309314595 386.9470561032357" stroke="#DAA520" stroke-width="1.2" fill="none"></path></g><g><path d="M400.3790479039919 382.674366599565 C401.7991917828027 382.5511248569589, 403.93536595547954 382.91967083444405, 407.80819386034784 383.21164070163434 M399.9412253386696 382.92345949459855 C401.84144041672266 382.79272901168923, 403.1655502122631 382.8415622694933, 407.888159195231 382.76327364123756 M408.25100876389564 382.74594867920825 C408.25672928981095 384.7040789829816, 407.6488530230388 386.0362959887051, 408.07520245166205 388.96446254771655 M407.9759547779042 383.04869372637506 C408.056896473411 385.3805721095171, 408.1130451274201 387.6492481261384, 407.9807010277152 388.90890351225704 M407.54541153849476 389.29935709988956 C405.6990131188933 389.23239684587406, 403.20913713100094 389.0876388607762, 399.95899498817477 389.22967706992154 M408.00003030788815 389.07491140539014 C405.0662525124164 388.91924916711315, 401.59833175005474 388.9128431639082, 400.10298198008906 388.7703995212008 M400.10503933136414 388.9956622916439 C399.66761675739923 386.6494786617742, 399.97680787763943 384.7162038519901, 400.2631294528527 383.12544490230806 M399.8597644705941 388.8702526728981 C400.1327809012358 387.33576283378414, 399.91715724209826 385.4374159948187, 399.9157873551748 382.97209262873236" stroke="#DAA520" stroke-width="1.2" fill="none"></path></g><g><path d="M409.8736229778159 379.14608181007105 C413.04754341512245 379.13278556113994, 415.45149380119653 379.2628141096251, 418.29344832361375 379.29777628232995 M409.8818304848417 378.81370683949876 C412.29960205379854 378.92408013311706, 414.70745081002275 379.0502379922421, 417.89054799950503 379.027121742505 M418.0020889077074 379.20027924522236 C418.357804157048 381.17745907638476, 417.8492121502008 382.8137298901168, 417.81346140923046 385.2830774451889 M417.93590257983305 378.8626959891656 C417.98087825043893 380.1991707677871, 417.93594070918766 381.5941253055181, 417.8343765709592 384.8680328534779 M418.06016047439783 384.97161390274744 C415.25923850972106 385.0259134935162, 412.05241070686867 385.1872014403957, 410.27484596679125 385.34412163640394 M418.01556444727464 385.1320813770159 C415.02912068447944 385.0586334475562, 411.88370678321536 384.89007423450283, 409.8395639124703 385.17897168964544 M409.88497444267506 385.0310999564738 C410.03379754398014 382.87051775036883, 410.23750466298094 381.0912844805813, 410.3176547595934 378.64882235277827 M409.9562053234511 384.9236017700129 C410.07568697247785 382.6387160905852, 409.9517509579497 380.4999066849716, 410.1442872308843 379.1735007503495" stroke="#DAA520" stroke-width="1.2" fill="none"></path></g><g><path d="M419.96519524854665 375.36497359067783 C422.75836311245735 375.0855113113483, 426.1208588751907 374.81216332764325, 428.15531023208547 374.6120180209177 M419.957218069682 374.9852565237155 C421.68381526768286 374.8192437877863, 423.6833815160722 375.14882699707425, 428.01805042672027 374.8128989171213 M428.0120706736579 374.9465154516871 C428.0876032440725 376.1337982983904, 427.76372507555953 378.16745802047586, 427.9716452489017 381.01229378910176 M428.0760841808822 375.12442314186654 C427.873277689711 377.14167717636025, 428.0544574741122 378.9750164185357, 428.05160754161585 380.9027805198385 M427.84856372660926 380.8874721321558 C425.77734900849964 381.0182207533367, 423.28637494326347 380.71820911051424, 419.9172496102419 380.72816940665206 M427.77968118488553 380.855335825195 C425.6442965668977 380.81104113470866, 423.12144137594436 381.14467339461015, 419.84673773338176 381.22359377301757 M420.0884235429619 381.29460405015163 C420.04435763787814 379.18432805618545, 419.8553838959262 377.76118043709647, 420.0707740348154 375.25028923191746 M420.0923368086257 380.8312029671376 C419.8791414638149 378.59868305175877, 419.97248487262385 376.20736984509836, 419.92754908593093 374.88193144163415" stroke="#DAA520" stroke-width="1.2" fill="none"></path></g><g><path d="M385.56575095270307 269.3930845175239 C394.3201231993844 270.74199833666427, 406.87215746082563 270.8755420375813, 414.84496639612456 269.03861954281916 M385.20413718295276 270.6216980341987 C395.66978543072725 270.3984064751604, 405.91619743838044 270.24030992689666, 414.67215670712204 270.2928807966542 M414.6126138794538 269.1912898060804 C416.3156862210577 280.38845199385696, 414.4814008625797 292.07088834966487, 413.76862902861865 311.434904705715 M415.031145938986 270.360951355078 C414.4054825441329 280.375848632789, 415.3467319833916 292.4388556099278, 415.08173017239545 310.2907711529767 M414.3643373518245 309.12161265301165 C405.10258313154907 311.1164292251765, 393.2159673755343 310.1406020507425, 386.36340009810795 309.9006107746446 M414.3349573898066 310.38928982077636 C407.4443743891659 310.4056589331534, 399.87880409453135 310.3302209899134, 385.4682590500395 310.07358143021264 M383.44874209881135 311.58715255895555 C385.326837727842 299.9426275407947, 383.94910607068164 290.7594023232537, 384.0444889742379 270.1379501728064 M384.86231890214964 310.153658044479 C385.75203036863155 301.01457763437605, 385.39309881304655 292.5538449863536, 385.79514018955985 269.3008980255983" stroke="#000000" stroke-width="1.2" fill="none"></path></g><g><path d="M389.0203999893428 279.5507204889016 C394.79312623758506 278.83712825861, 398.6703931657131 278.8810138798788, 409.80336734321884 280.5862292042406 M390.04992548276624 280.3862647195543 C396.4068005120617 280.229316887959, 401.4319435306729 280.46695104316547, 410.12159477773724 280.2822525967696" stroke="#000000" stroke-width="0.8" fill="none"></path></g><g><path d="M389.8147099014266 287.6295324451556 C397.01103500605825 287.0640101176188, 404.2052642280487 288.72186003757923, 407.858280907975 287.9181382266825 M390.4603154272303 288.12746205048916 C396.4549079025339 288.0100398696582, 402.93309004999526 287.7212431380343, 408.07393555606814 287.9997397064201" stroke="#000000" stroke-width="0.8" fill="none"></path></g><g><path d="M389.6762354879633 296.5888169591165 C392.53529529964334 295.7419184519132, 397.1191331688422 295.40853237850695, 404.79530365389564 296.57227705834924 M389.89391043523005 295.93947534397984 C395.1518303564632 296.05554394784724, 400.21744374768997 296.0752495326871, 404.77719031392814 296.2087816484692" stroke="#000000" stroke-width="0.8" fill="none"></path></g><text x="400" y="560" text-anchor="middle" font-family="sans-serif" font-size="16" fill="#222" font-style="italic">"The deposits are pennies. The accumulated total is priceless."</text></svg>