<?xml version="1.0" encoding="UTF-8"?>
<svg width="800" height="600" viewBox="0 0 800 600" xmlns="http://www.w3.org/2000/svg"><rect width="800" height="600" fill="#FFFFFF"></rect><g><path d="M100.75011062346125 420.97717258129006 C308.1082378452416 419.3989565632287, 515.47762375381 420.48402843994273, 701.0062376453861 420.22278943804827 M99.98418805922763 420.19215753410407 C222.33624849206257 418.39545387822716, 345.71734052103585 418.1179606819944, 700.1620690645802 419.9722680420366" stroke="#000000" stroke-width="2" fill="none"></path></g><g><path d="M242.51035515421165 334.03724390009864 C242.51035515421165 334.03724390009864, 242.51035515421165 334.03724390009864, 242.51035515421165 334.03724390009864 M242.51035515421165 334.03724390009864 C242.51035515421165 334.03724390009864, 242.51035515421165 334.03724390009864, 242.51035515421165 334.03724390009864 M244.47621257877606 341.85341445134856 C245.9788864462175 339.9239668369606, 248.95866566200266 334.3325414923141, 253.69961451992893 332.46077427796797 M243.43863110904064 341.7688294364965 C246.31218059493222 338.9161508685198, 249.4852712550411 335.25024252459446, 253.62968759751593 331.76806793530886 M247.48324104413499 346.9373712605762 C250.53843216913128 341.6646741816793, 254.67387536003184 339.6733030431729, 258.3308600948102 336.2915463200686 M248.23174852393294 345.3593489694013 C251.04416147644127 343.1374860138523, 253.15635343385796 340.52573296470405, 257.9564948380409 335.64255633496157" stroke="none" stroke-width="0.8" fill="none"></path><path d="M252.96199924166763 330.6571947114393 C254.523938509091 331.5076005417676, 256.76270640969216 333.8738262790408, 257.4491266352649 335.50470273289073 C258.1355468608377 337.13557918674064, 257.41805342258306 339.0769119211353, 257.0805205951042 340.4424534345389 C256.7429877676253 341.80799494794246, 256.61796109233677 342.71077779467714, 255.42392967039163 343.6979518133122 C254.22989824844646 344.6851258319473, 251.62950682286407 346.32828859520527, 249.9163320634332 346.36549754634933 C248.20315730400233 346.4027064974934, 246.4395500651237 345.1587878695954, 245.14488111380638 343.9212055201767 C243.85021216248904 342.68362317075804, 242.5797808054354 340.5961021872296, 242.1483183555292 338.94000344983726 C241.716855905623 337.28390471244495, 241.4817729446747 335.3457619176348, 242.5561064143692 333.98461309582285 C243.6304398840637 332.6234642740109, 246.69365976499432 331.14090757686665, 248.59431917369622 330.77311051896567 C250.49497858239812 330.4053134610647, 253.12831367436854 331.54145619923247, 253.9600628665805 331.777830748417 C254.79181205879246 332.0142052976015, 253.6273500936484 332.03010818248765, 253.58481432696797 332.19135781407283 M249.10989681093156 329.8216898307515 C250.6660388773552 329.86919442583996, 252.95322161420486 331.6254243659014, 254.5139927873833 332.81650628214004 C256.0747639605617 334.0075881983787, 258.17101868909367 335.48395656871816, 258.47452385000213 336.9681813281834 C258.7780290109106 338.4524060876486, 257.55961146093745 340.3062475446364, 256.3350237528342 341.72185483893134 C255.110436044731 343.1374621332263, 252.57210820407636 344.6396676824086, 251.12699760138275 345.46182509395317 C249.68188699868915 346.28398250549776, 249.09424675006827 347.3037616860647, 247.66436013667263 346.65479930819873 C246.234473523277 346.00583693033275, 243.3806714834225 343.4424486503052, 242.54767792100898 341.5680508267571 C241.71468435859546 339.69365300320896, 242.50206168177698 337.077284614895, 242.66639876219156 335.40841236691006 C242.83073584260615 333.7395401189251, 242.14851123786661 332.22914684969953, 243.53370040349645 331.5548173388474 C244.9188895691263 330.88048782799524, 249.77629757387956 331.44901941632367, 250.97753375597068 331.3624353017973 C252.1787699380618 331.2758511872709, 251.04010088392596 331.29377670223215, 250.74111749604324 331.03531265168925" stroke="#000000" stroke-width="1.6" fill="none"></path></g><g><path d="M249.54799681046606 352.5535896594261 C249.29619370795876 364.50702661879444, 248.79285331740292 372.89328886221784, 251.32347828885773 381.43004306922563 M249.73207785960147 354.0374200556982 C249.1885059073634 359.75169492948436, 250.5819777606121 365.7815653910321, 250.34317843557332 380.1921142197371" stroke="#000000" stroke-width="1.4" fill="none"></path></g><g><path d="M249.07133663836177 379.5246423044205 C248.04028842696232 385.81585710056623, 244.16021206518175 394.4365511610802, 243.75268391586204 407.9855100954256 M250.4333329119491 379.48086139556193 C246.77922412149059 389.82281945347256, 244.57524034866702 401.36619977764417, 242.26258232848258 406.85523779421646" stroke="#000000" stroke-width="1.2" fill="none"></path></g><g><path d="M249.58829726728496 381.3134523243262 C251.26939560713484 385.5558321753672, 254.27115512180848 392.89416284318986, 259.53858796185267 406.64309937479584 M249.42419087593802 380.35676920715565 C252.14682636086576 385.82132889332786, 253.33929479635287 392.45714181865185, 258.8729543526887 406.4172161121437" stroke="#000000" stroke-width="1.2" fill="none"></path></g><g><path d="M450.6200289723739 279.88308295152285 C479.90905078178247 278.709995935185, 507.7316035285917 280.7491853647601, 568.9188078170396 280.6395876805273 M450.620613474323 279.96357192285376 C492.40124372980415 280.61999978938707, 535.2672477711966 281.2191754676298, 570.6285034258034 280.5489194681336 M569.0584335127294 280.9597874447755 C570.0420573320159 285.4812595959255, 570.2556360115891 288.6106636326515, 570.3931457288141 293.53555739063034 M569.7188819549743 279.9088691341668 C570.1220721703704 285.89611845690325, 570.1944050362906 291.7861840086211, 569.4528909127847 295.33276946168894 M568.0950842576185 294.26531875807416 C539.2438745051479 294.5733506013715, 506.17038706724605 296.44792211791764, 450.177951145561 296.6165718991307 M570.8705667315571 295.6887150164062 C541.4284562161921 295.79947533319717, 514.8131184599295 296.3078994267479, 449.0798833150664 294.621551277591 M449.1940928595144 294.41363970536224 C449.8559345753913 290.57624680185904, 448.9167644240616 288.7784136082639, 450.96183929411126 281.27427479343584 M450.42170959524697 295.54457384328504 C450.51959982216994 290.6953875494662, 450.1368587346831 285.99265055587125, 450.4962632070383 279.70699801703034" stroke="#000000" stroke-width="1.8" fill="none"></path></g><g><path d="M503.6590188453854 239.0721564615048 C503.6590188453854 239.0721564615048, 503.6590188453854 239.0721564615048, 503.6590188453854 239.0721564615048 M503.6590188453854 239.0721564615048 C503.6590188453854 239.0721564615048, 503.6590188453854 239.0721564615048, 503.6590188453854 239.0721564615048 M506.39699673818393 245.18610110745954 C507.4787231608056 243.47313039732512, 509.90132655800755 241.1449859399731, 513.2725533409961 236.66534738876337 M505.9166410117417 245.83884061325972 C508.11189837371927 243.01815246811802, 509.8937122493275 240.49921938692225, 513.8397984470234 237.16713613377146 M510.4169845816879 249.89043622205213 C512.7909307674482 247.1312816458397, 514.262402964293 245.40427810203752, 517.133317305977 241.00255036835165 M510.8605632946584 248.9408014136961 C513.0075897731535 246.39387212298357, 515.6023769742441 243.418545602906, 517.208875209371 241.8261223659239" stroke="none" stroke-width="0.7" fill="none"></path><path d="M511.54790029965585 235.03997915412108 C512.9777939408706 235.21835683633628, 514.7037740118229 236.56891586139963, 515.7119472974819 237.7788448564154 C516.7201205831408 238.98877385143115, 517.7752391643656 240.75617007448113, 517.5969400136097 242.29955312421566 C517.4186408628537 243.8429361739502, 515.8386479608541 245.98571690824588, 514.6421523929461 247.0391431548226 C513.445656825038 248.09256940139932, 511.7804384387553 248.4236521530381, 510.41796660616143 248.6201106036759 C509.05549477356755 248.8165690543137, 507.61052454080834 248.9849592342828, 506.4673213973828 248.21789385864938 C505.3241182539573 247.45082848301595, 503.97344498876254 245.60338373126905, 503.55874774560823 244.01771834987534 C503.1440505024539 242.43205296848163, 503.2919522104454 240.21632093332758, 503.97913793845686 238.70390157028706 C504.6663236664683 237.19148220724654, 506.24712459463467 235.5138547007406, 507.6818621136771 234.9432021716322 C509.1165996327195 234.3725496425238, 511.80747339967127 235.06241122142023, 512.5875630527115 235.27998639563666 C513.3676527057518 235.49756156985308, 512.4687205352018 236.1066928027615, 512.3624000319185 236.2486532169307 M513.1998533596696 235.24453534949367 C514.5454196628729 235.74270127336456, 515.5053300425964 238.0021013407038, 516.1651185940219 239.35838219943005 C516.8249071454475 240.7146630581563, 517.3617496556992 242.1821351048452, 517.1585846682228 243.38222050185118 C516.9554196807464 244.58230589885716, 516.1963929067618 245.40902430130717, 514.9461286691637 246.55889458146586 C513.6958644315656 247.70876486162456, 511.20275429436145 250.31622910293044, 509.65699924263384 250.28144218280337 C508.11124419090623 250.2466552626763, 506.7033658821363 247.52883659103134, 505.6715983587982 246.35017306070347 C504.63983083546003 245.1715095303756, 503.7798679974092 244.3441978751669, 503.4663941026051 243.20946100083611 C503.15292020780095 242.07472412650532, 503.1024499608646 241.0321844248021, 503.7907549899734 239.54175181471865 C504.47906001908217 238.0513192046352, 506.35410360297107 234.80559583269098, 507.5962242772578 234.26686534033536 C508.83834495154457 233.72813484797973, 510.5435051715824 236.23465009694615, 511.243479035694 236.30936886058493 C511.9434528998056 236.3840876242237, 511.5727712251297 234.91509953283116, 511.7960674619274 234.71517792216795" stroke="#000000" stroke-width="1.4" fill="none"></path></g><g><path d="M509.39572783400416 254.6401151340253 C509.5969379844076 261.3718532020709, 509.07808663789314 268.2879783944845, 508.82967788775096 274.9621323977001 M509.94701352070956 255.5153040208518 C510.14229053811147 263.0178201148118, 510.8156761869417 271.06432382531375, 510.28529475741567 276.58238513188184" stroke="#000000" stroke-width="1.2" fill="none"></path></g><g><path d="M309.45942176992526 350.4461034314054 C323.84565942508874 349.5063658331391, 336.374782356224 348.68144631050194, 344.68347486401433 351.1385740153123 M310.5261354302418 350.2302886056604 C319.3110621905513 350.51502909916957, 329.5106670720323 349.40625162151554, 345.46206769748045 349.67848678481226 M343.72145649498214 351.1536891473655 C346.4472680549078 358.01934726461667, 345.12161458888767 362.73593410634345, 344.1401326160862 368.7876156488407 M344.60602328967735 349.3006225833076 C344.44839198132337 353.9041647461167, 345.6241643503556 358.4831591746038, 345.0738096014207 367.88001962679317 M343.9300500857049 366.83231902418686 C330.43141863158195 368.1403489989045, 320.2647734767367 369.00526249938423, 311.53131452912436 366.4875102186413 M344.71093195854576 367.9487619312847 C333.9722875198996 368.4849210063178, 323.34674740203315 367.76033427772586, 310.7005083917974 367.73582342773176 M309.8774797695863 366.9192949698155 C309.8073670897644 361.81583621956725, 308.83174747463613 356.4364740789302, 308.93140444015893 350.50485660612236 M309.596674896876 368.26327388974346 C310.21760329181996 362.69513754879324, 309.95330346474606 356.7703277175111, 309.35306990385465 350.49416995596704" stroke="#DAA520" stroke-width="1.4" fill="none"></path></g><g><path d="M348.6176161769499 325.9919579331968 C363.32580136779177 325.861881488838, 374.85141904333966 323.4784012390673, 386.5081506356186 323.5969657200729 M350.7078384699496 324.40163086378135 C360.35052559046954 325.6945900667199, 369.78676438910924 325.2298456619538, 384.61582446459425 325.0050173977057 M385.87022748837774 325.75758811953256 C384.787599685611 331.2292901600301, 384.6486546517781 336.97490716895084, 386.2845634332244 343.92078119985166 M384.6017940403915 324.4823736865829 C384.3125325278489 331.8452942845756, 385.1833087485274 338.09532657576545, 384.7134298484073 342.66170132910804 M383.75178682693144 342.8383215449564 C375.2968841117263 343.9517331909736, 365.5639109584558 342.51915284862133, 348.54738592882586 343.3548294757749 M385.27700847560004 343.2799668403701 C372.55587618891366 342.58019501485387, 361.97098707324704 343.3618647787502, 349.8181655652037 342.40942067283817 M349.2831472340206 342.42320920637326 C351.30893142247817 336.39084709939584, 349.5596209020854 332.1793653342734, 349.8681252951156 324.74041009267773 M349.56382092804955 343.2721627927776 C350.58136579206536 336.36597255383083, 350.4705887406112 329.34304109669455, 349.7858324197048 324.518274454954" stroke="#DAA520" stroke-width="1.4" fill="none"></path></g><g><path d="M390.84829928674776 300.75623770432685 C404.71192216768804 298.757524904402, 416.68644224968097 299.30117542195933, 425.2115088267634 299.9614901353363 M389.397496318892 300.71665459109744 C397.57531099187287 300.47187209244856, 404.66772173945066 299.7116910232158, 424.29309663717527 300.3112947995548 M425.78664552494274 300.30499215043994 C424.3974165087388 305.7581582021128, 424.9857267676576 312.01176832822176, 424.39363095856817 318.46762861456216 M425.55749942852384 300.35827222141313 C424.7535752013808 307.23976299963635, 424.6343413156923 314.2309124627966, 425.4592920822594 318.3612232377221 M425.1852249029411 317.5374472874707 C416.12618425840304 319.01324002665956, 406.53523689160596 317.9980298832756, 390.3910497189962 318.26436663944537 M424.68031955875284 318.6168681081986 C416.58554716958747 317.68567060346606, 408.4864047168158 318.4983870240682, 389.68035208806447 318.2453044915578 M390.3816975838201 318.0159670855448 C389.2770821189046 310.96923872383894, 388.5308830866483 304.1781066274023, 390.11027982694185 301.1645780474516 M389.4859656339177 317.74972898213355 C389.7207001913131 313.16757312018683, 390.3477327502848 309.0915474484119, 390.5360329220911 300.2954586275213" stroke="#DAA520" stroke-width="1.4" fill="none"></path></g><g><path d="M428.87869063254476 274.83657161070306 C443.91317834138357 275.92850038706763, 454.3707498632486 274.0916319471728, 464.9025938362053 275.0917987405781 M429.9727801506027 275.6558785126964 C442.98886306448435 274.9154355440794, 457.093346701817 275.80691439068704, 465.4651239814221 274.5657626676202 M466.158657155496 274.11128122293337 C465.12281874483693 279.64980476374956, 466.16258849115604 284.14874586276903, 464.2928022181058 292.17926091175366 M465.5945593691171 274.4516005239627 C464.43971320378677 279.90095326271273, 464.4857960600394 284.7174626793185, 465.5338845416654 292.9811056952122 M465.3859531463363 293.74174000577085 C450.2373453085239 293.2490079525556, 438.37311618997404 293.09758662200954, 431.54818263831123 292.61185845126823 M465.27917591301826 292.4153085875806 C456.2591434332603 293.53809656378746, 448.2719085468889 292.95376375846746, 430.3059168079694 292.9981205492479 M429.40247436605085 293.81783807138464 C429.8852277552195 289.3197600444059, 430.87910693143107 285.63918416718786, 431.19953820588955 275.9774350580932 M429.96179455579966 292.53602313945646 C429.71916752470963 286.0117026794944, 430.47732077622584 279.4578792305746, 430.63536363379677 275.4165998529667" stroke="#DAA520" stroke-width="1.4" fill="none"></path></g><text x="400" y="560" text-anchor="middle" font-family="sans-serif" font-size="16" fill="#222" font-style="italic">"Being passed over is information, not identity."</text></svg>