<?xml version="1.0" encoding="UTF-8"?>
<svg width="800" height="600" viewBox="0 0 800 600" xmlns="http://www.w3.org/2000/svg"><rect width="800" height="600" fill="#FFFFFF"></rect><g><path d="M99.6582652293768 420.94698615719045 C288.7983049603983 419.7510663915508, 477.8517371187122 421.29476239579753, 699.0325065561289 420.22584214675516 M99.73230978976054 419.8149952059414 C233.36737807024795 419.2066854162078, 366.7658954023675 419.03193556199665, 700.0055768876077 419.8169428963424" stroke="#000000" stroke-width="2" fill="none"></path></g><g><path d="M392.1717815312074 248.15881909642442 C392.1717815312074 248.15881909642442, 392.1717815312074 248.15881909642442, 392.1717815312074 248.15881909642442 M392.1717815312074 248.15881909642442 C392.1717815312074 248.15881909642442, 392.1717815312074 248.15881909642442, 392.1717815312074 248.15881909642442 M393.3174313164893 259.7385122684029 C397.1680817326064 253.53617792397483, 401.20974290850785 250.55635389713214, 404.54731573355593 247.47723025627087 M394.4303990617715 257.92184446625186 C397.4458763992206 254.804569914921, 400.889695140297 250.6726076890326, 405.2085681804338 245.67182103657981 M403.44943915587083 259.8782951845511 C404.913056657723 257.7891011495676, 406.6559781859679 254.83916681437975, 408.41899552463093 253.86947452946842 M402.9447250354255 260.2486849413732 C404.52404556440325 258.91794222362654, 405.0078271111252 256.87663848275764, 409.23649016744304 253.5369849357757" stroke="none" stroke-width="1" fill="none"></path><path d="M397.93410107697434 244.3372907773327 C399.60563070008396 243.7326201512658, 402.17709668377387 243.4081741094485, 403.6203595298847 243.95900050849815 C405.0636223759955 244.5098269075478, 405.7367765723874 245.984335767292, 406.59367815363936 247.64224917163045 C407.45057973489133 249.3001625759689, 409.0834549267482 251.9484153589175, 408.76176901739666 253.90648093452873 C408.44008310804514 255.86454651013997, 406.0260100639023 258.2748260108132, 404.66356269753027 259.3906426252979 C403.30111533115826 260.50645923978266, 402.33142132972534 260.64115766002226, 400.5870848191647 260.60138062143733 C398.8427483086041 260.5616035828524, 395.7679452500198 260.189285351708, 394.1975436341665 259.1519803937883 C392.6271420183132 258.11467543586855, 391.53409377504755 256.17317233229295, 391.16467512404483 254.37755087391912 C390.7952564730421 252.5819294155453, 390.72677066719973 250.4159290829154, 391.98103172815007 248.37825164354524 C393.2352927891004 246.34057420417508, 397.1240438772627 243.16037498130694, 398.6902414897467 242.1514862376982 C400.25643910223073 241.14259749408947, 401.23779311061236 242.1622248345007, 401.37821740305435 242.32491918189285 M400.1667327066485 242.7273393491413 C401.6671713606564 243.34588729954868, 403.8522781854821 246.0665685147531, 405.42854793237007 247.33284164087917 C407.00481767925805 248.59911476700523, 409.5495205335161 248.6371660573434, 409.62435118797634 250.32497810589777 C409.6991818424366 252.01279015445215, 407.33751876193134 255.6985317507717, 405.8775318591315 257.45971393220543 C404.4175449563317 259.2208961136392, 402.44089657571055 260.4849420398948, 400.86442977117736 260.89207119450015 C399.28796296664416 261.2992003491055, 397.773351278968 260.7046280258896, 396.41873103193234 259.90248885983743 C395.0641107848967 259.1003496937853, 393.5223624553704 257.74142520509463, 392.7367082889634 256.0792361981872 C391.95105412255646 254.41704719127972, 391.17605232378537 252.0194858718682, 391.7048060334905 249.92935481839262 C392.23355974319566 247.83922376491705, 394.4162192859168 244.89463177459174, 395.9092305471943 243.5384498773337 C397.4022418084718 242.18226798007566, 399.58453420203296 241.96713412024448, 400.6628736011555 241.79226343484447 C401.7412130002781 241.61739274944446, 402.1228338731997 242.12751700710632, 402.37926694192976 242.4892257649337" stroke="#000000" stroke-width="2" fill="none"></path></g><g><path d="M384.55303714330773 271.3251239152653 C390.5703864526273 268.6958556704406, 397.0833533932125 271.0514650380207, 415.3384548803949 271.2418657372956 M383.8886164618605 269.8177105311902 C392.41792630790627 270.81003500161813, 400.44888364206906 270.3841553408698, 415.4338105814744 269.72094921167127 M416.7229102820752 271.24227258061643 C415.633798940871 291.07913013302226, 416.94861604142045 310.3752028047221, 416.79039424616195 326.0501895525172 M415.3752328621077 270.3336563241908 C416.11701490158623 285.61991714364586, 416.6323862258074 299.2005443017688, 415.88629832811506 325.1089697248714 M414.639790917362 324.8865690447192 C410.75072069679203 324.9852390314093, 402.4556659335144 325.44462342707345, 383.7535952868424 326.354023323795 M416.3490283877058 324.98474465765406 C408.65645012987466 325.306325346796, 401.0034192708185 325.5960363098446, 383.74400698262014 324.59480253749706 M385.0273831145038 326.34487819225285 C383.5982607078458 306.293600623371, 384.83450310561835 289.3605069894363, 383.65656318550117 271.46909471791196 M383.2051540240655 325.1345700662285 C383.33852365229683 313.1876692236481, 384.0931659369802 302.08297084750865, 383.461268419919 270.1772600504862" stroke="#000000" stroke-width="1.8" fill="none"></path></g><g><path d="M400.62522158479015 324.4070236165039 C399.3563668265615 333.28782057744246, 394.35119370032544 337.09230808085135, 392.90888417017163 354.92410450033105 M399.4886740460733 325.38015922400746 C398.1381876378341 332.1128673126752, 396.1971033715107 337.30040726507406, 392.5534593471964 354.4878646556515" stroke="#000000" stroke-width="1.4" fill="none"></path></g><g><path d="M398.1573642590829 323.3965285563091 C401.2462069847283 336.2826827747715, 403.36680045708505 343.6422488425549, 409.79277510014595 354.88536328127657 M400.8107910509933 325.37883191459554 C401.518759317072 334.47861335635685, 404.3974880089759 344.3918019540193, 408.0653840148752 354.6251237568807" stroke="#000000" stroke-width="1.4" fill="none"></path></g><g><path d="M420.79707094183846 284.94918102404955 C423.3550008043145 285.7751479840443, 427.8713660124305 285.3982821857632, 434.19558487582003 285.4579864805394 M419.5808925002261 285.3483214846288 C425.2630455315766 285.31462765236125, 430.9940129863615 284.98074318200025, 433.7494854303237 284.96923982931196 M433.4243980271623 283.85461696057826 C434.7417017080013 290.62633175702416, 434.99160818071505 297.2877116939853, 432.8302167697433 304.6150885480945 M434.1178109330868 285.0023864706281 C434.32542549067955 291.3417988790951, 433.70587271272416 296.81638614166945, 433.9107829630026 305.4693829062104 M433.8241032658656 304.8184221655491 C430.0197938519883 305.1770334087782, 426.70626556164046 304.21170734030824, 419.46589653140813 304.8023791696455 M433.79608084205057 304.66539416789425 C429.2799421602064 305.2680514955745, 423.80105295593825 304.6763057039776, 419.58141503886236 305.10518406746195 M420.0762844834271 305.6059492449735 C420.981235558967 299.68016045720407, 419.9780938581854 291.43972750481146, 419.64099342090486 285.5627837541142 M420.12942171260124 304.8307150578492 C420.2516615734975 299.0449336675167, 420.12752231787084 292.144354034634, 419.404722047573 284.9544319901778" stroke="#000000" stroke-width="1.2" fill="none"></path></g><g><path d="M213.01054520536127 329.59365823704485 C213.01054520536127 329.59365823704485, 213.01054520536127 329.59365823704485, 213.01054520536127 329.59365823704485 M213.01054520536127 329.59365823704485 C213.01054520536127 329.59365823704485, 213.01054520536127 329.59365823704485, 213.01054520536127 329.59365823704485 M215.7583383286075 334.7561040594272 C217.34768826656145 333.6646941191097, 220.17803275405868 330.24274361303816, 223.26268654686248 326.9528202068516 M216.21255851170187 334.79908622378315 C217.23781436896945 333.2772074142014, 219.29115944712936 331.55241895592707, 223.6612491203976 326.79697014323625 M221.18025326667413 339.0380977268847 C222.83924822616024 336.00362925070107, 224.4385752342976 335.31268176257504, 227.78519930927635 331.4503434075323 M221.0442838210281 338.62752762316535 C223.39053205091668 336.38251452711177, 225.4015583440227 334.3822544137159, 227.41308536531923 331.3187154848478" stroke="none" stroke-width="0.7" fill="none"></path><path d="M220.61552490384062 324.9863435459964 C221.96145894727343 324.9406912393107, 222.764275167528 326.6305976037864, 223.84516051904566 327.6094971837855 C224.9260458705633 328.5883967637846, 226.79767813357898 329.4616668415927, 227.10083701294647 330.8597410259911 C227.40399589231396 332.25781521038954, 226.6784583579983 334.85785157245334, 225.66411379525067 335.99794229017607 C224.64976923250305 337.1380330078988, 222.33369475447603 337.4046053033022, 221.0147696364608 337.7002853323275 C219.6958445184456 337.9959653613528, 218.78547156259853 338.3701284231215, 217.75056308715932 337.7720224643277 C216.7156546117201 337.17391650553384, 215.61938643162551 335.44702705088895, 214.80531878382558 334.11164957956436 C213.99125113602565 332.77627210823977, 212.60200862047256 330.91623648840255, 212.86615720035982 329.75975763638024 C213.13030578024708 328.60327878435794, 215.01978989925098 327.9380571687181, 216.39021026314916 327.17277646743037 C217.76063062704733 326.40749576614263, 219.98568888751652 325.35481091166713, 221.08867938374883 325.1680734286537 C222.19166987998113 324.9813359456403, 223.0338767828865 325.8828216583915, 223.00815324054298 326.0523515693499 M223.83079757639268 325.30816467628 C225.2118344650073 325.7824390821388, 225.22955748966717 328.85973987893647, 225.6886963680106 330.1022297907427 C226.14783524635402 331.3447197025489, 226.8371996844208 331.3931816305724, 226.58563084645317 332.7631041471175 C226.33406200848555 334.1330266636625, 225.28917036183057 337.37118958340005, 224.1792833402048 338.321764890013 C223.069396318579 339.272340196626, 221.49756610053115 338.6057668049684, 219.92630871669843 338.4665559867953 C218.3550513328657 338.3273451686222, 215.9220300438952 338.3238580155453, 214.75173903720847 337.4864999809741 C213.58144803052173 336.6491419464029, 212.72660651943687 335.0811061370215, 212.904562676578 333.4424077793681 C213.08251883371912 331.80370942171476, 214.75557942928177 328.9987837085649, 215.81947598005516 327.6543098350539 C216.88337253082855 326.3098359615429, 218.1162631052725 325.5954996511325, 219.2879419812183 325.37556453830206 C220.45962085716408 325.1556294254716, 222.14885403357118 326.2901729291465, 222.84954923572985 326.3346991580713 C223.55024443788852 326.37922538699615, 223.7112166710781 325.85225753934265, 223.49211319417037 325.642721911851" stroke="#000000" stroke-width="1.4" fill="none"></path></g><g><path d="M220.81145143136467 345.1804909526264 C219.41082935713146 351.73885143745514, 218.20648585366007 355.08228683240367, 218.32958543007314 366.3848574291442 M220.2639572401361 345.11859142756697 C219.01567988985286 351.46107214146076, 220.92614757740753 359.2828965607714, 219.70564059542514 368.1916675787975" stroke="#000000" stroke-width="1.2" fill="none"></path></g><g><path d="M221.87604032819902 367.98747622458103 C219.572214336456 374.212453014008, 215.44250051039913 376.7414153671591, 212.6531854933547 386.2201201434013 M220.3342072628894 367.46597010030723 C217.00475003009106 375.35008484616395, 215.12186167232053 382.67291287177864, 213.3189660380025 388.64888123443075" stroke="#000000" stroke-width="1" fill="none"></path></g><g><path d="M218.6058108646435 368.8575458456858 C222.48081202542858 375.96332505434196, 225.10999733255116 381.4855497875092, 225.9488197486583 388.8761297205512 M220.87916163510894 367.029501111553 C220.66505638066556 372.50876745606564, 221.65461721795427 377.1490463399953, 226.47807824333466 387.63784663964736" stroke="#000000" stroke-width="1" fill="none"></path></g><g><path d="M226.69701663270337 353.6916051349557 C234.4438477735712 351.9678052744373, 241.91290354429518 347.88651580301877, 260.6571907967178 344.07455357578533 M227.62548455735995 352.21799006521985 C233.6683183644765 349.864866292079, 241.22240540171407 348.0317030627809, 260.66077173259566 345.5993654687769" stroke="#000000" stroke-width="1.2" fill="none"></path></g><g><path d="M258.99233879225096 330.50889074945985 C271.153621908222 330.48867048220046, 283.6106675674914 331.8210856466888, 310.8933008060762 330.91168216308284 M259.369189307 330.6412267869157 C278.7767669769446 329.5135954109095, 297.8756540743499 330.6421286546861, 310.7534500046403 330.4494271032018 M309.7803203007928 330.5744376936449 C310.27317487108564 336.36574350524194, 309.39693486663094 345.7689265080486, 309.7631546299509 360.77173116043423 M309.35254759316314 329.3517846155593 C309.7436136538644 336.25553724277, 310.07645485068207 343.62702099198816, 310.39276285491206 360.10223521251993 M308.52950511323854 361.1205697754921 C293.24206222647655 360.0882903682609, 278.4426528809839 361.1835221193768, 259.3116905690158 359.70749126451994 M310.1247435909778 359.7592960165382 C295.13386241550967 359.7451344900264, 280.6942830010713 359.74029249350286, 259.30918830525997 359.2579858033155 M260.7004204736077 358.98324348145525 C258.8026303432234 349.9166006627224, 258.29900749738823 336.6124714040822, 258.8806583607095 329.88467421782184 M259.28763165241475 359.34384842871253 C260.4741098161712 352.47847457122157, 259.30478925262616 345.3378080470253, 259.68714250455196 329.7760865649299" stroke="#CC3333" stroke-width="1.8" fill="none"></path></g><g><path d="M281.69403247062274 341.5988350631491 C281.69403247062274 341.5988350631491, 281.69403247062274 341.5988350631491, 281.69403247062274 341.5988350631491 M281.69403247062274 341.5988350631491 C281.69403247062274 341.5988350631491, 281.69403247062274 341.5988350631491, 281.69403247062274 341.5988350631491 M283.64501499039795 348.32959153927663 C284.92427695417547 347.23830485541214, 286.5492269744565 345.03199530058475, 288.55994956130957 343.31300404759037 M283.67884386649166 348.4295181811752 C284.86372981999267 347.07870498617325, 286.2715354105717 345.29090822914344, 288.08219504766333 343.1202348522025" stroke="none" stroke-width="0.7" fill="none"></path><path d="M284.72415586432805 341.4671358425622 C285.4712221516673 341.29401432097126, 286.23788664095855 341.2255714376709, 286.9707920634751 341.7228076922116 C287.7036974859916 342.22004394675224, 288.85795277584054 343.7004794835367, 289.121588399427 344.4505533698063 C289.3852240230135 345.2006272560759, 288.96222777707135 345.5407598083798, 288.552605804994 346.2232510098293 C288.1429838329167 346.90574221127883, 287.5231325976287 348.1417907523912, 286.663856566963 348.5455005785035 C285.80458053629724 348.94921040461577, 284.1583467181424 348.87471600597166, 283.39694962099964 348.64550996650314 C282.63555252385686 348.4163039270346, 282.4381515781738 347.8573841886422, 282.0954739841065 347.17026434169225 C281.7527963900392 346.4831444947423, 281.4338544964288 345.4213797801814, 281.3408840565959 344.52279088480367 C281.24791361676296 343.62420198942596, 280.89503007390084 342.445817031581, 281.537651345109 341.77873096942585 C282.18027261631715 341.1116449072707, 284.53584201162755 340.5812685926791, 285.19661168384494 340.5202745118727 C285.8573813560623 340.45928043106625, 285.58828264886097 341.2953982386938, 285.5022693784135 341.4127664845871 M283.73838670746153 340.2077386834015 C284.30086661157725 339.957996018385, 285.1240663906942 341.33492989997376, 285.88540899826233 341.9327641706523 C286.64675160583045 342.5305984413309, 287.8301265920804 343.26075306277875, 288.3064423528702 343.79474430747274 C288.78275811366 344.32873555216673, 288.7482517316634 344.5302000037376, 288.7433035630011 345.1367116388163 C288.73835539433884 345.74322327389496, 288.7912735672106 346.65715499673274, 288.2767533408965 347.4338141179446 C287.7622331145824 348.2104732391565, 286.5483339186677 349.71158119009357, 285.6561822051166 349.79666636608755 C284.76403049156545 349.88175154208153, 283.61301421370973 348.5833542442532, 282.9238430595897 347.94432517390845 C282.2346719054696 347.3052961035637, 281.61946127927683 346.87351317918257, 281.52115528039633 345.96249194401906 C281.4228492815158 345.05147070885556, 282.086893166189 343.42995759962787, 282.33400706630664 342.47819776292755 C282.5811209664243 341.52643792622723, 282.7871890434693 340.5972244946129, 283.00383868110214 340.2519329238171 C283.22048831873497 339.9066413530213, 283.54595501015456 340.0923230644296, 283.63390489210366 340.406448338153" stroke="#CC3333" stroke-width="1.4" fill="none"></path></g><text x="400" y="560" text-anchor="middle" font-family="sans-serif" font-size="16" fill="#222" font-style="italic">"The lab coat wasn't power. It was the costume of power."</text></svg>