<?xml version="1.0" encoding="UTF-8"?>
<svg width="800" height="600" viewBox="0 0 800 600" xmlns="http://www.w3.org/2000/svg"><rect width="800" height="600" fill="#FFFFFF"></rect><g><path d="M100.3423358855916 220.02400315004925 C290.6381720791058 221.6748520742571, 481.5392599975901 221.3022989239848, 600.7596752420122 219.9284179316171 M100.05394363384728 220.30215384917625 C299.56539574307914 221.7799631768415, 499.44140880580096 221.79989413725818, 600.2505410979556 220.28767621907323 M601.8853333870394 221.94108228135138 C599.9564060891203 237.1436624363613, 598.3256457425075 255.49458444558454, 599.669937631482 300.7207161209563 M599.5207008594862 219.33152106262136 C600.9578563823696 235.69962917545826, 600.3962821453827 253.35243631639196, 599.3771140493383 299.87016196669776 M600.3182590761082 300.7615299978592 C453.9713265985122 298.4171206192883, 309.21481927995893 297.97405211218626, 99.57249423323965 300.05946220675463 M600.1302854063488 300.2256030662874 C412.5881107880189 301.3532114114024, 224.8604515494091 301.3202159646486, 100.02424512968437 300.2714671545727 M100.90809106171028 299.26913218408004 C99.49710707079109 270.4494810151068, 100.20935430579267 243.41740881551812, 98.69157018027482 219.0566423965365 M99.48123696080489 299.4206798442423 C100.54733152086143 269.1102000054329, 100.35929515312993 239.20036307365697, 100.43151629485637 219.84521993668858" stroke="#000000" stroke-width="1" fill="none"></path></g><g><path d="M99.88272541148746 259.9617735124064 C266.20209062766423 258.97666713684805, 431.5059298558548 258.67705649666516, 599.6369604051673 260.02357032285744 M100.06075286488915 260.0682079278726 C298.3112588817116 259.03848541843223, 496.79688020971594 259.08789460809675, 599.9365389056435 260.110943148399" stroke="#000000" stroke-width="0.8" fill="none"></path></g><g><path d="M159.80434356738905 231.98616528786803 C169.71047263880112 230.88833792748173, 183.55118255951703 231.6132798073058, 198.33937907563333 230.8404019335388 M160.89358792402186 232.62515810219557 C171.7268787054968 232.8825626837451, 184.39937581371777 232.9477457438372, 199.11677192461735 232.40564977025326 M201.64072921270784 231.0718904649127 C198.8658866267127 237.85015134687185, 198.7526574401472 239.99676236319402, 199.45860148319255 253.40450516566088 M200.230267740876 232.31629865194228 C200.8106031105588 237.72537709816012, 200.35560597790558 243.71484021118664, 200.47640998969027 252.43190318909976 M201.6862515657629 250.47318073595338 C189.15818614537184 251.6490983770306, 174.31031968969992 250.54705741313097, 158.08782316601162 251.20363736767942 M200.85565309566988 252.05697669734005 C189.3020845123096 252.90524590984725, 178.7333140982559 252.17359013160134, 159.7799941698716 251.75752029831918 M159.9211747885573 250.93287479549844 C159.17884613109914 243.53215216875986, 159.58220744006013 235.9671629649207, 158.8328947764182 232.397500776868 M159.79576898724932 252.0034103589132 C159.4020403610907 246.41174009533677, 159.09610279379362 240.78397172913907, 159.04291138757762 232.24336093403727" stroke="#4A90D9" stroke-width="1.5" fill="none"></path></g><g><path d="M199.14016586312073 240.88671647609235 C203.7204158496234 241.5386783898514, 206.73351718176545 241.77959890259294, 214.50311308764458 243.1901772999332 M199.29025934484707 242.22244738231907 C205.5806962623902 242.6285237922377, 211.05098984071498 242.04215008031952, 215.71243392245853 241.55099888165637" stroke="#4A90D9" stroke-width="0.8" fill="none"></path></g><g><path d="M269.281659391935 231.55931813902234 C281.31909603614713 231.7291766653529, 287.48959375413625 232.53739229268572, 309.06732372540694 232.2372875388091 M269.1770812588192 231.67525867218714 C281.06016679406554 232.52862316200608, 291.4467025101381 233.2615639867127, 309.0232884407497 231.9409846274558 M309.6675995945141 230.49230542818657 C310.6505224658703 239.19485123282607, 310.2032128377802 244.06686013041033, 308.9749174873674 253.83181328260454 M310.9244201411441 232.75282145185471 C309.6163450337872 239.26441989131968, 309.29814481633434 244.60327836900652, 309.79224090647443 252.26563654277038 M309.1110808407386 252.0237302680138 C300.8178708624405 251.05919211109486, 293.9272228834758 253.58613126371185, 270.10585430133864 250.73365712119042 M309.22232376970175 252.85094358339694 C294.4576895336284 251.70664563704685, 278.628320911923 251.42059181136975, 269.60595212583 252.96326660656695 M271.60956749332837 251.9510791295866 C269.3127454281656 246.585236573152, 271.26482414153503 242.43013446955854, 270.06489211921945 231.97187558598316 M270.5371567514916 252.21021448671536 C269.23350694339814 246.97306624871447, 270.15273477257523 244.34742715170538, 269.58323289637013 232.27871329164458" stroke="#4A90D9" stroke-width="1.5" fill="none"></path></g><g><path d="M310.5846414108853 241.14643013213293 C314.04271087736987 241.12366627118388, 322.1205438162228 241.3542154159393, 326.0156661155619 241.9541080483423 M310.6350789091352 242.37480188790508 C314.76214380811706 241.81732741109508, 318.6017393550631 242.3698706117317, 325.64866944425705 241.63004845110152" stroke="#4A90D9" stroke-width="0.8" fill="none"></path></g><g><path d="M381.87512809586354 232.69536121069942 C391.71446700432716 232.62779240713033, 401.54472960519894 231.85417693669783, 421.11240859854985 232.05424982527336 M380.2618639711594 232.09459701848934 C393.6783471080416 231.89836218993318, 406.53078593649894 231.32829220772499, 420.73299248302845 232.07670505198848 M419.1014207767893 231.7176244448975 C421.96331834028587 235.91487900491288, 421.21291080993063 241.36977012379091, 418.0608189682135 253.1897175602421 M419.7832797321302 232.24601756963364 C420.962355585007 237.72314762952064, 420.8093763649219 242.1765357900683, 419.2200468573576 251.78974461716 M420.1060371922767 252.26109561908063 C404.34783215529046 253.33497546725212, 387.1063646501011 253.3029531037061, 378.45039535729677 252.90490982696397 M420.5238865921296 252.77705544750128 C405.7547217822291 251.7717717814385, 391.81938738152195 251.60570048257262, 379.07861498154034 252.02377325452068 M381.5067792277037 253.20689696297478 C379.0757762336909 244.89923202398302, 380.1339597580677 235.2255667720653, 378.9947262965238 231.5313955921503 M379.95274405275313 251.60698688843075 C380.3716260758292 247.67349288619286, 379.574451436131 242.5129987758983, 379.3936872814114 232.69866755165435" stroke="#4A90D9" stroke-width="1.5" fill="none"></path></g><g><path d="M418.9198423231415 240.67488354164934 C424.85945110585783 241.98274381928695, 430.03667773516446 241.05888088055855, 436.07182571137633 241.9216125285225 M419.7529859158093 242.10507817109047 C424.5045842382632 242.65262549611154, 430.2702988865622 242.10445084441113, 435.52182387544855 242.2471455976666" stroke="#4A90D9" stroke-width="0.8" fill="none"></path></g><g><path d="M490.8339389445886 232.18379050747888 C500.6121457408615 233.56164924619543, 506.712541712014 232.7175785713806, 529.6138355961965 230.30563890762872 M490.7722679278772 232.2528465028323 C500.33334065597296 232.689506773104, 509.06495580997245 231.87604767242544, 529.8680366194093 231.24809455529174 M531.3922451263894 232.95203630318125 C528.1322549644394 236.16694577080892, 532.1178273723995 240.71242617266654, 531.7643274756804 252.39292439426566 M530.09698683125 232.00818835230316 C529.5785698727403 237.10686921921953, 530.8080881558799 242.34405084618194, 529.4527721188111 251.17163697328496 M529.4429774309225 251.05465558417274 C514.5790941895555 253.19159913472234, 499.4287543525781 253.25789269962362, 491.8711442524435 251.67119753587102 M529.2427486524563 252.45768714040594 C518.1359255991056 252.6269252393956, 505.6821780916573 252.41190385068597, 489.3178909207291 251.17495052711286 M488.24815455070245 252.81962399181523 C488.5307445556684 245.04692317953197, 490.54134323761696 242.0401188397474, 489.23848101363785 231.79809759788282 M489.7989086131053 251.98735155308935 C489.9737070321246 246.56546225622296, 489.5945856169345 240.43767925646122, 490.6741051988648 232.11869871918555" stroke="#4A90D9" stroke-width="1.5" fill="none"></path></g><g><path d="M531.0690978803107 241.59235730234172 C534.4378654663261 241.15125435216794, 537.8853345926362 240.8219736410158, 544.6533957811909 243.40927172575533 M530.6255065650903 242.17501471103014 C535.0515195651727 242.4281292814291, 540.5387559058506 241.15028798084288, 545.5600774331857 242.4194190029119" stroke="#4A90D9" stroke-width="0.8" fill="none"></path></g><g><path d="M419.2592645124203 268.39735884994684 C437.5760957558791 267.21882949890704, 453.89510295059307 266.1605433181924, 458.9641269316374 266.1827910587096 M420.1820486002722 268.515944021781 C427.73775128299786 267.96226109284254, 437.3310923828717 267.8967477605924, 460.31814995601536 267.90801988905497 M461.0520411088278 268.5316137008731 C460.03688931752225 274.31997231351147, 458.17755774375763 277.9469149873374, 460.40856369694 287.4634849805459 M459.9875724366888 267.55190984769223 C460.46751694179454 275.0524515845175, 458.9667704602746 281.55574704213484, 459.3011723926687 287.93068861771656 M459.57164216995744 287.8976765407889 C445.1194171084662 288.67853541337087, 428.5844262908551 287.57278881919586, 418.62269445582933 288.627841440991 M460.538594476417 288.5268015722477 C451.23375234413174 287.2899761578433, 442.3006665895059 288.5776833564424, 420.9376043323218 287.91061657770825 M421.07590102006435 287.95833276322077 C418.3398226452508 281.50820534112995, 418.2093388359732 271.8224702858887, 419.9097226710167 269.47593893214804 M419.5329050092524 288.3314405345697 C420.7207789096797 281.15434881735973, 419.0815078060811 275.2311433557932, 419.000511130682 268.82357937641046" stroke="#CC3333" stroke-width="2" fill="none"></path></g><g><path d="M419.5316995379213 278.87592803185345 C415.0717532377358 277.9277041594967, 411.6272238549718 277.2645469896865, 405.66485138332445 278.2462294116193 M420.16648362720366 278.389558606828 C415.7243611180034 277.82922136565, 410.7323660023768 278.209593362764, 405.38019173793 278.47465000020617" stroke="#CC3333" stroke-width="0.8" fill="none"></path></g><g><path d="M180.66051855456195 349.7094298130297 C192.35569527776818 350.2453684912103, 204.79153944464156 349.63475164048265, 211.29903800226143 350.6133623029946 M179.7200264601189 350.11217547702773 C188.3748431126633 350.0509471416105, 196.27105502842187 349.85989200406556, 212.13639612815228 350.38024294346434 M211.22059638555214 349.45229973419157 C212.7390815542814 357.005863275917, 211.99666807694507 364.91207305509903, 211.74842394983654 377.89362417737607 M211.74319857635598 350.1126956215914 C212.11387769337324 360.465322423623, 212.16281445891485 371.8389962549913, 211.68712348634344 377.9790488868016 M212.7720895138204 377.87322042358556 C203.88998192501924 377.3421362049184, 196.25073820702605 377.46643096093794, 180.4212835494453 378.39213129873644 M211.67477579721583 377.639925347079 C202.9074563545533 378.111067262092, 194.54151992649 377.89779820914885, 180.20466191158886 378.2142725535704 M180.124306913262 378.7231766448941 C180.1810109769088 370.53139876311366, 180.40010453547154 361.7790598233192, 179.48180499019466 350.6400931863417 M179.7954078661148 377.9649509060001 C179.8053753137038 368.9627246274011, 179.53534053108285 359.91009322911736, 180.24002633506979 350.2139874711216" stroke="#000000" stroke-width="1.2" fill="none"></path></g><g><path d="M220.6827509026506 349.4941274792125 C228.26205376673133 349.89883967607125, 236.6209099621885 349.30409639565954, 251.219062244853 350.62235030810825 M219.74322994566964 349.8385482602935 C229.34138834344702 350.29941290081507, 238.11344687052323 350.08013533702666, 252.2523992266139 350.0496196099566 M252.60729250627347 350.0040732527597 C252.77217842999528 358.2582114850381, 251.95490625410343 366.0695941922183, 251.95628242802255 378.68635207412456 M252.0743625972381 350.338798652701 C252.2596893313274 358.66396369663624, 251.62460602646223 368.12227032858243, 251.87906086499342 378.2472584601339 M251.31338720442807 377.54420792438856 C240.87763342804178 377.6403334135734, 229.28596079899927 378.049644046561, 220.38971986780462 377.39643729598487 M251.82482146565272 377.8097559156738 C242.85213728896758 377.750202763893, 234.28648183877175 378.13270074364874, 220.17468733962394 378.1898987559366 M219.51655081961852 377.2457207153849 C219.20046134890248 366.788047096929, 219.94802001377028 356.4655532642764, 219.5303327310824 349.6314784302959 M219.8653223853261 378.0748408051427 C219.78812703439348 370.6638377384343, 220.12469258576724 364.1511447494153, 220.0369623690942 349.74366699994096" stroke="#000000" stroke-width="1.2" fill="none"></path></g><g><path d="M259.60370778545905 349.47052680666576 C267.34347546369 350.250621830544, 274.85497736093447 349.903735873697, 291.65456601984505 349.329311791924 M259.74959090378184 350.00208390244967 C271.609851710869 350.0694791252211, 283.3723540399479 350.42854879960896, 292.3058944285421 350.3994925486649 M292.3139381459575 350.58845246668756 C292.4469028077319 357.3501783643515, 291.52121607703856 364.08765001105684, 291.2460536180763 377.7298671715187 M292.3142639095586 349.76827672646044 C292.14414920910275 358.1494555191872, 291.8025173676896 367.36433905442124, 291.7530379796603 377.66187609925555 M291.4890935445774 378.54142717464936 C284.13983372639944 378.1916655157859, 276.4666261098874 377.4088602452527, 259.98751449004254 378.116843008377 M292.3321155275271 378.04729573533075 C282.0022649443209 378.3249603322317, 271.68092204131995 377.66532634433673, 259.9403586636427 377.6077480000633 M259.48278756182356 377.2143821028632 C260.6049614321864 369.56843717078766, 260.24503654689556 360.24928208515036, 259.9738415925495 349.6744648200172 M259.7657471085014 378.31960674656926 C260.0308684010634 368.6145204021054, 259.95360520336146 359.51460811366945, 260.3081311373422 350.3317886449755" stroke="#000000" stroke-width="1.2" fill="none"></path></g><g><path d="M300.25358725444937 349.32625011243863 C310.03757122482364 349.57890550482443, 321.594632584125 350.2490668591309, 331.7375728353115 350.2750881123225 M299.9026025645532 349.82588037220063 C310.9031978579052 350.14816865056406, 322.5409094552713 349.779750983145, 332.37792288940614 350.07425537967265 M332.2335482379423 349.64427940005737 C331.55137866010466 360.94713262863957, 332.5643694914831 371.6920521865275, 332.1657137467125 377.6379988995508 M331.92721604309685 350.2577525436055 C332.36961098451184 361.26483246850785, 331.7007519388142 372.2344982843248, 332.1674870232788 377.7612829280223 M331.53023809715376 378.6225561966554 C324.91568241961306 377.46874366166367, 318.33246051781447 377.9432833837755, 300.5712315958926 377.42061228725953 M332.343283350924 377.89899935125464 C320.8149747532614 377.7598670849821, 310.2520205739702 378.21876057867064, 299.78281992777215 378.0433775694364 M300.05092947579664 377.3732242957112 C299.88664049492985 371.2680787817244, 300.2606946589088 362.8404917490515, 299.27914929904017 349.65944296898175 M300.30277292860603 378.0082215739022 C300.2711863132473 367.9276278403653, 300.32152757206654 358.0718171361979, 300.01775900660937 350.2221360398929" stroke="#000000" stroke-width="1.2" fill="none"></path></g><g><path d="M340.6682509760892 349.2403042005146 C350.66834519676416 349.931481022567, 362.1991143750974 349.22330525488667, 371.28412153230414 349.28222656775887 M340.3509788747728 349.6447818492582 C352.31877511598253 349.7131598621203, 364.43769275693 349.8947927222246, 371.8742652149454 350.10896894210646 M371.4368468300418 350.33162236578744 C371.3800388590666 358.862016228484, 371.8952628154012 368.17918829501855, 371.3787438902005 377.7807136440505 M371.9663887364604 349.7326892383488 C372.15764399964195 359.7437938017467, 372.03291229926555 369.62462990109935, 371.62792845466635 378.0418612575408 M372.4873500355879 377.34697207571605 C362.5170230814842 377.76116664390304, 352.98190716005547 377.9050252968596, 340.1960236478818 378.6239910725653 M371.86238928626295 378.1220604016474 C359.6189713400205 378.396617158327, 346.4314281743402 378.231686137862, 339.71151212283814 378.2587348839176 M339.72431357221495 378.3321821742916 C340.5434837167403 370.05334166002166, 340.21748523808697 360.8508579032615, 340.64693873274734 349.64344280584476 M340.0452092933474 378.05153500276805 C339.62346350406614 371.1575361611322, 339.6385603083104 363.71271229633993, 340.3035034048774 350.22373361545255" stroke="#000000" stroke-width="1.2" fill="none"></path></g><g><path d="M379.3715114087922 349.21086656201703 C388.31016861013967 349.41914285333195, 395.67033637237313 349.8725649862539, 411.89372718786797 350.7769593859507 M379.7455071410139 350.3407525990729 C387.7729221418164 350.02265065727244, 396.448361632542 350.1694299470502, 412.27376261326145 350.3461884576483 M411.8021583026794 349.3390402049829 C412.84656315474 359.91741686963326, 411.73752406927434 369.5636661558768, 411.44006473527577 378.75920655670467 M411.8753294020391 349.8610187009662 C412.244446521546 357.9156091776076, 411.7550214188804 365.5815701153492, 412.2534586945787 378.2059150788677 M411.84658842591074 378.5847012105513 C399.73052213660765 377.27997875625283, 386.9154659767763 378.2441267549417, 380.377931378278 378.0160050388388 M412.01585974119996 378.1386193449852 C403.1614851304922 377.6566180658103, 394.9904460696734 378.2978081291018, 380.24540674036 378.3903808583025 M379.3281849844245 378.3737806990601 C379.6251219167245 368.5577000014844, 380.84755641548793 358.5625944637046, 379.4904986416388 349.82337909318704 M379.9527835641877 378.2869506474092 C380.46997549673074 368.6320609173511, 379.9129186970666 358.77008988824304, 379.87375712371306 350.20561280123616" stroke="#000000" stroke-width="1.2" fill="none"></path></g><g><path d="M537.3963264179447 173.74911503883095 C544.4800141302721 173.37760957076844, 548.7620756330521 174.3833757780908, 563.4293869383393 173.5257786355505 M537.633803800561 175.3682990991909 C543.8459831710192 175.54729690025067, 546.7980394313581 175.07535161394173, 562.8497389310102 175.28374262298087 M562.5287598666835 175.52106570514772 C561.4517157252968 179.9463971284462, 563.0978462902481 188.00676970377992, 563.9445665456514 193.511240233901 M562.0855985774956 175.0747172719735 C561.1232906528561 181.97024919352543, 561.320048457015 188.94980000294652, 562.5618488438896 194.30442631573004 M561.0823094238634 193.09493686572443 C554.9076824608649 196.09345869462152, 547.0455636858135 193.97776331348848, 538.9311340829679 195.22354957236232 M561.8324618219018 195.56724388161715 C553.1587962616669 194.6972487412243, 543.9959783075458 195.6447500004524, 537.0255260614399 195.9607196411145 M537.329593745136 193.37252041691528 C538.7501877084611 185.70529411422848, 535.9616869693979 181.6224901453312, 537.6438018717878 174.2488487776278 M537.5835087808013 195.07363009938322 C538.8876226577638 190.00702227801298, 538.301657996671 183.28127440382912, 537.9917928592193 175.00201269918813" stroke="#000000" stroke-width="1.8" fill="none"></path></g><g><path d="M541.0662753340553 175.71429238599586 C543.1098030990962 170.97683822012016, 542.3816160937422 169.87331103472087, 541.9190385309985 164.01367794804196 M541.755568168557 175.26416486802918 C541.5719719723364 171.08338535909866, 541.3285485228558 166.88321063483318, 542.1985251066964 163.5222452970042" stroke="#000000" stroke-width="1.5" fill="none"></path></g><g><path d="M558.5553710324372 174.3200529450118 C558.6427071546201 170.14328417743894, 557.7328880535423 167.01934895379202, 557.6122089755503 163.5433828627655 M557.8548937460243 174.519169458308 C557.9675304411854 171.55254914999946, 557.4368184312394 168.19396743258656, 557.6216336169609 162.76318763158875" stroke="#000000" stroke-width="1.5" fill="none"></path></g><g><path d="M542.0628425952528 164.04242101785212 C544.8737582876715 162.85541829615755, 548.5956707755619 163.29725054493346, 557.5223956618873 161.7447263058832 M542.0846882363061 163.7332675361598 C547.8388172092681 163.84452797853075, 554.3794954525818 162.39622241816028, 557.879659061645 163.4274615138651" stroke="#000000" stroke-width="1.5" fill="none"></path></g><g><path d="M131.07166892416026 160.17246085312473 C148.03317367992813 159.6960057024578, 161.50269190437834 162.29108564977105, 181.42776471780985 159.3687993658315 M130.247188963425 160.26829017609552 C143.96917492331656 160.7283120993504, 156.23799162103072 160.27890111759893, 180.99207024768026 159.40880389508942 M178.56497942392895 159.90417110313874 C178.63465260730297 169.73508120379714, 180.82830791502016 180.39512920939404, 180.28518504383956 189.83641443233444 M180.94534654586198 159.24287718080663 C180.6462022190826 167.5951822957731, 179.19535337678101 172.76540258343363, 179.00780558575548 190.0328393445385 M181.1147900546023 188.68886893869666 C166.8096216849421 188.21981446485572, 157.853181813855 189.55949050097541, 129.86952561816867 189.4290255158522 M180.98061092334277 189.49753254748552 C165.2307002373138 189.99130573427536, 150.82084169409688 189.27139531344633, 129.75427649183888 189.04211049772252 M130.76254195869902 190.13785512176298 C131.25347244606746 184.98065407916718, 128.07928966414138 175.5537084067381, 131.39721034872684 159.6748393223318 M130.1859112132097 190.69634991431923 C129.460422399459 181.2394408659708, 130.12226143618108 172.12610731429248, 129.4839248131433 160.61541126018437" stroke="#000000" stroke-width="1.2" fill="none"></path></g><g><path d="M148.87982068167153 160.44087282374167 C146.06289338705085 170.72356520078893, 147.40833861414185 182.51264558472846, 149.65249160534665 189.99703701228154 M147.056143295463 159.60957359957965 C147.15723880925637 167.27655394548626, 148.60963433347345 174.12120543770965, 147.80155040659938 189.2630895327401" stroke="#4A90D9" stroke-width="2" fill="none"></path></g><g><path d="M130.29907557952515 173.73644731835586 C140.5994686838425 174.67215409262525, 152.8628418344321 173.50616111297595, 180.61685643920237 176.12671646493496 M129.3415052495815 175.9011666165482 C148.42714998652556 174.77226300547179, 165.95224380322517 174.40283014525585, 179.3527783802136 174.8670948525437" stroke="#4A90D9" stroke-width="2" fill="none"></path></g><g><path d="M349.01327259686747 168.97497957976523 C358.37410470760193 169.48287252029928, 369.0720939964601 169.857337512661, 378.5052829712847 170.14778752078706 M350.8074913446341 169.3442190804944 C358.26578190276985 171.14833755451212, 366.3062697861655 169.84843766941088, 380.891324489875 169.08879409620693" stroke="#4A90D9" stroke-width="1.5" fill="none"></path></g><g><path d="M381.7347613911638 171.4372665050695 C380.89208484366344 181.76087823494137, 379.5459926195528 192.964946748947, 378.2061129258396 201.0368679353362 M379.4382929967034 170.48855159802562 C380.6706621683169 179.91949707427295, 380.10653016294305 190.63098302988783, 380.9352129456642 200.6699629373107" stroke="#4A90D9" stroke-width="1.5" fill="none"></path></g><g><path d="M374.5376748040736 194.74878058437443 C376.8098249821702 196.74251415878553, 377.6646431344108 197.72378485739137, 380.22083387169744 200.37299757823334 M375.2582304483125 195.0642897635495 C376.21800547883913 196.61979704076745, 377.8095515251716 197.8251264436465, 379.8326104829849 200.11631881118808" stroke="#4A90D9" stroke-width="1.2" fill="none"></path></g><g><path d="M384.4502218226433 195.5472678607259 C383.68372534331826 195.77900094331133, 382.6606258607698 197.84099768797478, 380.5686584796739 200.08592437085127 M384.9541904291031 194.8624873865414 C383.0830658568853 196.684786144441, 381.4383685730525 198.61272682374565, 380.26379651455716 200.20777569772474" stroke="#4A90D9" stroke-width="1.2" fill="none"></path></g><text x="400" y="560" text-anchor="middle" font-family="sans-serif" font-size="16" fill="#222" font-style="italic">Don't confuse established with optimal.</text></svg>