<?xml version="1.0" encoding="UTF-8"?>
<svg width="800" height="600" viewBox="0 0 800 600" xmlns="http://www.w3.org/2000/svg"><rect width="800" height="600" fill="#FFFFFF"></rect><g><path d="M100.5829988504185 219.40048430383038 C282.174679627967 221.50324030599052, 465.4183440275527 222.2998943657114, 599.5528884807763 220.03841860597507 M100.25988519627126 220.11060801313263 C266.48068744838366 219.5314625425809, 433.42325423925536 219.494706320714, 600.1097003281973 220.08550638314046 M601.3618110372182 221.12042602622202 C598.3326746811175 239.07140527356995, 597.7178670895197 263.3187723992177, 600.719673112723 300.54614063221163 M600.4641679242033 220.40585287639456 C600.1699212730335 243.4178693187469, 600.1595844285686 267.44757485713933, 600.9594309600975 300.42563167227763 M599.943606077837 300.52093070677114 C449.86565453317195 300.59071641817604, 299.37417679689514 301.21250836230666, 100.31476990765204 300.18972369159184 M600.1643962672483 300.0481430449484 C492.46743348897536 299.39568155279, 384.5694146653963 299.4622022868983, 100.08331429760025 300.0486177668773 M99.89294156068152 301.2422135105219 C100.44083213526635 277.83498924253337, 99.18251291984869 252.38005077072998, 98.31497138671585 220.70531363659342 M100.87119664254291 300.0753354944688 C99.06290913502313 269.5903936468298, 100.579743486503 238.33714342785458, 100.83088317327432 220.75834791489294" stroke="#000000" stroke-width="1" fill="none"></path></g><g><path d="M100.20545989924277 260.07252747810867 C278.53430605207944 260.3066278849983, 456.62001483535005 260.32875318618835, 600.2412982591536 260.244404870606 M99.89355516457015 259.9468117584328 C200.8686203282051 260.56100317693443, 302.1882983999117 260.63452427634024, 599.9108755588983 260.1598414088428" stroke="#000000" stroke-width="0.8" fill="none"></path></g><g><path d="M159.14529904773585 230.10599212271313 C173.59984638203545 230.13333416930428, 187.87675052337332 232.42338916450993, 200.3490696176298 230.09325937622123 M159.7401932554312 232.42706784426778 C175.22632765533558 231.95790124342682, 189.2464318398747 231.42810620000324, 199.83912995320068 232.71194547564878 M200.42823229281254 233.48038735185864 C198.479619033641 238.12671490228163, 198.8929532739465 241.70667198016363, 201.39530079544832 250.2604071404549 M200.2043328155139 232.8288163971158 C200.08493003232363 238.99843897662788, 199.3520391934922 246.55015348323087, 199.00134416706808 252.95950271313637 M199.2463841908666 253.22406508164184 C191.1407464735071 253.4825551462558, 179.19133282666095 252.08278661934486, 160.15653147452034 253.87180759076085 M200.46591637636033 251.3659416452052 C188.23465561814447 251.9999596185365, 175.80882837084351 252.26217193709186, 160.84309669517654 252.6348677157222 M159.1409456669282 250.68591643696664 C160.59987517462318 244.79618500674977, 158.20667123422314 236.66960686363103, 161.73447035226627 233.03882561781612 M159.00623762635755 251.91055097177062 C160.79833183346614 246.35983820879736, 160.516348397795 239.26541481772924, 160.47549305673934 232.35836434138244" stroke="undefined" stroke-width="1.5" fill="none"></path></g><g><path d="M198.68248519595687 241.3564989397475 C204.65115431850322 242.57911907777452, 209.72562451747496 243.123422135092, 214.44249897421025 242.81467577736547 M200.35719982967217 241.53197538401966 C203.60667088482572 241.31403204811974, 206.16426217047734 242.39216473482784, 214.3882206506249 241.28652571115663" stroke="undefined" stroke-width="0.8" fill="none"></path></g><g><path d="M269.57762145995196 230.03571289144864 C278.23119826412045 232.51330864871315, 288.1472520661481 232.37329929785764, 309.4705926511578 233.5185041439577 M270.5407823189841 232.1714292376798 C284.36250980488205 231.45843132224516, 298.09428265505676 232.9699836123536, 310.13996424146427 231.94497350534428 M308.95761879381206 230.22503965143363 C310.46685798304503 235.4795944863173, 310.2676331378652 243.16852217340238, 311.3908521864293 251.2377518660893 M309.75403519981523 231.68249466921569 C309.2583356306699 237.55911621002457, 310.3487454078574 243.62514759716996, 310.08770750187296 252.81439192682302 M309.95809613417856 253.08327009911 C299.4133901923541 250.3543056456154, 285.9022450999125 250.6832725265994, 268.25173663845914 252.58871186955125 M310.1538822072414 251.0553154502395 C300.2793616007659 253.20332684961593, 288.7118730128343 252.54798956234154, 270.54979815446086 252.38508782946803 M269.1869547853707 251.92922049282947 C269.0529598503176 244.95240968512755, 268.1930964047255 237.26403919802218, 271.76815531495237 230.9900859744285 M270.5675962054563 251.59082895079095 C270.63414315027774 247.0327355801092, 270.7037956818953 244.74412490275807, 269.37637159904534 231.07900399876533" stroke="undefined" stroke-width="1.5" fill="none"></path></g><g><path d="M309.51001566462514 242.09515043993989 C316.1691360289071 242.73813835221955, 319.2902352221182 242.2497715409777, 324.5744607441454 241.26143245565595 M309.90576203169985 241.50303934289127 C313.7209367386363 242.50975346191123, 318.0267722721822 242.62330293844775, 324.2877913651331 241.8422892681991" stroke="undefined" stroke-width="0.8" fill="none"></path></g><g><path d="M379.90491250878415 233.88875198461827 C389.63674946697586 230.4479448831239, 395.2937605405614 232.71519703549782, 420.4302749680296 233.4367485974426 M379.67704126139193 232.83337612649146 C391.07109124804947 231.78296709551816, 402.7418174887082 232.66375762296363, 419.8647247280907 231.2860422295238 M418.89710615930215 230.6146837469707 C420.35244618691587 239.15316849433168, 421.2977784417434 244.35456960703493, 420.39050659852563 253.96467484900813 M420.2221846748315 231.05996448827003 C420.139729815853 237.93717690390503, 420.6223709696465 241.6464706835725, 419.400123110557 252.7632386068911 M421.77966186754185 253.01787713068077 C409.8668491842663 250.5189419130767, 403.77885584388304 250.1520352760537, 380.62704433773354 253.18393205879545 M419.46755122474315 252.71594653646557 C407.86864810824517 251.95388649215164, 394.2974297320606 251.9471375354179, 380.901653591041 252.20286183790637 M381.4987172317768 251.4211326008876 C381.5104177309299 244.35098589908867, 381.2396767124127 238.4471852653824, 381.8595134440565 231.9383057226341 M380.40578800793577 252.4175877741184 C380.6220829353023 247.42885251936372, 380.97875964004675 240.66059351607782, 380.5389401158894 231.3452173977157" stroke="undefined" stroke-width="1.5" fill="none"></path></g><g><path d="M420.6657168885129 240.9392250678808 C423.4615612620713 241.1240655108182, 427.11594054602284 243.34516583544976, 435.35148247563393 241.5790533309918 M420.00635946641506 241.4676066639404 C424.393813699526 242.65754296810863, 428.10119554827304 242.0437900489843, 434.39470525918375 242.01646533495682" stroke="undefined" stroke-width="0.8" fill="none"></path></g><g><path d="M489.1812104327976 231.06190400351403 C505.8024481708275 232.3105022245837, 521.8290996289713 231.47811864009762, 531.6073788605075 232.79597611104919 M489.71998844227795 231.97480289880747 C501.2928831917802 231.58169579347933, 511.59615954758016 231.88159317329954, 530.1192726048188 232.90095310724806 M528.7305865910666 233.87521999267935 C530.4716530071719 238.30423367532012, 531.4982922686225 240.18786224768698, 529.2500667162604 252.90082336955413 M529.6093144073265 232.25862628267288 C528.8492055832203 235.75584433615316, 529.9585532461155 241.0720854237398, 529.1692168972924 252.87559483044535 M528.5452772192591 250.33860543621014 C516.5041726713469 250.95693243713075, 497.5843010274969 250.95435603865013, 488.38000543133904 250.45289364703737 M529.7545691402264 252.10429728658585 C518.2664012997509 251.4062289277402, 504.2845505365326 252.50668590127026, 489.6328150880918 251.22529020299496 M491.94471410944794 251.35094572721306 C490.36594719373295 245.92257287598915, 489.59638178173606 243.55535624772932, 490.6550379849509 231.08915367063437 M490.21095947681243 251.52431076611643 C489.4550021557718 246.9940238569935, 489.25045546631833 241.36142642569234, 490.1762733390099 231.44761170107634" stroke="undefined" stroke-width="1.5" fill="none"></path></g><g><path d="M530.3944997364988 241.79668879570985 C532.9748499204932 241.6520897498593, 538.896285801434 242.73892027795583, 544.6023762422102 241.18322564163373 M529.5129646417909 241.25397478587516 C534.0387195741711 241.23226866329364, 539.671710194812 241.3300630129697, 545.3078802572803 241.66662742975407" stroke="undefined" stroke-width="0.8" fill="none"></path></g><g><path d="M420.54752270631286 268.2963778351139 C431.6826218187703 266.2910674395662, 447.2993091252931 267.26562490548827, 458.5925457324238 269.0518203064653 M420.88498161426054 267.6706438768782 C434.9920762809043 267.94929625856116, 450.9954404471701 267.1592932536116, 459.92532347957524 267.7980360503042 M460.3915511602563 267.59977861832215 C459.7727932584768 275.27192729205075, 460.9834497676543 282.1084825046327, 461.69485915461155 289.50493855540384 M459.83112478524123 267.75096504680215 C459.3706993724123 272.24256627088624, 460.6440420144954 277.13258954694015, 460.9686329023452 287.56392381240966 M461.4805208485689 289.3260830062888 C446.5949034353674 287.2885112445635, 434.854184488721 287.69278124675265, 419.2829802932183 287.23400472984633 M459.57786559284006 287.1873883464885 C448.99850014861585 287.0555265064084, 438.37844600580434 288.3140126806615, 419.66252621217785 288.1137858310185 M420.83162941787003 288.47797090817755 C420.1761241223147 278.15201941596797, 421.69420542645037 273.58914418320734, 418.30194017484814 268.7083023537983 M419.80750176435396 287.99235103468664 C420.08827223883907 279.8709881716708, 420.00786129728067 273.79444652393454, 420.4951332568015 268.1945943198589" stroke="undefined" stroke-width="2" fill="none"></path></g><g><path d="M419.58402885590374 278.912999993653 C414.52715960949445 276.98081855411726, 408.80155765799844 277.7448310156056, 404.8481791949562 277.67095424512144 M420.41426998427016 278.3674342052553 C416.4439358999151 277.723695769336, 412.9008213902768 278.4140379566261, 404.3729920480439 277.852166149901" stroke="undefined" stroke-width="0.8" fill="none"></path></g><g><path d="M179.3404711726203 350.16588861974094 C192.70608603772874 349.85207264040355, 203.5842835660464 349.4787286477867, 211.62372614575696 349.7031727346502 M179.71062145286504 350.0828444304292 C187.3063874973646 350.07267643015, 194.98912419955494 350.2059376205778, 211.62566994589707 350.2091446315828 M212.5220372897931 350.74199337155534 C212.6546793690403 357.94920124532604, 211.62933944348353 367.6205910545716, 212.54059043076302 377.37800261926793 M212.30474654735352 350.195570692657 C211.8953754136338 358.60503332916477, 211.87240292731195 368.0818320604797, 211.7460598411313 378.02207864019425 M212.50957379124912 378.3888211951249 C199.7604767853642 378.12268227728356, 186.4613459739505 377.7396426317585, 180.42684401617916 377.3090224009959 M211.79074791932155 378.1623286122065 C200.020699366689 377.54716834835415, 188.54548132082618 377.97331125367293, 179.8399977530049 378.3796124222765 M179.62417003595294 377.98348773122603 C179.53994674439426 369.9508113561271, 179.9982414067731 363.0374483815326, 180.5914323141568 350.23133932142105 M180.01624286627438 378.1829155217633 C179.64493433223214 367.56784495557906, 179.83349227367063 357.69933225059975, 180.20234017451216 350.0400739852488" stroke="#000000" stroke-width="1.2" fill="none"></path></g><g><path d="M220.39531563694123 349.63104780749995 C232.57273899645264 350.6016567735682, 245.52659346715515 350.2292655452498, 251.46520733132087 349.472161431175 M220.04564884182827 350.0505923377804 C230.62162867009158 349.814715567193, 241.000885165515 349.5377868000378, 252.1558328795936 349.76059739322966 M251.67159767227216 349.2140691777259 C251.12924826720746 355.74502222024864, 251.52909493692405 362.56653368189336, 252.58603820283835 377.9418184799929 M252.23062087907954 349.9974383388313 C251.92539162713558 360.6448759567988, 252.03513073399833 371.3732893966498, 251.69503764271573 378.2153757720535 M252.0035600974907 378.6889135446381 C244.6730108887503 377.7170526912649, 236.45570694842286 377.9669928116778, 219.2765027789246 378.401252956492 M252.06861520049458 377.8797796122678 C244.7137252230399 377.9173450814903, 237.15333598317173 377.6378107650389, 219.8244753708868 378.16642566606146 M220.66184295425703 378.4210173324792 C220.62313197979404 371.632037915968, 220.15272295383204 364.9258515246257, 220.68741244781722 349.26114818953505 M219.91353701281284 378.360616895536 C220.37679916716442 367.5857099194107, 219.67630571465685 357.1757828110962, 220.1669811393145 349.8238969543449" stroke="#000000" stroke-width="1.2" fill="none"></path></g><g><path d="M260.3926997022348 350.50645243295605 C270.6828688724773 349.9882666455891, 280.3453104007652 349.4953236201109, 292.5828602523104 350.55153528591586 M259.72137734160015 350.32635000042774 C266.6658479039843 350.1767117576296, 273.71504584764347 349.7129923426396, 291.6844265926981 349.91204248028623 M292.2707791256367 349.88526363896443 C291.7833338386426 359.564585411657, 291.3224877279203 368.32247361957286, 292.1912719321397 378.78372839612973 M292.3721070767893 350.0017534786401 C291.98512348136734 356.79412908804863, 291.9714215564056 363.14663399820245, 292.2487952739677 378.1111815984269 M292.7741890922933 378.5386330996811 C279.607169425236 378.05184100986935, 267.71082441606376 378.29448039603767, 259.2088138865579 377.31125742297144 M292.12329043434914 377.7176087693726 C284.3249236872304 378.04188976077825, 276.4730301995568 378.06869087976446, 259.9618924970723 377.67944628762297 M260.6142734062505 378.0572316811995 C260.1962177161822 371.02868678070257, 259.6648107690748 365.65768740663736, 260.3387558608448 350.45812677920003 M260.0899157790026 377.692273947963 C260.0142226717062 371.92626435396505, 260.24811028969356 365.9810627347373, 260.2351933463829 349.9954551893916" stroke="#000000" stroke-width="1.2" fill="none"></path></g><g><path d="M299.69084942115893 349.5275891686678 C309.41349732129623 350.55311303084665, 320.25222028355535 349.8864087933908, 332.68197848196985 350.68963193530294 M300.03329319870295 349.82086949861076 C308.2164706330361 349.8723959375154, 316.49920708948804 350.2752976496626, 332.1124722898633 350.3243615290608 M331.257184154254 350.2993325464905 C331.93691935088407 356.6571036409997, 332.1067928729073 362.64449640036764, 332.27560185484396 377.40218319669754 M332.27242256470356 350.1122674324037 C332.1459485272205 360.20206841592017, 332.26176714025274 371.047770300316, 332.0166754518855 377.633583315692 M332.22110314463885 377.6934511396206 C322.99396480284247 378.537813166648, 313.983743651302 378.67826312956294, 299.34176514263686 378.0369105680256 M332.1990681544502 378.21533429370186 C321.25813327147665 377.8738114030867, 310.21500391158565 377.810002485645, 300.06080962066454 377.6994971506774 M299.9222211389123 377.5758838763601 C300.74575791712755 367.61704331396254, 299.7366649811977 356.91300185047413, 299.2881442299902 350.53808633380413 M300.02264816396314 378.2083354151663 C299.7591968826811 370.23749564139536, 299.8542673728419 361.6294261390698, 300.230209164059 349.9659652651945" stroke="#000000" stroke-width="1.2" fill="none"></path></g><g><path d="M339.64303097923215 349.9550096913984 C347.45762782414033 350.5734363533813, 353.699515803704 349.7890648415112, 372.28416343674036 350.30073853988745 M339.8079376487721 350.21248186640616 C347.0100650182216 349.97555164711275, 354.0265246373304 350.4146953951602, 372.0889202470876 349.6496989634394 M371.6778329188503 349.7618755510511 C371.6952522235783 358.80506043940613, 371.32319354796203 366.9939854524096, 371.6135037941733 378.66146784800605 M372.25390620212386 349.69520414793857 C371.97107948455493 359.86091528989067, 372.2412258810063 369.07411991199035, 372.3360878531025 378.28492697169884 M371.3141344267841 378.2602049187174 C365.09053976214994 377.3268224441196, 357.8501877283247 377.17539558281504, 339.69651528623865 377.7971869304831 M371.638888777388 377.70923521792906 C364.49347097576737 378.07964371392137, 356.57522884367404 377.9933061416883, 339.79105537455314 377.77238126905695 M340.12638450962703 378.37667698369467 C339.7915068132667 366.75424781891604, 339.29121844210675 357.3840273701787, 339.6850695599423 350.04070696470893 M339.7665288204593 378.360003781509 C339.73065187301194 371.41844901473434, 340.4914194741646 364.40699382269094, 340.28062434321413 350.00346832544454" stroke="#000000" stroke-width="1.2" fill="none"></path></g><g><path d="M380.060572823608 349.85118773038863 C390.856363159964 350.0546380012835, 401.50549893072616 350.53534813897886, 412.17000979753647 349.88125402556 M379.6748353008232 350.25887212051515 C387.9543946293908 350.06936356190624, 395.580711308225 349.6899792519973, 412.376392987437 350.33377895248753 M412.4494056792078 349.839180965891 C411.5354107195906 357.7266575020705, 411.3003981784129 366.43402821945614, 412.10412958274617 378.59594494677475 M411.61292007719334 349.6261655221536 C412.14455854246654 357.604632813055, 411.5752030564516 366.06336891790687, 412.3534648190851 378.336682996103 M411.8548327599799 378.78130613723926 C401.86267670826084 378.79575831757666, 390.64163637536353 378.751288362803, 379.40653280513004 378.28218451296607 M412.04158646580146 377.6729092833442 C401.22435234557065 378.0698333088702, 389.86387875530744 377.546691964295, 380.28367347634537 378.1643473977674 M379.26005310944953 377.3703753905843 C380.0877189662593 370.5421694076535, 379.70377872051586 363.61794959867393, 380.38527852798194 349.2683758844382 M380.30048339016577 378.229568346265 C380.2056400495022 371.4515933437847, 380.05945582266116 365.0337314851529, 380.01751506964507 349.7157486216679" stroke="#000000" stroke-width="1.2" fill="none"></path></g><g><path d="M536.4567966102893 174.62184102819913 C542.7633354202303 176.5667933123645, 548.5301871056092 174.97404623491394, 562.925889621626 174.30902145551704 M538.0237502348015 174.4414665534528 C547.6883725771537 174.6610443275576, 556.7186726619524 174.4145168107112, 562.2085048547715 174.75832988163063 M560.351561026699 175.1440398195847 C560.9545607114342 181.20781623308827, 562.8820493212323 187.2990529073036, 562.6478421023652 195.7493437820698 M562.7898695298184 175.96048490987764 C561.5906046720077 180.53896606877117, 562.6574878992352 185.9764403975343, 562.6267802532675 195.67132818433714 M560.7435243845829 194.4071637549314 C557.5037091142178 194.52517494505287, 552.156124685697 194.3583987932782, 537.3484627065872 196.30402369998373 M562.0537218343238 195.72996585844 C554.0084638589385 195.73542761227066, 545.4765191820533 194.9130014927961, 537.4047891004705 194.21556741572311 M538.7905255980645 195.75744687622895 C536.9809378728231 188.17374910668843, 538.8610114613033 181.09838187284984, 539.0146057125515 176.87108295036774 M537.3889444184292 194.15243585739603 C537.2915888448857 189.65921706812924, 537.5854214205954 185.26328668794824, 537.6055094568416 175.50832539197435" stroke="#000000" stroke-width="1.8" fill="none"></path></g><g><path d="M541.4225133078162 175.9451540970455 C542.5760363541082 171.74664432653807, 541.2016587918653 167.8718155773876, 541.4827853950811 162.17966381371215 M541.7940404866926 175.0699134576028 C541.5220435755941 171.67130859172747, 541.4577023678253 169.20966556669043, 541.5774684547983 162.81483330486324" stroke="#000000" stroke-width="1.5" fill="none"></path></g><g><path d="M559.1638821029757 175.90514467315722 C558.0469183768961 171.90229007562712, 556.7272136451588 168.58979456534914, 558.5717652771855 162.59847391656777 M557.7491474853825 174.58243926177974 C558.4476247202947 171.61013578787993, 558.3561258926111 168.241680354044, 558.2919043129963 163.46332646928118" stroke="#000000" stroke-width="1.5" fill="none"></path></g><g><path d="M542.866611242488 161.60160444495267 C547.6307013131262 162.36307782956905, 552.9296914425082 163.83756643304372, 556.9641984840324 162.43804929260946 M542.4194579373112 163.39761208701148 C545.6903891460079 162.84023706981208, 548.8576569653478 163.71396810778577, 557.9972032919493 162.37590874156788" stroke="#000000" stroke-width="1.5" fill="none"></path></g><g><path d="M129.4119621064455 159.3511633710615 C143.1808275124927 159.63518372704556, 152.97334401242858 159.8298852675923, 178.13776025641528 160.6418099025172 M129.79422429439404 159.97142055943618 C146.27831363358618 161.23748992155402, 164.58655861524585 160.85863614416303, 180.9501186015614 160.37539944503118 M179.3735245583992 161.27384064908708 C181.118676447132 172.46115963513142, 181.18602266023282 182.3371528823948, 178.69059961777364 190.69566167771097 M179.5209121137881 160.56040544029185 C179.8611690762241 167.41628330592937, 180.4863770488484 172.6005216025724, 180.12367224904168 190.49195586150537 M178.59858505000253 189.6935217132534 C163.42291387474256 190.04301615895972, 147.03787313543572 189.95147982563464, 131.07154314973891 190.15216951218207 M179.77134426173478 190.73335185969046 C163.94471168193712 190.51426950786532, 147.70633955809734 191.11294325283936, 130.78389950388598 190.55657771148688 M128.21721300877746 188.749228881593 C128.40414237630537 182.1445950604858, 128.17852531345892 170.9582203630675, 128.38789348400164 159.0439841372951 M130.99009322682616 190.0298752005904 C129.3439394072161 181.01563018966223, 129.2306631734694 172.59538233830492, 130.77063650888627 160.41607470385202" stroke="#000000" stroke-width="1.2" fill="none"></path></g><g><path d="M146.7030829489172 158.08574879258748 C147.99167516693365 169.38929086202506, 148.7439287085744 177.04244870646423, 146.96612638455974 191.0210885665606 M148.34368214078722 159.61197901275094 C148.67470717225302 171.8834574652022, 147.85855480759102 181.4547428261139, 147.97495073072494 189.80552482371755" stroke="undefined" stroke-width="2" fill="none"></path></g><g><path d="M131.52529520465202 173.8536348365587 C147.32539306329315 174.52843901875255, 166.0019337957816 173.0122626737138, 180.50581214151893 175.5530692057123 M130.52527655387192 175.05310824398126 C142.38613942352774 175.01694718363052, 154.9735743443161 175.1865653311644, 179.33114760701963 175.5957598813781" stroke="undefined" stroke-width="2" fill="none"></path></g><g><path d="M350.4174575530188 169.9689661411028 C355.2258716874707 168.50606233004876, 365.61057117626183 170.22707608481255, 379.9193171016127 168.4634002583974 M349.0118745551037 169.2487851561379 C357.59167964307255 169.62576356183007, 362.6190311640876 170.7947687166874, 380.9109447788849 170.58588893383182" stroke="undefined" stroke-width="1.5" fill="none"></path></g><g><path d="M379.312045826151 170.98901502106713 C381.04962159879585 177.92779106955052, 380.6968993344464 188.36355789353183, 379.16629575975986 200.6858308951842 M379.3109113018261 169.9708715538253 C381.05277532463737 180.12760561356095, 380.2625026214853 191.42489525073367, 380.9373780275827 199.77295650352124" stroke="undefined" stroke-width="1.5" fill="none"></path></g><g><path d="M375.11013121872315 194.39384318580915 C377.5056199038962 196.9189824894803, 378.4993539297034 198.39016705806606, 380.18659177712703 200.67928348162465 M374.78532354940484 195.2042744220878 C376.04095037924196 196.4137844852777, 377.450126608279 197.19954135515948, 379.8397926243224 200.27354248827226" stroke="undefined" stroke-width="1.2" fill="none"></path></g><g><path d="M385.6345124281199 194.79975222445495 C383.76207538116165 196.81581023075066, 382.62922699265465 197.22546809745774, 379.4028540984104 200.44465345491045 M384.68818863636193 194.78554465052883 C383.08188811559745 196.60530409338864, 381.3465933394459 198.4309842777585, 380.2452334261355 199.72242355099206" stroke="undefined" stroke-width="1.2" fill="none"></path></g><text x="400" y="560" text-anchor="middle" font-family="sans-serif" font-size="16" fill="#222" font-style="italic">Don't confuse established with optimal.</text></svg>