<?xml version="1.0" encoding="UTF-8"?>
<svg width="800" height="600" viewBox="0 0 800 600" xmlns="http://www.w3.org/2000/svg"><rect width="800" height="600" fill="#FFFFFF"></rect><g><path d="M165.58536122760592 240.66710700613027 C165.58536122760592 240.66710700613027, 165.58536122760592 240.66710700613027, 165.58536122760592 240.66710700613027 M165.58536122760592 240.66710700613027 C165.58536122760592 240.66710700613027, 165.58536122760592 240.66710700613027, 165.58536122760592 240.66710700613027 M157.11254473396988 264.68696518532363 C160.12922780852352 258.8892587260704, 166.1801606964926 253.5183277826222, 180.55374494031423 236.41507980893712 M157.1159670375935 263.7233341426579 C163.40594485432982 254.37285826011484, 171.7919175810229 246.58513041855008, 180.05772252457803 236.31065985710154 M159.03711140289894 273.97091156225525 C166.50754160580416 264.37556680388116, 171.13282649337523 255.54864936521474, 187.37200043566338 239.64041183463058 M158.375254230753 271.60794177164155 C166.58727693765144 263.43502676095204, 174.05170027231773 256.82992285070645, 188.14031998635278 239.3129985088554 M164.8732215988208 276.7152506105402 C177.35059747973116 264.6115903012271, 186.40091778666346 253.9350309185794, 197.98531209657313 241.30368892596238 M166.21548709036372 276.9381674340077 C175.17715435484888 265.2796254420724, 185.312060516445 253.74083962923544, 196.2655065093753 241.76094323686698 M171.22406448835625 281.5608210857175 C183.85771696857896 270.4389324581242, 193.93707059698545 255.50686113137144, 201.06177204440903 247.671837848934 M171.49507318587285 282.09789495319774 C181.80829939951713 271.9962847801215, 189.97176738520827 261.12488779439985, 200.15690544389273 248.91518034033453 M179.64528355685124 283.2767194771261 C189.69317491835835 275.7799628425827, 197.3814566128029 265.5212316058938, 202.96968036397212 257.3622968132498 M181.9290344216702 284.0975434135887 C187.59846718432297 276.2665134220197, 193.2021987545918 269.20535439713245, 205.2646330574135 257.79880581358" stroke="none" stroke-width="1" fill="none"></path><path d="M183.09427469595838 235.52348244591587 C188.37994921836818 235.67883724282552, 195.09669673500343 239.93264403585374, 198.7430705438639 243.7890572141341 C202.38944435272435 247.64547039241444, 204.81863403947898 253.6096583991543, 204.97251754912108 258.66196151559797 C205.12640105876318 263.71426463204165, 203.039629560889 269.95780602118907, 199.66637160171652 274.10287591279604 C196.29311364254403 278.247945804403, 189.85889147005446 282.3560745803868, 184.73296979408605 283.53238086523976 C179.60704811811763 284.7086871500927, 173.51987688082875 283.42187460231725, 168.910841545906 281.16071362191394 C164.30180621098327 278.89955264151064, 159.22070910799903 274.6377599223907, 157.07875778454957 269.96541498282005 C154.9368064611001 265.2930700432494, 154.65647738574577 257.99231207272595, 156.05913360520918 253.12664398448982 C157.4617898246726 248.26097589625368, 160.47097821032762 243.51214156332978, 165.49469510133 240.77140645340316 C170.51841199233237 238.03067134347654, 182.53629691664702 237.01646600301143, 186.20143495122352 236.6822333249301 C189.86657298580002 236.3480006468488, 187.6147290628249 238.47494054209068, 187.48552330878894 238.76601038491526 M178.43291478557202 235.69287758793217 C183.70485452253277 235.13135187907562, 191.14896276162506 236.54161290149744, 195.5447543174154 239.80101733327703 C199.94054587320574 243.06042176505662, 203.56579104555271 250.25339849658604, 204.8076641203141 255.2493041786097 C206.04953719507546 260.24520986063334, 205.35912498302898 265.26882322285445, 202.9959927659837 269.7764514254188 C200.6328605489384 274.2840796279832, 195.89608914885466 280.0002736753243, 190.62887081804234 282.29507339399584 C185.36165248723003 284.58987311266736, 176.87670587852716 285.0521334801542, 171.39268278110978 283.5452497374481 C165.9086596836924 282.038365994742, 160.28083809989627 277.4649774833285, 157.7247322335381 273.2537709377592 C155.16862636717994 269.04256439218995, 155.08870014979442 263.39836705161923, 156.05604758296076 258.2780104640326 C157.0233950161271 253.15765387644598, 159.77033039036033 245.97215551545005, 163.52881683253605 242.5316314122394 C167.28730327471177 239.09110730902873, 176.06034918655945 238.63627896794574, 178.6069662360151 237.63486584476868 C181.15358328547075 236.63345272159162, 178.79573711297834 236.25782281264983, 178.80851912926988 236.5231526731771" stroke="#000000" stroke-width="2" fill="none"></path></g><g><path d="M179.73911955632582 208.1502684112081 C181.5745354835201 232.7956674949006, 179.12304127922715 252.98559579995873, 181.8933580674653 310.8692331067083 M179.03168970952902 209.20544445362637 C180.20281320593614 234.43916120747582, 180.3434444406009 257.5679317866534, 180.81243498620714 309.0555071672702" stroke="#000000" stroke-width="1" fill="none"></path></g><g><path d="M129.79852991004736 260.53226783294116 C153.8857416992196 261.75341837028566, 177.55077529239634 258.5226970942771, 230.68445557435248 258.95386150217564 M130.0855763926372 260.0559217889162 C157.9254484437112 261.3170120991961, 184.06547187944037 261.8164759212778, 229.0723353804916 260.1971472577075" stroke="#000000" stroke-width="1" fill="none"></path></g><g><path d="M99.40733019111205 238.7471810147297 C105.35339732078205 241.9691832336408, 111.4924214682303 244.63362702657565, 131.99675370080053 251.86957710079423 M100.39749902374417 239.0057943399577 C109.40011732491527 242.08806941142163, 118.90738991539462 245.7774847572768, 130.35795281973836 250.4244410542515" stroke="#CC3333" stroke-width="2" fill="none"></path></g><g><path d="M259.9595017896553 278.27981933550484 C249.78671319018963 275.6782290094826, 239.12291698999968 274.47448614963525, 229.15727046713764 269.43807606251346 M260.90655275886803 279.59258755951765 C249.46721874548447 276.42641405444505, 239.0526582511607 273.6509322142387, 229.2230675359305 269.96850641978455" stroke="#CC3333" stroke-width="2" fill="none"></path></g><g><path d="M492.3007071917144 246.42369569051965 C492.3007071917144 246.42369569051965, 492.3007071917144 246.42369569051965, 492.3007071917144 246.42369569051965 M492.3007071917144 246.42369569051965 C492.3007071917144 246.42369569051965, 492.3007071917144 246.42369569051965, 492.3007071917144 246.42369569051965 M489.8349683512003 257.77512972197 C491.42415802620263 253.46358331144424, 497.74883792464436 249.44484429883053, 500.86936643188585 243.55750948748755 M488.3063431677971 258.2509395783761 C490.6385937129568 254.7275622977562, 493.58511437048867 252.6641357642607, 500.2710350498804 245.27054535247348 M485.4872517292491 268.738282265531 C492.563192689809 260.71214041153644, 501.34122394438185 252.3234772564943, 504.7077366659385 248.73264499771588 M488.0258642954399 266.54286441197075 C493.36840210975345 260.4200469809664, 501.2007155623765 251.4637963906306, 504.4283041441797 247.0226812203017 M491.7145170817147 268.7378704218667 C496.48445435550065 263.89022112433037, 502.6437294101357 258.8487005477956, 509.73686598797383 247.76266495152805 M491.74119375089657 271.2293658195207 C495.88207084825564 265.3957994864322, 500.6170854499128 258.2373054632838, 509.04022865965726 249.72728076309113 M494.10875737763 272.6919334742569 C500.5735569341936 267.61697846826104, 502.39234750676883 264.1218884716931, 514.6157342725758 252.4312300554437 M494.0950112738239 274.8760237859033 C498.75291006688826 270.4418829762363, 502.53321332155724 265.65366746501576, 513.0110987415599 252.27597507788835 M502.3508269226326 276.77719445443915 C505.7750975853153 271.4544188802671, 506.0519465380669 267.4016985778578, 516.5793316283103 258.86323336228804 M501.3435625226796 274.7239838800165 C505.10993930804744 269.0255293558506, 510.8667719205617 262.5856651264709, 514.9074574932537 257.7163002919573" stroke="none" stroke-width="0.6" fill="none"></path><path d="M501.70626352138896 244.93681619949265 C504.7260733532166 245.12488291671622, 508.9793482281017 246.8748441926177, 511.0685217204072 249.33749495980524 C513.1576952127127 251.80014572699278, 514.1465262682058 256.5923533327114, 514.2413044752219 259.7127208026179 C514.336082682238 262.83308827252444, 513.5397890813659 265.55887359584506, 511.63719096250423 268.05969977924417 C509.73459284364253 270.5605259626433, 505.80756581417506 273.6651856164873, 502.8257157620515 274.7176779030126 C499.84386570992797 275.7701701895379, 496.35765326934205 275.7141185351273, 493.7460906497631 274.3746534983961 C491.1345280301842 273.035188461665, 488.6043476067035 269.86353870572924, 487.156340044578 266.6808876826258 C485.7083324824524 263.4982366595223, 484.24023528603004 258.6094092283236, 485.0580452770096 255.27874735977522 C485.8758552679892 251.94808549122683, 488.48314212786295 248.14404422826837, 492.06319999045564 246.69691647133538 C495.64325785304834 245.2497887144024, 503.8134290297881 246.19964944801052, 506.538392452566 246.59598081817728 C509.26335587534385 246.99231218834404, 508.55450601055884 248.8382193843993, 508.4129805271228 249.0749046923359 M498.66960463066977 243.0626130268539 C501.52122041977856 242.37751570943405, 504.39018447798287 244.07995384609086, 507.2262361990102 245.94851693939427 C510.06228792003753 247.81708003269767, 514.4690337392842 250.761844801137, 515.6859149568336 254.27399158667427 C516.902796174383 257.78613837221155, 515.978453785169 263.80936953919235, 514.5275235043063 267.02139765261796 C513.0765932234435 270.2334257660436, 509.7420187401039 272.2054361407698, 506.980333271657 273.54616026722806 C504.2186478032101 274.88688439368633, 501.0048053103345 275.67065239021684, 497.957410693625 275.06574241136764 C494.91001607691544 274.46083243251843, 490.9302472899143 272.5860437682574, 488.69596557139965 269.9167003941329 C486.461683852885 267.24735702000834, 484.4417970852403 262.4628258174776, 484.5517203825371 259.0496821666205 C484.6616436798339 255.63653851576348, 486.9172691021971 251.95925479537797, 489.35550535518064 249.43783848899054 C491.79374160816417 246.9164221826031, 497.82551239548786 244.77732295812575, 499.1811379004384 243.9211843282959 C500.5367634053889 243.06504569846607, 497.6938464675722 244.11142701895395, 497.48925838488367 244.30100671001148" stroke="#4A90D9" stroke-width="1.2" fill="none"></path></g><g><path d="M479.18652776733194 246.94883037970084 C479.18652776733194 246.94883037970084, 479.18652776733194 246.94883037970084, 479.18652776733194 246.94883037970084 M479.18652776733194 246.94883037970084 C479.18652776733194 246.94883037970084, 479.18652776733194 246.94883037970084, 479.18652776733194 246.94883037970084 M476.67898818548997 257.5412579841578 C480.7310098898343 250.36210839382986, 489.5655330685662 245.54582160863802, 496.5175357396586 236.0851454446838 M477.1253917251821 259.34014805393304 C482.71327549791357 252.43000243490476, 486.42377722387005 248.00573686956142, 496.94442868931685 236.67689919454608 M479.0901820906686 266.95445014357307 C487.1096511915178 257.40467249937046, 497.27573865260007 244.2528982107432, 505.1192235188842 238.16630943763855 M478.63060162112544 266.8342721077279 C485.49504626967337 257.3145225093829, 494.82950260612796 248.82741275770212, 502.39955532934096 237.8313349229011 M479.0293614420325 273.0597729839078 C487.9293967986034 263.16661267908984, 499.25846614012255 252.80702077170673, 508.9245516661696 240.75333958714504 M481.5197004918908 272.51352466340126 C488.18306468636024 263.8311412390744, 497.03049096988985 253.9713322104069, 510.2832706095594 238.3681274266447 M484.76243262344985 276.92580465321623 C495.04577759750777 268.45868858808257, 503.3911520088052 256.976939355519, 515.8615720048437 243.00101539719032 M484.03119514770725 277.78924253045034 C494.0619985477236 265.1334441046006, 506.6683069317266 252.0927831863981, 514.7144943127361 242.27185078812423 M489.84609881846757 280.8176321613122 C497.887113750641 272.63888610854355, 502.8190247817046 265.2465757721109, 520.8656154263458 244.74988218551636 M489.4886309310865 282.0556571375251 C497.5535013478687 271.1607883003048, 506.6123550148731 261.51989749419084, 519.8066186980712 245.49818163519106 M494.0699190557551 282.7120017135388 C504.5338139057659 275.30906800339676, 509.3218173506866 266.26207678085996, 523.1283214655615 252.0847708123666 M496.18078124332317 283.64986226183106 C504.9427219295148 272.7564487016644, 513.5736928686101 262.19818401484673, 523.0257705413957 252.72971977144928 M501.550908101423 282.94492200518425 C511.4199613987965 273.79381690917234, 519.2294925587387 267.1961122642711, 524.5134340964707 261.4576838288728 M503.6204812934111 284.30037164376034 C508.78691222200945 275.3372643219031, 515.922454078273 268.4080598922115, 522.7813927352904 260.658794130243 M513.9404380047167 279.7954784233659 C514.5506639180757 278.8813166316765, 515.9094415982873 278.378111597741, 517.820636978708 276.33872545945337 M514.1309776899453 280.06058633216134 C514.9759679349763 279.04318991436725, 515.9205465994891 277.65372849913746, 517.2622555077546 276.16389433737623" stroke="none" stroke-width="0.7" fill="none"></path><path d="M491.6744955069648 235.78450457974535 C496.2668389591405 233.81033072004433, 503.17035835553116 234.90378127226927, 508.0879505394406 236.98965414010036 C513.0055427233501 239.07552700793144, 518.5887053260176 243.63212671592183, 521.1800486104215 248.2997417867319 C523.7713918948255 252.96735685754194, 524.6934205033353 259.8271192841214, 523.6360102458641 264.99534456496065 C522.5785999883929 270.1635698457999, 518.9148502956531 276.0790884820126, 514.8355870655944 279.3090934717672 C510.7563238355357 282.5390984615218, 504.43182625384736 284.41948180890364, 499.160430865512 284.37537450348844 C493.88903547717666 284.33126719807325, 487.0492034559065 282.5877240366493, 483.2072147355824 279.0444496392759 C479.3652260152583 275.5011752419025, 476.79799013237573 268.44270719896764, 476.1084985435674 263.11572811924805 C475.4190069547591 257.78874903952845, 476.0471315555304 251.77709177715258, 479.0702652027326 247.08257516095838 C482.09339884993483 242.3880585447642, 491.42273835780134 236.76896038062836, 494.24730042678067 234.9486284220828 C497.07186249576 233.12829646353725, 495.85351160858727 235.68023015610905, 496.01763761660857 236.16058340968513 M507.02109465433455 235.80330505495644 C511.90452018882405 236.6247712978592, 516.5632862993604 239.29541043345895, 519.6176958369008 243.76356922343 C522.6721053744412 248.23172801340107, 525.5390632631058 257.12947134118065, 525.3475518795773 262.6122577947828 C525.1560404960487 268.09504424838497, 522.0386340090256 272.73890722546815, 518.4686275357292 276.66028794504297 C514.8986210624328 280.5816686646178, 509.4661610042781 285.3522467122163, 503.92751303979844 286.14054211223174 C498.3888650753188 286.9288375122472, 489.72856366183834 284.7017302512412, 485.2367397488511 281.39006034513557 C480.7449158358639 278.07839043902993, 478.2594417278146 271.6273930966747, 476.976569561875 266.27052267559776 C475.69369739593543 260.9136522545208, 475.395905810253 254.01509456980756, 477.53950675321374 249.2488378186738 C479.6831076961745 244.48258106754002, 485.11311405634217 240.17283766065248, 489.8381752196395 237.6729821687951 C494.5632363829368 235.17312667693773, 503.04281162472853 234.6838183912111, 505.8898737329976 234.24970486752946 C508.7369358412667 233.8155913438478, 507.1460728497534 234.2196456020946, 506.9205478692538 235.0683010267052" stroke="#4A90D9" stroke-width="1.4" fill="none"></path></g><g><path d="M475.86830603636304 236.11426627574306 C475.86830603636304 236.11426627574306, 475.86830603636304 236.11426627574306, 475.86830603636304 236.11426627574306 M475.86830603636304 236.11426627574306 C475.86830603636304 236.11426627574306, 475.86830603636304 236.11426627574306, 475.86830603636304 236.11426627574306 M467.31569064609084 256.51896283802233 C476.00199773002396 247.0109514314217, 482.1860409929354 234.7976476363886, 487.9060744762017 229.26926299967366 M467.5757926579352 255.4394625751489 C470.72452352439933 250.76809490205213, 475.90306838607427 244.19640122942457, 489.7935536956113 229.86126217657812 M467.57325454895863 264.143646838624 C476.14093516718395 255.72426874328104, 482.26216696563455 247.47202684432366, 499.536436353317 226.01478117601349 M466.2262342978221 263.41843737547924 C477.49257545198526 252.40266613844065, 488.5500804005688 239.63943471877457, 500.35464147825525 227.13448429838007 M469.7402396464065 271.1941496778553 C475.1722608418725 263.0600216226638, 484.49310518042455 254.81858321240443, 505.0414370759383 228.0179242270316 M468.24545876933684 272.6564838272903 C479.0824809629184 258.3247611702776, 490.5520658485868 245.8812707726013, 505.57981091993497 228.65506836217864 M472.2981858012208 276.33429682108584 C485.5116147170297 259.74648588746373, 501.86558249417067 240.5738005072384, 514.2396586348756 227.68235144160963 M470.8197298936292 278.05924418352 C487.0989031898073 259.2411768289697, 503.41046521226065 239.86423682319318, 513.4884748763135 229.5816540009161 M474.53057884521843 283.3300036088387 C484.0259859657913 270.96438641212023, 493.1237578799235 260.7253795108258, 516.921347423567 234.35128912367563 M474.60401057910315 282.3421296581366 C488.55331198094433 268.325830043947, 500.50948577210613 254.05286313013073, 519.2194461599712 233.39941567387 M478.6393425314272 284.4353252918496 C495.70270758838154 268.5628996183241, 508.3762428184546 250.91442308008237, 524.8707749791832 236.4932593870555 M480.8498412860919 285.22066648796294 C489.8615456760793 274.08530929513876, 501.1552580421889 261.8553461804806, 522.8488705727168 235.89477167852175 M486.4693075829635 290.00172292971797 C497.32328717841847 274.3962159259494, 510.9576857497308 260.78848248269736, 528.5615026453015 242.36317272295733 M484.76370488689406 290.23210822878997 C500.268237811745 272.3751291868701, 514.9137518091428 256.1796286128244, 528.2057533944701 241.71109439847768 M491.93868918916974 291.71961395110213 C506.9191003631519 273.58599258299597, 520.1448613263399 257.88666632926413, 529.1957322812294 245.6630005055414 M491.5725629890738 291.0999814014033 C499.17002044898754 280.944294107537, 509.56557354970244 271.4717945409927, 530.7995834305239 245.6338291240577 M498.17944957767793 294.4270749347516 C507.07326674081736 279.6013166110034, 519.3016324618314 270.168224869569, 533.9881881443412 252.509495611825 M497.9351663410919 292.2487752615035 C507.39134279313265 282.6988937902427, 515.4759670070716 271.76370386280604, 534.0102299029425 253.28459475276236 M503.47515891454253 294.30795267697613 C512.5935380802892 283.2607084898729, 519.1028367965896 278.89387003118, 532.8611543438898 261.6900747091806 M504.5536468333114 292.61174287791187 C514.3469893398715 282.03994928685006, 525.0130782005768 271.14777068675977, 533.6751739234996 260.6802301762044 M519.097289436866 289.95534687909833 C522.6876244539764 283.47872230665513, 524.9648766407429 276.65202879457, 531.2641399353437 274.8910575916385 M517.582215171276 289.9019624562516 C520.8427872757966 286.2878004037026, 524.0881345829878 281.2479620777488, 530.0094803727808 272.76067093355255" stroke="none" stroke-width="0.8" fill="none"></path><path d="M495.0245284342202 226.8251207294013 C501.5059678710199 225.3180668392194, 510.32691285392036 226.06451241919893, 516.334505906831 229.13235615055657 C522.3420989597417 232.20019988191422, 527.9276881109363 239.1889594029831, 531.0700867516844 245.23218311754718 C534.2124853924324 251.27540683211126, 536.2257013348441 258.8104649561024, 535.1888977513197 265.39169843794105 C534.1520941677953 271.9729319197797, 529.7758764494537 280.009461520293, 524.8492652505382 284.719584008579 C519.9226540516228 289.429706496865, 512.6010829359928 292.8768598039595, 505.6292305578268 293.65243336765707 C498.65737817966084 294.4280069313546, 489.2290672411127 292.5934043123407, 483.0181509815423 289.3730253907644 C476.8072347219719 286.1526464691881, 471.1649732462605 280.3781607790972, 468.36373300040424 274.3301598381991 C465.562492754548 268.28215889730103, 464.91571056709677 259.50522391790815, 466.2107095064046 253.085019745376 C467.50570844571246 246.66481557284385, 471.0853127912357 240.28580955750908, 476.1337266362512 235.80893480300617 C481.1821404812667 231.33206004850325, 492.6610512281248 227.59852704598697, 496.5011925764976 226.22377121835854 C500.3413339248704 224.8490153907301, 499.17157921636453 226.8630763311576, 499.17457472648806 227.56039983723554 M490.15333923502527 225.78556178990175 C496.7996840609791 223.89985462590553, 507.6116111093913 227.19497526555799, 514.0866169767354 229.7634376766081 C520.5616228440795 232.33190008765823, 525.4805563782161 235.7811748167647, 529.00337443909 241.1963362562025 C532.5261924999638 246.6114976956403, 535.6210168588648 255.29344898256193, 535.223525341979 262.25440631323494 C534.8260338250932 269.21536364390795, 531.0624010246436 278.0353430225331, 526.6184253377753 282.9620802402405 C522.174449650907 287.8888174579479, 515.2964858753478 290.6299180877003, 508.5596712207696 291.8148296194795 C501.82285656619143 292.9997411512587, 492.4102441929104 292.4231210686456, 486.1975374103064 290.0715494309158 C479.98483062770237 287.719977793186, 474.72738813169906 283.1942841799531, 471.2834305251456 277.7053997931004 C467.83947291859215 272.2165154062477, 465.2402033303695 263.59252321500117, 465.5337917709857 257.13824310979965 C465.8273802116019 250.68396300459813, 468.80963169099886 243.90631125682938, 473.0449611688427 238.9797191618913 C477.2802906466865 234.0531270669532, 488.1094718507012 229.47160885843263, 490.94576863804866 227.57869054017118 C493.7820654253961 225.68577222190973, 490.089959306803 227.02093494761593, 490.0627418929276 227.6222092523226" stroke="#4A90D9" stroke-width="1.6" fill="none"></path></g><g><path d="M549.5827940200705 258.6066987742605 C553.7643318640846 258.14168298144153, 561.7906845555499 261.7391642970194, 569.7401007413044 258.96544426055675 M550.3243550913948 259.2530652897354 C555.4815429749905 260.2876999646993, 560.9091295416312 259.73411788334596, 570.547307441811 259.6682631046808" stroke="#4A90D9" stroke-width="1.5" fill="none"></path></g><g><path d="M450.06778879346973 261.236343370539 C444.31349253234094 259.81228600513504, 436.2364558620535 260.01246105851874, 430.4173627690004 259.64820358048297 M449.0839426443294 259.76776888190443 C442.8361616850651 259.3799041784462, 438.11510891702187 260.91641638294925, 430.6607216059563 260.3901242794608" stroke="#4A90D9" stroke-width="1.5" fill="none"></path></g><g><path d="M499.28576667057155 209.8357173170502 C499.36163638655023 203.88073819673835, 500.7020213499308 193.54517850476083, 498.9057950102647 191.13641584761805 M500.6954022245993 210.72783663091565 C500.385176857201 203.46832743905193, 500.34622162068916 198.26518369389774, 500.8933540163126 189.86390737179138" stroke="#4A90D9" stroke-width="1.5" fill="none"></path></g><g><path d="M501.6508210148699 308.97701767594305 C501.21575326953007 313.7410532987754, 499.22370816644474 321.13665717843895, 501.76591525320936 331.38912860855095 M499.0375152521235 310.028237025898 C499.14762759745884 317.0849657583181, 499.83166543652464 323.30216231854547, 500.87615672601476 330.507108755912" stroke="#4A90D9" stroke-width="1.5" fill="none"></path></g><g><path d="M454.9554952113718 176.8596343813054 C454.9554952113718 176.8596343813054, 454.9554952113718 176.8596343813054, 454.9554952113718 176.8596343813054 M454.9554952113718 176.8596343813054 C454.9554952113718 176.8596343813054, 454.9554952113718 176.8596343813054, 454.9554952113718 176.8596343813054 M457.1390226171229 184.25814773977382 C457.20641933528384 183.15911609302833, 460.4096914259554 180.93740314893594, 463.34601288004046 174.3273751848661 M456.2361807122386 184.42676679188668 C458.6264070511965 181.89446143124607, 460.98645512600694 180.04030864838816, 464.4208802602389 175.85603723235315 M461.28029676053416 187.6651084712977 C462.209842686301 185.44372858728738, 465.2044130695024 184.47209236930507, 466.77797907223976 182.4352937649342 M461.0633278753426 188.07897219603728 C462.4505263925582 186.16513683025514, 464.2955276536981 184.27015918002763, 466.2540129766587 182.1102269998021" stroke="none" stroke-width="0.7" fill="none"></path><path d="M462.91015629060536 174.61488507240142 C464.0092583929167 174.96357572469185, 464.7860282332404 175.73849374606885, 465.2104198058356 176.77996182942377 C465.6348113784308 177.82142991277868, 465.6475461434358 179.49202382952726, 465.45650572617643 180.86369357253093 C465.26546530891704 182.2353633155346, 464.95342506501544 184.13118070829748, 464.0641773022794 185.00998028744587 C463.17492953954337 185.88877986659426, 461.5369236349449 186.38025303863233, 460.1210191497602 186.13649104742123 C458.70511466457543 185.89272905621013, 456.61593265435073 184.3639349877105, 455.5687503911709 183.54740834017926 C454.5215681279911 182.730881692648, 453.98522763556565 182.30008674435223, 453.83792557068125 181.23733116223377 C453.69062350579685 180.17457558011532, 453.8670776966235 178.29913349059896, 454.68493800186445 177.17087484746858 C455.5027983071054 176.0426162043382, 457.3539862288682 174.92518773705132, 458.7450874021272 174.46777930345152 C460.13618857538614 174.01037086985173, 462.24455209618293 174.42724823824597, 463.0315450414183 174.4264242458699 C463.8185379866537 174.42560025349383, 463.40720841228085 174.39979645819108, 463.46704507353945 174.4628353491952 M457.5337254802156 175.4389170106764 C458.42472391609175 174.9504948588447, 460.65234205493107 173.62680435030083, 461.87423105398767 173.99744280698894 C463.0961200530443 174.36808126367706, 464.34688519094084 176.77106197572894, 464.8650594745553 177.6627477508051 C465.3832337581698 178.55443352588125, 465.26373617963236 178.46682200106127, 464.98327675567475 179.34755745744582 C464.70281733171714 180.22829291383036, 463.9056516302391 181.92866134321707, 463.1823029308095 182.94716048911235 C462.4589542313799 183.96565963500763, 461.7545343027474 184.86747814356826, 460.64318455909705 185.45855233281745 C459.5318348154467 186.04962652206663, 457.57834022374163 187.34396757406975, 456.51420446890734 186.49360562460743 C455.45006871407304 185.6432436751451, 454.76167632405145 181.7273621093176, 454.2583700300913 180.3563806360435 C453.7550637361312 178.9853991627694, 452.9694283408588 179.1235114140866, 453.4943667051465 178.26771678496286 C454.01930506943415 177.4119221558391, 456.7395683025632 175.79507139796908, 457.40800021581714 175.22161286130097 C458.07643212907107 174.64815432463286, 457.45819523916066 174.9724052469561, 457.50495818467016 174.82696556495412" stroke="#4A90D9" stroke-width="1.4" fill="none"></path></g><g><path d="M459.46883956903434 193.98182772381415 C460.3663487895198 199.59524318132384, 458.28258147008916 207.85916569392964, 458.73938220767644 214.40236484843965 M459.12224695601486 192.17749819781378 C460.7676397380418 199.45593160941976, 459.32301324717866 207.69459410931728, 459.7180546234519 214.21649724954642" stroke="#4A90D9" stroke-width="1.2" fill="none"></path></g><g><path d="M535.9304828400619 175.699415580923 C535.9304828400619 175.699415580923, 535.9304828400619 175.699415580923, 535.9304828400619 175.699415580923 M535.9304828400619 175.699415580923 C535.9304828400619 175.699415580923, 535.9304828400619 175.699415580923, 535.9304828400619 175.699415580923 M536.3366305750704 184.2600033010065 C539.4280667975172 181.23567467222853, 541.2542615378254 178.86296941412402, 543.7932069817607 176.56183715812864 M536.8323908992635 183.9047295102059 C537.7229778838926 181.90839057525255, 539.6464825892662 180.88579375687343, 543.4446411604929 176.99959683846492 M543.5037302003485 185.1538610507107 C544.7362448430322 183.88509218747197, 545.4669537923845 183.22257635539822, 547.3446337686753 181.66735942045867 M543.6736078582278 185.15372857665344 C544.5934365851352 184.28691321894667, 545.5346259495526 183.02563247702506, 546.9422056896544 181.300937738311" stroke="none" stroke-width="0.7" fill="none"></path><path d="M541.8497148506805 174.94077107403092 C542.7859321437784 175.52323474959027, 544.0626125758681 177.328056652293, 544.8744872013004 178.31660635039555 C545.6863618267328 179.3051560484981, 546.8852723770854 179.73391754658917, 546.7209626032743 180.87206926264625 C546.5566528294632 182.01022097870333, 545.1827590109328 184.32549313559724, 543.8886285584343 185.14551664673797 C542.5944981059358 185.9655401578787, 540.4259731902117 186.0703483262271, 538.956179888283 185.7922103294906 C537.4863865863543 185.51407233275407, 535.9861956277612 184.21007965133325, 535.0698687468623 183.47668866631892 C534.1535418659635 182.7432976813046, 533.3321380188052 182.66811184372833, 533.45821860289 181.3918644194047 C533.5842991869749 180.11561699508107, 534.8579950847005 176.86047194061052, 535.826352251372 175.81920412037712 C536.7947094180435 174.77793630014372, 538.0649760341955 175.25280883005698, 539.2683616029187 175.14425749800435 C540.4717471716419 175.03570616595172, 542.46745159799 175.32958435793915, 543.0466656637113 175.16789612806141 C543.6258797294327 175.00620789818367, 542.6784089645005 174.29704821962432, 542.7436459972463 174.1741281187379 M541.5684057536882 174.63046367904644 C542.8711748735611 174.95376789783802, 544.1957078782489 175.55611606984942, 544.8894592307199 176.6533040367549 C545.583210583191 177.75049200366036, 545.6125456272603 180.06717855769966, 545.7309138685142 181.21359148047918 C545.8492821097682 182.3600044032587, 546.4280061117098 182.58885092592953, 545.5996686782436 183.53178157343194 C544.7713312447773 184.47471222093435, 542.1001868616132 186.66277801637713, 540.7608892677171 186.87117536549368 C539.4215916738209 187.07957271461024, 538.706575027386 185.82061520900922, 537.5638831148667 184.78216566813128 C536.4211912023475 183.74371612725335, 534.4586525056885 181.9548606797963, 533.9047377926018 180.6404781202261 C533.3508230795152 179.32609556065592, 533.8727587504891 177.91217288902294, 534.2403948363466 176.8958703107102 C534.6080309222041 175.87956773239745, 535.0947490554915 175.0046855912316, 536.1105543077472 174.54266265034954 C537.1263595600028 174.08063970946748, 539.2508658290689 174.09830844846974, 540.3352263498803 174.12373266541783 C541.4195868706917 174.14915688236593, 542.1928506501564 174.63179870069746, 542.6167174326158 174.6952079520381" stroke="#4A90D9" stroke-width="1.4" fill="none"></path></g><g><path d="M541.8382613001993 191.49596346830236 C541.573455413442 196.2826167659249, 538.7118069248111 202.64920256111344, 540.6295233995462 216.41157185590123 M540.7632696362307 191.08428065476468 C540.4770361428372 200.30763501363808, 540.1892011596509 210.6123633577689, 540.049994646401 215.4566907497314" stroke="#4A90D9" stroke-width="1.2" fill="none"></path></g><g><path d="M249.8384853136377 260.9201071364152 C286.97760823597133 259.2428067715097, 322.5906080450728 259.207931750023, 399.11764082147255 259.0729115383855 M250.4365121275108 260.4535446067095 C288.72066086569595 259.22203087081266, 327.3264235094557 259.58521763614283, 400.1267645264807 259.58774733366835" stroke="#000000" stroke-width="1.2" fill="none"></path></g><g><path d="M390.37933343765854 254.5383385447214 C394.5201380818284 255.80990065673248, 397.3017899092681 258.41293777351484, 399.3708333602831 259.06353253300335 M390.47124377400974 254.8706050444232 C392.4178733960168 255.88744537426513, 393.8467310267028 257.4539774119668, 399.8081717421678 260.31340485362995" stroke="#000000" stroke-width="1.2" fill="none"></path></g><g><path d="M390.0107893663264 264.01640732661735 C393.7498258474397 262.090571715301, 397.5710573047907 261.92481723533626, 398.95414877687347 259.1246111351374 M389.63184850933317 264.60080635964516 C391.93565199983067 263.55954890462374, 394.50996165023565 262.45041648290436, 400.32465468775786 260.0067067735717" stroke="#000000" stroke-width="1.2" fill="none"></path></g><g><path d="M129.74437566721315 339.1761523569391 C139.55996863764418 340.86742505497654, 147.08215084308384 339.9494178656341, 159.12814501945462 340.3832683534619 M129.58398530827301 339.6650404938386 C138.25010040883333 339.93806711108607, 146.11522636426594 339.97971591590374, 160.55380976726073 339.9432114066529 M160.55974163067543 340.5155125605962 C160.0444726717919 351.3635747108894, 160.10487108634024 361.7636936533287, 159.16287035582977 380.97923928540996 M159.60247359768942 340.1362263137431 C159.74938314837834 354.8662791821793, 159.7437959903405 369.3409651612572, 160.28939570923677 379.8150097737613 M160.83885968019297 381.1115186925416 C148.4964531816571 380.17055407609723, 136.4747139731067 380.55529436830363, 131.11963819245938 379.2247669060133 M159.7761629423571 379.4409551772159 C149.6432023105829 380.58289584205363, 140.81327226326908 380.2479849141353, 130.54633295720856 379.92266151371183 M130.5581206015715 379.82735420483436 C129.92098934663528 364.67112944983717, 130.11692452677045 347.39563807139325, 129.48800493268175 340.27396055530363 M130.17894556145586 379.6592071504922 C129.29427239980444 370.2407128087239, 129.4894715869706 359.01838283484057, 129.53530494074775 339.92390933197066" stroke="#CC3333" stroke-width="1.4" fill="none"></path></g><g><path d="M470.39986605724283 345.09944732867837 C485.52162666769897 346.5082174312292, 499.07382783828274 345.52358701662143, 520.9554591894498 343.6729170845143 M470.2982076896875 345.28283319616975 C489.55704318622946 344.88671070703407, 508.3799054365093 344.73394895518703, 519.6681294924537 344.0117030700626 M518.6496669265329 344.02234934166677 C519.5896075559823 359.84964720420504, 520.8728376119076 373.5830327447743, 518.2879553031728 381.43066287420794 M519.7004777153082 344.9467202219912 C519.3384304460485 353.5415564391907, 520.45887719857 361.7272135511389, 519.1100931826309 379.018351321181 M521.4959601280588 380.11238622566844 C502.9818910865423 380.6891448106986, 488.0261979994665 378.4587853538494, 468.53036934229607 379.6404068204049 M519.1486476986204 380.67701294062056 C501.06735507784407 381.12077764841627, 480.2922930632631 381.1317180983421, 470.4914931908857 380.2210349291123 M468.0683826946603 381.5077772791033 C468.2914215129355 366.32590920694764, 470.33316769821926 355.37824467197515, 470.37607807942885 343.22331037324403 M470.43033927923204 379.5273895184196 C468.9936198778012 368.806387812286, 469.01887008842846 359.1275596705857, 469.8377988667115 344.8348424006852" stroke="#4A90D9" stroke-width="1.2" fill="none"></path></g><g><path d="M493.39811719842504 345.1236864685168 C494.53769804116723 338.62117693044917, 493.8796032654024 335.9287514194321, 496.7422093837903 323.16380263907337 M495.70531314573856 345.21102297124577 C494.37271020777587 339.61694757483656, 494.967874226203 332.2225184839857, 494.19764348197157 324.7226020593999" stroke="#4A90D9" stroke-width="1" fill="none"></path></g><g><path d="M493.70914827353823 315.223697504734 C493.70914827353823 315.223697504734, 493.70914827353823 315.223697504734, 493.70914827353823 315.223697504734 M493.70914827353823 315.223697504734 C493.70914827353823 315.223697504734, 493.70914827353823 315.223697504734, 493.70914827353823 315.223697504734 M493.82314462372466 320.4159980932235 C494.41730380555185 318.6552182911944, 496.2778279982257 317.31329807279275, 496.8203760930916 316.21812486169785 M493.3358746646779 320.35213128880844 C494.19191794718955 319.5258649418425, 494.68504121942425 318.8842167912361, 496.6191050313936 316.5928637162782" stroke="none" stroke-width="0.4" fill="none"></path><path d="M495.42486254662134 315.3070240169186 C496.00041425049096 315.3649602121178, 496.96997085564794 315.5540107315744, 497.1727915992092 315.8755225768343 C497.3756123427704 316.19703442209425, 496.7257008566849 316.6542361311241, 496.64178700798874 317.23609508847807 C496.55787315929257 317.81795404583204, 496.9515123366399 318.85540442942295, 496.66930850703216 319.3666763209581 C496.3871046774244 319.87794821249327, 495.5241975691449 320.1919678360098, 494.9485640303424 320.3037264376889 C494.37293049153993 320.41548503936804, 493.44327604780574 320.2891032966255, 493.21550727421703 320.037227931033 C492.9877385006283 319.78535256544046, 493.5730495895414 319.25374338812844, 493.58195138881007 318.79247424413364 C493.5908531880787 318.33120510013885, 493.27574838924414 317.83216459368316, 493.26891806982894 317.26961306706437 C493.26208775041374 316.7070615404456, 492.9747111086337 315.5145861905757, 493.5409694723188 315.41716508442096 C494.1072278360039 315.3197439782662, 496.2108582171382 316.39966659507934, 496.66646825193953 316.6850864301358 C497.1220782867409 316.9705062651923, 496.29595587999927 317.3082111856416, 496.2746296811267 317.12968409475974 M495.2040120920624 314.75380460332735 C495.70401196785093 314.9065030173938, 495.1288484710028 316.7392312684452, 495.6663616138515 316.82951713792033 C496.2038747567002 316.91980300739544, 497.9474881324153 314.8945460844527, 498.4290909491546 315.2955198201781 C498.91069376589394 315.69649355590343, 498.79249867902877 318.4574587946835, 498.5559785142875 319.2353595522723 C498.31945834954627 320.01326030986115, 497.4352309606202 319.7974672091233, 497.0099699607071 319.9629243657113 C496.58470896079405 320.12838152229926, 496.81041550315877 320.25018869782434, 496.0044125148091 320.2281024918004 C495.1984095264594 320.2060162857765, 492.7998564549976 320.077497959154, 492.173952030609 319.8304071295679 C491.54804760622034 319.5833162999818, 492.1469990364079 319.09302969098957, 492.2489859684772 318.74555751428375 C492.3509729005465 318.3980853375779, 492.4786259244749 318.066848042035, 492.7858736230245 317.74557406933286 C493.0931213215741 317.4243000966307, 493.75716283265547 317.2857604197064, 494.0924721597746 316.8179136780707 C494.42778148689376 316.350066936435, 494.62668604799927 315.2538427402799, 494.7977295857393 314.9384936195186" stroke="#4A90D9" stroke-width="0.8" fill="none"></path></g><text x="400" y="560" text-anchor="middle" font-family="sans-serif" font-size="16" fill="#222" font-style="italic">The pie is almost never fixed. The frame is.</text></svg>