<?xml version="1.0" encoding="UTF-8"?>
<svg width="800" height="600" viewBox="0 0 800 600" xmlns="http://www.w3.org/2000/svg"><rect width="800" height="600" fill="#FFFFFF"></rect><g><path d="M80.62763227764842 419.40304628220554 C220.2169418252944 423.4538449743619, 361.950656714459 422.6574550723902, 719.078891161104 420.74560833677464 M80.24338481706461 420.5923680647947 C327.93950587062216 423.86889140080365, 577.3306099598808 424.4596443624035, 719.4905374502172 419.9385313157386" stroke="#000000" stroke-width="2" fill="none"></path></g><g><path d="M380.7905173788167 320.971971312316 C388.3694398616742 318.13072357723456, 397.6088515946316 320.09667216878677, 418.3734775028476 319.60716631424697 M379.48653115554754 320.9129714479155 C389.5323469529231 319.1118094346144, 397.8232967159049 319.72870492531376, 419.0277429164224 320.8285570608581 M418.8039556550975 321.7482366563565 C421.6250379410472 322.88144900638616, 417.89962110997726 328.1042348986673, 420.85779380850806 339.8383697342756 M421.0947935808863 320.653854895179 C419.86171318414415 325.6291274727403, 421.2234737256537 330.7229089013578, 419.9745234031772 339.7356145478786 M421.218457147297 338.2262173939925 C406.3541595844401 338.9574903214699, 396.323227627226 341.0708798171236, 379.3519662752612 340.2099986241847 M420.2246654437149 339.42109147392785 C411.8830151884384 340.30765749135486, 400.9514000263779 340.4985106912639, 380.00845660625754 339.8137823984017 M380.3301047446649 340.7604374120728 C381.5255025418808 335.92224636123814, 381.8848853964374 328.6741261412228, 382.2216371372854 317.73769136634337 M379.6803322007629 339.1192104945915 C379.78394194824153 333.18617333266945, 379.92569081812593 327.2908999255519, 380.75192648049966 318.98011973264323" stroke="#000000" stroke-width="1.6" fill="none"></path></g><g><path d="M395.8574032864999 236.78753828207022 C395.8574032864999 236.78753828207022, 395.8574032864999 236.78753828207022, 395.8574032864999 236.78753828207022 M395.8574032864999 236.78753828207022 C395.8574032864999 236.78753828207022, 395.8574032864999 236.78753828207022, 395.8574032864999 236.78753828207022 M397.51451491482845 243.75967142118031 C398.38254786215975 242.6514685856374, 400.12249231771017 239.7944114900373, 404.3479449593178 236.94142838715624 M397.72906721311506 243.8796372491725 C399.5359382397286 241.33710617853316, 401.657959043384 239.12155325530568, 403.8570894180056 236.578671558987" stroke="none" stroke-width="0.8" fill="none"></path><path d="M398.64772100143347 234.5055701207656 C399.4983785984093 234.19361966539628, 400.61977833325784 234.52051267570408, 401.68115608552154 235.06684662416444 C402.74253383778523 235.6131805726248, 404.58488479784285 236.8437220731395, 405.01598751501564 237.7835738115278 C405.44709023218843 238.72342554991607, 404.4511781595779 239.83183264792265, 404.26777238855817 240.70595705449418 C404.0843666175384 241.5800814610657, 404.5593042815509 242.2446934959831, 403.91555288889714 243.028320250957 C403.27180149624337 243.81194700593088, 401.48849997611035 245.25607813559537, 400.4052640326357 245.4077175843375 C399.3220280891611 245.5593570330796, 398.1716271941583 244.69105077387107, 397.41613722804937 243.93815694340964 C396.6606472619404 243.1852631129482, 396.11708700295475 242.09941007100613, 395.8723242359819 240.89035460156884 C395.6275614690091 239.68129913213156, 395.49939982147384 237.53326565438365, 395.94756062621235 236.68382412678588 C396.39572143095086 235.8343825991881, 398.2001161135726 235.98613211326582, 398.56128906441285 235.7937054359822 C398.9224620152531 235.60127875869856, 398.07832552616554 235.5884093228942, 398.11459833125366 235.5292640630841 M400.53919062460756 236.21430117664352 C401.5031661658363 235.94479429122478, 400.8714943559612 234.0328225963723, 401.6795426385106 234.57242537830112 C402.48759092106 235.11202816022993, 404.69451355131315 238.39913717043646, 405.3874803199041 239.45191786821633 C406.0804470884951 240.5046985659962, 406.14228020132094 240.28445364529637, 405.8373432500565 240.88910956498037 C405.53240629879207 241.49376548466438, 404.80622979185046 242.64590598691092, 403.5578586123176 243.07985338632045 C402.30948743278475 243.51380078572998, 399.38610649310243 243.51218454766658, 398.34711617285956 243.49279396143757 C397.3081258526167 243.47340337520856, 397.7256453034347 243.56676959962738, 397.3239166908605 242.96350986894646 C396.92218807828624 242.36025013826554, 396.0862087466723 240.94551795005603, 395.93674449741417 239.8732355773521 C395.78728024815604 238.80095320464815, 396.01234218247765 237.251330021218, 396.42713119531174 236.52981563272277 C396.84192020814584 235.80830124422755, 397.7191251365946 236.03642288299147, 398.42547857441883 235.5441492463808 C399.1318320122431 235.05187560977015, 400.6306559526321 233.80794478095407, 400.66525182225735 233.5761738130588" stroke="#000000" stroke-width="1.6" fill="none"></path></g><g><path d="M398.725908953832 251.44184216956185 C398.4920616066579 264.36410526169476, 401.107435411924 278.34078462876437, 401.07529100692614 308.2428900200559 M400.20340311691916 250.83841845263203 C401.1568430602125 263.2388979206717, 399.5701511556829 274.358849276082, 400.1345760121975 309.0874063490932" stroke="#000000" stroke-width="1.8" fill="none"></path></g><g><path d="M399.1770356522211 291.6561837821936 C398.9865067341242 298.24296965129133, 394.49006736691683 305.0506984616861, 392.9707644876873 319.9989502551981 M399.1363601743806 290.8783794042701 C399.1109480309819 296.5895002391812, 396.859780938368 302.25278455091535, 392.91233254861424 317.45342015403463" stroke="#000000" stroke-width="1.4" fill="none"></path></g><g><path d="M401.56582148955135 289.89951876075247 C402.530426689154 297.2116120233815, 404.22880065057547 301.84307623518373, 407.1693601166418 318.6017110163869 M400.86854460768905 290.7147568466747 C401.23949342789825 296.8451403547932, 404.9310921192662 303.5913612486362, 408.4768477285639 318.10951498469694" stroke="#000000" stroke-width="1.4" fill="none"></path></g><g><path d="M196.32458309553508 362.78924042782603 C196.32458309553508 362.78924042782603, 196.32458309553508 362.78924042782603, 196.32458309553508 362.78924042782603 M196.32458309553508 362.78924042782603 C196.32458309553508 362.78924042782603, 196.32458309553508 362.78924042782603, 196.32458309553508 362.78924042782603 M197.7459320731197 367.832627916113 C199.685299627018 367.3215991409108, 200.1764576754887 365.70280632414074, 202.52121173174706 362.93155270183297 M197.98127702475892 368.2105192845151 C200.055122902765 366.1451273858014, 201.84078768283243 364.00054316381136, 202.62541415744863 363.2455298507269" stroke="none" stroke-width="0.6" fill="none"></path><path d="M198.92678042072865 361.67951701159797 C199.60488628525812 361.5774778816717, 200.4112904323961 361.83505910542203, 201.08348732719386 362.2214420702729 C201.75568422199163 362.6078250351237, 202.39151240637585 363.42849956225587, 202.9599617895153 363.9978148007029 C203.52841117265473 364.5671300391499, 204.72865612940532 364.8199688124402, 204.49418362603058 365.63733350095504 C204.25971112265583 366.45469818946987, 202.28052526410642 368.312696061853, 201.55312676926678 368.9020029317919 C200.82572827442715 369.49130980173084, 200.9490458267527 369.3878251964866, 200.12979265699286 369.1731747205885 C199.31053948723303 368.95852424469047, 197.4244459641204 368.29981234051223, 196.6376077507077 367.61410007640364 C195.850769537295 366.92838781229506, 195.40966260634826 365.9220255774428, 195.40876337651673 365.05890113593694 C195.4078641466852 364.19577669443106, 195.81692397036545 363.0586588419765, 196.63221237171857 362.4353534273682 C197.44750077307168 361.81204801275993, 199.71193814033836 361.6236030774288, 200.30049378463536 361.31906864828727 C200.88904942893237 361.01453421914573, 200.21748903794935 360.57779010138165, 200.16354623750055 360.608146852519 M199.6183357121421 362.0037079200959 C200.11900279571418 361.7961398187517, 199.61116820174774 361.15325475381974, 200.4382644525453 361.43874225624114 C201.26536070334285 361.72422975866255, 204.01762106218558 362.9712796276978, 204.58091321692737 363.71663293462444 C205.14420537166916 364.4619862415511, 204.37194881076647 365.3105678630163, 203.81801738099603 365.91086209780093 C203.26408595122558 366.5111563325856, 201.97657439453542 367.00280978077024, 201.25732463830474 367.3183983433325 C200.53807488207406 367.63398690589474, 200.00876408908172 367.862633310133, 199.50251884361188 367.8043934731745 C198.99627359814204 367.74615363621604, 198.7980879445342 367.33668833017504, 198.21985316548566 366.9689593215816 C197.64161838643713 366.6012303129882, 196.4686797520235 366.3249010574112, 196.03311016932062 365.59801942161414 C195.59754058661775 364.8711377858171, 195.3418951072683 363.3055527504771, 195.60643566926842 362.6076695067995 C195.87097623126854 361.9097862631219, 196.93729599095013 361.7182618966905, 197.62035354132135 361.4107199595485 C198.30341109169257 361.1031780224065, 199.62860974815928 360.91491874693236, 199.70478097149572 360.76241788394765" stroke="#000000" stroke-width="1.2" fill="none"></path></g><g><path d="M198.47901957835634 371.56901366120024 C201.67728348345366 379.3899689194415, 200.15541146128888 383.93631982814316, 202.5220644506759 394.68111416974335 M200.67016532042166 372.70721179394855 C200.7137004340573 378.33350337639837, 201.40626604794957 383.9266469973312, 203.67622942956066 394.41991135197264" stroke="#000000" stroke-width="1.2" fill="none"></path></g><g><path d="M203.01167905900823 394.8816717643454 C199.56538150031147 401.62638908023325, 198.4141600383129 406.8463757451896, 197.05842583298923 410.66844242392784 M202.94276262665554 394.47711107016494 C200.11831472539095 399.7932924383835, 197.7832512337748 405.9400793097076, 195.3977343824774 410.329720949909" stroke="#000000" stroke-width="1" fill="none"></path></g><g><path d="M204.2936889773793 394.60407255687255 C206.16294409518773 398.46514389607177, 207.69474110986775 404.2080403696775, 209.12962085753765 408.7551361698729 M202.82406039032608 394.67774710740395 C205.14338359144753 398.8908866885494, 205.6896296549118 401.1092549929681, 209.9639617943896 409.5399882636049" stroke="#000000" stroke-width="1" fill="none"></path></g><g><path d="M275.65285163971566 364.172589546417 C275.65285163971566 364.172589546417, 275.65285163971566 364.172589546417, 275.65285163971566 364.172589546417 M275.65285163971566 364.172589546417 C275.65285163971566 364.172589546417, 275.65285163971566 364.172589546417, 275.65285163971566 364.172589546417 M278.87803805140385 368.35004033468186 C279.76191474182764 367.4357148575162, 281.3940415873036 365.440897479396, 283.52590659934947 362.87955596698157 M278.5601491422643 368.15230650128296 C279.906074027859 366.8376790640319, 281.30601415985 365.2746118825837, 283.5594643283726 362.9637650598029" stroke="none" stroke-width="0.6" fill="none"></path><path d="M279.5142355673493 360.66764771078647 C280.2479858837477 360.6605346557377, 281.6826039706049 361.54373777906176, 282.44734948459785 362.23890979111036 C283.2120949985908 362.93408180315896, 283.89893640392006 364.1363377458716, 284.10270865130724 364.8386797830779 C284.3064808986944 365.54102182028424, 284.0703637447912 365.8982962781942, 283.6699829689209 366.45296201434843 C283.2696021930506 367.00762775050265, 282.6382995713892 367.88593453740526, 281.70042399608553 368.1666742000033 C280.76254842078185 368.4474138626013, 278.8163351626278 368.41409261955744, 278.04272951709873 368.1373999899366 C277.26912387156966 367.8607073603158, 277.48599546723335 367.13408329923703, 277.0587901229112 366.5065184222783 C276.63158477858906 365.8789535453196, 275.41225526580115 365.05637802737687, 275.4794974511658 364.3720107281842 C275.54673963653045 363.6876434289915, 276.71665497517364 362.92631974002995, 277.46224323509904 362.4003146271224 C278.20783149502444 361.8743095142148, 279.44542536068303 361.4180475130405, 279.95302701071824 361.2159800507386 C280.46062866075346 361.0139125884367, 280.49622128818356 361.2489900741452, 280.5078531353103 361.18790985331117 M278.6853582559961 360.81488480959456 C279.46851676096526 360.427008255462, 280.87352902377165 360.4574030810884, 281.5542568885303 361.1677443162562 C282.2349847532889 361.87808555142396, 282.4046076621128 364.1398411758439, 282.76972544454804 365.07693222060146 C283.13484322698326 366.014023265359, 283.8605401584131 366.0989212332306, 283.74496358314167 366.7902905848014 C283.62938700787026 367.48165993637224, 282.7773899262073 369.04901528589136, 282.0762659929198 369.2251483300265 C281.37514205963225 369.40128137416167, 280.36132428671 368.34676335760145, 279.53821998341635 367.8470888496123 C278.7151156801227 367.34741434162316, 277.7965307020996 366.7595047561797, 277.13764017315793 366.22710128209155 C276.4787496442163 365.6946978080034, 275.6922423672263 365.51379382380503, 275.5848768097666 364.65266800508334 C275.47751125230695 363.79154218636165, 275.69212016269313 361.51154675642283, 276.4934468283997 361.0603463697616 C277.2947734941063 360.60914598310035, 280.0540376180042 362.0072096900167, 280.3928368040063 361.945465685116 C280.73163599000844 361.88372168021533, 278.75004571470805 360.73605419824764, 278.5262419444125 360.68988234035754" stroke="#000000" stroke-width="1.2" fill="none"></path></g><g><path d="M280.49135200260747 373.738062768561 C279.9454123037674 378.63595595105636, 280.69983956869964 387.96455480274125, 284.17167894435033 394.8031564078346 M280.0655695397884 372.6386749651745 C281.0479515508312 381.4349498299419, 281.9692707726672 390.43573150713905, 282.2167404519719 394.91416913487336" stroke="#000000" stroke-width="1.2" fill="none"></path></g><g><path d="M283.8076157833951 393.9966860022122 C282.09286899469845 398.4238294711787, 278.9962703920783 402.83071806561185, 276.6699486566735 408.74244874864553 M282.4689209460233 395.46212467777497 C281.08222607603244 398.9896365079484, 278.3906771425994 404.1379388286506, 275.70806878293115 409.6628967060529" stroke="#000000" stroke-width="1" fill="none"></path></g><g><path d="M283.9853171344823 395.3298224988566 C286.2504080062217 400.8123209465177, 288.87324391109365 406.3478110590537, 289.65215424076143 409.2205902664248 M282.3793953958818 394.9142470050777 C284.9382154695705 399.466869056748, 287.6586150813586 403.2365631584666, 289.7464181072305 409.6494202982327" stroke="#000000" stroke-width="1" fill="none"></path></g><g><path d="M355.2965313142845 364.5051083842652 C355.2965313142845 364.5051083842652, 355.2965313142845 364.5051083842652, 355.2965313142845 364.5051083842652 M355.2965313142845 364.5051083842652 C355.2965313142845 364.5051083842652, 355.2965313142845 364.5051083842652, 355.2965313142845 364.5051083842652 M357.56997470642796 369.1975421071882 C359.2774283702109 366.5115361507939, 361.96680894616367 363.9693529638875, 363.14274676975947 363.20755376782427 M357.40449574708396 369.5912583389303 C358.84594116830107 367.73563331687876, 360.56228179840207 366.02834336594606, 363.9739794366708 362.84559637303687" stroke="none" stroke-width="0.6" fill="none"></path><path d="M359.4867003193898 361.39253922173486 C360.23352904089245 361.2308623221463, 361.3596955575541 360.7663009726298, 362.2202663105468 361.318501332617 C363.08083706353943 361.87070169260426, 364.4975539455319 363.6899592301187, 364.65012483734563 364.7057413816583 C364.8026957291594 365.7215235331979, 363.703629917218 366.6666381204639, 363.13569166142946 367.41319424185485 C362.56775340564093 368.1597503632458, 362.09011728922013 368.8151729080713, 361.2424953026145 369.18507811000404 C360.39487331600884 369.5549833119368, 358.7468041510912 370.04641661591245, 358.0499597417956 369.6326254534512 C357.35311533249995 369.21883429099, 357.52272503826515 367.5541662608738, 357.0614288468406 366.7023311352368 C356.6001326554161 365.85049600959985, 355.28273733779713 365.2026322664709, 355.2821825932483 364.52161469962925 C355.2816278486995 363.8405971327876, 356.170671968169 363.20032701106715, 357.05810037954774 362.6162257341868 C357.94552879092646 362.03212445730645, 359.91523943278474 361.2124759763541, 360.60675306152064 361.01700703834706 C361.2982666902565 360.82153810034004, 361.3100275243245 361.44993130400763, 361.2071821519631 361.4434121061446 M359.58690229112267 359.8913641352388 C360.5058417391657 359.8174643749306, 362.182433341312 361.7969526809278, 362.71879291124384 362.4681986150605 C363.2551524811757 363.1394445491932, 362.66490289641393 363.2667273368479, 362.80505971071386 363.91883974003485 C362.9452165250138 364.5709521432218, 363.8327211976828 365.3917005781004, 363.5597337970435 366.3808730341821 C363.2867463964042 367.3700454902638, 361.80423302964 369.34294831299087, 361.167135306878 369.85387447652494 C360.530037584116 370.364800640059, 360.60244300335927 369.88792466050165, 359.7371474604716 369.4464300153867 C358.8718519175839 369.0049353702717, 356.67503661603916 367.8603088089967, 355.9753620495519 367.20490660583494 C355.27568748306464 366.54950440267316, 355.1667851498888 366.5019171667288, 355.53910006154814 365.5140167964161 C355.91141497320746 364.52611642610344, 357.49997722421386 362.1717181659645, 358.2092515195077 361.27750438395884 C358.9185258148015 360.3832906019532, 359.7393393838002 360.3476893863244, 359.79474583331114 360.1487341043822 C359.8501522828221 359.94977882243995, 358.51199793187834 359.96364321652806, 358.5416902165733 360.0837726923054" stroke="#000000" stroke-width="1.2" fill="none"></path></g><g><path d="M359.71540672276524 371.98110147298917 C362.0733326056365 379.7646119199592, 360.4496546671965 386.31364086100257, 363.8013028253746 395.86493646993154 M359.2540679965966 372.85040238536203 C359.94359687760726 379.2109601991515, 361.88646423372427 386.5265567985589, 363.3920264366103 395.7452594329515" stroke="#000000" stroke-width="1.2" fill="none"></path></g><g><path d="M363.51158303237804 394.453949253604 C361.10572884884766 399.6800860821097, 359.2217441147227 405.7099355865094, 355.3705989661176 410.38806573839776 M363.33349581394924 395.21616477204805 C360.3262149928597 400.2790471769001, 358.27319175207504 404.96116503888203, 355.4833823152168 410.5961639150803" stroke="#000000" stroke-width="1" fill="none"></path></g><g><path d="M361.9888398247029 395.54241972995953 C365.7866463405758 399.0625268238737, 366.9286345204912 404.9528587431721, 369.88222544328295 410.1054452729088 M363.2633456124659 395.55012271899966 C364.97194535273644 398.7577669701758, 365.95159216490947 402.9532467146003, 370.57320001552137 409.883712155844" stroke="#000000" stroke-width="1" fill="none"></path></g><g><path d="M575.5100810439122 335.9816697557621 C575.5100810439122 335.9816697557621, 575.5100810439122 335.9816697557621, 575.5100810439122 335.9816697557621 M575.5100810439122 335.9816697557621 C575.5100810439122 335.9816697557621, 575.5100810439122 335.9816697557621, 575.5100810439122 335.9816697557621 M577.9142229108897 344.20886052754645 C578.5263181902419 341.99993057676886, 581.6112120897758 340.13707716672263, 585.2247553445699 336.54820094904846 M576.4735909534119 345.36236185324026 C578.3591308846472 342.43009687335706, 580.7371107679527 341.01943786464506, 584.7988590594964 336.5342268432064" stroke="none" stroke-width="0.9" fill="none"></path><path d="M578.7133942471686 333.47876407626575 C579.825345325016 333.0510309865742, 581.4721356376822 334.35294613138205, 582.5707225078478 334.9375786259935 C583.6693093780134 335.522211120605, 584.862179542657 335.9274851303457, 585.3049154681624 336.9865590439344 C585.7476513936679 338.0456329575231, 585.6482809970148 340.10929962608253, 585.2271380608806 341.29202210752555 C584.8059951247465 342.4747445889686, 583.918550717617 343.3756670937067, 582.7780578513575 344.0828939325925 C581.637564985098 344.79012077147837, 579.6246710641806 345.56972425603163, 578.384180863324 345.5353831408405 C577.1436906624674 345.5010420256494, 576.1304207940934 344.7583423685854, 575.3351166462182 343.87684724144566 C574.539812498343 342.99535211430594, 573.5961165210481 341.5474110623777, 573.6123559760726 340.2464123780023 C573.6285954310972 338.94541369362685, 574.3131128910597 337.07387916385164, 575.4325533763656 336.07085513519314 C576.5519938616715 335.06783110653464, 579.6639738482124 334.5505148685654, 580.3289988879076 334.22826820605115 C580.9940239276027 333.9060215435369, 579.6254017848553 334.0554379581448, 579.4227036145361 334.13737516010764 M576.8020210423468 334.3523210845744 C577.7773084300427 333.82835012898636, 580.3451234689188 334.09879644121764, 581.6677846031855 334.3033950406238 C582.9904457374522 334.50799364002995, 583.877266203479 334.5662343522328, 584.7379878479472 335.5799126810113 C585.5987094924154 336.5935910097898, 587.0386125970224 339.0911673300582, 586.8321144699948 340.38546501329466 C586.6256163429673 341.6797626965311, 584.6070139555927 342.32312768347526, 583.4989990857817 343.34569878043004 C582.3909842159708 344.3682698773848, 581.3977467200544 346.4679794547213, 580.1840252511294 346.52089159502333 C578.9703037822043 346.5738037353254, 577.4154290989568 344.3114924290196, 576.2166702722311 343.6631716222424 C575.0179114455054 343.01485081546514, 573.1178267570922 343.812251754152, 572.991472290775 342.6309667543598 C572.8651178244579 341.4496817545676, 574.9583165580326 337.8034857451114, 575.4585434743285 336.5754616234892 C575.9587703906244 335.34743750186703, 575.4876011653379 335.5188550655581, 575.9928337885506 335.26282202462687 C576.4980664117633 335.0067889836956, 578.3950410361261 335.1102618982629, 578.4899392136047 335.03926337790165" stroke="#000000" stroke-width="1.8" fill="none"></path></g><g><path d="M581.4334785125199 353.1318318967284 C578.3653153953026 364.41665704207253, 580.5638786565403 375.5033815639684, 579.5492983022498 384.77768459091243 M580.173388734228 352.88048785391175 C580.49270787307 365.08591427170194, 579.990936722605 375.8162568097497, 580.6318643031907 385.68821677542473" stroke="#000000" stroke-width="1.8" fill="none"></path></g><g><path d="M581.7493769681009 386.88032781239 C577.7535067613336 392.86815592924523, 573.1200353448177 402.96457948969476, 568.227821698774 411.2525939586183 M580.0630423508524 385.5545459988327 C576.0148208056546 393.970414963008, 572.8564925154981 404.6201205716312, 570.3628409641336 410.16920906577104" stroke="#000000" stroke-width="1.4" fill="none"></path></g><g><path d="M578.2689662801089 384.168262624392 C582.101465661468 394.95726982297305, 586.5715131751857 405.32170828960255, 589.2270677890369 411.0360401170878 M580.7604634963927 385.65311053840577 C583.6753815798619 392.8295609779247, 585.7549737302244 399.56821799568024, 589.1085054241397 409.7768708396875" stroke="#000000" stroke-width="1.4" fill="none"></path></g><g><path d="M578.0941950317987 322.32784985425144 C578.0941950317987 322.32784985425144, 578.0941950317987 322.32784985425144, 578.0941950317987 322.32784985425144 M578.0941950317987 322.32784985425144 C578.0941950317987 322.32784985425144, 578.0941950317987 322.32784985425144, 578.0941950317987 322.32784985425144" stroke="none" stroke-width="1" fill="none"></path><path d="M580.3707410097713 323.0647814319934 C580.8527548581136 322.9852219525613, 580.5398171957213 323.14489037437875, 580.9108943314225 323.30196981415116 C581.2819714671236 323.4590492539236, 582.3718384315972 323.5285889866855, 582.5972038239781 324.0072580706279 C582.822569216359 324.48592715457033, 582.5385826954897 325.5438571409916, 582.2630866857082 326.1739843178055 C581.9875906759268 326.8041114946194, 581.4284758479306 327.52879287741587, 580.9442277652895 327.78802113151136 C580.4599796826484 328.04724938560685, 579.8708571851446 327.923544770702, 579.3575981898616 327.7293538423784 C578.8443391945787 327.53516291405475, 578.1096748666874 327.0974275356033, 577.8646737935919 326.6228755615697 C577.6196727204964 326.1483235875361, 577.8978279881418 325.5420985090414, 577.8875917512883 324.88204199817665 C577.8773555144347 324.2219854873119, 577.43407038158 323.006599330653, 577.803256372471 322.6625364963812 C578.1724423633619 322.31847366210945, 579.7554469252964 322.8121449029758, 580.1027076966338 322.8176649925462 C580.4499684679713 322.82318508211665, 579.8606278619724 322.7004013357687, 579.8868210004955 322.69565703380397 M579.7093622543852 323.3390958237011 C580.035979248296 323.01400934338653, 579.9750029441038 322.5174336699315, 580.4892051620445 322.5954572431975 C581.0034073799852 322.67348081646344, 582.6074788049543 323.29543504749233, 582.7945755620291 323.807237263297 C582.9816723191038 324.31903947910166, 581.8796770161224 325.03996147498253, 581.6117857044934 325.6662705380253 C581.3438943928644 326.29257960106804, 581.4942228687577 327.3289365484463, 581.1872276922553 327.56509164155364 C580.8802325157529 327.801246734661, 580.1425151601637 327.37047984495763, 579.769814645479 327.08320109666937 C579.3971141307942 326.7959223483811, 579.2267837972513 326.05845665587077, 578.9510246041468 325.841419151824 C578.6752654110423 325.6243816477773, 578.1350031249631 326.1051279717145, 578.1152594868523 325.78097607238897 C578.0955158487416 325.4568241730634, 578.6499394225461 324.4689679705148, 578.8325627754822 323.89650775587074 C579.0151861284182 323.32404754122666, 578.9691674263313 322.5298453329308, 579.2109996044686 322.3462147845244 C579.4528317826059 322.16258423611805, 580.108738559352 322.8491761520726, 580.283555844306 322.79472446543235" stroke="#DAA520" stroke-width="2" fill="none"></path></g><text x="400" y="560" text-anchor="middle" font-family="sans-serif" font-size="16" fill="#222" font-style="italic">"Politics is physics, not pathology."</text></svg>