<?xml version="1.0" encoding="UTF-8"?>
<svg width="800" height="600" viewBox="0 0 800 600" xmlns="http://www.w3.org/2000/svg"><rect width="800" height="600" fill="#FFFFFF"></rect><g><path d="M128.36319318234942 233.80831463147607 C148.39781982822595 234.8421848776715, 165.71391233087186 236.0982864676992, 188.71272176645047 235.44736474134984 M129.00743921227874 235.3512968046437 C150.7486299707456 235.15202754832052, 172.26045032326388 234.658469932433, 189.30317098009823 235.94753896187007 M190.6422743643638 234.13447711336596 C190.8597528824348 245.1702231966391, 189.3456650826051 251.54854046270265, 188.46914549774948 264.7638632586653 M189.51721685467245 234.55731728916484 C191.17230003580056 242.53832477475282, 191.1109185264149 250.77055851913804, 190.2601146316664 264.77757847647723 M189.98382684169545 265.30343664772755 C168.32853524549324 262.667354230454, 144.67785434415154 264.00722835287274, 130.76786544294796 265.4683763260971 M190.33981999880697 265.7545810254867 C167.8024439152697 264.56412051949206, 145.09662077831672 264.9715222568978, 130.2104206167723 265.2107188996774 M128.09797567209327 266.5006213482568 C129.27423147504985 257.0195634558103, 129.1955313445451 250.97822541934613, 128.21871576411002 233.67636992982153 M130.53862059764782 264.31332108303667 C130.57375983401582 254.1538536219991, 129.46044672368703 243.365952659503, 129.7571337827989 234.4938445788725" stroke="#000000" stroke-width="2" fill="none"></path></g><g><path d="M137.39217281790627 265.18462297873026 C137.39217281790627 265.18462297873026, 137.39217281790627 265.18462297873026, 137.39217281790627 265.18462297873026 M137.39217281790627 265.18462297873026 C137.39217281790627 265.18462297873026, 137.39217281790627 265.18462297873026, 137.39217281790627 265.18462297873026 M137.94524146998054 271.5621896187931 C140.680811051429 269.0129723168083, 141.29416291537308 267.93384304292897, 143.67376151556644 266.61787444297005 M138.54453925351987 271.46267761709413 C140.00532390477028 269.8624427430044, 141.11196130889 268.31469633005315, 143.27491270792044 266.1243594766556" stroke="none" stroke-width="0.6" fill="none"></path><path d="M138.94037050192998 264.4905965153708 C139.61478351590313 264.29937956234266, 140.92401099811215 264.85612704133894, 141.77658590920888 265.3564756622954 C142.6291608203056 265.85682428325185, 143.7743696798628 266.83145617031096, 144.05581996851032 267.49268824110936 C144.33727025715785 268.15392031190777, 143.71297555931082 268.7311148020311, 143.4652876410941 269.3238680870858 C143.2175997228774 269.9166213721406, 143.3986721190239 270.60715875871534, 142.5696924592101 271.04920795143784 C141.7407127993963 271.49125714416033, 139.26469509256734 272.11353386075547, 138.4914096822113 271.9761632434209 C137.71812427185526 271.83879262608633, 138.33750016603344 271.03511468498374, 137.92997999707393 270.2249842474305 C137.52245982811442 269.41485380987723, 136.11520571405785 267.97927356891853, 136.04628866845428 267.1153806181013 C135.9773716228507 266.2514876672841, 137.0102259905793 265.5631041176117, 137.5164777234525 265.04162654252724 C138.02272945632572 264.52014896744276, 138.71062686313945 264.2457554386452, 139.08379906569354 263.9865151675943 C139.45697126824763 263.7272748965434, 139.8055214406835 263.3832491492511, 139.75551093877695 263.486184916222 M139.44338472096373 263.74611291794923 C140.52203147914565 263.66152272966525, 141.5777568061691 264.3315422056218, 142.45940793265467 264.77133260747615 C143.34105905914024 265.2111230093305, 144.31392119625414 265.863502016937, 144.73329147987712 266.38485532907526 C145.1526617635001 266.90620864121354, 145.2595617201461 267.17821234516964, 144.97562963439253 267.8994524803056 C144.69169754863896 268.6206926154416, 143.82594052203086 270.1172068148762, 143.02969896535564 270.7122961398913 C142.2334574086804 271.30738546490636, 140.9444556783812 271.29884871090684, 140.19818029434109 271.46998843039586 C139.45190491030098 271.6411281498849, 139.18419896253755 272.11208928948975, 138.55204666111493 271.7391344568254 C137.9198943596923 271.3661796241611, 136.67940949508076 269.93401407087015, 136.40526648580538 269.2322594344098 C136.13112347653 268.53050479794945, 136.47913513798818 268.4842082228955, 136.9071886054627 267.52860663806325 C137.3352420729372 266.573005053231, 138.4834115581036 263.9881819534338, 138.97358729065238 263.49864992541603 C139.46376302320115 263.00911789739826, 139.89479029596043 264.52073713269095, 139.8482430007554 264.5914144699567" stroke="#000000" stroke-width="1.2" fill="none"></path></g><g><path d="M175.7003641476103 265.36010081764823 C175.7003641476103 265.36010081764823, 175.7003641476103 265.36010081764823, 175.7003641476103 265.36010081764823 M175.7003641476103 265.36010081764823 C175.7003641476103 265.36010081764823, 175.7003641476103 265.36010081764823, 175.7003641476103 265.36010081764823 M176.81822352304803 271.1112086241634 C178.96798951136176 269.32800507203956, 181.21456032297175 267.41402427380035, 182.0039761582838 266.20621505614537 M177.7833359356005 270.71169652414846 C178.64960175225676 270.11102865926614, 179.44959827763046 269.0577572545528, 181.82746233502118 265.85917982366277" stroke="none" stroke-width="0.6" fill="none"></path><path d="M179.4676692389708 263.4543856100514 C180.27462996971025 263.0495197930975, 180.3391637597372 264.2506087560771, 181.06358675121038 264.5994299453791 C181.78800974268356 264.9482511346811, 183.3774639428351 264.93224710177935, 183.8142071878098 265.54731274586345 C184.25095043278452 266.16237838994755, 184.00318618539282 267.4075945576389, 183.68404622105868 268.28982380988384 C183.36490625672454 269.1720530621288, 182.5821620659868 270.2116264619432, 181.899367401805 270.84068825933304 C181.21657273762318 271.4697500567229, 180.37434621317652 271.9709208345539, 179.58727823596783 272.06419459422284 C178.80021025875914 272.1574683538918, 177.72627550787024 271.9078686606744, 177.1769595385528 271.4003308173468 C176.62764356923537 270.8927929740192, 176.51980075496428 270.046012079438, 176.2913824200632 269.0189675342571 C176.06296408516212 267.9919229890762, 175.2063331829538 266.1279292372003, 175.80644952914628 265.23806354626123 C176.40656587533874 264.34819785532216, 179.24319639852374 263.75181334880455, 179.89208049721796 263.67977338862283 C180.5409645959122 263.6077334284411, 179.73864726499173 264.61162132239315, 179.69975412131168 264.80582378517084 M179.83370009143604 262.59703399057565 C180.34377802606357 262.87091721476315, 181.38914807010218 265.5825825096133, 181.8818927645315 266.3470391525577 C182.37463745896082 267.11149579550215, 182.45832577527497 266.67305789858983, 182.7901682580119 267.18377384824214 C183.12201074074883 267.69448979789445, 184.13604928841156 268.7598752678589, 183.87294766095314 269.41133485047146 C183.60984603349473 270.06279443308404, 182.13903824247532 270.8302558951047, 181.2115584932614 271.09253134391747 C180.2840787440475 271.35480679273024, 179.11199177457746 271.1263219122524, 178.3080691656696 270.9849875433481 C177.50414655676173 270.8436531744438, 176.8466711048937 270.8140626792809, 176.3880228398141 270.24452513049164 C175.92937457473454 269.6749875817024, 175.36410977513688 268.3096330412728, 175.55617957519223 267.56776225061265 C175.74824937524758 266.8258914599525, 176.65405020236022 266.18738119705785, 177.54044164014624 265.793300386531 C178.42683307793226 265.3992195760041, 180.27006438013788 265.7278558846302, 180.87452820190842 265.20327738745135 C181.47899202367896 264.6786988902725, 181.20226779299207 262.68458971634135, 181.16722457076943 262.64582940345815" stroke="#000000" stroke-width="1.2" fill="none"></path></g><g><path d="M194.70676319426337 251.6014916434146 C204.7582637985452 250.0875460671887, 215.101520643615 248.79322911250253, 231.1912136502066 250.79275163877372 M195.56650262854393 249.42851690975516 C207.11674334829215 250.79084535906708, 219.23419870039436 249.19715916241273, 230.4191531451525 250.33119703940994" stroke="#000000" stroke-width="1.5" fill="none"></path></g><g><path d="M224.61587336092273 245.18018671765853 C226.47173654045 246.19060402805306, 227.27215785070342 247.96479104128704, 230.04030100319164 250.37142618865897 M225.01243371971356 244.90681163037223 C226.12152051959364 246.65033541469083, 227.95130714922865 247.918503818959, 230.2448218435714 250.19618207394598" stroke="#000000" stroke-width="1.2" fill="none"></path></g><g><path d="M499.17984825267456 235.41733110793393 C519.2639389006989 235.3509991813719, 540.3429867821936 237.35334622414183, 558.916580609187 236.03581120333396 M499.9680058426371 235.25663620772755 C519.6019399225283 235.91582058313514, 538.836518303589 234.689517857706, 560.9210233897152 234.93150219071214 M559.3181570784598 233.07071131813294 C558.0269583697507 244.21527255564644, 561.4585265191196 252.8376818532232, 560.1923052957784 266.15807212711115 M559.7017317834307 234.2282018674715 C559.0493121218652 245.29476544446382, 560.127882354892 257.10659218471056, 560.053699576659 265.3561665886454 M560.2305399324448 266.02392405938457 C538.6976220704953 263.58292028097105, 515.1870965234525 265.59933181037826, 501.9341345675035 266.10190556766867 M559.7313693788291 265.7932219718935 C542.7665635607445 264.41580453020094, 524.4660362008806 265.08248830816416, 500.6869600977551 265.57796769507996 M499.89134242650834 266.7745783453571 C499.82718429650157 251.8867126181351, 501.90498752300186 242.89181280840532, 501.3445926775784 234.47662243246754 M500.9562294479374 265.65866378150145 C499.4250334114879 257.9036165053518, 499.57183117315105 252.60935678843285, 500.6204549192451 235.3738358914571" stroke="#000000" stroke-width="2" fill="none"></path></g><g><path d="M507.0303295481991 264.52801303144844 C507.0303295481991 264.52801303144844, 507.0303295481991 264.52801303144844, 507.0303295481991 264.52801303144844 M507.0303295481991 264.52801303144844 C507.0303295481991 264.52801303144844, 507.0303295481991 264.52801303144844, 507.0303295481991 264.52801303144844 M508.1612767210428 271.1421945930355 C510.10090924027025 268.92300693767083, 511.40828461410445 267.45010760922827, 512.3338062040078 265.56327899945893 M508.43897139716347 271.04292462259735 C509.1148432041088 269.1328191042409, 510.6548312754303 267.573612706432, 512.7581084191083 265.3034468581759" stroke="none" stroke-width="0.6" fill="none"></path><path d="M509.418292712061 264.8555341279948 C510.09918933896967 265.01132758194933, 511.74850326154575 264.9692412945958, 512.3989110845944 265.2575251715385 C513.0493189076429 265.54580904848115, 513.072859463391 265.7315059038186, 513.3207396503526 266.58523738965073 C513.5686198373143 267.4389688754829, 514.2496595895727 269.4299179037357, 513.8861922063644 270.37991408653136 C513.5227248231561 271.329910269327, 512.1388241340537 272.0057081065617, 511.1399353511026 272.28521448642465 C510.14104656815147 272.5647208662876, 508.563364591297 272.35047554341156, 507.89285950865747 272.0569523657091 C507.22235442601794 271.7634291880066, 507.45218711917676 271.20086421641, 507.1169048552654 270.52407542020984 C506.781622591354 269.84728662400966, 505.8923521703455 268.999293933294, 505.88116592518907 267.99621958850804 C505.86997968003266 266.9931452437221, 506.2370108950172 265.0606398150923, 507.0497873843269 264.505629351494 C507.86256387363665 263.9506188878957, 509.9589263228156 264.63332589977205, 510.7578248610473 264.66615680691825 C511.556723399279 264.69898771406446, 511.8109033955931 264.82740619250967, 511.84317861371704 264.70261479437113 M509.26826286502563 262.9735783872086 C510.0346597488583 262.75238497546565, 509.7418765788864 264.1251329817687, 510.5470499834955 264.6369339473788 C511.3522233881047 265.1487349129889, 513.3541472606503 265.1520755139967, 514.0993032926805 266.0443841808692 C514.8444593247107 266.9366928477417, 515.3640147195297 269.0448161601739, 515.0179861756768 269.9907859486138 C514.671957631824 270.93675573705366, 512.860240712688 271.3734369160487, 512.0231320295635 271.72020291150835 C511.186023346439 272.066968906968, 510.95618280120254 272.1404590103966, 509.99533407692974 272.0713819213714 C509.03448535265693 272.0023048323462, 506.8981016524867 272.10085640202243, 506.2580396839265 271.3057403773571 C505.6179777153663 270.51062435269176, 506.35992614490715 268.4162656271071, 506.1549622655685 267.3006857733793 C505.9499983862298 266.1851059196515, 504.7391224363515 264.92355369496613, 505.0282564078947 264.6122612549902 C505.3173903794378 264.30096881501424, 507.3495267751306 265.44738775157333, 507.8897660948275 265.43293113352365 C508.43000541452443 265.418474515474, 508.1156129277982 264.9037907369635, 508.2696923260763 264.5255215466921" stroke="#000000" stroke-width="1.2" fill="none"></path></g><g><path d="M547.3111772370675 265.09328188830796 C547.3111772370675 265.09328188830796, 547.3111772370675 265.09328188830796, 547.3111772370675 265.09328188830796 M547.3111772370675 265.09328188830796 C547.3111772370675 265.09328188830796, 547.3111772370675 265.09328188830796, 547.3111772370675 265.09328188830796 M549.1373680041366 270.1906623533738 C550.2386193720578 268.79566795572333, 551.3921434367206 267.39782721459056, 551.9282543192493 267.25435170809425 M549.2182412617441 270.6344045876647 C550.3028015583174 269.55439929475665, 551.3316516783129 268.13152690518757, 552.6311600923592 266.7631867076768" stroke="none" stroke-width="0.6" fill="none"></path><path d="M548.7864365641861 264.2529253894375 C549.2593063424035 264.081997282387, 550.1096126153666 264.8225217750632, 550.8423137427096 265.2622589168086 C551.5750148700527 265.701996058554, 552.6941339810745 266.1892806509734, 553.1826433282444 266.8913482399101 C553.6711526754142 267.5934158288468, 553.9764471142324 268.8215519845859, 553.7733698257288 269.4746644504289 C553.5702925372251 270.12777691627196, 552.5001250290247 270.56056200767785, 551.9641795972224 270.81002303496814 C551.42823416542 271.05948406225843, 551.4101714760762 271.11555247527025, 550.5576972349144 270.97143061417074 C549.7052229937525 270.82730875307124, 547.6016298994277 270.33809874347077, 546.8493341502513 269.94529186837116 C546.0970384010748 269.55248499327155, 545.9675204430823 269.42260019933656, 546.0439227398558 268.61458936357315 C546.1203250366293 267.80657852780973, 546.7304555558655 266.0081654457818, 547.3077479308919 265.09722685379086 C547.8850403059182 264.1862882617999, 548.8528846034021 263.139110816001, 549.5076769900141 263.14895781162755 C550.1624693766262 263.1588048072541, 551.2331864673951 264.8384014688701, 551.2365022505642 265.15630882755005 M548.9338473972473 263.24173273809885 C549.7224561491619 263.3986685942314, 552.6647688475382 265.149056831399, 553.5882942007055 265.8047862914422 C554.5118195538728 266.46051575148545, 554.6814682614927 266.55362800604485, 554.4749995162509 267.17610949835813 C554.2685307710092 267.7985909906714, 552.7353656725674 268.7864051062258, 552.349481729255 269.53967524532186 C551.9635977859426 270.2929453844179, 552.8914580209878 271.52158440040824, 552.1596958563766 271.69573033293443 C551.4279336917655 271.8698762654606, 548.9172532393327 270.9085374341787, 547.9589087415884 270.5845508404789 C547.0005642438441 270.26056424677915, 546.6768103588522 270.1555585012777, 546.4096288699106 269.75181077073563 C546.1424473809691 269.34806304019355, 546.4316519228274 269.0320284673375, 546.3558198079394 268.1620644572265 C546.2799876930513 267.2921004471155, 545.3849275819706 265.1300671848339, 545.9546361805823 264.53202671006954 C546.5243447791939 263.9339862353052, 548.9283731814394 264.5892377061771, 549.7740713996095 264.5738216086406 C550.6197696177796 264.5584055111042, 551.1597394874838 264.2908438526401, 551.028825489603 264.4395301248507" stroke="#000000" stroke-width="1.2" fill="none"></path></g><g><path d="M494.43000397728423 250.6507981944445 C486.00317671425086 250.89644089589405, 477.7559902477103 251.83590385038926, 458.6550609898888 248.03396597333185 M494.48485122691767 249.01877916010403 C483.19043128249336 249.82577358229142, 471.9344396326485 251.12472698603418, 460.30295717385826 249.1345706941823" stroke="#000000" stroke-width="1.5" fill="none"></path></g><g><path d="M465.443688881841 245.65518941402186 C462.6216483656422 247.22300352939675, 460.7990259634044 248.1209637183325, 459.7300845784156 250.60100144759804 M464.68338508555945 245.22994454138657 C463.6494839080927 246.45806974252366, 461.7957821872774 248.56947259398, 459.8524170945966 249.72873360034345" stroke="#000000" stroke-width="1.2" fill="none"></path></g><g><path d="M342.4058661058633 248.62339760239956 C342.4058661058633 248.62339760239956, 342.4058661058633 248.62339760239956, 342.4058661058633 248.62339760239956 M342.4058661058633 248.62339760239956 C342.4058661058633 248.62339760239956, 342.4058661058633 248.62339760239956, 342.4058661058633 248.62339760239956" stroke="none" stroke-width="1" fill="none"></path><path d="M344.2463004012237 246.85530040004085 C344.7386290991999 246.80709657537136, 345.94822545590694 247.18496442645588, 346.61900119400366 247.4162403243369 C347.2897769321004 247.64751622221794, 348.2085828782742 247.57716363745232, 348.270954829804 248.24295578732702 C348.33332678133377 248.90874793720172, 347.43952017004085 250.66518539034894, 346.99323290318233 251.4109932235852 C346.5469456363238 252.15680105682145, 345.96321570453694 252.59552004265257, 345.59323122865277 252.71780278674464 C345.2232467527686 252.84008553083672, 345.1535151933833 252.34950851467576, 344.77332604787745 252.1446896881377 C344.39313690237157 251.93987086159964, 343.7554124057221 251.97147699328173, 343.31209635561765 251.48888982751623 C342.8687803055132 251.00630266175074, 342.2980865883503 249.68807510971703, 342.1134297472508 249.24916669354482 C341.92877290615127 248.8102582773726, 341.73173497149713 249.07616829745757, 342.2041553090204 248.855439330483 C342.67657564654365 248.63471036350842, 344.61196257446466 248.30644066122335, 344.94795177239047 247.92479289169736 C345.2839409703163 247.54314512217138, 344.17068168359623 246.5112138430312, 344.22009049657515 246.565552713327 M343.4361217287184 246.8282737643801 C343.8377259078986 246.40402491306526, 345.045663878405 246.16652142936488, 345.92575124954857 246.31602164180416 C346.80583862069216 246.46552185424343, 348.6493817957487 247.16161839333748, 348.71664595557985 247.72527503901577 C348.783910115411 248.28893168469406, 346.86840843934317 248.74827041656687, 346.3293362085355 249.69796151587389 C345.7902639777278 250.6476526151809, 345.7480709648056 252.96640147342487, 345.4822125707336 253.42342163485782 C345.21635417666164 253.88044179629077, 345.0824178454969 252.79052228275665, 344.7341858441037 252.44008248447165 C344.38595384271053 252.08964268618664, 343.8619272940234 251.49511967173282, 343.3928205623746 251.3207828451477 C342.9237138307258 251.14644601856259, 341.8664800329366 251.8547759779553, 341.91954545421095 251.39406152496085 C341.9726108754853 250.93334707196638, 343.4063778089935 249.4541188481339, 343.7112130900209 248.55649612718096 C344.0160483710483 247.65887340622803, 343.7939451738338 246.34206823447525, 343.7485571403753 246.00832519924325 C343.7031691069168 245.67458216401124, 343.197769702643 246.4828132194757, 343.43888488926984 246.55403791578894" stroke="#4A90D9" stroke-width="2" fill="none"></path></g><g><path d="M346.8963213922339 261.1559590046272 C343.87555186287545 274.63951867790274, 346.07733530725693 289.4138212479278, 346.3354178602555 319.1226183817996 M344.86373062277374 259.30836707522025 C345.0127718223013 274.59833494876557, 344.62513096340535 289.9532395317646, 345.8973850321872 319.5050735239982" stroke="#4A90D9" stroke-width="2.5" fill="none"></path></g><g><path d="M335.6068642613458 310.2004814573674 C337.8625303276072 314.39638070537575, 340.9134291183833 317.3589373525007, 344.5735370748329 319.26989804055904 M334.98146705862973 309.9119379751294 C338.36617808792244 313.0785990928614, 341.8002896898421 317.2138445150795, 345.31205400876837 319.6372707450691" stroke="#4A90D9" stroke-width="2" fill="none"></path></g><g><path d="M354.46442250449167 308.7101949607144 C352.0062475235935 314.1901670093754, 347.98072398046844 317.44476148072874, 344.6000848947563 321.3045707954912 M355.4456225685609 310.64340808319616 C351.1696337272161 313.3462165111802, 347.795904853263 317.25968798366347, 345.4043838904774 320.40184253086517" stroke="#4A90D9" stroke-width="2" fill="none"></path></g><g><path d="M465.0119143508704 368.4533392513288 C465.0119143508704 368.4533392513288, 465.0119143508704 368.4533392513288, 465.0119143508704 368.4533392513288 M465.0119143508704 368.4533392513288 C465.0119143508704 368.4533392513288, 465.0119143508704 368.4533392513288, 465.0119143508704 368.4533392513288 M466.29219312085894 374.99113284979177 C470.1516761962664 372.124032690576, 471.8522511833334 368.5926187707209, 473.4998903440362 366.3309193454691 M466.84307704248226 374.38728356745025 C468.5075892509625 371.795615676137, 471.19954549190726 369.5033845230683, 472.96732060066313 366.2102662924522 M473.1636653902996 374.3323809101108 C473.5613827129936 373.8392686872963, 474.34672856332344 372.9195403686078, 474.3399302459674 372.63790008322457 M473.26545171414574 374.1819363549072 C473.621029163577 373.923953770038, 473.7924141230205 373.4775818355703, 474.5111374656998 372.7112365922165" stroke="none" stroke-width="0.6" fill="none"></path><path d="M471.40217168851353 364.32033278413377 C472.28192224201973 364.2134340344229, 473.21549147817535 365.20506702427804, 473.79948405210587 366.24692861962245 C474.3834766260364 367.28879021496687, 474.8104388909286 369.45585022085146, 474.90612713209663 370.5715023562001 C475.00181537326466 371.6871544915487, 475.08314768964357 372.2818720642482, 474.373613499114 372.9408414317141 C473.66407930858446 373.59981079918, 471.941229062699 374.39933293954016, 470.64892198891937 374.52531856099523 C469.35661491513974 374.6513041824503, 467.51260549577137 374.0443090662587, 466.61977105643643 373.69675516044447 C465.7269366171015 373.34920125463026, 465.54067508604305 373.33600369921413, 465.29191535290965 372.43999512611 C465.04315561977626 371.5439865530058, 464.7981792971598 369.31387932079383, 465.12721265763605 368.3207037218195 C465.4562460181123 367.32752812284514, 466.23134042278696 366.9060993728865, 467.2661155157673 366.4809415322639 C468.30089060874764 366.0557836916413, 470.3373448339556 365.7799413248463, 471.3358632155179 365.7697566780838 C472.3343815970802 365.75957203132134, 473.0173778452528 366.42843596042025, 473.25722580514116 366.4198336516891 M473.3839063948405 365.0166850000352 C474.51528215766797 365.2224787100839, 475.04252604930696 366.5945260921095, 475.54365421757035 367.843540660189 C476.04478238583374 369.09255522826845, 476.7435075813059 371.60501905555043, 476.3906754044208 372.510772408512 C476.0378432275357 373.4165257614736, 474.63196471246715 372.69461812066936, 473.4266611562597 373.27806077795856 C472.2213576000522 373.86150343524776, 470.5963221148512 376.043612362329, 469.15885406717587 376.0114283522473 C467.7213860195005 375.97924434216566, 465.6918529308181 373.96035183894753, 464.80185287020754 373.08495671746863 C463.911852809597 372.2095615959897, 463.86553677647504 371.6925630421561, 463.8188537035128 370.75905762337385 C463.77217063055053 369.8255522045916, 463.6633882237618 368.4341404498833, 464.52175443243397 367.48392420477506 C465.38012064110615 366.53370795966686, 467.60260059207206 365.5699478277965, 468.96905095554575 365.0577601527245 C470.33550131901944 364.54557247765246, 471.91449019681005 364.3805468828881, 472.7204566132762 364.410798154343 C473.5264230297424 364.4410494257979, 473.7977720203613 364.9696612623793, 473.80484945434273 365.23926778145415" stroke="#4A90D9" stroke-width="1.2" fill="none"></path></g><g><path d="M496.464658312364 345.44429869772983 C496.464658312364 345.44429869772983, 496.464658312364 345.44429869772983, 496.464658312364 345.44429869772983 M496.464658312364 345.44429869772983 C496.464658312364 345.44429869772983, 496.464658312364 345.44429869772983, 496.464658312364 345.44429869772983 M497.00790053238165 352.106566937196 C497.52522845471344 350.50372326308775, 500.004195600144 348.8786924121182, 501.7843993604686 346.61769538455746 M497.11934160147956 352.79622983667633 C498.29791719031573 350.55881213131516, 499.81167052970926 349.486709005728, 501.872954882959 346.647530167916 M500.82861487475856 355.7078062212434 C502.48518207199913 354.5723441145658, 503.45662394386153 352.49886619020737, 505.73029158352233 349.76204222755706 M500.88637166426213 356.037281004193 C501.7231087078422 354.6431975452766, 503.0895326931714 353.1924134664165, 505.95603803316396 349.98253656173375" stroke="none" stroke-width="0.6" fill="none"></path><path d="M501.6140264221493 345.80133432796714 C502.590335967433 346.0628466779534, 503.20062597949715 346.57744737087177, 503.8932814288189 347.16541119340246 C504.58593687814067 347.75337501593316, 505.82136656887195 348.41625072819284, 505.76995911807984 349.3291172631512 C505.7185516672877 350.2419837981096, 504.2773469084963 351.56890301283386, 503.5848367240663 352.6426104031525 C502.89232653963626 353.71631779347115, 502.67479461437995 355.65607119250785, 501.6148980114997 355.7713616050629 C500.55500140861943 355.88665201761796, 498.18851213958203 353.98448579755666, 497.2254571067846 353.3343528784827 C496.2624020739871 352.6842199594088, 496.316282916397 352.55724365215235, 495.83656781471484 351.87056409061927 C495.3568527130327 351.1838845290862, 494.19969060867174 350.33454876627553, 494.3471664966916 349.2142755092842 C494.4946423847115 348.0940022522929, 495.7269214104581 345.80720955145887, 496.72142314283417 345.1489245486715 C497.71592487521025 344.49063954588416, 499.608960673988 345.08794143306375, 500.3141768909479 345.26456549256017 C501.01939310790783 345.4411895520566, 500.9100853185671 345.97126641118905, 500.9527204445935 346.20866890565003 M498.42885124631266 344.2863964967215 C499.1949113817687 344.0456739889643, 500.428285672501 346.465712896891, 501.68974060639283 346.99821831425237 C502.9511955402847 347.53072373161376, 505.2390011070894 346.71627844453417, 505.9975808496638 347.48142900089005 C506.7561605922382 348.2465795572459, 506.56275288823167 350.27588437251126, 506.2412190618393 351.5891216523877 C505.9196852354469 352.9023589322641, 504.9968991936756 354.6560502716568, 504.06837789130924 355.36085268014875 C503.1398565889429 356.0656550886407, 501.92850829879546 356.0644586585586, 500.67009124764127 355.81793610333955 C499.41167419648707 355.5714135481205, 497.3142928839927 354.9908646993513, 496.51787558438394 353.8817173488344 C495.72145828477517 352.7725699983175, 496.04034349083247 350.274489172287, 495.8915874499886 349.1630520002384 C495.74283140914474 348.05161482818977, 495.32429086668134 347.72296917301765, 495.6253393393209 347.21309431654254 C495.9263878119604 346.70321946006743, 497.0950258788025 346.3634228696308, 497.6978782858258 346.1038028613877 C498.30073069284913 345.84418285314456, 498.80155234144274 345.8111791780029, 499.2424537814606 345.6553742670838" stroke="#4A90D9" stroke-width="1.2" fill="none"></path></g><g><path d="M526.1127060582639 367.24191442533646 C526.1127060582639 367.24191442533646, 526.1127060582639 367.24191442533646, 526.1127060582639 367.24191442533646 M526.1127060582639 367.24191442533646 C526.1127060582639 367.24191442533646, 526.1127060582639 367.24191442533646, 526.1127060582639 367.24191442533646 M526.323115817821 373.8653952243048 C527.553116857089 372.88561284699944, 530.9178863021929 368.8086046061021, 532.5490241958593 366.78333765755207 M526.1556499878417 374.54618552270017 C528.5183136199482 372.60467958239104, 529.7616879578023 370.0016002926098, 533.1960890191798 366.4564721928855" stroke="none" stroke-width="0.6" fill="none"></path><path d="M529.7273604011358 365.09808154236003 C530.8360183150701 364.8843765823717, 531.9400018076416 365.4014896867412, 532.7963400067791 365.7953429459163 C533.6526782059167 366.1891962050914, 534.4683125869356 366.50472048304437, 534.8653895959613 367.46120109741076 C535.2624666049871 368.41768171177716, 535.4280506547285 370.44158487255083, 535.1788020609337 371.5342266321146 C534.9295534671388 372.6268683916784, 534.3348671899089 373.51094050357534, 533.3698980331925 374.0170516547935 C532.4049288764761 374.5231628060116, 530.530504750428 374.52107717119947, 529.388987120635 374.57089353942337 C528.2474694908419 374.62070990764727, 527.2019317751967 375.0994408877869, 526.520792254434 374.3159498641369 C525.8396527336713 373.53245884048687, 525.3386553153438 371.08520031590547, 525.302149996059 369.8699473975233 C525.2656446767743 368.6546944791411, 525.7233427154752 368.00051844481794, 526.3017603387254 367.0244323538437 C526.8801779619757 366.0483462628694, 527.9867117763927 364.257726811436, 528.772655735561 364.01343085167775 C529.5585996947293 363.7691348919195, 530.7201461634977 365.18106742772795, 531.017424093735 365.55865659529445 M528.3261256173508 366.7740400766885 C529.0251341365689 366.2232506430765, 529.871556268618 364.72540288628215, 530.657960601515 364.73186007035457 C531.4443649344121 364.738317254427, 532.4788749114406 365.82709334623775, 533.0445516147332 366.81278318112317 C533.6102283180259 367.7984730160086, 533.8320136000365 369.30348691249094, 534.0520208212706 370.6459990796672 C534.2720280425048 371.9885112468435, 534.7510606382831 374.085697145965, 534.3645949421378 374.8678561841806 C533.9781292459926 375.6500152223962, 532.9003909949306 375.4173023248064, 531.7332266443992 375.3389533089608 C530.5660622938678 375.2606042931152, 528.3644345892938 374.99762603721075, 527.3616088389496 374.3977620891067 C526.3587830886054 373.7978981410027, 526.2338736258255 372.74673768929676, 525.7162721423344 371.73976962033663 C525.1986706588434 370.7328015513765, 523.8606490783442 369.6600030815699, 524.2559999380031 368.3559536753459 C524.6513507976621 367.0519042691219, 527.6378298488872 364.6335989603599, 528.0883773002884 363.91547318299274 C528.5389247516895 363.1973474056256, 526.876152133816 363.5981486872845, 526.9592846464097 364.04719901114294" stroke="#4A90D9" stroke-width="1.2" fill="none"></path></g><g><path d="M496.12786438025114 387.55194398632904 C496.12786438025114 387.55194398632904, 496.12786438025114 387.55194398632904, 496.12786438025114 387.55194398632904 M496.12786438025114 387.55194398632904 C496.12786438025114 387.55194398632904, 496.12786438025114 387.55194398632904, 496.12786438025114 387.55194398632904 M496.5098354416309 395.42485774746297 C497.7335042358689 391.7435085296474, 500.92196133321045 389.160177970249, 503.4215244652563 386.6891687274579 M496.25754787404117 394.85912516360975 C498.832630190091 392.2106174132448, 500.08564614146735 391.04427202778726, 502.7658653221999 386.99650746326796" stroke="none" stroke-width="0.6" fill="none"></path><path d="M501.0936964600346 384.9784908441554 C501.9593981801823 385.3989268435381, 503.6733000591263 386.70655713213836, 504.3260065562385 387.8852450435509 C504.9787130533507 389.0639329549635, 505.2347559041481 391.0634194070866, 505.0099354427079 392.0506183126308 C504.7851149812677 393.03781721817495, 504.0212006560103 393.2764286452225, 502.9770837875973 393.8084384768158 C501.93296691918425 394.3404483084091, 499.9300782802801 395.217981895484, 498.74523423222973 395.24267730219066 C497.56039018417937 395.2673727088973, 496.35117537252336 394.7505506209417, 495.868019499295 393.95661091705585 C495.3848636260666 393.16267121317003, 495.7612898305727 391.5944558649774, 495.84629899285926 390.47903907887587 C495.9313081551458 389.3636222927743, 496.0316113355613 387.97703267705066, 496.37807447301424 387.26411020044657 C496.72453761046717 386.5511877238425, 496.71123746483266 386.52573134816276, 497.9250778175767 386.2015042192512 C499.1389181703208 385.87727709033965, 502.7145731840633 385.2843857593209, 503.6611165894787 385.3187474269772 C504.6076599948941 385.3531090946335, 503.68112759260816 386.28295778745047, 503.6043382500693 386.40767422518917 M496.67699701175553 385.1720587752308 C497.75864064628433 384.7335011034845, 500.3903403953623 385.4246588220285, 501.7768898346264 385.85853612768295 C503.1634392738905 386.2924134333374, 504.41312599681265 387.1032861053003, 504.9962936473404 387.77532260915746 C505.57946129786814 388.4473591130146, 505.45838608760107 388.8902844344234, 505.2758957377927 389.890755150826 C505.0934053879844 390.8912258672286, 504.87377830397946 393.1237540868425, 503.90135154849025 393.7781469075733 C502.92892479300104 394.43253972830405, 500.4602382105595 393.73015666889563, 499.4413352048575 393.8171120752105 C498.42243219915554 393.9040674815254, 498.68460345232916 394.8746699789367, 497.78793351427817 394.2998793454625 C496.8912635762272 393.7250887119883, 494.4944180435457 391.6512126662949, 494.0613155765515 390.3683682743652 C493.62821310955735 389.0855238824355, 494.41199187092934 387.3243803745819, 495.1893187123132 386.6028129938844 C495.96664555369705 385.88124561318693, 498.51197896223505 386.2043063040886, 498.72527662485453 386.0389639901802 C498.938574287474 385.8736216762718, 496.4768323539794 385.36907159136354, 496.46910468803026 385.6107591104341" stroke="#4A90D9" stroke-width="1.2" fill="none"></path></g><g><path d="M478.8086740607996 366.39179272297724 C485.4671726422482 362.17028076562224, 492.0060758614078 356.21174870129533, 493.2150704961145 354.83786313013894 M480.80507954880704 364.16088399451183 C484.6279718654416 360.7568158519435, 491.31972425042056 357.13051720244556, 494.520598702553 355.1024298132872" stroke="#4A90D9" stroke-width="0.8" fill="none"></path></g><g><path d="M506.70324568692166 354.48710713478334 C509.13289047184145 359.93254434641, 515.6804243998833 362.04838373531067, 519.9104791368474 365.1963123441913 M505.1726209105796 354.9538072554565 C509.54422284012446 357.5982844302238, 512.8513537426732 359.883825313313, 520.6946342597829 365.1233820895688" stroke="#4A90D9" stroke-width="0.8" fill="none"></path></g><g><path d="M520.8194947796418 375.66221688502185 C516.0678425606628 378.062733627165, 510.3314096702605 380.33548904801, 505.9583517059923 385.40072057557626 M520.3954091629237 374.5342165144855 C515.4142985264504 378.21181778303554, 511.00921938374677 380.34931728965887, 505.57991055481125 385.6560912565085" stroke="#4A90D9" stroke-width="0.8" fill="none"></path></g><g><path d="M493.3190945894506 383.94916775692457 C490.1308884823723 382.69104768276947, 483.5070016127369 376.6189617312339, 481.5451175968962 375.6720022226866 M495.6107274064869 385.76882564049396 C491.88422993232035 383.4242902907418, 487.8632927154639 380.2731421971113, 480.03430506846576 375.8157536343287" stroke="#4A90D9" stroke-width="0.8" fill="none"></path></g><g><path d="M240.354450578426 249.76809511204365 C243.6342114754943 250.36538785690846, 247.96064100233087 250.2606784372261, 255.14636647573377 250.0219795301849 M240.04268009417808 249.87773513540856 C244.2469879715432 250.12173538559915, 248.62640191737162 250.04542907456923, 254.81773012176885 250.22038227966937" stroke="#000000" stroke-width="0.6" fill="none"></path></g><g><path d="M269.8733338579677 249.93784994735307 C274.5551848716237 249.68110885035358, 279.39803922107865 250.22550888003076, 284.68471461169514 250.1330260087706 M270.1243879329008 249.9021512616098 C273.5481643730662 249.87672492594123, 277.39113729428755 249.9879460860516, 285.05972839719357 249.87103631127124" stroke="#000000" stroke-width="0.6" fill="none"></path></g><g><path d="M299.9495165163418 250.42638383345638 C303.36663753442906 249.86136907081428, 307.1542811520851 250.3764584890792, 315.42517559284033 249.73738683160101 M299.94972374967404 249.78903312145002 C304.4768601425745 250.03755061166456, 309.3888282673332 250.01902426354275, 314.974686458847 249.91304725773796" stroke="#000000" stroke-width="0.6" fill="none"></path></g><g><path d="M330.2344049351889 249.7850448794255 C332.98556483304674 249.8647927069716, 337.0517477962434 250.37508850312798, 344.85362807957785 250.3359022088204 M330.178783388792 249.93248871975115 C335.682005816597 250.10876041962462, 341.6392573523457 249.94959362395022, 344.99114471754086 249.92334063233292" stroke="#000000" stroke-width="0.6" fill="none"></path></g><g><path d="M360.1868806789295 250.12662193455782 C363.40466348624597 249.93834923221755, 367.3178922317381 250.43272771723326, 375.12640185972197 250.36165008129848 M360.0320327366215 249.87737879938229 C365.8132784956985 249.90771497541527, 371.8296533156808 249.98752155052813, 375.21408251104276 249.8416398822099" stroke="#000000" stroke-width="0.6" fill="none"></path></g><g><path d="M390.40478339728895 250.25520075141662 C392.85039459203443 250.0418009057643, 396.54589350842275 249.80601077292977, 404.8707070179139 250.27793143683368 M390.057710706727 249.84372369436952 C394.45369368784804 250.11819538562239, 399.1575151171083 249.97291199838267, 404.9751191640645 249.8319695647857" stroke="#000000" stroke-width="0.6" fill="none"></path></g><g><path d="M420.4448379604568 250.29782245817347 C424.10180660940443 249.69468533901846, 428.8518270892826 249.99633819285987, 435.12524853648915 249.59322077971552 M420.0392585498767 250.0897785041627 C425.2183017160653 249.87428403757565, 430.53884019785187 249.99920821002348, 435.1585500170638 250.2173866251892" stroke="#000000" stroke-width="0.6" fill="none"></path></g><text x="400" y="560" text-anchor="middle" font-family="sans-serif" font-size="16" fill="#222" font-style="italic">The best move in chicken is often a move that redefines the game.</text></svg>