<?xml version="1.0" encoding="UTF-8"?>
<svg width="800" height="600" viewBox="0 0 800 600" xmlns="http://www.w3.org/2000/svg"><rect width="800" height="600" fill="#FFFFFF"></rect><g><path d="M660.3919074641299 98.39026230750562 C660.3919074641299 98.39026230750562, 660.3919074641299 98.39026230750562, 660.3919074641299 98.39026230750562 M660.3919074641299 98.39026230750562 C660.3919074641299 98.39026230750562, 660.3919074641299 98.39026230750562, 660.3919074641299 98.39026230750562" stroke="none" stroke-width="0.5" fill="none"></path><path d="M662.3649791027783 97.65498459884857 C662.7326664223198 97.7614640872605, 662.9652448379122 98.24117537463853, 663.095117836967 98.4461230715098 C663.2249908360218 98.65107076838108, 663.1874122474221 98.62254326524874, 663.1442170971068 98.88467078007619 C663.1010219467914 99.14679829490365, 663.0158122896042 99.75351147272437, 662.835946935075 100.01888816047452 C662.6560815805457 100.28426484822467, 662.3177827450908 100.45512526016402, 662.0650249699308 100.47693090657705 C661.8122671947709 100.49873655299008, 661.5439384457698 100.27532111023953, 661.3194002841157 100.14972203895266 C661.0948621224616 100.02412296766579, 660.9269316553956 99.9538231229863, 660.7177960000063 99.7233364788558 C660.5086603446169 99.4928498347253, 660.0134042383668 99.11028246039261, 660.0645863517798 98.76680217416973 C660.1157684651928 98.42332188794684, 660.6642801023825 97.89642648174805, 661.0248886804845 97.66245476151852 C661.3854972585866 97.42848304128898, 661.987247809404 97.27628297552634, 662.2282378203922 97.36297185279254 C662.4692278313804 97.44966073005874, 662.4805279652269 98.02527503062453, 662.4708287464134 98.18258802511573 M662.1308438552436 97.54399781038158 C662.5825901243005 97.54707032833878, 662.9118260130884 97.3968980757763, 663.1855823815869 97.51306851865314 C663.4593387500853 97.62923896152998, 663.8098447948113 97.77806983151218, 663.7733820662343 98.2410204676426 C663.7369193376572 98.70397110377301, 663.1211594457086 99.83931263242961, 662.9668060101246 100.2907723354356 C662.8124525745407 100.7422320384416, 663.0660572068698 100.87897557253827, 662.8472614527303 100.94977868567855 C662.6284656985908 101.02058179881884, 662.0462656864997 100.90638455108332, 661.6540314852875 100.71559101427734 C661.2617972840753 100.52479747747135, 660.7703037497863 100.09693949919604, 660.4938562454573 99.80501746484265 C660.2174087411283 99.51309543048926, 659.7836394050161 99.37892075200409, 659.9953464593135 98.96405880815696 C660.207053513611 98.54919686430983, 661.5448673396617 97.42735836607604, 661.7640985712422 97.31584580175983 C661.9833298028228 97.20433323744363, 661.2463985699088 98.15738875213829, 661.3107338487972 98.29498342225979 C661.3750691276856 98.43257809238129, 662.0414930378151 98.15182357956323, 662.1501102445726 98.14141382248883" stroke="#000000" stroke-width="1" fill="none"></path></g><g><path d="M247.63492156705976 241.76601300538277 C247.63492156705976 241.76601300538277, 247.63492156705976 241.76601300538277, 247.63492156705976 241.76601300538277 M247.63492156705976 241.76601300538277 C247.63492156705976 241.76601300538277, 247.63492156705976 241.76601300538277, 247.63492156705976 241.76601300538277" stroke="none" stroke-width="0.5" fill="none"></path><path d="M248.76652172230104 241.64578112143906 C249.09475332255388 241.7350958890734, 249.0029734029559 242.29152538849593, 249.2323262717663 242.58803139731833 C249.46167914057673 242.88453740614074, 250.09764013682212 243.17767815855976, 250.14263893516355 243.42481717437354 C250.18763773350497 243.67195619018733, 249.75710301437388 243.84579512728527, 249.50231906181486 244.07086549220102 C249.24753510925584 244.29593585711677, 248.95491868590776 244.6880636609955, 248.61393521980943 244.77523936386805 C248.2729517537111 244.8624150667406, 247.7939682689754 244.74986136503622, 247.4564182652249 244.5939197094363 C247.1188682614744 244.4379780538364, 246.7141844991441 244.04250772766946, 246.58863519730653 243.83958943026863 C246.46308589546896 243.6366711328678, 246.582518918422 243.66014202909142, 246.70312245419942 243.3764099250313 C246.82372598997682 243.0926778209712, 247.03621612660692 242.36082345205418, 247.31225641197105 242.137196805908 C247.58829669733518 241.9135701597618, 248.13793740186003 242.03677561659805, 248.35936416638415 242.0346500481542 C248.58079093090828 242.03252447971033, 248.63162401992582 242.17491605932116, 248.64081699911583 242.1244433952448 M248.2942949398439 241.7975499527114 C248.47815011853464 241.74763095319028, 248.84825620543685 242.08335098866462, 249.21150423937632 242.4102004946959 C249.5747522733158 242.7370500007272, 250.3609516910937 243.4203008795798, 250.47378314348077 243.75864698889916 C250.58661459586784 244.09699309821852, 250.0044531234344 244.37616603587, 249.8884929536987 244.44027715061205 C249.772532783963 244.5043882653541, 250.19564058826256 244.05517050196852, 249.77802212506654 244.1433136773514 C249.36040366187052 244.23145685273425, 247.88727106856803 244.88144923516506, 247.38278217452262 244.9691362029092 C246.8782932804772 245.05682317065333, 246.7464978687351 244.86123542371527, 246.75108876079406 244.6694354838161 C246.75567965285302 244.47763554391693, 247.3139357341951 244.25756896628621, 247.4103275268764 243.81833656351424 C247.50671931955767 243.37910416074226, 247.09821286249266 242.28757349829004, 247.32943951688182 242.0340410671843 C247.56066617127098 241.78050863607854, 248.69309655575967 242.22537786100563, 248.7976874532114 242.29714197687974 C248.90227835066315 242.36890609275386, 248.10950977261575 242.36451406503363, 247.95698490159234 242.46462576242894" stroke="#000000" stroke-width="1" fill="none"></path></g><g><path d="M567.5775256103428 72.03348381069878 C567.5775256103428 72.03348381069878, 567.5775256103428 72.03348381069878, 567.5775256103428 72.03348381069878 M567.5775256103428 72.03348381069878 C567.5775256103428 72.03348381069878, 567.5775256103428 72.03348381069878, 567.5775256103428 72.03348381069878" stroke="none" stroke-width="0.5" fill="none"></path><path d="M568.3424444394401 72.05555307088515 C568.524385506086 71.96749558100989, 568.8724966765178 72.03764176063746, 569.1878132336466 72.22300703748317 C569.5031297907753 72.40837231432889, 570.1388529527228 72.75711266184129, 570.2343437822125 73.16774473195946 C570.3298346117022 73.57837680207763, 570.004299961323 74.31090433725517, 569.7607582105845 74.68679945819214 C569.517216459846 75.06269457912911, 569.0831260616586 75.43619908623339, 568.7730932777815 75.42311545758129 C568.4630604939044 75.41003182892919, 568.1492829703759 74.76081002073337, 567.900561507322 74.60829768627951 C567.651840044268 74.45578535182565, 567.3795138954341 74.69315045865012, 567.2807644994579 74.50804145085814 C567.1820151034816 74.32293244306616, 567.3071561459185 73.85421814673315, 567.3080651314643 73.49764363952762 C567.3089741170102 73.1410691323221, 567.0492623840453 72.54027084750759, 567.2862184127332 72.368594407625 C567.5231744414211 72.19691796774241, 568.4724648023481 72.46096936463793, 568.729801303592 72.46758500023206 C568.9871378048359 72.4742006358262, 568.782612591129 72.49118297479005, 568.8302374201969 72.40828822118978 M569.1505119758463 71.3671628323079 C569.532117278907 71.18008284719991, 569.1859548957032 71.54013786466825, 569.3970523976172 71.98894828407072 C569.6081498995313 72.43775870347318, 570.4466116133084 73.56310739166628, 570.4170969873305 74.06002534872269 C570.3875823613527 74.5569433057791, 569.5570168889166 74.72463723050139, 569.2199646417498 74.97045602640917 C568.8829123945831 75.21627482231695, 568.616483198457 75.43023814999482, 568.39478350433 75.53493812416937 C568.173083810203 75.63963809834392, 568.0534231043058 75.80373855424423, 567.889766476988 75.5986558714565 C567.7261098496703 75.39357318866877, 567.4199537956524 74.67763075115334, 567.4128437404232 74.30444202744297 C567.405733685194 73.9312533037326, 567.7341887651836 73.67470345914705, 567.847106145613 73.35952352919423 C567.9600235260424 73.04434359924142, 568.0267080786673 72.5543875151593, 568.0903480229994 72.41336244772609 C568.1539879673314 72.27233738029287, 568.0857433884993 72.53091567680566, 568.2289458116052 72.51337312459493 C568.3721482347111 72.49583057238421, 568.9705671638336 72.40870495004856, 568.9495625616347 72.30810713446171" stroke="#000000" stroke-width="1" fill="none"></path></g><g><path d="M203.06859890735188 57.27367049569064 C203.06859890735188 57.27367049569064, 203.06859890735188 57.27367049569064, 203.06859890735188 57.27367049569064 M203.06859890735188 57.27367049569064 C203.06859890735188 57.27367049569064, 203.06859890735188 57.27367049569064, 203.06859890735188 57.27367049569064" stroke="none" stroke-width="0.5" fill="none"></path><path d="M204.5187697727526 56.10856861122527 C204.84401732824836 56.01997368415623, 205.72798224252094 55.81246167592461, 206.08221039142617 55.939427613605396 C206.4364385403314 56.06639355128618, 206.66091921742034 56.59848746311452, 206.64413866618403 56.870364237310014 C206.62735811494773 57.142241011505504, 206.0677082257838 57.23600772515801, 205.98152708400835 57.570688258778326 C205.8953459422329 57.90536879239864, 206.35852994200658 58.6992919744264, 206.12705181553122 58.878447439031916 C205.89557368905585 59.05760290363743, 204.9601122644351 58.76408606716018, 204.5926583251561 58.645621046411414 C204.22520438587708 58.52715602566265, 204.19217579652414 58.378096534176855, 203.9223281798572 58.16765731453931 C203.65248056319027 57.95721809490177, 202.99205241445298 57.672475513372675, 202.97357262515447 57.382985728586156 C202.95509283585596 57.09349594379964, 203.43353743649112 56.65611052989242, 203.8114494440661 56.43071860582019 C204.1893614516411 56.205326681747955, 205.04342609602415 56.0973535665601, 205.24104467060445 56.03063418415274 C205.43866324518476 55.963914801745375, 205.11004396667835 55.964612956729226, 204.997160891548 56.030402311376 M204.7793494347648 56.509454870999086 C205.14647321273975 56.430026039543456, 206.63948656232705 56.07723788803026, 206.82457594193818 56.327178021871944 C207.0096653215493 56.57711815571363, 205.95059828317832 57.80428064326647, 205.88988571243164 58.00909567404919 C205.82917314168495 58.21391070483191, 206.49605914771286 57.348126196700036, 206.460300517458 57.556068206568256 C206.42454188720313 57.764010216436475, 206.0442849993938 59.027796960653504, 205.67533393090255 59.25674773325851 C205.3063828624113 59.48569850586351, 204.58358432684366 59.2283693016106, 204.2465941065106 58.92977284219829 C203.90960388617754 58.63117638278598, 203.86419362213528 57.862721143906896, 203.6533926089042 57.46516897678464 C203.44259159567312 57.06761680966238, 202.97891859829343 56.70383966180525, 202.98178802712414 56.544459839464764 C202.98465745595485 56.38508001712428, 203.37541302891026 56.54300028582756, 203.67060918188835 56.50889004274176 C203.96580533486645 56.47477979965596, 204.53481246765492 56.50127804975766, 204.75296494499273 56.33979838094998 C204.97111742233054 56.1783187121423, 205.0008634802904 55.556970444473656, 204.97952404591527 55.540012029895706" stroke="#000000" stroke-width="1" fill="none"></path></g><g><path d="M384.90927674429827 62.96886589974787 C384.90927674429827 62.96886589974787, 384.90927674429827 62.96886589974787, 384.90927674429827 62.96886589974787 M384.90927674429827 62.96886589974787 C384.90927674429827 62.96886589974787, 384.90927674429827 62.96886589974787, 384.90927674429827 62.96886589974787" stroke="none" stroke-width="0.5" fill="none"></path><path d="M385.35877500389375 63.199877276958965 C385.5860351363781 63.16887670555759, 385.88267823665296 63.54648673300254, 386.1951277406028 63.769059353116816 C386.50757724455264 63.991631973231094, 387.14022027874165 64.20871863656552, 387.23347202759277 64.53531299764464 C387.3267237764439 64.86190735872376, 386.9524400516154 65.5307193031063, 386.7546382337095 65.72862551959152 C386.5568364158036 65.92653173607674, 386.2179733285888 65.59010293304425, 386.04666112015747 65.72275029655599 C385.8753489117261 65.85539766006772, 386.03643782750925 66.56939376952658, 385.7267649831215 66.52450970066191 C385.4170921387337 66.47962563179723, 384.4981173159021 65.74943648345484, 384.1886240538308 65.45344588336796 C383.87913079175945 65.15745528328108, 383.8042503385581 65.09990590004624, 383.8698054106936 64.74856610014062 C383.935360482829 64.397226300235, 384.27820244948765 63.56425600716718, 384.58195448664344 63.345407083934234 C384.88570652379923 63.126558160701286, 385.5613028821796 63.49702134985334, 385.6923176336284 63.435472560742944 C385.82333238507726 63.37392377163255, 385.4762127714899 62.97878996697045, 385.3680429953364 62.97611434927183 M384.8670138855147 63.06230297745194 C385.17030764636985 63.10790502763231, 385.6009267029172 63.107769001198626, 385.95757378117474 63.31873994929672 C386.3142208594323 63.529710897394814, 386.9706048645742 63.92141097465166, 387.00689635506 64.3281286660405 C387.0431878455458 64.73484635742935, 386.4275611825214 65.47494215026752, 386.1753227240894 65.75904609762978 C385.92308426565745 66.04315004499203, 385.5955693896772 65.85489768118983, 385.49346560446804 66.03275235021404 C385.39136181925886 66.21060701923825, 385.8515219293491 66.79079393980328, 385.56270001283434 66.82617411177507 C385.2738780963196 66.86155428374687, 383.95171702615045 66.73117849788972, 383.7605341053796 66.24503338204481 C383.5693511846087 65.7588882661999, 384.2926216961676 64.35210319421843, 384.41560248820906 63.90930341670562 C384.5385832802505 63.46650363919281, 384.2725032129261 63.75510882042254, 384.49841885762845 63.588234716967925 C384.7243345023308 63.42136061351331, 385.5476169394401 62.90136310423936, 385.77109635642313 62.90805879597793 C385.99457577340615 62.9147544877165, 385.97203192910075 63.61590647262538, 385.8392953595268 63.628408867399365" stroke="#000000" stroke-width="1" fill="none"></path></g><g><path d="M303.0189634530604 109.70885900810313 C303.0189634530604 109.70885900810313, 303.0189634530604 109.70885900810313, 303.0189634530604 109.70885900810313 M303.0189634530604 109.70885900810313 C303.0189634530604 109.70885900810313, 303.0189634530604 109.70885900810313, 303.0189634530604 109.70885900810313" stroke="none" stroke-width="0.5" fill="none"></path><path d="M304.3022490412512 108.85209077856885 C304.6069263942058 108.84582686548002, 305.58430402656694 109.58353548551196, 305.81345294384244 109.85076108286611 C306.04260186111793 110.11798668022027, 305.5837203341033 110.18953155504249, 305.6771425449041 110.45544436269374 C305.77056475570487 110.72135717034499, 306.37958629816785 111.18524299809903, 306.373986208647 111.44623792877356 C306.36838611912617 111.70723285944808, 305.9996000482293 111.96194470263912, 305.64354200777916 112.02141394674095 C305.287483967329 112.08088319084278, 304.5531699502235 111.94357720230829, 304.2376379659461 111.80305339338459 C303.92210598166866 111.66252958446088, 303.92717146238084 111.45814682889416, 303.7503501021147 111.17827109319877 C303.5735287418485 110.89839535750339, 303.24523244308875 110.43010206369864, 303.1767098043492 110.12379897921228 C303.1081871656096 109.81749589472592, 303.06999362454775 109.50848947829195, 303.33921426967703 109.34045258628065 C303.6084349148063 109.17241569426935, 304.57366798504984 109.12925420308652, 304.79203367512497 109.11557762714446 C305.0103993652001 109.1019010512024, 304.6154964020943 109.27664608956916, 304.64940841012765 109.25839313062828 M305.2686083341007 109.64382540743263 C305.414911715059 109.65783325661238, 304.6255783415639 109.99566319958149, 304.85329346791485 109.99058368721333 C305.0810085942658 109.98550417484518, 306.37160184534577 109.26436946008229, 306.6348990922065 109.61334833322368 C306.8981963390673 109.96232720636507, 306.58667421132725 111.62033795974477, 306.4330769490795 112.08445692606172 C306.2794796868318 112.54857589237866, 305.97248242988803 112.28444262502907, 305.71331551872015 112.39806213112539 C305.45414860755227 112.5116816372217, 305.1919134888775 112.89254312745103, 304.8780754820723 112.7661739626396 C304.5642374752671 112.63980479782816, 303.99165908422435 112.14396835269594, 303.830287477889 111.63984714225681 C303.6689158715536 111.13572593181769, 304.0280975294561 110.20124135070031, 303.90984584405993 109.74144670000484 C303.79159415866377 109.28165204930937, 302.9955866598215 108.96958510720648, 303.1207773655122 108.88107923808403 C303.24596807120287 108.79257336896157, 304.4027935670477 109.28052224557702, 304.66099007820395 109.21041148527007 C304.9191865893602 109.14030072496313, 304.71723318545827 108.54091116774877, 304.6699564324497 108.46041467624234" stroke="#000000" stroke-width="1" fill="none"></path></g><g><path d="M177.55850807447158 77.49850264134248 C177.55850807447158 77.49850264134248, 177.55850807447158 77.49850264134248, 177.55850807447158 77.49850264134248 M177.55850807447158 77.49850264134248 C177.55850807447158 77.49850264134248, 177.55850807447158 77.49850264134248, 177.55850807447158 77.49850264134248" stroke="none" stroke-width="0.5" fill="none"></path><path d="M177.32054536322252 77.77224742646004 C177.67194782247756 77.680607581411, 178.86333449597493 77.92255795606621, 179.23514446205266 78.13779563206549 C179.6069544281304 78.35303330806477, 179.53742834268508 78.76939210871392, 179.55140515968898 79.06367348245574 C179.5653819766929 79.35795485619757, 179.50195742389835 79.5371530319163, 179.31900536407613 79.90348387451641 C179.13605330425392 80.26981471711652, 178.7449801178123 81.00746229950343, 178.45369280075576 81.26165853805638 C178.16240548369922 81.51585477660933, 177.82176019655455 81.56029165089917, 177.5712814617368 81.42866130583414 C177.32080272691903 81.2970309607691, 177.15122028907044 80.7169310135839, 176.95082039184913 80.47187646766615 C176.75042049462783 80.2268219217484, 176.34951144505118 80.20875214487914, 176.36888207840894 79.95833403032759 C176.3882527117667 79.70791591577604, 176.78258944913625 79.30203758988999, 177.06704419199573 78.96936778035688 C177.35149893485521 78.63669797082376, 177.8875711688104 78.10992705505008, 178.07561053556591 77.96231517312893 C178.26364990232142 77.81470329120778, 178.1878145638392 78.00373126105174, 178.1952803925288 78.08369648882996 M178.85727114443367 78.6576004435679 C179.04907608769747 78.47286892834626, 178.45476117964893 77.84321308690059, 178.67786259590707 78.01847539083252 C178.90096401216522 78.19373769476445, 180.17688346927304 79.21021077328948, 180.19587964198246 79.70917426715948 C180.21487581469188 80.20813776102949, 179.15195872737337 80.76108629267664, 178.7918396321636 81.01225635405261 C178.43172053695383 81.26342641542858, 178.40983696731192 81.27784023516662, 178.0351650707238 81.21619463541535 C177.66049317413567 81.15454903566408, 176.65284790510043 80.94475947347817, 176.5438082526348 80.64238275554496 C176.43476860016915 80.34000603761174, 177.28423849177588 79.74322393865, 177.38092715593004 79.40193432781611 C177.4776158200842 79.06064471698221, 177.2164007282979 78.69129886885177, 177.1239402375598 78.59464509054155 C177.03147974682167 78.49799131223132, 176.6711802850279 78.83591767509787, 176.82616421150135 78.82201165795476 C176.9811481379748 78.80810564081165, 177.67816858821718 78.52176783011113, 178.05384379640046 78.51120898768286 C178.42951900458374 78.5006501452546, 179.12326905396782 78.70539194697166, 179.08021546060098 78.75865860338514" stroke="#000000" stroke-width="1" fill="none"></path></g><g><path d="M349.346377105987 183.10599012763896 C349.346377105987 183.10599012763896, 349.346377105987 183.10599012763896, 349.346377105987 183.10599012763896 M349.346377105987 183.10599012763896 C349.346377105987 183.10599012763896, 349.346377105987 183.10599012763896, 349.346377105987 183.10599012763896" stroke="none" stroke-width="0.5" fill="none"></path><path d="M349.5215024993756 182.9045314077826 C349.81044308410367 182.76507838612994, 351.09756027908367 183.05066283970098, 351.365309190018 183.3129812947661 C351.6330581009524 183.57529974983123, 351.16373853659 184.0448723638455, 351.1279959649818 184.47844213817334 C351.09225339337354 184.91201191250116, 351.2345054898866 185.67029265703215, 351.15085376036865 185.914399940733 C351.0672020308507 186.15850722443386, 350.9133494708039 185.82664070154135, 350.6260855878739 185.94308584037847 C350.3388217049439 186.0595309792156, 349.6929682344441 186.7634708717328, 349.4272704627886 186.61307077375582 C349.16157269113313 186.46267067577884, 349.23845025670744 185.32413931367276, 349.0318989579409 185.04068525251665 C348.8253476591743 184.75723119136055, 348.23649869318456 185.0720897696301, 348.1879626701892 184.91234640681924 C348.1394266471939 184.75260304400837, 348.4238787373869 184.4348710158569, 348.740682819969 184.08222507565145 C349.0574869025511 183.729579135446, 349.91668552798143 182.90174492933855, 350.0887871656817 182.7964707655865 C350.260888803382 182.69119660183443, 349.8141971649999 183.3153970155508, 349.7732926461708 183.45058009313908 M349.8254239592533 183.2645275204381 C350.1246111446436 183.22187227078717, 349.93320312867775 182.8009402393614, 350.2380839166618 182.9477982453675 C350.5429647046459 183.09465625137358, 351.56842821697455 183.73571892898377, 351.6547086871577 184.14567555647466 C351.7409891573409 184.55563218396554, 351.0644612391402 185.18607624086283, 350.7557667377609 185.40753801031283 C350.4470722363816 185.62899977976284, 349.93132488403506 185.3784788023054, 349.80254167888205 185.4744461731747 C349.67375847372904 185.570413544044, 350.1006974769902 186.06921898445012, 349.98306750684276 185.9833422355286 C349.8654375366953 185.89746548660708, 349.3482434745236 185.22678559453635, 349.09676185799725 184.95918567964551 C348.8452802414709 184.69158576475468, 348.49948823281557 184.48060209759868, 348.4741778076848 184.37774274618363 C348.448867382554 184.27488339476858, 348.7520554369928 184.594826382795, 348.9448993072125 184.34202957115522 C349.1377431774322 184.08923275951545, 349.5621360583221 182.95216481355294, 349.6312410290028 182.86096187634502 C349.7003459996835 182.7697589391371, 349.19964914098904 183.62028364839614, 349.3595291312969 183.79481194790773" stroke="#000000" stroke-width="1" fill="none"></path></g><g><path d="M171.59056894285425 98.8109121691093 C171.59056894285425 98.8109121691093, 171.59056894285425 98.8109121691093, 171.59056894285425 98.8109121691093 M171.59056894285425 98.8109121691093 C171.59056894285425 98.8109121691093, 171.59056894285425 98.8109121691093, 171.59056894285425 98.8109121691093" stroke="none" stroke-width="0.5" fill="none"></path><path d="M173.21400045085178 98.95100576961156 C173.56088337942157 98.8857812859506, 173.5563175447767 99.0650381581796, 173.68256614726346 99.36342193722008 C173.8088147497502 99.66180571626056, 173.9531701048701 100.3292485769795, 173.97149206577237 100.7413084438544 C173.98981402667462 101.15336831072929, 174.00052878568187 101.68572620029835, 173.79249791267694 101.83578113846943 C173.584467039672 101.98583607664051, 173.04217838576713 101.67207532619419, 172.72330682774276 101.64163807288087 C172.4044352697184 101.61120081956754, 172.06487156829846 101.6883320326988, 171.87926856453066 101.6531576185895 C171.69366556076287 101.61798320448021, 171.7425465591695 101.7095561809641, 171.60968880513605 101.43059158822513 C171.47683105110258 101.15162699548615, 171.0894179603006 100.41125611709224, 171.08212204032984 99.9793700621557 C171.07482612035906 99.54748400721915, 171.16807340089696 99.0086697742843, 171.5659132853114 98.83927525860588 C171.96375316972586 98.66988074292746, 173.26862579525098 98.94904042561029, 173.46916134681646 98.96300296808518 C173.66969689838194 98.97696551056006, 172.7943369936131 98.80069263991882, 172.76912659470432 98.92305051345524 M173.77170971104243 98.71518404530191 C174.11619079017356 98.66089733421546, 173.64774485148524 98.81081950372703, 173.83583509393313 99.13209380308827 C174.023925336381 99.4533681024495, 174.83572136976872 100.2264389315151, 174.90025116572977 100.6428298414693 C174.96478096169082 101.05922075142348, 174.44532489758956 101.29726314968983, 174.22301386969943 101.63043926281341 C174.0007028418093 101.963615375937, 173.92181781560797 102.60336753944812, 173.56638499838897 102.64188652021079 C173.21095218116997 102.68040550097346, 172.36187204839877 102.05315014999731, 172.09041696638545 101.86155314738947 C171.81896188437213 101.66995614478164, 171.99231542487968 101.81796824213166, 171.93765450630906 101.49230450456376 C171.88299358773844 101.16664076699587, 171.83444565611518 100.22708537393854, 171.76245145496173 99.90757072198207 C171.6904572538083 99.5880560700256, 171.37317267614006 99.57873035807225, 171.50568929938848 99.57521659282494 C171.6382059226369 99.57170282757764, 172.25962733899934 99.96143201095684, 172.5575511944523 99.88648813049828 C172.85547504990524 99.81154425003972, 173.31106612798013 99.29964805428142, 173.29323243210624 99.12555331007358" stroke="#000000" stroke-width="1" fill="none"></path></g><g><path d="M516.8992343101121 177.70598553663643 C516.8992343101121 177.70598553663643, 516.8992343101121 177.70598553663643, 516.8992343101121 177.70598553663643 M516.8992343101121 177.70598553663643 C516.8992343101121 177.70598553663643, 516.8992343101121 177.70598553663643, 516.8992343101121 177.70598553663643" stroke="none" stroke-width="0.5" fill="none"></path><path d="M517.3882387821075 177.3052887710125 C517.7036176350869 177.1191043347431, 517.9297623080245 176.91602843508343, 518.3109074923286 177.09892847798704 C518.6920526766328 177.28182852089066, 519.5535491422783 177.9917508008741, 519.6751098879324 178.40268902843414 C519.7966706335866 178.8136272559942, 519.1569826109151 179.32485082591384, 519.0402719662535 179.5645578433473 C518.9235613215919 179.80426486078076, 519.1413246497959 179.81160705179715, 518.974846019963 179.84093113303487 C518.8083673901301 179.8702552142726, 518.4395352607696 179.76036927961593, 518.0414001872557 179.7405023307736 C517.6432651137418 179.7206353819313, 516.9451296869524 179.8582638636883, 516.5860355788798 179.72172943998095 C516.2269414708071 179.5851950162736, 515.8016062042917 179.29524925196418, 515.8868355388194 178.92129578852953 C515.972064873347 178.5473423250949, 516.8687766134905 177.68672351124928, 517.0974115860458 177.4780086593731 C517.3260465586012 177.26929380749692, 517.0944813466531 177.73617273448963, 517.2586453741518 177.66900667727242 C517.4228094016505 177.6018406200552, 518.0203487331776 177.1376942128973, 518.0823957510383 177.07501231606992 M517.4608110865466 177.67666725310787 C517.8185279572613 177.6504514297322, 518.1670483667376 177.07095775448744, 518.5163164609781 177.3426310119871 C518.8655845552187 177.61430426948675, 519.3467633007408 179.01323223678455, 519.5564196519902 179.30670679810575 C519.7660760032395 179.60018135942695, 519.9913397510313 179.00679116505253, 519.7742545684746 179.10347837991438 C519.5571693859179 179.20016559477622, 518.7787489369316 179.65962048586866, 518.2539085566497 179.88683008727688 C517.7290681763677 180.1140396886851, 516.950603176524 180.5476468161845, 516.6252122867827 180.46673598836372 C516.2998213970413 180.38582516054294, 516.3004273981937 179.6994442417659, 516.3015632182017 179.40136512035215 C516.3026990382098 179.10328599893842, 516.5836052954066 179.01514581641456, 516.6320272068306 178.6782612598813 C516.6804491182545 178.34137670334806, 516.3821560458036 177.7388734557305, 516.5920946867451 177.38005778115263 C516.8020333276866 177.02124210657476, 517.7484436802749 176.49590241975744, 517.891659052479 176.52536721241412 C518.034874424683 176.5548320050708, 517.504814394341 177.45951510422765, 517.4513869199693 177.5568465370928" stroke="#000000" stroke-width="1" fill="none"></path></g><g><path d="M228.26417247319844 166.6267060091757 C228.26417247319844 166.6267060091757, 228.26417247319844 166.6267060091757, 228.26417247319844 166.6267060091757 M228.26417247319844 166.6267060091757 C228.26417247319844 166.6267060091757, 228.26417247319844 166.6267060091757, 228.26417247319844 166.6267060091757" stroke="none" stroke-width="0.5" fill="none"></path><path d="M229.53982471103197 166.52295848804474 C229.97021869013307 166.57575827752078, 230.7572378811926 166.5955411499583, 230.92870141382366 166.72567573834553 C231.10016494645473 166.85581032673275, 230.56029061227048 167.02424347576013, 230.56860590681836 167.30376601836798 C230.57692120136625 167.58328856097583, 231.01834797053613 168.15112921508472, 230.97859318111088 168.40281099399266 C230.93883839168564 168.6544927729006, 230.7222822958269 168.60702129155453, 230.33007717026695 168.8138566918157 C229.937872044707 169.02069209207684, 229.03727166457725 169.7465721747012, 228.62536242775127 169.6438233955595 C228.2134531909253 169.5410746164178, 227.9520084086162 168.52456050839763, 227.85862174931117 168.19736401696548 C227.76523509000614 167.87016752553333, 227.98941828978747 167.95166099483254, 228.06504247192112 167.68064444696668 C228.14066665405477 167.40962789910083, 228.09992346191294 166.8249420200313, 228.3123668421131 166.57126472977035 C228.52481022231328 166.3175874395094, 229.1436525183403 166.2796695944074, 229.33970275312214 166.15858070540094 C229.53575298790398 166.03749181639446, 229.51086199511906 165.7933874683867, 229.48866825080418 165.84473139573146 M229.61536399437892 166.7887138694749 C230.07979516864808 166.84627708276255, 230.96268550694037 166.6576780398016, 231.26297106550837 166.7511503288799 C231.56325662407636 166.8446226179582, 231.54318659872226 167.13988448127853, 231.4170773457869 167.34954760394467 C231.29096809285156 167.55921072661081, 230.75714518445784 167.6710606256594, 230.5063155478963 168.00912906487676 C230.25548591133474 168.3471975040941, 230.29431466156467 169.20135199662374, 229.9120995264176 169.37795823924876 C229.5298843912705 169.55456448187377, 228.4300115257216 169.35755329504525, 228.21302473701385 169.06876652062687 C227.9960379483061 168.77997974620848, 228.70222143972873 168.03577066836348, 228.61017879417108 167.64523759273854 C228.51813614861342 167.2547045171136, 227.5113493144725 166.99839853957627, 227.66076886366787 166.72556806687714 C227.81018841286323 166.45273759417802, 229.19319169556607 166.10766174249125, 229.5066960893432 166.00825475654378 C229.82020048312032 165.9088477705963, 229.45647765216643 166.15755524175435, 229.54179522633066 166.12912615119242 C229.6271128004949 166.1006970606305, 229.9879129775831 165.8455961991956, 230.01860153432867 165.83768021317215" stroke="#000000" stroke-width="1" fill="none"></path></g><g><path d="M646.7376006372585 219.02205380371385 C646.7376006372585 219.02205380371385, 646.7376006372585 219.02205380371385, 646.7376006372585 219.02205380371385 M646.7376006372585 219.02205380371385 C646.7376006372585 219.02205380371385, 646.7376006372585 219.02205380371385, 646.7376006372585 219.02205380371385" stroke="none" stroke-width="0.5" fill="none"></path><path d="M648.8323674314964 217.4374869352537 C649.2727929264588 217.6017945039872, 649.8901796339863 218.30919055716026, 650.0832211482893 218.55099850994736 C650.2762626625923 218.79280646273446, 650.0892351059955 218.66431590013784, 649.9906165173144 218.8883346519763 C649.8919979286333 219.11235340381475, 649.7588866490257 219.59334295008628, 649.4915096162028 219.89511102097805 C649.22413258338 220.19687909186982, 648.6638304607065 220.69123002412266, 648.3863543203769 220.6989430773269 C648.1088781800472 220.70665613053114, 648.0931505690115 220.06551898645006, 647.8266527742251 219.9413893402035 C647.5601549794386 219.81725969395694, 646.9306462861566 220.15136632169947, 646.7873675516582 219.95416519984752 C646.6440888171599 219.75696407799558, 646.8244290151777 219.0668788866344, 646.966980367235 218.7581826090919 C647.1095317192924 218.4494863315494, 647.3922880929842 218.25813727270418, 647.6426756640027 218.10198753459255 C647.8930632350211 217.94583779648093, 648.2190016153477 217.87445438987163, 648.4693057933456 217.82128418042217 C648.7196099713435 217.7681139709727, 649.0475582531676 217.70083700012333, 649.1445007319899 217.78296627789584 M649.1354713283732 218.2237363655886 C649.583226321847 218.27950073328503, 650.0943517020246 218.01284507117307, 650.2292352118642 218.2815049927007 C650.3641187217038 218.5501649142283, 650.0554988466821 219.41237706446054, 649.9447723874106 219.83569589475434 C649.8340459281391 220.25901472504813, 649.822799433583 220.65826960888708, 649.564876456235 220.82141797446354 C649.306953478887 220.98456634004, 648.7300698378974 220.78022136594612, 648.3972345233226 220.81458608821316 C648.0643992087478 220.8489508104802, 647.7429077639744 221.14983489270702, 647.5678645687858 221.02760630806574 C647.3928213735973 220.90537772342446, 647.5545973557525 220.58784775107918, 647.3469753521914 220.08121458036544 C647.1393533486303 219.5745814096517, 646.3777453417225 218.29985278855014, 646.3221325474191 217.98780728378327 C646.2665197531156 217.6757617790164, 646.5446341825736 218.25988059158323, 647.0132985863709 218.20894155176424 C647.4819629901681 218.15800251194526, 648.7800062706208 217.6716110564514, 649.1341189702024 217.6821730448694 C649.488231669784 217.69273503328736, 649.1092459641367 218.34885350261374, 649.1379747838606 218.2723134822721" stroke="#000000" stroke-width="1" fill="none"></path></g><g><path d="M301.0301424142322 278.8875376277065 C365.7986755867527 279.71507343426316, 434.75975976312924 279.30356278477456, 500.3195223888946 280.10746308263583 M300.6298986076512 279.78987099052597 C376.4971237239721 281.66930971546816, 452.9988738494177 281.99980811041536, 500.16926169511794 280.5836865288581 M499.04454411065683 281.20610311276704 C499.2117196681546 310.6576288486127, 499.40381520191664 344.9135502358182, 498.45262521758616 380.264145545287 M499.2519603537825 280.02595039071537 C500.44941881376224 319.23808067597093, 499.497847420321 358.32507258905196, 500.2315732946867 380.28583494999754 M498.74289491000627 379.854682494252 C442.4457748008715 379.49564528808133, 384.70903353231114 380.6466017000448, 301.33528804159903 380.9237994654922 M500.4357366494951 380.6612363106439 C456.3222641464311 380.7385126468649, 411.66556463776084 380.35282432360276, 299.43355210861273 380.5428099383586 M299.478440693267 378.9252942935468 C299.60547603730436 358.8216709785032, 299.53508558004137 337.7874462322613, 298.6049402274032 278.6333393495052 M300.48811297368405 379.33240250251 C300.77363323998355 354.75914060998963, 300.75386305205683 328.3831806625306, 299.7502146803783 279.9446330453869" stroke="#000000" stroke-width="2.4" fill="none"></path></g><g><path d="M301.60118599102657 278.960850926981 C289.7608532728254 298.13130196846066, 278.65966901112165 316.7038919355688, 271.7437828426472 330.8335864129986 M300.7582217673538 280.3374132654962 C289.86776481322244 296.1105179856006, 280.7756950664573 311.0512690026214, 270.0189050585516 329.8126573349068 M270.9366856616178 331.3902288630965 C280.3750817411065 347.25211290947175, 290.81688930167223 366.1932293213182, 299.496761873949 380.47364164345754 M270.84273104742124 330.91059322783565 C275.70622315859964 340.16248472908035, 282.48996879139173 352.52868697783146, 300.1900430008438 380.870472908212" stroke="#000000" stroke-width="2" fill="none"></path></g><g><path d="M498.08724155086594 281.3619117329106 C509.2484113993386 295.5669750167366, 518.606200464815 307.10575897333194, 528.3797272746788 329.0816032330313 M499.33722835954705 279.2157999183862 C505.2434137543638 291.0764254042364, 513.3125047409524 301.9507236930295, 530.1580628516986 329.8490038492189 M530.5572983010902 329.3767400935374 C517.5974897572764 348.07740240542313, 508.10429734769383 368.92195817888546, 501.705120555499 378.29940615661076 M529.1973001660009 329.32587693029046 C521.6800734048712 343.5738917771735, 514.4944636391245 355.4140620331364, 500.3166647000717 380.4638385657078" stroke="#000000" stroke-width="2" fill="none"></path></g><g><path d="M423.2989115760461 303.0459608414384 C431.06141436517396 288.2623285391311, 441.33639328627703 273.36276974563475, 452.44413531223296 263.5362137563988 M419.4416966937947 299.39289722359814 C430.4864152641599 287.61759776407405, 437.72806389531615 277.0188057979054, 449.26414424723333 259.85757670635564" stroke="#CC3333" stroke-width="3" fill="none"></path></g><g><path d="M451.8515602974483 261.270348536225 C461.6478944211873 272.016156300389, 470.34965786742686 276.23985427723574, 480.2646408345503 288.85075258670133 M450.556505721883 261.1626946528433 C457.6270949111624 266.4642281935501, 465.12959843219005 274.865955465123, 479.49145908618044 290.9225237770226" stroke="#CC3333" stroke-width="3" fill="none"></path></g><g><path d="M439.1209001230201 280.00157383360414 C448.4501846066263 268.1805975080872, 457.6208201573255 257.4907430533407, 460.99085108976294 246.35254170631814 M438.8267252792055 279.50491735921395 C443.8451914423956 271.9205324350445, 450.871968118477 264.420282454384, 458.0494663073011 249.7541117659289" stroke="#CC3333" stroke-width="2" fill="none"></path></g><g><path d="M352.78682732899193 304.0228842866582 C352.78682732899193 304.0228842866582, 352.78682732899193 304.0228842866582, 352.78682732899193 304.0228842866582 M352.78682732899193 304.0228842866582 C352.78682732899193 304.0228842866582, 352.78682732899193 304.0228842866582, 352.78682732899193 304.0228842866582 M353.79939913229134 315.25511323232035 C356.4718591270683 312.60249549141616, 358.77312203184243 310.760605130035, 366.3784722450011 303.3700484258913 M354.2238888584286 315.8192000866065 C356.04138033338296 311.59430639948914, 360.71648341056243 308.0088733641227, 365.17880822779284 302.03550307469584 M362.0808427278169 318.4686294013664 C364.3109592210214 314.6183812797054, 366.8286772172872 312.23014219488675, 369.46142449658424 309.9361321231229 M362.6241618205129 317.274407691096 C364.81548316101237 315.4755811138746, 366.93498180430237 312.8944003311676, 368.9117352138732 309.3600579333563" stroke="none" stroke-width="1" fill="none"></path><path d="M359.66238804138226 300.51367039321104 C361.32299546525445 300.11728450421975, 363.2359988518017 301.6826985227101, 364.77918727191746 302.8446228209142 C366.32237569203323 304.0065471191183, 368.29895765610286 305.8605696956844, 368.9215185620767 307.48521618243564 C369.54407946805054 309.1098626691869, 369.2317099963697 310.97506911088743, 368.51455270776046 312.5925017414218 C367.7973954191512 314.2099343719562, 366.48277726890456 316.3344196958561, 364.61857483042127 317.189811965642 C362.754372391938 318.04520423542783, 359.3596630680823 318.22359265778744, 357.3293380768607 317.72485536013676 C355.29901308563916 317.2261180624861, 353.5437588491365 315.6116078062448, 352.43662488309184 314.1973881797379 C351.32949091704717 312.783168553231, 350.61716600343544 310.94794368613134, 350.68653428059275 309.23953760109544 C350.75590255775006 307.53113151605953, 351.0661016919928 305.1487617325391, 352.8528345460356 303.9469516695226 C354.63956740007836 302.7451416065061, 360.0299826874114 302.46287692852985, 361.4069314048493 302.0286772229963 C362.78388012228714 301.59447751746274, 361.2372118685576 301.1663158428361, 361.11452685066286 301.3417534363212 M357.7603116091811 301.90375644858364 C359.7705792424547 301.4733375542683, 363.35195487938 301.2522152897369, 365.2404949909134 301.9809960618398 C367.12903510244684 302.70977683394267, 368.50848935316776 304.35892187337066, 369.09155227838164 306.2764410812008 C369.6746152035955 308.19396028903094, 369.2065994594249 311.76537586437917, 368.7388725421969 313.4861113088207 C368.2711456249688 315.2068467532622, 367.9065558825341 315.68891388450925, 366.28519077501346 316.6008537478499 C364.6638256674928 317.51279361119055, 361.3403648620858 319.1277720736065, 359.010681897073 318.95775048886475 C356.6809989320603 318.787728904123, 353.76712582608934 316.7783110991727, 352.30709298493707 315.58072423939956 C350.8470601437848 314.3831373796264, 350.32791693860855 313.5632455676689, 350.2504848501594 311.7722293302261 C350.17305276171027 309.98121309278326, 350.7377274686638 306.73369875520723, 351.84250045424227 304.8346268147427 C352.9472734398207 302.9355548742782, 355.72880537862 300.70177302717985, 356.87912276363 300.3777976874391 C358.02944014864 300.0538223476984, 358.3332766569068 302.396341810499, 358.7444047643021 302.89077477629826" stroke="#000000" stroke-width="2" fill="none"></path></g><g><path d="M358.44622052662373 317.70358890139903 C358.86599064425627 327.5966512152409, 361.7931178635886 333.6528720345829, 360.56212565845465 344.08893314505156 M359.19971173341213 319.8577855179583 C360.1900331518287 327.7021356580906, 359.03370060256987 337.79813426052004, 360.12688908436195 345.6392168186291" stroke="#000000" stroke-width="2" fill="none"></path></g><g><path d="M361.54852841963515 345.164713319534 C359.7116220845101 351.62258793904505, 356.7477985559353 354.4781082422201, 353.59054000271504 363.6759527047874 M360.0323845045759 345.981517888727 C357.5891607662708 351.0256931844821, 355.55561912518283 357.5406986150741, 351.20346120047543 364.6517531314308" stroke="#000000" stroke-width="2" fill="none"></path></g><g><path d="M359.8688971995999 343.6673035936347 C361.1950740315933 352.3107209311109, 363.697156068847 357.1408770576153, 367.37885899179275 363.8384968132343 M359.651862441358 345.03839949063865 C362.48265906985677 352.4725913453767, 365.702291523524 358.67497500016515, 368.02139753247235 364.0899019766417" stroke="#000000" stroke-width="2" fill="none"></path></g><g><path d="M358.92305142439346 328.7272619246637 C362.6472678362878 327.8663276929995, 366.7859372577564 323.8693475039759, 372.7547392715494 322.4154270348577 M360.2016008102482 329.7671891684285 C362.48150560944936 327.55604535735216, 366.98512627342916 326.1154472740451, 372.2373660176528 321.8011268266318" stroke="#000000" stroke-width="2" fill="none"></path></g><g><path d="M541.3470723637997 380.93372392263853 C560.2292469808981 379.9335366103299, 583.5590367120734 379.89870957535913, 619.3207239217397 379.83602742404565 M540.5190750197971 379.3384720912008 C566.800508081338 379.8249310101096, 593.1411338735904 380.4379499830489, 620.0181503327002 380.2934023291163 M618.9662190522289 378.73972489975785 C618.9285319445091 412.2749592038259, 620.9964075623724 443.08066296557894, 619.9417187809069 480.6385676137615 M620.6964007597153 379.59633854121773 C619.9332773968929 417.26432902548464, 620.6929429560964 454.4557081736595, 619.5324159767705 480.0144306914094 M621.5202551283656 481.57544254113844 C600.946368686128 480.4684721632085, 584.4007826202728 480.5797183222768, 540.9513886811418 479.8637242185481 M620.7557917681536 480.12695345825455 C597.0834034096509 480.8682650673033, 574.4287719380466 480.2708747102304, 540.1887314154407 480.06649466344174 M538.5134612177721 479.21298868104014 C539.5726629887344 447.7312317615259, 539.9340247743366 415.82811228990954, 538.5530977076725 378.57793998127926 M540.2880694869713 479.8601992353669 C539.3635986399136 451.41250626653294, 540.3850454364476 421.8814449558277, 540.6368317539673 380.3094061105684" stroke="#DAA520" stroke-width="2" fill="none"></path></g><g><path d="M548.2075164800106 393.5762691461888 C565.0096213996624 393.286308038569, 583.0264098264291 394.55026441047283, 611.578154472212 393.2640528484577 M549.4336506353753 395.7738249928964 C563.3815692191248 394.9528213560123, 578.4270125487371 394.33550334751675, 609.1324829998435 394.9753191094932" stroke="#DAA520" stroke-width="1.4" fill="none"></path></g><g><path d="M547.4465712917496 415.4807391298612 C566.3502478739381 413.01715357650454, 579.1420385508808 412.3850755089322, 608.9339556736456 416.2995127834232 M550.3662808259048 415.0022693907384 C568.4356155146959 414.74619248715794, 586.4030686831563 413.6781010362929, 610.3232519910623 415.90715624805233" stroke="#DAA520" stroke-width="1.4" fill="none"></path></g><g><path d="M552.1362723129118 433.41806856731654 C573.8871009486354 435.1901945286798, 598.9487901753266 435.84586822139283, 607.5485106789935 437.85248956686263 M549.4739510644881 435.2749287296929 C564.7380717866856 435.9476396112303, 577.7521463445098 435.95911183705635, 608.9277162142256 436.03327106782353" stroke="#DAA520" stroke-width="1.4" fill="none"></path></g><g><path d="M550.5610570622259 457.7495015358552 C567.5560434346529 456.0176611146765, 583.3377248999291 453.23711645410003, 611.8630451816405 457.45083840118514 M549.6257788155266 454.7302025143489 C563.6718918215959 453.9015425541672, 578.9788591597447 455.8340267253043, 609.0205116577038 455.32717924408547" stroke="#DAA520" stroke-width="1.4" fill="none"></path></g><text x="400" y="560" text-anchor="middle" font-family="sans-serif" font-size="16" fill="#222" font-style="italic">"Make the next step smaller until your nervous system stops blocking it."</text></svg>