<?xml version="1.0" encoding="UTF-8"?>
<svg width="800" height="600" viewBox="0 0 800 600" xmlns="http://www.w3.org/2000/svg"><rect width="800" height="600" fill="#FFFFFF"></rect><g><path d="M148.36539994703324 430.5460365769806 C191.71456480910575 431.0980266678689, 233.51784574896806 432.6944587125982, 301.93643594597256 430.7216383997242 M149.59007042535504 430.0649224093142 C200.8396441684672 431.3760158986665, 251.13119976497097 431.34278176622087, 299.8439070060973 429.18358497384213 M299.8130391783558 428.99594016688087 C301.4400082039888 464.7330072897483, 300.56060971783944 496.03356631196357, 298.2147715720605 518.003458079082 M300.3448033474564 429.4234573823053 C299.6542762086335 451.43064382357494, 300.10643150460874 472.6418096533501, 300.28986351210574 520.6169777733966 M300.57054224748754 521.5015769912546 C264.62532412285134 521.8998960430681, 230.26931546619073 521.8781859140247, 151.84386670532552 521.2901519249469 M299.2278709878214 520.049925719614 C261.3394392603375 520.8215835946543, 223.5025395120346 521.5595098001569, 149.26308459765303 520.6582886475821 M151.81412663295433 520.0877143729193 C151.48102193896503 497.58369338379345, 148.25622230284176 475.0903589941746, 150.5886352828415 428.38218536440024 M150.87333480832922 520.5960765390839 C150.3709485391117 487.586381141777, 149.99783311197874 455.5605070162659, 150.738177464408 429.54265122876285" stroke="#000000" stroke-width="2" fill="none"></path></g><g><path d="M500.5864774236107 299.61383983298134 C549.6822521014312 299.90285936648735, 596.6778185284393 301.23135303187337, 649.2087601382038 301.17589105683857 M499.6758964954345 300.20288003140814 C554.8519595326702 301.10902824022224, 612.1962312738236 300.624208908114, 649.5532163204077 299.38424099400453 M650.9650201456534 299.3002868612334 C652.3561520524347 360.43663622149637, 651.8199798965082 417.4786794197101, 650.9076436064657 519.5051368692082 M649.4217332126675 300.01779710448335 C651.1443964030271 371.3359229934991, 650.5608586794406 441.1087233849905, 649.4235200950371 520.4989114948701 M651.1630075094421 520.3868029126241 C605.7964140943724 520.1298243892563, 563.3303113993737 522.4156486734973, 499.01057165899624 520.8014567338195 M650.3986398516643 519.805287717526 C615.0605536492006 520.1692017235004, 580.5079163213916 520.2666488582452, 500.896408940367 519.7480729534421 M498.8573767413311 518.4722594897999 C502.98210876977396 435.2345684858483, 502.5416009553215 349.6971098886637, 500.7357586344536 300.7388683161124 M499.8285629192099 519.726874909545 C499.19652198060516 453.9112842243588, 499.0173218777324 389.05462212288654, 500.2297623706898 299.63119478002045" stroke="#000000" stroke-width="2" fill="none"></path></g><g><path d="M219.24354537842726 327.06184466420444 C219.24354537842726 327.06184466420444, 219.24354537842726 327.06184466420444, 219.24354537842726 327.06184466420444 M219.24354537842726 327.06184466420444 C219.24354537842726 327.06184466420444, 219.24354537842726 327.06184466420444, 219.24354537842726 327.06184466420444 M219.19460008967917 340.50908454598584 C221.47783867258178 337.0131801600306, 227.97147589222604 328.16235899244776, 229.8510107497731 325.00490567825005 M218.03732717088124 339.7124343200898 C223.38741655392144 334.7505785521105, 228.49858549977856 328.6273460025548, 231.2297323306675 324.92772627498204 M221.71923740112288 349.33224176910863 C227.64310757463326 345.4412264670542, 229.13590644002795 339.2820463987042, 242.04460610506612 328.40415832720186 M220.90321738601452 349.76974372758895 C226.1108521508098 342.11645891516656, 232.59135933248572 337.3920167004747, 240.47816842069847 326.02915913230174 M226.12672707043393 352.64994353879985 C235.08820949066563 346.57385938892594, 240.57571368096495 338.9123588107881, 248.3674586619127 332.3216829101763 M228.09874338504576 354.26195409448803 C231.61902722412333 348.22142399937394, 236.82155161268142 342.226869406789, 246.79151124996707 332.21925056026845" stroke="none" stroke-width="1" fill="none"></path><path d="M228.37650101131473 321.6115267237622 C231.31452612959464 320.8078290468535, 235.14215338229167 322.99112322159164, 238.10259697835735 324.8418624628934 C241.06304057442304 326.69260170419517, 244.9641048482468 329.73815006756803, 246.13916258770882 332.71596217157276 C247.31422032717086 335.6937742755775, 246.45769853859986 339.6487421444406, 245.1529434151296 342.70873508692176 C243.84818829165937 345.76872802940295, 241.08588314229408 349.15249193507566, 238.3106318468874 351.07591982645994 C235.5353805514807 352.9993477178442, 231.61553520270218 354.8387912305883, 228.50143564268953 354.2493024352275 C225.38733608267688 353.6598136398667, 221.84971750049303 350.19454006001513, 219.62603448681153 347.538987054295 C217.40235147313004 344.8834340485748, 215.24029787573193 341.70904117488783, 215.15933756060053 338.31598440090664 C215.07837724546914 334.92292762692546, 216.77225071792816 329.99698739565775, 219.14027259602327 327.18064641040786 C221.50829447411837 324.36430542515797, 227.59693868400677 322.1967569593913, 229.3674688291711 321.41793848940716 C231.1379989743354 320.63912001942305, 229.8831722095616 322.08784171068, 229.76345346700916 322.50773559050316 M234.33696381902087 322.85466957468446 C237.39401029719176 322.70605896742364, 240.09653649141967 323.6340480357755, 242.332077317618 326.30483105962776 C244.56761814381633 328.97561408348, 247.65885341841613 335.2882962665085, 247.75020877621077 338.8793677177981 C247.8415641340054 342.47043916908774, 245.22242345946717 345.20947692964756, 242.88020946438579 347.8512597673654 C240.5379954693044 350.4930426050832, 236.9029719157638 354.28270922803983, 233.69692480572246 354.7300647441051 C230.49087769568112 355.1774202601704, 226.62081644603018 352.2178676114724, 223.64392680413778 350.53539286375684 C220.66703716224538 348.8529181160413, 216.95848282017153 347.7958363455158, 215.83558695436798 344.6352162578117 C214.71269108856444 341.4745961701076, 215.67378909640996 334.99042231720057, 216.90655160931644 331.57167233753216 C218.1393141222229 328.15292235786376, 220.46065635256417 325.59779605584595, 223.23216203180692 324.12271637980143 C226.00366771104967 322.6476367037569, 231.82627928726896 322.773716990352, 233.53558568477294 322.7211942812652 C235.24489208227692 322.66867157217837, 233.41135954789885 323.79100754512854, 233.48800041683072 323.80758012528054" stroke="#000000" stroke-width="2" fill="none"></path></g><g><path d="M224.1061394342329 354.40576976334006 C225.4831548369873 371.79697767362217, 226.6062943219291 389.1539402814915, 223.03489369161863 400.6222719410415 M225.88550116671425 353.59106180649917 C226.15732340731518 370.8200528955493, 225.09514606316102 387.29591671363426, 224.81459082487436 399.20383235006494" stroke="#000000" stroke-width="2" fill="none"></path></g><g><path d="M226.82328676536926 398.6413445631988 C219.1458488905932 410.7261984178087, 216.5128674087221 417.9952784603905, 208.9912730713623 428.6489198473815 M224.88742378545118 400.15722337512227 C219.57848742382254 409.80919965726883, 214.28088837885437 418.60008372795943, 210.28155101008775 430.36864549739647" stroke="#000000" stroke-width="2" fill="none"></path></g><g><path d="M224.68976587992816 401.9414625410247 C226.70629000285354 406.4899927585263, 231.53620800874765 411.93072668256195, 238.60815097461057 428.6970299010666 M225.09349449741094 400.73769254068594 C230.80611581058815 410.1300682217274, 235.13108991537945 419.433208084992, 239.69235140164204 429.1281532052148" stroke="#000000" stroke-width="2" fill="none"></path></g><g><path d="M225.99552582765884 365.8177301656461 C215.0864664068899 374.2376721276555, 207.2714620563543 380.9620445331843, 194.99258162276968 396.7472249354114 M224.03528367544232 364.2627022120209 C215.9216368151078 374.8655443270784, 207.6371448180347 383.92979957372063, 194.25028424246887 395.5773262082939" stroke="#000000" stroke-width="2" fill="none"></path></g><g><path d="M181.70546224591112 400.43152630197005 C181.70546224591112 400.43152630197005, 181.70546224591112 400.43152630197005, 181.70546224591112 400.43152630197005 M181.70546224591112 400.43152630197005 C181.70546224591112 400.43152630197005, 181.70546224591112 400.43152630197005, 181.70546224591112 400.43152630197005 M184.32057376595793 405.6569789147739 C185.6061600164438 404.6912942660095, 188.91379737385773 401.9506671858732, 193.614889738912 397.45238712813926 M184.87737231642808 405.4377004224738 C186.05674663859605 404.0613015275584, 188.25361626744254 401.7511769118519, 192.52992197833194 396.4958815386136 M190.39680009870557 407.63749915269545 C193.80160611934144 406.1617106109629, 195.4783440160312 403.6115722102931, 196.69014200486376 401.18744949644713 M191.10643812398428 408.49549367612985 C192.10157064865746 407.08886971340473, 193.33073039144435 405.551820148835, 196.6854688654059 401.1324633030941" stroke="none" stroke-width="0.8" fill="none"></path><path d="M189.28351945761415 395.53611732195446 C190.82268834095294 395.7676590953681, 193.54956988721054 396.7081773542145, 194.77440186445807 397.8702215562625 C195.9992338417056 399.0322657583105, 196.80427708394993 400.9611758036491, 196.63251132109932 402.50838253424223 C196.4607455582487 404.05558926483536, 194.59921921458488 406.2226858221786, 193.74380728735446 407.1534619398211 C192.88839536012404 408.0842380574636, 192.86568222604603 408.03484712597566, 191.50003975771688 408.093039240097 C190.13439728938772 408.1512313542184, 186.8682560819344 408.061205129285, 185.54995247737958 407.5026146245493 C184.23164887282476 406.94402411981366, 184.17847574888137 405.9803946365161, 183.590218130388 404.7414962116829 C183.00196051189462 403.50259778684966, 181.65180503590855 401.3356121634261, 182.02040676641928 400.0692240755501 C182.38900849693002 398.8028359876741, 184.0026117463301 397.7517238616965, 185.8018285134524 397.14316768442694 C187.60104528057468 396.53461150715736, 191.36747103613692 396.4346533250889, 192.81570736915296 396.4178870119328 C194.263943702169 396.4011206987767, 194.62145948816428 396.96715047314007, 194.49124651154867 397.0425698054904 M186.4766650880435 395.5273093904269 C187.8166993308216 394.88053844444954, 189.64478899100965 394.47261228201927, 191.16125784844596 395.052466455448 C192.67772670588226 395.6323206288767, 194.85144077960973 397.9325453010531, 195.57547823266137 399.00643443099926 C196.299515685713 400.08032356094543, 195.94826759468322 400.41569003811094, 195.50548256675575 401.49580123512493 C195.06269753882827 402.5759124321389, 193.85444232094514 404.02157594645894, 192.91876806509657 405.48710161308304 C191.983093809248 406.95262727970714, 191.1497813669806 409.7698337448672, 189.89143703166428 410.2889552348697 C188.63309269634797 410.80807672487225, 186.71132896573783 409.6469347110292, 185.36870205319866 408.6018305530981 C184.0260751406595 407.55672639516706, 182.49633277181078 405.6680173930452, 181.8356755564293 404.0183302872833 C181.1750183410478 402.36864318152135, 180.56876311314295 400.09392407303733, 181.40475876090977 398.70370791852656 C182.2407544086766 397.3134917640158, 186.19425259247166 396.0087492574961, 186.85164944303014 395.6770333602186 C187.50904629358863 395.3453174629411, 185.69717014204556 396.8058294098983, 185.34913986426062 396.7134125348617" stroke="#000000" stroke-width="1.6" fill="none"></path></g><g><path d="M226.9583359659905 363.9926409030762 C232.9715584406331 373.53886028060396, 239.51763002612188 379.87624104700086, 245.92847574487058 390.080565957624 M225.4328663315689 365.85803586656704 C229.5127254210286 369.6693317761706, 232.86697453387995 375.9367384318849, 247.57008478344426 391.1028337314067" stroke="#000000" stroke-width="2" fill="none"></path></g><g><path d="M243.2159230061912 331.83141143720496 C312.1073258141829 306.58102937915277, 375.47637643437 283.2738672634826, 473.15762482264273 248.58748289336773 M243.69557321521054 329.49050180622424 C320.9402241034539 301.4692292154432, 398.30545628799564 274.9610682297585, 475.36231949932824 250.39815409765816" stroke="#aaa" stroke-width="1.2" fill="none"></path></g><g><path d="M562.378005415016 200.0149091967746 C562.378005415016 200.0149091967746, 562.378005415016 200.0149091967746, 562.378005415016 200.0149091967746 M562.378005415016 200.0149091967746 C562.378005415016 200.0149091967746, 562.378005415016 200.0149091967746, 562.378005415016 200.0149091967746 M560.4228474341003 214.44985583266066 C563.7984406138022 208.46867450212872, 569.994780898004 207.75367022797795, 576.4143939126695 197.43063076411616 M561.6649977179007 212.90075448863308 C564.2313213449248 210.52210402255272, 568.222255876684 206.26698610339912, 576.6475896941696 196.63152235885224 M564.5446877107735 221.63845513590115 C571.2875723448624 213.01944536152612, 582.1092111144808 201.5332688596677, 585.1290892968096 200.07171023248225 M566.2503151701128 220.5939981099588 C572.3335692428202 212.34443926239106, 579.578517157112 204.91439799597347, 585.9010540116124 199.30806049455757 M574.219646090416 226.33073547187752 C578.4871702797785 219.04420320654836, 584.8355767976352 208.50761852264887, 591.0021831936207 203.32975227876355 M572.63940505856 225.36276344245468 C578.1491061798756 216.53061281410393, 585.9252494010116 208.72263799939714, 590.1003781883727 204.32982252957677" stroke="none" stroke-width="1" fill="none"></path><path d="M570.3549467687618 195.46265260376174 C573.3453429489416 194.19888042667998, 578.8496892816033 193.71895051470284, 582.127492313598 195.2262579544552 C585.4052953455928 196.73356539420757, 588.8454398265184 201.33239466605153, 590.0217649607305 204.50649724227588 C591.1980900949426 207.68059981850024, 590.289964126913 211.30931520820016, 589.1854431188709 214.27087341180143 C588.0809221108289 217.2324316154027, 585.9559060330761 220.3933826312387, 583.3946389124781 222.2758464638835 C580.83337179188 224.15831029652833, 576.9440108261433 225.96514526664632, 573.8178403952829 225.5656564076703 C570.6916699644225 225.1661675486943, 567.104498110442 222.32891745101318, 564.6376163273161 219.8789133100274 C562.1707345441902 217.42890916904162, 559.4327522012435 214.1307435358865, 559.0165496965276 210.86563156175552 C558.6003471918117 207.60051958762455, 559.3985767524556 202.94359750920847, 562.1404012990205 200.28824146524147 C564.8822258455854 197.63288542127447, 572.5427166346315 195.81100052702084, 575.4674969759168 194.93349529795356 C578.3922773172021 194.05599006888627, 579.7779037642262 194.75382528319582, 579.6890833467324 195.02321009083784 M573.3196910609212 196.24180278567974 C576.5626034032912 195.63895350693778, 581.2890964691898 194.65859989575208, 584.2319290098571 196.22835091702655 C587.1747615505245 197.79810193830102, 590.1392503631854 202.22908746715154, 590.9766863049257 205.6603089133266 C591.814122246666 209.09153035950163, 590.7090887063134 213.8051440232743, 589.2565446602991 216.8156795940768 C587.8040006142849 219.82621516487933, 584.9931529456258 222.3634227124374, 582.2614220288402 223.72352233814175 C579.5296911120547 225.0836219638461, 576.1556351241433 225.5861182144285, 572.8661591595859 224.97627734830297 C569.5766831950285 224.36643648217745, 564.5484620358379 222.52495850235414, 562.524566241496 220.06447714138864 C560.5006704471541 217.60399578042313, 560.7447158168684 213.79580305347406, 560.7227843935344 210.21338918251004 C560.7008529702005 206.63097531154602, 560.4869877112365 201.1628723258123, 562.3929777014922 198.56999391560458 C564.298967691748 195.97711550539688, 570.3890312268409 195.19902865838338, 572.1587243350688 194.65611872126377 C573.9284174432967 194.11320878414415, 572.9310380364275 195.1270489941176, 573.0111363508593 195.31253429288682" stroke="#000000" stroke-width="2" fill="none"></path></g><g><path d="M574.2900984919852 223.2489918631723 C576.2085579024425 235.7133774285426, 575.6996157080099 245.04589267548806, 574.5562675854794 268.6821073386404 M574.1677080352698 224.5751597017312 C574.8594276857382 239.92506204857062, 575.2739824936431 252.93926504108725, 574.0112843597564 269.3539234874357" stroke="#000000" stroke-width="2" fill="none"></path></g><g><path d="M574.5777729324336 271.75551105049044 C570.6451877455436 279.13361542809685, 565.1725618635056 285.41492408716084, 560.0699288928837 298.86726145168467 M575.7001441492608 269.98578855942117 C571.4491974274875 276.91570606440183, 567.203673401529 283.65969051133226, 558.8409329179678 300.0012516121296" stroke="#000000" stroke-width="2" fill="none"></path></g><g><path d="M575.7717721451754 271.563542078187 C581.6712444892441 280.2669780210964, 585.7838289134223 292.03263967987203, 590.8017690808099 300.8967593448258 M574.916239755819 270.5859995756929 C579.0542594121324 279.1019878493119, 583.078932898274 287.3638872561444, 590.2862479606548 300.2486809148607" stroke="#000000" stroke-width="2" fill="none"></path></g><g><path d="M574.8709057922906 235.06157619655212 C567.6441657656092 227.08834657585314, 562.314975790791 219.86866006080675, 549.0397589952009 202.60923360883268 M575.2598361580937 236.06076173935276 C567.6645055231212 226.4953929895546, 558.6232787640672 216.99721512821236, 548.7278304165652 204.3623616587673" stroke="#000000" stroke-width="2" fill="none"></path></g><g><path d="M575.7972297880737 238.66845478311635 C581.4040034496088 229.02102108409463, 591.285411343951 215.56308022820735, 602.35738269508 205.61266853086687 M575.8317702187692 237.24281128181065 C580.184012231711 229.72661648524917, 585.9726141474673 223.57580933522016, 601.9864979745395 203.8117572617078" stroke="#000000" stroke-width="2" fill="none"></path></g><g><path d="M575.3040116466783 162.3207938350009 L581.7041678718942 174.95979013892938 L595.2273380877349 178.4431897039047 L584.356251993019 186.43211742902707 L587.0206088121782 202.8328452202668 L574.247810697378 191.2737710398639 L562.9801319261715 200.55984632551503 L564.9820914842941 188.1270225626744 L552.2145458139187 175.45418631537274 L568.4669403116598 176.55403945497991 L574.4415507311867 160.606124997228" stroke="none" stroke-width="0" fill="#DAA520" fill-rule="evenodd"></path><path d="M576.2376309787013 161.98436067931212 C578.0434362686508 168.45167400851867, 577.5153091808918 171.91566205527107, 581.597111316394 176.32685293074127 M575.1409383787213 161.54035362565193 C576.3737147897248 164.85476268797856, 577.7123642226675 167.43925995163886, 580.6148950740458 176.6080508139837 M579.5742699622452 178.22163074421576 C585.2726583872271 177.2685040202667, 588.6863229684939 176.8597936671075, 596.1626978191418 175.99975814706008 M579.6371245094491 177.2686770242811 C584.6885352483491 177.07061584823276, 589.3185486753799 176.69603393239115, 595.5552579603243 176.851553254816 M596.6256767860634 175.99849306807417 C591.2847609969095 180.86574296563592, 587.6832042549349 183.82511333294843, 582.7314207453487 187.4687470351479 M596.2029048926269 177.97182471408624 C592.4785264902436 181.04010469093387, 587.1017137330972 184.24151363728342, 583.669895787291 186.17394368139736 M584.0965943055213 185.31152943945926 C585.7927476957715 191.77701761665946, 584.6845710164263 196.61510270136978, 588.3738229071587 202.49406094625488 M583.9527774535252 187.16914054783717 C585.773250763825 191.04612042324132, 586.8030012921623 196.6091458395684, 588.5732417751248 201.51710695680356 M587.820177554155 202.753052672797 C585.2167790763467 198.47842927175196, 580.3625370420795 197.21804170539247, 574.8853793961318 194.3853229584668 M587.723259635561 202.19843808643589 C583.4787791691857 199.31339873705235, 579.5389701579518 195.98702957214962, 575.5384556660813 193.54957351331265 M573.648138336356 193.2342290473032 C571.0810115240745 196.05628283721276, 568.5857310899803 196.46968906480862, 561.6598763726988 201.31776042013084 M575.1221124288493 192.24027489189544 C569.5422819791189 195.69491488226905, 565.159680013708 200.0185031055137, 561.9179405448432 202.06207260106325 M563.5411824952332 202.76631754734336 C561.4507865447164 198.72692758370246, 563.1755912044725 197.03326218902507, 567.9265252814404 185.76148244796656 M562.1247838879493 202.52471969717766 C562.8821645776092 198.60893785358363, 564.0120323523136 195.44222833752275, 566.3574638266324 186.26590770891366 M565.1468182832862 185.91610877769762 C560.3348983080438 183.53299563773245, 556.367527596471 178.60607198058855, 554.6979968909573 178.12999769601907 M565.9335536785334 187.4949706738007 C563.0078875603127 185.15337270998162, 561.3395988549353 182.60497912883696, 553.633896106946 177.59733070456645 M554.2071103428073 177.93725625711178 C556.4689996976401 176.4539408414054, 560.8900851453157 178.26134415673772, 570.6893103850414 176.38675779442536 M553.3711261719125 177.67052197115513 C557.9158258413747 177.3308459072833, 561.9030208414584 176.53208096217801, 569.9412116611225 177.2171639001782 M570.0785618409664 176.80275305377586 C573.1439493290335 170.72762441814143, 573.4230505840372 166.2346148872134, 576.5462745349245 163.1202753106367 M569.4519414754201 176.13289317417247 C571.6493274643981 171.43925352931, 573.6158359664431 164.38786977131954, 574.3791513569687 162.26035915985594 M575 162 C575 162, 575 162, 575 162 M575 162 C575 162, 575 162, 575 162" stroke="#B8860B" stroke-width="2" fill="none"></path></g><text x="400" y="560" text-anchor="middle" font-family="sans-serif" font-size="16" fill="#222" font-style="italic">"Comparison is the thief of joy."</text></svg>