<?xml version="1.0" encoding="UTF-8"?>
<svg width="800" height="600" viewBox="0 0 800 600" xmlns="http://www.w3.org/2000/svg"><rect width="800" height="600" fill="#FFFFFF"></rect><g><path d="M368.95661601381016 100.8390874923615 C367.7401321732027 235.59852794735667, 368.9218821802604 372.21983276693265, 370.24755003898025 458.77072390458045 M370.0558091103126 99.70902146196818 C371.44369817432226 232.75743073601367, 371.71674537316557 366.00860307646224, 369.3816456249326 459.69894568587625" stroke="#000000" stroke-width="2" fill="none"></path></g><g><path d="M429.5724439545183 100.80910418740241 C429.021950783258 197.62118929147005, 428.0688739706642 296.3880148942191, 429.2378217791667 460.9428404592846 M430.2931676349326 100.36175380988962 C427.5410115923573 239.77874721912073, 427.2913024025013 379.9664251136149, 429.8657141534458 459.91007309505284" stroke="#000000" stroke-width="2" fill="none"></path></g><g><path d="M371.33620301777506 140.40756927682975 C389.00800769445794 138.8234292728169, 410.3414949555565 139.96545326411896, 429.7286834568371 141.02900322890326 M369.8357303892696 140.1835346650196 C389.6018605126528 141.15179195318933, 409.8868819881222 140.56138455392858, 429.2512379429967 139.23213399070053" stroke="#000000" stroke-width="2" fill="none"></path></g><g><path d="M371.5116426577726 191.5702514202848 C388.6089969739286 191.5788264302148, 404.10035462274743 190.80062915086583, 431.5154513923589 189.22036751161482 M369.36174308327867 189.22229361197495 C382.0928163314276 190.2135311633508, 394.64309232436034 189.9797297890994, 429.4720981893583 189.0968805418157" stroke="#000000" stroke-width="2" fill="none"></path></g><g><path d="M370.0108964330039 238.51259409509063 C387.60084981165807 241.45759654718037, 401.4567314812623 240.70023756072763, 431.9845544896337 241.56749455964007 M370.098439586946 239.09761312909208 C383.381070927532 240.4434411948766, 396.0686630538717 240.67089347905687, 430.3960916047001 239.99766248519444" stroke="#000000" stroke-width="2" fill="none"></path></g><g><path d="M370.19409355098264 290.9183966736153 C390.10828952030647 291.1724506592124, 408.9467562087534 292.1622425493339, 429.4572149593232 291.12411301427574 M369.0458387209824 290.53322150311845 C391.9220801107564 289.44514278719777, 416.04569708385486 291.09165630967715, 430.3910354265083 289.9865364031608" stroke="#000000" stroke-width="2" fill="none"></path></g><g><path d="M371.41772413232644 339.0671016849363 C391.8737155376185 339.68166438009894, 414.57668548535116 341.6489961114771, 430.41489079624773 340.45926036104686 M369.22093174746817 340.3923664198134 C391.2250162976693 338.95897303626964, 410.8941723189755 339.9779898768027, 429.24478141827046 339.132778584431" stroke="#000000" stroke-width="2" fill="none"></path></g><g><path d="M371.01862599397975 389.9378756386197 C392.35967939878515 391.8848290823398, 415.0351949341386 389.27895975881523, 431.6807549722803 390.4646047907572 M370.00955424510374 390.8887616597366 C392.98192590463594 389.30873711796016, 415.41354658454446 389.14029981307993, 429.43416862392036 390.83825480718434" stroke="#000000" stroke-width="2" fill="none"></path></g><g><path d="M370.5811595254855 439.80218370319693 C390.1584879768167 441.6023809246067, 413.1978992449915 441.3217300954399, 430.96215023204616 441.4857101932021 M370.9230046027724 440.678339900583 C390.80497103933766 438.55086766933147, 409.3335877489797 439.93664654012935, 430.2328400776531 439.9560567598189" stroke="#000000" stroke-width="2" fill="none"></path></g><g><path d="M399.09176269392975 58.00179814313392 L403.2536712073061 68.88435689768619 L416.5279039164058 70.28259845179387 L406.41192305418025 78.45228067211323 L410.94336503034384 89.49591387872339 L399.1850702720529 83.09364461135033 L388.2478016885364 89.94650199541894 L392.30271828027765 76.31319881752226 L381.8520823504901 68.56732464311838 L395.37995714773575 67.35982513808355 L398.71170177020144 56.852700236682864" stroke="none" stroke-width="0" fill="#DAA520" fill-rule="evenodd"></path><path d="M399.376423874421 56.14205222794888 C401.13704683852546 60.96018586461428, 402.91433130199874 63.20790671965669, 403.9661815897397 67.72213969801047 M400.4727081199123 56.575901086390644 C401.23637117620086 60.98653796612634, 403.05037647691523 64.41879990680367, 404.9742643673367 68.46571548171981 M405.61321548067133 68.42501098026362 C407.97393636458753 68.71157270287785, 409.653608486273 69.5547535009468, 416.18274417809357 69.44664588992595 M404.84316725282815 68.64745734648432 C408.6891962100025 69.27373330656553, 412.7956927053509 69.41943313011623, 417.4642405547556 69.65468504247858 M416.2225120873871 69.45939548443111 C415.07040156116176 70.6189306586317, 413.39974617705195 73.13677750702685, 406.9306371475604 77.63070014873334 M417.0733832314481 69.44724540493937 C413.64237367953416 72.1152126474074, 410.4201400629187 74.38794197151282, 407.82976902924344 77.23216009042606 M407.24857020807303 76.78018083145463 C408.65997972669174 81.18612638694233, 410.62331679290446 85.73331007829282, 411.0443481841518 89.7600906193463 M407.74438917461424 77.66230421218427 C408.48124062426336 80.79525888512384, 409.54151603645454 83.60688006347999, 410.4972210005574 89.5088859808298 M409.87351781750334 89.1818878768983 C406.99928915551845 88.58290304864835, 405.2811185779783 86.53355121090607, 399.6202619461269 82.70591171420945 M410.7384516148314 89.39550294519238 C406.59861420746006 87.35041997820655, 402.9135800289839 84.57740605457293, 400.00461389541834 83.395129453589 M400.3328000472474 82.69091363459953 C397.97017988678556 85.031507030628, 394.52170843328395 85.53085625774341, 388.44207113614857 90.0770444150819 M399.9009004744533 82.54022868962969 C395.89739291027087 85.29608195316253, 392.1211203855742 87.92303884926727, 389.6190082385526 90.05743597032502 M388.4492825510527 89.66729623772632 C389.99181105927096 85.77203602794427, 391.75955780457963 81.54898897151901, 391.7585437109243 77.85298732324199 M389.14196985993954 89.99514687701401 C390.1878777658857 87.25125752063683, 390.4821241187685 84.51056959427301, 392.06371241169575 77.11198058581412 M391.7342179766803 77.2340078941466 C388.81678586642005 74.22651194398598, 384.7090396456547 70.97491189435972, 383.4025340200544 70.26739776235506 M392.8264226703471 77.41473546633202 C389.6407406132316 74.56918823375014, 385.5627540459137 71.90525879973431, 382.74607977876855 69.48680877192726 M382.53504471071824 69.39767507957195 C386.29295930171344 68.67233667132976, 388.213900291692 68.45338017107984, 396.23998788117325 69.02121140791304 M382.7356144957145 69.05515384507169 C386.9670512487902 69.31330130357864, 391.228337565481 68.93775776593826, 395.15592738366917 68.66589943695448 M395.2059777044744 67.91598783152905 C396.6589755868043 65.01199307963769, 399.08175210934706 60.62178814887034, 400.7408792450658 56.038738724270964 M395.1630608842358 68.07524871098391 C397.0381208500006 64.34413367994827, 398.75996378441295 61.11395757414311, 399.89238836708523 57.42731851106239 M400 57 C400 57, 400 57, 400 57 M400 57 C400 57, 400 57, 400 57" stroke="#B8860B" stroke-width="2" fill="none"></path></g><g><path d="M389.9616822832593 168.0618425233456 C389.9616822832593 168.0618425233456, 389.9616822832593 168.0618425233456, 389.9616822832593 168.0618425233456 M389.9616822832593 168.0618425233456 C389.9616822832593 168.0618425233456, 389.9616822832593 168.0618425233456, 389.9616822832593 168.0618425233456 M387.64744827004677 180.9364767596464 C393.2441867596352 172.70860206106516, 400.45336222542335 167.26942267930204, 407.10917409991765 163.63082133243273 M390.2750449235189 181.61255649471934 C392.4038436000545 175.9742878598394, 396.4165809224756 171.81255799431597, 405.5782079879551 163.1473732337228 M396.3425852101054 185.73815341125513 C400.5666471345601 180.04324512134468, 406.76657254616725 175.820294962275, 410.4922400428018 168.49807280545141 M393.861354978548 186.62960663289863 C399.8070823309054 180.42032403460692, 405.5932208553582 175.02840274962776, 410.6676717030537 167.00201982054867 M404.4035986123722 186.38907922216558 C408.0146719798969 184.4926071397403, 409.0549180543406 183.14223414773264, 413.05690918054967 176.64244103736394 M405.8928751966682 187.12792864048689 C408.1614784724747 184.09428009375264, 409.66302874539116 182.30518003369332, 413.4384751708451 178.26152291708706" stroke="none" stroke-width="1" fill="none"></path><path d="M395.6142062976391 162.2850670244354 C398.0742057276714 161.1664388725858, 401.58567929837096 161.47296210155207, 404.23588906747744 162.56803257132015 C406.8860988365839 163.66310304108822, 410.0606311257001 166.3013472537619, 411.51546491227793 168.85548984304393 C412.97029869885574 171.40963243232596, 413.65439787830275 175.12820081523827, 412.96489178694424 177.89288810701228 C412.2753856955857 180.6575753987863, 409.48895976323234 183.68029838890305, 407.378428364127 185.443613593688 C405.26789696502163 187.20692879847297, 402.94198687648753 188.51748098770884, 400.3017033923121 188.47277933572207 C397.6614199081367 188.4280776837353, 393.61242609332584 187.0033883422451, 391.5367274590743 185.17540368176734 C389.4610288248228 183.34741902128957, 388.15850528939313 180.3013546039885, 387.84751158680297 177.50487137285538 C387.5365178842128 174.70838814172225, 387.90077180760136 170.76529385480362, 389.67076524353337 168.39650429496857 C391.4407586794654 166.02771473513351, 396.44870657520585 164.12344241801904, 398.4674722023952 163.2921340138451 C400.4862378295845 162.46082560967116, 401.8554818631732 163.21007761405463, 401.7833590066693 163.40865386992493 M395.75959610752454 162.43172411841192 C397.7265254004086 161.07027571868053, 400.2706935288908 160.38787518164318, 402.9071889480863 161.5209586690977 C405.5436843672818 162.6540421565522, 409.80943589538293 166.76748669328913, 411.5785686226978 169.230225043139 C413.34770135001264 171.69296339298887, 413.9785747707115 173.91615751327942, 413.5219853119753 176.29738876819695 C413.0653958532391 178.6786200231145, 411.2170528409416 181.53870467848577, 408.83903187028085 183.51761257264425 C406.4610108996201 185.49652046680274, 402.1768639043178 188.01769940221843, 399.2538594880108 188.1708361331479 C396.33085507170375 188.32397286407738, 393.1168022710749 185.9533147288295, 391.3010053724387 184.43643295822108 C389.48520847380246 182.91955118761265, 388.99566146251357 181.54969152360013, 388.3590780961936 179.06954550949732 C387.7224947298737 176.5893994953945, 386.1200877787677 171.9438862233514, 387.4815051745192 169.55555687360427 C388.84292257027073 167.16722752385715, 395.05428988480537 165.8730773589948, 396.5275824707027 164.7395694110145 C398.0008750566001 163.60606146303417, 396.2396685616245 162.58417579343097, 396.3212606899035 162.75450918572244" stroke="#000000" stroke-width="2" fill="none"></path></g><g><path d="M398.106952876136 188.01236062176008 C401.97762578217845 197.0857515133892, 400.96094111661773 208.34138414914415, 400.27538660886853 230.26497151694193 M400.9224183327086 188.07128357452635 C399.8045974599058 198.55375055570653, 399.1912826689105 208.40239421969926, 400.5589048377637 230.1565340334571" stroke="#000000" stroke-width="2" fill="none"></path></g><g><path d="M399.0638624436182 231.77669415501788 C394.4620183352496 240.54383341098364, 392.6735246002791 249.96418737199878, 384.0991153598421 269.9902478501632 M399.50998517420715 230.8897738464555 C395.5256692418405 242.51037836580974, 391.6441546568744 253.9384743170184, 385.36743850877446 269.9885441261577" stroke="#000000" stroke-width="2" fill="none"></path></g><g><path d="M400.8650925006876 229.64304852173692 C401.9405817402285 238.27502044108638, 407.92140193058265 245.73547378998126, 416.6032569451268 271.469685660446 M400.7652759113396 230.64313330504325 C404.62779647375925 241.8471123394559, 409.13107316080385 254.9033995467776, 415.85228861077786 269.18521782660866" stroke="#000000" stroke-width="2" fill="none"></path></g><g><path d="M400.38504784086535 203.60878946215908 C392.7713525087331 194.68918669374528, 389.16086556380253 180.9829368701585, 380.7363026568541 168.8837708905304 M399.39816569582314 204.04579922738307 C395.95842376353227 196.26301817190236, 392.4269650128778 189.00599799468205, 382.5239270316845 170.35290258244808" stroke="#000000" stroke-width="2" fill="none"></path></g><g><path d="M400.32448779881855 205.97122593937848 C407.2441605240879 193.56784308018243, 411.0438794195491 187.0761546002213, 416.8265443380423 170.33757667828257 M400.85522006974423 204.42914623770687 C405.2210582001327 196.92588593821915, 408.005654673815 187.3024007274743, 417.7203024112325 169.14703800341516" stroke="#000000" stroke-width="2" fill="none"></path></g><g><path d="M169.4283497611202 338.0836884996596 C169.4283497611202 338.0836884996596, 169.4283497611202 338.0836884996596, 169.4283497611202 338.0836884996596 M169.4283497611202 338.0836884996596 C169.4283497611202 338.0836884996596, 169.4283497611202 338.0836884996596, 169.4283497611202 338.0836884996596 M171.72106270605707 348.4032251804589 C177.33368455164367 342.27639918172156, 180.46219176670323 336.14780774937697, 185.4006680433677 333.66372783841365 M169.624871605536 350.33633465779064 C175.35231434283298 342.4708088245775, 179.96726015455928 336.9405581241805, 184.70921007317014 332.3697393839946 M173.96466899524054 355.7573654113 C177.53151056165188 352.0026712863821, 182.7618170688222 345.0729515042903, 190.26165033404604 337.1461914640974 M175.07648009759265 357.1826240417946 C179.18751493607365 349.1718364447035, 186.87890408035872 342.8249160710947, 191.12058188788504 338.84590695997616 M183.21478877543422 361.08848684571444 C183.57737523524418 357.5442323646539, 186.4302200402983 353.16092512241136, 193.95373219642792 347.78833456793944 M182.47818400560135 359.0409105321158 C184.81649082824262 356.0474058385301, 189.16484867312624 352.71990292422515, 193.2746502212021 347.0602844468524" stroke="none" stroke-width="1" fill="none"></path><path d="M174.27607201364387 332.8741090218865 C176.65774544401182 331.8733862818567, 181.2345174527769 331.4835852985028, 183.92348816650116 332.3981737638228 C186.6124588802254 333.3127622291428, 188.84995311955296 336.0957781180358, 190.4098962959894 338.3616398138062 C191.96983947242583 340.62750150957663, 193.6164270095305 343.1701130823117, 193.2831472251197 345.9933439384452 C192.9498674407089 348.81657479457874, 190.44399696280968 353.25044897509247, 188.4102175895247 355.3010249506074 C186.37643821623973 357.3516009261224, 183.73052100593424 358.2618914301271, 181.08047098540987 358.2967997915351 C178.4304209648855 358.33170815294307, 174.72891019864693 357.3134239779389, 172.5099174663786 355.5104751190554 C170.29092473411026 353.7075262601719, 168.3195730225551 350.33817315085224, 167.76651459179993 347.47910663823393 C167.21345616104477 344.6200401256156, 167.36549569818342 341.0181926319367, 169.19156688184762 338.3560760433456 C171.01763806551182 335.69395945475446, 176.69021564791888 332.75949631361823, 178.72294169378515 331.50640710668733 C180.75566773965141 330.25331789975644, 181.5303649268958 330.5688238437935, 181.38792315704524 330.8375408017604 M179.8331504037401 331.81113976301765 C182.60111107592752 331.71561797227474, 188.21210322294112 332.98015683313247, 190.38898808451736 334.98514241451517 C192.5658729460936 336.99012799589786, 192.68281622010414 340.78192353268594, 192.89445957319757 343.8410532513137 C193.106102926291 346.9001829699415, 193.099951240818 351.1513046717057, 191.65884820307787 353.3399207262819 C190.21774516533773 355.5285367808581, 187.28168966823918 356.08129483063743, 184.24784134675673 356.9727495787708 C181.21399302527428 357.86420432690414, 176.33473926566882 359.80392043212686, 173.45575827418318 358.6886492150819 C170.57677728269755 357.57337799803696, 168.22981877684148 352.8215894067133, 166.97395539784287 350.2811222765011 C165.71809201884426 347.7406551462889, 165.214700823071 346.34055367369075, 165.9205780001915 343.44584643380875 C166.626455177312 340.55113919392676, 168.7876649497919 334.7694503534688, 171.20921846056592 332.9128788372092 C173.63077197133995 331.05630732094954, 178.76230996326424 332.52533640917875, 180.44989906483576 332.30641733625083 C182.13748816640728 332.0874982633229, 181.43134089400115 331.4104030719873, 181.33475306999497 331.5993643996418" stroke="#000000" stroke-width="2" fill="none"></path></g><g><path d="M179.89750202222703 358.1667014623192 C181.68235522700792 373.7286303792678, 178.36238112389722 388.3069004589079, 180.06119561492545 398.640941738402 M180.98160104015204 358.34752789608 C179.55264727678065 373.7800159064798, 181.02804565155625 388.51204050051336, 179.56276319402517 400.52426346736786" stroke="#000000" stroke-width="2" fill="none"></path></g><g><path d="M180.2924187301309 399.61602458559236 C177.83454660720957 408.38041411750584, 173.66355684622752 421.5697758638334, 166.6525406717526 438.33353380727857 M179.53458389359272 399.5008342913148 C176.39937467284477 410.4423400749442, 172.3882146335889 421.8009760642703, 165.58064703737702 439.4150582521784" stroke="#000000" stroke-width="2" fill="none"></path></g><g><path d="M179.07615003540613 400.70654163360626 C187.21339558651925 412.5975287000865, 190.39359204865565 429.5310862924785, 196.73255823633014 438.1060515971216 M180.46476224016345 400.6495549317396 C183.62349636331902 409.95432219161444, 187.22567285700265 419.54643994762415, 195.72392163686675 439.95887999895785" stroke="#000000" stroke-width="2" fill="none"></path></g><g><path d="M178.62201328967055 374.4101988762231 C194.050654360906 369.5994980314092, 213.09441962533938 366.54981269361934, 228.78368312547218 358.6409330848233 M179.65279893004478 375.30739504774584 C194.50583897685874 371.09862057738997, 209.1238264873087 366.6219363142608, 230.08856887615434 360.1127029112374" stroke="#000000" stroke-width="2" fill="none"></path></g><g><path d="M179.7721300020493 379.483863600875 C191.4796643310071 380.52890988883144, 203.1678412174138 378.27630614032114, 225.45968689559336 376.07394116654274 M180.19671408345792 380.3051711626176 C192.97899238545352 379.57498343988453, 207.5441226187876 376.1516718532278, 225.92468156488374 375.0329955712695" stroke="#000000" stroke-width="2" fill="none"></path></g><g><path d="M267.2566693477844 348.9238216716609 C267.2566693477844 348.9238216716609, 267.2566693477844 348.9238216716609, 267.2566693477844 348.9238216716609 M267.2566693477844 348.9238216716609 C267.2566693477844 348.9238216716609, 267.2566693477844 348.9238216716609, 267.2566693477844 348.9238216716609 M269.67274353753044 358.9513355550426 C272.94705101178505 355.5951944882678, 275.20966626901344 354.26159803062416, 284.7304043165116 341.2512210760355 M268.1234169062147 360.6056279144017 C274.13699262797036 353.9598435720654, 279.3749306462429 347.3149971904442, 284.2490925438365 341.3043935327353 M272.4787889680091 364.0325038913103 C278.40555149830857 362.6180027191806, 280.7359296695557 357.92372909420226, 291.06056109289375 345.88428698755865 M274.7611762245256 364.49255904410836 C278.13502919396416 361.4682935117283, 280.73311637219194 358.2121932904914, 289.53313350025644 348.21368774010426 M283.4781053841646 367.0305503836099 C285.58470602009993 363.77612495827367, 290.48798560407454 360.5759797297049, 293.6056171007981 355.22991945163733 M282.42748910293363 368.14683022373475 C286.6077719826159 363.1891228803138, 288.76734830284084 361.1010287866443, 293.4068462945567 354.41310371563424" stroke="none" stroke-width="1" fill="none"></path><path d="M273.7939067087941 343.7304591167551 C276.15573141908226 342.34187043707556, 280.3983520922866 341.4803811596096, 283.41299407134983 342.31436378040814 C286.42763605041307 343.1483464012067, 290.12300636746977 346.2333935409862, 291.8817585831734 348.7343548415464 C293.640510798877 351.2353161421066, 294.33550358303285 354.67030943617664, 293.9655073655715 357.32013158376947 C293.5955111481102 359.9699537313623, 292.00066316648105 362.8146552442556, 289.66178127840533 364.63328772710344 C287.3228993903296 366.45192020995125, 282.9375523424294 368.22012896762755, 279.93221603711726 368.2319264808565 C276.9268797318051 368.2437239940854, 273.78940508609656 366.3548494007972, 271.62976344653265 364.704072806477 C269.47012180696873 363.05329621215674, 267.6522926395773 361.0158884940894, 266.97436619973377 358.327266914935 C266.29643975989023 355.63864533578067, 266.06327784405977 351.11361775343335, 267.5622048074716 348.572343331551 C269.0611317708834 346.03106890966865, 274.38943675347537 343.976811986557, 275.96792798020465 343.0796203836411 C277.54641920693393 342.1824287807252, 277.0460209950418 342.86276262511745, 277.03315216784733 343.1891937140557 M279.1063626259027 341.7556212260352 C281.91152574018804 341.50514345267175, 285.60508360899405 343.67805429151196, 288.0129693168268 345.4158107261142 C290.42085502465955 347.1535671607165, 293.1563539327952 349.785273122926, 293.55367687289936 352.1821598336488 C293.95099981300353 354.57904654437164, 291.74448681881495 357.4304045392177, 290.39690695745196 359.7971309904509 C289.049327096089 362.1638574416841, 287.91567385266285 365.04184705781773, 285.46819770472143 366.38251854104817 C283.02072155678 367.7231900242786, 278.6230721701007 368.8939916133414, 275.71205006980364 367.8411598898336 C272.80102796950655 366.78832816632575, 269.40600609036346 362.73848833413973, 268.00206510293907 360.06552820000115 C266.5981241155147 357.3925680658626, 266.94849155557773 354.05901299976114, 267.28840414525735 351.8033990850021 C267.62831673493696 349.5477851702431, 268.159375467793 348.23915688925416, 270.04154064101675 346.53184471144704 C271.9237058142405 344.8245325336399, 276.9899314823522 342.3119621482797, 278.58139518459984 341.5595260181593 C280.1728588868475 340.80708988803894, 279.21870483561383 341.78089815505297, 279.59032285450263 342.0172279307248" stroke="#000000" stroke-width="2" fill="none"></path></g><g><path d="M279.0107882086679 366.3269657795057 C281.78882591066196 381.74067177517486, 281.0087372695274 394.15318242493726, 281.2774281098447 408.9501401410723 M280.73595842662564 368.05860893688754 C280.753526251474 381.04835334359865, 280.76442767407093 393.06030413935486, 280.94684668952874 409.0454286323905" stroke="#000000" stroke-width="2" fill="none"></path></g><g><path d="M278.9108228915522 411.9423563491211 C277.2289751287801 420.1857111537392, 272.4201477158056 430.2339526210707, 264.00796679210055 448.2117648046324 M280.5623941088352 409.5331293221002 C273.7433465586294 424.9366175143385, 269.1790448375794 438.8320438260509, 265.5128133199487 449.41387041449383" stroke="#000000" stroke-width="2" fill="none"></path></g><g><path d="M278.9025462435912 408.87023371974146 C284.6017037982202 423.4404588580915, 290.17737946981697 435.08381383363866, 293.73743983975686 450.96441411224345 M279.14468602955856 410.70818601440885 C283.3396795451528 420.88019467623946, 287.6700323020029 430.9133552161597, 294.2023998255171 450.79915062415944" stroke="#000000" stroke-width="2" fill="none"></path></g><g><path d="M280.6479277793398 384.41947665940404 C293.9195132124299 380.1308475522134, 309.12709159079066 374.5799238848254, 331.96292550233136 368.78106013595425 M279.29290420391237 384.7442212349981 C295.9362147491035 379.6115242148665, 310.4381045288363 375.66384846500017, 329.5244866586119 370.2738782441464" stroke="#000000" stroke-width="2" fill="none"></path></g><g><path d="M278.1050144082697 388.1922703324349 C291.0158132012029 389.60644818177, 299.31155837534624 388.2800279171746, 325.9158352586961 386.0553230174284 M279.3878415623178 389.15214211520197 C293.2855517933373 388.1691856701015, 305.43808569153344 386.5318110681006, 324.3694107231757 385.91611922366724" stroke="#000000" stroke-width="2" fill="none"></path></g><g><path d="M508.9407267445818 347.01448857250267 C508.9407267445818 347.01448857250267, 508.9407267445818 347.01448857250267, 508.9407267445818 347.01448857250267 M508.9407267445818 347.01448857250267 C508.9407267445818 347.01448857250267, 508.9407267445818 347.01448857250267, 508.9407267445818 347.01448857250267 M508.4354578889668 360.20975791919244 C512.1936253897059 352.4355928222768, 516.6436730765689 349.5593791280157, 522.3065205421968 341.60872301114944 M509.5807360072202 359.10796255914653 C512.3336825319462 354.9275465061936, 515.0651967959382 351.77781831300615, 523.222300864157 343.1733944274994 M514.7041535645642 366.80545339787807 C519.7767070184806 359.187853021755, 526.9472626800424 353.3365078825739, 530.5202563138248 346.5277919235882 M513.7477329643452 366.56257483266364 C518.2611168457532 360.5352879306412, 524.6029709800323 353.96075380345314, 529.8252752033094 348.2025561098641 M519.9478469333935 370.0173878025411 C523.9726016625634 366.40850087445267, 525.372965968786 363.6778850088069, 531.8316069960144 355.7834535508338 M520.5546426785462 370.1198783096332 C523.2531452876817 366.65498646030164, 525.8052516356869 364.7935870728935, 532.7173678041646 356.1794590554855" stroke="none" stroke-width="1" fill="none"></path><path d="M517.137283778519 341.8797672328055 C519.3475507971289 341.11903971541676, 522.5445668702685 341.78988953468416, 525.0330656124518 343.2187775533313 C527.5215643546351 344.6476655719784, 530.7527405379782 347.8705043420342, 532.0682762316186 350.4530953446882 C533.383811925259 353.0356863473422, 533.6860294686139 356.00786155516687, 532.9262797742942 358.7143235692553 C532.1665300799746 361.4207855833438, 529.8708528478917 364.92997415340346, 527.5097780657005 366.6918674292191 C525.1487032835093 368.4537607050347, 521.6631936373561 369.6198897275164, 518.7598310811472 369.2856832241492 C515.8564685249384 368.95147672078195, 512.0068164682502 366.9627892097221, 510.0896027284469 364.6866284090158 C508.1723889886435 362.4104676083095, 507.46688942372333 358.5523774422705, 507.25654864232683 355.6287184199115 C507.04620786093034 352.7050593975525, 506.85261481659154 349.66441538995826, 508.8275580400678 347.1446742748617 C510.80250126354406 344.62493315976513, 517.1352337821451 341.3777967552358, 519.1062079831844 340.5102717293322 C521.0771821842237 339.6427467034286, 520.725616306305 341.48473094784384, 520.6534032463039 341.93952411944 M525.0832778094928 343.5721186057242 C527.1854076538601 344.929121612588, 530.1700860174283 348.1992681899972, 531.1860858282274 350.56932219695335 C532.2020856390266 352.9393762039095, 531.9113841582848 355.30425143951226, 531.1792766742874 357.7924426474609 C530.44716919029 360.2806338554096, 529.0993561520702 363.6165232293804, 526.7934409242426 365.4984694446452 C524.4875256964151 367.38041565991, 520.2719650121378 369.11977692300974, 517.3437853073224 369.08411993904986 C514.415605602507 369.04846295509, 511.1485302529517 367.44611072368474, 509.22436269535035 365.28452754088585 C507.30019513774903 363.12294435808695, 505.5999385318442 359.3815245780237, 505.79877996171456 356.1146208422566 C505.9976213915849 352.84771710648954, 508.4246939779794 347.8373310274165, 510.41741127457243 345.68310512628346 C512.4101285711655 343.52887922515043, 515.2242622287287 343.55154557865717, 517.7550837412728 343.1892654354583 C520.2859052538168 342.82698529225945, 524.3049711652759 343.2595398863925, 525.6023403498372 343.50942426709025 C526.8997095343984 343.75930864778803, 525.7816384328495 344.35357987094466, 525.5392988486403 344.68857171964504" stroke="#000000" stroke-width="2" fill="none"></path></g><g><path d="M518.3407337575624 368.251932106029 C518.8409771725229 379.2563912926989, 520.8046625594878 386.1029665370378, 519.2455706905229 409.85237518224443 M520.0734474058193 367.5299257193184 C519.708065323287 378.07540681444135, 519.5338201589514 387.8704841360594, 519.2057997119657 409.25542806754794" stroke="#000000" stroke-width="2" fill="none"></path></g><g><path d="M521.4384553175838 409.39522470591555 C515.6404368485073 420.257422069629, 513.0661367664728 429.92659063049354, 504.4059707861724 450.82920350677335 M520.9457080287724 410.5926590227213 C515.4969899786256 423.08634576816314, 508.79284096100065 436.8992566662312, 504.64817596877685 450.28749366716323" stroke="#000000" stroke-width="2" fill="none"></path></g><g><path d="M518.817449372742 410.98748170722826 C525.1513162685957 423.90904042873814, 531.2616768342793 439.2736287943907, 536.2822471184809 450.1867290451809 M520.0945844898649 410.54366522081654 C526.7832728856484 424.2826314766721, 532.2257615977064 440.08758246012655, 534.3442889370423 449.93984825123334" stroke="#000000" stroke-width="2" fill="none"></path></g><g><path d="M519.3781014451852 385.17514845439007 C501.395122459825 378.22724481301714, 484.45118473809913 374.4318439212049, 470.1440233657401 370.18520136024983 M520.8056913717703 385.53274670772737 C504.42553730612116 380.60654754858376, 489.705112049476 375.5664130247718, 469.78655872773464 369.17509863680215" stroke="#000000" stroke-width="2" fill="none"></path></g><g><path d="M519.0168099524662 390.3084986674445 C505.04419288324823 387.63112304396805, 492.2752602194274 388.1037276357109, 474.98035294447766 383.72344909727394 M520.8605220144486 389.42449990382977 C506.57970309821826 388.9549264396699, 494.241198253569 387.9035880799968, 475.0729874154642 385.66893794053533" stroke="#000000" stroke-width="2" fill="none"></path></g><g><path d="M608.2654479812595 340.6052419464235 C608.2654479812595 340.6052419464235, 608.2654479812595 340.6052419464235, 608.2654479812595 340.6052419464235 M608.2654479812595 340.6052419464235 C608.2654479812595 340.6052419464235, 608.2654479812595 340.6052419464235, 608.2654479812595 340.6052419464235 M611.5295414965683 349.53529237698126 C615.9418591811274 344.8236738452897, 618.6844027346749 340.95803535234273, 624.0180462564991 335.6466318200596 M610.0234479504871 349.6861218208233 C614.8122379855135 345.1727203143206, 620.2883873274961 340.2896403802157, 623.6592378050427 335.1896863504005 M614.2150194275016 356.5665389520514 C620.7689534798061 352.67736949736116, 625.633501723182 348.93095465746353, 631.4819208168326 337.69295008636686 M615.9484959778559 356.2052244215495 C618.2143022860137 353.9090155677112, 621.4522307441396 349.001550195243, 631.2044529027098 337.67541904408256 M623.8746899073118 358.5069559477319 C628.418957675045 355.1068538389543, 632.4129530930583 347.773853776122, 634.5331557143454 347.67562884497187 M624.3134510733731 360.15180558722113 C626.8378551890735 356.5953272014442, 629.3410613502721 352.7640338636451, 635.0750592851608 345.93388079582957" stroke="none" stroke-width="1" fill="none"></path><path d="M623.4107159974491 333.7036058839552 C625.9506160094301 334.34867616714337, 629.053561257282 335.6525784180271, 630.6358455684598 337.6030767522252 C632.2181298796376 339.55357508642334, 633.2490322158694 342.5766854092609, 632.9044218645159 345.4065958891441 C632.5598115131625 348.2365063690273, 630.5157458958967 352.6885214709446, 628.5681834603392 354.58253963152464 C626.6206210247818 356.4765577921047, 623.8863072128222 356.68130256533397, 621.2190472511712 356.7707048526243 C618.5517872895202 356.86010713991465, 614.7877454199644 356.7071211279547, 612.5646236904336 355.11895335526657 C610.3415019609027 353.53078558257846, 608.556099091861 349.7075242565193, 607.8803168739864 347.2416982164958 C607.2045346561118 344.7758721764723, 607.30533482837 342.61010526859883, 608.5099303831861 340.3239971151257 C609.7145259380022 338.0378889616525, 612.2786349949415 334.8118704904738, 615.1078902028833 333.52504929565686 C617.937145410825 332.23822810083993, 623.491779565627 332.3862471449562, 625.4854616308363 332.60306994622414 C627.4791436960456 332.8198927474921, 627.3624680603945 334.36620371422737, 627.0699825941396 334.82598610326437 M620.8062874727448 331.07235855400387 C623.6159602601117 331.25565661121044, 626.9004959380727 335.23515091908257, 628.7803746102948 337.4046578436367 C630.6602532825168 339.5741647681908, 631.7000506883467 341.5138489441654, 632.0855595060771 344.0894001013287 C632.4710683238075 346.664951258492, 632.5319731391204 350.89764915986893, 631.0934275166768 352.8579647866168 C629.6548818942332 354.8182804133646, 626.159865632371 355.3418762912334, 623.4542857714154 355.8512938618156 C620.7487059104598 356.36071143239775, 617.290449603269 356.6272696933528, 614.8599483509433 355.91447021010976 C612.4294470986176 355.2016707268667, 610.2615982757067 354.1140149135039, 608.8712782574613 351.57449696235733 C607.480958239216 349.03497901121074, 605.9062638362138 343.27522220337744, 606.5180282414715 340.6773625032303 C607.1297926467291 338.0795028030832, 610.3460210987827 337.493520271668, 612.5418646890074 335.9873387614746 C614.7377082792322 334.48115725128116, 618.3994805531487 331.97950537364295, 619.6930897828199 331.64027344206966 C620.9866990124912 331.30104151049636, 620.2192845451362 333.51843600902873, 620.3035200670346 333.9519471720348" stroke="#000000" stroke-width="2" fill="none"></path></g><g><path d="M620.3803659198803 358.3972624220625 C618.4452223718298 367.2593518393105, 619.9298698130316 380.32760176634895, 619.810858270416 398.2216723299002 M619.116737182755 357.37767735395914 C619.2379389599579 375.4025401977489, 619.776086825927 391.49155703750966, 620.1494759381877 400.56794266199046" stroke="#000000" stroke-width="2" fill="none"></path></g><g><path d="M619.9351991307253 400.15872213543895 C615.6916734651322 414.32727661959257, 607.0687587025108 431.4565208416207, 605.3208454168622 438.0730084646614 M619.5949111444935 399.56782448096124 C616.86707052571 409.49559304048813, 613.1377211844134 421.01091481096637, 605.6968760119414 439.2269694056503" stroke="#000000" stroke-width="2" fill="none"></path></g><g><path d="M619.2990431745142 399.75792239986464 C622.81036101313 408.9894877953797, 625.1512111605361 416.3824359509722, 636.2492806378086 439.20961381270956 M620.9734451423993 400.0942863703274 C623.8660835670167 408.93726462974155, 626.4400933105348 417.8955515947167, 635.0737286878189 439.38512773436895" stroke="#000000" stroke-width="2" fill="none"></path></g><g><path d="M618.2457254937756 374.24183498733953 C600.5355418606829 367.8717265369023, 583.2299483255817 364.02510660024615, 569.7755087414056 358.6785563148466 M619.2114709706863 375.7235571601901 C603.3126015881336 370.56482261106277, 585.4348380262293 363.8613872183871, 570.1436274168598 359.40422903033937" stroke="#000000" stroke-width="2" fill="none"></path></g><g><path d="M620.3692357475106 378.91135062418937 C602.7622437512633 377.60225703054425, 590.0867258589643 377.9981664609801, 575.1805182701934 376.9649633318215 M620.1688846185153 379.79982656076317 C608.181090071129 378.53722628805707, 597.2559592303539 377.4053947714831, 574.4006922392861 374.6856991332822" stroke="#000000" stroke-width="2" fill="none"></path></g><g><path d="M229.04865555621754 359.88200087653183 C239.7548337479234 354.7648382394909, 274.43781995746235 342.06518586616943, 292.6657261474967 332.3935074826019 C310.893632337531 322.7218290990343, 322.8654125454591 312.7482114342095, 338.4160926964237 301.85193057512663 C353.96677284738826 290.95564971604375, 378.69522973871506 272.39098163305965, 385.9698070532843 267.0158223281045 M227.0361314893715 365.5574778796623 C236.7252870948503 361.26081507315973, 271.26551779567984 343.24395003804506, 290.6304833157582 332.9085112677347 C309.9954488358366 322.57307249742433, 327.2625762231036 314.11990640353645, 343.2259246098419 303.5448452578002 C359.1892729965802 292.96978411206396, 380.1252271123572 275.819568255333, 386.4105736361879 269.4581443933172" stroke="#000000" stroke-width="1.8" fill="none"></path></g><g><path d="M327.665295775121 387.6896275957542 C331.17804464256756 381.58025573882276, 340.74037084133454 359.9649344694789, 348.38491524598595 348.5299685128562 C356.02945965063736 337.0950025562335, 367.04986020790034 331.6891285672228, 373.5325622030295 319.0798318560181 C380.01526419815866 306.47053514481337, 385.0443775568835 281.45895235582384, 387.28112721676086 272.874188245628 M325.5054534865245 381.7941194411614 C330.41823635455535 374.49595009423916, 342.35725368388944 357.51011379302145, 349.4767975811307 346.39076967383136 C356.596341478372 335.27142555464127, 362.24158329469134 328.4129652852605, 368.22271686997203 315.07805472602075 C374.2038504452527 301.743144166781, 382.321951749465 273.6553696595561, 385.3635990328149 266.381306318393" stroke="#000000" stroke-width="1.8" fill="none"></path></g><g><path d="M476.48782056555507 383.82189921121517 C472.9755959979858 377.1349321535643, 459.76409980707496 358.89306065091495, 452.140753082161 347.92416269897444 C444.517406357247 336.95526474703394, 437.34836636502223 330.7539667820707, 430.7477402160713 318.00851149957225 C424.14711406712036 305.2630562170738, 416.0664749126514 279.84186338955345, 412.5369961884554 271.45143100398394 M476.30889088884 386.3778005657384 C473.09052798734166 380.0238214474812, 462.73911666033075 357.2407787540748, 454.4459261554537 346.1659322786296 C446.1527356505767 335.0910858031844, 434.88910119004447 331.8352748214379, 426.5497478595779 319.9287217130672 C418.21039452911134 308.0221686046965, 406.7544483803075 282.3796371037694, 404.4098061726542 274.7266136284053" stroke="#000000" stroke-width="1.8" fill="none"></path></g><g><path d="M570.6425188168348 358.75799149774537 C559.9831494314843 354.3039461534821, 525.2779502546945 341.3564410639047, 506.2605998658546 331.25488311275274 C487.2432494770148 321.1533251616008, 472.0254429290322 308.09380858959156, 456.5384164837958 298.1486437908335 C441.0513900385594 288.2034789920754, 419.67810607607635 276.11414232919236, 413.3384411944362 271.5838943202042 M572.7101062699311 357.8948819063746 C563.1230945914278 353.3357606302208, 527.4466414390116 343.7247503907728, 507.9159058553736 333.18052395100693 C488.38517027173555 322.6362975112411, 470.4539627229884 305.3339321497208, 455.5256927681028 294.62952326777963 C440.5974228132171 283.92511438583847, 424.23130621420734 272.6316965528391, 418.3462861260595 268.95407065936007" stroke="#000000" stroke-width="1.8" fill="none"></path></g><text x="400" y="560" text-anchor="middle" font-family="sans-serif" font-size="16" fill="#222" font-style="italic">"That's how it's always been done here."</text></svg>