<?xml version="1.0" encoding="UTF-8"?>
<svg width="800" height="600" viewBox="0 0 800 600" xmlns="http://www.w3.org/2000/svg"><rect width="800" height="600" fill="#FFFFFF"></rect><g><path d="M180.38938789563062 280.0950888596395 C156.6826480677255 260.2658576811831, 132.52190538588818 240.297647491146, 118.25006977258617 228.29046579410644 M180.0666287344441 280.23636430087095 C167.22120926861277 269.18664410920036, 154.42161527782116 258.09112682434494, 118.77723041986707 228.3118763387957" stroke="#4A90D9" stroke-width="1.2" fill="none"></path></g><g><path d="M116.19176744229185 226.8801968491486 C116.19176744229185 226.8801968491486, 116.19176744229185 226.8801968491486, 116.19176744229185 226.8801968491486 M116.19176744229185 226.8801968491486 C116.19176744229185 226.8801968491486, 116.19176744229185 226.8801968491486, 116.19176744229185 226.8801968491486 M116.86880960800295 230.65320698041688 C118.27798006391797 229.557185450902, 119.58840113086718 227.76996193102187, 119.5508839655715 227.56957017428275 M117.3340314467802 230.22029946661473 C118.19283556533823 229.35483929710747, 118.9274496958963 228.55991291977887, 119.61072421474621 227.37055557988495" stroke="none" stroke-width="0.4" fill="none"></path><path d="M119.99424643821567 226.94423474289843 C120.58049777294423 227.3930581999376, 121.39430927727908 227.84771153619397, 121.43395839466531 228.11676726345652 C121.47360751205154 228.38582299071908, 120.550019147357 228.20046764639284, 120.23214114253305 228.55856910647375 C119.9142631377091 228.91667056655467, 119.65990967732559 229.7416061893142, 119.52669036572163 230.26537602394205 C119.39347105411768 230.7891458585699, 119.75509003814429 231.52327179920934, 119.43282527290933 231.70118811424075 C119.11056050767436 231.87910442927216, 118.17771408722518 231.88798554927797, 117.59310177431188 231.33287391413046 C117.00848946139857 230.77776227898295, 116.17529281659817 229.09355148318778, 115.92515139542947 228.37051830335565 C115.67500997426076 227.64748512352352, 115.60179589139042 227.21072832413674, 116.09225324729967 226.9946748351377 C116.58271060320891 226.77862134613864, 118.23343968145721 227.218300658439, 118.86789553088495 227.0741973693613 C119.50235138031269 226.93009408028357, 119.7514153028378 226.1736248562451, 119.89898834386612 226.13005510067137 C120.04656138489445 226.08648534509763, 119.82993722470725 226.6492689785282, 119.75333377705486 226.81277883591878 M118.7643871311384 226.28981188082557 C119.29589374218946 226.35688400524913, 121.04820059538056 227.3455901380263, 121.33801087822381 227.98266467712838 C121.62782116106706 228.61973921623047, 120.45209809845649 229.47868303685473, 120.50324882819793 230.11225911543818 C120.55439955793936 230.74583519402162, 122.07880734684827 231.64336061887178, 121.64491525667245 231.7841211486291 C121.21102316649663 231.92488167838644, 118.42108281309498 231.3964868438553, 117.899896287143 230.9568222939822 C117.378709761191 230.5171577441091, 118.72630296468918 229.39250340643827, 118.51779610096047 229.14613384939042 C118.30928923723175 228.89976429234258, 116.86708746101093 229.7836779001363, 116.64885510477069 229.47860495169508 C116.43062274853045 229.17353200325385, 116.9074079381798 228.02744030232688, 117.20840196351907 227.31569615874312 C117.50939598885833 226.60395201515936, 118.27364269303283 225.3725976573126, 118.45481925680625 225.20814009019256 C118.63599582057967 225.0436825230725, 118.13516509464769 226.41269439320092, 118.29546134615957 226.32895075602272 C118.45575759767145 226.24520711884452, 119.0447349362882 224.87011150625028, 119.41659676587751 224.70567826712326" stroke="#4A90D9" stroke-width="0.8" fill="none"></path></g><g><path d="M179.45466169790188 280.5681238454327 C167.73286932170893 266.3748479711749, 155.5619813895512 252.95232934185134, 126.6519548975647 220.44551943136693 M180.14110463751524 279.92942085934385 C161.85776329274654 260.0748379108338, 143.5191669457126 240.0599889609009, 126.67657760736975 220.3195077205555" stroke="#4A90D9" stroke-width="1.2" fill="none"></path></g><g><path d="M123.30409081601037 219.81271529949436 C123.30409081601037 219.81271529949436, 123.30409081601037 219.81271529949436, 123.30409081601037 219.81271529949436 M123.30409081601037 219.81271529949436 C123.30409081601037 219.81271529949436, 123.30409081601037 219.81271529949436, 123.30409081601037 219.81271529949436 M125.33374293693991 222.28547277241415 C125.7862709380338 221.17070943936855, 127.77292573437646 220.1498916232905, 128.57438423720822 219.17404660063892 M125.1197391289333 222.62113082753737 C125.5313263030254 221.58424743742344, 126.10790989149561 220.85289821699425, 128.05777391725266 218.8778847719782" stroke="none" stroke-width="0.4" fill="none"></path><path d="M127.43839730559587 217.43180002195686 C127.87933592245031 217.3560487089714, 128.668135144435 218.43700836214575, 129.06520782005538 218.89506870779485 C129.46228049567574 219.35312905344395, 129.88890050157494 219.64730215692717, 129.82083335931804 220.1801620958515 C129.75276621706115 220.71302203477583, 129.39516944180306 221.49234437511382, 128.65680496651404 222.0922283413409 C127.91844049122503 222.69211230756798, 125.93843492193793 223.72965147405205, 125.39064650758394 223.77946589321394 C124.84285809322995 223.82928031237583, 125.75622236973355 223.00807891409858, 125.37007448039009 222.39111485631219 C124.98392659104663 221.7741507985258, 123.14229954345411 220.45952705472558, 123.07375917152319 220.07768154649568 C123.00521879959227 219.69583603826578, 124.48489362195181 220.3715313457996, 124.95883224880458 220.10004180693278 C125.43277087565735 219.82855226806595, 125.59284284063864 218.6076427225031, 125.9173909326398 218.44874431329478 C126.24193902464097 218.28984590408646, 126.63229353168379 219.16663360849958, 126.90612080081156 219.14665135168295 C127.17994806993934 219.12666909486632, 127.4908214604953 218.4126498859748, 127.56035454740649 218.32885077239493 M126.35666628931162 217.85937748812145 C126.58883724628222 217.920042679821, 126.51563329345234 217.39414879059782, 127.0587709028531 217.5936192770351 C127.60190851225386 217.79308976347235, 129.13011744386978 218.23816444986943, 129.61549194571614 219.0562004067451 C130.1008664475625 219.87423636362075, 130.47183353753192 221.75304472421132, 129.9710179139313 222.50183501828909 C129.47020229033066 223.25062531236685, 127.33995981310176 223.61707287380494, 126.61059820411232 223.5489421712117 C125.88123659512289 223.48081146861847, 126.13569526636998 222.50270203799917, 125.59484825999466 222.09305080272975 C125.05400125361935 221.68339956746033, 123.5254977128924 221.34644000097853, 123.36551616586046 221.0910347595952 C123.20553461882851 220.83562951821187, 124.4882620945567 220.9129763171771, 124.63495897780298 220.56061935442978 C124.78165586104926 220.20826239168244, 123.84565169486243 219.5047762706196, 124.2456974653381 218.97689298311113 C124.64574323581377 218.44900969560265, 126.54179385578877 217.3035782415412, 127.03523360065698 217.39331962937894 C127.52867334552519 217.48306101721667, 127.39228092274986 219.25108218762918, 127.20633593454735 219.51534131013756" stroke="#4A90D9" stroke-width="0.8" fill="none"></path></g><g><path d="M180.19045736089285 280.00804060544596 C170.29994747101398 265.32267631637467, 159.58770551658355 250.38362296598876, 135.48984841199163 213.3761267585983 M179.82856239152412 280.17900956364525 C167.35000676522296 261.2708095514976, 155.1513027079183 243.14567551732497, 135.14570958250908 213.60294846821554" stroke="#4A90D9" stroke-width="1.2" fill="none"></path></g><g><path d="M133.01653936772834 211.03044910369067 C133.01653936772834 211.03044910369067, 133.01653936772834 211.03044910369067, 133.01653936772834 211.03044910369067 M133.01653936772834 211.03044910369067 C133.01653936772834 211.03044910369067, 133.01653936772834 211.03044910369067, 133.01653936772834 211.03044910369067 M133.66719264469626 215.39953146536902 C134.06640409312885 214.02070874924786, 135.7865128250397 212.91413851999326, 136.1884758674546 211.22028528002267 M133.23789711884328 215.14690981010693 C134.16502225012096 214.55782910559137, 134.89715589232384 213.56487132215022, 136.4173903216974 211.37170632059508" stroke="none" stroke-width="0.4" fill="none"></path><path d="M135.58777619118237 210.58082564625062 C136.09074647213384 210.54367672573323, 136.41209161894565 210.6617135836507, 136.6672243674473 211.22710954742743 C136.92235711594893 211.79250551120415, 136.9462938969734 213.44948217303929, 137.1185726821922 213.9732014289109 C137.290851467411 214.4969206847825, 137.9006654502631 214.1794361537279, 137.70089707876 214.36942508265707 C137.5011287072569 214.55941401158626, 136.57124896266455 214.72052659938845, 135.91996245317364 215.11313500248596 C135.26867594368272 215.50574340558347, 134.28526223042817 216.7381523292526, 133.79317802181455 216.7250755012421 C133.30109381320094 216.71199867323156, 133.26568922703348 215.6286868736355, 132.96745720149195 215.03467403442284 C132.66922517595043 214.44066119521017, 131.98503801941092 213.84052579222598, 132.00378586856533 213.1609984659661 C132.02253371771974 212.4814711397062, 132.62183375449138 211.2354110427056, 133.07994429641843 210.95751007686349 C133.5380548383455 210.67960911102136, 134.15326200827946 211.539064286979, 134.75244912012758 211.49359267091336 C135.3516362319757 211.44812105484772, 136.4514755891222 210.84103985022492, 136.67506696750715 210.68468038046956 M135.4915668500877 210.78577029710502 C136.11406508109363 210.69612327693568, 136.88861828609186 210.79647707885124, 137.33251232532152 211.31951741502223 C137.77640636455118 211.84255775119323, 138.36402493137666 213.36612875723156, 138.1549310854657 213.92401231413095 C137.94583723955475 214.48189587103033, 136.41684254478326 214.50012950419742, 136.0779492498557 214.66681875641854 C135.73905595492812 214.83350800863965, 136.68359959964897 214.7837815978161, 136.12157131590018 214.92414782745766 C135.5595430321514 215.06451405709922, 133.08071593090543 215.68079105186362, 132.7057795473629 215.5090161342679 C132.3308431638204 215.3372412166722, 133.95678211211208 214.4797193593099, 133.87195301464502 213.89349832188333 C133.78712391717795 213.30727728445675, 131.8616395969596 212.66775467923875, 132.1968049625606 211.99168990970836 C132.5319703281616 211.31562514017796, 135.38248025504032 209.8647026239368, 135.88294520825102 209.83710970470088 C136.3834101614617 209.80951678546495, 134.92017263528788 211.46631184200885, 135.19959468182486 211.82613239429278 C135.47901672836184 212.18595294657672, 137.32898662741138 211.98045429219857, 137.55947748747298 211.99603301840446" stroke="#4A90D9" stroke-width="0.8" fill="none"></path></g><g><path d="M179.97626629311577 280.22388909261787 C170.8228570124407 261.7818638423115, 161.96980724130793 243.84220329581078, 144.34993372533168 208.4214889459596 M180.2228082736315 279.7264470953318 C169.66009924896184 258.82980182122054, 159.38795826934307 237.7174920132633, 144.7984044228442 208.08700018900322" stroke="#4A90D9" stroke-width="1.2" fill="none"></path></g><g><path d="M141.73786956866547 208.01168183669097 C141.73786956866547 208.01168183669097, 141.73786956866547 208.01168183669097, 141.73786956866547 208.01168183669097 M141.73786956866547 208.01168183669097 C141.73786956866547 208.01168183669097, 141.73786956866547 208.01168183669097, 141.73786956866547 208.01168183669097 M144.06961559870027 209.67330979428783 C144.6414869513005 208.96997321354002, 145.3071444387741 208.39006178124066, 146.7004412999041 206.78217545389842 M144.1394738436695 210.0501968575376 C144.70307384020427 208.99818170105866, 145.63037329823038 208.32148010742605, 146.69487225108628 207.09361942763232" stroke="none" stroke-width="0.4" fill="none"></path><path d="M144.1880799824603 205.41070549939113 C144.78173115500576 205.48686652422586, 146.1031911244356 206.4104928137451, 146.6675743185752 206.83228615177737 C147.23195751271479 207.25407948980964, 147.58678281837078 207.43967672673017, 147.5743791472979 207.94146552758477 C147.561975476225 208.44325432843937, 146.70800358602943 209.5731411489996, 146.59315229213786 209.84301895690498 C146.47830099824628 210.11289676481036, 147.2107953825737 209.51735728518724, 146.88527138394844 209.56073237501704 C146.55974738532316 209.60410746484683, 145.42739260870317 210.08352714751678, 144.64000830038617 210.10326949588384 C143.85262399206917 210.1230118442509, 142.63598548557627 210.03775791510273, 142.16096553404648 209.67918646521946 C141.6859455825167 209.3206150153362, 141.54422150515714 208.5635464328635, 141.78988859120741 207.95184079658418 C142.0355556772577 207.34013516030487, 143.2342277599803 206.46703048747418, 143.6349680503482 206.00895264754362 C144.03570834071607 205.55087480761307, 144.00923091118295 205.36824288569312, 144.19433033341474 205.20337375700078 C144.37942975564653 205.03850462830843, 144.46584002708352 204.92124781174113, 144.74556458373883 205.01973787538955 M143.36140983233284 205.8957025701513 C143.92782999444324 205.88989314871142, 146.67657098627149 206.57384033775963, 147.13917125624852 206.68623335262785 C147.60177152622555 206.79862636749607, 146.01635548382532 206.10990829128434, 146.13701145219494 206.5700606593605 C146.25766742056456 207.03021302743667, 148.0456732045858 208.65076749095797, 147.86310706646617 209.44714756108485 C147.68054092834655 210.24352763121172, 145.69749638317424 211.10825995171706, 145.0416146234772 211.3483410801218 C144.38573286378013 211.58842220852654, 144.34293807251618 210.89337710147726, 143.9278165082838 210.88763433151337 C143.51269494405142 210.88189156154948, 142.7960512964699 211.85329961263233, 142.550885238083 211.31388446033841 C142.3057191796961 210.7744693080445, 142.4409625740354 208.41099749362255, 142.4568201579623 207.65114341774998 C142.4726777418892 206.8912893418774, 142.40080878622015 207.20807713275042, 142.64603074164438 206.75476000510298 C142.8912526970686 206.30144287745554, 143.81253720478915 204.96187213856422, 143.92815189050762 204.9312406518653 C144.0437665762261 204.90060916516637, 143.19021520938762 206.2648798332008, 143.33971885595514 206.57097108490953" stroke="#4A90D9" stroke-width="0.8" fill="none"></path></g><g><path d="M180.2890653592291 280.20285117961373 C174.87195620608972 262.9954437236515, 168.607525544656 245.7356044815519, 155.71303183497812 203.47524743326207 M179.91928106623683 279.9798776925182 C174.1097945684836 262.20712959383195, 168.1934985386495 244.06724048138523, 155.5668681988708 203.75370195643194" stroke="#4A90D9" stroke-width="1.2" fill="none"></path></g><g><path d="M152.30701789378827 202.62415937889585 C152.30701789378827 202.62415937889585, 152.30701789378827 202.62415937889585, 152.30701789378827 202.62415937889585 M152.30701789378827 202.62415937889585 C152.30701789378827 202.62415937889585, 152.30701789378827 202.62415937889585, 152.30701789378827 202.62415937889585 M153.3447261820612 205.8854204678791 C153.77946250100135 205.2064097909567, 154.39024503375373 205.07231110211654, 155.99260704332303 202.8039929643242 M153.45175559008928 206.2051982260993 C154.01779149395045 205.30701904966853, 154.9482591936207 204.39937772217377, 155.71397282801647 203.2480051114047 M156.82041868395305 206.52032619160178 C157.06058677491748 206.31622877921436, 157.20557194697494 206.05439092127855, 157.53814302626864 205.88980677340354 M156.84648547668365 206.52503173215987 C157.058841891622 206.33405939641034, 157.34922802248212 205.991824382639, 157.53287885747312 205.8465295086173" stroke="none" stroke-width="0.4" fill="none"></path><path d="M154.5995037697305 200.92610925697068 C155.0940743383358 201.08029992979843, 155.52178353732813 202.0637293787329, 155.99181313084944 202.59868298594643 C156.46184272437074 203.13363659315996, 157.20626976198204 203.6252659993993, 157.41968133085825 204.13583090025182 C157.63309289973446 204.64639580110435, 157.3445260215714 205.24788413207864, 157.27228254410664 205.66207239106163 C157.2000390666419 206.07626065004462, 157.47628001460353 206.58111019660464, 156.9862204660698 206.6209604541498 C156.49616091753606 206.66081071169498, 154.94506079534946 206.01462894923844, 154.33192525290428 205.90117393633267 C153.7187897104591 205.7877189234269, 153.67385951165366 206.45307589623383, 153.3074072113987 205.94023037671508 C152.94095491114373 205.42738485719633, 151.96643472153497 203.39911823155617, 152.1332114513745 202.82410081922012 C152.29998818121405 202.24908340688407, 153.88487053065165 202.78950870640685, 154.30806759043594 202.49012590269874 C154.73126465022023 202.19074309899062, 154.54436651244384 201.1572959943072, 154.67239381008014 201.0278039969714 C154.80042110771643 200.89831199963558, 155.05250567150503 201.73741972256184, 155.07623137625365 201.71317391868388 M153.31378464303558 201.90861857589806 C153.53096558558633 201.5178244716594, 155.10197869959626 200.55190421000898, 155.7460744088555 200.79994406729352 C156.39017011811472 201.04798392457806, 156.74009993483773 202.81423615881062, 157.17835889859103 203.39685771960524 C157.61661786234433 203.97947928039986, 158.52707655957386 203.92418739359007, 158.3756281913753 204.2956734320612 C158.22417982317677 204.6671594705323, 156.65216224767516 205.06274358135363, 156.26966868939974 205.62577395043198 C155.8871751311243 206.18880431951033, 156.4232354916485 207.6561587151386, 156.08066684172275 207.67385564653128 C155.73809819179698 207.69155257792397, 154.56322128539423 206.45369964498224, 154.21425678984508 205.73195553878807 C153.86529229429593 205.0102114325939, 153.98880034870652 203.92021809584998, 153.98687986842776 203.34339100936637 C153.984959388149 202.76656392288277, 154.26099079915232 202.34725982512808, 154.20273390817258 202.27099301988653 C154.14447701719283 202.194726214645, 153.67029409026617 203.13882315632762, 153.63733852254924 202.88579017791716 C153.60438295483232 202.6327571995067, 153.70347669064392 201.01415593068828, 154.00500050187108 200.7527951494238" stroke="#4A90D9" stroke-width="0.8" fill="none"></path></g><g><path d="M180.12949138288292 279.86589232246513 C174.56539448415108 252.70811287038896, 169.84486844933846 224.2870557215947, 166.62270094732915 201.74307333925293 M179.89056822950658 279.81536016727495 C176.59083262570098 260.38324475054685, 173.2507606199102 240.97824247059253, 165.8225882974243 201.48221641755907" stroke="#4A90D9" stroke-width="1.2" fill="none"></path></g><g><path d="M165.27729385866851 199.3239053341459 C165.27729385866851 199.3239053341459, 165.27729385866851 199.3239053341459, 165.27729385866851 199.3239053341459 M165.27729385866851 199.3239053341459 C165.27729385866851 199.3239053341459, 165.27729385866851 199.3239053341459, 165.27729385866851 199.3239053341459 M164.55495009589 204.13220784031 C166.69284768636464 202.6097049506621, 167.11793378850413 201.4991720135231, 167.85320276852696 200.0391731946535 M165.121720162718 204.23115452202788 C166.00024934672936 202.87637785694008, 167.0734938897643 201.97766703606734, 168.16443420189523 200.5961987472099" stroke="none" stroke-width="0.4" fill="none"></path><path d="M167.03358445184284 199.28843151845138 C167.52577103336404 199.28888724757076, 167.59204649782254 199.22646358507217, 167.740627625126 199.45290812080552 C167.88920875242945 199.67935265653887, 167.81160134509327 200.01563612517253, 167.92507121566356 200.6470987328515 C168.03854108623386 201.27856134053047, 168.56337256174817 202.8940082617093, 168.42144684854787 203.24168376687928 C168.27952113534758 203.58935927204925, 167.53812364476616 202.52259528730883, 167.07351693646186 202.7331517638713 C166.60891022815755 202.94370824043375, 166.13228556961593 204.416817999351, 165.63380659872206 204.50502262625406 C165.1353276278282 204.59322725315712, 164.28738933018528 203.82753084965276, 164.08264311109866 203.26237952528965 C163.87789689201205 202.69722820092653, 164.226958676182 201.74667087789823, 164.4053292842024 201.11411468007535 C164.5836998922228 200.48155848225247, 164.76897751131906 199.7171794208341, 165.152866759221 199.46704233835246 C165.53675600712296 199.2169052558708, 166.30117905399402 199.64300731571905, 166.70866477161414 199.61329218518543 C167.11615048923426 199.5835770546518, 167.5010083105975 199.44868328242092, 167.59778106494167 199.28875155515075 M167.1956603043397 198.0803864612068 C167.60881755347768 197.8047606378297, 167.910402024533 198.20630038589425, 168.0041088483222 198.68173727728504 C168.0978156721114 199.15717416867582, 167.7161597330619 200.54686595733102, 167.75790124707487 200.93300780955158 C167.79964276108785 201.31914966177214, 168.49062321293002 200.34319037624712, 168.25455793240002 200.99858839060838 C168.01849265187002 201.65398640496963, 166.7325489000345 204.61945867750643, 166.3415095638948 204.8653958957191 C165.9504702277551 205.11133311393178, 166.48994191087561 202.8194082791053, 165.9083219155618 202.47421169988434 C165.32670192024798 202.12901512066338, 163.11762474489805 202.85134342700167, 162.8517895920119 202.7942164203934 C162.58595443912574 202.73708941378516, 164.32413315748727 202.43339111577103, 164.31331099824482 202.1314496602348 C164.30248883900236 201.82950820469858, 162.57014956231373 201.70114815309768, 162.7868566365572 200.98256768717602 C163.00356371080065 200.26398722125435, 165.3208564681151 198.21125816972008, 165.6135534437055 197.8199668647049 C165.90625041929593 197.4286755596897, 164.42890939783004 198.66658316505504, 164.54303849009975 198.63481985708492" stroke="#4A90D9" stroke-width="0.8" fill="none"></path></g><g><path d="M179.79490458386462 280.3122392879581 C178.63572847130698 249.13329372835028, 177.966606693966 216.95770927667493, 177.55933787425715 199.84218356217696 M179.77023829353854 280.27945086129586 C179.16873187401288 251.59116266944895, 177.8650217093565 223.69623428222374, 177.10831546123333 200.07552782226716" stroke="#4A90D9" stroke-width="1.2" fill="none"></path></g><g><path d="M176.00548133961237 199.3746854786948 C176.00548133961237 199.3746854786948, 176.00548133961237 199.3746854786948, 176.00548133961237 199.3746854786948 M176.00548133961237 199.3746854786948 C176.00548133961237 199.3746854786948, 176.00548133961237 199.3746854786948, 176.00548133961237 199.3746854786948 M177.53701264146557 202.14835006270576 C178.0333177848678 201.67282662184294, 179.0046870898704 200.87699445138148, 179.3622323895724 200.0169526146347 M177.47804716066662 201.99952509189666 C178.20068859012824 201.3804067440922, 178.7003962833759 200.85197997329004, 179.6912681892639 199.7962343179205" stroke="none" stroke-width="0.4" fill="none"></path><path d="M177.25143960309106 198.81289092257475 C177.9402022099157 198.51466930594285, 178.3372409052963 197.3265709561682, 178.77130501757347 197.3141133145898 C179.20536912985062 197.3016556730114, 179.83650322924336 198.35752997534632, 179.8558242767539 198.73814507310422 C179.87514532426445 199.11876017086212, 179.2235873654321 199.06328841922675, 178.88723130263665 199.59780390113715 C178.5508752398412 200.13231938304756, 178.1299403990245 201.62880568638872, 177.83768789998115 201.94523796456673 C177.5454354009378 202.26167024274474, 177.34718882194792 201.46837384004925, 177.13371630837653 201.49639757020515 C176.92024379480515 201.52442130036104, 176.8500418723941 202.28242479617828, 176.5568528185528 202.11338034550212 C176.26366376471154 201.94433589482597, 175.51184864434606 200.88638617105397, 175.37458198532886 200.48213086614825 C175.23731532631166 200.07787556124254, 175.37828682871816 200.2307590342566, 175.7332528644497 199.68784851606787 C176.08821890018123 199.14493799787914, 177.4191793582959 197.6089996959019, 177.504378199718 197.2246677570159 C177.58957704114007 196.84033581812992, 176.54557571404564 197.20828605462847, 176.2444459129822 197.38185688275195 M178.094672328256 196.25347819765844 C178.49994547863093 196.01691955772685, 178.3847251442614 196.94031749872198, 178.72477108783022 197.66916992161222 C179.06481703139903 198.39802234450246, 180.2894557210431 200.0569904070387, 180.13494798966886 200.62659273499997 C179.9804402582946 201.19619506296124, 178.3355980506653 200.64019900790004, 177.79772469958468 201.0867838893799 C177.25985134850404 201.53336877085974, 177.16339115370022 202.98946568438652, 176.907707883185 203.30610202387913 C176.65202461266978 203.62273836337175, 176.78307002223346 203.1139534638767, 176.26362507649327 202.9866019263356 C175.74418013075308 202.8592503887945, 174.1204379049068 203.1788942766508, 173.79103820874377 202.54199279863255 C173.46163851258075 201.9050913206143, 173.9267058982703 199.83736728553578, 174.28722689951505 199.16519305822618 C174.64774790075978 198.49301883091658, 175.32745576779712 198.65453332818674, 175.95416421621212 198.508947434775 C176.58087266462712 198.36336154136325, 177.773712745645 198.43509003341495, 178.04747759000497 198.29167769775572 C178.32124243436493 198.14826536209648, 177.51498336515695 197.93632495983593, 177.59675328237182 197.64847342081964" stroke="#4A90D9" stroke-width="0.8" fill="none"></path></g><g><path d="M180.50519976718425 279.9293943929239 C182.18820972772556 257.18333062178243, 185.4480321108983 235.0512313341981, 188.40242032922302 200.43160168373393 M180.25523141166508 280.0310412445298 C181.9571683896455 260.0126801737238, 183.95405870964876 240.49134292687123, 188.07883139852132 200.63335759064438" stroke="#4A90D9" stroke-width="1.2" fill="none"></path></g><g><path d="M186.19170760341856 197.62933293142635 C186.19170760341856 197.62933293142635, 186.19170760341856 197.62933293142635, 186.19170760341856 197.62933293142635 M186.19170760341856 197.62933293142635 C186.19170760341856 197.62933293142635, 186.19170760341856 197.62933293142635, 186.19170760341856 197.62933293142635 M186.6479151879039 201.59261304187604 C186.98270448509484 200.79595063674608, 187.98108753395474 199.97562832220154, 188.77682349471047 198.93943479724285 M186.62316459304364 201.68718915735275 C187.05308100724204 201.05287667924563, 187.93043812874134 199.9940475544801, 189.20046168043484 198.9877992426549 M188.6660223977975 203.77666636061196 C188.92514957191906 203.54489215523037, 189.1314607368968 203.32720391943934, 189.4672256205094 203.09865047095795 M188.76314636003588 203.87718989566915 C188.90550416321923 203.6124145138465, 189.16629927088886 203.44167433374332, 189.41619844765253 203.1007811335561 M189.47158772498523 203.3428670415097 C190.14594529349588 202.05477900322765, 190.91734956107447 201.51248640072063, 192.33782787709328 200.45151305125006 M189.47340563679091 203.26359694203313 C190.19395517076137 202.11955141196592, 191.32484362514256 201.05432908552234, 191.95799834494952 199.88221620593927" stroke="none" stroke-width="0.4" fill="none"></path><path d="M189.2198043439064 198.60395922083535 C189.7366907372851 198.96819405461935, 190.8836151362645 199.31035189209314, 191.1979062649937 199.7659015458918 C191.5121973937229 200.22145119969048, 191.46291751225687 200.81259948997788, 191.10555111628156 201.33725714362745 C190.74818472030626 201.86191479727702, 189.3597330005923 202.54372809895395, 189.05370788914183 202.91384746778925 C188.74768277769135 203.28396683662456, 189.76721387390876 203.80473234380122, 189.26940044757873 203.55797335663928 C188.7715870212487 203.31121436947734, 186.53681275829248 201.7323178450837, 186.06682733116173 201.4332935448176 C185.59684190403098 201.13426924455146, 186.41320594946257 202.24665031413224, 186.44948788479417 201.7638275550425 C186.48576982012577 201.28100479595275, 186.27752236190352 199.28291178885755, 186.28451894315128 198.53635699027905 C186.29151552439905 197.78980219170055, 185.8075952189081 197.4662490361281, 186.49146737228068 197.28449876357143 C187.17533952565327 197.10274849101478, 189.95514618545835 197.25419450753606, 190.38775186338682 197.4458553549392 C190.8203575413153 197.63751620234234, 189.26669251839843 198.16901271894878, 189.0871014398515 198.4344638479903 M187.78104790771846 196.6623528822527 C188.49144648240284 196.23356833257728, 189.29456499979688 196.60168598512607, 189.7439130830877 196.97781392738602 C190.19326116637853 197.35394186964598, 190.21451720089377 198.30113331027619, 190.47713640746338 198.91912053581237 C190.739755614033 199.53710776134855, 191.37559033312638 200.05334808056443, 191.3196283225054 200.6857372806031 C191.2636663118844 201.31812648064175, 190.66016514604632 202.43455539013664, 190.14136434373748 202.7134557360444 C189.62256354142863 202.99235608195218, 188.82033099356633 202.6094550433711, 188.20682350865235 202.35913935604972 C187.59331602373837 202.10882366872835, 186.72259178251323 201.41635004005002, 186.46031943425353 201.2115616121162 C186.19804708599384 201.0067731841824, 186.56672889245132 201.63655323593218, 186.6331894190941 201.13040878844689 C186.69964994573687 200.6242643409616, 186.61423356741233 198.7883271065117, 186.85908259411016 198.17469492720446 C187.103931620808 197.5610627478972, 188.0486223064848 197.23397914642942, 188.10228357928105 197.44861571260333 C188.1559448520773 197.66325227877724, 186.99573980647315 199.40001354041408, 187.18105023088765 199.46251432424793" stroke="#4A90D9" stroke-width="0.8" fill="none"></path></g><g><path d="M179.7557831898079 280.4882067798535 C185.97207436636683 254.9768592090504, 192.32375842356748 230.90757541646428, 199.7092499327585 201.90372533729487 M180.105868204275 279.9152509449984 C185.20085455925127 257.4912091809238, 191.0282890260373 234.91791009472647, 199.63329188112837 202.21026072255006" stroke="#4A90D9" stroke-width="1.2" fill="none"></path></g><g><path d="M196.0021825167515 202.18240968521903 C196.0021825167515 202.18240968521903, 196.0021825167515 202.18240968521903, 196.0021825167515 202.18240968521903 M196.0021825167515 202.18240968521903 C196.0021825167515 202.18240968521903, 196.0021825167515 202.18240968521903, 196.0021825167515 202.18240968521903 M197.22714386178987 204.4558113360149 C198.0129979557888 204.08401575341523, 199.4991880769973 203.2859089437757, 201.37689922940066 201.2401158498969 M197.78947036656731 205.0693871581641 C198.26254944106986 203.80779064565724, 199.34782237791578 203.11852149386416, 200.81885949687947 201.02841357056505" stroke="none" stroke-width="0.4" fill="none"></path><path d="M199.7060831314563 200.83056581748266 C200.36619333317034 200.97851371236095, 201.3899054904838 201.19057877100744, 201.85595550735377 201.55558428595623 C202.32200552422373 201.92058980090502, 202.67532445538387 202.45390205071254, 202.502383232676 203.02059890717533 C202.32944200996815 203.5872957636381, 201.30909503433318 204.67082515146646, 200.81830817110668 204.95576542473293 C200.32752130788018 205.2407056979994, 200.15803440814466 204.70375344199073, 199.557662053317 204.7302405467741 C198.95728969848932 204.75672765155747, 197.81276320080102 205.53459939520243, 197.2160740421407 205.1146880534331 C196.61938488348036 204.69477671166376, 195.9540955244312 202.958095537687, 195.97752710135498 202.21077249615809 C196.00095867827875 201.46344945462917, 196.92271216165003 200.8891924073204, 197.35666350368328 200.63074980425955 C197.79061484571653 200.3723072011987, 198.00405133518655 200.6200875633439, 198.58123515355447 200.660116877793 C199.1584189719224 200.7001461922421, 200.6584742338202 200.9523689984258, 200.81976641389087 200.87092569095412 C200.98105859396156 200.78948238348244, 199.524351707893 200.2098724112917, 199.5489882339786 200.17145703296296 M199.49346476401496 199.53500786022676 C200.1874844479333 199.97776541031106, 202.1077359628777 201.68344110174155, 202.74836634167494 202.2969893908258 C203.38899672047216 202.91053767991002, 203.5428960068111 202.68854993692972, 203.33724703679823 203.21629759473223 C203.13159806678536 203.74404525253473, 202.3242103618905 205.33523098523804, 201.5144725215977 205.46347533764083 C200.7047346813049 205.59171969004362, 199.1661620344977 204.24087545000157, 198.47881999504145 203.98576370914896 C197.7914779555852 203.73065196829634, 197.56772215616917 204.17575766566532, 197.39042028486017 203.93280489252516 C197.21311841355117 203.689852119385, 197.65889256383156 203.07896534866626, 197.41500876718743 202.52804707030793 C197.1711249705433 201.9771287919496, 195.7811615689076 200.92354874051452, 195.92711750499535 200.6272952223752 C196.0730734410831 200.3310417042359, 197.3509925121304 200.83337341024287, 198.2907443837139 200.75052596147214 C199.2304962552974 200.6676785127014, 201.21041395874573 200.0754332132616, 201.5656287344963 200.1302105297507 C201.92084351024687 200.18498784623984, 200.4117941325745 200.9326883330645, 200.42203303821736 201.0791898604068" stroke="#4A90D9" stroke-width="0.8" fill="none"></path></g><g><path d="M180.37793683218547 280.08200727343905 C189.45863165556105 256.4305157585618, 199.23702217667315 232.91884645153024, 210.18455480040478 205.99120357238883 M179.70695603616812 280.1018485272442 C188.0327425589325 260.61266576143373, 195.39063502835282 241.6523334476412, 209.86260669429234 205.93507000163245" stroke="#4A90D9" stroke-width="1.2" fill="none"></path></g><g><path d="M207.69313167695324 204.3951187825733 C207.69313167695324 204.3951187825733, 207.69313167695324 204.3951187825733, 207.69313167695324 204.3951187825733 M207.69313167695324 204.3951187825733 C207.69313167695324 204.3951187825733, 207.69313167695324 204.3951187825733, 207.69313167695324 204.3951187825733 M209.05359331722104 207.14077878011793 C210.38366485154086 205.71918598287468, 211.15862685061984 204.78515064757934, 211.72908619996124 204.00622970807552 M209.1152416981711 207.07869053107106 C210.11593330849988 206.47296703198109, 210.9704894702911 205.28550855482297, 211.99349808954463 204.23928871887603" stroke="none" stroke-width="0.4" fill="none"></path><path d="M211.1042970403145 202.83923231639255 C211.58979046814233 202.687088468766, 210.8603963199759 202.7959012530385, 211.06433585422837 203.45500755283945 C211.26827538848084 204.1141138526404, 212.03892826787367 206.1500063369302, 212.32793424582925 206.79387011519827 C212.61694022378484 207.43773389346634, 212.98625529622447 206.92773365862774, 212.79837172196187 207.31819022244787 C212.61048814769927 207.708646786268, 211.84110180290315 208.8579509497128, 211.20063280025363 209.1366094981191 C210.5601637976041 209.4152680465254, 209.44822652967156 209.4385623312006, 208.95555770606467 208.9901415128857 C208.46288888245778 208.54172069457084, 208.28909846879895 207.17385723309985, 208.24461985861225 206.4460845882298 C208.20014124842555 205.71831194335977, 208.76133776880278 204.98749279360754, 208.68868604494443 204.62350564366548 C208.6160343210861 204.25951849372342, 207.63028243738634 204.5590394424187, 207.80870951546228 204.26216168857752 C207.98713659353822 203.96528393473633, 209.42856487591237 203.04948964752336, 209.75924851340005 202.84223912061842 C210.08993215088773 202.63498859371347, 209.64664929631778 202.9871493427642, 209.7928113403884 203.01865852714784 M212.05074185204273 203.1427622590459 C212.5325419580358 203.05789072143205, 212.7258017284248 203.12323414962586, 212.70434644808944 203.82747177658734 C212.68289116775406 204.53170940354883, 212.23288123215602 206.48332246918136, 211.92201017003057 207.36818802081478 C211.61113910790513 208.2530535724482, 210.94635976186686 208.9098886964775, 210.83912007533672 209.13666508638795 C210.7318803888066 209.3634414762984, 211.861161135774 208.8423422667721, 211.27857205084982 208.7288463602775 C210.69598296592562 208.61535045378287, 207.9791030959518 209.0693181341374, 207.34358556579164 208.45568964742014 C206.70806803563147 207.84206116070288, 207.2228377885513 205.64029132668452, 207.46546686988881 205.04707543997398 C207.70809595122634 204.45385955326344, 208.68293281331634 205.3033708477355, 208.7993600538168 204.89639432715688 C208.91578729431725 204.48941780657827, 207.81691027176166 203.09217435348717, 208.16403031289153 202.6052163165023 C208.5111503540214 202.11825827951742, 210.51694778725263 201.61106063127525, 210.88208030059604 201.9746461052476 C211.24721281393946 202.33823157921992, 210.39463422846669 204.56011561398518, 210.35482539295194 204.78672916033625" stroke="#4A90D9" stroke-width="0.8" fill="none"></path></g><g><path d="M180.22622185551268 280.13433209546923 C188.84361546732387 264.7042640192346, 197.79319800020855 249.542458897427, 220.5880748262991 210.21662123843683 M179.8492885584841 280.10000194939676 C189.2774034302323 263.3495361111402, 199.07944005791637 247.5360551265544, 219.75618204833765 210.9190314221893" stroke="#4A90D9" stroke-width="1.2" fill="none"></path></g><g><path d="M217.9364052617763 209.3244216816368 C217.9364052617763 209.3244216816368, 217.9364052617763 209.3244216816368, 217.9364052617763 209.3244216816368 M217.9364052617763 209.3244216816368 C217.9364052617763 209.3244216816368, 217.9364052617763 209.3244216816368, 217.9364052617763 209.3244216816368 M219.27846947203315 212.42323876887275 C220.51437614861123 211.05106565450265, 221.6385968050309 210.15077358463998, 222.03752422429676 209.0509680837496 M219.58958450387848 212.21103764415108 C220.75247499601474 210.8277589702944, 221.5441901672875 209.65300339285355, 222.34141255519094 209.06054168196462" stroke="none" stroke-width="0.4" fill="none"></path><path d="M219.94859052793112 208.5068842722363 C220.5455126600824 208.42714261542798, 220.45976100673914 208.29122491013123, 220.92716262139854 208.3998124855609 C221.39456423605793 208.50840006099054, 222.44032653138424 208.6312402487475, 222.75300021588745 209.15840972481422 C223.06567390039066 209.68557920088094, 223.04107096049307 211.01522104619693, 222.80320472841785 211.56282934196113 C222.56533849634263 212.11043763772534, 221.86370734867475 212.2227858856224, 221.3258028234362 212.44405949939937 C220.78789829819763 212.66533311317636, 219.94502391503326 212.76426619511906, 219.57577757698652 212.89047102462297 C219.2065312389398 213.01667585412687, 219.4511851422775 213.64707862291948, 219.1103247951558 213.20128847642283 C218.7694644480341 212.75549832992618, 217.74561307669012 210.83962150895007, 217.53061549425644 210.2157301456431 C217.31561791182276 209.59183878233614, 217.4444800688421 209.61746371606, 217.82033930055374 209.45794029658097 C218.19619853226538 209.29841687710194, 219.49636677156536 209.42740948756983, 219.78577088452633 209.2585896287689 C220.0751749974873 209.08976976996797, 219.7556561913168 208.54127340224508, 219.55676397831962 208.44502114377545 M217.88614970844841 208.52319471072002 C218.24643052938927 208.69681359920926, 218.86436501492537 209.59165216172246, 219.342269190693 209.47640803616568 C219.82017336646064 209.3611639106089, 220.2968338880736 207.5102215624469, 220.75357476305416 207.83172995737937 C221.21031563803473 208.15323835231183, 221.92887580969898 210.60506284659508, 222.08271444057638 211.4054584057605 C222.23655307145378 212.20585396492592, 221.7565636303826 212.53554310672766, 221.67660654831863 212.6341033123719 C221.59664946625466 212.73266351801615, 222.02550857147435 211.94955531651266, 221.60297194819253 211.99681963962598 C221.18043532491072 212.0440839627393, 219.90906961035995 213.23782373153088, 219.14138680862774 212.9176892510518 C218.37370400689554 212.5975547705727, 217.2406209631326 210.3820742509643, 216.99687513779924 210.0760127567515 C216.75312931246586 209.7699512625387, 217.21176163104138 211.09298827944556, 217.67891185662742 211.08132028577492 C218.14606208221346 211.06965229210428, 219.43202735648845 210.3278914186267, 219.79977649131538 210.00600479472772 C220.16752562614232 209.68411817082873, 220.10485262787765 209.34968838014632, 219.88540666558904 209.15000054238104" stroke="#4A90D9" stroke-width="0.8" fill="none"></path></g><g><path d="M179.87141001553505 280.2607195566795 C191.89389066895728 264.04418412973524, 204.359586543677 248.93157875264575, 229.28697843002922 217.4318585042559 M179.72257955187342 279.72418142398965 C196.66468405409364 259.04106818714376, 212.79921668749472 238.11568201943393, 229.34859465150825 216.9035408033567" stroke="#4A90D9" stroke-width="1.2" fill="none"></path></g><g><path d="M227.6913198088756 215.1542135392632 C227.6913198088756 215.1542135392632, 227.6913198088756 215.1542135392632, 227.6913198088756 215.1542135392632 M227.6913198088756 215.1542135392632 C227.6913198088756 215.1542135392632, 227.6913198088756 215.1542135392632, 227.6913198088756 215.1542135392632 M228.11575488385517 219.02207981303576 C228.60006526335457 218.94171084470548, 229.48349859602973 218.37824654834176, 230.30880453997676 216.63164776543724 M228.12412262500368 219.27103656680833 C228.89399994124986 218.59815961802025, 229.39133743876442 217.71691087965596, 230.6206400864368 216.49765694893716" stroke="none" stroke-width="0.4" fill="none"></path><path d="M228.88216887284335 214.62431760529464 C229.56809546544864 214.76436575153858, 230.96236160006754 215.34118294685163, 231.45604127980323 215.87430235749068 C231.94972095953892 216.40742176812972, 231.7670510672081 217.49795505021743, 231.84424695125753 217.82303406912897 C231.92144283530698 218.1481130880405, 232.26031588875318 217.60777686298727, 231.91921658409993 217.82477647095993 C231.57811727944667 218.0417760789326, 230.610962557832 218.98357064136422, 229.797651123338 219.12503171696494 C228.984339688844 219.26649279256566, 227.6677013821832 218.99137995216466, 227.03934797713592 218.67354292456423 C226.41099457208864 218.3557058969638, 225.89579246488086 217.7832024683144, 226.02753069305433 217.21800955136226 C226.1592689212278 216.6528166344101, 227.54668039280844 215.63302214368346, 227.82977734617683 215.28238542285126 C228.1128742995452 214.93174870201906, 227.45823805247238 215.16536280293752, 227.7261124132647 215.11418922636904 C227.99398677405702 215.06301564980055, 229.06869141764037 215.1739418716573, 229.4370235109307 214.9753439634404 C229.805355604221 214.7767460552235, 229.8033767498906 213.93006376811394, 229.9361049730067 213.92260177706757 M229.40775479174812 214.60566099366667 C229.98144335834135 214.89686115734628, 230.85334147847362 216.243529650985, 231.08378969577757 216.56103264145256 C231.3142379130815 216.8785356319201, 231.04517647988513 216.05486086812903, 230.79044409557181 216.51067893647192 C230.5357117112585 216.9664970048148, 229.96557759989864 218.71987013321515, 229.55539538989763 219.29594105150997 C229.14521317989661 219.8720119698048, 228.7901039433429 220.09097506653882, 228.3293508355658 219.96710444624077 C227.8685977277887 219.84323382594272, 227.13627201816368 219.01695076815142, 226.7908767432351 218.5527173297216 C226.4454814683065 218.08848389129176, 226.40577643354828 217.6929691068423, 226.25697918599423 217.18170381566185 C226.10818193844017 216.6704385244814, 225.25056452202125 216.01701112207775, 225.89809325791066 215.48512558263891 C226.54562199380007 214.95324004320008, 229.41272153741994 214.0227257175176, 230.14215160133065 213.99039057902885 C230.87158166524137 213.9580554405401, 230.4912569682166 215.25355533882677, 230.274673641375 215.29111475170646 C230.0580903145334 215.32867416458615, 229.0764109684501 214.28501269119863, 228.84265164028108 214.21574705630704" stroke="#4A90D9" stroke-width="0.8" fill="none"></path></g><g><path d="M179.46515624330456 280.3630568279901 C195.23441262669851 264.9366448416257, 209.77111024472168 251.48569159444895, 238.08914741849188 224.41421251767682 M180.27744760143312 280.23152552083707 C195.35820247686695 264.61363054445866, 211.07410133207065 249.77239539860324, 237.57761709399895 224.40013373487585" stroke="#4A90D9" stroke-width="1.2" fill="none"></path></g><g><path d="M235.65533299128464 222.077224578525 C235.65533299128464 222.077224578525, 235.65533299128464 222.077224578525, 235.65533299128464 222.077224578525 M235.65533299128464 222.077224578525 C235.65533299128464 222.077224578525, 235.65533299128464 222.077224578525, 235.65533299128464 222.077224578525 M235.53311642161796 226.39844966772463 C237.540604803497 225.1972212622364, 239.35239779715255 223.0538495530094, 240.1295012434493 221.2826004895922 M235.90293217111432 226.2711103491445 C236.70062070114946 225.44333598034154, 237.69479338008037 223.90818862648234, 239.59998775800676 221.87361646737816" stroke="none" stroke-width="0.4" fill="none"></path><path d="M239.1142795323788 221.62220655499667 C239.6458831884435 221.65933018309286, 240.46849665887325 222.11425843747233, 240.4702115642804 222.56457636936767 C240.47192646968753 223.014894301263, 239.24151088437907 223.75664209180354, 239.1245689648216 224.32411414636877 C239.00762704526414 224.891586200934, 239.94890766746826 225.56176245874815, 239.76856004693553 225.96940869675896 C239.5882124264028 226.37705493476977, 238.55159103500344 226.63471665109782, 238.04248324162523 226.7699915744336 C237.53337544824703 226.90526649776936, 237.14729378612188 226.9718804678861, 236.7139132866663 226.78105823677356 C236.28053278721072 226.590236005661, 235.55756524273795 226.3211345095566, 235.4422002448918 225.62505818775836 C235.32683524704566 224.9289818659601, 235.95228925164912 223.23491711299317, 236.02172329958947 222.604600305984 C236.09115734752982 221.97428349897484, 235.35817422533523 222.05189360018073, 235.85880453253387 221.84315734570328 C236.3594348397325 221.63442109122582, 238.61153432358958 221.24620951660398, 239.02550514278124 221.35218277911923 C239.4394759619729 221.45815604163448, 238.36446023142656 222.19758060409268, 238.34262944768383 222.47899692079477 M239.09383037037762 223.2885720226065 C239.37976536295585 223.2202256361109, 238.76706068108794 222.50464588097543, 238.77027633419868 223.04544694435347 C238.77349198730943 223.5862480077315, 239.30327638148464 226.07457169772312, 239.11312428904208 226.53337840287483 C238.92297219659952 226.99218510802655, 237.83785472918223 225.7234956337604, 237.62936377954338 225.79828717526385 C237.42087282990454 225.8730787167673, 238.25864911382186 226.86438147343026, 237.862178591209 226.98212765189558 C237.46570806859611 227.0998738303609, 235.76574120413056 226.89442075664033, 235.25054064386615 226.5047642460558 C234.73534008360173 226.11510773547127, 234.56328002174538 225.0012206339553, 234.77097522962254 224.64418858838837 C234.9786704374997 224.28715654282144, 236.319226259622 224.9477340317427, 236.49671189112908 224.36257197265425 C236.67419752263615 223.7774099135658, 235.55766656841882 221.38543627082518, 235.83588901866491 221.13321623385778 C236.114111468911 220.88099619689038, 237.92503534705247 222.8697777899107, 238.1660465926057 222.8492517508499 C238.40705783815895 222.8287257117891, 237.27443253048514 221.26048295807212, 237.28195649198435 221.01005999949302" stroke="#4A90D9" stroke-width="0.8" fill="none"></path></g><g><path d="M175.65947627428778 286.5247654252124 C175.65947627428778 286.5247654252124, 175.65947627428778 286.5247654252124, 175.65947627428778 286.5247654252124 M175.65947627428778 286.5247654252124 C175.65947627428778 286.5247654252124, 175.65947627428778 286.5247654252124, 175.65947627428778 286.5247654252124 M175.7125013778572 296.11379208583435 C179.4058434103145 292.5872341615877, 181.08004784752072 287.53968176319665, 184.62321984744727 285.12042299131116 M176.21525187428773 294.49546765631163 C177.9303747267897 292.5923639757053, 179.18546201641274 290.9971231981652, 184.2719732758851 285.8383366365743" stroke="none" stroke-width="0.75" fill="none"></path><path d="M182.22085235893087 284.70779723963625 C183.5526192344327 285.20655759585503, 185.4859708077951 286.60245825795107, 186.0246376826336 287.93781001152064 C186.5633045574721 289.2731617650902, 185.86724547226729 291.5961184371925, 185.45285360796183 292.7199077610536 C185.03846174365637 293.8436970849147, 184.52558340651922 293.96664334691303, 183.53828649680088 294.6805459546872 C182.55098958708254 295.3944485624614, 180.97580017703658 297.0884385873724, 179.5290721496518 297.0033234076986 C178.08234412226702 296.91820822802475, 175.90557914038587 295.27134661395627, 174.85791833249215 294.16985487664414 C173.81025752459843 293.068363139332, 173.0575429322028 291.7283407924516, 173.24310730228953 290.3943729838258 C173.42867167237625 289.0604051752, 174.90021684926228 287.35782538864345, 175.97130455301254 286.16604802488934 C177.0423922567628 284.9742706611352, 178.52417305754904 283.60725302826677, 179.6696335247911 283.2437088013011 C180.81509399203316 282.8801645743355, 182.28878051354434 283.7991736782492, 182.844067356465 283.98478266309564 C183.39935419938564 284.1703916479421, 183.11520324884344 284.0862502656964, 183.00135458231503 284.35736271037973 M180.57178891106594 285.06267571440884 C181.6852814474354 284.83625148789247, 183.18830195936746 284.8012471642694, 184.16501746343846 285.3508870490215 C185.14173296750945 285.90052693377356, 186.30582350708926 287.15095804722915, 186.43208193549194 288.36051502292145 C186.55834036389462 289.57007199861374, 185.79780842590532 291.5263653711486, 184.9225680338545 292.6082289031752 C184.0473276418037 293.6900924352018, 182.62442411669616 294.1633004404339, 181.18063958318714 294.85169621508095 C179.73685504967813 295.540091989728, 177.41995346258926 297.1421212141974, 176.2598608328004 296.7386035510576 C175.09976820301154 296.33508588791784, 174.7516845420629 293.8494279750138, 174.2200838044539 292.43059023624215 C173.68848306684492 291.0117524974705, 172.8818403587239 289.2790251324636, 173.07025640714642 288.2255771184278 C173.25867245556893 287.172129104392, 173.8947388389411 286.7493605479767, 175.35058009498903 286.10990215202753 C176.80642135103696 285.47044375607834, 180.91744725773114 284.76008700690306, 181.805303943434 284.3888267427327 C182.69316062913688 284.01756647856234, 181.01471393162845 284.0351799884891, 180.6777202092063 283.8823405670053" stroke="#000000" stroke-width="1.5" fill="none"></path></g><g><path d="M179.17223183704237 301.164745041745 C179.5536494546142 312.62472849446584, 178.5910686100409 325.25817814217163, 181.5629935685344 330.9861873184019 M180.35664536857428 301.86238605615074 C180.63806802903795 312.59355033419826, 180.41586192472937 324.4026450323096, 180.3662511030078 330.4248814075496" stroke="#000000" stroke-width="1.5" fill="none"></path></g><g><path d="M495.28392466052975 259.617071018973 C495.28392466052975 259.617071018973, 495.28392466052975 259.617071018973, 495.28392466052975 259.617071018973 M495.28392466052975 259.617071018973 C495.28392466052975 259.617071018973, 495.28392466052975 259.617071018973, 495.28392466052975 259.617071018973 M495.8681886563931 270.4748612838562 C496.92251965233874 266.4304365126241, 499.8660676590818 266.0815193225423, 504.7584952056065 260.451548615813 M496.34469773813885 269.46049396186095 C499.7317972899524 265.20878637714634, 502.2036766238632 261.2881171864576, 504.50676522227417 259.13864877305906 M502.0185118325906 272.79244102799294 C504.2026912237995 270.98642448072553, 505.39754634227 269.3549560726131, 506.81592554568095 266.60657207626326 M502.7343404365639 272.7686620814915 C503.9835778708172 271.24191222307616, 505.190340732983 269.70724168374215, 507.20662099800626 267.0707332762967" stroke="none" stroke-width="0.9" fill="none"></path><path d="M499.74576834739526 257.2574226770468 C501.2540540562819 257.4118503047173, 504.440901186707 259.393472580292, 505.556413977703 260.55804114771996 C506.67192676869905 261.72260971514794, 506.27541908575665 262.88881127393637, 506.4388450933714 264.2448340816148 C506.6022711009862 265.6008568892932, 507.23498157566564 267.3862341527618, 506.53697002339163 268.69417799379045 C505.8389584711176 270.0021218348191, 503.85104906582785 271.7504817539136, 502.2507757797275 272.09249712778677 C500.6505024936272 272.4345125016599, 498.2299793257866 271.28791731917613, 496.93533030678947 270.74627023702936 C495.64068128779235 270.2046231548826, 495.03156434471066 270.2133016963595, 494.48288166574486 268.8426146349061 C493.93419898677905 267.4719275734527, 493.50460097107816 264.06563536999215, 493.64323423299464 262.52214786830893 C493.7818674949111 260.9786603666257, 494.1178969791316 260.44143969103675, 495.3146812372437 259.581689624807 C496.51146549535576 258.7219395585772, 499.84340679127183 257.47264550938564, 500.82393978166726 257.36364747093035 C501.8044727720627 257.25464943247505, 501.14280073536634 258.742695571909, 501.1978791796164 258.9277013940751 M496.61756116237916 259.5010392405643 C498.00421262749796 258.541342063762, 499.8191010526656 256.7315327805404, 501.53189262787777 257.2059029630871 C503.24468420308995 257.6802731456338, 505.80413838786245 261.00310232657097, 506.8943106136522 262.34726033584434 C507.9844828394419 263.6914183451177, 508.2125551787333 264.0585074227835, 508.072925982616 265.2708510187272 C507.9332967864988 266.48319461467094, 507.08047710673486 268.6449906423003, 506.0565354369486 269.6213219115065 C505.0325937671623 270.59765318071277, 503.354564963895 270.78732664601733, 501.9292759638985 271.1288386339645 C500.503986963902 271.4703506219117, 499.0015510996336 272.49719497547756, 497.50480143696944 271.67039383918956 C496.0080517743053 270.84359270290156, 493.6822179799121 267.8530125390006, 492.9487779879133 266.1680318162364 C492.21533799591447 264.4830510934722, 492.3736363445163 262.8484579093146, 493.10416148497654 261.56050950260453 C493.8346866254368 260.27256109589445, 496.4078164719375 259.17185899542926, 497.33192883067466 258.44034137597583 C498.2560411894118 257.7088237565224, 498.55300320127884 256.9465206167703, 498.6488356373994 257.1714037858841" stroke="#000000" stroke-width="1.8" fill="none"></path></g><g><path d="M500.175008187413 278.85788771957834 C499.3803649095819 291.1082705370875, 498.9958889608606 303.63562128794354, 498.53670552658514 310.09316004183245 M499.74038390103567 279.8467168837632 C500.2306905576829 287.8356009421943, 500.7291166627806 295.1956248192136, 499.5076706015965 309.70212249811993" stroke="#000000" stroke-width="1.8" fill="none"></path></g><g><path d="M489.2913223793187 285.0500043560914 C493.7424023041053 283.53893217642883, 502.4231944811406 286.9331323734128, 511.1670351875022 286.89624231188435 M488.4162999145084 284.6888890230057 C494.04336772232944 284.46253050110914, 499.76033256143785 285.2167817019565, 511.7994053271163 285.7019701273274" stroke="#000000" stroke-width="1" fill="none"></path></g><g><path d="M261.3335075988555 350.7128389519126 C302.13903801548025 348.475076103148, 339.52376529755014 348.3819002635807, 430.8403900072124 350.62920002487493 M259.25251650610073 349.0521228845967 C325.47891229372675 347.8171678528938, 391.6697390174533 348.1341374276104, 429.99680965279384 350.59930837658055" stroke="#000000" stroke-width="1.5" fill="none"></path></g><g><path d="M259.1185114363184 345.75896024062087 C257.83532538563605 346.87501188891855, 253.27058543482534 347.85045894184753, 250.9440923619711 349.35807306851376 M260.3969922105406 345.09584817603803 C257.5565740814751 346.53683906054744, 255.90728080685386 346.96514102852296, 250.50296333343496 349.6578397040396" stroke="#000000" stroke-width="1.2" fill="none"></path></g><g><path d="M260.08406830564326 355.38526438774335 C256.84570628434636 352.3329483996861, 253.52062400516635 352.4965391786096, 249.8602422581466 349.1927602312434 M260.4674898339851 355.1331419007149 C256.072365549212 353.81243669888534, 253.36970385237976 351.6550832850034, 250.10491745441635 349.4522356977072" stroke="#000000" stroke-width="1.2" fill="none"></path></g><g><path d="M430.1244504757558 344.6585844023964 C432.75310475709193 346.09394224451137, 436.93750238198993 348.23112269514803, 439.1273889605654 350.8670202492967 M429.74703706237324 344.86448295939806 C433.38067464263867 346.05969913501895, 436.3380862783245 348.56312645182226, 439.7629477270009 349.6530168352304" stroke="#000000" stroke-width="1.2" fill="none"></path></g><g><path d="M430.845335418391 356.07047294172736 C432.93316191219736 353.29394228301953, 437.8237446318251 351.25508511592335, 438.96794434053703 349.996529913529 M430.1049275233143 355.27502847020196 C433.20636507475155 354.1676283998302, 435.6291306594646 352.8540752955662, 440.470971173404 349.60878314324475" stroke="#000000" stroke-width="1.2" fill="none"></path></g><g><path d="M120.54400699610981 159.3354009713539 C136.03181054152617 160.52009683114503, 150.50561231374243 159.74114538828732, 179.8753516603646 159.38840869365984 M119.7814309219713 159.7782631210477 C137.16412072273664 159.63310275909652, 153.93327058453576 159.72061485810406, 179.98987281465187 159.91150529602635 M180.1581954617612 159.91844597566492 C180.6934927962218 173.6637538386263, 179.76870961384694 189.15060632983418, 179.36090905355894 200.75093145687615 M179.84907513621934 160.0800217414753 C179.59187486975998 170.62873250583084, 179.8372724870745 180.9711181759647, 180.2676228882532 199.94730104855523 M180.1762456745071 199.62361897024275 C161.31484874104666 199.89727075790694, 140.88844380062284 200.6556049366559, 120.16296234717731 200.24356575268746 M179.75472638521077 199.61613077095632 C167.3162337588951 200.0028619945952, 154.4481925330647 200.41666338901896, 119.79413813131808 199.65898739694558 M120.30136845566855 199.58044077355314 C120.3405852188649 190.3840758674538, 120.11999020053877 181.44749305696638, 119.80677712166357 160.56748847282824 M120.09384094086023 200.274913567367 C120.17523692198685 188.541347192997, 120.27251991130669 177.51550041781852, 120.01718781221301 160.37000251514016" stroke="#000000" stroke-width="1.2" fill="none"></path></g><g><path d="M128.69365893525418 180.97231790094608 C143.06675775608224 180.0304259387914, 153.20663417128554 181.5532214904806, 169.86928803787595 181.27769602630627 M129.6669341345905 180.75211070300782 C144.10088493390492 180.63731086261953, 159.46270656400606 180.81179619789546, 170.54846535711889 180.75528884023893" stroke="#000000" stroke-width="0.8" fill="none"></path></g><g><path d="M130.85251204208618 189.28634744230595 C139.67080877168493 187.37298380524348, 152.1692792864419 189.30532230689812, 158.62933872825457 188.4966243496035 M129.34202472052834 187.85353674760046 C136.56284588767474 187.7383065066454, 143.90398184118348 188.34447272545617, 160.98838484917215 187.62658047079472" stroke="#000000" stroke-width="0.6" fill="none"></path></g><g><path d="M512.4256851622818 175.14220158480714 C512.4256851622818 175.14220158480714, 512.4256851622818 175.14220158480714, 512.4256851622818 175.14220158480714 M512.4256851622818 175.14220158480714 C512.4256851622818 175.14220158480714, 512.4256851622818 175.14220158480714, 512.4256851622818 175.14220158480714 M513.1327913490695 183.7077186192398 C517.3122166117906 181.10855469147907, 520.8197469483961 176.84426136297074, 524.1019976582987 171.45419886006252 M513.4302708356525 184.0231708605673 C516.5560010882318 179.32629117072307, 520.0589399562994 174.62746940470538, 523.1078324928837 171.32199484412442 M515.7887647929753 187.6385603258552 C518.3264756065073 185.94983052886195, 523.8513820893507 182.718538274861, 528.5737626302895 176.88657277960354 M516.5325232632925 188.6941479880073 C519.7097021438294 185.7016936900184, 523.1776131860503 182.3270712737737, 528.4952406420687 175.90691140251158" stroke="none" stroke-width="0.75" fill="none"></path><path d="M522.7344988856371 171.27381304081536 C524.6215774154169 171.82015403887195, 527.4818880461474 174.4119551088599, 528.3365134327215 176.28271080310049 C529.1911388192956 178.15346649734107, 528.4330185808318 180.5410156205944, 527.8622512050817 182.49834720625893 C527.2914838293317 184.45567879192345, 526.2681149968321 186.8608976013447, 524.911909178221 188.02670031708757 C523.5557033596099 189.19250303283044, 521.4976326665002 189.6845476041977, 519.7250162934153 189.49316350071612 C517.9523999203303 189.30177939723455, 515.5900278318254 188.25453246380334, 514.2762109397112 186.8783956961981 C512.962394047597 185.50225892859288, 512.1882026982231 183.14904455648778, 511.8421149407301 181.23634289508476 C511.49602718323706 179.32364123368174, 511.124338049181 177.2318539689662, 512.1996843947529 175.40218572778 C513.2750307403248 173.5725174865938, 516.2132911557304 170.97618809724707, 518.2941930141617 170.25833344796754 C520.375094872593 169.540478798688, 523.6483884067187 170.8313107947316, 524.6850955453407 171.09505783210273 C525.7218026839627 171.35880486947386, 524.7781989844962 171.60733486532834, 524.5144358458934 171.8408156721943 M519.7298415138291 171.84573999470828 C521.5327941327909 171.54994960704352, 525.5674566995451 171.35899491119574, 527.1070226754339 172.31865001519557 C528.6465886513226 173.2783051191954, 528.888281109685 175.30722663590586, 528.9672373691619 177.60367061870733 C529.0461936286389 179.9001146015088, 528.610825170876 184.25174869089608, 527.5807602322956 186.09731391200427 C526.5506952937152 187.94287913311246, 524.6197699345223 188.19530365350417, 522.7868477376795 188.67706194535654 C520.9539255408367 189.15882023720891, 518.353064156084 189.73322932119146, 516.5832270512391 188.98786366311856 C514.8133899463942 188.24249800504566, 512.9312183915272 185.9462418322664, 512.1678251086101 184.20486799691923 C511.40443182569317 182.46349416157207, 511.79490320550445 180.6745898707469, 512.0028673537372 178.53962065103553 C512.21083150197 176.40465143132417, 511.78735906675644 172.6245131986886, 513.4156099980066 171.39505267865098 C515.0438609292569 170.16559215861338, 520.6573144033807 171.4397987904227, 521.7723729412384 171.16285753080993 C522.887431479096 170.88591627119715, 520.2732285730868 169.57375117359993, 520.1059612251522 169.73340512097434" stroke="#000000" stroke-width="1.5" fill="none"></path></g><g><path d="M513.159125564543 177.1047845928204 C513.159125564543 177.1047845928204, 513.159125564543 177.1047845928204, 513.159125564543 177.1047845928204 M513.159125564543 177.1047845928204 C513.159125564543 177.1047845928204, 513.159125564543 177.1047845928204, 513.159125564543 177.1047845928204 M512.996376401812 181.02926178344197 C515.799757778328 178.20512792994924, 519.0418079175365 174.40355912098198, 519.1534903876664 173.08278899174138 M513.7633548588688 180.9186653288282 C515.785909470397 179.02906633193, 517.2635047391598 176.88676398309846, 520.4257411666993 173.3584534610064 M514.8152432900258 183.08306618170576 C519.5176060962465 180.60763002959055, 520.3997591530527 177.1006582915028, 522.3934447598269 174.10036028142162 M515.1822093845657 184.01001915779722 C518.5162932904398 180.20036144880493, 520.4970466644415 178.27618727664043, 524.1047439882486 174.1695180224283 M517.3225047157451 186.97266013102927 C520.7977541930304 183.36285396851287, 522.7050539693938 178.80846462214083, 526.8519697042207 176.44983832823885 M517.1476984299159 186.23614815524147 C519.4253555720622 182.75740902742146, 522.6854429672694 179.60963883214413, 526.0345326356169 176.3447726922695 M521.1578715505158 186.32316347649729 C523.2605630569346 182.7424996015446, 526.0750764473215 181.6616624848265, 526.9284087641835 179.00021299462853 M521.6759894238961 185.8127278878356 C523.3205199312278 183.35976894746668, 524.8340738531272 181.80438459072175, 527.9029708783311 179.15649005691876" stroke="none" stroke-width="0.4" fill="none"></path><path d="M516.7366881250421 173.1165532909427 C518.2444327486642 172.30277515508362, 520.9461892493218 172.58987961738717, 522.5830848392792 173.25570320445723 C524.2199804292366 173.9215267915273, 525.7587121823502 175.79992830386465, 526.5580616647864 177.11149481336315 C527.3574111472225 178.42306132286166, 527.6781404246137 179.68936935492894, 527.3791817338961 181.12510226144826 C527.0802230431784 182.56083516796758, 525.7665009618219 184.96284677408713, 524.7643095204803 185.72589225247913 C523.7621180791388 186.48893773087113, 522.8812307345584 185.78429969461536, 521.3660330858465 185.70337513180021 C519.8508354371347 185.62245056898507, 517.1063248146058 185.98530471384169, 515.673123628209 185.24034487558822 C514.2399224418123 184.49538503733476, 513.2007348937354 182.5723916870587, 512.7668259674662 181.2336161022794 C512.3329170411969 179.89484051750009, 512.2608787611107 178.34541205629924, 513.0696700705935 177.2076913669124 C513.8784613800763 176.06997067752556, 516.7563865490521 175.1388727335033, 517.619573824363 174.4072919659584 C518.4827610996739 173.6757111984135, 518.1486840196926 172.70012336811942, 518.2487937224588 172.818206761643 M517.6134883021439 172.648898555924 C518.9813382786319 172.14787397017673, 522.7294561722872 172.5866338798847, 524.1093549890192 173.53942040675167 C525.4892538057511 174.49220693361866, 525.6385120845904 176.8568606874195, 525.8928812025357 178.36561771712593 C526.147250320481 179.87437474683236, 526.1609600290143 181.39769457187776, 525.6355696966909 182.59196258499026 C525.1101793643676 183.78623059810275, 523.6515172367587 184.8449294160986, 522.7405392085958 185.53122579580094 C521.829561180433 186.21752217550326, 521.2432807110433 186.78166717338397, 520.169701527714 186.70974086320427 C519.0961223443846 186.63781455302458, 517.4862648552291 185.95378161185857, 516.29906410862 185.0996679347228 C515.1118633620108 184.245554257587, 513.5988423054404 182.81177515907754, 513.0464970480592 181.58505880038948 C512.4941517906781 180.3583424417014, 512.3122905139692 179.30097873383048, 512.9849925643333 177.73936978259445 C513.6576946146974 176.17776083135843, 516.2335897552628 172.68273301173616, 517.0827093502443 172.21540509297336 C517.9318289452258 171.74807717421055, 517.968958893914 174.7147029540198, 518.0797101342224 174.9354022700177" stroke="#000000" stroke-width="0.8" fill="none"></path></g><g><path d="M520.4250420934361 169.0033427774453 C520.7118396078102 173.4627269913942, 520.5121851484365 177.25868667463976, 520.8737284004867 179.3353001837028 M519.6776192642465 169.8190532978203 C519.9138902957496 172.47399788950509, 520.3862001497032 175.10713592928352, 519.532828700701 179.86890038460507" stroke="#000000" stroke-width="1" fill="none"></path></g><g><path d="M519.4265384470049 179.61997967050849 C521.3532829291803 180.89731853065447, 522.9843129742438 182.1945768425083, 526.4095168863906 183.34106284194527 M520.1833786120593 179.95181731484254 C522.4535494169212 181.343047264722, 524.380148788611 183.00148627384831, 525.9060707721336 184.30126305770483" stroke="#000000" stroke-width="1" fill="none"></path></g><text x="400" y="560" text-anchor="middle" font-family="sans-serif" font-size="16" fill="#222" font-style="italic">When someone is signaling hard, their status is uncertain. When not signaling at all — either bottom or top.</text></svg>