<?xml version="1.0" encoding="UTF-8"?>
<svg width="800" height="600" viewBox="0 0 800 600" xmlns="http://www.w3.org/2000/svg"><rect width="800" height="600" fill="#FFFFFF"></rect><g><path d="M339.71577156466594 195.93444034701002 C339.71577156466594 195.93444034701002, 339.71577156466594 195.93444034701002, 339.71577156466594 195.93444034701002 M339.71577156466594 195.93444034701002 C339.71577156466594 195.93444034701002, 339.71577156466594 195.93444034701002, 339.71577156466594 195.93444034701002 M340.6957620293064 207.55652969892432 C344.6396429482987 200.34340027514205, 350.8458089525747 198.56007326011186, 352.48277782826483 192.2165503027263 M342.16004607251523 206.31470574208353 C346.86238011651506 201.42278095736876, 350.9100254849965 195.75138884983502, 354.3568811149677 190.91753971686745 M347.02590907762095 210.29582571305855 C350.96597864667075 208.51781723457628, 354.50261298528017 206.02691987694922, 358.20878852723536 196.30409625976716 M348.0886236918548 210.5256896828727 C350.8328239780394 206.9784312513365, 354.92604504501753 202.8552380535787, 358.91286812669927 196.7285933939205" stroke="none" stroke-width="1" fill="none"></path><path d="M353.0380390331328 190.67186620259798 C354.8121813644251 191.11652832370453, 356.10580306460315 193.1590947867471, 357.38053822841187 194.65991831834714 C358.6552733922206 196.1607418499472, 360.5604942859753 197.7077497138796, 360.6864500159851 199.6768073921982 C360.81240574599485 201.64586507051683, 359.8285572586418 204.76737293635637, 358.1362726084705 206.47426438825886 C356.4439879582992 208.18115584016135, 352.75472359310714 209.5719134909343, 350.53274211495733 209.9181561036131 C348.3107606368075 210.26439871629188, 346.6112013058444 209.68208366382692, 344.80438373957156 208.55172006433165 C342.9975661732987 207.42135646483638, 340.51303843666204 205.26979972607708, 339.69183671732014 203.1359745066414 C338.87063499797824 201.0021492872057, 338.7857010547786 197.88068162987977, 339.87717342352005 195.74876874771752 C340.9686457922615 193.61685586555527, 343.9102694223038 191.34514335348953, 346.2406709297689 190.3444972136678 C348.57107243723397 189.34385107384608, 352.7243890308172 189.58163048835794, 353.85958246831035 189.74489190878714 C354.9947759058035 189.90815332921633, 353.37770955645925 190.98346613722393, 353.0518315547281 191.32406573624303 M345.17218397652806 190.45370531858222 C347.1608127358696 189.66370239988998, 350.376184410299 188.98791162391717, 352.61248821555927 189.95594556660143 C354.84879202081953 190.9239795092857, 357.4532585676143 194.4775540490014, 358.59000680808964 196.2619089746877 C359.726755048565 198.04626390037402, 359.60225127891596 198.9188817101519, 359.4329776584115 200.66207512071927 C359.2637040379071 202.40526853128662, 359.1258539404937 205.1626702598819, 357.57436508506294 206.7210694380918 C356.0228762296322 208.2794686163017, 352.41142507859615 210.08923178145557, 350.124044525827 210.01247018997867 C347.83666397305785 209.93570859850178, 345.3895697386244 207.8723529094986, 343.8500817684481 206.26049988923046 C342.3105937982718 204.64864686896232, 341.5767149182937 202.23692768980584, 340.8871167047691 200.34135206836976 C340.19751849124447 198.44577644693368, 339.0047533489603 196.40718524454397, 339.7124924873005 194.887046160614 C340.42023162564067 193.36690707668404, 344.10520143209965 191.69038820138155, 345.13355153481024 191.22051756478996 C346.1619016375208 190.75064692819836, 345.4688792783091 191.89274991545767, 345.8825931035641 192.0678223410645" stroke="#000000" stroke-width="2" fill="none"></path></g><g><path d="M349.0313827009614 220.4513767413158 C348.4963346330482 236.20893797508202, 351.5338834045416 253.21776910867752, 350.08688487101546 270.3871368566506 M350.1403039042932 219.49519369704183 C349.55067408969524 235.54793856842653, 351.2694246805795 252.23662078145347, 350.8534671105932 269.5939701209161" stroke="#000000" stroke-width="2" fill="none"></path></g><g><path d="M348.0983960413465 234.28394586401447 C333.4610193992208 227.61198188794248, 316.61123308627515 216.68765490053732, 298.66683747453436 210.7443021232982 M350.17434916730036 235.98952870210485 C332.45969468897016 226.68856509601994, 312.90317227613946 217.5520203529353, 299.71643553666775 210.07183008125898" stroke="#000000" stroke-width="1.8" fill="none"></path></g><g><path d="M350.7245335849902 234.4352167455772 C369.5128110350766 225.42246522704312, 390.23959195838233 215.24468863737246, 398.2355765414326 209.96883721798585 M349.52667314314084 235.45345271060972 C363.1767394442717 227.88658748929316, 376.89928822525 221.8462855367866, 400.41235291334027 210.57432149821804" stroke="#000000" stroke-width="1.8" fill="none"></path></g><g><path d="M270.62294586536336 200.3416994978574 C275.1823854220747 200.07491632375078, 279.69673040707823 201.09781022127686, 288.8771178940595 201.17811720427602 M269.5934760437543 199.73028228436434 C274.53434120792025 199.71615929853567, 279.77243944617857 200.57475076469575, 290.0926169966343 200.51045195760403 M289.17517239156007 199.8849420701445 C289.2446474323295 205.23573423468977, 289.7181563417048 210.5400794571096, 290.0166813876537 214.65617072669002 M289.91760143692306 199.68584298955258 C290.3230943638198 203.65407301339482, 290.2180869810826 206.8706542575156, 289.91676623003826 213.908949093485 M290.1132426400056 214.0995470506727 C286.76115969900536 213.71771706678615, 282.1910890033004 214.59316042101088, 269.56920791358914 213.53911614403117 M290.0613581905513 214.58791941857584 C285.1698082319533 213.95117096617636, 279.89923103166785 213.38910966255298, 269.4486843943605 214.52198276718153 M270.2834275574819 213.67225156192006 C270.41320570823285 211.50948960332886, 269.2750234664406 208.92947739399457, 269.5327902388204 199.9014575522802 M269.919785470986 213.77753045795865 C269.9024894327128 208.89376285159204, 269.7107335790373 203.87239587133536, 269.62917066636334 199.72405263759933" stroke="#000000" stroke-width="1.2" fill="none"></path></g><g><path d="M249.96971478650732 220.18846561732744 C253.91728916823317 220.360671017666, 260.6364040548374 219.41907647812155, 270.01403858983116 220.7692753956351 M249.4265898030624 220.448737998052 C255.29007419183776 220.47682619430842, 260.8331865723805 219.99228272173298, 270.37952500856386 219.5032540225789 M269.67237393518485 219.4068204217878 C269.30373233760724 223.81456476230161, 269.6681741257761 227.36634473419934, 269.19242880847236 234.4252544664687 M270.3364784662895 219.63535625359467 C270.16516019373745 225.22519884864943, 269.7704448215083 229.95309751530152, 270.3267937201599 233.61819458600232 M270.15742721081614 234.92520911482075 C265.29397484787825 233.51836295653013, 261.28863465369784 233.565703659131, 249.59752947031043 233.26966794340257 M270.3544764342973 233.75249069558734 C262.9169126419011 233.80861176811064, 255.62035580386933 234.03550135817153, 250.3510257815575 234.43203098857452 M249.2489811659693 233.27882899504553 C250.33210554475772 229.4870795459541, 250.568977251532 226.53808954378556, 250.72856750776535 219.63582674858233 M249.60596866767744 233.736974671433 C249.69726927368075 230.57326258782606, 249.72634342878712 228.02965753294694, 249.73184882354354 219.93587454402265" stroke="#000000" stroke-width="1.2" fill="none"></path></g><g><path d="M280.3628840896426 235.83379148124132 C283.9947495158217 235.7392682092031, 288.57458698728334 235.11058372806906, 299.4286800469135 234.05411095312664 M279.6384694752108 235.49433404904602 C286.2386670504476 234.69822961174, 291.381261737047 234.3965978524157, 300.377113593326 235.15283614996238 M299.42931002633037 235.18379821751446 C300.49390742312454 238.86475540066027, 300.3652308035337 242.59162731341522, 300.01043247425383 248.77661184929667 M299.87087345011594 235.23627774393006 C299.78309216111916 237.98981993969676, 300.3050225558542 241.3656706809491, 299.93500628263087 248.95438990566157 M300.89624445224365 248.09179144820212 C293.45307111338604 248.82566986808484, 286.9486664794743 248.78843786754084, 280.0350728784518 247.83062727730936 M299.79689485783257 249.19862295426515 C294.06245966034663 248.5084359275002, 287.5936200956117 249.34504431241422, 279.7805472960932 249.14829197629712 M280.30418824511474 248.92980637611106 C279.9194446639208 244.70780947696036, 280.3138703191494 241.5399142624263, 279.59453818048036 234.2022213723774 M279.6746225223121 249.0333656012546 C280.32675704147937 244.55584497595916, 280.00770712640843 240.3277009825875, 279.69166272228466 234.7087557840323" stroke="#000000" stroke-width="1.2" fill="none"></path></g><g><path d="M428.507575122977 198.91924997950002 C428.507575122977 198.91924997950002, 428.507575122977 198.91924997950002, 428.507575122977 198.91924997950002 M428.507575122977 198.91924997950002 C428.507575122977 198.91924997950002, 428.507575122977 198.91924997950002, 428.507575122977 198.91924997950002 M426.15562536755465 210.0062432218229 C428.231746097168 205.54968793155305, 430.8062869316792 202.5075357594456, 433.20960239071155 201.94075973702815 M425.6595220269697 209.89047730481764 C427.6642216267827 207.61771937480157, 428.98102473654797 206.5088786765803, 432.72161017691224 201.08654510689811" stroke="none" stroke-width="0.6" fill="none"></path><path d="M428.26817564712854 199.19464757322135 C429.43280671740706 198.99160973749105, 432.0009879073268 200.69697852649648, 432.914705119625 201.50166455758855 C433.8284223319232 202.30635058868063, 433.43614868211637 203.16218178378836, 433.75047892091766 204.0227637597738 C434.06480915971895 204.88334573575924, 435.0659022925315 205.67936254138118, 434.80068655243275 206.66515641350128 C434.535470812334 207.65095028562138, 433.0350072189573 209.46558841187831, 432.1591844803249 209.93752699249447 C431.2833617416925 210.40946557311062, 430.6862944876309 209.69330947309757, 429.5457501206384 209.49678789719817 C428.4052057536459 209.30026632129878, 426.21574203132406 209.6524442734926, 425.3159182783696 208.75839753709815 C424.4160945254152 207.8643508007037, 423.9900076939891 205.23516449330614, 424.1468076029117 204.13250747883149 C424.30360751183423 203.02985046435683, 425.3144263502564 202.71704169187834, 426.25671773190487 202.14245545025017 C427.19900911355336 201.567869208622, 429.0277012683415 200.97028560092286, 429.80055589280255 200.68499002906245 C430.5734105172636 200.39969445720203, 430.8345087583107 200.3773876242807, 430.8938454786712 200.43068201908775 M428.1676611823899 199.84490932727175 C429.1037588599264 199.2248900547383, 430.452166137495 199.8384780831846, 431.5664225162376 200.15759512053185 C432.6806788949802 200.4767121578791, 434.169366199596 200.81302929936138, 434.85319945484537 201.75961155135522 C435.5370327100947 202.70619380334907, 435.7381499376419 204.7623349911629, 435.66942204773375 205.8370886324949 C435.6006941578256 206.9118422738269, 435.3897005529586 207.5498720438961, 434.4408321153965 208.20813339934716 C433.49196367783446 208.86639475479822, 431.0571006962009 209.7754098189383, 429.9762114223615 209.7866567652013 C428.89532214852204 209.79790371146427, 428.72828985752307 208.97607898526647, 427.95549647235975 208.27561507692513 C427.18270308719644 207.5751511685838, 425.7835875696854 206.67275380087247, 425.33945111138155 205.58387331515326 C424.8953146530777 204.49499282943404, 424.84574288706824 202.6837003172202, 425.2906777225369 201.74233216260987 C425.7356125580055 200.80096400799954, 427.25073036351904 199.9693913664124, 428.0090601241933 199.93566438749124 C428.76738988486755 199.9019374085701, 429.95314197953047 201.5277216025484, 429.8406562865824 201.53997028908293" stroke="#000000" stroke-width="1.2" fill="none"></path></g><g><path d="M445.19015265166513 222.69628433122136 C445.19015265166513 222.69628433122136, 445.19015265166513 222.69628433122136, 445.19015265166513 222.69628433122136 M445.19015265166513 222.69628433122136 C445.19015265166513 222.69628433122136, 445.19015265166513 222.69628433122136, 445.19015265166513 222.69628433122136 M447.49845129124566 227.65405861437566 C448.8119952426765 225.91234811261452, 450.97556350580015 222.37731964452138, 452.8950645747689 221.43745696411534 M447.3049213387147 227.8132843810842 C449.4442651458003 225.1170249819423, 451.81156691981664 222.34619657671615, 453.16308049912874 221.76872697385232 M451.043065112792 230.11959763386216 C454.1589449532836 228.42394289378794, 455.7843523781643 225.31426269394132, 457.0300906279538 225.0487478743248 M451.4204289993415 230.65469039570203 C452.5755816775475 229.0999769499877, 453.6244855407342 227.52836721807924, 456.9855686594321 224.45435026550862" stroke="none" stroke-width="0.6" fill="none"></path><path d="M448.91763022264365 220.2794342741014 C449.7674116101131 219.8542530588223, 450.04415396409735 219.86184836779023, 450.8127530835144 220.05535278859236 C451.58135220293144 220.2488572093945, 452.720543991561 220.44573267096123, 453.5292249391459 221.4404607989141 C454.33790588673077 222.43518892686697, 455.5536787081866 224.7675290687705, 455.6648387690238 226.0237215563096 C455.77599882986095 227.2799140438487, 454.9774343400044 228.23158454392748, 454.1961853041689 228.9776157241486 C453.41493626833346 229.7236469043697, 452.1436942305036 230.4855590917287, 450.97734455401104 230.49990863763628 C449.81099487751845 230.51425818354386, 448.13099103507835 229.8327162306665, 447.19808724521334 229.06371299959403 C446.26518345534834 228.29470976852156, 445.7367277314758 226.92164652859833, 445.379921814821 225.88588925120146 C445.02311589816617 224.8501319738046, 444.4576797212852 223.89672872858011, 445.05725174528436 222.84916933521282 C445.6568237692835 221.80160994184553, 448.29156075186637 219.94435835121203, 448.9773539588159 219.60053289099764 C449.66314716576545 219.25670743078325, 449.2028552347258 220.65811116474634, 449.17201098698155 220.78621657392648 M451.3459064821742 220.29516076799217 C452.6762514062834 220.43579292589553, 455.231335298857 220.77968841361084, 455.8876641717855 221.794039650303 C456.543993044714 222.80839088699517, 456.01953510122604 225.22881677435475, 455.2838797197452 226.38126818814519 C454.54822433826433 227.53371960193562, 452.6848920110403 228.25975796835584, 451.47373188290027 228.70874813304565 C450.26257175476024 229.15773829773545, 448.7786527112859 229.02641715045252, 448.016918950905 229.07520917628406 C447.2551851905241 229.1240012021156, 447.4865165322173 229.6388147824493, 446.90332932061494 229.00150028803492 C446.3201421090126 228.36418579362055, 444.9058547218066 226.25068002947526, 444.51779568129075 225.2513222097979 C444.1297366407749 224.25196439012055, 444.0498469301691 223.85873281579546, 444.57497507752 223.00535336997072 C445.10010322487085 222.15197392414598, 446.4940299747035 220.60978963535212, 447.668564565396 220.1310455348494 C448.84309915608856 219.65230143434667, 450.64704341463556 220.20532085218463, 451.6221826216751 220.13288876695438 C452.59732182871466 220.06045668172413, 453.4175387032123 219.31004637360513, 453.5193998076334 219.69645302346783" stroke="#000000" stroke-width="1.2" fill="none"></path></g><g><path d="M422.1222212048863 235.7689622894028 C422.1222212048863 235.7689622894028, 422.1222212048863 235.7689622894028, 422.1222212048863 235.7689622894028 M422.1222212048863 235.7689622894028 C422.1222212048863 235.7689622894028, 422.1222212048863 235.7689622894028, 422.1222212048863 235.7689622894028 M422.8039885234552 242.95480287450135 C423.35545265120504 242.23110588454168, 426.2046165345378 240.5925889072298, 428.3475147518694 236.22901473502642 M422.0896196143659 243.40226277597353 C424.0066698351903 241.88258546494856, 425.72860483590796 239.55181298344678, 427.4374699101546 236.75850089119842" stroke="none" stroke-width="0.6" fill="none"></path><path d="M422.3083298648684 235.5548687666491 C423.12901166277436 234.97932816346795, 424.53733890545476 235.22195295807535, 425.6823367092016 235.46547389744674 C426.8273345129484 235.70899483681814, 428.6246490402131 236.24885051716922, 429.1783166873495 237.0159944028775 C429.73198433448584 237.7831382885858, 429.1833926189293 239.08851035642041, 429.0043425920197 240.0683372116965 C428.82529256511015 241.0481640669726, 428.80435409551455 242.09509192350276, 428.104016525892 242.8949555345341 C427.40367895626946 243.69481914556542, 425.80025695127625 244.78346959149906, 424.8023171742845 244.86751887788446 C423.80437739729274 244.95156816426987, 422.9103500624392 244.11804792227122, 422.1163778639414 243.39925125284648 C421.3224056654436 242.68045458342175, 420.4268896958406 241.37445647853275, 420.0384839832978 240.55473886133598 C419.650078270755 239.7350212441392, 419.2176096756409 239.2596233632321, 419.7859435886847 238.48094554966593 C420.35427750172846 237.70226773609977, 422.5887741897226 236.5328627996757, 423.44848746156043 235.88267197993895 C424.3082007333983 235.23248116020218, 424.6935094205602 234.62670765235106, 424.9442232197117 234.57980063124538 M427.279428451698 235.78611143563342 C428.5514406511624 235.97261784078447, 430.0835345009102 235.68780934643723, 430.34123528598843 236.48498778652794 C430.59893607106665 237.28216622661864, 429.3008911870582 239.27059945057508, 428.82563316216726 240.56918207617764 C428.35037513727633 241.8677647017802, 428.00619759939354 243.47516374906607, 427.48968713664294 244.2764835401433 C426.97317667389234 245.0778033312205, 426.59130472556404 245.29620976081506, 425.72657038566365 245.37710082264095 C424.86183604576325 245.45799188446685, 423.0917746202474 245.39089588244613, 422.3012810972407 244.76182991109872 C421.510787574234 244.1327639397513, 421.34931765810063 242.86439809785514, 420.9836092476232 241.6027049945565 C420.6179008371457 240.34101189125784, 419.81503436857315 238.30709032330634, 420.10703063437586 237.1916712913067 C420.39902690017857 236.07625225930707, 421.9492301437247 235.19772826945524, 422.7355868424395 234.9101908025586 C423.52194354115426 234.62265333566194, 424.4303410551889 235.37664418450407, 424.8251708266646 235.4664464899267 C425.2200005981403 235.55624879534935, 424.6778540178616 235.5928246484317, 425.10456547129365 235.44900463509444" stroke="#000000" stroke-width="1.2" fill="none"></path></g><g><path d="M340.10848238004644 291.41203005164897 C344.1680183536154 284.70704802032947, 347.98574915478423 280.57300847071554, 351.6173779968794 273.20896959117636 M340.15107646213306 290.3323299018092 C344.7063261087501 284.7479903255864, 347.30405072258645 278.3092311083065, 350.8587960167986 274.1097665832791" stroke="#CC3333" stroke-width="1.5" fill="none"></path></g><g><path d="M348.2967654732564 275.75550677359354 C350.85635247660366 277.58883114117066, 355.33643842368343 283.95304461771974, 358.32482200417036 288.8679871326484 M350.3130956529823 274.352348100869 C351.40926441892594 277.2078703998155, 353.3125817775381 280.22014560379375, 359.48703740316785 289.5936028668418" stroke="#CC3333" stroke-width="1.5" fill="none"></path></g><g><path d="M346.38347534873446 284.1815243024561 C348.141597218292 281.4508398457611, 351.88554109206177 276.4917721597315, 353.63435127854 276.36063515116297 M345.035193168272 284.8703861451599 C347.621005702713 282.4179139844942, 351.04836950511736 278.8065803526497, 354.63164757736865 275.17244473951484" stroke="#CC3333" stroke-width="1.2" fill="none"></path></g><g><path d="M540.0769904875434 320.38892799310196 C551.7638675411634 329.6892980627707, 562.751956960284 338.51670280719713, 581.5379808104957 355.9315827728807 M539.9187569424257 320.16271528479854 C549.2169736665151 327.8323101863641, 558.0543797726014 334.9817152317375, 582.2375809427884 355.39566619337216" stroke="#4A90D9" stroke-width="1" fill="none"></path></g><g><path d="M581.2933454685715 352.934101761542 C581.2933454685715 352.934101761542, 581.2933454685715 352.934101761542, 581.2933454685715 352.934101761542 M581.2933454685715 352.934101761542 C581.2933454685715 352.934101761542, 581.2933454685715 352.934101761542, 581.2933454685715 352.934101761542 M581.035848078405 357.5235791743381 C581.7252071274036 357.0986947118911, 582.795501408172 355.26995068546506, 583.8831833664266 355.1838997217065 M580.8924982614694 357.96427803857927 C581.5098995052455 357.11385460913135, 581.9544399133393 356.47957840648974, 583.5388539783154 355.005884953739" stroke="none" stroke-width="0.4" fill="none"></path><path d="M581.614639481029 352.5644952801814 C581.7797577040782 352.52557062637885, 581.8585403212999 354.00246146541497, 582.2938290077514 354.2706691713165 C582.7291176942028 354.53887687721806, 583.7825151484088 353.9537313052966, 584.2263715997378 354.1737415155905 C584.6702280510668 354.3937517258844, 585.0182129205857 355.18529923416395, 584.9569677157255 355.59073043307995 C584.8957225108652 355.99616163199596, 584.2321630613537 356.3849312230778, 583.8589003705761 356.6063287090865 C583.4856376797984 356.8277261950952, 583.345496852107 356.8527657527001, 582.7173915710596 356.91911534913226 C582.0892862900122 356.9854649455644, 580.5860577236798 357.2161852300445, 580.0902686842918 357.0044262876793 C579.5944796449038 356.79266734531404, 579.6016851986859 355.99350673457764, 579.7426573347315 355.6485616949407 C579.883629470777 355.3036166553038, 580.8143762744805 355.13398214131314, 580.9361015005653 354.93475604985764 C581.0578267266501 354.73552995840214, 580.251408822233 354.850655052702, 580.4730086912404 354.4532051462078 C580.6946085602477 354.05575523971356, 582.2597658841246 352.5715982147093, 582.2657007146098 352.5500566108922 M581.4475368736902 354.1211659117613 C581.878442566769 354.4907515736412, 583.9244147262037 355.2427992329717, 584.1614162632795 355.3724534412722 C584.3984178003553 355.50210764957274, 583.0215606235689 354.71972958421367, 582.8695460961452 354.89909116156434 C582.7175315687215 355.078452738915, 583.1099889506379 355.99918380641293, 583.2493290987372 356.4486229053764 C583.3886692468366 356.89806200433986, 584.1284004138779 357.59413817002564, 583.7055869847409 357.5957257553453 C583.2827735556039 357.597313340665, 581.5137282950641 356.94167098612724, 580.7124485239149 356.45814841729435 C579.9111687527657 355.97462584846147, 579.1838512788133 355.03314285466865, 578.8979083578458 354.694590342348 C578.6119654368783 354.3560378300274, 578.4072139489741 354.4282999196018, 578.9967909981096 354.4268333433707 C579.5863680472452 354.42536676713956, 581.7787699270866 355.0265862287774, 582.4353706526588 354.68579088496136 C583.0919713782309 354.34499554114535, 582.6905095912637 352.64687449071346, 582.9363953515423 352.3820612804746 C583.1822811118209 352.11724807023575, 584.0299485666316 352.6796547935965, 583.9106852143302 353.0969116235282" stroke="#4A90D9" stroke-width="0.8" fill="none"></path></g><g><path d="M539.534450419265 320.3712812628526 C557.4201642526299 330.0367621424083, 575.8983871275179 340.3975913785723, 588.1102995808434 347.88035538013764 M539.8761121894437 320.0694107722118 C550.3699567550217 326.24056190389115, 561.2474386935601 332.0812698515609, 587.8210523429892 347.3365509244754" stroke="#4A90D9" stroke-width="1" fill="none"></path></g><g><path d="M585.255408773862 345.7781669004289 C585.255408773862 345.7781669004289, 585.255408773862 345.7781669004289, 585.255408773862 345.7781669004289 M585.255408773862 345.7781669004289 C585.255408773862 345.7781669004289, 585.255408773862 345.7781669004289, 585.255408773862 345.7781669004289 M585.9500122895315 349.30743182767134 C587.3053684643619 348.00417630180294, 588.043477569078 347.75726254469214, 589.7849029505746 345.96209104098966 M586.4439612222376 349.07842474539723 C587.7676716672962 347.9648517501311, 588.847677475589 346.51163170521426, 589.4755408874207 345.239621571315" stroke="none" stroke-width="0.4" fill="none"></path><path d="M588.683939883142 345.13582035494284 C589.225402023074 345.01410910789815, 589.372358910581 345.6230468001004, 589.5779448497066 345.9498752672123 C589.7835307888321 346.2767037343242, 590.0774622535432 346.75404265548974, 589.9174555178951 347.09679115761446 C589.7574487822469 347.4395396597392, 588.9745266047017 347.70884866101346, 588.6179044358174 348.0063662799606 C588.2612822669331 348.30388389890777, 588.2598807303318 348.66242033609933, 587.777722504589 348.8818968712975 C587.2955642788461 349.10137340649567, 586.0267863617096 349.49919885395684, 585.7249550813599 349.3232254911495 C585.4231238010102 349.1472521283422, 586.0432204381734 348.41893836333105, 585.966734822491 347.82605669445337 C585.8902492068087 347.2331750255757, 585.0382231040529 346.0910768589187, 585.2660413872653 345.7659354778835 C585.4938596704777 345.44079409684826, 586.8770415147113 345.99362861601287, 587.3336445217652 345.87520840824214 C587.7902475288191 345.7567882004714, 587.8118093760997 344.88876331378776, 588.005659429589 345.0554142312591 C588.1995094830781 345.2220651487304, 588.2825236884443 346.7611108388189, 588.4967448427007 346.87511391307004 M587.798264397338 344.3118850015869 C588.0416856572822 344.4206379563138, 588.855540582075 346.37696470703054, 589.178249806159 346.99172893459297 C589.5009590302429 347.6064931621554, 589.7622267957507 347.70598821971595, 589.7345197418415 348.00047036696134 C589.7068126879323 348.2949525142067, 588.9921103133545 348.64065754113017, 589.0120074827037 348.75862181806536 C589.0319046520528 348.87658609500056, 590.3376584908875 348.55534941931217, 589.8539027579367 348.7082560285724 C589.3701470249858 348.86116263783265, 586.6666962950667 349.440153177904, 586.1094730849987 349.6760614736268 C585.5522498749308 349.91196976934964, 586.4892076744238 350.3983256727728, 586.5105634975293 350.1237058029093 C586.5319193206349 349.8490859330458, 586.3872347497927 348.50313464380275, 586.2376080236319 348.02834225444593 C586.0879812974711 347.5535498650891, 585.2833997617399 347.8740180482057, 585.6128031405648 347.27495146676836 C585.9422065193896 346.675884885331, 587.964497000761 344.80007378956157, 588.214028296581 344.43394276582205 C588.463559592401 344.06781174208254, 587.0948156428685 344.8430269765026, 587.1099909154851 345.07816532433134" stroke="#4A90D9" stroke-width="0.8" fill="none"></path></g><g><path d="M540.5393563016443 320.16262617647334 C558.8770081625145 326.92805206850153, 578.3987360578026 333.57297586051135, 592.0797778424021 338.9122358851581 M539.7871482857886 320.18975484897976 C552.9008171892758 324.741605868705, 566.2307546793793 329.67360498346113, 591.8230854911068 338.7719540079872" stroke="#4A90D9" stroke-width="1" fill="none"></path></g><g><path d="M589.8562903793484 336.52752232885274 C589.8562903793484 336.52752232885274, 589.8562903793484 336.52752232885274, 589.8562903793484 336.52752232885274 M589.8562903793484 336.52752232885274 C589.8562903793484 336.52752232885274, 589.8562903793484 336.52752232885274, 589.8562903793484 336.52752232885274 M591.0083935223614 339.76920490737973 C591.6733181163108 339.43902556975956, 591.9040130926323 338.73558563726095, 592.9603247721533 337.66566042577455 M590.803641712385 340.0865448920904 C591.5421756729304 339.215206107523, 592.0478402974915 338.46644207576395, 592.6433032986973 337.7297261115867" stroke="none" stroke-width="0.4" fill="none"></path><path d="M590.9664723007904 335.8385742745644 C591.3494668485481 335.6760732934959, 593.3610341608991 336.05468739147216, 593.6884205118229 336.3356445430341 C594.0158068627467 336.61660169459606, 593.1242139351098 336.81639452864, 592.930790406333 337.5243171839359 C592.7373668775563 338.23223983923185, 592.7873309484304 340.0352677363408, 592.5278793391626 340.58318047480964 C592.2684277298948 341.13109321327846, 591.7000145954456 340.75185189614984, 591.3740807507261 340.81179361474875 C591.0481469060065 340.87173533334766, 590.7828551015212 341.2410224650767, 590.5722762708456 340.94283078640314 C590.3616974401699 340.6446391077296, 590.3367955802456 339.2797684570467, 590.110607766672 339.0226435427073 C589.8844199530985 338.76551862836794, 589.2998394728761 339.76726982087575, 589.2151493894044 339.40008130036676 C589.1304593059326 339.0328927798578, 589.232112995812 337.17591441912947, 589.6024672658416 336.81951241965334 C589.9728215358712 336.4631104201772, 591.1284936593263 337.3338418362148, 591.4372750095819 337.26166930351 C591.7460563598374 337.18949677080525, 591.5307314396599 336.3683405154079, 591.4551553673749 336.3864772234249 M591.2078531577813 338.3596166604169 C591.2350742204464 338.0473637782449, 590.5731243194592 336.35374793596503, 590.8299266932681 336.4224335625901 C591.086729067077 336.4911191892151, 592.5179273553165 338.5621174461707, 592.748667400635 338.7717304201672 C592.9794074459535 338.98134339416373, 592.352008901149 337.1868473016914, 592.2143669651795 337.6801114065691 C592.0767250292099 338.1733755114468, 592.2118322276054 341.2709907189242, 591.9228157848177 341.7313150494336 C591.6337993420299 342.19163937994296, 590.7007833891329 340.7975605369297, 590.4802683084527 340.4420573896252 C590.2597532277724 340.08655424232063, 590.5042783453066 339.9897961372365, 590.5997253007363 339.59829616560614 C590.695172256166 339.2067961939758, 591.2768896025232 338.3105357625749, 591.0529500410306 338.09305755984286 C590.829010479538 337.87557935711084, 589.329251176046 338.4779082876846, 589.2560879317808 338.2934269492138 C589.1829246875157 338.10894561074304, 590.5281589018995 337.4237749598647, 590.6139705754398 336.9861695290181 C590.6997822489801 336.54856409817154, 589.7290590402285 335.6754540018188, 589.7709579730225 335.6677943641343" stroke="#4A90D9" stroke-width="0.8" fill="none"></path></g><g><path d="M539.8771925489756 319.6956311108362 C560.3174268777409 324.12556225420644, 582.0489837367749 327.17636420938106, 594.4895111443245 329.5704336471677 M540.0193218065426 319.72567394091067 C558.358308484902 322.95171821561956, 576.1187474085938 326.3645961863391, 594.0033392973249 329.60164393153167" stroke="#4A90D9" stroke-width="1" fill="none"></path></g><g><path d="M591.3883692497321 328.58424721872416 C591.3883692497321 328.58424721872416, 591.3883692497321 328.58424721872416, 591.3883692497321 328.58424721872416 M591.3883692497321 328.58424721872416 C591.3883692497321 328.58424721872416, 591.3883692497321 328.58424721872416, 591.3883692497321 328.58424721872416 M593.8817773125364 330.76839151740484 C593.9857143681974 330.0929977469122, 595.1083962055438 329.0685888410179, 595.8561228647394 328.0547570861995 M593.7610585673874 330.48646578015627 C594.2736900998334 329.8729795829217, 594.6955451996772 329.2403170109589, 595.722058521955 328.2379354098851" stroke="none" stroke-width="0.4" fill="none"></path><path d="M593.7016430292928 327.18381195448916 C594.048935827235 327.2576430689046, 594.7167315680505 328.2947396181528, 595.1972657911975 328.5077894916027 C595.6778000143446 328.7208393650526, 596.3088771500882 328.1183519192937, 596.5848483681754 328.46211119518875 C596.8608195862626 328.80587047108384, 597.0722190098161 329.9906069289985, 596.8530930997208 330.5703451469733 C596.6339671896255 331.1500833649481, 595.8578744498716 331.68289475340407, 595.2700929076035 331.9405405030376 C594.6823113653354 332.1981862526711, 593.7142162089792 332.3721263263658, 593.3264038461122 332.1162196447745 C592.9385914832451 331.8603129631832, 593.152694629998 330.6383334159342, 592.9432187304011 330.4051004134899 C592.7337428308042 330.1718674110456, 592.3084561136479 331.0435736191332, 592.0695484485304 330.71682163010877 C591.830640783413 330.3900696410843, 591.2666499534665 328.8698921834731, 591.5097727396961 328.4445884793432 C591.7528955259257 328.01928477521335, 593.0391123215347 328.2630874959622, 593.5282851659081 328.1649994053295 C594.0174580102814 328.0669113146968, 594.4885792634042 327.87298697889173, 594.4448098059358 327.85605993554714 M595.8211291746011 326.3254752398245 C596.0401155655343 326.232048205151, 594.5585273917796 326.6156528612667, 594.8316977807744 327.22252165915825 C595.1048681697692 327.8293904570498, 597.5275408137161 329.29546053027957, 597.4601515085699 329.96668802717375 C597.3927622034237 330.6379155240679, 595.0252000022609 330.91470984965406, 594.4273619498972 331.2498866405232 C593.8295238975335 331.5850634313923, 593.904298081388 331.8832727089059, 593.8731231943876 331.97774877238834 C593.8419483073873 332.07222483587077, 594.5552263340089 331.8587529670159, 594.2403126278948 331.81674302141766 C593.9253989217807 331.7747330758194, 592.4978350563651 332.21144340791733, 591.9836409577033 331.72568909879897 C591.4694468590415 331.2399347896806, 591.2160704040191 329.4685004362316, 591.1551480359234 328.90221716670754 C591.0942256678277 328.3359338971835, 590.8663031996542 328.6519828598466, 591.6181067491291 328.3279894816547 C592.3699102986039 328.0039961034628, 595.0332560784293 327.1149785075965, 595.6659693327726 326.9582568975559 C596.298682587116 326.80153528751526, 595.7468617854967 327.19599264184393, 595.4143862751893 327.38765982141103" stroke="#4A90D9" stroke-width="0.8" fill="none"></path></g><g><path d="M539.9612981568694 319.77786824652213 C561.3768606430252 320.0079695591421, 584.068146449281 319.95944434402475, 595.5425518586021 319.580838851998 M539.7054525179677 319.73823572770004 C554.4753457400028 319.7445062239388, 568.4013012917455 320.05360437861896, 594.7279052494009 320.09996254300546" stroke="#4A90D9" stroke-width="1" fill="none"></path></g><g><path d="M592.0522788426615 319.88628406952495 C592.0522788426615 319.88628406952495, 592.0522788426615 319.88628406952495, 592.0522788426615 319.88628406952495 M592.0522788426615 319.88628406952495 C592.0522788426615 319.88628406952495, 592.0522788426615 319.88628406952495, 592.0522788426615 319.88628406952495 M594.6504657957911 321.60872202091156 C595.5838779119775 320.3971883381828, 596.7200150418979 319.66008636894276, 596.6693368681488 319.2208967385686 M594.4995764351195 321.875944991142 C595.377127394756 320.8984469088281, 596.2267214972723 319.429356940177, 596.8673874305658 318.86080343840126" stroke="none" stroke-width="0.4" fill="none"></path><path d="M593.9470912044721 318.9216715703734 C594.4014643611238 318.7596978425562, 595.6865579949488 317.6368340535343, 596.2317903024667 317.7521241518378 C596.7770226099847 317.8674142501413, 597.211668519802 319.2420307909484, 597.2184850495796 319.61341216019434 C597.2253015793573 319.9847935294403, 596.5652243130359 319.45161586082395, 596.2726894811329 319.9804123673136 C595.98015464923 320.50920887380323, 595.8540693797997 322.3834993962417, 595.4632760581621 322.7861911991323 C595.0724827365245 323.1888830020229, 594.3821211573854 322.6935183191315, 593.9279295513072 322.3965631846573 C593.473737945229 322.09960805018306, 593.0446703828962 321.4298166427843, 592.7381264216928 321.00446039228717 C592.4315824604893 320.57910414179, 591.9827363357585 320.14373097472685, 592.0886657840863 319.8444256816744 C592.194595232414 319.54512038862197, 592.9131636980895 319.3899662299327, 593.3737031116592 319.2086286339724 C593.8342425252289 319.0272910380121, 594.494004038742 318.97890843755806, 594.8519022655041 318.7564001059127 C595.2098004922663 318.5338917742673, 595.3586473660447 318.0244622629569, 595.5210924722322 317.87357864410006 M594.4748226927026 316.51288172033827 C594.8786901241991 316.58099629735693, 595.9623526585173 317.2522423028381, 596.2963812324667 317.7943580991012 C596.6304098064162 318.3364738953643, 596.6040851880003 319.01512389000203, 596.4789941363994 319.7655764979168 C596.3539030847984 320.5160291058316, 595.4909342060339 321.86953836369906, 595.5458349228608 322.29707374659 C595.6007356396876 322.72460912948094, 597.0511500544712 322.21940781887963, 596.8083984373609 322.33078879526244 C596.5656468202505 322.44216977164524, 594.6306896631608 323.15523855897044, 594.0893252201989 322.965359604887 C593.5479607772371 322.77548065080356, 593.9619103126433 321.62176143251304, 593.56021177959 321.19151507076185 C593.1585132465366 320.76126870901066, 591.733394925599 320.6268455483278, 591.679134021879 320.38388143438 C591.624873118159 320.14091732043215, 592.5919496877247 319.9017826761498, 593.2346463572701 319.7337303870748 C593.8773430268155 319.56567809799975, 595.197770969899 319.863772665896, 595.5353140391516 319.37556769992966 C595.8728571084041 318.8873627339633, 595.5902304496219 316.93722332844004, 595.259904772785 316.80450059127656" stroke="#4A90D9" stroke-width="0.8" fill="none"></path></g><g><path d="M540.3941173736565 319.4165700511157 C560.1209545970316 316.09709670672487, 579.540736233481 312.7781305483731, 593.5988577030726 310.12144276968826 M539.7626301679979 320.0983910233877 C561.303575026876 315.9914045319824, 583.3142444877558 312.34018885503065, 594.3256805267504 310.70302459132046" stroke="#4A90D9" stroke-width="1" fill="none"></path></g><g><path d="M593.0524862669118 308.8306341783518 C593.0524862669118 308.8306341783518, 593.0524862669118 308.8306341783518, 593.0524862669118 308.8306341783518 M593.0524862669118 308.8306341783518 C593.0524862669118 308.8306341783518, 593.0524862669118 308.8306341783518, 593.0524862669118 308.8306341783518 M593.157838411634 313.43711126033696 C593.7324922938433 312.28113271630355, 594.51369333531 311.5142828737211, 596.2746782337368 309.3213045803097 M593.1656296069361 313.04884601450897 C594.6908386735362 311.8402371761668, 595.9277399307401 310.34295457529043, 596.4903249203934 309.38115880108506" stroke="none" stroke-width="0.4" fill="none"></path><path d="M594.4877308459176 308.3038051925163 C594.8998164733632 307.98707986231955, 595.432104541908 308.14876343312403, 595.6007714727253 308.2442860201233 C595.7694384035427 308.33980860712256, 595.4878380203265 308.34651845048734, 595.4997324308217 308.87694071451193 C595.5116268413169 309.4073629785365, 595.8059345633928 310.9147322667209, 595.6721379356961 311.4268196042708 C595.5383413079994 311.93890694182073, 594.9060211009534 311.8079961626499, 594.6969526646411 311.94946473981133 C594.4878842283289 312.0909333169728, 594.724503464511 312.25141098967504, 594.4177273178227 312.2756310672395 C594.1109511711344 312.29985114480394, 593.1238445290422 312.34930137581887, 592.856295784511 312.094785205198 C592.5887470399797 311.8402690345771, 592.8038084989624 311.2648674749633, 592.8124348506349 310.748534043514 C592.8210612023073 310.2322006120647, 592.818896291699 309.41338809603303, 592.9080538945453 308.9967846165022 C592.9972114973916 308.5801811369714, 593.176646154341 308.1880029396349, 593.3473804677126 308.24891316632926 C593.5181147810841 308.30982339302363, 593.9832351704575 309.17049131179954, 593.9324597747748 309.36224597666853 M594.5119222041557 307.1092156760219 C594.8210512818316 306.9873550482847, 594.7403585041806 307.24074765524836, 595.1972330248952 307.946272493937 C595.6541075456099 308.6517973326256, 596.8982995305219 310.9665789547437, 597.2531693284435 311.34236470815375 C597.6080391263652 311.7181504615638, 597.8140302628202 309.9040161293244, 597.3264518124253 310.2009870143975 C596.8388733620303 310.49795789947063, 594.8397663292254 312.7203612134373, 594.3276986260737 313.12419001859257 C593.815630922922 313.52801882374786, 594.3371192571319 312.9971428127252, 594.254045593515 312.6239598453293 C594.1709719298981 312.2507768779334, 594.2344233945169 311.5394248538392, 593.8292566443719 310.8850922142172 C593.4240898942269 310.2307595745952, 591.8430089714078 309.15362182085255, 591.8230450926453 308.6979640075974 C591.8030812138828 308.2423061943423, 593.5651741408344 307.94483215724523, 593.7094733717971 308.15114533468636 C593.8537726027598 308.3574585121275, 592.5691460309167 309.66514924014774, 592.6888404784215 309.9358430722443 C592.8085349259263 310.2065369043409, 594.3154079085358 310.03322681484775, 594.4276400568256 309.775308327266" stroke="#4A90D9" stroke-width="0.8" fill="none"></path></g><g><path d="M540.2326683648595 319.95056320265695 C558.3176779923325 313.4709686776615, 575.7798641380222 307.55698981406704, 591.4673488563742 300.661084971491 M540.0028287459966 320.26894516448135 C554.9510916338302 314.52515289476383, 570.2468290880535 309.26177324214973, 591.7436354360921 301.3091221044692" stroke="#4A90D9" stroke-width="1" fill="none"></path></g><g><path d="M590.195922829145 298.3973835060775 C590.195922829145 298.3973835060775, 590.195922829145 298.3973835060775, 590.195922829145 298.3973835060775 M590.195922829145 298.3973835060775 C590.195922829145 298.3973835060775, 590.195922829145 298.3973835060775, 590.195922829145 298.3973835060775 M590.5865417954512 302.71464778691393 C590.9997878011058 301.87921825497926, 591.9333489671719 301.1891092091198, 592.3364286162462 300.1975148811378 M590.5026171915983 302.74206945102065 C591.292486104112 301.93896087009, 592.0575713097318 300.8299848387873, 592.3612171008672 300.4107217813716" stroke="none" stroke-width="0.4" fill="none"></path><path d="M591.4183288385472 299.6260423987985 C592.0302391618984 299.6140440032915, 593.468097497182 299.7587111203548, 593.8640235792114 300.1267982804856 C594.2599496612409 300.49488544061643, 593.8468157666275 301.55817486167916, 593.7938853307238 301.8345653595833 C593.7409548948201 302.1109558574874, 593.7445681672202 301.61094923924753, 593.546440963789 301.78514126791026 C593.3483137603578 301.959333296573, 593.1779405652717 302.6040209018625, 592.6051221101362 302.87971753155955 C592.0323036550008 303.1554141612566, 590.5805000177993 303.58783617806915, 590.109530232976 303.4393210460927 C589.6385604481527 303.2908059141162, 589.7562848809321 302.3793468262841, 589.7793034011968 301.9886267397008 C589.8023219214615 301.5979066531175, 590.2169850962538 301.64892941861666, 590.2476413545646 301.0950005265927 C590.2782976128755 300.5410716345687, 589.595367295727 298.8271959684927, 589.963240951062 298.66505338755707 C590.3311146063969 298.50291080662146, 592.1395713738181 300.01037259735267, 592.4548832865745 300.12214504097904 C592.7701951993309 300.2339174846054, 591.929880928692 299.476302139035, 591.8551124276007 299.3356880493154 M591.650131827472 299.5442583328375 C591.9459368684101 299.33498712391713, 591.3978737112649 298.18626888588943, 591.898714483244 298.14792076420497 C592.3995552552232 298.1095726425205, 594.4844377902133 298.712698438932, 594.655176459347 299.3141696027307 C594.8259151284807 299.9156407665294, 592.9950146835996 301.305602363979, 592.923146498046 301.75674774699706 C592.8512783124924 302.2078931300151, 594.4185070258627 301.67791231802147, 594.2239673460251 302.0210419008389 C594.0294276661875 302.3641714836563, 592.1851403979686 303.737328276654, 591.7559084190206 303.8155252439017 C591.3266764400726 303.89372221114934, 591.9536318247702 302.8316093105763, 591.6485754723375 302.4902237043247 C591.3435191199047 302.1488380980731, 590.419734651365 302.27944159532603, 589.9255703044241 301.767211606392 C589.4314059574832 301.25498161745793, 588.3728829979602 299.9542877733049, 588.6835893906918 299.41684377072045 C588.9942957834235 298.879399768136, 591.183302751865 298.7147186051469, 591.7898086608137 298.5425475908854 C592.3963145697625 298.3703765766239, 592.4712110262444 298.0284032001363, 592.3226248443842 298.3838176851515" stroke="#4A90D9" stroke-width="0.8" fill="none"></path></g><g><path d="M539.7825574426414 319.8783065341281 C553.3144313185638 312.3442945599048, 565.4378695187513 305.49753581264747, 587.453413541636 292.8027064074492 M539.8043318910168 320.26405656761244 C553.4312025887975 312.31005635074587, 566.0442225197952 304.7439995597088, 587.439671751442 292.4213764146512" stroke="#4A90D9" stroke-width="1" fill="none"></path></g><g><path d="M585.9155783085191 290.7014978009666 C585.9155783085191 290.7014978009666, 585.9155783085191 290.7014978009666, 585.9155783085191 290.7014978009666 M585.9155783085191 290.7014978009666 C585.9155783085191 290.7014978009666, 585.9155783085191 290.7014978009666, 585.9155783085191 290.7014978009666 M586.379817907843 295.0162645181629 C586.7917843385868 294.34992650879497, 587.0448112058219 293.44207618058823, 589.2315788799106 291.6111105310784 M586.2603625445142 295.03829634420373 C586.9925712688048 293.87091498198225, 587.9575414130451 292.7835867847612, 588.8641061090866 291.79264298224507" stroke="none" stroke-width="0.4" fill="none"></path><path d="M587.925357716347 291.0560323023931 C588.2742137091476 291.2794384387203, 588.8128680769665 291.270502503513, 589.1736095086269 291.6531572129349 C589.5343509402873 292.0358119223568, 590.2017836133575 293.0424226230392, 590.0898063063092 293.3519605589244 C589.977828999261 293.6614984948096, 588.8594907074262 293.31684121892744, 588.5017456663371 293.5103848282461 C588.144000625248 293.7039284375648, 588.4050970196126 294.454242634347, 587.9433360597751 294.5132222148365 C587.4815750999376 294.572201795326, 586.2256449090906 294.0419783805827, 585.7311799073116 293.86426231118327 C585.2367149055325 293.68654624178384, 584.9795421769745 293.93525221677737, 584.9765460491005 293.44692579844 C584.9735499212265 292.95859938010267, 585.4685221921227 291.3894755499176, 585.7132031400675 290.93430380115933 C585.9578840880124 290.47913205240104, 585.887125508144 290.76153297109306, 586.44463173677 290.7158953058901 C587.0021379653961 290.67025764068717, 588.5958100328162 290.69725816346744, 589.0582405118239 290.66047780994165 C589.5206709908316 290.62369745641587, 589.2287932205362 290.6036022194503, 589.2192146108165 290.4952131847353 M586.0870070636578 290.93324779773303 C586.3804370323027 291.1392128621833, 586.8240773138242 291.2161058954554, 587.600995838983 291.34997546008884 C588.3779143641417 291.48384502472226, 590.2922958584194 291.57634688550075, 590.74851821461 291.73646518553346 C591.2047405708007 291.89658348556617, 590.4964481215648 291.84272514295105, 590.338329976127 292.310685260285 C590.1802118306894 292.778645377619, 590.4445703167414 294.1984642685538, 589.7998093419839 294.54422588953713 C589.1550483672263 294.8899875105205, 587.3175433626625 294.46546794478337, 586.4697641275816 294.38525498618515 C585.6219848925007 294.3050420275869, 584.615914994327 294.5538499594253, 584.7131339314986 294.0629481379478 C584.8103528686703 293.5720463164703, 586.8299219519042 291.7319411505373, 587.0530777506116 291.4398440573203 C587.2762335493189 291.14774696410325, 586.216534422834 292.45314847254656, 586.0520687237431 292.31036557864553 C585.8876030246522 292.1675826847445, 585.6296621081898 290.94953500886095, 586.0662835560665 290.5831466939143 C586.5029050039433 290.2167583789676, 588.6679810809753 290.03339201301844, 588.6717974110037 290.1120356889655" stroke="#4A90D9" stroke-width="0.8" fill="none"></path></g><g><path d="M540.3818329754104 319.6532358041749 C552.3134976546451 309.5296029095163, 563.8304133110672 299.4906820690154, 582.7239984570889 284.1032255776044 M539.8187046735335 319.8048986013824 C552.3862304445894 309.49571514613666, 565.0281045734629 299.12169960127113, 582.1518366156603 284.8860734741541" stroke="#4A90D9" stroke-width="1" fill="none"></path></g><g><path d="M579.4600857153157 285.08982370362395 C579.4600857153157 285.08982370362395, 579.4600857153157 285.08982370362395, 579.4600857153157 285.08982370362395 M579.4600857153157 285.08982370362395 C579.4600857153157 285.08982370362395, 579.4600857153157 285.08982370362395, 579.4600857153157 285.08982370362395 M581.4167171555425 287.75228027743344 C582.3303166506726 286.8522807232693, 582.2140326467841 285.25905989845074, 584.779830988296 283.29533581040147 M580.804919506012 287.7929522049688 C582.6517444115224 285.79999536616367, 584.3436586187253 284.3163658188963, 585.1049402525521 283.37047566910525" stroke="none" stroke-width="0.4" fill="none"></path><path d="M582.7321073578573 281.66094783221536 C583.2223459575001 281.4346887814502, 583.2419792297376 282.0884129858613, 583.608414909111 282.4075134679203 C583.9748505884845 282.7266139499793, 584.7760275022447 282.9316421093554, 584.9307214340978 283.5755507245693 C585.0854153659509 284.21945933978327, 584.8262648907496 285.612044105913, 584.5365785002298 286.270965159204 C584.24689210971 286.92988621249503, 583.5517610649132 287.3274004653954, 583.192603090979 287.5290770443153 C582.8334451170448 287.73075362323516, 583.0116278349652 287.77744724372246, 582.3816306566245 287.48102463272323 C581.7516334782837 287.184602021724, 579.9260833581526 286.11854503189426, 579.4126200209346 285.7505413783199 C578.8991566837166 285.38253772474553, 579.0285110064837 285.6249351868157, 579.3008506333164 285.2730027112772 C579.5731902601491 284.9210702357386, 580.5276961583668 284.17299999450404, 581.0466577819307 283.6389465250887 C581.5656194054945 283.1048930556734, 582.3174258018795 282.20409147542523, 582.4146203746997 282.06868189478513 C582.5118149475198 281.93327231414503, 581.5142664403586 282.8619312168375, 581.6298252188519 282.8264890412481 M584.4859278900999 283.8124078405585 C585.1384920801813 284.18116368982805, 584.2133964107697 283.3468451367494, 584.1100676237222 283.8136073192549 C584.0067388366747 284.28036950176045, 583.9223163270962 286.42564489260656, 583.8659551678144 286.6129809355915 C583.8095940085326 286.80031697857646, 583.9739042195284 284.70349803718585, 583.7719006680313 284.93762357716474 C583.5698971165342 285.17174911714363, 583.3687497116183 287.9803943036443, 582.6539338588317 288.01773417546485 C581.9391180060451 288.0550740472854, 579.9915877471209 285.700743603223, 579.4830055513115 285.16166280808795 C578.9744233555022 284.62258201295293, 579.4971159504587 284.828308804556, 579.6024406839755 284.78324940465467 C579.7077654174923 284.73819000475333, 579.8867589756661 285.16118587387444, 580.1149539524123 284.89130640867995 C580.3431489291585 284.62142694348546, 580.7218360182701 283.31730768481225, 580.9716105444523 283.16397261348766 C581.2213850706346 283.01063754216307, 581.0613861947429 284.013404405958, 581.6136011095059 283.97129598073224 C582.1658160242689 283.9291875555065, 584.1466463011744 282.9036441349058, 584.2849000330302 282.911322062133" stroke="#4A90D9" stroke-width="0.8" fill="none"></path></g><g><path d="M130.4622230969263 348.2132843799549 C141.34156879969098 351.05048731949887, 155.3529677870477 349.40181807925325, 169.57595326462376 349.03757454433696 M130.35351284941683 350.35731921936423 C143.6311419279089 350.5308419932079, 156.49716880356237 349.440587419387, 169.7880013063509 349.27151106311726" stroke="#4A90D9" stroke-width="2.5" fill="none"></path></g><g><path d="M148.6693862424896 350.21013513903114 C152.20722844677812 361.3564422052946, 149.81250488085675 374.7888613511331, 150.29636292155027 379.7528344726569 M149.18772518593684 349.2131482908218 C150.95124935704584 360.04896575511526, 150.1595819612519 368.4806502943656, 150.77468967198163 380.3899306690562" stroke="#4A90D9" stroke-width="2.5" fill="none"></path></g><g><path d="M226.4945987744956 277.7145434959539 C226.4945987744956 277.7145434959539, 226.4945987744956 277.7145434959539, 226.4945987744956 277.7145434959539 M226.4945987744956 277.7145434959539 C226.4945987744956 277.7145434959539, 226.4945987744956 277.7145434959539, 226.4945987744956 277.7145434959539 M228.29072064823475 281.978190216934 C228.94132103832442 281.0363607247286, 231.62312285688654 277.8123765333582, 232.32948957173417 277.2999944468466 M227.5349238779105 282.5441464010567 C229.111553013906 280.3807073051802, 231.01980331315724 278.6499575666645, 232.63799367746924 276.44602054093536" stroke="none" stroke-width="0.5" fill="none"></path><path d="M231.54186502276283 275.4548527641795 C232.3693772271043 275.69229449919334, 233.98537509372625 277.83566435722855, 234.27896250262054 278.62299714555445 C234.57254991151484 279.41032993388035, 233.7552046510704 279.5152789997314, 233.30338947612853 280.1788494941349 C232.85157430118667 280.84241998853844, 232.17524216677242 281.8401604077748, 231.56807145296938 282.6044201119756 C230.96090073916633 283.36867981617644, 230.4520770326518 284.8875636874414, 229.66036519331035 284.76440771933966 C228.8686533539689 284.6412517512379, 227.2840044588349 282.6966902937361, 226.81780041692065 281.8654843033653 C226.3515963750064 281.0342783129945, 226.90072082670315 280.48773135914047, 226.86314094182487 279.7771717771149 C226.82556105694658 279.06661219508936, 226.1429548945211 278.30173237384616, 226.59232110765103 277.602126811212 C227.04168732078097 276.9025212485778, 228.59869716989652 275.59083452665277, 229.5593382206045 275.57953840130983 C230.51997927131248 275.5682422759669, 231.85966831118532 277.32175841160046, 232.35616741189884 277.5343500591542 C232.85266651261236 277.7469417067079, 232.69896674055767 277.08392504409323, 232.53833282488563 276.8550882866321 M229.88083359038325 276.3837977528219 C230.52367757817905 276.18874693868264, 230.65606267385837 276.7218165575332, 231.48939279705473 277.3706749008256 C232.3227229202511 278.01953324411795, 234.4878671892613 279.4332400579781, 234.8808143295614 280.2769478125762 C235.27376146986148 281.12065556717437, 234.17819736281106 282.044433560431, 233.84707563885533 282.43292142841443 C233.5159539148996 282.82140929639786, 233.90732195283664 282.5419736129455, 232.89408398582702 282.60787502047697 C231.8808460188174 282.6737764280084, 228.8407661649578 282.9263656835312, 227.76764783679758 282.82832987360325 C226.69452950863734 282.73029406367533, 226.78398828250317 282.41645444864946, 226.45537401686556 282.0196601609093 C226.12675975122795 281.6228658731692, 225.79974906384157 281.3948763820315, 225.79596224297185 280.4475641471623 C225.79217542210213 279.50025191229315, 225.79941529076925 277.27259955132104, 226.4326530916472 276.3357867516943 C227.06589089252518 275.39897395206754, 229.07252132784953 274.94390676091797, 229.59538904823964 274.82668734940177 C230.11825676862975 274.70946793788556, 229.6462913691841 275.23123109406123, 229.56985941398796 275.6324702825971" stroke="#000000" stroke-width="1" fill="none"></path></g><g><path d="M228.64800436829825 287.132246925449 C229.55944213823116 292.1709249912793, 228.48693248175928 297.2728311247287, 229.51893274049817 305.65315273022895 M229.69711947330237 287.54942003166855 C229.70609970800916 294.90016752414425, 229.49366062162534 301.2407842303292, 229.95193981253388 305.6611607544393" stroke="#000000" stroke-width="0.8" fill="none"></path></g><g><path d="M466.9499309670806 276.06210886570227 C466.9499309670806 276.06210886570227, 466.9499309670806 276.06210886570227, 466.9499309670806 276.06210886570227 M466.9499309670806 276.06210886570227 C466.9499309670806 276.06210886570227, 466.9499309670806 276.06210886570227, 466.9499309670806 276.06210886570227 M467.3727760704065 282.9046295805678 C469.0317367904297 280.6755603756612, 471.0239531944787 277.6152459123655, 471.5663254327135 276.73235756695743 M466.66263843738386 282.39362259734975 C467.811842451549 280.46387028827905, 469.2294934646594 279.4563013091656, 472.32823394946985 276.43089475073197 M470.7516225425291 283.71569855815676 C472.1230334631015 282.2516847367912, 473.8831842084352 280.3477459620223, 473.9326422433285 279.7060860218636 M471.12986881201624 283.74642749347447 C471.85174222938343 282.34063936518015, 473.33703437128264 281.12771238706733, 474.07118719125276 279.6067700504105" stroke="none" stroke-width="0.5" fill="none"></path><path d="M469.9604930367451 276.4204048771861 C470.6283554976692 276.17744051059356, 471.063732167102 275.9555885109967, 471.55375761461465 276.2278133085977 C472.0437830621273 276.50003810619876, 472.3471750601982 277.33553435955616, 472.90064572182115 278.05375366279236 C473.4541163834441 278.77197296602856, 474.9677925263551 279.49554748111217, 474.8745815843524 280.5371291280149 C474.78137064234977 281.5787107749176, 473.2596207176835 283.84296017808055, 472.3413800698052 284.30324354420867 C471.4231394219269 284.7635269103368, 470.35425411773883 283.57886403539646, 469.3651376970826 283.29882932478375 C468.3760212764264 283.01879461417104, 466.8902487999803 283.2312721376165, 466.406681545868 282.6230352805324 C465.9231142917557 282.0147984234483, 466.4242847301458 280.6841211482454, 466.46373417240886 279.64940818227916 C466.5031836146719 278.6146952163129, 465.95858211407597 276.93207051811515, 466.64337819944626 276.4147574847349 C467.32817428481655 275.8974444513546, 469.8232396772323 276.695193383333, 470.5725106846307 276.5455299819976 C471.32178169202905 276.39586658066224, 471.32977821141617 275.6543204413485, 471.1390042438365 275.51677707672263 M470.89064730911406 277.1044439921555 C471.7052321828114 277.21616353950895, 472.64735928949835 276.94852897000004, 473.0583163563443 277.0304080003471 C473.4692734231902 277.1122870306942, 473.13259309438195 276.69201888415256, 473.35638971018955 277.59571817423785 C473.58018632599715 278.49941746432313, 474.6032473081224 281.65519590460667, 474.4010960511899 282.4526037408589 C474.1989447942574 283.2500115771111, 473.25913974920627 282.112983690084, 472.14348216859474 282.38016519175096 C471.0278245879832 282.64734669341794, 468.6571527018515 283.89557117998146, 467.7071505675207 284.05569275086077 C466.75714843318997 284.2158143217401, 466.9783370337486 284.1784121446959, 466.4434693626103 283.3408946170269 C465.90860169147203 282.50337708935785, 464.4856771860893 280.17263912371203, 464.49794454069104 279.03058758484667 C464.5102118952928 277.8885360459813, 465.57370440490376 277.2338968603266, 466.5170734902208 276.4885853838348 C467.46044257553785 275.743273907343, 469.7440009483133 274.6807864579383, 470.15815905259313 274.5587187258958 C470.57231715687294 274.4366509938533, 469.1358438056359 275.59278766499654, 469.0020221158995 275.7561789915796" stroke="#000000" stroke-width="1" fill="none"></path></g><g><path d="M468.5698290217925 288.36185100561005 C469.5244841641048 292.7894094053871, 469.3360438044802 299.65409806339903, 469.9319362385162 303.9915603394424 M470.8164591977073 287.6159524191935 C470.0849791303832 294.08937038266384, 469.9036399596961 300.75843744846395, 470.4639104006955 304.86175298024915" stroke="#000000" stroke-width="0.8" fill="none"></path></g><g><path d="M286.0787844473063 297.7099740445364 C286.0787844473063 297.7099740445364, 286.0787844473063 297.7099740445364, 286.0787844473063 297.7099740445364 M286.0787844473063 297.7099740445364 C286.0787844473063 297.7099740445364, 286.0787844473063 297.7099740445364, 286.0787844473063 297.7099740445364 M286.45638379439896 302.95958834979126 C289.5445315406969 300.73954673841257, 290.7020170303922 298.7447394267912, 291.9336864361367 296.73624416491873 M286.93661016923465 302.67454783545736 C289.1221057640377 300.69584592062347, 290.18568526878875 298.5294968820199, 292.09344905703364 296.83697299423596 M290.86330643882326 304.09817126269627 C292.41905484491787 303.4821191350609, 293.4407035737033 301.5411837170689, 294.53790847826195 300.56402443004856 M290.9818864968483 304.3576053825903 C291.9534964582422 303.1743829773549, 293.18759694480633 301.715354880081, 293.98560069684055 300.7353308560491" stroke="none" stroke-width="0.5" fill="none"></path><path d="M289.7355995537945 295.9597570972045 C290.74729458858695 295.87290774433944, 292.10509474886146 296.13450580090046, 292.7587947782144 296.77217722033964 C293.4124948075673 297.40984863977883, 293.40827118071144 299.11069295450625, 293.65779972991226 299.7857856138398 C293.9073282791131 300.4608782731733, 294.6783218893264 300.0458140472796, 294.2559660734193 300.82273317634076 C293.8336102575122 301.59965230540195, 291.907197153129 304.1072451160935, 291.12366483446976 304.447300388207 C290.3401325158105 304.7873556603205, 290.2495820225863 303.1724918070636, 289.5547721614639 302.86306480902175 C288.8599623003415 302.5536378109799, 287.61108717996734 303.1728324377681, 286.9548056677354 302.5907383999559 C286.29852415550346 302.00864436214374, 285.7237000888699 300.2292703346677, 285.61708308807215 299.3705005821487 C285.5104660872744 298.51173082962964, 285.40961405818723 297.8624875888698, 286.31510366294896 297.43811988484185 C287.2205932677107 297.0137521808139, 290.32514321249516 297.07587643959863, 291.0500207166424 296.82429435798105 C291.7748982207896 296.57271227636346, 290.69123750072583 295.8633041979261, 290.6643686878322 295.9286273951364 M291.92783133588586 294.76369363701826 C292.8910897079339 294.95749314243056, 293.2473212660613 297.3064542944618, 293.57146485441916 298.3305454551615 C293.895608442777 299.3546366158612, 293.9129408101099 300.1088552835663, 293.87269286603305 300.9082406012163 C293.8324449219562 301.70762591886626, 293.6765400662932 302.50410104157123, 293.3299771899582 303.1268573610615 C292.98341431362314 303.7496136805518, 292.66211751356747 304.4698007881298, 291.7933156080229 304.644778518158 C290.92451370247835 304.81975624818614, 289.1497109675695 304.75176152656263, 288.1171657566908 304.17672374123055 C287.0846205458121 303.60168595589846, 285.85975613995095 302.0995650885143, 285.59804434275054 301.1945518061653 C285.33633254555014 300.2895385238163, 286.168888143324 299.60438774861484, 286.54689497348846 298.74664404713656 C286.9249018036529 297.88890034565827, 287.0194196208975 296.7315207638421, 287.86608532373737 296.04808959729553 C288.7127510265772 295.36465843074893, 291.2173626789649 294.74840280609874, 291.6268891905275 294.64605704785686 C292.0364157020901 294.543711289615, 290.6918150292927 295.1049504540944, 290.32324439311293 295.4340150478443" stroke="#000000" stroke-width="1" fill="none"></path></g><g><path d="M289.674752057864 308.55297333049117 C290.1809699584955 315.07797504277664, 289.6579891342674 317.80620909785154, 291.3109685957096 325.9723247522297 M290.06986602975024 307.75824559386416 C290.8263983611879 313.7446315706529, 289.43451935824316 321.55109275481453, 289.95067231744355 325.3698305780893" stroke="#000000" stroke-width="0.8" fill="none"></path></g><g><path d="M406.2846113137307 297.5272786731965 C406.2846113137307 297.5272786731965, 406.2846113137307 297.5272786731965, 406.2846113137307 297.5272786731965 M406.2846113137307 297.5272786731965 C406.2846113137307 297.5272786731965, 406.2846113137307 297.5272786731965, 406.2846113137307 297.5272786731965 M407.11091950421087 303.6465011732519 C408.5611219911304 301.3048800619373, 410.30091539384597 298.4190256359888, 412.3986470370281 296.75248731914513 M406.5610359500044 302.77688429913786 C407.9333594145905 300.944101456561, 409.8582906390867 299.58432398460604, 412.1449819166046 296.17766276747443 M411.2342111327852 304.2205846336275 C411.96233359229694 303.2505333163137, 412.6162327489987 302.80976734706803, 414.7806912329464 300.14025888685643 M410.81328074283056 304.37691649464006 C411.6048090870901 303.435750429411, 412.6983590074382 302.3882788322427, 414.24927312137845 300.7244471567374" stroke="none" stroke-width="0.5" fill="none"></path><path d="M407.8996979374822 296.3856339946906 C408.62144159556453 295.9843367782464, 410.61101015411674 295.0853100778001, 411.7047663503459 295.394113647986 C412.79852254657504 295.7029172181719, 414.04294332197367 297.2098746388122, 414.462235114857 298.2384554158059 C414.8815269077403 299.2670361927996, 414.50665611719165 300.67605108363585, 414.2205171076456 301.5655983099482 C413.93437809809956 302.45514553626055, 413.3101969596422 303.24874648024127, 412.74540105758075 303.57573877367986 C412.1806051555193 303.90273106711845, 411.89916018525355 303.5608072309685, 410.831741695277 303.5275520705798 C409.76432320530046 303.4942969101911, 407.0313919215994 303.9550003675602, 406.3408901177216 303.3762078113478 C405.6503883138438 302.7974152551354, 406.7439748241912 300.97685758540246, 406.6887308720101 300.0547967333052 C406.63348691982907 299.1327358812079, 405.71440729390946 298.5993873339245, 406.0094264046351 297.84384269876404 C406.3044455153608 297.0882980636036, 407.9160588124676 295.63013385683774, 408.458845536364 295.5215289223426 C409.00163226026035 295.4129239878475, 409.2513616596885 296.9628258113628, 409.2661467480132 297.1922130917932 M409.50507429722234 295.38837188876084 C410.223943924972 295.5352518690164, 411.9533560332774 297.06780146529974, 412.7900981856597 297.6488666193575 C413.62684033804203 298.2299317734152, 414.3203063869786 298.34038387997015, 414.5255272115163 298.8747628131072 C414.730748036054 299.4091417462443, 414.5643513954128 300.14022815244846, 414.0214231328862 300.8551402181798 C413.47849487035955 301.5700522839112, 412.02137778352477 302.60362079162826, 411.26795763635664 303.1642352074954 C410.5145374891885 303.7248496233625, 410.3516117981954 304.4129092700223, 409.50090224987736 304.21882671338255 C408.6501927015593 304.0247441567428, 406.7493895841144 303.0972421181599, 406.16370034644854 301.999739867657 C405.5780111087827 300.9022376171541, 405.8844850896405 298.3258328698673, 405.986766823882 297.6338132103651 C406.0890485581235 296.9417935508628, 406.092209679113 298.1097991457765, 406.77739075189754 297.84762191064334 C407.4625718246821 297.5854446755102, 409.6445265011731 296.57252664161916, 410.09785326058926 296.0607497995663 C410.5511800200054 295.5489729575134, 409.65819043843067 294.63462730531774, 409.49735130839423 294.77696085832605" stroke="#000000" stroke-width="1" fill="none"></path></g><g><path d="M410.6162960466734 309.5588446791389 C408.7918419129343 312.2190201824886, 410.0493195000372 317.1486078975362, 411.23449292934157 325.5500299197844 M409.8086130862011 307.5820269055452 C410.9675193409593 314.0496483421439, 409.73092076120275 317.9847578698021, 410.6118851447155 325.62885303044254" stroke="#000000" stroke-width="0.8" fill="none"></path></g><text x="400" y="560" text-anchor="middle" font-family="sans-serif" font-size="16" fill="#222" font-style="italic">A signal is credible precisely because it is expensive to fake.</text></svg>