<?xml version="1.0" encoding="UTF-8"?>
<svg width="800" height="600" viewBox="0 0 800 600" xmlns="http://www.w3.org/2000/svg"><rect width="800" height="600" fill="#FFFFFF"></rect><g><path d="M100.4311626312061 399.2936746268166 C312.59486857769394 398.0261124890704, 524.5012168139464 397.5449367252466, 699.505119645163 399.55720521584556 M100.03517954378383 400.25775329866684 C275.0894606423299 400.12531075382265, 450.64375210252115 400.07698166091757, 700.149870660022 399.9488125822584" stroke="#000000" stroke-width="2.4" fill="none"></path></g><g><path d="M130.3269677581952 349.35594908675773 C130.30030513594187 366.63567661494716, 130.1392517823346 387.23959867028486, 131.04766403420345 439.9235948765283 M130.13004385555925 349.6141926498496 C129.85927921968147 370.0754973652542, 129.41425008170657 390.68157517625235, 129.66050210053936 439.9992155777272" stroke="#000000" stroke-width="2" fill="none"></path></g><g><path d="M123.53395288606411 350.2817249198253 C125.19091850881102 343.4156734869807, 128.9226653275002 337.8754976430741, 128.4075593399417 335.33033902286286 M121.82913219698634 349.9359455949029 C123.8623354802607 346.7654219378179, 125.46568943534221 342.32441451330675, 129.5908035243923 335.3192484406003" stroke="#000000" stroke-width="1.6" fill="none"></path></g><g><path d="M137.14302607642688 351.4739519393603 C134.32167206823996 344.98177896932486, 131.85353662113565 338.26347404831284, 129.11404213905928 336.65556112354545 M138.73228853080425 350.84478982783753 C136.62089510396916 347.35732163554553, 135.135466519112 343.18900543692354, 129.97621344029363 334.5055762513093" stroke="#000000" stroke-width="1.6" fill="none"></path></g><g><path d="M190.1549864787404 349.32339086282064 C191.11085394177744 366.9853618808717, 190.31032431270657 385.6584371777237, 190.62950064582307 441.2877637812508 M190.74120080118354 350.045798505057 C189.77579779331404 368.3240686711414, 190.07184593744086 387.33306753813906, 190.50971343918738 440.75668381227155" stroke="#000000" stroke-width="2" fill="none"></path></g><g><path d="M181.11795371332298 348.88866883418785 C185.62713877220963 346.00030836260675, 186.9139505760727 338.0677372779129, 191.1772150063176 334.9867148097602 M182.78295163990816 349.1947578892016 C184.3543344699224 345.88036945093137, 186.50709770686353 342.47562780309744, 189.52899143267237 334.7756991589923" stroke="#000000" stroke-width="1.6" fill="none"></path></g><g><path d="M198.79594766255738 350.41641240455453 C195.08588520922837 344.7253196801848, 193.25417810860904 339.8560628092694, 190.59868901811004 333.67483444940154 M198.49476242107698 349.86743502077024 C195.8404509925769 344.80656167681633, 193.21962240111745 341.1622159845435, 189.99942248358883 334.9388488354621" stroke="#000000" stroke-width="1.6" fill="none"></path></g><g><path d="M250.85714493383693 351.2853784207512 C250.47318510571046 378.81816142735084, 248.1557468483264 409.08055871722877, 250.86035797866165 440.9445020369959 M250.72140935765648 350.1947084378489 C250.7215843235229 374.0167522785565, 250.94788183477507 397.46294228997937, 249.7161028571632 439.73386199846306" stroke="#000000" stroke-width="2" fill="none"></path></g><g><path d="M242.45666307220324 349.7352281975792 C243.8508310387585 345.0787245545893, 248.23982933147624 340.5937007519399, 250.7800341836293 336.04531180782516 M241.25817484199408 349.67284829567564 C244.07761235601788 345.4574022108087, 246.21166923492999 341.4676590940005, 250.3288559660771 334.7384856758112" stroke="#000000" stroke-width="1.6" fill="none"></path></g><g><path d="M259.6139741339207 351.67769028665845 C254.93300575573016 345.66901286303505, 252.733299956458 339.5926820347595, 250.07259116364713 334.16219208885224 M257.3588717083183 350.0023487761931 C254.32892509295868 345.01463210593585, 252.34690022175738 337.8588796510637, 249.84601075880335 334.43110441331345" stroke="#000000" stroke-width="1.6" fill="none"></path></g><g><path d="M310.9298043875199 349.6459175969817 C310.0982883729743 377.35622647645414, 308.69631399465686 406.34900526755104, 310.41798030036364 440.15922280125676 M310.72626131184256 349.61266387783513 C309.8275750742195 385.3152538183235, 310.0927760540096 419.81671634777064, 309.3651343896766 440.0213880204248" stroke="#000000" stroke-width="2" fill="none"></path></g><g><path d="M302.73605446922437 349.8616685486892 C305.68280616452336 343.24982598296356, 306.61975029308815 338.9676054756774, 309.73492125633794 336.03180950422524 M302.81920906898836 350.3055603629856 C304.0343327288106 344.0824627880367, 307.0136400005494 338.6632958047034, 310.7886004955095 335.7492618045287" stroke="#000000" stroke-width="1.6" fill="none"></path></g><g><path d="M319.3571604989619 348.324416534585 C316.5444074920128 343.97243713731046, 311.1584856023731 338.7144949711421, 311.0453640367662 333.4072579621861 M318.606540621314 350.04086302509415 C315.0684980797815 344.776548430702, 312.5991729603331 338.47241683681546, 310.80908353313305 335.69375369571435" stroke="#000000" stroke-width="1.6" fill="none"></path></g><g><path d="M368.6755561740432 349.66207485915794 C369.7313761848626 377.6127561452242, 370.91217125998406 403.96656188011775, 368.7869959242105 439.41688874996845 M370.7166865502883 350.7734545522316 C370.1685984951376 373.9805238542104, 370.66721504402165 397.4320830318962, 370.3941933889248 440.7372526545896" stroke="#000000" stroke-width="2" fill="none"></path></g><g><path d="M360.56356967097946 348.81768688733143 C363.7994706931328 345.29918477669173, 368.13895295491363 341.8424734150726, 370.85868266628904 336.30787172012316 M362.57370596616937 350.42120350089397 C365.16464906348165 343.98538482155516, 367.56201080262827 338.32931580434337, 370.26297581952116 334.7977356990866" stroke="#000000" stroke-width="1.6" fill="none"></path></g><g><path d="M377.6147529058516 351.41189829438633 C374.45398640920195 343.6036478545161, 372.0531656827206 339.6332135164836, 371.23850243898545 335.88921496734486 M377.5331179892153 350.3062849144265 C376.3302279995063 345.58053199109395, 373.76827897564516 343.3192029973887, 370.15027075536 335.4271049553618" stroke="#000000" stroke-width="1.6" fill="none"></path></g><g><path d="M431.1618177233221 349.2341351293275 C429.71630151440297 374.1468516272694, 429.24391597284233 399.21932271327717, 429.9193256694325 438.77046374913857 M429.72560363338044 349.42953298885226 C430.6010041103247 381.79505556863023, 430.46901008572456 412.9902957035508, 430.63200286794176 440.3465114742671" stroke="#000000" stroke-width="2" fill="none"></path></g><g><path d="M422.04392820081523 350.6222428992768 C423.6304922670713 344.1082039687329, 427.5476316182678 342.24583295867166, 428.9889736146163 336.44150224685933 M421.8594403929261 350.7666854497648 C423.9647173850996 345.1679830376465, 427.0850612217989 340.6288513734982, 429.7657188031777 335.5648084948063" stroke="#000000" stroke-width="1.6" fill="none"></path></g><g><path d="M438.1627278589597 348.3673173169728 C437.20444403254146 345.1791941435602, 433.9857188498558 341.5983785473677, 431.4252079238865 335.23068444462115 M437.5087614514506 350.807003497037 C435.46192496147063 344.71605101693393, 431.4420427781513 337.8887853429513, 430.35021875704416 334.2332310166413" stroke="#000000" stroke-width="1.6" fill="none"></path></g><g><path d="M489.28327056884376 351.1040077807642 C491.33207076965857 371.04173751407933, 489.66847588166326 394.76255972049375, 491.2224020844043 441.3477705479344 M489.67236674043676 350.7286955580723 C490.2193105104251 384.7832796414307, 489.99971898521255 418.97295273863745, 489.24810039219346 439.2185697866271" stroke="#000000" stroke-width="2" fill="none"></path></g><g><path d="M482.61665433657964 348.5697662605451 C485.50565825438156 345.75871181786647, 485.17034130454294 340.1284092841839, 489.8796189284656 333.71665267892735 M482.05569955999425 350.25138895720795 C484.22884974970907 345.84097647076396, 485.0753937913277 342.2246301038631, 489.5145061520513 334.4073150117039" stroke="#000000" stroke-width="1.6" fill="none"></path></g><g><path d="M498.62553251056914 350.7121259136725 C494.95027865226757 346.5643697271562, 493.45518692730803 345.2112884350694, 490.23550637772223 335.3500262295243 M497.77041267860875 350.6411718419553 C495.4264546040684 344.7762122375559, 492.1866933233293 339.5651962208362, 490.73520456504696 335.6493133526779" stroke="#000000" stroke-width="1.6" fill="none"></path></g><g><path d="M549.3854623572967 349.3641381731887 C549.7526126354227 374.6856989782122, 552.1100277169812 402.1680964949294, 550.9424073170695 439.4889955516823 M549.5736215090365 350.0743301746592 C549.4969140105259 384.40527885620486, 549.901082126517 421.05273693963136, 550.5034384245137 439.8997534889695" stroke="#000000" stroke-width="2" fill="none"></path></g><g><path d="M541.4071380924305 351.0628777514433 C543.957590451238 344.7457739762889, 546.2657113646603 341.1875334655463, 550.2389166603999 333.9101826054193 M542.6997604427293 349.4674951328379 C545.1450220849108 345.9934557883671, 546.363668723423 341.08029075062126, 550.2303847208165 335.0063547281046" stroke="#000000" stroke-width="1.6" fill="none"></path></g><g><path d="M559.1318522949692 351.5430304640712 C556.8924207936245 345.39004765935977, 553.8966109497685 342.65457060355027, 549.1872627593476 333.9636053603067 M557.3935498327168 350.02009591912696 C555.9270549420785 343.98259107545914, 553.1854762531555 338.9622381409651, 549.9886882004621 334.4105215661217" stroke="#000000" stroke-width="1.6" fill="none"></path></g><g><path d="M611.1122705282739 350.9989257869691 C611.7394990768033 384.6054703422514, 608.7819380371925 416.32161406166534, 608.9200840054928 438.4800209547411 M609.3943311549507 349.52080272645327 C609.4988387527278 379.3826157996842, 610.1590310580013 407.97779209399806, 609.9415227296424 439.37197917491625" stroke="#000000" stroke-width="2" fill="none"></path></g><g><path d="M602.535429365413 348.67528969003615 C605.7486474022738 343.2372943532739, 607.3306404574845 338.943871219173, 611.458358629819 335.3763005642179 M602.2793199507223 349.36735305723323 C604.7435807009788 345.7759012050919, 606.1957207580787 341.6794960490362, 609.8389575676285 335.45686766203147" stroke="#000000" stroke-width="1.6" fill="none"></path></g><g><path d="M616.3742365471454 349.5128120917327 C615.3121427528841 343.89404557564825, 611.2146397369302 338.1971385122524, 610.954667804459 334.1730151998825 M617.1644302301202 350.5509586761932 C615.46081237205 343.78484739032353, 612.5756531082985 339.0295556132456, 609.7407871055838 335.41563791946044" stroke="#000000" stroke-width="1.6" fill="none"></path></g><g><path d="M669.644333912682 351.1372966106513 C669.227511117874 374.9820968663503, 668.2014561448002 403.1112780320148, 669.5086360980141 439.2513428347957 M669.5741029935679 349.42020658766444 C670.0900448353891 368.4098189014528, 671.0579374485593 387.9706238174108, 670.0671663368661 439.7785349131348" stroke="#000000" stroke-width="2" fill="none"></path></g><g><path d="M660.6879732526407 350.9504866740982 C662.3685270298043 344.96446985875724, 663.9280178168889 343.4931454771294, 668.9471734368742 334.791742447488 M662.2365779627434 349.94333999393183 C663.5095127372696 347.3281957919029, 665.415469342457 342.98951355478414, 670.4683834123722 335.35783098878807" stroke="#000000" stroke-width="1.6" fill="none"></path></g><g><path d="M679.3330844649373 350.1072886948775 C676.7636609061744 344.96028842136576, 674.1540318992847 340.86060510290486, 668.5142222028313 334.85270238534514 M678.3353921139263 349.63884005140613 C675.4788721702247 344.95782175717, 672.8334477186626 340.67028213030585, 669.1886063778702 335.0667618676436" stroke="#000000" stroke-width="1.6" fill="none"></path></g><g><path d="M615.0531123575634 221.95444719470382 C615.0531123575634 221.95444719470382, 615.0531123575634 221.95444719470382, 615.0531123575634 221.95444719470382 M615.0531123575634 221.95444719470382 C615.0531123575634 221.95444719470382, 615.0531123575634 221.95444719470382, 615.0531123575634 221.95444719470382 M608.7544774097676 240.26039878991372 C614.7365784902045 236.5281992178252, 615.6468986643782 232.7559935991269, 622.7122173693595 221.6022128488143 M610.094188726803 239.59922725559463 C613.8432276365872 234.5678852545226, 618.3984641903398 230.43556595271556, 624.2633354098883 224.31766436974314 M614.0009803957547 246.02880495673577 C621.6987565082965 238.48409561689704, 628.0607624232636 233.66611562169635, 631.3252499073794 226.1641986359128 M615.7843359038455 247.0005788857672 C621.6935585912834 239.7137211333861, 626.983907118887 233.01079076341858, 631.1947582441636 227.17437473837788 M622.9232769780563 250.0298901532717 C628.7826646687739 244.33270209329888, 633.4447542209275 239.08113469174788, 635.443826808763 234.67809724376457 M621.6979131684716 249.5542844302847 C625.0500207984612 247.61712945792846, 628.1692741860594 243.73214153762837, 637.3627216674189 232.92359544424724" stroke="none" stroke-width="1" fill="none"></path><path d="M614.926335612377 222.1002871571364 C617.2140412306645 221.0085150867984, 620.7800306674218 221.3178268315084, 623.6444543587862 222.43552338594378 C626.5088780501507 223.55321994037917, 630.3980232619581 226.21008601553, 632.1128777605636 228.80646648374864 C633.8277322591691 231.40284695196726, 634.4134716129314 235.2157889431018, 633.9335813504196 238.01380619525563 C633.4536910879077 240.81182344740944, 631.6594102778529 243.9291103109087, 629.2335361854924 245.5945699966715 C626.807662093132 247.26002968243432, 622.1627482854491 248.25483201158073, 619.3783367962569 248.00656430983256 C616.5939253070648 247.75829660808438, 614.5219493469923 245.73938930030798, 612.5270672503393 244.10496378618237 C610.5321851536863 242.47053827205676, 607.9279663048521 240.63157270943282, 607.4090442163392 238.20001122507887 C606.8901221278263 235.76844974072492, 607.9366314440131 232.15826684192618, 609.4135347192621 229.5155948800587 C610.8904379945111 226.87292291819122, 614.716269024237 223.67375382928086, 616.2704638678333 222.34397945387397 C617.8246587114296 221.01420507846709, 618.5759253575575 221.24161388261794, 618.7387037808397 221.53694862761733 M623.7310159096819 224.00667762743 C626.0924187116404 224.56305112153137, 628.9196977225379 225.88515940454423, 630.2737592007294 227.97055043556838 C631.6278206789209 230.05594146659254, 631.8868995742129 233.79524716940642, 631.8553847788311 236.51902381357493 C631.8238699834493 239.24280045774344, 631.839096225803 242.62455481143758, 630.0846704284388 244.31321030057944 C628.3302446310746 246.0018657897213, 624.5673210965307 246.65370458805063, 621.3288299946457 246.65095674842615 C618.0903388927608 246.64820890880168, 613.2263489161146 246.0025247103838, 610.6537238171289 244.29672326283256 C608.0810987181433 242.59092181528132, 606.3437224838733 239.1122685614125, 605.8930794007318 236.41614806311873 C605.4424363175904 233.72002756482496, 606.6909264124002 230.28995025995584, 607.9498653182803 228.12000027306996 C609.2088042241604 225.95005028618408, 610.5758947813897 224.49473525725796, 613.4467128360124 223.39644814180338 C616.317530890635 222.2981610263488, 623.1837504755454 221.44781025613426, 625.1747736460162 221.5302775803425 C627.165796816487 221.61274490455074, 625.6885682791246 223.2801566674037, 625.3928518588376 223.89125208705275" stroke="#000000" stroke-width="2" fill="none"></path></g><g><path d="M619.9953514966614 247.38247336195747 C620.885582453747 258.36718622340095, 618.8715887111223 266.19440334594134, 619.95648180235 294.02771908780977 M620.879337714673 247.33407833594015 C619.9412879570233 261.74788944898154, 620.3623174030396 274.1529931947306, 620.5913319292926 294.573068624462" stroke="#000000" stroke-width="2" fill="none"></path></g><g><path d="M619.5146944869947 296.0725418188565 C617.745068642097 303.79218413805154, 612.5260544669233 317.1128196881215, 609.3484082358215 333.2615204646851 M619.8520837402286 295.6916266949609 C615.5816072128289 308.24187471590346, 611.7450671944482 320.9981828223825, 608.7586909327873 335.20032915873674" stroke="#000000" stroke-width="2" fill="none"></path></g><g><path d="M620.5949876848349 295.48313336375514 C623.3949402046424 305.0342339941947, 628.0698185908274 318.3723437241407, 630.199898192644 336.1873831359486 M619.328373281095 295.8510387370604 C624.6456043015154 307.5934524876187, 629.024038803409 322.9971161367412, 632.4782577911657 334.6315621095059" stroke="#000000" stroke-width="2" fill="none"></path></g><g><path d="M621.162780735034 266.6799043501681 C604.5097245477064 261.80940900388634, 590.7098722100643 258.08475343503005, 569.1855040141813 255.77346790783997 M619.6072569116949 264.92095502476417 C606.3697139607219 261.3946106080031, 594.5853613426716 258.98223967001326, 570.7819003872722 255.02401016390152" stroke="#000000" stroke-width="2" fill="none"></path></g><g><path d="M562.1642095636554 243.99566864192334 C563.8321696308543 243.98600191863687, 566.0455198053689 245.58610820351134, 567.3252864052529 246.6926353021435 C568.6050530051368 247.79916240077563, 569.561736165081 248.93353390930784, 569.842809162959 250.6348312337161 C570.1238821608371 252.3361285581244, 569.8941905030954 255.36277618992324, 569.0117243925212 256.90041924859315 C568.1292582819469 258.43806230726307, 566.2888485721112 259.37908815460725, 564.5480124995134 259.86068958573554 C562.8071764269157 260.34229101686384, 560.1952738143841 260.54042193190634, 558.5667079569348 259.7900278353628 C556.9381420994855 259.0396337388193, 555.4250797177906 256.88697895711704, 554.7766173548173 255.35832500647444 C554.128154991844 253.82967105583185, 554.327846186781 252.14394174658904, 554.6759337790947 250.61810413150718 C555.0240213714085 249.09226651642533, 555.3540287161395 247.31962595546338, 556.8651429087 246.20329931598337 C558.3762571012605 245.08697267650336, 562.6177200542231 244.2230039893624, 563.7426189344578 243.92014429462716 C564.8675178146925 243.61728459989192, 563.7683110999396 244.3057342862614, 563.6145361901085 244.38614114757183 M564.9304431699641 244.32618325034622 C566.543721429654 244.71361528797132, 567.610814327608 246.08259734215957, 568.5390164470487 247.65175535499114 C569.4672185664894 249.2209133678227, 570.5778070315642 251.9675175705196, 570.499655886608 253.7411313273356 C570.4215047416518 255.51474508415163, 569.3376756832045 257.19055614669304, 568.0701095773113 258.29343789588717 C566.8025434714182 259.3963196450813, 564.5932491074251 260.23362745978625, 562.8942592512492 260.35842182250036 C561.1952693950733 260.4832161852145, 559.3871912506837 260.12310452173386, 557.8761704402561 259.0422040721718 C556.3651496298286 257.9613036226097, 554.3924577582334 255.57282222807765, 553.8281343886837 253.87301912512783 C553.263811019134 252.173216022178, 553.7262526164661 250.42231925889402, 554.4902302229581 248.84338545447272 C555.25420782945 247.26445165005143, 556.8745715651459 245.26703298737783, 558.4120000276356 244.39941629860007 C559.9494284901253 243.53179960982231, 562.6303609715773 243.74517847472168, 563.7148009978968 243.63768532180612 C564.7992410242163 243.53019216889055, 564.846447723815 243.48493545440974, 564.9186401855525 243.75445738110665" stroke="none" stroke-width="0" fill="#DAA520"></path><path d="M562.0571148769217 244.09168622228134 C563.6337579128284 243.94260466128088, 566.1752874973889 244.33410655713277, 567.4285603609242 245.55924358219812 C568.6818332244594 246.78438060726347, 569.2945997221076 249.6267208234204, 569.5767520581329 251.44250837267342 C569.8589043941582 253.25829592192642, 570.0196429923119 255.08747222606706, 569.1214743770762 256.45396887771614 C568.2233057618405 257.8204655293652, 565.8598997192257 259.14273445977574, 564.1877403667189 259.64148828256776 C562.5155810142121 260.1402421053598, 560.6901140237301 260.00810385509, 559.088518262035 259.44649181446823 C557.4869225003399 258.8848797738465, 555.4222183366991 257.81633298085535, 554.5781657965482 256.27181603883713 C553.7341132563973 254.7272990968189, 553.527977571555 251.8790567084231, 554.02420302113 250.17939016235894 C554.520428470705 248.4797236162948, 556.0874178872671 247.09868883918222, 557.5555184939984 246.07381676245222 C559.0236191007298 245.04894468572223, 562.0079221863464 244.32273994305942, 562.8328066615179 244.03015770197905 C563.6576911366894 243.73757546089868, 562.5681895962448 244.14286904528473, 562.5048253450279 244.31832331597008 M560.4668897093029 244.30893638313378 C562.1742369537587 243.84494969450745, 564.7769717524518 243.30364540919888, 566.2101608118767 244.19809967720235 C567.6433498713016 245.09255394520582, 568.4919840678481 247.85436800898964, 569.0660240658525 249.67566199115458 C569.6400640638569 251.49695597331953, 570.1313915147616 253.4843319152935, 569.6544007999033 255.12586357019194 C569.177410085045 256.76739522509035, 567.7233568013974 258.79198831797544, 566.204079776703 259.5248519205452 C564.6848027520086 260.25771552311494, 562.3241588514989 259.93200223455665, 560.5387386517369 259.5230451856106 C558.753318451975 259.1140881366646, 556.5070936439554 258.16880481845095, 555.4915585781313 257.0711096268688 C554.4760235123072 255.97341443528666, 554.3507914307347 254.6913738559963, 554.4455282567923 252.93687403611767 C554.5402650828498 251.18237421623905, 555.0259372204497 248.0078248366547, 556.0599795344766 246.54411070759718 C557.0940218485035 245.08039657853968, 560.072184743184 244.43982160310256, 560.649782140954 244.1545892617726 C561.227379538724 243.86935692044264, 559.4704967230549 244.7178754041957, 559.5255639210965 244.83271665961743" stroke="#DAA520" stroke-width="2.4" fill="none"></path></g><g><path d="M171.99957166551246 250.21793405341128 C171.99957166551246 250.21793405341128, 171.99957166551246 250.21793405341128, 171.99957166551246 250.21793405341128 M171.99957166551246 250.21793405341128 C171.99957166551246 250.21793405341128, 171.99957166551246 250.21793405341128, 171.99957166551246 250.21793405341128 M174.69126066140083 259.6944269181899 C176.85154226874766 257.71265815208653, 179.47975795142085 253.663297443019, 184.93538488576496 246.22684445099898 M172.96833298447427 260.0637520796093 C175.844660948289 257.01953005753705, 178.90949159176975 254.44121252245904, 184.79596611703857 247.89630368449377 M180.84697038634647 264.1075858101552 C183.66703151591545 262.0523772219658, 186.12074622872868 257.517643071207, 189.069840839019 253.83046338630498 M180.56177228830072 264.6894455289249 C184.1741907719034 261.5505006190986, 186.85301996704726 257.6443237834998, 188.9211313382592 255.0272244581768" stroke="none" stroke-width="1" fill="none"></path><path d="M181.82248732428494 245.89740019504922 C183.71959104637125 246.4750964290793, 187.56816803263828 248.1092868945882, 188.7858391526698 249.89954637739513 C190.00351027270133 251.68980586020206, 189.54292383742418 254.65046747329754, 189.12851404447412 256.6389570918908 C188.71410425152405 258.6274467104841, 187.5596384672977 260.4602346958771, 186.29938039496935 261.83048408895473 C185.039122322641 263.2007334820324, 183.44121741714486 264.76464607211494, 181.56696561050393 264.8604534503566 C179.692713803863 264.95626082859826, 177.05256013066355 263.789643404861, 175.05386955512378 262.4053283584047 C173.055178979584 261.02101331194837, 170.06962497831637 258.6021846557183, 169.5748221572653 256.5545631716186 C169.0800193362142 254.50694168751895, 170.9648204531475 251.89433331754216, 172.0850526288173 250.11959945380664 C173.2052848044871 248.34486559007112, 174.50630142219086 246.70489381776167, 176.29621521128414 245.90615998920543 C178.0861290003774 245.1074261606492, 181.68230536293308 245.17112589931676, 182.82453536337687 245.3271964824692 C183.96676536382066 245.48326706562162, 183.23777922432566 246.77289278378115, 183.14959521394684 246.84258348812006 M184.41296352401056 245.81681784838975 C185.97520099047975 246.4690612560055, 186.9037694929382 247.91751159455947, 187.9894892771613 249.63524157926935 C189.0752090613844 251.35297156397922, 191.39281399623596 253.94117916539304, 190.92728222934917 256.12319775664906 C190.4617504624624 258.30521634790506, 186.9861448799133 261.13837243554644, 185.1962986758406 262.72735312680544 C183.40645247176792 264.31633381806444, 182.14837361272205 265.944256651307, 180.18820500491313 265.65708190420287 C178.2280363971042 265.36990715709874, 174.83674446662022 262.46132124123, 173.43528702898703 261.0043046441805 C172.03382959135385 259.54728804713096, 172.09808875586216 258.98407306671044, 171.77946037911403 256.91498232190577 C171.4608320023659 254.8458915771011, 170.43210702259194 250.62045620248367, 171.5235167684982 248.5897601753524 C172.6149265144045 246.55906414822115, 176.01872043615492 245.00815038883687, 178.32791885455177 244.7308061591183 C180.63711727294861 244.4534619293997, 184.53859089386418 246.82962333606875, 185.37870727887932 246.9256947970409 C186.21882366389445 247.02176625801306, 183.52234436101938 245.28804224083484, 183.36861716464264 245.30723492495125" stroke="#000000" stroke-width="2" fill="none"></path></g><g><path d="M178.17010766768533 265.66801999784326 C180.2604056006696 273.2985567682649, 179.81240278330787 283.63832342566855, 180.02849297303416 294.7966909076259 M180.19557999783717 264.53353354779983 C179.38590100334986 273.3450803530474, 179.3645328469496 281.89391450345926, 180.03063590000068 294.5409973160901" stroke="#000000" stroke-width="2" fill="none"></path></g><g><path d="M181.68888121791113 295.6159229163098 C176.47248528187592 305.7673211050624, 173.5694244374187 314.4217443286474, 171.49585198113203 323.1978763395559 M180.95859073167898 295.1003136669037 C178.81600634581227 301.02841221096674, 177.16984253994062 307.85672231932347, 172.42866678201563 325.965663406411" stroke="#000000" stroke-width="2" fill="none"></path></g><g><path d="M180.15963334457896 296.098675292802 C183.58207405985777 301.46094337325144, 184.06891259431728 308.42778260236713, 188.1790303041248 326.901820305411 M179.05662853734057 294.2252717956819 C181.76923578627165 305.28196297174384, 184.39304023471897 313.84594736132254, 187.26468163728674 324.1983668725923" stroke="#000000" stroke-width="2" fill="none"></path></g><g><path d="M179.53294834668785 276.20792532271474 C174.85590436286427 284.3604134821858, 168.91204203336304 290.8927420476997, 167.81199956874715 293.4978611803223 M180.1596195041022 278.28042904075164 C174.06475594338778 283.17726783104644, 169.24792193881964 288.6592129523303, 165.08953729252363 291.8723123511683" stroke="#000000" stroke-width="2" fill="none"></path></g><g><path d="M180.46388525261088 278.37365594863667 C185.84568002127602 283.7419616332305, 191.88969312734815 290.4320274860989, 194.1562295463558 292.93204374593995 M180.69978884661816 278.77155909663065 C182.56603645307717 280.6205070683694, 186.68143041855149 283.89851488237537, 194.06900918188984 291.8266665022531" stroke="#000000" stroke-width="2" fill="none"></path></g><g><path d="M249.8817373052303 242.39412713554236 C249.8817373052303 242.39412713554236, 249.8817373052303 242.39412713554236, 249.8817373052303 242.39412713554236 M249.8817373052303 242.39412713554236 C249.8817373052303 242.39412713554236, 249.8817373052303 242.39412713554236, 249.8817373052303 242.39412713554236 M254.1995900662213 251.5091773955165 C256.8693544050635 247.1594818506338, 261.058702042527 241.5684000777382, 266.0209619966897 237.67605378945677 M254.0673346388179 251.19570113412678 C257.95853723804527 245.81482840332083, 260.5971991160798 240.83806840027344, 264.1733811691724 238.46012850745467 M258.2613568818039 257.3430485813012 C263.48113281517305 250.8349325868432, 266.41210576302007 248.256168379061, 268.7374037392909 244.59436753838457 M258.0189505287734 257.1197708155289 C260.9520721969331 253.87865363553206, 263.299253221621 252.07368507940868, 269.4066993525185 244.00825862986554" stroke="none" stroke-width="1" fill="none"></path><path d="M261.4585580868804 235.88477646388728 C263.6365990517274 235.90908657386134, 267.212112736452 236.8304743389333, 268.508045975251 238.25420790178262 C269.80397921404995 239.67794146463194, 269.31394363468945 242.44995517677796, 269.2341575196742 244.42717784098312 C269.154371404659 246.40440050518828, 269.0564046095352 248.2680671831347, 268.0293292851596 250.1175438870135 C267.00225396078395 251.96702059089233, 265.24766368564093 255.07128281549979, 263.0717055734203 255.5240380642561 C260.8957474611996 255.97679331301242, 257.1635105494119 254.11681844251223, 254.9735806118356 252.83407537955136 C252.78365067425926 251.5513323165905, 250.72925285174307 249.62683073291032, 249.93212594796236 247.82757968649096 C249.13499904418165 246.0283286400716, 249.26183019849904 243.99359027533978, 250.1908191891514 242.03856910103514 C251.11980817980375 240.0835479267305, 253.57192425463495 237.35458371577545, 255.50605989187656 236.09745264066308 C257.44019552911817 234.8403215655507, 260.37215799418243 234.47852265682963, 261.79563301260106 234.49578265036087 C263.2191080310197 234.5130426438921, 263.8504017724383 235.75067919810536, 264.0469100023885 236.2010126018505 M257.9915818526866 234.0019022532959 C259.76629341292823 233.8094250845446, 262.69380861186664 235.16119256026226, 264.80459831199 236.7352411885145 C266.91538801211334 238.30928981676672, 269.9196878444906 241.17594364532886, 270.65632005342667 243.44619402280924 C271.3929522623627 245.71644440028962, 270.3972573111857 248.4851137628264, 269.22439156560625 250.35674345339675 C268.0515258200268 252.2283731439671, 265.84312277521576 254.1203847889621, 263.6191255799501 254.67597216623145 C261.3951283846844 255.2315595435008, 258.0548325407989 254.32123498177458, 255.88040839401208 253.69026771701277 C253.70598424722525 253.05930045225097, 251.71581736077928 252.71404309796208, 250.57258069922912 250.89016857766066 C249.42934403767896 249.06629405735924, 248.83732469750493 244.83831073570025, 249.02098842471108 242.74702059520425 C249.20465215191723 240.65573045470825, 250.23609762401577 239.45720526142827, 251.67456306246604 238.3424277346847 C253.1130285009163 237.2276502079411, 256.2087674175647 236.70077038400146, 257.6517810554126 236.0583554347428 C259.0947946932605 235.41594048548413, 259.8769319408082 234.6760928755981, 260.33264488955336 234.4879380391327" stroke="#000000" stroke-width="2" fill="none"></path></g><g><path d="M259.63964801109614 253.4452072057326 C261.48214598359516 264.53066134027426, 260.94162505973907 276.242055237005, 261.5405364499822 285.7469564091487 M259.02935274724996 255.55855864865936 C260.8929366512632 264.22140442051676, 259.9559880933186 273.72566824248963, 259.90422377741334 285.4433696647512" stroke="#000000" stroke-width="2" fill="none"></path></g><g><path d="M261.06646568685886 284.0596806369188 C257.77115906140807 297.71693349264314, 255.34044532676387 307.393286535856, 251.92998371746305 315.4139353836679 M259.6805328835113 284.5877622253483 C257.45569414883914 297.2347252867599, 254.0620668868164 308.6027732355979, 252.4764159240601 314.98626842004944" stroke="#000000" stroke-width="2" fill="none"></path></g><g><path d="M259.9244879507477 285.25863208094023 C263.5244345935789 297.7036908507219, 266.78919029712387 307.035376351521, 269.60809357263815 313.7962685610984 M259.3043208420032 285.5188313724364 C263.07766780677804 294.44618224323403, 263.99020351486666 302.1523168699418, 267.2147995967611 314.20020842685693" stroke="#000000" stroke-width="2" fill="none"></path></g><g><path d="M259.05548487555404 268.2220235571438 C254.54922883842838 274.7266433751663, 248.1091847080078 279.76778722621077, 245.86893372740653 281.481511820103 M259.78459378780934 267.841127201413 C257.058105713209 270.68484100426366, 254.81696920622008 274.5930644601162, 245.51978646484358 282.9215595276537" stroke="#000000" stroke-width="2" fill="none"></path></g><g><path d="M259.79530479718943 268.7028309912569 C263.86702375996157 271.2677894167591, 263.8933341263068 272.41506390616047, 274.8608367866124 282.3542090813169 M260.5709844047668 268.63092028466644 C265.87250117203223 273.7218380512771, 269.8168227873569 278.65108703877775, 274.58064268299586 281.751744183253" stroke="#000000" stroke-width="2" fill="none"></path></g><g><path d="M334.70590493684915 251.20501442991736 C334.70590493684915 251.20501442991736, 334.70590493684915 251.20501442991736, 334.70590493684915 251.20501442991736 M334.70590493684915 251.20501442991736 C334.70590493684915 251.20501442991736, 334.70590493684915 251.20501442991736, 334.70590493684915 251.20501442991736 M333.2028883456967 264.75863068616496 C335.9271591782466 259.54206236275576, 342.7006089241249 255.37622068020218, 343.95877489088167 252.4119870633272 M333.48511695674085 265.3323818464501 C336.488342259849 260.48043852046476, 341.34402029532566 256.7081611663359, 343.85278149535907 252.45938174491337 M339.3943044148136 269.9555726682301 C343.5507202883695 265.0792360329336, 346.08140171117935 263.04986854513163, 350.2403374093958 258.60807071799474 M338.9923544847344 270.5870692036351 C342.54149128179034 266.5547603526456, 346.5813216990678 262.10899346912817, 350.1250403928704 258.3171940651449" stroke="none" stroke-width="1" fill="none"></path><path d="M334.52561990779344 251.412408631638 C336.25243460771924 250.44654074712497, 339.9403705166706 249.91250163759284, 342.17454232789106 250.25166585278467 C344.4087141391115 250.5908300679765, 346.6081844363863 251.62096986992105, 347.930650775116 253.44739392278902 C349.25311711384575 255.27381797565698, 350.00131532591587 258.8857104350609, 350.10934036026947 261.21021016999254 C350.2173653946231 263.53470990492417, 350.064341116061 265.9951315171464, 348.5788009812375 267.3943923323789 C347.09326084641407 268.79365314761145, 343.397203741611 269.18329156266236, 341.19609955132887 269.60577506138776 C338.99499536104673 270.02825856011316, 337.0473905701835 270.9007886947852, 335.3721758395446 269.92929332473125 C333.69696110890567 268.9577979546773, 331.8014253856056 266.03281656052644, 331.1448111674955 263.7768028410639 C330.4881969493854 261.52078912160135, 330.4445915957656 258.6813658553209, 331.43249053088397 256.393211007956 C332.42038946600235 254.1050561605911, 336.0266195618175 251.07531634173756, 337.07220477820584 250.04787375687448 C338.1177899945942 249.0204311720114, 337.7051135313119 249.9666771415223, 337.7060018292142 250.2285554987774 M338.6227338399616 249.70794393795168 C340.4592098809049 249.1342361949746, 343.615618144273 249.9163516121417, 345.3750940750159 251.315201779976 C347.1345700057588 252.7140519478103, 348.65955864180194 255.90293995223595, 349.17958942441896 258.1010449449575 C349.699620207036 260.29914993767903, 349.0558022386433 262.5530190007644, 348.495278770718 264.5038317363053 C347.9347553027927 266.4546444718462, 347.4102375061138 268.681965561515, 345.81644861686704 269.80592135820297 C344.2226597276203 270.9298771548909, 341.3220547213279 271.62878133720756, 338.9325454352376 271.2475665164329 C336.5430361491473 270.8663516956583, 332.88914581710645 269.51629548695576, 331.4793929003252 267.51863243355535 C330.06963998354394 265.52096938015495, 330.28636641972116 261.8949880887581, 330.47402793455 259.26158819603035 C330.66168944937885 256.6281883033026, 331.10045338791923 253.17110690495113, 332.6053619892982 251.71823307718864 C334.1102705906772 250.26535924942615, 338.34271319656466 250.71204848509643, 339.5034795428238 250.54434522945544 C340.66424588908296 250.37664197381446, 339.6182049008144 250.70224644531038, 339.56996006685324 250.71201354334264" stroke="#000000" stroke-width="2" fill="none"></path></g><g><path d="M340.4449848359476 269.12882321570095 C338.48019152025483 283.07892099900585, 340.7619963856677 293.8487682840211, 341.0830105051728 300.10249204767337 M340.67966064647044 269.4387641599787 C340.0116629820625 275.51406820438973, 339.8101855469183 282.2011348854782, 339.77190463835575 300.2928833005685" stroke="#000000" stroke-width="2" fill="none"></path></g><g><path d="M341.33924642229096 298.81532406388015 C335.9181020656119 309.6585481835926, 334.22056569139505 319.5651274745626, 330.33266787338147 330.49887559022363 M339.84200342237796 299.90357351128387 C337.8461307211411 309.4055869119978, 334.51593586109914 320.14055476745114, 332.0207098388071 330.37274792887246" stroke="#000000" stroke-width="2" fill="none"></path></g><g><path d="M340.925411391516 300.7350677912443 C344.02584709320286 312.32668001811203, 345.2907342651655 320.3074305948876, 349.8071903997069 330.8218210145805 M340.957212098215 300.71514420035055 C342.3960665904207 309.7534135010102, 345.0721547636568 321.1778673731456, 348.96337444991434 330.0706934047281" stroke="#000000" stroke-width="2" fill="none"></path></g><g><path d="M340.1474105909455 282.34466444689224 C336.87662137126614 286.09068841340417, 334.18710901112667 288.86361758291736, 325.47108523696096 297.7089386817118 M339.0556966936701 282.43967103621844 C334.76260696082136 287.8430211754817, 332.0536992243968 292.4853095835774, 326.70477886575884 297.3605106362425" stroke="#000000" stroke-width="2" fill="none"></path></g><g><path d="M341.1349553134894 281.3831098969977 C344.9779001821344 288.43080862653903, 347.2079036627533 292.9385899843092, 354.651952732399 298.49780355410087 M339.5242209963462 282.549513707301 C343.6246960288918 286.3892391552415, 349.22834226212575 291.40333167862855, 354.91789194375065 297.79108233587556" stroke="#000000" stroke-width="2" fill="none"></path></g><text x="400" y="560" text-anchor="middle" font-family="sans-serif" font-size="16" fill="#222" font-style="italic">"The payment didn’t add to their motivation — it substituted for it."</text></svg>