<?xml version="1.0" encoding="UTF-8"?>
<svg width="800" height="600" viewBox="0 0 800 600" xmlns="http://www.w3.org/2000/svg"><rect width="800" height="600" fill="#FFFFFF"></rect><g><path d="M99.44039666412979 419.2978956289614 C236.36421776523883 421.099554424398, 373.9953074726626 420.5794551029144, 699.3247007792629 421.0265665275743 M100.50575748466701 419.5312067126815 C338.46015807142237 421.6178821733184, 576.5338547224627 422.3104089561272, 699.5400302593425 420.41734336661415" stroke="#000000" stroke-width="2" fill="none"></path></g><g><path d="M243.19840072151703 304.16005393974774 C243.19840072151703 304.16005393974774, 243.19840072151703 304.16005393974774, 243.19840072151703 304.16005393974774 M243.19840072151703 304.16005393974774 C243.19840072151703 304.16005393974774, 243.19840072151703 304.16005393974774, 243.19840072151703 304.16005393974774 M242.7177971963324 319.3170540839435 C245.19693710139387 314.3241736231036, 250.57985840372828 308.3894320563744, 252.26348727691013 304.5512754192814 M240.7916721339663 317.9417126068238 C245.65373793796522 313.481351825053, 251.34366238915408 306.6741553666275, 254.53666520678507 304.131959783838 M247.29895407100565 321.4427259147012 C250.711962177902 318.3961602832276, 253.84252512520615 314.4957142666906, 262.9858026859664 307.3769589023673 M248.0605826099108 322.9372182608196 C252.22578779705168 319.36442367288237, 255.42946639240873 314.5748505102472, 261.4463040128575 306.96280467780724" stroke="none" stroke-width="1" fill="none"></path><path d="M250.1232944620004 300.91881640782873 C252.52051835497053 300.9011555698282, 255.19762792381528 301.4227868985056, 257.1401966320433 303.08394065574817 C259.0827653402713 304.74509441299074, 261.23739029416595 308.4788011213671, 261.7787067113685 310.88573895128434 C262.32002312857105 313.2926767812016, 261.71370924788613 315.36860763334676, 260.3880951352586 317.5255676352517 C259.06248102263106 319.6825276371567, 256.0714254995561 323.12039238838696, 253.82502203560333 323.8274989627143 C251.5786185716506 324.5346055370416, 249.12040067995378 322.6776811958441, 246.90967435154218 321.7682070812158 C244.69894802313058 320.85873296658747, 241.8615230270708 320.46256412381405, 240.56066406513384 318.37065427494434 C239.25980510319687 316.27874442607464, 238.6125990613056 311.645344198365, 239.10452057992035 309.2167479879977 C239.5964420985351 306.78815177763033, 241.37040647432477 305.07989889022383, 243.51219317682242 303.79907701274016 C245.65397987932008 302.5182551352565, 249.99734669462157 301.84034628654047, 251.95524079490625 301.5318167230955 C253.91313489519092 301.22328715965057, 255.35016266348663 301.99452893041223, 255.25955777853048 301.94789963207063 M248.63038214916463 299.48476232554157 C250.9685648765389 298.86278915828683, 253.89473100834738 300.5756538882375, 256.1425427699973 302.3350368076331 C258.39035453164723 304.0944197270287, 261.28367967664906 307.3592712914641, 262.11725271906414 310.04105984191494 C262.9508257614792 312.7228483923658, 262.22106202123007 316.5777256622813, 261.14398102448786 318.4257681103382 C260.06690002774565 320.2738105583951, 258.17223946579355 320.12412719063514, 255.65476673861096 321.1293145302565 C253.13729401142837 322.1345018698779, 248.73726792290648 324.8939006064814, 246.03914466139236 324.4568921480665 C243.34102139987823 324.01988368965164, 240.5316985832616 320.9150579817091, 239.46602716952628 318.50726377976724 C238.40035575579097 316.0994695778254, 239.3773202139348 312.66877596328675, 239.6451161789805 310.0101269364155 C239.91291214402617 307.3514779095442, 239.49732926743133 304.34333330364586, 241.07280295980038 302.55536961853954 C242.64827665216944 300.7674059334332, 247.6122487479235 299.3729848832138, 249.09795833319478 299.2823448257775 C250.58366791846606 299.1917047683412, 249.9832877549838 301.8357867841747, 249.98706047142815 302.01152927392184" stroke="#000000" stroke-width="2" fill="none"></path></g><g><path d="M248.45664200809918 332.01325924156833 C250.53090514967857 347.8605319621099, 250.55449807059242 358.7836031500647, 254.30001959420747 369.38693795718876 M250.7183252707597 334.84330490534285 C250.6622134675003 347.4762852322207, 252.96065455630026 362.35523654576224, 253.56768353943383 370.510313026868" stroke="#000000" stroke-width="2" fill="none"></path></g><g><path d="M252.50278097924016 369.1995350288841 C250.36355272323232 382.7813557148922, 243.8525954463431 398.98672402933744, 243.15751845447127 404.58094510490315 M253.83204722989458 370.0907487736746 C249.58404825166886 378.05714903301595, 247.7547941978718 385.8991034950238, 242.31722196496844 404.6454965710028" stroke="#000000" stroke-width="2" fill="none"></path></g><g><path d="M251.73547843781589 369.3128622238648 C257.5823993358857 378.87306255338984, 260.3546439341729 392.5915069638987, 262.02873258339264 404.9010652378094 M252.43069871661217 369.2150648592032 C256.09524445692006 380.75974116072274, 259.0702419757698 390.44508100290494, 264.98465043302906 404.2447982813991" stroke="#000000" stroke-width="2" fill="none"></path></g><g><path d="M251.05120309443572 345.8025917849273 C245.15207858601136 348.00480439083253, 241.08238057167227 353.2358010951238, 235.5750804997322 361.7477949147284 M249.92983045342297 344.0479021521933 C246.9696836172212 349.42950444620277, 242.92813636729375 352.88021774367417, 235.27357148301215 360.7015636715735" stroke="#000000" stroke-width="2" fill="none"></path></g><g><path d="M235.1874108273788 359.38846647112973 C239.39521028912236 361.5323394100088, 243.44198700784017 364.23191229372566, 244.123722200563 365.72873931004574 M235.52229875185546 360.0734771053764 C239.15644157671036 362.06154405430453, 242.63170134780734 363.2841421433446, 244.92573355777623 364.9265832300595" stroke="#000000" stroke-width="2" fill="none"></path></g><g><path d="M248.86199969885527 343.23866012649916 C255.29006960952862 347.4790706047817, 258.80740770674043 351.89266381554467, 267.6883303967685 359.79212316512877 M249.50509322349396 345.1388765830295 C254.43102711997142 349.92349676364336, 259.4198536305083 353.3113616036647, 267.9004991479969 360.30387810422474" stroke="#000000" stroke-width="2" fill="none"></path></g><g><path d="M268.770049840545 360.07744793253573 C265.04024510584173 360.6129577415489, 261.69984762075154 363.6347995132457, 257.65061994825373 365.32798500645646 M267.9023490807428 360.2628591490235 C265.72607335093966 361.08979159921455, 264.01724580927504 362.1801054135119, 258.14446672228314 365.28782040724803" stroke="#000000" stroke-width="2" fill="none"></path></g><g><path d="M96.73843009742868 198.04455174885464 C96.73843009742868 198.04455174885464, 96.73843009742868 198.04455174885464, 96.73843009742868 198.04455174885464 M96.73843009742868 198.04455174885464 C96.73843009742868 198.04455174885464, 96.73843009742868 198.04455174885464, 96.73843009742868 198.04455174885464 M97.78959006111302 202.75769573753644 C97.91892282866293 200.2238532866708, 98.69566235350514 198.91725522717854, 102.59872753713292 195.75782476756305 M96.88048946810203 202.6236830777153 C98.67817031760276 199.90363646315222, 100.60322422959656 198.26802515430722, 102.22268425097614 195.98470645823522 M99.5622475237854 203.5199734366799 C101.1131700699137 201.59267106912105, 102.62478348067276 200.07818888935546, 103.83642164729818 198.76307716720453 M99.73171464735724 203.5030713948165 C100.88610502277372 202.27551338044216, 101.5451047217033 201.72039671855157, 103.6856900398309 198.9362238513817" stroke="none" stroke-width="0.4" fill="none"></path><path d="M101.9476470692315 195.9445878666209 C102.62388292709977 196.13259639408267, 102.28840484918032 197.43563889305412, 102.49435372935496 198.25407046237171 C102.70030260952959 199.0725020316893, 103.1138273266667 200.14791133873163, 103.18334035027931 200.8551772825265 C103.25285337389192 201.5624432263214, 103.48768890459138 201.8074492196616, 102.9114318710306 202.497666125141 C102.33517483746982 203.18788303062038, 100.45499626375201 205.01852726937085, 99.72579814891463 204.99647871540282 C98.99660003407726 204.97443016143478, 99.22423669496895 202.96874216231907, 98.53624318200632 202.36537480133285 C97.84824966904368 201.76200744034662, 95.95196423572256 202.03372625172042, 95.59783707113881 201.37627454948552 C95.24370990655507 200.7188228472506, 95.87960467320012 199.18649874592896, 96.41148019450381 198.42066458792337 C96.9433557158075 197.65483042991778, 97.71760156410795 197.1669869403269, 98.78909019896093 196.781269601452 C99.86057883381392 196.39555226257713, 102.27970290185146 196.09730168304327, 102.84041200362174 196.106360554674 C103.40112110539201 196.11541942630475, 102.19924469808888 196.75158246039737, 102.15334480958256 196.83562283123655 M102.30082211000885 196.36538129544977 C103.0793413389623 196.85549336912604, 103.77430009794493 198.35890733887123, 104.08172547070482 198.89826812485128 C104.38915084346472 199.43762891083134, 104.30153583046078 199.05757721686194, 104.14537434656823 199.60154601133007 C103.98921286267569 200.1455148057982, 103.54332032326649 201.26707384106973, 103.14475656734959 202.16208089165997 C102.74619281143269 203.0570879422502, 102.82784064680972 204.78830057734476, 101.75399181106688 204.9715883148715 C100.68014297532405 205.15487605239824, 97.36892906611112 203.71972183549897, 96.70166355289254 203.26180731682035 C96.03439803967396 202.80389279814173, 97.69803944305038 203.12693462535864, 97.75039873175542 202.22410120279972 C97.80275802046047 201.3212677802408, 96.97537070695951 198.8267704515299, 97.01581928512284 197.8448067814668 C97.05626786328618 196.86284311140366, 97.53910680960394 196.83573071862207, 97.99309020073544 196.33231918242106 C98.44707359186694 195.82890764622005, 99.1044904140412 194.825342905071, 99.73971963191185 194.82433756426062 C100.37494884978251 194.82333222345022, 101.57652173801904 195.85774676385978, 101.80446550795939 196.32628713755872" stroke="#000000" stroke-width="0.8" fill="none"></path></g><g><path d="M99.06174896400026 208.6919424225152 C99.27840403567342 211.589995362084, 99.86074788588743 213.1663574046332, 99.40339740669951 220.76672961037752 M99.64736629359723 207.8917174134228 C100.05409795065532 210.43412408671958, 100.09545940972527 213.63096645545195, 99.5999515129095 220.18789502815787" stroke="#000000" stroke-width="0.8" fill="none"></path></g><g><path d="M176.0569944147903 198.09445211842225 C176.0569944147903 198.09445211842225, 176.0569944147903 198.09445211842225, 176.0569944147903 198.09445211842225 M176.0569944147903 198.09445211842225 C176.0569944147903 198.09445211842225, 176.0569944147903 198.09445211842225, 176.0569944147903 198.09445211842225 M176.91594463622454 202.08490969921667 C177.04584310323114 200.6259184021781, 178.966734675786 199.85969855842572, 181.54400488686193 197.5695268635358 M176.21478213121208 202.24924677675008 C177.40972346417033 201.308322921752, 178.36953238886457 199.6791417189021, 180.8518317599272 197.31000067117608 M179.37988228980169 204.20594752893683 C180.20316804444423 201.8706948300166, 182.88342480774773 199.2415639711122, 184.47899256722513 198.20610210589305 M179.30255352413803 203.59104538159747 C180.76723878496009 201.8298347393343, 182.37506325930568 199.29673624477653, 183.57704435976189 198.38481248856604" stroke="none" stroke-width="0.4" fill="none"></path><path d="M179.10411611660047 195.14690502699742 C179.8368330213262 195.0902518066907, 179.74170144438403 196.4774143063547, 180.48192544292732 196.9777502418426 C181.2221494414706 197.47808617733054, 182.98059981512992 197.64988581640023, 183.54546010786018 198.1489206399249 C184.11032040059044 198.6479554634496, 184.12853495136767 199.25837414148089, 183.87108719930893 199.97195918299073 C183.6136394472502 200.68554422450057, 182.6259476086412 201.74501377681872, 182.00077359550775 202.43043088898403 C181.3755995823743 203.11584800114935, 181.01819387732297 203.9080406185157, 180.1200431205082 204.0844618559825 C179.22189236369343 204.2608830934493, 177.39332749571136 203.95939787929353, 176.61186905461904 203.4889583137849 C175.8304106135267 203.01851874827628, 175.5552942461823 202.12464615021847, 175.4312924739543 201.26182446293072 C175.3072907017263 200.39900277564297, 175.26428725599283 199.10416815972917, 175.86785842125087 198.31202819005836 C176.47142958650892 197.51988822038754, 178.46385919717912 196.91534322054648, 179.05271946550263 196.50898464490575 C179.64157973382615 196.10262606926503, 179.44386725477867 195.937008240976, 179.401020031192 195.87387673621404 M179.08996714007307 194.9917696517907 C179.9486212320831 194.5009490057992, 181.00883856873205 194.8626821481362, 181.81911201789035 195.58935621054061 C182.62938546704865 196.31603027294503, 183.67937322085373 198.2971639196062, 183.95160783502286 199.35181402621714 C184.22384244919198 200.4064641328281, 183.62244123158678 200.9957514472402, 183.45251970290514 201.91725685020634 C183.2825981742235 202.8387622531725, 183.8333680314007 204.6455766840425, 182.93207866293292 204.88084644401403 C182.03078929446514 205.11611620398554, 179.05505516573092 203.50119615163143, 178.04478349209833 203.32887541003535 C177.03451181846575 203.15655466843927, 177.3202405182272 204.20303937818636, 176.87044862113734 203.8469219944376 C176.4206567240475 203.49080461068883, 175.4914629854407 202.34071108274847, 175.34603210955916 201.1921711075428 C175.20060123367762 200.04363113233714, 175.33625802126568 197.82190104890242, 175.997863365848 196.9556821432036 C176.6594687104303 196.0894632375048, 178.91307056750517 195.91919595722524, 179.315664177053 195.99485767335 C179.71825778660084 196.07051938947475, 178.31442478521012 197.52353345987024, 178.413425023135 197.40965243995217" stroke="#000000" stroke-width="0.8" fill="none"></path></g><g><path d="M180.2482986301002 208.5563590202939 C179.6085236349659 211.725654044963, 180.61001443837958 216.19617061792692, 179.36571983808182 220.811882995828 M180.26187941255776 207.68046755173785 C180.4256810253966 210.89542352092062, 180.13699972283646 213.70856847253796, 180.17604123947928 220.3027420075924" stroke="#000000" stroke-width="0.8" fill="none"></path></g><g><path d="M256.1149872874363 197.46211493131244 C256.1149872874363 197.46211493131244, 256.1149872874363 197.46211493131244, 256.1149872874363 197.46211493131244 M256.1149872874363 197.46211493131244 C256.1149872874363 197.46211493131244, 256.1149872874363 197.46211493131244, 256.1149872874363 197.46211493131244 M256.943680885413 201.23854170603533 C258.06235112558534 199.89907136551776, 259.17380908208287 198.798806175046, 260.43270490092243 197.74708668434005 M256.45229086638994 201.5263590819849 C257.4389692552001 199.83094317860505, 258.8653838339572 198.44147017084993, 260.60778723553716 197.2064725821226 M258.23201302698635 203.81543113525154 C260.4521811997866 201.5510711609298, 262.50336208555564 198.98526896691845, 264.15780030881746 198.40680110065603 M258.6879496857792 203.60262305569216 C260.71148566895704 201.1820257242056, 262.60492495341833 198.79608925148182, 264.1154415115117 197.34780648213516" stroke="none" stroke-width="0.4" fill="none"></path><path d="M261.60180993705853 197.0974325556084 C262.25883281458 197.13367014266623, 263.04947548213494 196.65000956767886, 263.56257066749185 197.3373729021117 C264.0756658528488 198.02473623654453, 264.9945510044929 200.10405192583414, 264.6803810492001 201.22161256220534 C264.3662110939073 202.33917319857653, 262.5737454099317 203.68524688936412, 261.67755093573516 204.04273672033887 C260.7813564615386 204.4002265513136, 260.12247062731734 203.56545591679415, 259.30321420402083 203.3665515480537 C258.4839577807243 203.16764717931326, 257.4132521272341 203.20578478753825, 256.762012395956 202.84931050789626 C256.1107726646779 202.49283622825428, 255.5400495002039 202.08365678565596, 255.39577581635217 201.2277058702018 C255.25150213250043 200.37175495474762, 255.42456028261702 198.65835050136917, 255.89637029284563 197.7136050151712 C256.3681803030742 196.76885952897322, 257.2607237957938 195.84129275418894, 258.22663587772377 195.559232953014 C259.1925479596537 195.27717315183907, 261.10237167704526 195.76437787538927, 261.6918427844254 196.02124620812148 C262.2813138918055 196.2781145408537, 261.8431157429685 197.1061710755319, 261.76346252200443 197.1004429494073 M258.07775121656516 196.18019857660784 C258.71759131330066 196.32329097904332, 260.39065642115605 197.28289247088685, 261.56508033391077 197.5755201445886 C262.7395042466655 197.86814781829037, 264.54926459443135 197.11388940897461, 265.12429469309336 197.93596461881845 C265.6993247917554 198.75803982866228, 265.8000515032416 201.8014743743763, 265.0152609258828 202.5079714036515 C264.23047034852397 203.2144684329267, 261.5870060316215 201.80183565858562, 260.4155512289404 202.17494679446963 C259.24409642625926 202.54805793035365, 258.73168275085595 204.62371917181602, 257.9865321097959 204.7466382189557 C257.2413814687359 204.86955726609537, 256.34931113933845 203.5182598098849, 255.9446473825803 202.91246107730765 C255.53998362582217 202.3066623447304, 255.57240397712988 202.24935214010787, 255.55854956924708 201.1118458234922 C255.54469516136427 199.9743395068765, 255.31573869960363 196.99774358455045, 255.86152093528347 196.08742317761354 C256.4073031709633 195.17710277067664, 258.2919817820689 195.82186253696796, 258.8332429833261 195.6499233818707 C259.3745041845833 195.47798422677346, 258.9371647580235 194.7740853277661, 259.10908814282664 195.05578824703002" stroke="#000000" stroke-width="0.8" fill="none"></path></g><g><path d="M260.47219551501854 207.56703308234995 C259.85959295840655 212.28002586268576, 260.05821706062244 214.37442026074103, 260.4314847470431 220.65537394211833 M260.0258433369523 208.2245433494216 C259.5457700558314 211.34202147941667, 259.58290867361103 214.4985782631678, 260.19023733253545 220.05572227589948" stroke="#000000" stroke-width="0.8" fill="none"></path></g><g><path d="M336.5205049518255 197.13187643672734 C336.5205049518255 197.13187643672734, 336.5205049518255 197.13187643672734, 336.5205049518255 197.13187643672734 M336.5205049518255 197.13187643672734 C336.5205049518255 197.13187643672734, 336.5205049518255 197.13187643672734, 336.5205049518255 197.13187643672734 M336.5774671104519 201.61970516680626 C337.9065207021103 199.4320893593842, 339.1554440465762 198.32552697267548, 340.3244535665284 196.8070918565076 M336.6404368867501 201.1195490254135 C337.41796863307513 200.17844228762277, 338.3511622173191 199.2151289197561, 340.92882186141037 196.59285544799218 M338.6636435321932 204.83523718216128 C341.2067638679201 200.62730106769442, 343.3117667139283 197.89028061304555, 344.17349975832946 197.16104991617027 M338.8365143709174 203.7528799530939 C340.66691947652185 201.88462184504817, 342.78041559722425 199.12342013460156, 344.34532792197945 196.95842188409407" stroke="none" stroke-width="0.4" fill="none"></path><path d="M341.6457165382049 195.8701491532863 C342.46130010515486 195.8534736761812, 343.7221395036642 196.41005852636977, 343.98973477702657 197.30372510741424 C344.25733005038893 198.1973916884587, 343.5015766557633 200.19530812963927, 343.2512881783792 201.23214863955306 C343.00099970099507 202.26898914946685, 342.92675891151407 202.98746548291805, 342.48800391272204 203.52476816689702 C342.04924891393 204.06207085087598, 341.56775517662277 204.49400907934842, 340.61875818562686 204.45596474342682 C339.66976119463095 204.41792040750522, 337.65387092283515 204.0124112822034, 336.79402196674664 203.2965021513674 C335.9341730106581 202.5805930205314, 335.5334534232071 201.15550396169925, 335.4596644490959 200.16050995841087 C335.3858754749847 199.1655159551225, 335.78763235401834 197.98823239884456, 336.35128812207955 197.32653813163716 C336.91494389014076 196.66484386442977, 337.76638934322705 196.3405661955473, 338.8415990574632 196.1903443551665 C339.9168087716994 196.0401225147857, 342.01160228029397 196.34675543607142, 342.80254640749644 196.4252070893524 C343.5934905346989 196.50365874263338, 343.8830350550324 196.65269066111037, 343.58726382067795 196.6610542748523 M337.3457332912476 197.48427843915323 C337.97903961564856 197.13581327483323, 338.82358861626125 194.93523497551755, 339.7373808938631 195.0284804350153 C340.6511731714649 195.12172589451305, 342.28524157367605 197.2827361416987, 342.82848695685846 198.0437511961398 C343.37173234004086 198.80476625058088, 343.1029462157798 198.77858090162005, 342.99685319295753 199.5945707616619 C342.89076017013525 200.41056062170378, 342.7827247561409 202.1983549866323, 342.19192881992467 202.93969035639105 C341.60113288370843 203.6810257261498, 340.33748161754164 204.19848359840833, 339.4520775756601 204.04258298021455 C338.56667353377856 203.88668236202076, 337.55188390343596 202.520640967374, 336.87950456863535 202.0042866472283 C336.20712523383474 201.4879323270826, 335.5740419554355 201.30334277224014, 335.41780156685655 200.94445705934038 C335.2615611782776 200.58557134644062, 335.4151340343555 200.36150964832663, 335.94206223716174 199.85097236982966 C336.46899043996797 199.3404350913327, 338.38116308403113 198.4532388080259, 338.57937078369383 197.8812333883586 C338.77757848335654 197.3092279686913, 336.9606648496178 196.38010054170735, 337.13130843513807 196.41893985182574" stroke="#000000" stroke-width="0.8" fill="none"></path></g><g><path d="M340.24169902843704 207.20580024358134 C340.770948780793 211.4466470846631, 340.3322601616271 214.67122964952523, 340.8101098997973 219.47990299772871 M340.2319716832333 208.29260838016612 C339.56109931619994 212.28471244910423, 340.1477749739556 216.65348866132973, 339.71726880589745 220.16927621276955" stroke="#000000" stroke-width="0.8" fill="none"></path></g><g><path d="M416.9818093745832 198.17514562468648 C416.9818093745832 198.17514562468648, 416.9818093745832 198.17514562468648, 416.9818093745832 198.17514562468648 M416.9818093745832 198.17514562468648 C416.9818093745832 198.17514562468648, 416.9818093745832 198.17514562468648, 416.9818093745832 198.17514562468648 M417.26848132538646 202.788217676082 C418.144582810317 200.71130729885962, 420.2107628090008 199.67098837039606, 420.7698098006828 197.85102892007714 M416.3780814085936 203.2053590838301 C418.07276053090004 201.05693731044752, 419.8656393454729 199.389600476976, 421.2703870920523 197.6177913144256 M420.35224434858327 203.43680755578893 C421.4283254276889 202.5001455880902, 423.28399263344807 200.94392935422823, 423.70877461863086 199.51686285882633 M420.1327775127252 203.62198622332417 C421.5587285790909 202.4173480126273, 422.5738362902628 201.40080314685602, 424.2612616694925 199.02736546615785" stroke="none" stroke-width="0.4" fill="none"></path><path d="M419.6167263553595 196.76758956879993 C420.58903285256577 197.043041565189, 422.50471564349226 197.3462672543269, 423.33545019657276 197.78993791991613 C424.16618474965327 198.23360858550535, 424.6790747439747 198.81185427130902, 424.6011336738425 199.42961356233533 C424.52319260371036 200.04737285336165, 423.6059749716104 200.79986653907807, 422.86780377577975 201.49649366607412 C422.1296325799491 202.19312079307016, 421.086526941189 203.1448846453121, 420.1721064988586 203.6093763243116 C419.25768605652826 204.0738680033111, 418.13734567762174 204.69158061369654, 417.38128112179743 204.28344374007114 C416.6252165659731 203.87530686644573, 415.6574182549869 202.23023276588168, 415.63571916391277 201.16055508255923 C415.6140200728386 200.09087739923677, 416.77486760487415 198.59003201001826, 417.25108657535264 197.86537764013636 C417.72730554583114 197.14072327025445, 417.87918491282323 197.16249374800708, 418.4930329867838 196.81262886326772 C419.1068810607444 196.46276397852836, 420.59857566412416 195.68574650855234, 420.93417501911614 195.76618833170014 C421.2697743741081 195.84663015484793, 420.6538875203537 197.09037058986854, 420.5066291167357 197.29527980215448 M421.2600033847879 194.7269185879601 C422.14881679297616 194.87518463623573, 421.8135336508051 196.4172446919008, 422.4060247519665 197.12161200492983 C422.99851585312797 197.82597931795885, 424.84807834461947 197.90640146560006, 424.81494999175663 198.95312246613418 C424.7818216388938 199.9998434666683, 422.7415473526288 202.64785512521752, 422.20725463478954 203.4019380081346 C421.67296191695027 204.1560208910517, 422.3458596165327 203.26470383620767, 421.60919368472105 203.4776197636367 C420.8725277529094 203.69053569106575, 418.8466497224547 204.85331347531348, 417.7872590439196 204.67943357270886 C416.72786836538455 204.50555367010423, 415.3394857207944 203.49756975142188, 415.2528496135106 202.4343403480089 C415.16621350622677 201.37111094459593, 417.0102936887117 199.29173190056858, 417.26744240021674 198.300057152231 C417.52459111172175 197.30838240389343, 416.0019257317725 197.01446445372864, 416.7957418825405 196.48429185798346 C417.5895580333085 195.9541192622383, 421.55395992546687 195.0591258113022, 422.03033930482474 195.11902157775995 C422.5067186841826 195.1789173442177, 419.6597174734343 196.36282983695162, 419.6540181586875 196.84366645672986" stroke="#000000" stroke-width="0.8" fill="none"></path></g><g><path d="M419.71314430129826 208.3694940112849 C420.5751078921107 209.60012598974734, 420.82999944248934 213.10740171640285, 419.7641071230333 219.1946375147057 M420.46370479730143 208.47235807405048 C420.00333981316055 211.29765548666072, 419.5562765497139 215.21449750985894, 419.5243682226047 219.5617807816865" stroke="#000000" stroke-width="0.8" fill="none"></path></g><g><path d="M496.75768922414454 197.29757132804394 C496.75768922414454 197.29757132804394, 496.75768922414454 197.29757132804394, 496.75768922414454 197.29757132804394 M496.75768922414454 197.29757132804394 C496.75768922414454 197.29757132804394, 496.75768922414454 197.29757132804394, 496.75768922414454 197.29757132804394 M496.5088190211414 201.5123193054579 C498.4830592505013 200.1169541106096, 500.4552674804743 198.0801722646597, 500.66777761044597 197.14775553617784 M497.2766987183483 201.61749954130272 C498.37203574234235 200.44970048616048, 499.39832070653074 198.81707519025238, 501.23840412634195 196.88424516902512 M497.3365350225397 205.4732821105097 C499.20199157039065 202.6131454901247, 500.0864970879675 202.4375491596164, 502.86180533874216 198.1849813263529 M497.71481404879853 205.17820955129554 C500.1976521451239 202.67571281922682, 501.71917492893124 200.37229963214284, 502.8719880914063 199.26358099593534" stroke="none" stroke-width="0.4" fill="none"></path><path d="M499.11467653226606 196.2055082101162 C499.70763574000813 195.8871195310576, 499.592235092528 195.7096984582838, 500.22724692798437 196.085398270282 C500.8622587634407 196.46109808228022, 502.290367897256 197.72174113556724, 502.9247475450041 198.4597070821055 C503.5591271927522 199.19767302864375, 503.9870485293259 199.92323623364246, 504.033524814473 200.5131939495116 C504.0800010996202 201.10315166538072, 503.8825902956814 201.31799167135742, 503.20360525588717 201.9994533773203 C502.52462021609296 202.68091508328317, 500.954598594951 204.21902340671227, 499.95961457570775 204.60196418528886 C498.9646305564645 204.98490496386546, 497.7556133040149 204.78122086721925, 497.2337011404276 204.29709804877984 C496.71178897684035 203.81297523034044, 496.92361916562294 202.84524552465246, 496.82814159418405 201.69722727465248 C496.73266402274515 200.5492090246525, 496.24650272945223 198.3495573423624, 496.66083571179433 197.40898854877997 C497.07516869413644 196.46841975519754, 498.7509709787243 196.34527644335913, 499.3141394882367 196.05381451315782 C499.87730799774914 195.7623525829565, 500.0087368867829 195.44765922426893, 500.0398467688689 195.66021696757215 M498.84172046329115 195.50250262524585 C499.14304590223 195.30218241386504, 498.67017028353774 195.33913653659621, 499.4646233977472 195.75360419764507 C500.2590765119566 196.16807185869393, 502.97981075938446 197.22344811656228, 503.6084391485477 197.98930859153896 C504.2370675377109 198.75516906651563, 503.62157326812564 199.75591996244435, 503.2363937327264 200.34876704750522 C502.8512141973272 200.9416141325661, 502.005833421295 201.06254294551195, 501.29736193615213 201.54639110190416 C500.58889045100926 202.03023925829638, 499.55447278166844 203.0598501831862, 498.9855648218693 203.25185598585858 C498.4166568620701 203.44386178853097, 498.1732744252252 203.0827241772217, 497.8839141773572 202.6984259179385 C497.5945539294892 202.31412765865528, 497.41668441108857 201.50134667114938, 497.2494033346614 200.94606643015925 C497.0821222582342 200.39078618916912, 496.5973721710678 200.01005556355398, 496.8802277187943 199.36674447199766 C497.1630832665208 198.72343338044135, 498.4962081888028 197.7200466275885, 498.9465366210206 197.0861998808213 C499.39686505323834 196.45235313405414, 499.67811984591174 195.77944953166133, 499.5821983121007 195.56366399139466" stroke="#000000" stroke-width="0.8" fill="none"></path></g><g><path d="M499.8251590854824 208.43194409956155 C499.9350434701198 211.69091116524277, 499.6423279703949 214.75843831268114, 500.9083149601362 219.2951601428846 M499.9954019032179 207.9476475690058 C499.9463404445476 211.87260713158213, 500.41951777006363 216.0180834155054, 499.7756752949038 220.00686991072342" stroke="#000000" stroke-width="0.8" fill="none"></path></g><g><path d="M578.2541908124406 196.59069769633288 C578.2541908124406 196.59069769633288, 578.2541908124406 196.59069769633288, 578.2541908124406 196.59069769633288 M578.2541908124406 196.59069769633288 C578.2541908124406 196.59069769633288, 578.2541908124406 196.59069769633288, 578.2541908124406 196.59069769633288 M577.9058805771298 201.76430536890018 C578.6000255154763 201.1118808482056, 580.204285638546 198.7546315588513, 581.2015956041132 197.48127271265045 M577.3392113947057 202.5714288714836 C578.466449820866 200.66737549404462, 579.8370475178453 198.9117162867872, 581.6812607434241 196.97457476831116 M580.162764740933 203.99209824507506 C581.1723259681173 202.50476103836053, 582.4300260068746 200.8643626419191, 584.0493936964091 199.3007851779757 M579.241578293202 204.28014737540096 C580.6901874214046 202.74843818496572, 582.5025422164117 200.98370150732023, 584.3050677193185 198.75359888031466" stroke="none" stroke-width="0.4" fill="none"></path><path d="M581.1950403583486 196.18511277639533 C582.1284677592122 196.20976348202868, 583.3404166603561 196.82485928037647, 583.7242086225074 197.32028145539022 C584.1080005846586 197.81570363040396, 583.6518471041736 198.25241129558833, 583.497792131256 199.1576458264778 C583.3437371583384 200.06288035736725, 583.1847207709284 202.04884647917692, 582.7998787850014 202.75168864072694 C582.4150367990744 203.45453080227696, 581.9821342652585 203.28640485644664, 581.1887402156939 203.37469879577787 C580.3953461661292 203.4629927351091, 578.8393404523583 203.5900020950557, 578.0395144876131 203.2814522767144 C577.2396885228679 202.97290245837308, 576.6431152189746 202.2260052413292, 576.389784427223 201.52339988573007 C576.1364536354715 200.82079453013094, 576.1558910878606 199.9487965544569, 576.5195297371037 199.06582014311954 C576.8831683863467 198.18284373178219, 577.6766475461329 196.56866353132284, 578.5716163226813 196.22554141770593 C579.4665850992296 195.882419304089, 581.1766791434986 196.75882402036765, 581.8893423963934 197.007087461418 C582.6020056492882 197.25535090246834, 583.0371738474053 197.8562361268617, 582.8475958400501 197.71512206400791 M580.6863126896519 195.97911061189006 C581.4431855173297 196.42549954322413, 583.1338232874591 196.81943672851622, 583.7956501254657 197.83718201821486 C584.4574769634723 198.8549273079135, 584.9358960652526 201.3807133045588, 584.6572737176913 202.08558235008192 C584.37865137013 202.79045139560503, 583.1551615172949 201.93997760174648, 582.1239160400984 202.0663962913535 C581.0926705629018 202.19281498096052, 579.1741914658119 202.94122306740704, 578.469800854512 202.84409448772396 C577.765410243212 202.7469659080409, 578.1053806743283 202.0953700121473, 577.8975723722987 201.48362481325503 C577.689764070269 200.87187961436277, 577.229347238108 200.01038181155323, 577.222951042334 199.17362329437034 C577.21655484656 198.33686477718746, 577.695144769427 196.96536017119567, 577.859195197655 196.46307371015772 C578.0232456258831 195.96078724911976, 577.4271468420325 196.25685479632375, 578.2072536117025 196.15990452814256 C578.9873603813726 196.06295425996137, 582.1061972397956 195.93915621142438, 582.5398358156751 195.8813721010706 C582.9734743915546 195.82358799071685, 580.8289004526308 195.90941191967357, 580.8090850669793 195.81319986601997" stroke="#000000" stroke-width="0.8" fill="none"></path></g><g><path d="M580.7949106101411 207.66635781421604 C580.8805286042167 210.94604926346312, 580.5831868444213 214.08222090038316, 580.4289582660712 220.10540065686615 M580.1976412032286 208.34980017688432 C579.9507672884852 210.71781201351376, 579.7685000347072 212.76403541225406, 579.7601255580564 220.18260555859865" stroke="#000000" stroke-width="0.8" fill="none"></path></g><g><path d="M658.4045155224021 196.03862335087965 C658.4045155224021 196.03862335087965, 658.4045155224021 196.03862335087965, 658.4045155224021 196.03862335087965 M658.4045155224021 196.03862335087965 C658.4045155224021 196.03862335087965, 658.4045155224021 196.03862335087965, 658.4045155224021 196.03862335087965 M657.8661383277837 201.9262871482926 C659.3065303889331 200.33835709783273, 659.4974494251367 199.2589562370676, 661.6523927875421 196.28032409539725 M657.7172572172216 201.87569140987662 C658.1497225337207 200.86063499730037, 659.5451093601608 199.73692630563426, 661.9519078105973 196.73018865857753 M660.0534202846951 203.76302359191806 C660.6597410636477 201.65525759134837, 662.1175399028501 200.90062884993884, 663.9996997203577 197.98956920819373 M659.4605979957446 203.74318169764237 C661.3073548885716 202.22881250762777, 662.2758714480796 200.6236003410444, 664.0429000689879 198.48860566879554" stroke="none" stroke-width="0.4" fill="none"></path><path d="M661.8910627894287 196.7978998000633 C662.7082458358642 197.0318098752752, 663.5911691512197 197.43419233454426, 663.9336204430778 197.94424731883865 C664.2760717349358 198.45430230313303, 664.1153726920421 199.14209668077933, 663.9457705405771 199.85822970582964 C663.7761683891121 200.57436273087995, 663.5986807160466 201.54765613806074, 662.9160075342874 202.24104546914043 C662.2333343525281 202.93443480022012, 660.7040436594581 203.93531892147695, 659.8497314500217 204.01856569230773 C658.9954192405854 204.10181246313851, 658.2661636513201 203.24318877478623, 657.7901342776694 202.74052609412504 C657.3141049040187 202.23786341346386, 657.1803800396285 201.58725058808452, 656.9935552081173 201.00258960834063 C656.8067303766061 200.41792862859674, 656.4827966423278 200.00378284047747, 656.6691852886017 199.2325602156617 C656.8555739348757 198.46133759084591, 657.4052518154685 196.77379500209426, 658.111887085761 196.37525385944596 C658.8185223560536 195.97671271679766, 660.2956606667404 196.68838548253512, 660.9089969103569 196.84131335977196 C661.5223331539734 196.9942412370088, 661.5797135868546 197.34951279134384, 661.7919045474598 197.29282112286705 M659.1613545607083 195.0875630801127 C659.8987131550199 194.91378651318212, 660.8774886056132 197.2852477186396, 661.4945104332212 197.81769948829148 C662.1115322608292 198.35015125794337, 662.4910089074592 197.6264628136039, 662.8634855263567 198.28227369802408 C663.2359621452542 198.93808458244428, 663.8223380778637 200.93630733271183, 663.7293701466064 201.7525647948127 C663.636402215349 202.5688222569136, 663.2324343979003 202.9224968310258, 662.3056779388126 203.17981847062936 C661.3789214797248 203.43714011023292, 659.076643074113 203.48996696576378, 658.1688313920798 203.29649463243416 C657.2610197100466 203.10302229910454, 657.2524686925105 202.52453908084192, 656.8588078466133 202.01898447065162 C656.4651470007161 201.51342986046132, 655.9714637541618 201.05889355312203, 655.8068663166965 200.26316697129232 C655.6422688792312 199.4674403894626, 655.2820108784889 197.85890135817039, 655.8712232218214 197.24462497967335 C656.460435565154 196.6303486011763, 658.5574403671254 196.97836912075044, 659.3421403766918 196.57750870031015 C660.1268403862581 196.17664827986985, 660.72931911893 194.7103819402355, 660.5794232792192 194.83946245703154" stroke="#000000" stroke-width="0.8" fill="none"></path></g><g><path d="M660.8841811500668 208.56958474433313 C660.3056331655124 211.94035840768802, 659.3181759897907 215.37248933215403, 659.8312628454655 220.15766029537247 M660.2616704531698 208.07168383980638 C660.2597979982189 210.25297309332606, 660.5119523812314 213.68590727165576, 659.9991693505099 220.00092378751427" stroke="#000000" stroke-width="0.8" fill="none"></path></g><g><path d="M520 360 C517.0346011809604 386.468444574118, 521.471231451466 402.82134759059534, 530.5538169686185 411.0116422801237 M519.4750985560588 360.184659220942 C515.0609040929224 384.45380935664554, 519.6446798552774 405.2523076125762, 531.4393372307896 410.3839906240469 M530 410 C549.7380909937253 417.198626881371, 570.7346970955153 415.3250915746565, 588.2020023206393 409.98556596973225 M531.3881701785679 409.6663726492458 C550.3451900769427 418.91320303055966, 570.6476442281904 414.72037504787886, 592.1008849063838 409.1004856619102 M590 410 C599.6262996494058 403.71181308775226, 601.695629569994 388.40522582019486, 600.5749448337023 359.4518171210207 M588.9277937322346 408.67357188650135 C601.1519188827267 401.29312579177093, 603.3349064182127 384.3991371087313, 597.7070733686163 362.0996451893922" stroke="#000000" stroke-width="2" fill="none"></path></g><g><path d="M549.812226838683 363.06563686578085 C552.7574490929312 368.26801402212334, 552.8788353177924 377.3141228717124, 554.4120929109379 384.0597844051431 M550.4014107126948 362.1164536046055 C551.9557225303215 369.4724689092688, 553.7242789153065 376.89449318652333, 554.6193647957653 385.2156251197321 M555.629185547749 384.8934224378589 C558.1332981054611 390.91799794001025, 563.1612947162646 397.9200178949507, 568.9536894316595 404.08645811064605 M555.2999346320647 384.57442268789146 C559.2588839771929 392.3550757687866, 565.0250624394062 399.150970124027, 567.8367103673603 405.4827154582192" stroke="#DAA520" stroke-width="2.8" fill="none"></path></g><g><path d="M554.9068413171929 384.4855542026802 C559.0194827895047 383.2580394517945, 563.8803231062378 381.8484352145265, 574.3126719403958 379.0467517736588 M555.5819996536761 384.50724018467935 C562.4141947771795 383.33854787203154, 569.8245597572212 381.95496897710547, 574.5222961317099 379.67699994331855" stroke="#DAA520" stroke-width="2.4" fill="none"></path></g><text x="400" y="560" text-anchor="middle" font-family="sans-serif" font-size="16" fill="#222" font-style="italic">"The crack, filled with gold, becomes the most beautiful part."</text></svg>