<?xml version="1.0" encoding="UTF-8"?>
<svg width="800" height="600" viewBox="0 0 800 600" xmlns="http://www.w3.org/2000/svg"><rect width="800" height="600" fill="#FFFFFF"></rect><g><path d="M118.5845418432546 339.23491085351617 C138.80214327908126 337.7498357829738, 158.22140659840008 333.5668172905692, 181.0008446121565 329.87900467121926 M119.51409743899444 340.58242248248166 C140.85820238326843 336.57018463820793, 161.12047238920204 333.41693528855507, 180.8078867179208 329.33562230140285" stroke="#4A90D9" stroke-width="2.5" fill="none"></path></g><g><path d="M181.36011045468933 328.143952567971 C197.30429474148616 326.7215592736868, 211.22742421610675 320.68316962175396, 238.34031217350523 309.41541717374554 M180.43963999453433 330.7570709226196 C193.78762866581948 325.8449455298374, 207.17725449269648 321.25066853115425, 240.01195841937815 310.53514677784534" stroke="#4A90D9" stroke-width="2.5" fill="none"></path></g><g><path d="M238.13612274211258 310.1148180766597 C258.4460646508749 299.1361300645968, 279.3863280926852 292.40010878896487, 298.1337649722162 279.2285371095797 M239.70822836717528 309.0368732885822 C257.2691491638284 301.5248869044665, 272.0562931985391 293.28520470098493, 300.4629966245755 280.896056104876" stroke="#4A90D9" stroke-width="2.5" fill="none"></path></g><g><path d="M301.85929070640157 280.18541435862846 C323.580378507463 262.148565620483, 347.1593903339728 242.81314982227568, 358.7469007578305 236.0640147940028 M300.0032588190535 279.13354136998294 C319.99805296003194 265.7298364759572, 338.62069652929097 251.40665774678297, 360.3167304838567 235.15967899946298" stroke="#4A90D9" stroke-width="2.5" fill="none"></path></g><g><path d="M361.79948796657027 235.07363117065466 C382.252552477258 215.82132231540345, 403.5882019203974 193.48218040052242, 419.150888664692 174.76315781916458 M360.4895804661399 234.1917410143665 C374.8190669500318 220.3805333994291, 388.2035588846794 206.25777063929243, 420.8128391290128 175.64565918073018" stroke="#4A90D9" stroke-width="2.5" fill="none"></path></g><g><path d="M420.0531674670303 175.16258288063898 C438.3415303866082 153.3948070576194, 452.7378612756605 132.68123033989698, 479.9516495742715 101.60790405787064 M420.0359835525867 175.8541080949721 C444.3795534800476 145.58769534614106, 467.45659215813725 116.292411691256, 479.15509075136526 100.91327141393333" stroke="#4A90D9" stroke-width="2.5" fill="none"></path></g><g><path d="M141.32026656396934 158.50972493756302 C170.00255093319637 159.19483125564398, 202.19024462574367 158.11112092973033, 220.43106654754675 158.46754303435057 M140.3778674164354 160.790689339525 C156.90094421554008 159.51364943569058, 176.59514683129626 160.5085257873752, 219.7644781567661 160.05669097118218 M219.71715550839235 161.2943438537116 C218.81851472594983 179.80017070511386, 218.61755151072296 197.0752604639708, 218.5150616371539 218.11833640708596 M220.43774845480797 159.2941402638719 C220.32274098316063 175.18613761551032, 220.8647804936671 192.28081383223864, 220.5387484938098 219.79094965369606 M221.97443962954833 221.95903857389007 C194.6224023844326 219.41979404584728, 168.68894527359527 218.90842251834707, 139.667620728338 220.7263675343177 M220.94875759582968 220.22381656111688 C197.79316783450145 219.19971453103398, 177.16990163919144 220.16102216123926, 140.91065741762466 220.65520057045478 M138.96294025944235 218.05577059155883 C139.54324917185934 196.64124367984303, 138.55231398206615 176.2905170221635, 139.70986082698482 159.34797117299792 M140.83329198785975 219.56871489678653 C139.40551069202684 204.08065578312474, 138.77833834572235 188.87501287365816, 139.4413880044608 160.90804379199025" stroke="#000000" stroke-width="1.5" fill="none"></path></g><g><path d="M138.65120512093475 160.77833795071848 C153.3426849560265 153.38432035221948, 163.89297734180926 148.60160516744799, 179.28433129973232 140.32867047674713 M140.15488497780353 159.32954980338786 C151.38561170102346 153.8518260988006, 160.53996523775186 148.7104574302272, 179.00097507856842 139.9055579933207" stroke="#000000" stroke-width="1.5" fill="none"></path></g><g><path d="M180.51318351284175 138.9199382136449 C193.9497365422807 148.90809976495476, 209.25528670170416 156.7301859353914, 218.31839533431852 159.54481347268558 M179.4133721843898 140.47284237069118 C189.1031624458952 144.47447637402223, 198.28711376786543 149.60490739586982, 219.72682055701327 159.18655268480336" stroke="#000000" stroke-width="1.5" fill="none"></path></g><g><path d="M156.4982909946145 166.13541663191143 C154.0979292217125 180.6341853394566, 153.26345029709975 197.53047641027453, 156.20422995115456 215.79223801965665 M154.71266662411858 165.24176552314626 C155.66025031165165 175.31233856952025, 155.36708315760035 186.30873073249023, 155.10059499942187 214.73338885825592" stroke="#000000" stroke-width="1.5" fill="none"></path></g><g><path d="M181.77061543563397 164.33999159971674 C179.64748078052756 182.79184137942738, 180.8297141441147 199.26788035444764, 180.62156414224054 215.62486882984973 M179.43879530939364 164.55106629123068 C180.77795680679208 182.2999412288507, 179.29160834031805 198.52571447378492, 180.94373288298388 215.84509147890495" stroke="#000000" stroke-width="1.5" fill="none"></path></g><g><path d="M203.94214996319133 166.53510227943093 C204.50656669645258 180.78968478742416, 204.44475709928247 199.45482159864525, 206.02473944326604 213.79189208339005 M205.17839053592078 164.98038014934315 C206.2698356397562 180.2232742417431, 204.43051117930068 196.67707601018023, 204.15032646701064 215.14187840200773" stroke="#000000" stroke-width="1.5" fill="none"></path></g><g><path d="M450.18184542403776 159.88197241046822 C454.0834366474087 162.31643287323965, 454.98976539702187 163.2206490049268, 460.0065653356609 165.48371061939193 M449.60423645133426 159.95841222170498 C452.3854539837186 160.75731081801135, 454.6774106872153 162.56393031919396, 460.33066498877724 164.79872106817746" stroke="#CC3333" stroke-width="2" fill="none"></path></g><g><path d="M460.87938360613185 165.88788367329622 C462.7973940427362 167.71150379720777, 465.9303566829452 168.46200592257912, 470.8292058791325 170.22388552597462 M459.95590215629556 165.31921428189116 C463.3340536144634 167.02105815385855, 467.27924810695765 169.20809802175148, 470.5002043980766 170.04402311877624" stroke="#CC3333" stroke-width="2" fill="none"></path></g><g><path d="M469.9318845189141 171.03831235557485 C474.76021056731844 206.41377906689178, 478.0213770127532 239.4765679061526, 481.28059843278044 299.12862513202447 M469.07546533543024 169.98699010935582 C471.1708658400207 196.32921149810227, 474.9997620092876 223.01206684179954, 480.4400579559787 299.7701443513016" stroke="#CC3333" stroke-width="3" fill="none"></path></g><g><path d="M326.54520654934197 370.2711189319331 C330.3569076425836 367.97216449604053, 334.957595203541 365.84692963527766, 346.5602078834577 359.41498431037365 M324.9762812079971 370.6720520524171 C331.1142979249029 368.1845785982649, 334.77973416062514 364.6594874162883, 345.69201966916603 360.3000222206141" stroke="#4A90D9" stroke-width="2" fill="none"></path></g><g><path d="M344.90284564401173 359.7366357356311 C346.7718174620934 360.40920730110736, 349.88137979060605 359.2331104141571, 354.45860928175296 360.43750853009834 M344.561794403084 359.80138887314433 C347.0357940274214 360.1029309512647, 349.2118754570869 359.4577088246945, 355.34830957650456 359.5399345438185" stroke="#000000" stroke-width="2" fill="none"></path></g><g><path d="M356.3707786005376 361.59399836945454 C359.9964780990672 361.2458317303666, 362.1220624312916 365.61701714812904, 373.4724008381999 371.4215820773302 M354.5614215734109 359.34752886968613 C361.20016026264904 363.2771506615418, 366.4775786271313 364.7677076722976, 374.3735371775875 369.65054617931054" stroke="#4A90D9" stroke-width="2" fill="none"></path></g><text x="400" y="560" text-anchor="middle" font-family="sans-serif" font-size="16" fill="#222" font-style="italic">Reputation is compound interest in trust.</text></svg>