<?xml version="1.0" encoding="UTF-8"?>
<svg width="800" height="600" viewBox="0 0 800 600" xmlns="http://www.w3.org/2000/svg"><rect width="800" height="600" fill="#FFFFFF"></rect><g><path d="M48.94990337715568 145.90251530435444 C48.94990337715568 145.90251530435444, 48.94990337715568 145.90251530435444, 48.94990337715568 145.90251530435444 M48.94990337715568 145.90251530435444 C48.94990337715568 145.90251530435444, 48.94990337715568 145.90251530435444, 48.94990337715568 145.90251530435444 M50.01101386747982 154.45531431400406 C52.81721878013915 150.1020083500694, 54.358479326947425 146.91761770707691, 59.050571679590355 144.65608783556885 M50.1829796151471 153.15969236836997 C53.3767815567625 149.6818139588347, 55.88452021777188 146.1566554344041, 58.51062868336399 144.37963476409976 M55.53419209771836 157.8520772231109 C57.84471858014003 154.98583682653435, 60.4643115929762 151.62188884080032, 61.569717084491316 150.285643133913 M54.525895574757044 157.254186379645 C55.785916335428745 155.8308292498229, 57.032802454537965 154.78944259153664, 61.411710604305746 150.28689770234521" stroke="none" stroke-width="0.8" fill="none"></path><path d="M53.93508176705137 143.35660210394664 C55.216132040641504 143.11313078813265, 57.171387583285025 143.64688982195128, 58.45065809321657 144.15693746036195 C59.72992860314811 144.6669850987726, 61.18817482885082 145.21532777255342, 61.610704826640635 146.41688793441068 C62.03323482443045 147.61844809626794, 61.55724050890968 149.89162212969336, 60.98583807995546 151.36629843150544 C60.414435651001234 152.84097473331752, 59.22494835287368 154.31527186767158, 58.18229025291529 155.2649457452832 C57.13963215295689 156.21461962289482, 55.97677041966775 156.98886383510384, 54.7298894802051 157.06434169717517 C53.48300854074245 157.1398195592465, 51.82576993509676 156.80797259890176, 50.7010046161394 155.7178129177111 C49.57623929718204 154.62765323652042, 48.26079598611422 152.17347565094875, 47.98129756646093 150.52338361003123 C47.701799146807645 148.87329156911372, 47.94123578704673 146.9522380953129, 49.02401409821969 145.81726067220603 C50.10679240939265 144.68228324909916, 53.27508414158177 144.1164534578341, 54.47796743349868 143.71351907139 C55.68085072541558 143.31058468494592, 55.965995609157225 143.33569370626603, 56.24131384972111 143.39965435354145 M56.38401513540329 144.07256347446142 C57.65965574901676 144.6385663267908, 58.6499527657197 145.75574227879108, 59.66375923649135 146.87774795138222 C60.677565707263 147.99975362397336, 62.31936930653609 149.5559874369014, 62.46685396003316 150.80459751000834 C62.614338613530236 152.05320758311527, 61.608412049103535 153.2204307223874, 60.54866715747381 154.36940839002384 C59.48892226584408 155.51838605766028, 57.68634102615525 157.67473490669275, 56.10838461025482 157.69846351582697 C54.530428194354386 157.7221921249612, 52.3628794594147 155.6587474163649, 51.08092866207121 154.51178004482918 C49.79897786472772 153.36481267329347, 48.61152064122215 152.2615029929581, 48.41667982619388 150.81665928661275 C48.221839011165606 149.3718155802674, 49.535823084747314 146.8317093933888, 49.91188377190159 145.84271780675704 C50.28794445905587 144.85372622012528, 49.60527370299979 145.33339493448722, 50.67304394911955 144.88270976682225 C51.74081419523932 144.43202459915727, 55.389542570663764 143.6360402687899, 56.318505248620184 143.1386068007672 C57.247467926576604 142.6411733327445, 56.00888609532589 141.55022964440153, 56.246820016858095 141.89810895868595" stroke="#000000" stroke-width="1.6" fill="none"></path></g><g><path d="M53.341473060043064 156.27121793571783 C54.574526709519134 164.18965140527084, 53.46827849516276 170.3004599415223, 55.64994275286368 182.7021651360167 M55.15743747463659 157.92804630179123 C54.989294975966104 165.88550106218088, 54.90919088097512 173.99081317826733, 54.73064424145229 184.43877315940028" stroke="#000000" stroke-width="1.6" fill="none"></path></g><g><path d="M53.493380459190895 184.51695625437267 C50.83209873018459 187.911126531269, 48.82596492709321 196.01473561576458, 47.44842706523624 198.79753792353137 M54.113543457226314 183.13829172786535 C54.13878101996918 187.33007395607572, 51.0082288039044 190.79974192271578, 46.216985099218604 200.23085134071616" stroke="#000000" stroke-width="1.6" fill="none"></path></g><g><path d="M56.4512603941288 185.62309321931843 C57.074215582728876 186.89671543268, 58.48568112181586 190.48188840885425, 63.23963528356802 199.99998412810018 M55.5951300571029 184.16432126083407 C57.273503752395854 191.1942888933099, 61.26157999962593 196.5029072713553, 62.35837235636786 200.14679438286336" stroke="#000000" stroke-width="1.6" fill="none"></path></g><g><path d="M65.20752147244168 132.9010698091337 C64.70377845623149 151.2143918182411, 61.91063177878866 166.89491750662268, 62.50053104721583 181.1273369896834 M67.45762444868576 131.69236624251403 C65.10050471473586 142.51699207074975, 63.59578032714253 153.99329367943193, 60.60313573344787 180.2679101094897" stroke="#000000" stroke-width="1.4" fill="none"></path></g><g><path d="M48.329326125579286 226.18884832404615 C48.329326125579286 226.18884832404615, 48.329326125579286 226.18884832404615, 48.329326125579286 226.18884832404615 M48.329326125579286 226.18884832404615 C48.329326125579286 226.18884832404615, 48.329326125579286 226.18884832404615, 48.329326125579286 226.18884832404615 M48.355598722425135 232.57866176483932 C52.561715671575506 231.5244769935519, 55.2054607618644 228.51025135184673, 59.93698646277081 224.26478263112793 M49.40810358932028 233.23139511045355 C52.59106214129618 231.65627655086303, 54.73227781515194 227.89123375198622, 58.796817323365694 222.70466647769004 M55.359339239768815 236.5142993375599 C57.038893850612325 234.2803243306924, 59.747564757141355 230.2646798295987, 61.0393564328432 228.26443840003762 M54.90594558254621 237.06428052247296 C57.21787669382763 234.04364622479665, 60.05591927893535 231.33856300527677, 61.702223817034756 228.55288939227586" stroke="none" stroke-width="0.8" fill="none"></path><path d="M58.71828611650496 223.11461867407695 C59.995065746307574 223.66483982031636, 60.73668504260053 225.66344566143482, 61.316551574198456 227.11332530620035 C61.896418105796386 228.56320495096588, 62.64974589307659 230.22562593059038, 62.19748530609255 231.81389654267022 C61.74522471910851 233.40216715475006, 59.952238094564 235.8778644110555, 58.602988052294236 236.64294897867944 C57.25373801002447 237.4080335463034, 55.49864504756667 236.77245376371715, 54.10198505247394 236.40440394841391 C52.705325057381216 236.03635413311068, 51.300619725120654 235.56616483398216, 50.22302808173786 234.43465008686005 C49.14543643835506 233.30313533973793, 47.9462024420208 230.99634511884796, 47.63643519217715 229.61531546568125 C47.32666794233351 228.23428581251454, 47.41242816567774 227.08706108067503, 48.36442458267597 226.1484721678599 C49.31642099967421 225.20988325504476, 51.575268151042955 224.22566625505257, 53.34841369416657 223.98378198879047 C55.12155923729018 223.74189772252836, 57.97376225856319 224.5595648852323, 59.00329784141765 224.69716657028727 C60.032833424272106 224.83476825534223, 59.6926835364887 224.74427260757852, 59.5256271912933 224.80939209912032 M58.995229591070064 222.52649391708192 C60.53789771054838 223.24981424828042, 61.43142245477615 225.2771649680153, 61.87908841053593 227.06544564986984 C62.32675436629571 228.85372633172437, 62.20500371793466 231.61419530047263, 61.68122532562875 233.25617800820913 C61.157446933322845 234.89816071594564, 59.760676713703475 236.38988191852195, 58.736418056700465 236.91734189628883 C57.712159399697455 237.4448018740557, 57.13733062597354 236.71677687588792, 55.535673383610714 236.42093787481036 C53.93401614124789 236.1250988737328, 50.30111612983112 235.93898845490614, 49.1264746025235 235.1423078898235 C47.95183307521588 234.3456273247409, 48.63341685181519 233.08830280132366, 48.487824219765 231.6408544843146 C48.342231587714814 230.1934061673055, 47.33867980939751 227.63423428036694, 48.25291881022238 226.45761798776897 C49.167157811047254 225.281001695171, 52.20237481566506 224.77902496062836, 53.97325822471422 224.58115672872677 C55.744141633763384 224.38328849682517, 58.00542499953568 225.56440573779685, 58.878219264517355 225.27040859635943 C59.75101352949903 224.97641145492202, 59.56542665561517 222.7841818380109, 59.21002381460427 222.81717388010233" stroke="#000000" stroke-width="1.6" fill="none"></path></g><g><path d="M54.51089070567623 236.7958505969028 C52.81086426165812 245.3185526959895, 53.57392501216227 254.5566089944387, 55.1395544977585 264.345878251885 M54.79732719009707 236.36701929664497 C54.61611803366662 245.86062541767996, 53.85175828952286 254.1300147633159, 55.574203261213306 263.7545901321254" stroke="#000000" stroke-width="1.6" fill="none"></path></g><g><path d="M55.46934228021359 265.7499306699299 C50.85090417845312 268.8506459843075, 48.98792660201685 273.7094300297559, 47.00887248432722 280.30074004278026 M54.87027844984414 264.268526683536 C52.87615335083621 267.97046574296775, 49.968487494477564 273.25826590150825, 47.65024664351675 280.21393471389166" stroke="#000000" stroke-width="1.6" fill="none"></path></g><g><path d="M54.44975300154956 264.07733527604853 C57.62021890694515 267.5314327330151, 58.27617701176063 271.1702497223604, 63.68108376965777 279.82030787978664 M55.403967320092285 263.646006862397 C57.902959579605636 269.8596228126815, 61.54166794106074 276.2713256387735, 62.924694154741275 279.5449734015997" stroke="#000000" stroke-width="1.6" fill="none"></path></g><g><path d="M68.94046977896912 211.1255284187025 C64.97912044634086 228.1585314576071, 61.927856868873796 244.36661207623663, 60.27346763307202 259.9242064805591 M66.42721032948597 211.87337671652236 C64.91023888228997 223.56157924092912, 63.22333890948602 236.0160408851341, 60.52196347967578 259.0563642384499" stroke="#000000" stroke-width="1.4" fill="none"></path></g><g><path d="M52.649299523689464 304.14487153427564 C52.649299523689464 304.14487153427564, 52.649299523689464 304.14487153427564, 52.649299523689464 304.14487153427564 M52.649299523689464 304.14487153427564 C52.649299523689464 304.14487153427564, 52.649299523689464 304.14487153427564, 52.649299523689464 304.14487153427564 M51.730029554480595 314.67444782183924 C53.238902369782906 311.57909489562434, 56.59818783474514 307.7727684609524, 60.62081741568482 304.92209266421105 M51.309610102489465 315.84450629748954 C53.09259439665011 312.3985188570172, 56.01953127694851 309.03269015879994, 60.14940248877652 304.87110246040805 M59.10307823712633 314.87511838553127 C59.56413225915784 314.2093431994399, 60.45949435439799 313.5925276258222, 60.90337760717914 312.6747880114812 M58.96601344852323 315.1571704930181 C59.50576458537216 314.47961974983656, 60.107196160527096 313.7242690366529, 60.99089377087342 312.79911746703186" stroke="none" stroke-width="0.8" fill="none"></path><path d="M56.87225543856433 303.1250718107907 C58.21603661272534 303.4865680445534, 60.542160773376466 305.3598299424616, 61.25489610083782 306.52582967893426 C61.96763142829917 307.6918294154069, 61.30510502489037 308.8558373632933, 61.14866740333245 310.12107022962664 C60.99222978177453 311.38630309596, 61.395009643346654 313.0131193911059, 60.31627037149031 314.1172268769342 C59.23753109963397 315.2213343627625, 56.427548800677656 316.5093276890002, 54.6762317721944 316.74571514459655 C52.92491474371114 316.9821026001929, 50.77308689570914 316.42723931002354, 49.808368200590785 315.5355516105124 C48.84364950547243 314.6438639110013, 48.87090756394167 312.70429333548924, 48.887919601484256 311.39558894752963 C48.90493163902684 310.08688455957, 49.308823984732726 308.8626966270756, 49.910440425846296 307.6833252827549 C50.51205686695987 306.50395393843417, 51.13331041541851 305.1172434671746, 52.4976182481657 304.3193608816052 C53.861926080912895 303.52147829603575, 57.19183940646816 302.9496003825083, 58.09628742232945 302.8960297693382 C59.000735438190745 302.8424591561681, 58.14351877860733 303.88762461477523, 57.92430634333343 303.99793720258447 M56.132500849703895 304.2153434633582 C57.64440462950941 303.64920791795157, 59.28583742813093 302.7821303160222, 60.39679820686805 303.289444708589 C61.507758985605165 303.79675910115577, 62.60508066812115 305.4354685803355, 62.798265522126584 307.25922981875897 C62.99145037613202 309.0829910571824, 62.63687484496128 312.5938632772807, 61.55590733090067 314.2320121391297 C60.47493981684007 315.8701610009787, 57.89408042013391 316.715986656587, 56.31246043776298 317.088122989853 C54.73084045539205 317.460259323119, 53.07546932428859 317.06864415841073, 52.066187436675094 316.4648301387255 C51.0569055490616 315.8610161190403, 50.84604914587748 314.90218203535557, 50.256769112082 313.4652388717416 C49.667489078286515 312.0282957081276, 48.286795985249576 309.04943125260917, 48.53050723390221 307.8431711570416 C48.77421848255485 306.636911061474, 50.829113747971334 307.08546628703374, 51.71903660399781 306.22767829833595 C52.60895946002428 305.36989030963815, 53.295695038952076 303.2362134622002, 53.87004437006105 302.6964432248548 C54.44439370117003 302.1566729875094, 55.14784415061206 302.6355998241895, 55.165132590651666 302.9890568742634" stroke="#000000" stroke-width="1.6" fill="none"></path></g><g><path d="M56.832810411962505 317.25422115886664 C56.697675999303904 326.0082981902291, 53.472409874095206 338.8359228409614, 53.94524489469479 344.68972638270634 M54.13857280101643 316.84138089618693 C54.8309676568071 325.0617614121318, 55.77123348479455 332.35373027649166, 55.71523379148138 343.1771413853232" stroke="#000000" stroke-width="1.6" fill="none"></path></g><g><path d="M54.0236214800759 345.20047135962074 C54.286823043151244 346.19112369766077, 51.494670320990174 350.67721734562457, 45.898106182801484 358.2487301606019 M55.334665919207104 343.73675863631235 C51.976014788598874 348.0074379413693, 51.091756400547 352.31477961436093, 47.32712819254309 359.83610093709314" stroke="#000000" stroke-width="1.6" fill="none"></path></g><g><path d="M54.183541276279705 342.7892261607457 C57.61029620403523 346.3220530053484, 59.312079319232275 349.82478751698545, 62.952824847120034 360.46870541960135 M55.230723336010605 344.3661628910665 C56.538179175528306 346.7854027654117, 57.24628497440271 349.88551432933036, 63.52429772957347 360.6168610126914" stroke="#000000" stroke-width="1.6" fill="none"></path></g><g><path d="M65.45491856251476 290.45933210921214 C63.305133652358656 307.9673046789494, 62.89478300077142 323.67179286178566, 61.23549809381377 338.7163761714791 M66.09302810985331 291.6474629412904 C64.6400914997738 307.59458058638126, 63.27798448909319 323.68094907865077, 60.18623165244925 339.8813808503941" stroke="#000000" stroke-width="1.4" fill="none"></path></g><g><path d="M93.29699248783486 146.02747492190673 C93.29699248783486 146.02747492190673, 93.29699248783486 146.02747492190673, 93.29699248783486 146.02747492190673 M93.29699248783486 146.02747492190673 C93.29699248783486 146.02747492190673, 93.29699248783486 146.02747492190673, 93.29699248783486 146.02747492190673 M95.02701818267438 152.16580278145838 C98.6425623373031 150.1040599288512, 100.53243942899208 146.1840600249246, 102.89110417976777 143.7069347148591 M95.4397619380296 152.4652073396336 C96.57641412130299 150.96366528232758, 98.38467835483982 149.65541589026503, 103.34678593214892 144.11755099016355 M100.45297832788357 157.56246045045108 C100.76331226860195 155.5717897044578, 102.37890855772736 153.42021207557642, 106.28620799656208 149.0534841183785 M100.05236402964343 157.3398472659093 C102.45268182263592 153.91663555311004, 104.25265198617723 150.99122321706955, 105.88208001321196 149.3506777492821" stroke="none" stroke-width="0.8" fill="none"></path><path d="M102.51379085246047 144.06235605669818 C104.15572930852724 144.67447178736913, 106.21118083071921 145.983554098134, 106.80090343764104 147.16686466737463 C107.39062604456286 148.35017523661526, 106.56687270260221 149.79252282045968, 106.05212649399145 151.162219472142 C105.53738028538069 152.53191612382432, 104.8238382287626 154.52987902974647, 103.71242618597647 155.38504457746853 C102.60101414319034 156.2402101251906, 100.59381953122656 156.34699595417754, 99.38365423727465 156.29321275847443 C98.17348894332275 156.2394295627713, 97.47552460794334 156.02015739685953, 96.4514344222651 155.06234540324976 C95.42734423658685 154.10453340964, 93.7593861752323 152.05844191882292, 93.23911312320519 150.5463407968159 C92.71884007117808 149.0342396748089, 92.73313616415672 147.3426168275838, 93.32979611010245 145.98973867120768 C93.92645605604818 144.63686051483154, 95.2576295724137 142.78328746226143, 96.81907279887957 142.42907185855907 C98.38051602534544 142.0748562548567, 101.23651577698232 143.47186289002434, 102.69845546889768 143.8644450489935 C104.16039516081304 144.25702720796266, 105.64914401027139 144.79908132070165, 105.59071095037174 144.78456481237396 M101.510960522751 142.94729951260314 C103.09600089276553 143.0701254082038, 105.58564994166639 145.5161923780956, 106.34020321026357 146.39726651969903 C107.09475647886075 147.27834066130245, 106.24944520975613 146.79428234549857, 106.03828013433409 148.2337443622236 C105.82711505891204 149.67320637894863, 105.86834352386177 153.72112200864444, 105.07321275773131 155.0340386200493 C104.27808199160086 156.34695523145416, 102.37727815362831 156.02461600589393, 101.2674955375514 156.1112440306528 C100.15771292147448 156.1978720554117, 99.68219459107819 155.83480364120317, 98.41451706126985 155.55380676860256 C97.14683953146151 155.27280989600195, 94.56175276915766 155.59289596123148, 93.66143035870135 154.42526279504924 C92.76110794824504 153.257629628867, 92.56073884522574 150.28928107385042, 93.01258259853199 148.5480077715092 C93.46442635183824 146.80673446916796, 95.07879472233654 144.76719324902382, 96.37249287853882 143.97762298100187 C97.6661910347411 143.18805271297992, 100.153718996167 144.13221103269194, 100.77477153574566 143.81058616337745 C101.39582407532431 143.48896129406296, 99.93588220386432 142.1984844319491, 100.09880811601077 142.04787376511487" stroke="#000000" stroke-width="1.6" fill="none"></path></g><g><path d="M98.20695969597253 156.9025166631824 C99.7937767384026 165.2413738160791, 100.27335710489061 170.1305944256377, 101.17428790390038 184.36107737540686 M100.59202244132862 156.61318637326818 C100.96532577662445 167.12783184094732, 99.08903588315779 178.2708328210946, 100.06603778795676 183.93775466542138" stroke="#000000" stroke-width="1.6" fill="none"></path></g><g><path d="M101.17007433658829 183.51019199706516 C97.19675193392564 189.71049189437718, 92.55823034902801 197.74386912835175, 93.58923453017006 198.2778927518728 M100.82237326139246 184.61817538446948 C96.81189335191432 188.75364849093967, 94.74892564145178 194.54536689175495, 91.86883991659808 199.3046260149096" stroke="#000000" stroke-width="1.6" fill="none"></path></g><g><path d="M98.99942391889752 182.22452040633314 C102.76886802480954 187.14736157062592, 104.82515002878564 189.53959147915376, 106.42426634419989 200.77192612106364 M99.40589947932581 183.5679214766734 C102.70033737144263 190.05670850913492, 106.6789410833791 196.20940115771418, 108.22668056249293 199.29371561955713" stroke="#000000" stroke-width="1.6" fill="none"></path></g><g><path d="M111.62337898615876 132.12284336628008 C110.6330906091262 143.9516431170496, 107.91885426152237 151.8838247628242, 105.45663561854315 178.5342350045826 M112.67397492182735 131.70353426406 C111.26651811436754 144.76557130457215, 108.5924685634421 156.22795516535498, 106.56591076883178 179.91047573100704" stroke="#000000" stroke-width="1.4" fill="none"></path></g><g><path d="M96.06011013906158 223.9551570720263 C96.06011013906158 223.9551570720263, 96.06011013906158 223.9551570720263, 96.06011013906158 223.9551570720263 M96.06011013906158 223.9551570720263 C96.06011013906158 223.9551570720263, 96.06011013906158 223.9551570720263, 96.06011013906158 223.9551570720263 M94.44375877894034 232.93278101254302 C98.9929896379428 231.55338291633532, 100.67111624101486 228.67952582477403, 103.55039542044351 226.56428272591478 M95.11353819113279 233.6162286446689 C97.56408884264083 231.82599824045565, 100.0607923188808 229.0393933119456, 102.74300715260429 225.98631309350645 M99.24367924166994 238.14830121801995 C101.74301176674614 236.08555557462333, 105.15852791255355 232.49289807799002, 105.92986785428998 230.27621394235982 M99.30229114737968 239.06623535132465 C101.71982380160786 236.27800930116774, 104.18845041260468 233.16412188854545, 107.37285647184073 230.05272206972407" stroke="none" stroke-width="0.8" fill="none"></path><path d="M99.81578553556211 222.83881374907207 C101.3494029625397 222.68292972081215, 103.67088012080394 222.56758838079847, 104.75511829389232 223.57207681573576 C105.8393564669807 224.57656525067304, 105.92336429859381 227.0520963788743, 106.32121457409238 228.86574435869585 C106.71906484959095 230.6793923385174, 107.61205316780435 233.23022904950915, 107.14221994688371 234.45396469466502 C106.67238672596308 235.6777003398209, 104.93770419213155 235.7084422337528, 103.50221524856856 236.20815822963107 C102.06672630500557 236.70787422550933, 100.15314038870252 238.01156378889883, 98.5292862855058 237.4522606699346 C96.90543218230908 236.89295755097035, 94.65078449714974 234.1444705553736, 93.75909062938824 232.8523395158456 C92.86739676162674 231.56020847631763, 92.81104994532666 231.1645878531339, 93.17912307893674 229.6994744327667 C93.54719621254682 228.2343610123995, 94.48179029395939 225.30693378889947, 95.96752943104875 224.0616589936424 C97.4532685681381 222.81638419838532, 100.83537522862366 222.41305139243022, 102.09355790147286 222.22782566122422 C103.35174057432206 222.0425999300182, 103.54746614479328 222.7480414698616, 103.51662546814391 222.95030460640638 M102.18293067403482 223.0142533180869 C103.9712678613166 223.17088858561388, 104.78392571807439 224.69575802794952, 105.73505540805087 225.63957886978662 C106.68618509802735 226.5833997116237, 107.87954911247036 227.24437834377323, 107.88970881389369 228.67717836910944 C107.89986851531702 230.10997839444565, 106.9058046610069 232.78160380041828, 105.79601361659084 234.23637902180383 C104.68622257217478 235.69115424318937, 102.71772006835776 237.15766324361454, 101.23096254739731 237.40582969742263 C99.74420502643686 237.65399615123073, 98.3937881196809 236.56742885026222, 96.87546849082813 235.7253777446524 C95.35714886197535 234.8833266390426, 92.65829173988887 233.79053737988593, 92.12104477428062 232.35352306376384 C91.58379780867237 230.91650874764176, 93.26838238553623 228.58411351716964, 93.65198669717863 227.10329184791993 C94.03559100882103 225.62247017867023, 93.1370833144168 224.35934095683854, 94.42267064413505 223.4685930482656 C95.7082579738533 222.57784513969267, 100.08036595582163 221.83228593915442, 101.3655106754882 221.75880439648233 C102.65065539515476 221.68532285381025, 102.16356514836406 222.72425114886317, 102.1335389621344 223.02770379223318" stroke="#000000" stroke-width="1.6" fill="none"></path></g><g><path d="M99.42235829688612 238.21756702813732 C98.68767635021094 245.25929863434266, 99.7813383510974 256.5364959378627, 98.25178296088107 265.378908929039 M100.35676402019985 237.3910445722546 C100.71687824496708 246.93911544321972, 99.27759123740942 258.8002228326205, 99.97606239543462 264.1862745042515" stroke="#000000" stroke-width="1.6" fill="none"></path></g><g><path d="M100.13756114526764 264.00614185629536 C98.50694069972562 269.1236534405807, 94.49985466636404 273.89489460066136, 93.49990316299659 280.3397622010789 M100.33844872245577 264.4169126423866 C97.59658809495772 268.4972125032658, 94.73940396271158 273.9335453226784, 92.53317454494224 280.8712457701144" stroke="#000000" stroke-width="1.6" fill="none"></path></g><g><path d="M99.94057874080578 264.4621532340392 C102.89038432470556 269.3931734683229, 103.04850495185953 271.6798962866382, 108.27097210794182 279.98807539229205 M99.99062160201294 264.2719281412093 C101.93239087205149 268.07045263147626, 103.43944000859234 270.8819809201161, 107.95711703072065 279.92786469883043" stroke="#000000" stroke-width="1.6" fill="none"></path></g><g><path d="M112.7728189051758 211.4974870451794 C111.54496712792057 228.27044984713746, 108.6373340206167 245.62131404847506, 106.63658793669042 260.11856558735064 M112.0113133014575 212.75622437864664 C110.86348367443904 224.87838622362244, 109.28483043214855 235.80305176845349, 105.34009130004077 260.15899031628527" stroke="#000000" stroke-width="1.4" fill="none"></path></g><g><path d="M93.82917109293132 306.8166629206728 C93.82917109293132 306.8166629206728, 93.82917109293132 306.8166629206728, 93.82917109293132 306.8166629206728 M93.82917109293132 306.8166629206728 C93.82917109293132 306.8166629206728, 93.82917109293132 306.8166629206728, 93.82917109293132 306.8166629206728 M96.19212198667816 315.35354661028884 C96.91197512155522 309.9081262164563, 100.95558589322327 308.323325981928, 103.68162625864932 305.6936999577565 M95.69373912807134 313.88028186061507 C97.44704792245678 311.33803185287303, 100.83146865551817 308.1396165844555, 103.60703733013877 304.72115877080705 M101.51246550732733 316.15299892920575 C103.75842231138839 315.0456501418363, 104.93338233024518 312.6928893669829, 107.55124528943504 308.7419771114384 M101.18340191668453 315.75622745677185 C102.76701939944613 314.18027007467526, 105.00239536820195 312.3285200455899, 107.90145276585103 309.6316701852024" stroke="none" stroke-width="0.8" fill="none"></path><path d="M97.60308358778441 303.4867940505325 C99.21767542568688 303.0088216277603, 102.46912763745445 303.5154578386454, 104.15794606934399 304.1733616802103 C105.84676450123354 304.8312655217752, 107.18635631927202 306.07843289789867, 107.73599417912168 307.43421709992214 C108.28563203897133 308.7900013019456, 108.10664204269744 311.0423135211431, 107.45577322844188 312.3080668923512 C106.80490441418632 313.57382026355924, 105.16533346170321 314.2842232691384, 103.8307812935883 315.0287373271704 C102.49622912547339 315.7732513852024, 100.99317686259371 316.98290305001854, 99.4484602197524 316.7751512405432 C97.9037435769111 316.5673994310679, 95.63342163132859 314.76914968468117, 94.56248143654044 313.78222647031834 C93.49154124175229 312.7953032559555, 93.10983857207572 312.05503088014007, 93.02281905102355 310.85361195436633 C92.93579952997138 309.6521930285926, 93.11635384226796 307.70299600442206, 94.04036431022743 306.57371291567597 C94.96437477818691 305.4444298269299, 97.56512440323995 304.58058716303935, 98.56688185878038 304.0779134218897 C99.5686393143208 303.5752396807401, 99.79447438755263 303.55248452854767, 100.05090904347001 303.55767046877804 M102.58305703463756 304.6879443154568 C103.81760303629528 305.212462276812, 104.44717909401105 306.7548897809619, 105.23356235740799 307.6323219650502 C106.01994562080493 308.50975414913853, 107.45399198673373 308.51944976215077, 107.30135661501923 309.95253741998675 C107.14872124330473 311.38562507782274, 105.34332037561566 314.9753541643823, 104.317750127121 316.23084791206617 C103.29217987862634 317.48634165975005, 102.84030113504967 317.6734024243132, 101.14793512405124 317.48549990609 C99.45556911305282 317.2975973878668, 95.39235883756072 316.21432751386976, 94.16355406113045 315.1034328027269 C92.93474928470019 313.99253809158404, 94.01558135324453 312.292135533559, 93.7751064654696 310.8201316392327 C93.53463157769468 309.34812774490644, 91.96764639905301 307.28457710029164, 92.72070473448089 306.2714094367691 C93.47376306990877 305.25824177324654, 96.49723222175949 304.9816673386579, 98.29345647803689 304.74112565809753 C100.08968073431429 304.50058397753713, 102.69171602051661 304.77010874569385, 103.49805027214525 304.8281593534068 C104.30438452377389 304.8862099611198, 103.35068877664727 305.0715603933215, 103.13146198780876 305.08942930437524" stroke="#000000" stroke-width="1.6" fill="none"></path></g><g><path d="M99.9994423101261 315.36819797981343 C100.50660233453164 327.4213902986161, 100.47189508171041 337.23830832664333, 101.07169993008803 345.17383291014096 M99.72970897814218 317.44859445372714 C99.29723814955496 324.6670615676201, 100.27842085170762 334.1241519914398, 100.17195850053653 343.5378333418488" stroke="#000000" stroke-width="1.6" fill="none"></path></g><g><path d="M100.07892399542501 342.27114016616275 C97.49311346364787 348.90746940276784, 94.73487510096298 354.6138241393483, 92.96127640384059 361.5606807849995 M100.05693337482901 344.2873288492109 C98.74426270932729 347.74429223242737, 95.7654412378064 353.36094841945186, 91.23824900733966 360.76429017243015" stroke="#000000" stroke-width="1.6" fill="none"></path></g><g><path d="M98.81611698083259 342.7331475978484 C100.80076113592496 348.630839426882, 104.25942573283871 354.11741490995826, 109.23789269458689 358.59414300835255 M99.2252612448845 343.9002356538226 C103.34654168583089 349.93395959955063, 106.08524663805596 355.748103579901, 108.45437833632968 360.62309946882465" stroke="#000000" stroke-width="1.6" fill="none"></path></g><g><path d="M112.11214776136967 290.82702100841055 C108.18461129579134 306.83042758368174, 109.35721126735852 326.83800187361663, 107.07303253624201 340.93715478188005 M112.43459772473595 291.55382955405844 C109.75085898811992 307.098081088524, 108.39091014351678 322.6474625466095, 105.99406438323764 340.2822824410411" stroke="#000000" stroke-width="1.4" fill="none"></path></g><g><path d="M140.3176515896154 145.82650748864924 C140.3176515896154 145.82650748864924, 140.3176515896154 145.82650748864924, 140.3176515896154 145.82650748864924 M140.3176515896154 145.82650748864924 C140.3176515896154 145.82650748864924, 140.3176515896154 145.82650748864924, 140.3176515896154 145.82650748864924 M140.98571626582358 153.23432915183295 C142.73674344773275 152.23864500659343, 144.1400352961309 151.16330764968848, 148.70653548494144 144.8221183844119 M141.23027735056144 153.72755469192694 C143.1316128490416 152.17348488171717, 145.4427955948578 149.90445325737497, 149.19085472463206 145.15350767747128 M145.231311663189 157.2095568500345 C147.31838916023926 155.00760679336528, 148.90776108566826 154.23735200955926, 152.89189721465374 148.81466406055776 M145.54157553304165 157.86085244614182 C147.32700648642867 156.01560081105833, 149.09639760137935 154.22129952209806, 153.77232887479587 149.26418147497878" stroke="none" stroke-width="0.8" fill="none"></path><path d="M144.50687506976314 142.43630401441555 C145.8484314294933 142.22042444847915, 146.82250400587145 143.81682530781563, 148.06501870695104 144.66948198188388 C149.30753340803062 145.52213865595212, 151.49248780523305 146.17246883042958, 151.96196327624065 147.55224405882507 C152.43143874724825 148.93201928722056, 151.6302807537134 151.45746059060974, 150.88187153299657 152.94813335225675 C150.13346231227973 154.43880611390375, 148.73560532256772 155.90666548351294, 147.47150795193966 156.49628062870715 C146.2074105813116 157.08589577390137, 144.71932358735467 157.02878914278358, 143.29728730922815 156.485824223422 C141.87525103110164 155.9428593040604, 139.77426565689316 154.30635674288953, 138.93929028318053 153.23849111253767 C138.1043149094679 152.1706254821858, 138.01145002271616 151.36717497093738, 138.28743506695238 150.0786304413109 C138.5634201111886 148.79008591168443, 139.3914363079296 146.74815091364607, 140.5952005485978 145.50722393477878 C141.798964789266 144.26629695591149, 144.53028191393517 142.9535937001943, 145.51002051096162 142.6330685681071 C146.48975910798808 142.3125434360199, 146.50611511849303 143.52973269561247, 146.47363213075658 143.58407314225556 M141.2785376185063 144.77161789393205 C142.45155519380899 144.09285948517433, 145.71670594757586 143.4927893626726, 147.25307114735534 143.5483823316507 C148.78943634713482 143.60397530062883, 149.57990173663273 143.64800361440848, 150.49672881718323 145.10517570780073 C151.41355589773372 146.56234780119297, 152.75181495950068 150.37328870064223, 152.75403363065834 152.29141489200424 C152.756252301816 154.20954108336625, 151.5512739904616 156.06069260172114, 150.51004084412912 156.61393285597282 C149.46880769779665 157.1671731102245, 148.08906990491778 155.84308116990087, 146.50663475266344 155.61085641751433 C144.9241996004091 155.37863166512778, 142.53406756711888 155.7561961812283, 141.01542993060318 155.2205843416536 C139.49679229408747 154.6849725020789, 137.9714875684316 154.0154738367068, 137.39480893356924 152.39718538006613 C136.81813029870688 150.77889692342546, 136.88736035842513 147.05023423636143, 137.55535812142892 145.51085360180957 C138.22335588443272 143.9714729672577, 140.4762481363272 143.5960849846567, 141.40279551159202 143.16090157275502 C142.32934288685684 142.72571816085335, 143.0541853019063 142.56527777408772, 143.1146423730179 142.89975313039955" stroke="#000000" stroke-width="1.6" fill="none"></path></g><g><path d="M146.72792264574892 158.44061930275382 C146.82281409093912 164.87507534233248, 143.30683954172875 175.88764095738793, 145.68742512846114 183.8585707988209 M145.21502549985811 156.23025193381974 C145.26442042106785 163.44163788330243, 144.79644493397961 170.0208044957584, 144.3155478989996 184.8962948903113" stroke="#000000" stroke-width="1.6" fill="none"></path></g><g><path d="M146.54016469177193 182.45546513605998 C140.92333507608956 190.7193366203689, 140.11347233176144 197.47682972400594, 137.11984417805218 201.71360010839345 M144.12512617293234 184.3089816034283 C141.20246399383626 190.81452934698072, 138.92336496819493 196.9968780406711, 136.41194758012813 200.87221817812437" stroke="#000000" stroke-width="1.6" fill="none"></path></g><g><path d="M143.47357183134295 183.14092290596082 C145.94094110149905 188.90913180531132, 148.06793100088348 190.33909158044858, 152.648110223362 200.3642061172364 M144.31776063891402 183.80764901970494 C148.524099034269 190.40357890402305, 150.52092629279596 195.7428042035715, 152.76768602002784 199.85940413537347" stroke="#000000" stroke-width="1.6" fill="none"></path></g><g><path d="M156.3143238938745 130.64931541690333 C155.46971626572474 148.54487954633538, 154.48236964661052 161.86984715798795, 150.9512606077765 179.12915974377063 M156.61338654264011 131.73573857222885 C155.43244369337532 141.76760036004927, 154.18782876769802 152.5576177255108, 150.05915555771043 180.93522214368656" stroke="#000000" stroke-width="1.4" fill="none"></path></g><g><path d="M139.43073849623153 225.88131829325255 C139.43073849623153 225.88131829325255, 139.43073849623153 225.88131829325255, 139.43073849623153 225.88131829325255 M139.43073849623153 225.88131829325255 C139.43073849623153 225.88131829325255, 139.43073849623153 225.88131829325255, 139.43073849623153 225.88131829325255 M139.09837513534436 234.8124503609816 C142.4756590472762 230.798937157654, 143.89439745795275 229.7573281827188, 148.32433547483646 223.23355604395826 M139.92722234783565 233.97707392628854 C141.7776432534841 231.10052333044277, 145.3237567335275 228.5673433631576, 148.62476373704206 224.3468204803116 M146.54311113489717 237.71865603936482 C148.07497782048227 233.98638951412488, 151.04652661341188 229.92876665398714, 152.092237128202 229.4522603220658 M145.86858533924283 236.65500447742178 C147.3532902248484 234.88022618863295, 149.38690436068225 232.42001313502303, 153.46415924972655 228.28361529815953" stroke="none" stroke-width="0.8" fill="none"></path><path d="M147.65309560259692 222.76807301458638 C149.08547178671864 223.44892365328505, 151.83960193772106 226.21650246825433, 152.55453456374315 227.6977282890814 C153.26946718976524 229.17895410990846, 152.42151799475738 230.44070552482995, 151.94269135872946 231.6554279395488 C151.46386472270154 232.87015035426762, 151.0075239461438 234.08161948054487, 149.68157474757558 234.98606277739438 C148.35562554900736 235.8905060742439, 145.56263560804578 237.07357233519, 143.98699616732011 237.08208772064577 C142.41135672659445 237.09060310610155, 141.33094658617213 236.1194552769977, 140.22773810322158 235.03715509012906 C139.12452962027103 233.9548549032604, 137.53355732193475 232.0763216471318, 137.36774526961688 230.58828659943384 C137.201933217299 229.10025155173588, 138.3332295803969 227.19418642051164, 139.2328657893144 226.1089448039413 C140.13250199823187 225.02370318737098, 141.3020898153894 224.27203685521118, 142.76556252312173 224.0768369000118 C144.22903523085407 223.88163694481244, 146.90473700213818 224.84833713989923, 148.0137020357084 224.93774507274503 C149.12266706927863 225.02715300559083, 149.5019282774333 224.76041390340163, 149.4193527245432 224.61328449708662 M143.5043968645651 224.2595334782203 C144.76763220178987 223.73039819448044, 146.2858708823817 223.31124136306732, 147.38714370167935 223.70379240142205 C148.488416520977 224.09634343977677, 149.52142493711594 225.16806769042864, 150.11203378035114 226.61483970834863 C150.70264262358634 228.0616117262686, 151.25165387973695 231.08007272659202, 150.9307967610906 232.384424508942 C150.60993964244423 233.688776291292, 149.41304790239127 233.69983045802007, 148.18689106847302 234.4409504024485 C146.96073423455476 235.1820703468769, 144.8199670555074 236.96041365625717, 143.573855757581 236.83114417551243 C142.32774445965458 236.7018746947677, 141.8011845364004 234.8556410038127, 140.7102232809146 233.66533351797997 C139.61926202542878 232.47502603214724, 137.25858442964332 231.01976370329248, 137.02808822466605 229.68929926051595 C136.79759201968878 228.35883481773942, 138.40176244139641 226.80137403594574, 139.32724605105096 225.68254686132082 C140.2527296607055 224.5637196866959, 141.88615247259992 223.4040681581059, 142.58098988259331 222.97633621276634 C143.2758272925867 222.54860426742678, 143.53866889413885 222.74517392975133, 143.4962705110113 223.1161551892835" stroke="#000000" stroke-width="1.6" fill="none"></path></g><g><path d="M146.73848987762784 236.92104883584912 C147.09017407314795 243.71799392193643, 143.61351187759166 251.87254977370512, 146.5814085418662 265.50102755386376 M144.0348399300408 236.27241946738263 C144.10755567341536 247.5322089607276, 144.68701578793772 256.3766685488221, 145.3778668832628 264.3333010393397" stroke="#000000" stroke-width="1.6" fill="none"></path></g><g><path d="M145.20053002665367 265.31917306009717 C141.6987567322081 270.3648564789412, 140.39485173836624 274.4932578739124, 138.72678877392667 279.0463290190206 M145.16061724007832 264.65179706596047 C143.41455502982595 269.14494585235565, 139.45959405945234 273.9705473966125, 137.85332946408462 280.83439583630155" stroke="#000000" stroke-width="1.6" fill="none"></path></g><g><path d="M144.52073456016697 262.81398664142455 C147.55645502028588 267.4310290634143, 148.50289385910938 272.08532069053, 151.72497999020672 280.1704620606771 M144.6695985204606 263.2410255316734 C147.5934084432619 267.93346995635545, 149.56089053329606 273.9007013797244, 153.39605079195442 280.16240607587594" stroke="#000000" stroke-width="1.6" fill="none"></path></g><g><path d="M158.9688249889088 211.6295704724875 C154.36166234374613 225.06457741297805, 152.68573454593584 236.18845648730868, 149.05018028824023 259.63465517642703 M157.84661362840615 212.56385076579616 C156.29846815720074 224.79899691077293, 154.3545180460922 236.01939968325513, 150.99100747405703 259.0997190410333" stroke="#000000" stroke-width="1.4" fill="none"></path></g><g><path d="M139.44895265951527 306.72294421811307 C139.44895265951527 306.72294421811307, 139.44895265951527 306.72294421811307, 139.44895265951527 306.72294421811307 M139.44895265951527 306.72294421811307 C139.44895265951527 306.72294421811307, 139.44895265951527 306.72294421811307, 139.44895265951527 306.72294421811307 M140.3124963680949 315.77205630374243 C141.30636727991129 311.63162682507647, 143.18442503969757 310.4688533801217, 147.55251552710664 304.7367477546281 M139.81908994874675 314.97533661467145 C142.73554463488196 312.54514451689505, 145.0132706778962 309.59512568788546, 148.7773543920723 305.0948962861987 M145.85320544618668 316.5913614976668 C147.77795223995588 314.8765911057247, 149.2281313774708 313.78173694619437, 152.53803450319086 311.1812746431863 M146.60508616683796 316.85156728182295 C148.16435259598344 315.4321768050766, 148.8665966591226 314.0665565395923, 151.7819466696483 310.689885288959" stroke="none" stroke-width="0.8" fill="none"></path><path d="M147.22963877914 304.3114835248138 C148.3706676184478 304.83861437712784, 149.42099441403548 306.0404793447413, 150.2487627298129 307.3153920872692 C151.07653104559034 308.59030482979705, 152.23648529085915 310.5359443250693, 152.1962486738046 311.9609599799811 C152.15601205675006 313.38597563489293, 151.17394400426454 315.06048172320135, 150.00734302748555 315.8654860167401 C148.84074205070655 316.6704903102788, 146.7906707027203 316.8002139624439, 145.1966428131307 316.7909857412135 C143.6026149235411 316.7817575199831, 141.52915569629624 316.7299929698352, 140.44317568994796 315.81011668935787 C139.35719568359968 314.8902404088805, 138.8696037391421 312.7596405851226, 138.68076277504093 311.27172805834937 C138.49192181093977 309.7838155315761, 138.54366648382756 308.1845800630603, 139.310129905341 306.8826415287185 C140.07659332685444 305.58070299437674, 141.95069608486486 303.86829914408855, 143.2795433041216 303.46009685229865 C144.60839052337835 303.05189456050874, 146.3232660674169 304.26741403591757, 147.2832132208815 304.43342777797903 C148.24316037434608 304.5994415200405, 149.03020281155324 304.60041932242825, 149.03922622490916 304.45617930466744 M144.17638390085048 303.2970442364924 C145.4603361059879 303.0985173087291, 147.3581776717737 304.2212577656079, 148.52686142298862 305.0147785242957 C149.69554517420355 305.8082992829835, 150.60727237421128 306.8475019516505, 151.18848640814002 308.05816878861907 C151.76970044206877 309.26883562558766, 152.76855578519724 311.0398287598486, 152.01414562656112 312.27877954610733 C151.259735467925 313.51773033236606, 148.11437657058107 314.56470388457103, 146.6620254563233 315.49187350617143 C145.20967434206554 316.41904312777183, 144.53489468487078 318.1481641098539, 143.30003894101458 317.84179727570955 C142.06518319715838 317.5354304415652, 140.32064823525687 314.8784518438184, 139.25289099318613 313.65367250130527 C138.1851337511154 312.4288931587921, 136.76114813482104 312.0119646499819, 136.89349548859008 310.4931212206305 C137.0258428423591 308.97427779127906, 138.9764697245728 305.77402213092694, 140.04697511580036 304.5406119251968 C141.11748050702792 303.30720171946666, 142.57139686875493 303.37526292255546, 143.31652783595544 303.09265998624977 C144.06165880315595 302.8100570499441, 144.27199006948047 302.76477657426386, 144.51776091900342 302.84499430736264" stroke="#000000" stroke-width="1.6" fill="none"></path></g><g><path d="M145.51026596395454 316.16067885173385 C146.74273069679106 325.57536594381907, 146.6394501811607 333.0055716421687, 146.15215908499533 343.6262235349335 M145.328089006632 316.3427351620697 C145.34567598825376 324.16660313027654, 145.26846985706393 332.08995043169784, 145.05899148828655 344.10117374765383" stroke="#000000" stroke-width="1.6" fill="none"></path></g><g><path d="M145.37459929395462 342.74224760548043 C141.04501799357956 348.08971798811706, 140.2066981333762 353.75786455069664, 137.75602495651341 360.5451107506392 M144.69897273593455 344.3591428324537 C143.41008855212146 347.54826710500936, 141.07485459495624 350.07338684557755, 136.17740454062542 360.1900259669595" stroke="#000000" stroke-width="1.6" fill="none"></path></g><g><path d="M143.91346448248905 342.6541752616183 C148.7532110028808 346.4211498917524, 148.38950383041265 351.1543212597432, 152.322116450652 359.09015293948636 M144.30907499014472 343.25582397978343 C147.11049018104416 349.2330281336535, 149.98735571619605 355.0280519163794, 152.79968629195838 360.7806090015747" stroke="#000000" stroke-width="1.6" fill="none"></path></g><g><path d="M155.81470958163436 292.9871918332307 C155.42192887962725 310.0544033991862, 152.05194042996177 329.12859471317176, 152.93246955599074 341.49983590556207 M156.77168780131137 292.6180693004445 C155.46166792549508 302.58252415745426, 155.13927067238737 314.5815463851853, 150.20706922411665 339.67017889112566" stroke="#000000" stroke-width="1.4" fill="none"></path></g><g><path d="M652.5602369791699 143.25780176058672 C652.5602369791699 143.25780176058672, 652.5602369791699 143.25780176058672, 652.5602369791699 143.25780176058672 M652.5602369791699 143.25780176058672 C652.5602369791699 143.25780176058672, 652.5602369791699 143.25780176058672, 652.5602369791699 143.25780176058672 M651.2858640804294 153.99084763589295 C651.9895996254955 153.19081885369218, 654.8676627547314 149.6654419429583, 658.9778413081292 143.950692360225 M650.7893519136753 154.606505150936 C653.5513545943977 150.8425159125069, 657.6891332422847 146.97694893291813, 658.7233193039048 145.51981791938186 M656.5567125898466 156.7529662218366 C658.6566015647637 155.05802646266287, 659.7570964954768 153.7385251798211, 660.1513938344604 152.46808986228288 M656.9897359245267 156.34504685392136 C657.9670768022917 155.1042918783681, 659.2118446938634 153.91356084765658, 660.3902567276211 152.7646126805207" stroke="none" stroke-width="0.8" fill="none"></path><path d="M656.1440793010663 143.34921344131737 C657.6198412286299 143.47256825891841, 660.3733425443796 144.94328093025314, 661.2552208033645 145.9892381168658 C662.1370990623494 147.03519530347847, 661.771477495605 148.07293056318372, 661.4353488549758 149.6249565609933 C661.0992202143466 151.17698255880288, 660.032338034255 154.19591643038135, 659.2384489595893 155.30139410372323 C658.4445598849236 156.4068717770651, 657.8888540016625 156.06444153288274, 656.6720144069814 156.25782260104464 C655.4551748123002 156.45120366920654, 653.2799675357323 157.00969306510964, 651.9374113915028 156.46168051269464 C650.5948552472732 155.91366796027964, 649.0771432191332 154.42804152647867, 648.6166775416037 152.9697472865546 C648.1562118640743 151.51145304663052, 648.5614890987408 149.27980497190578, 649.1746173263265 147.71191507315024 C649.7877455539121 146.1440251743947, 650.9457307696116 144.09140354563385, 652.2954469071176 143.56240789402142 C653.6451630446236 143.03341224240899, 656.085354267343 144.16381380680048, 657.2729141513622 144.5379411634756 C658.4604740353815 144.91206852015074, 659.3964845599692 145.95447470881584, 659.4208062112334 145.8071720340722 M655.2868520488993 144.6555212489024 C656.6662951214464 144.97061353996065, 659.3057246472556 146.28717597316344, 660.5120340194882 147.33681656045871 C661.7183433917207 148.386457147754, 662.7695295794927 149.50942282449358, 662.5247082822946 150.95336477267404 C662.2798869850965 152.3973067208545, 660.3430397408815 154.84808337159663, 659.0431062362999 156.00046824954146 C657.7431727317182 157.15285312748628, 655.8269028696019 157.9700731663781, 654.7251072548044 157.86767404034296 C653.6233116400068 157.7652749143078, 653.4230731993605 156.29783162226053, 652.4323325475148 155.38607349333057 C651.441591895669 154.4743153644006, 649.5231873300733 153.87176886584086, 648.7806633437298 152.39712526676317 C648.0381393573863 150.92248166768547, 647.6685417423022 148.0919596076012, 647.9771886294538 146.53821189886438 C648.2858355166055 144.98446419012754, 649.0243392050888 143.64758311816462, 650.6325446666397 143.07463901434207 C652.2407501281905 142.50169491051952, 656.4693506161391 142.87938392972694, 657.626421398759 143.10054727592905 C658.783492181379 143.32171062213115, 657.740993125288 144.39495957563042, 657.5749693623595 144.40161909155472" stroke="#000000" stroke-width="1.6" fill="none"></path></g><g><path d="M653.7438465592866 156.37491172798283 C653.6665281153465 164.38812158544135, 655.3516088693023 175.7411081500574, 653.3340464212869 184.376946330985 M654.2631426794417 156.3481903122905 C655.07881803948 164.13747830000634, 655.6716473854691 171.56206906453798, 654.0493973502585 184.91332823693924" stroke="#000000" stroke-width="1.6" fill="none"></path></g><g><path d="M653.8985316475405 185.37401400724053 C654.4058420367605 187.5696062466341, 652.8274167039883 191.77491214365725, 645.8492968932167 198.35489167330667 M654.3040998652473 184.82892170099652 C652.392084794939 187.35857033663757, 650.3947289151272 192.96153467970316, 647.1459265509701 199.13136226668885" stroke="#000000" stroke-width="1.6" fill="none"></path></g><g><path d="M655.6665364999023 185.5298008271752 C658.6534986896756 188.53916177526247, 657.1130611168106 190.75962397262202, 661.2567899835312 200.63539258957678 M654.3166612531725 183.58423781852233 C658.1846406891618 189.62333876609043, 660.4437670110361 196.0343652240435, 662.3812111310303 199.12312405637957" stroke="#000000" stroke-width="1.6" fill="none"></path></g><g><path d="M643.2353271987865 132.7832958980074 C643.6295073170717 149.29546863669665, 648.4240557675076 167.4072191763805, 649.0731251178646 179.29078844413488 M643.5171467373902 132.68819982589386 C645.8444076233853 147.79619782547934, 646.5343597121596 162.5094636393319, 649.070930279777 180.07744176779738" stroke="#000000" stroke-width="1.4" fill="none"></path></g><g><path d="M649.6710644438494 225.54711396669367 C649.6710644438494 225.54711396669367, 649.6710644438494 225.54711396669367, 649.6710644438494 225.54711396669367 M649.6710644438494 225.54711396669367 C649.6710644438494 225.54711396669367, 649.6710644438494 225.54711396669367, 649.6710644438494 225.54711396669367 M648.7756229206935 234.93887732556752 C652.3952855237361 230.8377424131461, 655.4959409358745 226.69983841077885, 658.9119503199762 224.51435537065234 M648.2381814097901 235.59785168998522 C652.1857415800358 230.79936833007997, 656.8943290491578 226.87794347682708, 658.2259708842483 224.16019001148456 M656.4262349365273 236.95771354657933 C657.5987423880154 235.16323886297755, 659.0213425702536 234.03719563207804, 661.7059333277774 229.63918242727917 M656.2254419369257 236.05507517715296 C657.2715637005649 234.8239344771552, 659.2383710530515 232.65203351322063, 661.5761586733655 229.81402771380715" stroke="none" stroke-width="0.8" fill="none"></path><path d="M653.3882079412023 223.36239763617584 C654.9335968117881 223.0105829453949, 656.7002176138749 222.74519249348367, 658.1245732223754 223.27793802505872 C659.5489288308759 223.81068355663376, 661.3092236113406 225.26750777304323, 661.934341592205 226.5588708256262 C662.5594595730694 227.85023387820917, 662.5307920540085 229.51928007661712, 661.8752811075616 231.0261163405565 C661.2197701611146 232.5329526044959, 659.2746385935081 234.59913446033335, 658.0012759135232 235.5998884092626 C656.7279132335382 236.60064235819186, 655.7308316612098 237.0354095490407, 654.2351050276515 237.03064003413198 C652.7393783940931 237.02587051922325, 650.2474017669525 236.6017567896081, 649.0269161121735 235.57127131981022 C647.8064304573944 234.54078585001236, 646.8022957136017 232.52133897191246, 646.9121910989774 230.84772721534478 C647.022086484353 229.1741154587771, 648.463226626816 226.85954182900278, 649.6862884244277 225.52960078040417 C650.9093502220395 224.19965973180555, 653.1823647889856 223.3232827292648, 654.250561884648 222.86808092375304 C655.3187589803105 222.41287911824128, 656.2040827671728 222.51604085234084, 656.095470998402 222.7983899473336 M657.437821784806 222.52962935674722 C659.059469386133 223.27976492956154, 661.9841967582959 226.45867923512492, 662.5930799770038 227.77510931032174 C663.2019631957116 229.09153938551856, 661.6778928424468 229.19480130423233, 661.0911210970537 230.42820980792817 C660.5043493516606 231.661618311624, 660.1863308788264 234.36660955958277, 659.0724495046454 235.17556033249673 C657.9585681304644 235.9845111054107, 655.7801864017538 235.06508635289265, 654.4078328519676 235.28191444541196 C653.0354793021813 235.49874253793126, 652.0477379147613 237.30716002816274, 650.838328205928 236.47652888761257 C649.6289184970946 235.6458977470624, 647.7066330012958 231.76663340489327, 647.151374598967 230.29812760211092 C646.5961161966381 228.82962179932858, 646.7319032986572 228.62335656201753, 647.5067777919547 227.66549407091853 C648.2816522852522 226.70763157981952, 650.2462670932861 225.1165325526446, 651.800621558752 224.5509526555169 C653.354976024218 223.98537275838922, 656.1017273208391 224.5080675435106, 656.8329045847503 224.27201468815232 C657.5640818486614 224.03596183279404, 655.9822402344925 223.0759927864711, 656.187685142219 223.1346355233673" stroke="#000000" stroke-width="1.6" fill="none"></path></g><g><path d="M656.7337146605875 235.88658996802866 C655.0780205293153 245.81889551002973, 656.9998020449378 257.0023386294814, 655.082813253118 264.36879085768203 M654.7876107184514 236.76066575171586 C654.3814838346332 245.48889249751028, 656.1729458669373 254.42180085230638, 655.9297485513368 264.1344000467955" stroke="#000000" stroke-width="1.6" fill="none"></path></g><g><path d="M654.5396045890508 264.6589591300234 C654.6407517576226 267.8392339019393, 652.3674888004441 272.8597319118366, 645.4089950915817 280.82363831153407 M655.3094221775694 263.75380364632537 C653.1022340951989 269.37455274209606, 650.3778676074535 273.1784413057098, 647.684789283513 280.5218936705963" stroke="#000000" stroke-width="1.6" fill="none"></path></g><g><path d="M654.6162639731826 262.5251583324 C656.3354206394433 265.9912410127626, 658.0378899682942 271.1009672460165, 661.9301016059184 281.190237386223 M654.9347401875914 263.82107332917127 C657.6879427025954 268.62585517351766, 659.9998452248959 273.582516962825, 662.7151702431897 279.49114388309624" stroke="#000000" stroke-width="1.6" fill="none"></path></g><g><path d="M642.5034350883152 213.51042497836676 C645.721972795031 223.29878994800202, 645.6288337558484 234.1068982083714, 647.5070683851914 260.23746652820404 M642.915415492378 211.60984863210376 C643.3380316684684 221.70272197006278, 645.9550221039059 232.73717154136233, 649.8655876586159 260.25152923032056" stroke="#000000" stroke-width="1.4" fill="none"></path></g><g><path d="M651.3403632979375 303.84896693623534 C651.3403632979375 303.84896693623534, 651.3403632979375 303.84896693623534, 651.3403632979375 303.84896693623534 M651.3403632979375 303.84896693623534 C651.3403632979375 303.84896693623534, 651.3403632979375 303.84896693623534, 651.3403632979375 303.84896693623534 M651.3336082738298 313.379007930872 C652.0705876793718 311.6860309035327, 653.991812008501 309.63330997909674, 657.8431628650138 304.7725985972226 M650.5371260843694 313.5370146626237 C653.1424746542049 310.0219809676195, 656.284159932449 306.98728515611043, 659.0706553963736 305.11779393525256 M655.4732810120009 318.4253892350394 C656.7850868474446 316.588323919189, 660.4449180630477 313.1759204760112, 663.7719097602837 306.8601751080971 M654.9520986017208 319.08502249836715 C657.9053306072124 315.20607211129754, 661.3496633394866 310.91200240412365, 663.1673478575078 308.44444836588934" stroke="none" stroke-width="0.8" fill="none"></path><path d="M651.6120145859153 303.5364678767649 C652.8542568890541 303.0263997125455, 655.5234848778409 303.5681038384167, 656.9436550504743 303.83572615333094 C658.3638252231076 304.1033484682452, 659.3270722358978 304.0825203967245, 660.1330356217153 305.1422017662504 C660.9389990075327 306.20188313577637, 661.6706864520107 308.59303262924936, 661.7794353653791 310.19381437048673 C661.8881842787474 311.7945961117241, 661.6765854594835 313.7262878354675, 660.7855291019255 314.7468922136747 C659.8944727443675 315.7674965918819, 658.0241805473432 316.1006520277065, 656.4330972200307 316.3174406397302 C654.8420138927182 316.5342292517539, 652.6971987868059 316.8113354937157, 651.2390291380505 316.0476238858171 C649.780859489295 315.28391227791843, 647.9681715969834 313.27322503155824, 647.6840793274985 311.7351709923384 C647.3999870580135 310.19711695311855, 648.8655583179471 308.11708936181753, 649.5344755211408 306.8192996504979 C650.2033927243345 305.52150993917826, 650.9873009309322 304.63676892119025, 651.6975825466607 303.94843272442074 C652.4078641623892 303.2600965276512, 653.722786659681 302.7282334318535, 653.7961652155117 302.6892824698809 M652.1852508105943 302.80550600258323 C653.4457730483516 302.2357020006773, 657.0250561029766 301.58215312816026, 658.5966073352652 302.44666280263357 C660.1681585675537 303.3111724771069, 661.2142819038042 306.40566710591554, 661.6145582043259 307.9925640494229 C662.0148345048476 309.5794609929303, 661.248011863441 310.7231277378816, 660.9982651383956 311.96804446367787 C660.7485184133502 313.21296118947413, 660.8943550475923 314.6386929310943, 660.1160778540534 315.46206440420053 C659.3378006605145 316.2854358773068, 657.8234732773747 317.0269144571329, 656.3286019771622 316.9082733023155 C654.8337306769497 316.7896321474981, 652.6574463703271 315.51562537437894, 651.1468500527787 314.7502174752961 C649.6362537352304 313.98480957621325, 647.6089508753948 313.64458325302064, 647.2650240718721 312.31582590781846 C646.9210972683493 310.9870685626163, 648.0632083878515 308.0771279423412, 649.0832892316417 306.7776734040831 C650.1033700754319 305.478218865825, 652.7662392715262 305.08181490263735, 653.3855091346134 304.51909867827004 C654.0047789977006 303.95638245390273, 652.8274996397699 303.68168802744174, 652.7989084101652 303.40137605787913" stroke="#000000" stroke-width="1.6" fill="none"></path></g><g><path d="M654.7095062054658 318.35026782612545 C655.545550399837 324.06572246181224, 655.1176386413068 332.8300254053055, 653.2639929120727 342.54601189375785 M654.1054677749606 316.4135229359288 C654.3585785971228 323.68918868634825, 655.3795701141187 329.6233886600168, 655.7562178860207 344.89472600965564" stroke="#000000" stroke-width="1.6" fill="none"></path></g><g><path d="M653.3970108589693 345.2698301254284 C652.756706041582 348.4322499801402, 648.9184821125107 351.53924143373945, 647.5680086202484 358.8099119091254 M654.141797336326 344.1151548733862 C652.5377573614257 349.1942067626677, 650.1177650108019 353.63844204929455, 647.7990140358422 360.2145557040872" stroke="#000000" stroke-width="1.6" fill="none"></path></g><g><path d="M654.6834914291002 343.0728141028606 C659.1103715732216 349.0076507000362, 661.1509289336922 355.47500611062316, 662.5629554870321 359.6028686088274 M654.5250809531065 343.6211414573888 C656.8589428217402 350.1350528081293, 660.0485900364464 354.74212025406047, 663.3244740790057 359.39042402285753" stroke="#000000" stroke-width="1.6" fill="none"></path></g><g><path d="M641.7511488533887 291.7049603013312 C646.4501431044274 304.11106399761104, 646.6802293274047 318.52224424213125, 649.3649762747593 339.3491513878397 M643.2557142043814 292.89888626359425 C646.2342519982631 311.11841093437494, 647.5898025917993 328.4544928917224, 648.5165393341781 339.4577985808866" stroke="#000000" stroke-width="1.4" fill="none"></path></g><g><path d="M693.1177783432828 146.71362274647169 C693.1177783432828 146.71362274647169, 693.1177783432828 146.71362274647169, 693.1177783432828 146.71362274647169 M693.1177783432828 146.71362274647169 C693.1177783432828 146.71362274647169, 693.1177783432828 146.71362274647169, 693.1177783432828 146.71362274647169 M694.8908074264085 155.0273100138651 C696.3657321885835 150.9255917897101, 701.882373121654 147.53425878283704, 704.0306515827175 144.08782683406943 M695.0406974936514 153.9359394850581 C698.3909636839121 149.90213809128306, 700.8985415298894 146.03347371010747, 703.6094017782689 143.67604347366668 M701.1758910957332 156.6340946197971 C701.8602208907505 154.39637642481756, 703.6247085016305 153.66201158874964, 707.0781522821724 148.49083325949766 M700.0491598410455 157.16330228621027 C701.7557329629807 154.03450458444968, 704.5374605302223 152.14600028458702, 706.8391977009685 149.1643760567936" stroke="none" stroke-width="0.8" fill="none"></path><path d="M697.4471583171631 144.0744305509122 C698.7006840535844 143.20035059282216, 700.0937313648772 142.66613002223187, 701.5249273329973 142.81802551079582 C702.9561233011175 142.96992099935977, 705.1642849387079 143.6016761816738, 706.0343341258844 144.9858034822959 C706.9043833130609 146.36993078291798, 706.7605071038236 149.38556766830393, 706.745222456056 151.12278931452826 C706.7299378082885 152.8600109607526, 707.0362606894896 154.5449048465493, 705.9426262392788 155.40913335964183 C704.8489917890679 156.27336187273437, 701.9807938701665 156.31468208096942, 700.1834157547911 156.30816039308354 C698.3860376394157 156.30163870519766, 696.4316884435679 156.2231469490211, 695.158357547026 155.37000323232658 C693.8850266504841 154.51685951563206, 692.8887705926272 152.62599600648187, 692.5434303755399 151.18929809291646 C692.1980901584525 149.75260017935105, 691.8938930175015 148.23724636158158, 693.0863162445019 146.74981575093418 C694.2787394715023 145.26238514028677, 698.4453084089124 142.9817367962849, 699.6979697375424 142.264714429032 C700.9506310661724 141.54769206177912, 700.7796599205535 142.33663376201667, 700.6022842162819 142.4476815474169 M701.4112068445711 141.80667628584186 C703.0389762480089 141.98443844232648, 703.9430475012522 143.39273176172432, 705.0581306257274 144.58758913748503 C706.1732137502025 145.78244651324573, 708.1545366028406 147.63942720142342, 708.101705591422 148.97582054040606 C708.0488745800035 150.3122138793887, 705.9300370411326 151.53180880117822, 704.7411445572159 152.6059491713809 C703.5522520732992 153.68008954158358, 702.2056253300203 154.58132861883018, 700.9683506879222 155.4206627616221 C699.7310760458241 156.25999690441404, 698.5795781305337 157.86342199422276, 697.3174967046272 157.64195402813237 C696.0554152787206 157.420486062042, 694.1954456417018 155.61923601518197, 693.3958621324826 154.0918549650798 C692.5962786232635 152.5644739149776, 692.2364769623243 150.1495779012097, 692.5199956493126 148.47766772751928 C692.8035143363009 146.80575755382884, 693.845265673249 144.78279092708198, 695.0969742544124 144.06039392293715 C696.3486828355759 143.33799691879233, 699.2137948691686 144.32528447582524, 700.0302471362933 144.14328570265033 C700.8466994034179 143.96128692947542, 700.1410831893753 142.979083865995, 699.9956878571603 142.96840128388763" stroke="#000000" stroke-width="1.6" fill="none"></path></g><g><path d="M701.8022361977091 158.37385786477552 C699.4459567468418 165.68195655947574, 701.1362618881442 170.18711483124116, 698.7696629662887 182.35311843271938 M700.9885046965913 156.38726052112602 C699.769812486392 164.70242105311195, 700.8329805380587 172.82194730774478, 699.9810834716213 183.81195021563366" stroke="#000000" stroke-width="1.6" fill="none"></path></g><g><path d="M701.7152062885583 182.46262560865426 C696.8623133080519 189.17958163595966, 696.323343827422 193.8896436021292, 691.1422273406957 199.66036057400902 M699.8641554060525 183.74549286520798 C696.9674422526923 188.5195382296259, 694.989256990932 194.30964069052453, 691.6579186370353 199.97302420418643" stroke="#000000" stroke-width="1.6" fill="none"></path></g><g><path d="M700.9148492932293 183.72087327612513 C702.762389599168 188.64965469181033, 706.0033180188134 195.30615638200234, 709.3175417116126 200.9159760834788 M700.4619368918247 184.34392501512775 C701.416745279524 187.6282462772066, 703.4342648259048 190.67080654136936, 708.3289515322152 199.3857284436406" stroke="#000000" stroke-width="1.6" fill="none"></path></g><g><path d="M689.1254158512098 132.41344529967049 C690.6221912516062 141.45657256306617, 690.7482080599627 150.10834611040696, 695.2365620961299 180.4964788713164 M687.7934145803887 131.92622328534353 C690.2743645823066 150.61694505228996, 692.1113090630256 168.81624554583206, 693.4348861968328 180.11351430699816" stroke="#000000" stroke-width="1.4" fill="none"></path></g><g><path d="M693.3032329807185 227.70062859753855 C693.3032329807185 227.70062859753855, 693.3032329807185 227.70062859753855, 693.3032329807185 227.70062859753855 M693.3032329807185 227.70062859753855 C693.3032329807185 227.70062859753855, 693.3032329807185 227.70062859753855, 693.3032329807185 227.70062859753855 M696.2269613122088 233.25798320938748 C699.2469139886591 232.05885996369048, 700.4385549346595 227.74410757028812, 703.1496486554919 225.1801477295966 M695.4706518026982 234.43365838083508 C698.8491617548727 230.8544830892048, 701.718175584423 227.16442680793105, 704.6053839258278 223.69067855888176 M700.3228684858019 236.715438457217 C703.2739764922144 235.95487018105266, 704.4390917032866 233.4860961014595, 707.7090566309319 229.64364958045462 M701.1547313389625 236.73077726511642 C703.129507719436 234.43099836804524, 705.7448783174497 232.03026086310553, 706.9204207867607 230.65815435918435" stroke="none" stroke-width="0.8" fill="none"></path><path d="M702.4195455033829 222.44371573277974 C703.7463489946681 222.9991499805959, 705.5053826684166 225.53012805597322, 706.2714804853983 227.00806792406536 C707.0375783023801 228.4860077921575, 707.3523860226918 229.78860045475977, 707.0161324052735 231.3113549413326 C706.6798787878553 232.83410942790545, 705.342042155026 235.28549006289853, 704.2539587808885 236.14459484350243 C703.1658754067511 237.00369962410633, 701.8442731647988 236.55896803544064, 700.4876321604487 236.465983624956 C699.1309911560986 236.37299921447138, 697.3312459853771 236.35976112898007, 696.1141127547882 235.58668838059458 C694.8969795241992 234.8136156322091, 693.6255962868053 233.173774563083, 693.1848327769148 231.82754713464305 C692.7440692670244 230.48131970620312, 692.6438095777154 228.85969524691012, 693.4695316954455 227.50932380995508 C694.2952538131757 226.15895237300003, 696.5632552247273 224.2894264491085, 698.139165483296 223.72531851291285 C699.7150757418647 223.1612105767172, 701.9411052016071 223.8781795874445, 702.924993246858 224.12467619278112 C703.9088812921088 224.37117279811775, 704.1319606317224 225.12136307802194, 704.0424937548008 225.2042981449326 M697.5583452274153 224.8150706788389 C698.438657078406 224.49930329823093, 699.8389115376494 224.30202477776987, 701.1372642323277 224.30856728992293 C702.4356169270059 224.315109802076, 704.4889752279278 223.81898725513736, 705.348461395485 224.85432575175736 C706.2079475630421 225.88966424837736, 706.2014003086239 228.64569406399244, 706.294181237671 230.52059826964285 C706.386962166718 232.39550247529326, 707.0716088548047 235.1620150760632, 705.9051469697673 236.10375098565973 C704.7386850847299 237.04548689525626, 700.8051095826161 236.36814589495913, 699.2954099274467 236.17101372722195 C697.7857102722774 235.97388155948477, 697.9468191730516 235.64158588354883, 696.8469490387514 234.92095797923668 C695.7470789044512 234.20033007492452, 693.2386146235932 233.16289062551473, 692.6961891216453 231.84724630134912 C692.1537636196973 230.5316019771835, 692.7469900307055 228.30150349326397, 693.5923960270636 227.027092034243 C694.4378020234217 225.75268057522203, 697.3783753295106 224.70080969422023, 697.7686250997937 224.2007775472234 C698.1588748700767 223.70074540022657, 695.8904408557363 223.79382033360096, 695.9338946487617 224.02689915226205" stroke="#000000" stroke-width="1.6" fill="none"></path></g><g><path d="M700.650857239534 237.18938525554225 C698.8333702012038 246.16563531239314, 700.09905761677 252.52763721723136, 700.1329739159047 264.60327073967983 M700.5139540721435 236.9199907072618 C699.6660217275665 246.80234982749676, 699.382329811526 257.4811556904172, 699.9743601867063 263.7040080066989" stroke="#000000" stroke-width="1.6" fill="none"></path></g><g><path d="M699.196169180035 264.85817959027645 C696.6582921496661 269.03939356302897, 696.833031688681 271.2847578533467, 693.7121886439392 279.50780471320195 M699.6844195375086 264.23552912625206 C696.3174433947412 270.67867798153185, 693.1296880816125 276.4248601089642, 691.4708779055383 279.70708404998953" stroke="#000000" stroke-width="1.6" fill="none"></path></g><g><path d="M700.9055796139854 262.9878913284247 C703.8074198952173 270.8564250219099, 705.681434020352 275.08432958116964, 707.4218466926806 279.6254348438836 M699.5299788459273 264.05001953961573 C701.2365037482664 269.3207239519004, 704.8196675621997 272.62452782589276, 707.1257894707979 279.79239665514314" stroke="#000000" stroke-width="1.6" fill="none"></path></g><g><path d="M686.0456366541201 211.8276532266466 C690.3467824026745 227.13528373235087, 693.2833193371212 239.43154627419412, 692.115558576255 261.80849549628346 M687.2979931814438 212.38065626703272 C690.067743854294 228.82286161933547, 690.9899481168559 243.24430918426498, 694.4828522741203 259.59760946594434" stroke="#000000" stroke-width="1.4" fill="none"></path></g><g><path d="M698.3024128659696 302.2720380192319 C698.3024128659696 302.2720380192319, 698.3024128659696 302.2720380192319, 698.3024128659696 302.2720380192319 M698.3024128659696 302.2720380192319 C698.3024128659696 302.2720380192319, 698.3024128659696 302.2720380192319, 698.3024128659696 302.2720380192319 M695.3347672336189 315.0333876439031 C699.0364074641304 312.63378882832666, 701.6069904501963 307.8569633522504, 705.071589276439 304.37199923556636 M695.3350427764614 314.0976010991919 C698.169111065024 310.5971258158065, 700.7010145108416 307.6195033085672, 704.8708737057594 303.2890914864254 M701.2345349162235 316.0371252142551 C703.1338481931651 314.8466661983201, 706.242098788408 312.8391947234719, 707.9194182951921 308.78272151068836 M702.4988526056746 316.17264789954885 C703.8785815916679 314.30939505429234, 706.27094085045 311.33818094432405, 708.1817843449585 309.3465720414531" stroke="none" stroke-width="0.8" fill="none"></path><path d="M698.1346433728023 302.4650347438669 C699.575484095741 301.9601066804784, 702.7008513151729 302.06184709456403, 704.2981735323939 302.9640905598356 C705.8954957496148 303.86633402510716, 707.2304803382484 306.16527889875647, 707.7185766761277 307.8784955354963 C708.2066730140069 309.59171217223616, 707.9581356379688 311.93539013491164, 707.2267515596697 313.2433903802746 C706.4953674813705 314.55139062563757, 704.8506519859083 314.9794535589357, 703.3302722063326 315.72649700767397 C701.8098924267568 316.47354045641225, 699.4582472153256 317.9922986069851, 698.1044728822156 317.7256510727044 C696.7506985491057 317.4590035384237, 696.1861614596235 315.53769569951487, 695.207626207673 314.12661180198967 C694.2290909557225 312.71552790446447, 692.2029884816086 310.5853730174936, 692.2332613705128 309.25914768755325 C692.2635342594169 307.9329223576129, 694.2425776642219 307.3680894208609, 695.389263541098 306.16925982234756 C696.535949417974 304.9704302238342, 698.4021154762113 302.7015112311871, 699.1133766317689 302.0661700964733 C699.8246377873265 301.43082896175946, 699.7032738551561 302.01400579446613, 699.6568304744436 302.35721301406454 M700.3021998157807 303.73968144871964 C701.4669041432822 303.81341262313157, 702.2526839484942 303.5937020995883, 703.3583954573196 304.3411350033258 C704.464106966145 305.0885679070633, 706.4568841218431 306.5954154551621, 706.9364688687332 308.2242788711446 C707.4160536156232 309.85314228712707, 706.8515763626915 312.87782790763714, 706.2359039386599 314.1143154992208 C705.6202315146284 315.3508030908045, 704.8155630728077 315.3514253858207, 703.2424343245436 315.6432044206467 C701.6693055762796 315.9349834554728, 698.4753120715287 316.3774199680822, 696.7971314490758 315.8649897081772 C695.1189508266228 315.35255944827213, 693.7136116931019 313.8236555944643, 693.1733505898262 312.5686228612164 C692.6330894865505 311.3135901279685, 693.3101926929104 309.88549600048475, 693.5555648294217 308.3347933086899 C693.8009369659329 306.784090616895, 693.7948359843025 304.3795944922782, 694.6455834088939 303.26440671044713 C695.4963308334853 302.14921892861605, 697.9152612025582 301.8760575791886, 698.6600493769703 301.64366661770333 C699.4048375513823 301.41127565621804, 698.9227740641129 301.47413732301817, 699.1143124553666 301.8700609415354" stroke="#000000" stroke-width="1.6" fill="none"></path></g><g><path d="M698.055909247362 316.6439057606805 C698.9369477476582 324.1855387573944, 700.3072704994928 334.17372806943035, 700.8185105797497 344.1655598690345 M700.9397097236933 316.3190018586793 C699.4015229322408 325.28203429509267, 699.298620621307 332.8792262028481, 699.223421189188 343.14486644806254" stroke="#000000" stroke-width="1.6" fill="none"></path></g><g><path d="M699.8275780655524 342.3081368569551 C697.8946297945312 347.99644409953123, 695.1628499564192 354.17650457728683, 690.7445347322775 361.2686489096857 M699.5138573139297 344.4362395779176 C696.8818606992969 350.4957391389855, 693.0653296321516 356.71038511327464, 691.1914210224545 359.8055674939097" stroke="#000000" stroke-width="1.6" fill="none"></path></g><g><path d="M699.4869424895124 342.38110429939996 C703.3440996087642 351.51585864588804, 704.8636514924473 356.93633660563665, 707.6095462788763 359.7487983166713 M700.8864707560828 343.70408701671784 C702.4641832354569 349.97070542349644, 705.6012869839176 356.45209849224585, 707.6651504091651 359.3914051165551" stroke="#000000" stroke-width="1.6" fill="none"></path></g><g><path d="M687.1549221724094 292.63118423147694 C688.3092901359965 303.45301059546335, 690.8358914591498 317.6164458473533, 695.3465303401192 341.8872034090806 M687.4241394359617 291.52475113283367 C689.3114894902661 309.3608595576672, 691.9216490898668 327.59651552114246, 693.5770461525876 339.1958943591197" stroke="#000000" stroke-width="1.4" fill="none"></path></g><g><path d="M737.7449327940076 147.0820394498475 C737.7449327940076 147.0820394498475, 737.7449327940076 147.0820394498475, 737.7449327940076 147.0820394498475 M737.7449327940076 147.0820394498475 C737.7449327940076 147.0820394498475, 737.7449327940076 147.0820394498475, 737.7449327940076 147.0820394498475 M740.0239606602561 154.21886513907253 C741.1036978792204 150.30321010477525, 744.5687051233288 149.45602868004687, 746.9539417359454 144.5864187280039 M739.2688706068026 154.53168053132214 C743.2894317954871 150.75315028170203, 746.1676687206343 146.64430628950024, 747.6315163363612 144.77901163605097 M744.338991652604 158.31549127479136 C747.2790706958962 156.25863687183778, 747.0321028504145 154.16338655759137, 752.8818344381673 149.54435213299263 M744.6047389478466 157.57652863047804 C746.2104388848272 154.7086256955205, 748.2941499967214 153.25340835728755, 751.8470296207086 148.84942946413594" stroke="none" stroke-width="0.8" fill="none"></path><path d="M741.3863266256022 144.4058187267489 C742.6219027443663 143.80251975098358, 745.1759636798998 142.87411174128206, 746.8364539313253 143.1210730203309 C748.4969441827508 143.36803429937973, 750.5870419435744 144.58164889473625, 751.349268134155 145.88758640104194 C752.1114943247355 147.19352390734764, 751.5923220051125 149.5924525489815, 751.4098110748091 150.9566980581651 C751.2273001445058 152.3209435673487, 751.186000404035 153.0973941600407, 750.254202552335 154.07305945614357 C749.3224047006349 155.04872475224644, 747.3364906622162 156.5355583725451, 745.8190239646091 156.81068983478238 C744.301557267002 157.08582129701966, 742.4578348373483 156.703089104764, 741.1494023666924 155.7238482295672 C739.8409698960364 154.74460735437043, 738.5179312521828 152.39614855140033, 737.9684291406734 150.9352445836018 C737.4189270291639 149.47434061580324, 737.1103953452556 148.14405934129343, 737.8523896976355 146.95842442277595 C738.5943840500155 145.77278950425847, 741.4363937727624 144.4745716948392, 742.4203952549528 143.82143507249694 C743.4043967371433 143.16829845015468, 743.5944745869252 143.10718709590913, 743.7563985907785 143.03960468872245 M744.3350657679473 142.65738138865194 C746.0772846374737 142.37117463114123, 748.8723555113934 144.4454270707956, 750.2076617783446 145.2010244610149 C751.5429680452958 145.9566218512342, 751.9554799569555 146.18169862553404, 752.3469033696548 147.1909657299677 C752.7383267823541 148.20023283440136, 753.0410385308594 149.8326629613051, 752.5562022545402 151.25662708761686 C752.0713659782209 152.68059121392864, 751.1033013621226 154.92169140524192, 749.437885711739 155.73475048783837 C747.7724700613554 156.54780957043482, 744.1800864960505 156.16724655270738, 742.5637083522389 156.13498158319567 C740.9473302084273 156.10271661368395, 740.7627955889499 156.66331175020144, 739.7396168488692 155.54116067076802 C738.7164381087886 154.4190095913346, 736.2906956360969 150.88945545894137, 736.424635911755 149.40207510659522 C736.5585761874131 147.91469475424907, 739.1360748528009 147.72722645543843, 740.5432585028183 146.61687855669118 C741.9504421528356 145.50653065794393, 744.186098618828 143.22211303377787, 744.8677378118593 142.73998771411163 C745.5493770048906 142.2578623944454, 744.7485679578043 143.76331910457472, 744.6330936610057 143.72412663869372" stroke="#000000" stroke-width="1.6" fill="none"></path></g><g><path d="M746.3580878823149 156.29383956677586 C747.0058804606052 165.83370465400787, 744.6501101072992 173.65210271897226, 744.6352622174027 184.44013198631296 M744.0579196477013 157.93937310516802 C746.1229788514877 164.6055053331099, 745.6325897253151 170.96974179877444, 745.6072758808086 184.8950242787349" stroke="#000000" stroke-width="1.6" fill="none"></path></g><g><path d="M745.422217637606 183.7072371326784 C744.3991582365818 186.96157296925986, 740.1417424912268 193.08513706210886, 736.6399369778222 201.5218523294161 M744.6005462489254 183.55808168233466 C743.1477563999878 187.75764628112938, 740.6581108105798 192.6952868291978, 736.6847239937551 199.50351833908454" stroke="#000000" stroke-width="1.6" fill="none"></path></g><g><path d="M744.1366975378165 185.039369538426 C747.199844655532 188.25793606370112, 752.8453655172709 197.00827541623704, 754.6021285676688 199.47405092757776 M745.6578127145323 184.8664609288094 C746.915831372285 187.0666696881749, 748.9903381651075 191.89386548635596, 752.9462549826264 200.6989196714037" stroke="#000000" stroke-width="1.6" fill="none"></path></g><g><path d="M731.2485749923384 130.3698802322161 C737.2667590941056 152.5667695530203, 736.551493596211 168.88459020957356, 739.857567545917 179.34657999646987 M733.3136723124682 131.98067850558633 C735.0029952547554 152.07416020433024, 738.207917012112 171.02222964438687, 738.5911545825593 180.86829460529805" stroke="#000000" stroke-width="1.4" fill="none"></path></g><g><path d="M738.662496937045 227.38044539141438 C738.662496937045 227.38044539141438, 738.662496937045 227.38044539141438, 738.662496937045 227.38044539141438 M738.662496937045 227.38044539141438 C738.662496937045 227.38044539141438, 738.662496937045 227.38044539141438, 738.662496937045 227.38044539141438 M740.5238589588195 235.30457287256584 C741.8994679140661 232.07395174887333, 745.0611963629462 229.52430708536238, 747.4611955637068 226.20653737195855 M740.2431956412655 234.1200952265969 C742.4364936823117 232.3180823693355, 744.0923529878607 230.65480496622598, 747.4576780204052 226.24845708522804 M744.4369976711142 237.63437157666726 C746.6889996162198 235.6538755214495, 749.667606733434 233.30270764084344, 752.7149406247968 229.26409458058066 M745.5726924811235 238.30598001480777 C747.3063199265611 235.26177846303872, 749.6460681532753 231.9863189591662, 753.1495159485011 229.4292229891662" stroke="none" stroke-width="0.8" fill="none"></path><path d="M746.1998136024325 224.07221522896563 C747.5416014240735 224.20196751794538, 748.8734961762967 224.18235458674854, 749.933899400491 225.0316651044839 C750.9943026246852 225.88097562221924, 752.2659241337813 227.6523560477314, 752.5622329475983 229.1680783353778 C752.8585417614154 230.6838006230242, 752.5413489315682 232.8792900371615, 751.711752283393 234.12599883036236 C750.8821556352178 235.37270762356323, 749.131575651862 236.3228928941853, 747.5846530585469 236.64833109458303 C746.0377304652318 236.97376929498077, 744.0060908328542 236.8479118382223, 742.4302167235024 236.07862803274878 C740.8543426141507 235.30934422727526, 738.7391565596093 233.5032679871922, 738.1294084024369 232.0326282617419 C737.5196602452644 230.5619885362916, 738.1670220149063 228.49700939960562, 738.7717277804675 227.254789680047 C739.3764335460287 226.01256996048838, 740.2807650918228 225.3504592398985, 741.7576429958038 224.5793099443902 C743.2345208997849 223.80816064888188, 746.5643244591328 222.7395577613184, 747.632995204354 222.6278939069972 C748.7016659495752 222.516230052676, 748.132577596528 223.7465167346803, 748.1696674671311 223.90932681846294 M741.3853073597604 223.81834640973005 C742.7804285407631 222.83562841307207, 746.2811464696088 222.28040479648072, 747.9167454141443 222.78918075085284 C749.5523443586799 223.29795670522495, 750.6404456494158 225.50446505653395, 751.1989010269735 226.8710021359627 C751.7573564045313 228.23753921539145, 751.2690393025426 229.74562644787542, 751.2674776794905 230.9884032274253 C751.2659160564384 232.23118000697517, 751.9388516649238 233.15402047921958, 751.1895312886606 234.32766281326198 C750.4402109123974 235.50130514730438, 748.3710848254091 238.04034688173687, 746.7715554219114 238.0302572316796 C745.1720260184138 238.02016758162233, 743.2656496517316 235.45808748634465, 741.5923548676749 234.26712491291843 C739.9190600836182 233.0761623394922, 737.4818017247516 232.09345793917493, 736.7317867175714 230.88448179112225 C735.9817717103912 229.67550564306958, 736.4230941933885 228.34027057303865, 737.0922648245937 227.0132680246024 C737.761435455799 225.68626547616617, 739.8991850010302 223.63658202864428, 740.7468105048031 222.92246650050475 C741.5944360085759 222.20835097236522, 741.8280420663505 222.60663236999227, 742.1780178472306 222.7285748557652" stroke="#000000" stroke-width="1.6" fill="none"></path></g><g><path d="M744.9039012023284 237.93804360389242 C743.9967957154769 242.12034614453728, 746.6382709440371 249.09650563799363, 745.8106304439865 263.20896768451183 M745.3500683514445 236.9490499892817 C744.7552262233908 245.0100936668317, 745.5103575764606 253.14623864973078, 744.7482069104573 264.9831314193903" stroke="#000000" stroke-width="1.6" fill="none"></path></g><g><path d="M744.039009748634 265.0594770319841 C741.6045780873999 270.6479603851098, 740.2061983248261 276.19345738234796, 735.5620921938913 281.5187233539307 M744.3534800983107 263.662011358266 C741.672320877315 269.318340113231, 740.5991920120657 274.29619163560875, 737.2563331256479 279.2414435956163" stroke="#000000" stroke-width="1.6" fill="none"></path></g><g><path d="M744.2975952828101 264.44816226626466 C747.4749979396566 268.70129883706466, 751.63653669388 274.0563242142866, 751.3337899928077 279.27309080185313 M744.731672440963 264.4856714172621 C747.5279234282652 270.3279745466043, 751.4160672792063 277.209411707253, 752.7292203992171 279.56465845288415" stroke="#000000" stroke-width="1.6" fill="none"></path></g><g><path d="M732.8633197400815 213.866587585218 C734.582591177888 224.6115915941677, 735.5892761635271 239.9101704930069, 738.3398118262629 261.56442581887507 M732.8710141394847 212.7305874068695 C733.6636842716371 224.0009995941513, 735.9128914692158 236.63568157997733, 738.6106064705222 260.5493776902857" stroke="#000000" stroke-width="1.4" fill="none"></path></g><g><path d="M739.4461733809859 306.23745153845107 C739.4461733809859 306.23745153845107, 739.4461733809859 306.23745153845107, 739.4461733809859 306.23745153845107 M739.4461733809859 306.23745153845107 C739.4461733809859 306.23745153845107, 739.4461733809859 306.23745153845107, 739.4461733809859 306.23745153845107 M739.7577562248466 314.57798812443133 C742.458417917579 311.7976300103324, 744.1476079450979 310.21018147014934, 748.9483144357839 304.13535381982047 M740.6025577881361 315.31491736515403 C743.4724522010449 311.73961210919157, 745.7317200463667 307.8016028881112, 748.9943216271819 304.39209020708455 M747.3718956576166 317.09096093156313 C748.0248784134291 314.3303480342069, 748.7858580272633 312.6425292357058, 752.0238352921881 309.08855794855907 M746.4546545531912 316.047481944304 C748.2404407265014 314.29911628764415, 749.9622103939522 312.53492723922426, 752.7510912600715 309.28835616723416" stroke="none" stroke-width="0.8" fill="none"></path><path d="M743.3226270349081 303.54196011551386 C744.5886052417881 302.9786244366409, 746.2462057544926 303.54029858525496, 747.6412659027228 304.20496935562227 C749.036326050953 304.8696401259896, 750.9451162562721 306.5231302692817, 751.6929879242894 307.52998473771765 C752.4408595923067 308.5368392061536, 752.3900998281615 309.0441748339029, 752.1284959108265 310.246096166238 C751.8668919934914 311.44801749857305, 751.3994190230428 313.70233577409886, 750.1233644202789 314.741512731728 C748.847309817515 315.78068968935713, 746.0571157468432 316.4205602267, 744.4721682942428 316.4811579120129 C742.8872208416424 316.54175559732585, 741.6388332308265 315.87880056743614, 740.6136797046767 315.10509884360573 C739.5885261785268 314.3313971197753, 738.5299692414297 313.3006252037942, 738.3212471373436 311.8389475690304 C738.1125250332574 310.37726993426656, 738.3514127301423 307.682406688485, 739.3613470801597 306.33503303502295 C740.3712814301771 304.9876593815609, 743.3189735272047 304.4202012211788, 744.3808532374479 303.7547056482582 C745.4427329476912 303.08921007533763, 745.6780542018016 302.26528619387875, 745.7326253416195 302.34205959749966 M745.4221751003336 304.0895100343585 C746.5643707397137 304.03760564813314, 748.6807144420676 304.1991990406358, 749.6238989713839 304.96599072384413 C750.5670835007003 305.73278240705247, 750.8878216602466 307.4158650307544, 751.0812822762317 308.69026013360843 C751.2747428922169 309.9646552364625, 751.5376875305134 311.35612439938023, 750.7846626672948 312.61236134096845 C750.0316378040762 313.86859828255666, 747.8928070085584 315.8407592123355, 746.5631330969203 316.22768178313765 C745.2334591852822 316.6146043539398, 744.0821189451414 315.54616057730345, 742.806619197466 314.9338967657812 C741.5311194497907 314.3216329542589, 739.4541281875964 313.7719640333303, 738.9101346108682 312.554098914004 C738.36614103414 311.3362337946777, 739.1481076594448 309.10436116564733, 739.5426577370969 307.6267060498235 C739.937207814749 306.14905093399966, 740.5659530085438 304.46601025593327, 741.277435076781 303.68816821906086 C741.9889171450181 302.91032618218844, 743.0396948463283 303.2457580157859, 743.8115501465197 302.9596538285891 C744.5834054467111 302.67354964139236, 745.4886412760314 301.9355561335963, 745.9085668779298 301.9715430958802" stroke="#000000" stroke-width="1.6" fill="none"></path></g><g><path d="M744.5579729064032 317.2331364031709 C744.8204280680387 324.306337731637, 746.8101684595974 336.61967512652393, 743.8933117981387 344.92529974460496 M744.162662986565 317.01213721513227 C744.5415473710827 326.54278442655914, 744.9416087441706 336.57533453768986, 744.7341858754215 343.2454809641306" stroke="#000000" stroke-width="1.6" fill="none"></path></g><g><path d="M743.591207242986 344.861445533952 C743.7850278781548 349.69607788066526, 740.538611957371 354.51585496056043, 737.5370435970467 358.47107721168817 M745.6848850041821 343.5630662338983 C742.5491031680957 348.2236944573869, 740.1477790210049 353.8812381955266, 737.7370857598013 360.14884442250826" stroke="#000000" stroke-width="1.6" fill="none"></path></g><g><path d="M745.5691755801521 342.37204986998455 C748.5038246205675 349.21255120379675, 749.7340787058043 352.3325453364457, 754.7245474009053 361.6902871821685 M745.3968931199205 344.8241987994451 C747.9062550969651 349.1351883109794, 750.8653551040992 354.40996789067543, 753.4394896206456 359.99171097404553" stroke="#000000" stroke-width="1.6" fill="none"></path></g><g><path d="M734.0793066677684 290.19505356224715 C734.4644399619425 305.19231863225275, 736.0107155543393 321.74185057083514, 738.8186858297472 341.4610281510023 M733.1023305807277 291.96297370352914 C735.9998017161641 309.9550732696406, 736.9543515807968 327.7046374646385, 738.2396309170733 340.5882718375651" stroke="#000000" stroke-width="1.4" fill="none"></path></g><g><path d="M391.84377019709586 345.92464470163986 C391.84377019709586 345.92464470163986, 391.84377019709586 345.92464470163986, 391.84377019709586 345.92464470163986 M391.84377019709586 345.92464470163986 C391.84377019709586 345.92464470163986, 391.84377019709586 345.92464470163986, 391.84377019709586 345.92464470163986 M386.2777358840059 366.9330844200972 C393.4795892009056 356.5734344675345, 400.49523262830974 350.9695901054584, 404.24348809283254 344.0515497714974 M384.7353738121175 366.1835954905314 C390.76799355237625 360.2660323993153, 395.30254533640823 354.25321265361185, 403.96791704166736 344.80604455728457 M389.617318874919 373.80088513186416 C397.44986031400043 364.5315384044882, 406.84417685565387 355.3600081875926, 410.17867199445004 347.7882371773316 M389.84213511050586 372.94868946330007 C395.8609473917746 366.7408609561166, 400.01077459013413 360.64733050964145, 411.97902500372163 346.53499961542724 M396.26124394265395 377.0841743920988 C402.9520643154931 371.6229248388011, 409.10028127877365 364.8799180872963, 416.3242674864734 351.6487482537786 M394.55675834809205 378.7007674911971 C402.4384593077532 370.59605955056406, 408.48776895845634 363.7403139597265, 417.21051152185186 352.70816910997723 M406.9095896241782 377.3812165977816 C410.63713854631754 376.98693985891805, 413.54308931274966 371.55617442166397, 419.9974075859996 363.004529287017 M404.59920119752724 379.0233613457767 C409.4191759753542 373.4166194321843, 415.0485256563846 369.2022761351488, 419.1918084855405 361.78138796659636" stroke="none" stroke-width="1" fill="none"></path><path d="M402.7758293238556 343.4971732723854 C406.09385750823213 343.6496718777514, 411.07007672599667 345.3707141929903, 413.3650204194146 348.08477748958813 C415.6599641128325 350.79884078618596, 416.81021414781355 355.82577055192314, 416.54549148436297 359.7815530519724 C416.2807688209124 363.7373355520217, 413.9883874490665 369.0293607425373, 411.77668443871124 371.8194724898838 C409.56498142835596 374.60958423723037, 406.66841771528436 376.0636325218762, 403.2752734222312 376.5222235360518 C399.882129129178 376.9808145502274, 394.4425030795659 376.35380970941753, 391.4178186803921 374.57101857493745 C388.3931342812183 372.7882274404574, 386.11882210343464 369.0970120961692, 385.12716702718853 365.82547672917127 C384.13551195094243 362.55394136217336, 384.32675699139884 358.28357167968494, 385.4678882229156 354.94180637294994 C386.6090194544323 351.60004106621494, 388.95922271927213 347.8821529316507, 391.9739544162891 345.7748848887614 C394.988686113306 343.6676168458721, 401.59196702044915 342.75698628428665, 403.5562784050172 342.2981981156142 C405.5205897895853 341.8394099469417, 403.8910240784337 342.75234016124796, 403.75982272369737 343.02215587672674 M407.03875942192303 344.0726465501038 C410.1860704488879 345.7993760718181, 413.18313733333673 350.6367299689008, 414.5129749698219 354.18454373269753 C415.8428126063071 357.7323574964943, 415.78947484101184 361.72058080278777, 415.01778524083414 365.3595291328844 C414.24609564065645 368.99847746298104, 412.9061449440678 373.861163607637, 409.8828373687557 376.0182337132773 C406.8595297934436 378.1753038189176, 400.37947667357884 379.203134440815, 396.87793978896127 378.30194976672624 C393.3764029043437 377.40076509263747, 390.8902458104065 373.7090917237224, 388.8736160610503 370.61112566874476 C386.85698631169413 367.51315961376713, 385.0249778781693 363.0058940970049, 384.7781612928243 359.7141534368606 C384.53134470747926 356.4224127767163, 385.47086696797095 353.75228492791405, 387.39271654898033 350.86068170787894 C389.3145661299897 347.96907848784383, 392.8897344682272 343.47205384209985, 396.3092587788806 342.36453411665 C399.728783089534 341.2570143912002, 406.0125440510125 343.73073228696495, 407.90986241290085 344.2155633551799 C409.8071807747892 344.7003944233948, 407.6436870920875 344.8697257402431, 407.6931689502104 345.2735205259397" stroke="#000000" stroke-width="2" fill="none"></path></g><g><path d="M401.9466893869062 375.9009946049806 C404.0115430441001 394.20310728871874, 405.53024896153016 414.76077053719007, 404.7953599243791 431.48500901510045 M400.16114786752024 377.2672799343147 C401.60018093548325 389.4424929345105, 403.134368240972 401.47468915455545, 405.66687098213936 430.23557606589486" stroke="#000000" stroke-width="2" fill="none"></path></g><g><path d="M407.9752950321655 431.52669109357635 C399.45709883173623 444.7310591502448, 398.1582379396674 459.6760503694199, 388.92793626543886 483.32081594500187 M405.0183406663894 430.59279010690875 C399.72625210036125 450.56687019092936, 391.27309458631976 472.50915415070557, 387.9592374576543 484.77877846595146" stroke="#000000" stroke-width="2" fill="none"></path></g><g><path d="M405.2845058829171 429.5139515426893 C410.82685763309127 441.45809241531214, 413.8927353776896 455.3470327464614, 420.0690717051208 486.46161762246703 M405.62528303048873 430.7585844483739 C411.09508215724503 449.4272613697637, 417.77468757045375 469.9782925917534, 422.9984024443579 484.8047536641479" stroke="#000000" stroke-width="2" fill="none"></path></g><g><path d="M401.4964220848017 391.1490932087312 C391.8382285089875 401.24410169690333, 384.57515630248565 413.766842053813, 376.1189046740021 426.231314292192 M400.3790853730634 390.8954398995612 C391.6765190050425 402.9413359683203, 384.16136374904625 414.4492186548177, 375.05976941050557 428.03129794306983" stroke="#000000" stroke-width="2" fill="none"></path></g><g><path d="M401.89492318781305 389.20266113545193 C410.4239642477647 400.10414084615206, 420.40176015314813 406.58323933565345, 438.2441201904419 423.0370241199032 M402.29642990636364 390.7975281422433 C412.17048269513435 399.5574738705086, 423.01797012677895 408.4703832910215, 439.730767366628 423.99614541965417" stroke="#000000" stroke-width="2" fill="none"></path></g><g><path d="M470 415 C499.5054660531244 446.5648492629658, 503.920743679344 477.989490818587, 474.2548853726259 517.3850621138741 M467.957516100507 414.750691733449 C498.2999641994024 447.231676917364, 502.6087289964375 480.3994266329085, 471.98948714626846 517.2391407991006" stroke="#DAA520" stroke-width="3" fill="none"></path></g><g><path d="M470.8821775045254 418.8777847938402 C472.9000554623585 440.0061001127604, 471.5947945749986 463.1036301367381, 471.95173120775684 515.9194774732175 M470.9895511178424 416.78975127549484 C470.9561481162832 439.3377652420081, 471.26981252775437 463.1895171637827, 471.7226736494507 515.085038298213" stroke="#DAA520" stroke-width="1.6" fill="none"></path></g><g><path d="M456.7796275407898 429.2786782750091 C454.088060266291 432.45357137067026, 449.71488023013615 435.8842993103953, 447.7381963108792 439.43317317946423 M456.2850885271661 430.0070412288729 C453.5086309083938 432.1724177930292, 451.5799087736475 434.75082993228193, 447.8792443883614 439.850592735134" stroke="#999" stroke-width="1.2" fill="none"></path></g><g><path d="M458.6422077625557 452.6903576846516 C453.94794320737725 455.34756723209273, 451.3291414457223 457.03698807321814, 448.5773824500999 458.82455805482914 M458.6226722766217 452.4435656839053 C455.55344695656066 454.7015712703136, 451.4778564605603 456.541105174768, 447.63429717346554 460.13210953893696" stroke="#999" stroke-width="1.2" fill="none"></path></g><g><path d="M327.64795543085455 498.08207437507605 C403.2471310899605 499.9004488277078, 476.176150863747 498.63743989338565, 540.6977491609281 498.8675960073466 M329.7447429512719 500.78918002796013 C377.6780096799593 499.8545318565575, 422.8002493546387 498.61657634571935, 539.2388451477415 499.53736536915403" stroke="#000000" stroke-width="1.6" fill="none"></path></g><text x="400" y="560" text-anchor="middle" font-family="sans-serif" font-size="16" fill="#222" font-style="italic">"You don’t defend the decision — you defend the self that made it."</text></svg>