<?xml version="1.0" encoding="UTF-8"?>
<svg width="800" height="600" viewBox="0 0 800 600" xmlns="http://www.w3.org/2000/svg"><rect width="800" height="600" fill="#FFFFFF"></rect><g><path d="M216.6530948262876 230.73407782649514 C216.6530948262876 230.73407782649514, 216.6530948262876 230.73407782649514, 216.6530948262876 230.73407782649514 M216.6530948262876 230.73407782649514 C216.6530948262876 230.73407782649514, 216.6530948262876 230.73407782649514, 216.6530948262876 230.73407782649514 M215.83501639906856 241.05407723493903 C220.61823235681769 239.31118201420762, 227.12390414197395 231.9351214957431, 228.18455386565776 227.84657190918503 M216.325966995915 243.31698954037097 C220.29048294560286 239.03479962585433, 224.2442030948837 233.6967069380262, 230.11156678285835 227.72707165610348 M218.86729538147736 252.12128664090983 C224.0829719524885 246.37506423555178, 229.11827362902648 242.2817011414764, 238.4713760953485 228.05533415564113 M220.20982408467333 250.8059194488058 C227.2271092879053 243.13567302575666, 234.65712414980075 235.81146159029268, 239.77272690342707 229.98203234156338 M227.03752236167443 254.28312828690946 C234.8140084861807 247.81056162644308, 237.58641148389972 243.29229715502873, 245.2670585295466 233.5570821549439 M227.9493298151264 253.89078040025882 C233.8035512601108 246.5292162328031, 241.35100411728703 240.89851816719172, 246.15680917030863 234.1747746491736" stroke="none" stroke-width="1" fill="none"></path><path d="M227.05320670705012 226.55754010598739 C229.96731052713073 225.54011768607856, 234.00443335403241 225.36950919057966, 237.0414873646672 226.62977117575468 C240.078541375302 227.8900331609297, 243.9809670616061 231.03915616556964, 245.27553077085895 234.11911201703754 C246.5700944801118 237.19906786850544, 245.8753966072991 242.02643811717905, 244.8088696201844 245.10950628456212 C243.74234263306968 248.19257445194518, 241.6492831410548 251.11458702145853, 238.8763688481706 252.61752102133582 C236.10345455528642 254.1204550212131, 231.73554964693835 254.63067060844355, 228.17138386287922 254.12711028382589 C224.6072180788201 253.62354995920822, 219.66065098535506 251.77905867140748, 217.4913741438158 249.59615907362976 C215.32209730227652 247.41325947585204, 215.29541372794444 244.17341856431315, 215.15572281364368 241.0297126971596 C215.01603189934292 237.88600683000604, 214.5051693331912 233.25251830463344, 216.6532286580113 230.73392387070837 C218.8012879828314 228.2153294367833, 226.1261289371227 226.72744366172546, 228.04407876256428 225.9181460936091 C229.96202858800586 225.10884852549273, 228.18985039739408 225.61226048349312, 228.1609276106608 225.87813846201024 M232.99147136048344 224.82362406964816 C236.07704636428923 225.07832593098374, 240.8661703514872 228.0713819080437, 242.80653515749694 230.92131000015195 C244.74689996350668 233.7712380922602, 244.88697493909777 238.81187466417322, 244.6336601965418 241.92319262229773 C244.38034545398583 245.03451058042225, 243.45188061326593 247.4541165533356, 241.28664670216105 249.589217748899 C239.12141279105617 251.72431894446237, 234.88264260917526 254.22368648129364, 231.6422567299126 254.73379979567804 C228.4018708506499 255.24391311006244, 224.73948285962908 254.70401836465177, 221.844331426585 252.64989763520532 C218.94917999354092 250.59577690575887, 215.2410721101579 245.40794700092084, 214.27134813164815 242.40907541899932 C213.30162415313842 239.4102038370778, 214.52882889744615 237.32841661294162, 216.02598755552657 234.65666814367623 C217.523146213607 231.98491967441083, 220.38591508633692 227.91492658692312, 223.25430008013072 226.37858460340698 C226.12268507392452 224.84224261989084, 231.60822114301024 225.66316292766635, 233.2362975182893 225.43861624257937 C234.86437389356834 225.2140695574924, 232.85489034605249 224.47929314521087, 233.02275833180508 225.0313044928851" stroke="#000000" stroke-width="2" fill="none"></path></g><g><path d="M228.52627784498702 255.32030072733346 C228.58395077912448 280.26519600271655, 230.24059278286032 302.06487242419325, 230.22422048284807 316.0405778638414 M230.1216134600341 257.5111929737221 C229.48528616155969 269.1809342594215, 230.62951741357745 281.97967654915504, 230.79647558182378 314.2450864252874" stroke="#000000" stroke-width="2" fill="none"></path></g><g><path d="M231.90918740064203 313.59089106358397 C224.05841730522798 333.65408229475753, 218.66820747275932 350.9364288909765, 217.36988440081123 368.8319223552638 M230.49977542053816 314.518195506894 C225.55378245292445 329.6965129892012, 222.39335920560427 344.9387338875659, 215.896160221708 369.7424127665739" stroke="#000000" stroke-width="2" fill="none"></path></g><g><path d="M231.4937410078798 313.5673489710946 C231.94387301798767 333.73520722171094, 238.54322239530538 349.78349478787214, 242.49232344428202 371.75936161950204 M229.10224070678984 314.7868092489588 C233.43515652470643 329.37586888220847, 238.29134289537802 344.2059941868735, 243.83713472959087 369.0793506465808" stroke="#000000" stroke-width="2" fill="none"></path></g><g><path d="M228.4551968260174 273.0173291155246 C216.75295986654427 269.04530312918416, 198.8220443333136 259.8885628431027, 184.10469981155052 248.48958081382415 M229.95112603891386 274.094721531439 C214.7591552349963 266.81401149018103, 197.9137001930307 257.61234255093893, 184.16053954547232 250.27984041429912" stroke="#000000" stroke-width="2" fill="none"></path></g><g><path d="M229.95500644871976 273.13166080562985 C243.25082441221485 266.13461893206784, 256.664912449588 260.16190088416806, 275.73858277908903 248.45903101024606 M229.2733151368141 275.6731102027739 C248.08341949853812 264.87374957167094, 265.469807390541 256.06271436729224, 274.4684303002367 250.616871528013" stroke="#000000" stroke-width="2" fill="none"></path></g><g><path d="M169.80615871546016 218.9405931107678 C175.01774095761283 225.83673673477313, 183.38324255747116 227.52036071744513, 194.66923396043762 236.29679619356094 M170.09965036562633 219.39065832736935 C175.36507829251008 223.47119027981014, 182.92592167711274 227.9632755297855, 194.34508260724763 235.1670954813814" stroke="#DAA520" stroke-width="1.8" fill="none"></path></g><g><path d="M290.88489480486106 218.8368290392061 C281.6364608105128 224.37690476188715, 270.2943082429825 232.13467392285702, 264.4385662635828 233.93271809476857 M290.6257097384634 219.40290719190105 C283.5690645000964 223.22424859727596, 279.38490224273164 227.16526688129474, 265.29800669588946 235.00765573571925" stroke="#DAA520" stroke-width="1.8" fill="none"></path></g><g><path d="M175.86559222151695 246.81115618141925 C182.13007851721494 245.69598933028584, 186.119946368357 246.6888306311229, 194.68851379201615 252.67433253187392 M174.1434625824452 244.47142890774037 C182.77721340502933 247.64406292042642, 190.15304620297326 250.79412519892267, 194.7640810723474 251.64683516421738" stroke="#DAA520" stroke-width="1.4" fill="none"></path></g><g><path d="M285.3477203703304 244.67891242711042 C282.71799104596016 246.44725601722922, 277.03876814796246 247.74830049909457, 266.41395286949194 251.94068762489655 M285.8250547483705 245.58725927005716 C278.75304120303906 247.83411334394896, 271.5970418851198 248.74720501674636, 265.16000116017136 251.24278774633274" stroke="#DAA520" stroke-width="1.4" fill="none"></path></g><g><path d="M558.5867110100271 231.16952507842998 C558.5867110100271 231.16952507842998, 558.5867110100271 231.16952507842998, 558.5867110100271 231.16952507842998 M558.5867110100271 231.16952507842998 C558.5867110100271 231.16952507842998, 558.5867110100271 231.16952507842998, 558.5867110100271 231.16952507842998 M558.4934266459602 244.84717224800136 C559.7330683481994 238.04374041741275, 565.6740068895649 235.67633369080406, 575.3895084969109 227.44165569779244 M556.9172013119111 244.63669012110853 C563.409830377489 238.3422796425085, 569.787817876329 230.86902830903412, 574.3544504220314 226.84802373260848 M561.134504743059 253.13605373608618 C569.8460746079529 242.1033972311841, 575.1740835124178 234.28547322644422, 579.4391103305861 231.8293992917228 M561.5879926180814 250.68119928058846 C566.7439725720427 247.99066023741025, 570.514162040955 242.76253861076484, 579.9401362901209 231.28057837914668 M566.836453102246 256.8038282254152 C573.6206141513428 251.5274513275549, 575.8018219687194 247.51255445165185, 584.2320530095997 239.85883499921718 M569.1871713840593 255.95114835462837 C572.202184872285 251.90426982101312, 575.1230772786939 247.7784661219581, 584.2174098710638 239.15551676676952" stroke="none" stroke-width="1" fill="none"></path><path d="M574.4534608284094 225.30355155671205 C577.3020372717519 226.18354603033526, 581.6505534175852 229.9498492287397, 583.2320597603863 232.82572846700367 C584.8135661031873 235.70160770526763, 584.4774028638899 239.4782178904441, 583.9424988852156 242.55882698629574 C583.4075949065414 245.63943608214737, 582.5080726617747 249.12145784303667, 580.022635888341 251.30938304211344 C577.5371991149074 253.4973082411902, 572.1867550995162 255.74451427749324, 569.0298782446139 255.68637818075635 C565.8730013897116 255.62824208401946, 563.2180788476298 253.01115166544793, 561.081374758927 250.96056646169217 C558.9446706702242 248.9099812579364, 556.6761757478097 246.62299870518373, 556.2096537123973 243.38286695822188 C555.743131676985 240.14273521126003, 556.8275365618474 234.60377091177133, 558.2822425464527 231.51977597992112 C559.736948531058 228.4357810480709, 561.6442481916029 225.4690318658302, 564.9378896200293 224.87889736712052 C568.2315310484557 224.28876286841083, 575.3867352684761 227.11993070928574, 578.0440911170111 227.97896898766305 C580.7014469655462 228.83800726604036, 581.0442911997659 229.9087246097645, 580.88202471124 230.03312703738433 M564.7453767061506 225.16116494580032 C567.2648703256679 223.49373674802894, 570.7657946186458 223.51458767608753, 573.6825273314341 224.4554953509999 C576.5992600442224 225.3964030259123, 580.5170193644732 228.1692939225035, 582.2457729828807 230.80661099527458 C583.9745266012882 233.44392806804566, 584.5301805354887 236.68430391997143, 584.0550490418791 240.27939778762638 C583.5799175482695 243.87449165528133, 581.3779093090326 249.9557013536855, 579.3949840212231 252.3771742012043 C577.4120587334136 254.7986470487231, 575.000735485036 254.5501072015283, 572.1574973150223 254.80823487273912 C569.3142591450086 255.06636254394994, 565.2074277772053 255.92313909487615, 562.3355550011406 253.92594022846913 C559.4636822250759 251.9287413620621, 555.6586667888391 246.32592283447627, 554.9262606586343 242.82504167429704 C554.1938545284295 239.3241605141178, 556.5434400547144 235.99773658730413, 557.9411182199113 232.9206532673938 C559.3387963851083 229.84356994748345, 562.028758038953 225.46793540070348, 563.3123296498158 224.3625417548349 C564.5959012606785 223.2571481089663, 565.3085258899115 225.69674106828404, 565.6425478850879 226.2882913921822" stroke="#000000" stroke-width="2" fill="none"></path></g><g><path d="M569.096737820268 258.1310622741188 C571.4384784019363 273.3484563263975, 570.7507649752057 295.3685599975942, 570.0503316434998 315.63341374703657 M570.4016020207744 257.5333983648933 C568.8909296969077 275.919583519909, 568.9966661110786 293.02425931800855, 570.3135658986818 315.3238879699901" stroke="#000000" stroke-width="2" fill="none"></path></g><g><path d="M571.5795169314155 316.4649060224313 C568.441760233065 325.68396446475765, 562.4932443155593 338.9517266119836, 557.8841398688896 370.9723543229112 M570.9367407894479 315.25135477125457 C564.5515723266305 335.4491565177801, 560.2846216834259 355.13684123366374, 555.5932268358254 370.6033008425154" stroke="#000000" stroke-width="2" fill="none"></path></g><g><path d="M571.5535782204759 313.7580005428895 C574.8587132915449 328.3687801956556, 577.5083988314841 337.1828112341422, 584.9911645495752 368.94712932906384 M569.5835368976602 314.7599811156127 C575.2632127835651 335.39926465460644, 580.7070084606958 355.3245772963362, 584.9783314821912 370.4214310585309" stroke="#000000" stroke-width="2" fill="none"></path></g><g><path d="M564.8389058340304 274.22025950560044 C573.3684680836614 280.8891926758412, 580.5314226759132 286.92202202846784, 590.6229661900843 294.27260014846235 M564.0150846826784 274.55578039704415 C571.4817936145685 281.03081078854984, 578.0371112712937 285.1349318902707, 589.4950183113064 294.6882448696026" stroke="#000000" stroke-width="2" fill="none"></path></g><g><path d="M573.7060155562611 276.8664741821967 C571.2365724951314 281.2860422333381, 563.1004193498396 283.9804178365961, 550.2088074731968 294.73194929838724 M574.9394153781556 274.41817065382253 C569.7175643911751 279.78740165506804, 564.7015398497839 284.0932964782163, 550.995045456586 295.33989176425683" stroke="#000000" stroke-width="2" fill="none"></path></g><g><path d="M519.0153680882397 202.5718652713783 C519.2781663388974 254.69721012725864, 519.0651538850134 302.82841230169953, 521.8543704436864 331.0611025395948 M521.2232110134221 204.35524416108814 C518.8551913040226 240.818792290205, 517.2596477172342 279.40157344563335, 519.1724868049492 329.81298931913153 M521.9863582708961 328.8461521821159 C558.9990640043741 327.9220915331944, 598.0889235495505 332.94117751747825, 622.1877253709316 331.7931342668586 M520.2627216260476 330.6083786210322 C545.4910098218687 330.1214181161546, 570.5138697644386 330.89536666795595, 619.3113492628481 329.74052076111025 M620.2331284423766 329.69182486255 C618.3286751205895 282.7777314278642, 618.4474340499888 238.45655830612097, 620.8839442619642 207.29491722956018 M619.7168686654613 331.2623531384102 C617.8001791037158 289.2313770321669, 619.6655998037988 250.99729542798949, 620.5550156973216 205.18767012621873" stroke="#000" stroke-width="2" fill="none"></path></g><g><path d="M501.76618267777974 218.4195113976942 C505.6192906499996 222.7885414161896, 512.5681043302077 227.48683795285686, 519.4922340910958 229.741016299414 M500.2459479736693 220.17070497097947 C505.42578428701455 223.6601953395055, 511.1377275317175 226.18140022526782, 518.1330479524279 230.28377031501134" stroke="#DAA520" stroke-width="1.8" fill="none"></path></g><g><path d="M518.9837564074447 228.2362602361659 C509.41649333214593 233.9168475377986, 503.3569525500951 242.91254726937092, 499.6752516429909 244.88913730753083 M518.2858806794767 229.34018766802185 C512.6685636170171 234.9236495928205, 507.38622985296774 239.10422081326269, 500.72267976243126 245.65609616035803" stroke="#DAA520" stroke-width="1.4" fill="none"></path></g><g><path d="M639.962993576468 218.21775790424797 C634.936010528064 224.11721875567537, 633.1225052102872 226.3834829078471, 622.102301387801 230.60129593827494 M639.2119225449743 219.38501456583583 C635.2569156261695 221.31002706027485, 632.4959043169696 225.03810595106782, 621.7360731849601 230.52749930673997" stroke="#DAA520" stroke-width="1.8" fill="none"></path></g><g><path d="M620.484599515078 231.21800544225042 C628.1550198282914 236.66017143840403, 634.8859291729016 239.53000646432392, 638.7041503547564 243.3514753592194 M621.2546707054086 230.30363693787857 C627.1385395945766 233.45084061525372, 630.900498673309 238.41894188204586, 639.1553663388414 244.78208731427242" stroke="#DAA520" stroke-width="1.4" fill="none"></path></g><g><path d="M99.66928163253436 430.43587494207 C285.449715436987 427.39856006296054, 470.07890184183077 427.5408926788538, 700.0845615072657 428.97991969834175 M99.97645754742963 430.218319473077 C276.78133890710217 431.561374999184, 453.29205344809935 430.91796533374526, 700.0949248273032 430.2863898136416" stroke="#000000" stroke-width="1.6" fill="none"></path></g><text x="400" y="560" text-anchor="middle" font-family="sans-serif" font-size="16" fill="#222" font-style="italic">"The difference was whether he was still listening."</text></svg>