<?xml version="1.0" encoding="UTF-8"?>
<svg width="800" height="600" viewBox="0 0 800 600" xmlns="http://www.w3.org/2000/svg"><rect width="800" height="600" fill="#FFFFFF"></rect><g><path d="M250.5418474766781 380.17486136299306 C334.4784326276507 380.44939148154486, 420.9847640052818 379.9398016978582, 609.0045637412693 381.2357362742662 M249.65521030650476 380.5711991058613 C368.96448457080163 379.41597066379325, 488.35479691512774 379.3273497598692, 610.3824276986419 380.3233561687719 M608.8991837545269 380.78184076677024 C610.7554791960072 385.79580171942604, 611.5845609865083 388.4092240251244, 609.4709190176962 399.3504398178128 M610.0828441203307 379.62665096693075 C610.6660111271715 384.98650735103865, 609.6417225560142 389.6132192896598, 609.4419512631318 397.1011979724343 M608.9206799296223 397.833773524787 C519.9469957839594 396.95852976318605, 431.5874935541916 396.0489365051865, 249.55467509202302 399.03406143392 M610.2275488248131 397.6608627765336 C536.3143499987776 398.54334465384085, 463.2309584994411 398.1474566399844, 249.77982258035377 398.1386958271384 M250.8364367093529 396.9992564637855 C250.12445335160524 392.7228751161985, 251.21476753163128 385.98651186674795, 250.2526694247041 381.76063730691175 M250.69344072821588 398.83874295847767 C250.81528764547033 394.5553297129019, 250.78584378104702 390.73332128769874, 249.1061784368651 379.3233806665183" stroke="#000000" stroke-width="2" fill="none"></path></g><g><path d="M279.5496625745192 397.1646282943556 C278.2693354551577 424.5422661907011, 279.49264677665093 449.6458564208164, 278.78694956309494 501.4524944357763 M280.02686140479545 397.8310951133858 C279.6999282061316 429.98104650403036, 278.74996496097623 459.74628181217975, 279.54993665466236 499.8365506621632" stroke="#000000" stroke-width="2" fill="none"></path></g><g><path d="M581.535861918653 398.95820258543176 C580.2275579582628 424.8644357453691, 578.5236895376923 451.4055620857914, 581.849572480491 498.40149297819175 M579.6658878948358 397.9105852292876 C580.6258794345664 424.04308426511005, 581.030220767096 448.45758529239237, 579.5591201581376 500.0734323611935" stroke="#000000" stroke-width="2" fill="none"></path></g><g><path d="M323.5389589991829 283.89815221155527 C323.5389589991829 283.89815221155527, 323.5389589991829 283.89815221155527, 323.5389589991829 283.89815221155527 M323.5389589991829 283.89815221155527 C323.5389589991829 283.89815221155527, 323.5389589991829 283.89815221155527, 323.5389589991829 283.89815221155527 M313.317814803796 305.3042305574491 C321.9036586218053 301.55981589897453, 326.0527773401026 294.45702311484087, 333.98832662950025 282.1370243031154 M315.3545866123866 306.30261852122334 C322.3634239602408 298.1565847945698, 327.69852279577003 289.4232785503386, 334.5956989491832 283.9292828408761 M318.9245960961553 314.49117739510575 C329.5585012486662 304.82648512269196, 336.7868010956568 295.55812363531606, 339.0823288546855 287.05317742299155 M320.0453398769577 312.99805920286605 C327.13898423039774 304.59090298352646, 332.8027125232437 297.0153678891792, 341.4894419934437 288.208518428466 M329.1934361541447 317.76308810868835 C333.1245935617306 307.402850817681, 342.86829871823136 299.0537559143972, 345.38768333895126 297.55642787807864 M327.96357068480677 316.11064502478285 C332.4635803626647 310.98075593161, 336.18268015408506 304.12308550218745, 345.1475160550028 295.97129002052924 M338.96940688560534 315.52014093095397 C338.97950570049306 313.7800819088117, 340.7185607052251 313.59641198177343, 342.71310407596474 310.8231560726392 M338.2340142832218 315.3512015508619 C340.28381058014725 313.71176508921997, 341.3422525671256 312.1795330461616, 342.64277300461094 310.65989837700715" stroke="none" stroke-width="1" fill="none"></path><path d="M334.4041425715331 283.648176938593 C337.6940966383545 284.44130377711195, 342.7787590785693 287.00556201107327, 344.5840261739453 290.08795914321666 C346.3892932693213 293.17035627536006, 345.9107488432188 298.1119942395536, 345.23574514378896 302.1425597314534 C344.5607414443591 306.17312522335317, 342.9280180157474 311.77892470994516, 340.53400397736635 314.27135209461545 C338.1399899389853 316.76377947928574, 334.41478076814565 317.3515246238054, 330.87166091350275 317.09712403947503 C327.32854105885986 316.84272345514466, 322.23196605151134 315.01333666834375, 319.27528484950915 312.74494858863335 C316.31860364750696 310.47656050892294, 313.56982146564206 306.94211579910234, 313.13157370148963 303.4867955612127 C312.6933259373372 300.0314753233231, 314.88493352359285 295.3080563456357, 316.6457982645944 292.0130271612956 C318.406663005596 288.71799797695553, 320.1024505705182 284.8376119622402, 323.6967621474991 283.71662045517235 C327.29107372448 282.5956289481045, 335.60077654093016 284.7642759933078, 338.2116677264796 285.28707811888836 C340.8225589120291 285.8098802444689, 339.6115483910706 286.61531452094516, 339.3621092607958 286.85343320865576 M333.12527539323725 283.5680235241113 C336.48857398628803 284.0959523993452, 341.61197206761886 285.9685363642915, 343.56800522718714 288.7704353924172 C345.5240383867554 291.5723344205429, 344.9549968555714 296.7305318437721, 344.86147435064686 300.37941769286556 C344.76795184572234 304.028303541959, 344.86949122652396 307.7133502531764, 343.00687019763984 310.66375048697796 C341.1442491687557 313.61415072077955, 337.31213799713885 317.4479756642803, 333.6857481773421 318.0818190956749 C330.0593583575453 318.7156625270695, 324.3984398095905 316.4969634231476, 321.2485312788593 314.46681107534573 C318.09862274812804 312.4366587275439, 316.1288458058908 309.3690291386869, 314.7862969929545 305.9009050088637 C313.44374818001813 302.4327808790404, 311.86621453776434 296.9764751221091, 313.19323840124116 293.6580662964062 C314.520262264718 290.33965747070334, 319.7730283855724 287.77545680932235, 322.7484401738155 285.9904520546465 C325.7238519620586 284.2054472999706, 329.3498608670754 283.69091986673965, 331.0457091306998 282.94803776835096 C332.74155739432416 282.20515566996227, 332.8748340883242 281.3225449101428, 332.9235297555619 281.53315946431445" stroke="#000000" stroke-width="2" fill="none"></path></g><g><path d="M329.20853937815576 317.7563991126303 C331.1109039175195 338.5422266926261, 333.62107022902745 356.3271863752146, 334.0372504824522 377.94286350862825 M330.7748098282292 317.40777957636533 C332.1625736908791 334.9827108459312, 334.25446267398314 353.7118585723925, 335.2684800903529 377.27443600840115" stroke="#000000" stroke-width="2" fill="none"></path></g><g><path d="M334.02475339333705 378.119417748891 C345.6853019521868 380.97600618525456, 356.19103780670395 382.83204909740283, 377.3748056983534 382.4632445269446 M335.0741792583676 377.72309344103184 C350.7942831374327 379.5508392226657, 364.5614911893133 382.62052651072355, 376.2935705999798 383.5304557163579" stroke="#000000" stroke-width="2" fill="none"></path></g><g><path d="M374.7687197879581 383.1325414760832 C377.6984878923666 392.67972570960507, 377.7566877100581 400.0820549234332, 381.99151792444604 421.11298679865047 M376.60998673525364 384.40706765737 C377.10210532275374 390.804874084977, 377.54132663939754 398.76024385128795, 380.3638271789615 419.4753565246703" stroke="#000000" stroke-width="2" fill="none"></path></g><g><path d="M332.2297020264264 329.5776375848745 C350.8767146653079 337.39799436735734, 365.027601329727 348.95105887660856, 399.65768389530405 368.28355184877813 M333.69929972697395 330.4474620152338 C357.78943004085386 345.30675546243145, 381.58152119164373 358.0873943889556, 400.6495810036901 370.59899639528385" stroke="#000000" stroke-width="2" fill="none"></path></g><g><path d="M398.40919777596883 371.2614202306636 C418.83499090898505 370.0642883948659, 436.0357237909586 371.2908000345976, 451.97635711494587 370.15453459643044 M399.77462271522563 369.0765529282925 C416.75916884538816 370.43261532179264, 432.4044759688521 372.26621873390474, 450.2836644575052 372.2820170597358" stroke="#000000" stroke-width="2" fill="none"></path></g><g><path d="M451.2880818651702 330.4883522350024 L538.2340322702034 331.5098321161361 L541.6804145087541 389.5533515373294 L451.4886442561982 388.708209546696" stroke="none" stroke-width="0" fill="#F7D9D9"></path><path d="M448.9457876871941 331.70951178254575 C479.2789473273897 329.19443775078156, 510.04705078980436 329.5447900758616, 541.3250148242824 328.70197028478754 M449.02875131572307 330.4799017423416 C470.31149212097205 329.1426437260368, 491.747981742299 330.11983069092014, 540.8855551596467 329.6799782280095 M539.7751477427893 331.3847686544249 C540.2887692188872 349.0649304929974, 541.8073665236856 365.47361146224074, 541.3586485243322 390.9285470801356 M539.1089341238214 330.9175594200864 C538.9939270666133 352.2633331501092, 539.2796389775751 375.64972211438203, 539.1567011109096 389.2174688362409 M541.599086928373 391.40428815674085 C516.7056169021502 388.82599034634404, 495.59297426725027 390.6681299716873, 449.72558397690096 389.85776119500764 M539.1292072877359 390.1358124618193 C509.45616744058475 391.3019452265917, 476.93139369590585 391.208467528874, 449.48006718572464 389.95837876905404 M448.90622789036973 388.8289795623653 C448.8407860328532 367.57193584465193, 448.36257371975915 347.3074691237263, 448.4561866618966 331.36406161046784 M449.6516168171328 390.95852590247335 C450.13639988877304 372.8562457503669, 450.0943662762022 356.9406959600432, 450.05770233507553 330.6290981097078" stroke="#CC3333" stroke-width="2.4" fill="none"></path></g><g><path d="M456.49031470927633 345.5620830065601 C476.64348778011015 346.91995861654226, 495.6805657708754 341.2809401431077, 529.1381178551158 342.7546842905495 M458.59561591770614 342.0341361492591 C477.6979294918128 342.3972532490742, 496.8930653539879 342.86594812535805, 529.9963500484063 340.902369608286" stroke="#CC3333" stroke-width="1.3" fill="none"></path></g><g><path d="M458.13422619825207 350.3835731505657 C478.78093608420716 355.02406414770303, 490.6314983838654 349.29946748648683, 526.9344841019615 353.65555681212464 M460.9436706818962 352.77460258530016 C486.91991554238706 350.19537505356635, 511.70417513447103 348.7810906918723, 529.9477821448811 348.87600749473484" stroke="#CC3333" stroke-width="1.3" fill="none"></path></g><g><path d="M463.41994263921845 364.11354628408577 C483.10747988946383 362.5156292192491, 499.53824338975033 360.34160640508793, 527.2588577486084 356.4272094650371 M458.0955451768615 358.9759012983097 C488.9307116143449 361.2847702149551, 516.8265086439118 358.80038387236334, 528.734818110082 360.89658944062717" stroke="#CC3333" stroke-width="1.3" fill="none"></path></g><g><path d="M457.32287713986847 365.5539887863693 C472.73872011014447 368.6227978489712, 490.1595214391017 369.95869478265047, 528.3673906221889 371.78421355943493 M457.90021226834926 368.3556455218995 C480.54593279887825 369.6121166503621, 504.31486505334425 369.3863813443296, 532.0621613009948 370.5452608143521" stroke="#CC3333" stroke-width="1.3" fill="none"></path></g><g><path d="M462.62527923528154 376.7019864779095 C483.1640182762023 379.2340258474994, 500.7638527727554 378.5378662549491, 526.4074106163312 379.20430405781326 M461.1181847453072 378.3104475385959 C475.60644964573936 375.9466374626687, 492.6547550024117 375.5293329144356, 531.7716286004805 379.1953831620447" stroke="#CC3333" stroke-width="1.3" fill="none"></path></g><text x="495" y="408" text-anchor="middle" font-family="sans-serif" font-size="13" fill="#555" font-style="italic">never sent</text><text x="400" y="560" text-anchor="middle" font-family="sans-serif" font-size="16" fill="#222" font-style="italic">"Ego protects you from the feeling — not the mistake."</text></svg>