<?xml version="1.0" encoding="UTF-8"?>
<svg width="800" height="600" viewBox="0 0 800 600" xmlns="http://www.w3.org/2000/svg"><rect width="800" height="600" fill="#FFFFFF"></rect><g><path d="M148.3691127713425 249.37776569539534 C170.02459705282772 250.55643671534054, 186.8143066183713 251.3926406733002, 209.5866646697156 248.41847391003705 M150.39179883738393 249.3380992116405 C168.77655300944576 249.46420860068153, 188.03736620320612 250.75235777935126, 210.7095320332657 250.98525236077765 M210.18227934087622 251.24215425385043 C208.00867846940432 275.15631244879694, 208.62104888252176 298.0863209161748, 208.21540229788417 328.604184614324 M210.6469433304277 250.19668262684507 C211.0725528692997 280.1747177511241, 210.82981624458526 308.9714794498752, 209.30230513096268 330.1837120767252 M210.32599115293817 330.4006826537527 C195.40379898669903 330.0354212670046, 178.84896545656696 331.43374600441865, 149.87902959847167 331.3942287662445 M209.843405194358 330.0974590474881 C186.79739643562246 330.36447637320185, 163.25952009637354 329.693404408239, 149.89903573681508 329.8375332990744 M150.77386948717688 329.2667670174629 C151.83392721943366 304.6607186328414, 149.72156964529083 280.82961551314105, 148.94947762772568 250.7683239076794 M149.09501479945098 330.45401093831094 C150.51980406742322 310.33091940740087, 149.80455082843142 291.6301396733098, 149.18350517481917 249.7753019845838" stroke="#4A90D9" stroke-width="2" fill="none"></path></g><g><path d="M179.1763728564997 240.66882973659042 C180.7355821105029 227.189381684388, 179.89856639278375 213.81010769486886, 179.2126367466998 189.69705249676088 M179.8382684207329 240.124455154258 C180.01166427052175 228.49712761741984, 180.58202482277804 217.27864415375674, 179.5522738783666 189.95495317172558" stroke="#4A90D9" stroke-width="3" fill="none"></path></g><g><path d="M171.38297745726666 198.84017421129346 C174.35710691274582 195.30419967473145, 178.28792494133253 193.23683399714454, 180.81571256562353 190.05876934480273 M172.50911154732322 199.97286849346327 C174.21305948254687 196.36630234154657, 177.08093105892897 194.47444141231531, 179.7110305997663 190.480266754748" stroke="#4A90D9" stroke-width="2" fill="none"></path></g><g><path d="M188.04858562924068 199.97912005448364 C185.55464230131037 198.05694086703326, 182.41212588646184 194.56511556656673, 178.9640599533183 189.8976258969644 M188.37165876023835 199.8579954064658 C185.63788349533488 197.08172785765746, 183.18888392309438 194.62260241580825, 180.59021146156996 189.862859932167" stroke="#4A90D9" stroke-width="2" fill="none"></path></g><g><path d="M160.88047043886812 333.2935781379608 C170.7888719192945 333.80496097876477, 181.85114298373915 336.85194951684406, 199.21260602664177 336.2591507522972 M160.88959965411897 335.1440499979343 C169.0283764067405 334.791503101711, 178.16224688479824 335.623001573251, 199.81394770279465 334.95664525021436 M201.58854386811814 334.644463970916 C201.04596196963425 342.11013683047344, 198.91116374032524 348.1267962892227, 198.98107299631155 356.77471685763794 M199.0692890302171 335.5923340631017 C199.7646910539416 339.8102191895119, 199.26293906910374 343.1424899686645, 199.72840988873764 355.4051088238503 M200.87419136843292 353.8927592678482 C188.58520254456707 354.69253790573435, 173.47175677330762 356.7363394646145, 159.4516304087069 353.6298926919675 M199.75630051804478 355.72980827018625 C190.62706690767698 354.38391134810416, 181.59455091039806 354.72149026012625, 160.91818972144188 355.7553599296149 M160.20691501365536 355.63829667681404 C160.89145726205135 348.9956108981164, 159.4323054992126 345.2831878594017, 158.76668194866275 333.02756972577936 M159.30135645968548 354.0248479838384 C159.98333218958103 346.956662026249, 159.46352998306062 338.7949807048097, 159.43198119386562 335.96223607497103" stroke="#4A90D9" stroke-width="1.2" fill="none"></path></g><g><path d="M490.7529952784677 250.57060392364838 C508.8450809007362 248.70086299107152, 521.9554982995579 251.75501096264657, 550.2569316885663 250.3568553411397 M489.0188030929013 250.50069940212492 C504.8028305873317 250.00076455279913, 521.2349113479555 250.36211945305243, 549.8881564986865 249.34875910773178 M551.7599659102394 251.7603142000683 C549.7997868197242 275.6177962485978, 551.7298212679611 300.8644383324016, 548.7763669850317 329.53650057201696 M549.5452225267351 250.01954746834275 C549.7779246570839 280.71226991307776, 549.0904179072379 310.8639188633809, 549.2791294607397 329.499507922907 M549.6253726551337 328.8424539451941 C536.1663121184404 328.1019043655472, 522.5769587142025 329.9899337715467, 488.8334086917106 330.3422293975514 M550.1822466932383 330.4361636903328 C530.4935146779294 330.7850136324085, 510.98556942947783 330.0868521368052, 489.75844480663676 329.04681737892423 M490.307633804594 328.9891817652996 C491.8902628548034 310.6831385478856, 491.8502490016389 289.0468237213659, 488.546342496092 249.4206280489722 M490.8007365060516 329.7377985678319 C488.61670052200697 306.51801494368357, 490.06839195953955 284.5167623312924, 490.60067410340633 250.7350436830659" stroke="#CC3333" stroke-width="2" fill="none"></path></g><g><path d="M520.3146290699474 240.11439209886 C519.5611695135917 221.32451234134555, 520.8930798050161 201.8730586644884, 520.1478373008521 189.31234992229668 M519.5217580498614 239.69711116410446 C519.549162742213 226.8616355409773, 519.9536122998943 212.69572721039594, 519.989101618989 189.9346264189691" stroke="#CC3333" stroke-width="3" fill="none"></path></g><g><path d="M513.2796800048474 199.03820957792567 C514.2712042815048 197.30585094413007, 517.5407827369726 193.3014516374047, 520.1440476844199 188.96271861495075 M511.8664494948723 199.70414807404086 C514.8117034272346 197.04664689241886, 516.865658887773 194.14452580605987, 519.62500762298 189.56412845974583" stroke="#CC3333" stroke-width="2" fill="none"></path></g><g><path d="M527.4244372103726 199.2049838915904 C526.6260014999314 195.54873749081645, 521.7115464594807 193.24714528469104, 520.6821952954488 190.0368239283223 M528.5400586947352 199.7094205049861 C526.1023881062087 197.39471956738942, 524.0372659159912 194.3764004009478, 520.1776698380702 189.4646081725707" stroke="#CC3333" stroke-width="2" fill="none"></path></g><g><path d="M498.1231383475443 336.3688396473238 C509.53725934900973 334.58995126860543, 515.9661125618755 336.34858819548003, 539.493930280272 334.52915850762196 M499.3766312912885 335.37961488238744 C513.6075333024575 334.9192086599223, 526.2016522963524 336.16346431809336, 540.9991460675478 335.38021333630024 M540.7401181717913 335.5963969015331 C538.9136418276605 339.1590535093651, 538.3149489655275 342.4925630092452, 540.1066968019032 354.7049956531495 M539.5802831911163 334.74675176418526 C539.4059666278592 343.2721031300164, 540.7512839071906 351.2998260503274, 540.8224125772435 355.9181771951409 M538.069779481042 354.9290011578908 C529.7852502263219 354.4300491197111, 523.7859771554006 355.79739730394704, 501.1881561736915 354.04089886692276 M540.7358269979059 355.9898292202847 C529.4690441593518 355.1423383140153, 520.6875496847096 355.22392897158994, 500.2794530163711 354.01209444548965 M501.86980963349566 353.73268132483383 C498.3900566593375 348.8799816782675, 501.6534541218765 342.78067161372894, 500.3589856149214 333.41325452422916 M500.9835023402374 354.8637956769354 C500.71841330963434 350.92172614391717, 500.88203359683274 344.9224999299313, 500.8418801787382 334.88397388090436" stroke="#CC3333" stroke-width="1.2" fill="none"></path></g><g><path d="M348.8519641098886 161.07127992539563 C347.98802079068474 211.03246648989327, 351.5920566165185 266.32560480348957, 349.47638036706525 381.8149747023158 M348.31803701874367 158.8264432721572 C348.3299050796444 238.67712168697273, 348.23167828411687 319.2950286469768, 348.30301756741204 381.2113938273525" stroke="#000000" stroke-width="0.8" fill="none"></path></g><g><path d="M220.34091721554657 219.8684599131751 C276.6208747157742 220.2340753051867, 334.03926682078094 219.8367977256458, 480.54546999856865 220.2575378507506 M219.84301920182014 219.91141949433967 C291.9312731101623 220.77617327426174, 364.3900649151067 220.30471282697624, 479.84803784486127 219.88485252275956" stroke="#CC3333" stroke-width="1.2" fill="none"></path></g><g><path d="M479.4517487448392 229.44671657032606 C413.86592405593257 229.8585573539549, 346.99534623277543 229.5356196504927, 219.9200635991512 229.9744360444955 M479.8794855258724 229.7064048066063 C399.6091365303603 230.57910889751471, 318.9993291954509 230.36520830250825, 220.24821761044723 229.7547404840579" stroke="#4A90D9" stroke-width="1.2" fill="none"></path></g><g><path d="M209.82554014536186 350.3773420596704 C305.0744357169491 350.35394039534845, 400.5479150813455 350.71668917663953, 490.32078904120755 350.2800996890822 M210.09822624544722 349.9609885986373 C291.63954574887254 350.34686906213614, 373.79250609370007 350.28095055083844, 489.9539026858967 350.15608839091766" stroke="#000000" stroke-width="1" fill="none"></path></g><g><path d="M347.24362791705755 346.9047223133502 C347.24362791705755 346.9047223133502, 347.24362791705755 346.9047223133502, 347.24362791705755 346.9047223133502 M347.24362791705755 346.9047223133502 C347.24362791705755 346.9047223133502, 347.24362791705755 346.9047223133502, 347.24362791705755 346.9047223133502 M347.7106013565912 352.7221393704777 C349.38658227767235 350.572539725518, 349.886780180803 348.7730213167995, 352.1344278568681 347.73401709597715 M347.35251373879265 352.8107425532459 C348.26564338021996 351.8954848178111, 349.39753683592346 350.51892058733245, 351.86190809671575 347.83946438100827 M350.692583375809 355.4388543032599 C351.40405692870263 354.0827780970537, 352.87759875508675 353.0924214562276, 353.99274775642084 351.3619349510944 M350.83961448476805 355.05781599148855 C351.77523257429084 353.56308464384216, 353.10777386134487 352.08043490773264, 353.7663193891605 351.5967636496991" stroke="none" stroke-width="0.5" fill="none"></path><path d="M348.5798604645372 345.3863291102088 C349.01149701628856 345.271791667182, 350.1090993563349 346.5814571556364, 350.88487994800477 347.17096242875255 C351.6606605396746 347.7604677018687, 352.76695904559364 348.2551678799486, 353.2345440145564 348.92336074890585 C353.7021289835191 349.5915536178631, 353.9271659282608 350.3380247714391, 353.69038976178126 351.1801196424961 C353.4536135953017 352.0222145135531, 352.6356642722017 353.581688800512, 351.8138870156791 353.97592997524777 C350.99210975915645 354.37017114998355, 349.58209774585373 353.63153925828556, 348.7597262226454 353.54556669091096 C347.93735469943704 353.45959412353636, 347.4436990003383 354.01708678312076, 346.87965787642906 353.4600945710001 C346.3156167525198 352.9031023588795, 345.2930708776743 351.32119244014325, 345.37547947918983 350.2036134181872 C345.45788808070535 349.0860343962312, 346.5286027509844 347.5807412897749, 347.37410948552224 346.75462043926376 C348.21961622006006 345.92849958875263, 349.8400076902067 345.4630252578031, 350.4485198864166 345.2468883151204 C351.0570320826265 345.03075137243763, 351.2099397679606 345.2680088438043, 351.02518266278184 345.45779878316745 M350.9238095764625 345.7787962093529 C351.77235626608444 345.8600548119979, 352.2422136991433 345.6727945120931, 352.6875436903793 346.2863169497427 C353.1328736816153 346.89983938739226, 353.774460240567 348.3646496949262, 353.59578952387847 349.4599308352502 C353.4171188071899 350.5552119755742, 352.3919453187368 351.9217429502246, 351.61551939024804 352.85800379168666 C350.83909346175926 353.7942646331487, 349.8197697486278 355.13575578119355, 348.937233952946 355.07749588402265 C348.05469815726417 355.01923598685175, 346.9609038312345 353.18438816534194, 346.32030461615733 352.50844440866143 C345.6797054010802 351.8325006519809, 345.2964186142888 351.60845762100485, 345.0936386624831 351.02183334393953 C344.8908587106774 350.4352090668742, 344.5157468485463 349.70737848161497, 345.103624905323 348.98869874626973 C345.69150296209966 348.2700190109245, 347.54258016929043 347.17652202788355, 348.620907003143 346.70975493186825 C349.6992338369955 346.24298783585294, 351.24396794448995 346.1676460739682, 351.57358590843813 346.1880961701779 C351.9032038723863 346.2085462663876, 350.8390626729889 346.93943374378085, 350.598614786832 346.83245550912636" stroke="#000000" stroke-width="1" fill="none"></path></g><g><path d="M280.0508971482016 139.6474410700481 C329.34817783070065 139.66206515103613, 377.57326441832635 139.44055655775693, 419.71551491154787 140.47930340109735 M280.02809971182865 140.17358686395744 C310.59004172601544 140.2616933704629, 341.10760632480896 139.87972065419842, 419.96822478739415 139.78460395061188 M419.5233480763209 140.06961218464303 C420.48250523580725 161.65594957033497, 419.61239314869147 182.71292332345476, 420.2408302554749 210.17104085778286 M419.91167715783405 140.0943839897429 C420.1169729821863 156.54063499622256, 420.0960285300483 173.03859235293174, 419.95342321774694 209.7082336060693 M420.51998310022356 209.90815703098787 C370.6677689579816 210.41259967628767, 321.23239909051614 209.64964566545106, 279.6660864152907 210.2379291423439 M420.0347437165994 209.7598095039925 C377.99690303166875 210.14789136254197, 335.3570755468714 210.31646681649843, 279.9091373359319 209.738520224608 M279.5912120171096 209.6052638350634 C279.6424217264785 189.800566845881, 279.67551152443014 169.18308192404598, 280.36637200422234 139.92366823305042 M280.1179575250261 210.09410181282607 C279.91683267856786 192.4380009222354, 279.8515693036947 174.7973031688595, 279.85816615159416 139.782084343674" stroke="#000000" stroke-width="0.6" fill="none"></path></g><g><path d="M350.78304540187065 138.5844481118236 C351.46354415173585 153.86175120077883, 351.15786723889613 169.94727821627552, 349.9292410221974 209.60602723514066 M349.49684055971335 140.89244535048476 C349.7744474869636 166.98915719380332, 350.2435529367014 193.3876417768772, 350.89080470804123 209.85415192609042" stroke="#000000" stroke-width="0.5" fill="none"></path></g><g><path d="M278.91991058855314 173.24047584898406 C329.5135207717612 172.85702474042694, 378.3577652043876 176.23104386366862, 418.7821820846456 176.9551309185697 M279.1165154866318 174.70118870376982 C310.47340748236263 176.16559470960732, 339.85159876593923 176.56875466778075, 420.78436132816256 175.19886172323788" stroke="#000000" stroke-width="0.5" fill="none"></path></g><text x="400" y="560" text-anchor="middle" font-family="sans-serif" font-size="16" fill="#222" font-style="italic">Both sides know mutual restraint is optimal — and both defect anyway.</text></svg>