<?xml version="1.0" encoding="UTF-8"?>
<svg width="800" height="600" viewBox="0 0 800 600" xmlns="http://www.w3.org/2000/svg"><rect width="800" height="600" fill="#FFFFFF"></rect><g><path d="M334.32969208699785 236.3028346621086 C334.32969208699785 236.3028346621086, 334.32969208699785 236.3028346621086, 334.32969208699785 236.3028346621086 M334.32969208699785 236.3028346621086 C334.32969208699785 236.3028346621086, 334.32969208699785 236.3028346621086, 334.32969208699785 236.3028346621086 M335.03336929826327 247.91405544168364 C340.3051937856926 240.40438936210325, 342.63345529667373 239.40679439293746, 354.0421343773851 225.1274723246737 M336.50715277931926 245.23829945921398 C341.40009027006323 240.93753779118734, 344.9866192127921 234.89959554938778, 352.7906681853516 226.70452146242067 M342.4329497089926 251.65312249163492 C349.0988098920603 244.95532125153508, 354.92991599006115 238.1206401931406, 362.17977071438 228.05713007030357 M341.34848610780455 251.4285170706592 C347.42254165667134 246.96659018043812, 350.61771525792415 241.19302018551176, 362.0593729516535 229.9501080289185 M346.6193766584153 257.39471717228906 C351.1404669505981 253.91233828130856, 358.3977787463473 247.13639181852054, 366.90077809573165 238.45736775511494 M348.6043361736048 257.2460971800808 C352.48462062004114 252.72087084032228, 357.7481080632674 245.70987586953123, 365.4435650334989 237.7318732022411" stroke="none" stroke-width="1" fill="none"></path><path d="M350.76191010338545 224.32682148331602 C354.1128167700886 224.2416260176099, 358.9467269547245 226.29891412940052, 361.3208968086338 228.70330231527495 C363.69506666254307 231.1076905011494, 364.58836519956645 235.29286938232903, 365.006929226841 238.7531505985626 C365.42549325411557 242.21343181479617, 365.66248828797666 246.6438588092289, 363.83228097228124 249.46498961267636 C362.0020736565858 252.28612041612382, 357.2734149024679 254.88445461303044, 354.02568533266844 255.67993541924733 C350.777955762869 256.4754162254642, 347.17873118929367 255.56994772159223, 344.3459035534845 254.23787444997765 C341.51307591767534 252.90580117836308, 338.6543058705231 250.72703477601962, 337.0287195178134 247.68749578955982 C335.40313316510367 244.64795680310002, 333.79593091558996 239.23484405358425, 334.59238543722614 236.00064053121883 C335.3888399588623 232.76643700885342, 338.7302512757551 230.31273825822316, 341.80744664763057 228.28227465536727 C344.88464201950603 226.25181105251139, 351.0065909123085 224.2537840098116, 353.055557668479 223.81785891408347 C355.1045244246495 223.38193381835535, 354.12972707303464 225.39052556923545, 354.10124718465346 225.6667240809986 M358.32990879359147 224.8935724147263 C361.05461794754484 226.34448772654608, 363.16585558328967 230.53709890878523, 364.2968465940405 234.0082429804263 C365.42783760479136 237.47938705206738, 366.2359097514272 242.60260564958892, 365.1158548580965 245.7204368445727 C363.9957999647658 248.83826803955648, 360.2423415942509 251.0835867506662, 357.5765172340563 252.71523015032898 C354.91069287386176 254.34687354999176, 352.18893730641037 256.0706532612503, 349.12090869692895 255.51029724254946 C346.05288008744753 254.94994122384858, 341.40112905088387 251.96201695798524, 339.16834557716794 249.35309403812374 C336.935562103452 246.74417111826224, 336.054650610729 243.18219203457164, 335.72420785463345 239.8567597233804 C335.39376509853787 236.53132741218917, 335.1913905835162 231.8412249764664, 337.1856890405944 229.4005001709764 C339.17998749767264 226.95977536548637, 344.40690355788774 225.75171639763394, 347.6899985971027 225.2124108904403 C350.9730936363177 224.67310538324668, 355.5264562204306 226.05806030724565, 356.88425927588435 226.16466712781457 C358.2420623313381 226.27127394838348, 355.73638289607845 225.8538658945787, 355.8368169298253 225.85205181385376" stroke="#000000" stroke-width="2" fill="none"></path></g><g><path d="M350.2764588058907 256.5912202330209 C350.87123783882714 269.783692054564, 349.70412782319397 283.4871904455675, 350.7691625970435 311.6571141272153 M349.1120512040467 257.5058951813824 C349.0088981818296 266.8599237009401, 348.6846518394327 279.30963847730703, 349.80234852751676 310.94305387439783" stroke="#000000" stroke-width="2" fill="none"></path></g><g><path d="M349.32952071499466 311.8559875411395 C343.5467992778365 330.1591909289611, 340.42449860962023 352.72268370595106, 338.5713772509333 366.8776132449014 M350.2439502225516 310.7067677581101 C345.8826418572071 328.2064068552305, 342.12587878464603 348.1439146821747, 338.431434441389 364.9771336277955" stroke="#000000" stroke-width="2" fill="none"></path></g><g><path d="M348.28782898433604 311.1606255927781 C354.70183743284286 327.6480731526912, 358.7514168201876 348.0103697419043, 362.21005127396637 365.24720248435995 M350.86931913428936 310.39677294692586 C353.4072649332804 323.52909183573087, 355.1107258606704 338.2521328210293, 361.04306640384254 364.97160411229277" stroke="#000000" stroke-width="2" fill="none"></path></g><g><path d="M351.1554442345691 271.91708381213334 C376.5681991894833 265.3510782017091, 399.5900234870155 262.26369012325137, 420.68451338904555 253.2278906001711 M351.76334590101624 272.7094378690596 C368.3792820131409 267.8367050169545, 385.9898440934711 262.9739841131596, 419.94547145107674 254.41340662426663" stroke="#000000" stroke-width="2" fill="none"></path></g><g><path d="M516.7532320944899 233.2296134675544 C516.7532320944899 233.2296134675544, 516.7532320944899 233.2296134675544, 516.7532320944899 233.2296134675544 M516.7532320944899 233.2296134675544 C516.7532320944899 233.2296134675544, 516.7532320944899 233.2296134675544, 516.7532320944899 233.2296134675544 M516.4560489508772 243.5923444412432 C522.7889265842106 240.72616271944716, 526.4566009790524 233.463582253687, 527.5756974820621 232.57167479142043 M516.731797408999 244.26361590353184 C520.1763983043311 240.49227108960653, 523.7126419136821 238.12170114275267, 528.2703537028259 231.05821041314118 M520.6509008146245 251.84468593990232 C527.9693929056597 247.63020597891114, 532.8103563223843 241.30584107973442, 540.3695146129228 230.5675390903233 M520.2561234877993 252.33540284727516 C528.3381129912464 243.25769772019925, 535.733417937586 235.1805978676264, 540.9608428762557 229.7321117988959 M529.5638396712616 253.55876134213037 C533.1950667374439 247.69583158811596, 541.5820304916951 244.21418156932938, 548.5045554453283 235.6193472657283 M528.9621945156701 255.5866486128941 C536.0896304779101 247.79048923385272, 541.6181736342346 240.51791556982965, 546.054295914598 235.81069550347337" stroke="none" stroke-width="1" fill="none"></path><path d="M523.9380431266919 227.32265881124937 C526.9049931188063 226.09042365955779, 531.4200665553994 224.3597914173117, 534.6424794891659 225.29473837156607 C537.8648924229324 226.22968532582044, 541.4440270997552 230.1692819907612, 543.2725207292906 232.9323405367756 C545.101014358826 235.69539908279, 546.1583720106803 238.76612494632622, 545.6134412663781 241.87308964765242 C545.0685105220759 244.98005434897863, 542.6732886750876 249.4679129460855, 540.0029362634777 251.57412874473277 C537.3325838518679 253.68034454338004, 532.98335512211 254.53136162368597, 529.591326796719 254.51038443953598 C526.1992984713281 254.489407255386, 522.1532667371276 253.4446706638938, 519.6507663111325 251.44826563983287 C517.1482658851374 249.45186061577195, 515.0054440343988 245.6302891072994, 514.5763242407482 242.53195429517046 C514.1472044470977 239.43361948304153, 515.0351799323815 235.55381266305187, 517.0760475492295 232.8582567670593 C519.1169151660775 230.1627008710667, 524.8708200683501 227.39655985439387, 526.821529941836 226.35861891921488 C528.772239815322 225.32067798403588, 528.8170487883117 226.5979842233378, 528.7803067901452 226.63061115598538 M530.1729661431822 225.12303517357054 C533.5606662149653 224.7939439754336, 538.2112971057554 226.6955482943286, 540.5670657567447 228.4220209508087 C542.922834407734 230.1484936072888, 543.8748716783862 232.2132488559918, 544.3075780491179 235.48187111245116 C544.7402844198496 238.75049336891053, 544.3339829510918 244.95330245596625, 543.1633039811345 248.03375448956484 C541.9926250111772 251.11420652316343, 540.3390371211303 252.76720785070876, 537.283504229374 253.9645833140426 C534.2279713376176 255.16195877737647, 528.1114698402857 256.15391497596727, 524.8301066305968 255.21800726956792 C521.5487434209078 254.2820995631686, 519.5039732680518 251.34717815199886, 517.5953249712403 248.34913707564664 C515.6866766744288 245.35109599929442, 513.2173212742637 240.45176444514038, 513.3782168497274 237.2297608114546 C513.5391124251912 234.00775717776884, 515.9094291552716 230.95430825791422, 518.560698424023 229.017115273532 C521.2119676927745 227.07992228914978, 527.630073063603 226.0206819102461, 529.2858324622359 225.60660290516128 C530.9415918608688 225.19252390007645, 528.6680281522844 226.1060571633716, 528.4952548158203 226.53264124302302" stroke="#000000" stroke-width="2" fill="none"></path></g><g><path d="M530.1625058770167 257.038634159722 C528.0339916430262 269.10620231137585, 529.1765894929626 279.01700444778305, 529.0955347846732 310.46198510684286 M529.3901802178095 257.7316293341207 C529.5313118777204 270.38780868103294, 530.4077947681598 285.05669926530504, 529.55966003726 309.02987896977714" stroke="#000000" stroke-width="2" fill="none"></path></g><g><path d="M531.4301452441595 308.33158542408063 C524.7582720100594 327.903011537452, 520.6813902689995 345.24784093839565, 519.7996985105411 365.2714414227937 M530.6016117247619 309.2179598671302 C524.641579726102 331.8666184628189, 521.8951251611137 352.69289853862983, 517.4741754774648 365.02921880819986" stroke="#000000" stroke-width="2" fill="none"></path></g><g><path d="M531.217902654134 309.0509650826364 C533.3836945722129 324.47924286443487, 534.1123370522972 333.18878915965684, 540.3888095680156 366.3074189739212 M530.5501701795271 310.2495726009551 C532.9632289849942 321.4508775446616, 535.8095239743687 335.2280758450603, 542.0701205388453 364.2740622799014" stroke="#000000" stroke-width="2" fill="none"></path></g><g><path d="M529.7293713445923 271.65645955987685 C510.4341451482209 266.8330518954593, 493.55833819956854 263.442039794449, 473.48185278393345 256.4911978360597 M527.2455944795946 271.3836369170596 C514.0662662188516 267.79522065104777, 499.9879016719843 263.1089330896612, 475.11709096929593 255.69609391375522" stroke="#000000" stroke-width="2" fill="none"></path></g><g><path d="M334.5877603855458 266.33478679375094 C333.07032664836487 268.608040006135, 330.7760058049602 269.18289712447324, 324.4902672130448 274.3101101195415 M335.30953365014955 265.4372369485933 C331.81469456721135 268.5160969391679, 328.00854492271924 272.8172227580089, 324.8690696929149 275.1849545056219" stroke="#999" stroke-width="1.2" fill="none"></path></g><g><path d="M332.8562419424394 286.1216622141875 C329.47916513208025 286.6295043347206, 326.9596143667825 290.5699442475009, 323.1655024665009 290.82119557325245 M332.5931429478291 285.0002242483858 C328.20677910215335 287.1700951252817, 324.5640576626073 290.4158553172658, 322.55031824672625 292.06501409178736" stroke="#999" stroke-width="1.2" fill="none"></path></g><g><path d="M200.9391238977969 418.99011537549006 C314.1492536177886 421.9735916939805, 428.3603445932322 421.354775793761, 650.9142713190486 419.9572986398917 M200.0960614649825 419.93554806808123 C318.8137100248305 422.54408362396487, 436.0148712392907 422.45320592971467, 650.647287087362 420.1004745381874" stroke="#000000" stroke-width="1.6" fill="none"></path></g><text x="400" y="560" text-anchor="middle" font-family="sans-serif" font-size="16" fill="#222" font-style="italic">"Ego's favourite disguise is virtue."</text></svg>