<?xml version="1.0" encoding="UTF-8"?>
<svg width="800" height="600" viewBox="0 0 800 600" xmlns="http://www.w3.org/2000/svg"><rect width="800" height="600" fill="#FFFFFF"></rect><g><path d="M99.78226499308883 418.99547302656197 C305.9117448828905 418.4157194661508, 512.5634926081632 419.3567884568999, 699.481980362903 420.7764691139454 M100.09171455893134 420.166393759845 C320.9248929568406 419.01964185309424, 540.742639888201 418.6948516353982, 699.9123701149778 420.09620412900836" stroke="#000000" stroke-width="2" fill="none"></path></g><g><path d="M242.36755287427593 306.0878349116956 C242.36755287427593 306.0878349116956, 242.36755287427593 306.0878349116956, 242.36755287427593 306.0878349116956 M242.36755287427593 306.0878349116956 C242.36755287427593 306.0878349116956, 242.36755287427593 306.0878349116956, 242.36755287427593 306.0878349116956 M242.95847145048396 316.56314678534454 C247.39844830043117 312.0547701829783, 249.78185132474027 309.1055108559162, 251.11367455260856 307.25335788432363 M243.42081533907893 316.860180324487 C245.41920374418984 314.3503585219088, 248.07847289833916 312.6514612018816, 252.95855647938285 306.62325751827416 M249.3566993426612 320.7209057457227 C252.62723163627487 318.22584344250936, 254.71813874135862 315.57158468907187, 259.26544502104707 310.06221833501803 M250.96616434172495 321.3536268392994 C252.8917027102589 318.55130575047195, 255.77713400491317 315.2116031493661, 260.21131653980274 310.037519216925" stroke="none" stroke-width="1" fill="none"></path><path d="M247.98645241362107 303.32014419232723 C250.02438481001818 302.9732944659529, 253.97589728842564 303.0616978205608, 255.71665137391653 304.0111886387127 C257.4574054594074 304.9606794568646, 257.70504351595105 307.115702190156, 258.4309769265664 309.0170891012387 C259.1569103371818 310.9184760123214, 260.75346810897605 313.398715431936, 260.07225183760875 315.4195101052089 C259.39103556624144 317.44030477848173, 256.1395330942783 320.293910370518, 254.3436792983627 321.1418571408757 C252.5478255024471 321.98980391123337, 251.25635823241765 321.00665851229013, 249.29712906211518 320.50719072735484 C247.3378998918127 320.00772294241955, 244.072253672385 319.3733260056936, 242.58830427654783 318.145050431264 C241.10435488071067 316.91677485683437, 240.42418721116505 315.15401840766964, 240.39343268709217 313.13753728077694 C240.3626781630193 311.12105615388424, 240.6806221830059 307.7501034578007, 242.40377713211058 306.0461636699077 C244.12693208121524 304.34222388201465, 249.17706962517113 303.5861004920962, 250.7323623817202 302.9138985534186 C252.2876551382693 302.24169661474104, 251.8366120654478 302.0049686310478, 251.735533671405 302.0129520378424 M246.6595464409373 303.251109625847 C248.29321538982634 302.2825916543135, 249.09790183859286 302.5888934488311, 251.26192926329887 303.2343356883655 C253.42595668800487 303.8797779278999, 258.18189842105414 305.630726541662, 259.6437109891733 307.12376306305345 C261.1055235572925 308.6167995844449, 260.55150427413537 310.3833385526009, 260.0328046720138 312.1925548167142 C259.51410506989225 314.00177108082755, 257.87938446261893 316.5910714547418, 256.53151337644397 317.97906064773343 C255.183642290269 319.3670498407251, 253.8107761438567 320.16863130735356, 251.9455781549641 320.5204899746641 C250.08038016607148 320.8723486419746, 247.4614663463135 321.18483976242646, 245.3403254430883 320.0902126515967 C243.21918453986308 318.9955855407669, 239.9438400137128 315.9572267106199, 239.2187327356129 313.9527273096854 C238.493625457513 311.9482279087508, 239.77966279262486 309.8302240475994, 240.98968177448893 308.06321624598957 C242.199700756353 306.2962084443797, 245.6990291187787 304.18023211393233, 246.4788466267973 303.35068050002616 C247.2586641348159 302.52112888612, 245.43961530792976 302.710383666094, 245.66858682260056 303.08590656255245" stroke="#000000" stroke-width="2" fill="none"></path></g><g><path d="M250.0283322512758 333.70028817672244 C250.6274245783151 345.661579311575, 250.37095393190492 357.401351671496, 248.19414358719962 364.4853443360644 M250.18317681317077 332.8038538645703 C250.83161601569006 340.94222534901826, 249.65058455953772 350.60089766192226, 250.3286461749181 364.10355413259845" stroke="#000000" stroke-width="2" fill="none"></path></g><g><path d="M249.13793436147546 364.6217959974908 C246.3612174128673 373.4970589390449, 244.54853062666717 385.9178442751817, 239.25757434394683 396.86996471433406 M249.68616952178817 364.37907887209826 C247.35463313167241 372.75653649845503, 244.97944479723998 379.25190145577324, 239.1126753819986 394.4504570384659" stroke="#000000" stroke-width="2" fill="none"></path></g><g><path d="M249.45202705058466 365.10502562222223 C254.4150666574518 375.79472908424435, 259.92780450574065 389.2171409498914, 258.4981979662659 396.9141590131268 M249.24674399155663 364.4489194214848 C252.44582098203762 373.3321195634964, 255.34297805233388 383.43153572794, 260.50991202144365 395.12376463191805" stroke="#000000" stroke-width="2" fill="none"></path></g><g><path d="M235.25522144850996 334.9275163243484 C242.8323569434975 334.51029976188573, 250.19987263385477 333.5790648334909, 264.95343811748006 335.10356298996373 M234.21897230937583 334.57517458265016 C243.07532317477876 334.9519617945311, 249.57989902851142 335.03237473194304, 264.64639282996154 335.67766700444315 M265.89879745736846 335.463928005032 C266.0477309467096 343.71665676588105, 266.1904571158711 351.06741249761933, 263.4461368782172 371.17179068260754 M264.360452746514 334.25652071630884 C265.2263699311511 342.9954447265122, 264.2695740050052 349.85031754117864, 265.05142351982363 370.22585520189807 M266.48941071859116 370.8180145055433 C258.5113712013433 369.57349940423995, 249.86996533347633 371.39867271585945, 234.36372090061633 371.48906618105593 M265.7721016225454 369.3522146298442 C255.04066737539063 370.11325639398717, 245.07287075096212 370.52037867069873, 234.31892531623768 369.8099159227226 M236.18771502688435 370.97173288419674 C234.94017582390143 361.6848971106219, 236.20713934482015 353.0659414551441, 235.0002943623307 335.02549245643036 M234.6749255575585 369.37507514412164 C234.65078581425118 361.45256181932524, 235.2354617994065 352.93800998393215, 235.01163877887313 335.0843018950464" stroke="#000000" stroke-width="1.4" fill="none"></path></g><g><path d="M229.54796660125044 345.23025302905506 C231.20455920459867 344.5708244061789, 232.43564269193905 344.8512130759938, 234.58189632488325 345.35247014608217 M229.9913067538594 344.962553812241 C231.86273105490045 344.72345008939493, 233.19328186476687 344.8868286780253, 235.24552217625532 344.8758380618157" stroke="#000000" stroke-width="1.6" fill="none"></path></g><g><path d="M265.49697943574006 345.49645541750704 C265.8993869630155 345.01012771081685, 267.2169009603973 345.02329718600555, 270.3496572233835 344.50431187621797 M264.917882090044 344.94399219850465 C266.9169028559045 345.043834646858, 268.719169695087 344.9603105980743, 269.8690265096531 345.1987387155575" stroke="#000000" stroke-width="1.6" fill="none"></path></g><g><path d="M208.75434258667931 380.1673548752905 C218.0774261828544 378.8672381723338, 227.0294100230429 380.8131922825538, 235.0021264628093 378.94004460952016 M210.1674527780906 379.24031324221073 C216.30659916916463 379.7880259312501, 223.3100558359518 379.4735121109247, 234.78809239621702 379.20485870146246 M234.0484683908407 378.6882462058384 C236.32805816899824 384.18794988392096, 235.6413590727917 391.62774327426973, 235.78492805222186 398.6562347206556 M234.65034800709793 380.3579346985233 C234.14982012648696 384.4848844860383, 235.56026030518953 389.0328379794578, 234.77179295526375 399.738897964168 M235.50283875080063 399.15989311689526 C226.48171327589745 399.0085340134629, 217.6847079684392 398.9487104206627, 210.23877066989118 401.35655810325176 M234.47463673525235 399.9053274304881 C228.19481716387764 399.53745718903855, 219.3314585768025 399.4583284398226, 209.27444625590618 400.4879269426518 M211.10631198146527 398.4787100261815 C208.74144800904563 395.26154830106, 210.76432805466726 390.9818391651014, 208.89279386790787 378.77183779753153 M209.2013474909387 399.47725523871514 C210.07227525091162 393.8259725404608, 209.96305158459614 388.05387062722605, 210.67769286078342 379.4345422149487" stroke="#000000" stroke-width="1.6" fill="none"></path></g><g><path d="M219.59649203647353 389.64426720059475 C219.59649203647353 389.64426720059475, 219.59649203647353 389.64426720059475, 219.59649203647353 389.64426720059475 M219.59649203647353 389.64426720059475 C219.59649203647353 389.64426720059475, 219.59649203647353 389.64426720059475, 219.59649203647353 389.64426720059475" stroke="none" stroke-width="0.6" fill="none"></path><path d="M222.0248330771147 387.6756953875907 C222.4466223015476 387.8922322213082, 223.570685575351 388.95816710168367, 223.980221161558 389.40597415642026 C224.389756747765 389.85378121115684, 224.6191258210226 389.9323272298293, 224.48204659435675 390.3625377160102 C224.34496736769088 390.7927482021911, 223.5523935657581 391.766339275507, 223.1577458015628 391.9872370735058 C222.7630980373675 392.2081348715046, 222.43656664582292 391.7694151350381, 222.11416000918499 391.687924504003 C221.79175337254705 391.60643387296784, 221.58883330016758 391.6878201857376, 221.22330598173514 391.4982932872948 C220.8577786633027 391.308766388852, 220.16814310030412 390.88736325292786, 219.92099609859034 390.5507631133462 C219.67384909687655 390.21416297376453, 219.59779713845583 389.8025268064823, 219.74042397145234 389.47869244980484 C219.88305080444886 389.15485809312736, 220.387258252812 388.85539288829636, 220.77675709656938 388.60775697328137 C221.16625594032678 388.3601210582664, 221.73937544813222 388.1422880396976, 222.07741703399668 387.9928769597148 C222.41545861986114 387.84346587973204, 222.79096172035526 387.7259738138143, 222.80500661175617 387.7112904933848 M221.05666895968398 388.7747468812411 C221.53307754129645 388.70756945954724, 223.54038563217355 387.91673075790004, 223.97707466616163 388.1063205636131 C224.4137637001497 388.2959103693262, 223.62008862128997 389.4337526883492, 223.67680316361242 389.9122857155194 C223.73351770593487 390.39081874268953, 224.32917306283397 390.62260885576745, 224.31736192009635 390.97751872663395 C224.30555077735872 391.33242859750044, 224.06753973174287 391.9718449223755, 223.6059363071866 392.04174494071844 C223.14433288263032 392.1116449590614, 222.00564358978343 391.6644375982401, 221.54774137275876 391.39691883669167 C221.0898391557341 391.1294000751432, 221.11117153495772 390.5968206401587, 220.85852300503865 390.4366323714277 C220.60587447511958 390.27644410269676, 219.96883674401235 390.64858919610407, 220.03185019324428 390.43578922430595 C220.0948636424762 390.22298925250783, 220.90990720547336 389.44212450862335, 221.23660370043027 389.15983254063906 C221.56330019538717 388.87754057265477, 221.96102124458275 388.86765479396803, 221.99202916298572 388.7420374164 C222.02303708138868 388.616420038832, 221.40095088110266 388.57154135686847, 221.42265121084802 388.406128275231" stroke="#000000" stroke-width="1.2" fill="none"></path></g><g><path d="M546.2521175057495 315.8481620499217 C546.2521175057495 315.8481620499217, 546.2521175057495 315.8481620499217, 546.2521175057495 315.8481620499217 M546.2521175057495 315.8481620499217 C546.2521175057495 315.8481620499217, 546.2521175057495 315.8481620499217, 546.2521175057495 315.8481620499217 M548.1859834053123 326.22076909928865 C551.0721283369169 323.30936017991223, 553.0736643423853 319.8593241032305, 554.9452550343076 318.8485325122339 M548.3708401783792 325.45235142662096 C549.3208995131259 323.84722190660085, 551.2670095127806 322.3363803316738, 554.8261119538492 317.83276310800716" stroke="none" stroke-width="1" fill="none"></path><path d="M550.6339205603784 314.3408835961782 C551.7133863998282 314.4011732483335, 552.9504866758344 315.5595117982457, 553.9548439743268 316.5777556159746 C554.9592012728191 317.59599943370347, 556.5143026724245 319.2274790996355, 556.6600643513326 320.45034650255144 C556.8058260302407 321.6732139054674, 555.7101885918831 323.1280565749726, 554.8294140477751 323.9149600334701 C553.9486395036671 324.7018634919676, 552.7647172914484 324.9360007852915, 551.3754170866843 325.17176725353636 C549.9861168819201 325.4075337217812, 547.7958592256442 325.93458804526296, 546.4936128191905 325.3295588429392 C545.1913664127368 324.72452964061546, 543.9037616657689 322.60663212414875, 543.5619386479622 321.541592039594 C543.2201156301554 320.4765519550392, 543.9453052577443 319.94459864655573, 544.4426747123501 318.93931833561044 C544.940044166956 317.93403802466514, 545.324498930025 316.4020343303488, 546.5461553755973 315.50991017392226 C547.7678118211696 314.61778601749575, 550.836984328699 313.795874858825, 551.7726133857842 313.5865733970515 C552.7082424428694 313.377271935278, 552.2677741109405 314.00047826213273, 552.1599297181083 314.2541014032812 M551.4112121696896 313.59993016224166 C552.88989740289 313.8887157636234, 555.0918712176838 316.01218308689226, 556.0349710514596 316.96320051579124 C556.9780708852354 317.9142179446902, 557.200485763559 317.99885548772755, 557.0698111723449 319.3060347356355 C556.9391365811308 320.6132139835434, 556.2281472156019 323.5310988722404, 555.250923504175 324.80627600323874 C554.2736997927482 326.08145313423705, 552.6407667854158 326.7997592686196, 551.2064689037835 326.9570975216254 C549.7721710221512 327.11443577463126, 547.7086888793199 326.79943968684347, 546.6451362143808 325.7503055212737 C545.5815835494418 324.7011713557039, 545.1314862078065 322.0744738021766, 544.8251529141495 320.66229252820665 C544.5188196204925 319.2501112542367, 544.281154982222 318.1281586016351, 544.8071364524388 317.2772178774538 C545.3331179226557 316.42627715327245, 547.0233386275152 315.9940867435424, 547.9810417354504 315.55664818311874 C548.9387448433856 315.11920962269505, 549.8578940084633 314.8667468655825, 550.5533551000503 314.6525865149115 C551.2488161916374 314.43842616424047, 551.8817698907847 314.2302490939079, 552.1538082849726 314.27168607909266" stroke="#DAA520" stroke-width="2" fill="none"></path></g><g><path d="M485.4627264802152 357.08067315926564 C485.4627264802152 357.08067315926564, 485.4627264802152 357.08067315926564, 485.4627264802152 357.08067315926564 M485.4627264802152 357.08067315926564 C485.4627264802152 357.08067315926564, 485.4627264802152 357.08067315926564, 485.4627264802152 357.08067315926564 M486.054921392205 364.21163955491716 C489.9903947815074 362.4140381285976, 492.18597826080935 359.30294933727663, 493.15666193531945 357.28249168787147 M486.31866833102606 365.2072241206208 C489.464909010379 361.09239307545346, 492.0642902021581 357.8288657897889, 493.50370904931117 356.28100962750545" stroke="none" stroke-width="0.8" fill="none"></path><path d="M491.7698722235169 354.9609526913138 C492.8032160454764 354.99652369256745, 493.5594227691545 355.78565804158404, 494.18808038012486 356.6114586471731 C494.81673799109524 357.43725925276215, 495.5817026978025 358.71277143471934, 495.54181788933914 359.91575632484813 C495.5019330808758 361.1187412149769, 494.7470310325108 362.9157876679023, 493.9487715293448 363.82936798794566 C493.15051202617883 364.742948307989, 492.06589961511463 365.36340511164144, 490.75226087034315 365.39723824510827 C489.43862212557167 365.4310713785751, 486.92300671409293 364.7821998789934, 486.0669390607159 364.0323667887467 C485.2108714073389 363.28253369849995, 485.74915748074346 362.019352799307, 485.61585495008114 360.8982397036277 C485.4825524194188 359.77712660794845, 484.81267586750107 358.2972176484163, 485.2671238767421 357.30568821467114 C485.72157188598317 356.314158780926, 487.26479510366806 355.2673738372652, 488.3425430055276 354.9490631011568 C489.42029090738714 354.6307523650484, 491.010689498054 355.30783806709223, 491.73361128789946 355.3958237980206 C492.45653307774495 355.483809528949, 492.734043080572 355.4722099725398, 492.6800737446005 355.47697748672715 M488.69557420049773 356.14826236837797 C489.47128975498055 355.98744913255416, 491.72185664399865 355.1548967738152, 492.7228998054765 355.4435057508461 C493.7239429669544 355.732114727877, 494.2006184212332 356.83491771417346, 494.7018331693648 357.87991623056325 C495.20304791749646 358.92491474695305, 496.0949863076064 360.61711111480145, 495.73018829426644 361.7134968491847 C495.3653902809265 362.80988258356797, 493.591576993277 363.794939566126, 492.51304508932515 364.4582306368627 C491.4345131853733 365.1215217075994, 490.2550300492689 366.03222015431624, 489.2589968705555 365.69324327360505 C488.2629636918421 365.35426639289386, 487.2128540513206 363.32460111460114, 486.53684601704487 362.4243693525955 C485.8608379827691 361.5241375905898, 485.31207385021276 361.4178335061168, 485.20294866490093 360.29185270157103 C485.0938234795891 359.1658718970253, 485.1606813262373 356.5517346377302, 485.882094905174 355.66848452532105 C486.60350848411065 354.7852344129119, 488.8436749037917 354.99049689861357, 489.53143013852116 354.99235202711606 C490.21918537325064 354.99420715561854, 490.03766864987443 355.6280368344921, 490.00862631355074 355.6796152963359" stroke="#DAA520" stroke-width="1.6" fill="none"></path></g><g><path d="M608.2143319780491 355.13595040957955 C608.2143319780491 355.13595040957955, 608.2143319780491 355.13595040957955, 608.2143319780491 355.13595040957955 M608.2143319780491 355.13595040957955 C608.2143319780491 355.13595040957955, 608.2143319780491 355.13595040957955, 608.2143319780491 355.13595040957955 M608.0065975947399 364.91100653884985 C610.5874600619404 362.250610572325, 612.0279125672394 360.33771801681655, 614.107760774901 357.41097918946696 M607.7516413670958 364.4903489778913 C610.1928818968405 361.4476277989418, 612.7276482810847 358.70061378633335, 614.6562393151682 357.1918065266752" stroke="none" stroke-width="0.8" fill="none"></path><path d="M612.137027960426 355.98200925310493 C613.1134139286658 356.0609132084512, 614.2871299366623 356.20677189822544, 614.72764788746 356.8863858238294 C615.1681658382577 357.5659997494334, 615.1659467130513 358.80409578222014, 614.7801356652122 360.0596928067288 C614.3943246173732 361.3152898312374, 613.0776934880394 363.5822827013394, 612.4127816004254 364.41996797088115 C611.7478697128115 365.2576532404229, 611.6187337189285 365.1215607449757, 610.790664339529 365.0858044239791 C609.9625949601295 365.0500481029825, 608.4833192831019 364.7906347525854, 607.4443653240284 364.2054300449014 C606.4054113649548 363.6202253372174, 604.7283028992281 362.643049662425, 604.5569405850879 361.5745761778752 C604.3855782709477 360.5061026933254, 605.8246810762771 358.84692368113673, 606.4161914391872 357.7945891376026 C607.0077018020972 356.74225459406847, 607.271138715209 355.6246869169846, 608.1060027625487 355.2605689166703 C608.9408668098883 354.896450916356, 610.7866958666697 355.4074047664484, 611.4253757232257 355.60988113571676 C612.0640555797817 355.81235750498513, 611.9837658169228 356.361117955092, 611.9380819018847 356.4754271322804 M607.8098105311072 354.74579525913884 C608.703128243098 354.0759997602708, 610.170399919269 354.5991787232731, 611.0427057821112 354.94941766210195 C611.9150116449533 355.2996566009308, 612.4021575950933 355.84441776363985, 613.0436457081599 356.84722889211184 C613.6851338212266 357.85004002058383, 614.9872851656284 359.86263091783655, 614.891634460511 360.96628443293406 C614.7959837553936 362.06993794803157, 613.1328521050909 362.90971957003234, 612.469741477456 363.4691499826969 C611.806630849821 364.0285803953614, 611.7496428370918 364.20692837874316, 610.9129706947012 364.3228669089214 C610.0762985523107 364.43880543909967, 608.576638399918 364.692504195534, 607.449708623113 364.1647811637665 C606.322778846308 363.637058131999, 604.2996506585157 362.2615439206199, 604.1513920338715 361.15652871831657 C604.0031334092273 360.05151351601324, 605.6933417702783 358.4638087776194, 606.560156875248 357.5346899499465 C607.4269719802178 356.60557112227355, 609.1244292372603 355.87036817070305, 609.3522826636902 355.581815752279 C609.58013609012 355.29326333385495, 607.9300493182932 355.82953095058986, 607.927277433827 355.80337543940215" stroke="#DAA520" stroke-width="1.6" fill="none"></path></g><g><path d="M506.01398070663504 267.61955344252834 C506.01398070663504 267.61955344252834, 506.01398070663504 267.61955344252834, 506.01398070663504 267.61955344252834 M506.01398070663504 267.61955344252834 C506.01398070663504 267.61955344252834, 506.01398070663504 267.61955344252834, 506.01398070663504 267.61955344252834 M507.377404163941 275.03601960678117 C510.29566910091893 272.59567366918, 512.1911229724375 269.095078185526, 513.1188729004913 267.5250893053057 M507.64312618103907 274.5782853181902 C509.72376594950856 272.5150570074175, 511.20297127573707 270.87578744289766, 513.6603855630618 267.86960066129456" stroke="none" stroke-width="0.8" fill="none"></path><path d="M510.6890115227253 264.57243443961704 C511.8053621448927 264.8971768221502, 513.2224551523153 266.40610052767045, 513.9988043024607 267.36532193328196 C514.7751534526061 268.3245433388935, 515.3866911230482 269.31767971299325, 515.3471064235979 270.32776287328625 C515.3075217241476 271.33784603357924, 514.6108198484674 272.6415172494931, 513.7612961057588 273.42582089503975 C512.9117723630502 274.2101245405864, 511.2706669461468 274.94840243702043, 510.24996396734616 275.03358474656596 C509.22926098854555 275.1187670561115, 508.46051846147395 274.559476652577, 507.63707823295505 273.93691475231304 C506.81363800443614 273.31435285204907, 505.59749135737474 272.33080001053366, 505.3093225962329 271.2982133449823 C505.02115383509107 270.2656266794309, 505.449020314782 268.57023050528386, 505.908065666104 267.7413947590047 C506.367111017426 266.9125590127256, 507.0424263381598 266.6966827751986, 508.06359470416487 266.32519886730745 C509.0847630701699 265.9537149594163, 511.47523380392954 265.6491039928096, 512.0350758621341 265.51249131165764 C512.5949179203387 265.37587863050567, 511.6412379407791 265.4782619842614, 511.42264705339227 265.5055227803955 M511.67639824551117 264.5558205081733 C512.364802969565 264.8374358467389, 512.4619854530683 266.7889542837124, 513.0594213941407 267.77624808085375 C513.6568573352131 268.76354187799507, 515.3110409583026 269.4907608530177, 515.2610138919451 270.4795832910213 C515.2109868255877 271.4684057290249, 513.3949882920637 273.07829979693463, 512.7592589959961 273.70918270887535 C512.1235296999286 274.34006562081606, 512.4393172596383 274.2546513447918, 511.44663811553994 274.2648807626656 C510.4539589714416 274.2751101805394, 507.64319257894664 274.2491501162691, 506.80318413140577 273.77055921611804 C505.9631756838649 273.291968315967, 506.60893089327794 272.314847054426, 506.4065874302946 271.3933353617592 C506.2042439673113 270.47182366909243, 505.4187363025055 269.1170434911643, 505.58912335350595 268.2414890601173 C505.7595104045064 267.36593462907035, 506.54307692417865 266.7488193499158, 507.42890973629704 266.1400087754774 C508.31474254841544 265.531198201039, 510.39541482633064 264.6071278137527, 510.9041202262165 264.58862561348684 C511.41282562610235 264.570123413221, 510.69628712783754 265.9264465998631, 510.4811421356121 266.0289955738823" stroke="#DAA520" stroke-width="1.6" fill="none"></path></g><g><path d="M585.3149544673518 267.65416257449385 C585.3149544673518 267.65416257449385, 585.3149544673518 267.65416257449385, 585.3149544673518 267.65416257449385 M585.3149544673518 267.65416257449385 C585.3149544673518 267.65416257449385, 585.3149544673518 267.65416257449385, 585.3149544673518 267.65416257449385 M586.4295144384421 275.011806832919 C589.3358159203633 271.28014843034885, 592.5761052787218 268.4201990964891, 593.7355466317392 267.34591773391156 M586.9566731982086 274.8582399684371 C588.939260903359 272.65064096985463, 590.9709673120317 270.0304855380689, 593.7446037452794 266.85716600624215" stroke="none" stroke-width="0.8" fill="none"></path><path d="M590.3205623027858 265.39723695205 C591.4023170942934 265.3631058788682, 592.8924251692284 265.6341374343136, 593.5465237511704 266.4318113872869 C594.2006223331124 267.2294853402603, 594.3171419545115 269.189991044159, 594.2451537944374 270.18328066989 C594.1731656343634 271.176570295621, 593.5910682928616 271.58692891357333, 593.1145947907262 272.391549141673 C592.6381212885908 273.1961693697727, 592.3465161170719 274.7251730837728, 591.3863127816252 275.01100203848796 C590.4261094461784 275.2968309932031, 588.4126024295717 274.6295642630088, 587.3533747780458 274.1065228699638 C586.2941471265199 273.5834814769188, 585.3680995594799 272.951119650927, 585.0309468724698 271.87275368021807 C584.6937941854598 270.7943877095091, 584.9022947455722 268.65538087147655, 585.3304586559854 267.6363270457102 C585.7586225663985 266.6172732199438, 586.6591800677132 266.22839146646527, 587.5999303349486 265.7584307256199 C588.5406806021839 265.28846998477457, 590.4091603085898 264.9615174236218, 590.9749602593976 264.8165626006381 C591.5407602102053 264.67160777765446, 590.9564189741385 264.6311884101276, 590.9947300397955 264.88870178771805 M589.2254033800316 265.2275133706027 C590.0471588624233 265.1228923003737, 590.896726672151 265.35898717218464, 591.612344874323 265.903841742066 C592.3279630764949 266.44869631194734, 593.094719080165 267.6151489496722, 593.5191125930637 268.49664078989076 C593.9435061059625 269.37813263010935, 594.3392722550971 270.42236579379005, 594.1587059517153 271.19279278337746 C593.9781396483336 271.96321977296486, 593.2980457821376 272.66965004972997, 592.4357147727735 273.1192027274152 C591.5733837634094 273.56875540510043, 589.8432538417994 273.6391489277058, 588.9847198955307 273.89010884948874 C588.126185949262 274.1410687712717, 587.7333133858297 275.2014006030271, 587.2845110951613 274.6249622581131 C586.8357088044929 274.0485239131991, 586.4464714589877 271.51646990937064, 586.2919061515207 270.43147878000497 C586.1373408440537 269.3464876506393, 586.0819832325258 269.0447429931622, 586.3571192503591 268.11501548191893 C586.6322552681925 267.1852879706757, 587.6343034315512 265.325566109418, 587.9427222585207 264.85311371254556 C588.2511410854902 264.38066131567314, 588.1759263054278 265.28682476862707, 588.2076322121763 265.28030110068437" stroke="#DAA520" stroke-width="1.6" fill="none"></path></g><g><path d="M541.0214480766759 326.02615907029593 C530.0772067720259 331.21129430017294, 520.9603895108546 337.78167326929264, 498.2460149504931 353.35570994670144 M539.9785951112984 325.09780159999787 C530.2812086582733 331.54078304959506, 520.3595677201386 337.66212705871465, 498.2938509655174 352.63045493120717" stroke="#DAA520" stroke-width="1.4" fill="none"></path></g><g><path d="M558.8622231928134 324.00809528238665 C570.1267951539983 331.7814602919289, 577.9148726801237 337.978159302088, 600.9885217757676 353.33026350624 M560.0332893755428 325.31578289377984 C571.9225369326168 332.9518173772107, 583.5279756891272 340.05269273535714, 601.6989562347034 352.94335890989385" stroke="#DAA520" stroke-width="1.4" fill="none"></path></g><g><path d="M542.1982439221076 310.075194191435 C537.374074650579 303.94231562712787, 530.6416182634117 296.62917154219275, 516.4201098769615 277.1922559419916 M541.4530237436193 309.8579076157338 C535.5013639552352 302.4914593087239, 529.4970853231517 294.35431670817826, 515.6237390257537 277.44898950593176" stroke="#DAA520" stroke-width="1.4" fill="none"></path></g><g><path d="M558.1786923913311 310.9360313787466 C563.5975519854993 302.85602726358303, 570.2584839003521 293.59776512627263, 584.167803558686 277.2593495761249 M557.4016340802223 310.52124651387413 C566.7743025502751 298.71640876282504, 575.4799380771848 288.9058045341549, 583.8696469496402 277.7596573933001" stroke="#DAA520" stroke-width="1.4" fill="none"></path></g><text x="400" y="560" text-anchor="middle" font-family="sans-serif" font-size="16" fill="#222" font-style="italic">"Information shared compounds. Information hoarded decays."</text></svg>