<?xml version="1.0" encoding="UTF-8"?>
<svg width="800" height="600" viewBox="0 0 800 600" xmlns="http://www.w3.org/2000/svg"><rect width="800" height="600" fill="#FFFFFF"></rect><g><path d="M141.90394217705906 301.4112333197766 C159.26704836202387 299.48428288403574, 175.8639985566875 299.88601856116185, 186.36310860921108 299.1107132188963 M140.765570298852 299.6930327191659 C155.2340740337623 299.5321694797194, 171.00100854933987 299.7215115822553, 185.49162340137082 299.6577228394422 M186.86066540125378 301.48540509417376 C184.96373371837652 313.5134132454147, 183.7017435742945 329.73212570353434, 185.6100782651933 358.72013254377123 M184.96837259948242 300.7957688266822 C184.81673923565666 322.0190960247853, 184.6138364361937 344.14023875308277, 184.54659227072383 359.095406814226 M183.2959071503767 359.88625385136606 C173.00061833446497 359.60236492006214, 158.40424264071453 359.1101659420517, 138.99987291616392 360.12470076364303 M185.96455748714266 359.9639169743321 C175.59827432724796 360.0858679008187, 165.2709976068918 360.1111166781748, 139.4928369542557 359.20324214650094 M139.91564440155108 361.6708905497323 C142.49766337191758 339.0355726503176, 138.56485968051675 315.56057927079365, 140.2364241623899 299.28604546531454 M139.0348244583813 359.00110509647726 C140.35218965167206 340.20114233752616, 140.56109859536187 319.51869557012265, 139.81034815343517 300.2572713482511" stroke="#4A90D9" stroke-width="1.5" fill="none"></path></g><g><path d="M205.69125265524545 269.44363320948327 C219.96427628310266 270.06934925225494, 239.5680672080968 268.1089102209296, 249.38713394317594 268.41071876790886 M204.27825273243613 270.15904484426477 C219.9006845139772 270.5871845807514, 234.4833550697705 269.56145738746744, 249.27649896698253 269.4329605568943 M250.06665424738594 270.97957147519196 C252.13513211298894 290.530223335408, 248.89141107461015 312.6835768019979, 251.90515595647412 358.4956892970304 M249.2046631693687 269.62789003421403 C250.28249826865934 293.8075768219333, 250.73716082797296 318.3852825453965, 249.1424423980345 360.44908017043184 M250.31556463763854 359.8905735974308 C232.16585906384574 359.7313178132397, 215.77138282919475 359.96107562360424, 206.9889036415032 360.5137080953358 M250.35902372988954 360.3455434830302 C232.217848975075 360.11246098810915, 216.39068517968755 359.2033752170412, 204.84970640379657 359.50500653956465 M204.62723480187776 361.5353640414772 C204.75042069556096 340.06164306389104, 203.90111839191982 317.8802966526581, 203.96388330445816 271.22946205119837 M205.46456393893476 359.3678376132577 C205.83778075234972 341.3683537405487, 205.46729169545262 323.1593608273655, 205.24674478984866 269.96801727726427" stroke="#4A90D9" stroke-width="1.5" fill="none"></path></g><g><path d="M271.0782487517767 240.05635848476606 C283.26585371425887 240.0054870133435, 296.8524359053011 241.53263885023557, 315.2163057160542 240.03860279864776 M269.1329219839609 239.6105505094854 C282.0548559655677 240.79338627016384, 293.8538691479593 240.9389092207212, 315.09414561528627 239.30525051119014 M314.62733365998804 241.50352176815278 C313.069094885615 280.8956504401841, 316.84855355285345 319.7759671560513, 315.5890819323093 359.7508245961234 M315.049074109419 239.42981476311135 C314.84273457284456 271.10780660516104, 313.6711620195003 303.7732793317566, 315.9061790556453 360.8181850184783 M316.95248029288433 361.4984236787615 C297.6194004325504 360.4993831577058, 281.1283785478326 361.5213420807298, 271.94270658596855 359.3011535807019 M315.0952829463778 359.90906000197106 C300.2104241194096 359.21924721959743, 284.21440117638167 358.8195782450453, 269.7278850058229 359.5996043609901 M269.70033122815033 361.57498321146625 C269.5598644699658 313.2204359086743, 269.79734731892717 265.3533782398408, 270.4344549591388 238.18680651267914 M270.131909043961 360.0632343843159 C271.56690098847406 322.09091227566927, 271.64853553483357 281.9813710393436, 270.7518912799881 240.91227192550664" stroke="#4A90D9" stroke-width="1.5" fill="none"></path></g><g><path d="M333.25676567423176 200.83930000178867 C344.1623741389626 198.52723337940685, 351.7268618258764 200.76049436320082, 379.65137692410724 201.1372700272231 M335.3121815764379 199.25807040194672 C345.6702637811838 199.27704190317337, 357.7100905112343 199.57871972535594, 379.28981652032166 200.27888193579975 M379.8866637169501 201.36666071465922 C380.5127459026601 259.8322119171122, 378.23050501101613 321.8636963843515, 379.8025278627625 358.47824566820947 M379.8392094639205 200.92824009091248 C380.37511064141376 252.9668495704196, 380.8277851867816 306.04177757790103, 379.48027598610815 359.2484102275048 M380.38681737030987 358.862013148618 C371.5825813619188 358.8008076607147, 361.2686729050732 360.4642720554038, 336.075308029629 358.1688170641334 M379.6388650873415 360.3101316945788 C370.09942678290884 359.29769216084287, 362.39928998101425 360.6488734262869, 334.985426360871 360.3686754499032 M334.36521291348976 361.63347720309457 C336.87541032273424 311.2521099436538, 338.1493901724609 262.55527688456925, 336.4895248988067 199.5512158818974 M334.5664118522663 359.6711415134081 C334.1621040794518 320.0296039781297, 334.7156850386136 280.63231200545385, 335.9015464057909 199.32819294196045" stroke="#4A90D9" stroke-width="1.5" fill="none"></path></g><g><path d="M401.6345024465533 149.6653771598067 C417.60000069333097 151.02838727753192, 433.49027697923816 148.6107498193979, 446.0539452445273 151.92888122528745 M399.02803063636935 149.887017814713 C415.71113323349016 149.94496275650695, 430.55597396525116 149.38534784353723, 445.8564641988304 150.05841701438388 M445.6158274926218 150.04487782382267 C445.74142055117835 219.79938309074885, 444.1138670703695 287.58231046200603, 444.2806969010061 359.6377057338354 M445.47091269981695 150.0988102281584 C443.41286239580484 225.01014427433898, 443.0677513384097 299.3422859527394, 445.16692410918745 360.32157152842876 M445.9505364022108 361.42445829267785 C427.6499856571012 360.74677532462147, 412.13223908004585 361.4650538091495, 400.949555810984 358.36181459936216 M444.54392664261553 360.9414979113379 C435.33068570865646 359.44323495573065, 423.357901648464 360.86413605283013, 399.71414344855816 360.13047785774086 M399.9445580507531 359.7969738352709 C400.1522792762808 279.83724609827, 398.0080401403853 198.63200393645087, 398.9070381629069 151.4908629737001 M399.9037088259149 360.7712909813245 C399.77781122157387 307.764076114431, 399.518835721863 256.2456347999155, 399.83769352005146 150.82031348551666" stroke="#4A90D9" stroke-width="1.5" fill="none"></path></g><g><path d="M463.2155583959717 89.88353362774313 C476.33610042818026 88.37557130740583, 489.38452137657805 89.7226753795756, 511.97226556308885 90.57369462549505 M465.13356257322937 90.70310046897232 C477.3334845489633 89.97418439688431, 491.11703813141213 90.21937247566571, 509.11862560349067 89.19300167057104 M509.94336369233383 91.54671851084316 C508.30779874060454 154.14558569771222, 510.3186278869449 217.91348617464337, 510.3362377296966 358.5223536414062 M510.7255718426301 89.7552364767908 C508.83109157724135 144.84460570827034, 508.10154697516253 201.74367306986744, 510.6264507404401 360.40403161706763 M511.17603943667854 361.48027823791557 C499.3137862760582 360.2164510144358, 489.0705530231506 361.7631611241763, 463.05735720965544 359.3281701945257 M509.15005308930046 360.001320682381 C496.3866738469643 360.0267024501227, 481.8451745981869 359.1120532925787, 465.92585911462197 360.9144079117563 M465.1075019664947 361.50755401213513 C463.2838114138872 265.3263222994175, 463.18593012879853 172.9459577392175, 466.4029519512936 90.78790651054182 M465.19180306515403 359.9432686726577 C467.2257163858095 259.91038990990415, 466.6433387116837 160.5231642508384, 465.43303076431624 89.67966793143903" stroke="#CC3333" stroke-width="2.5" fill="none"></path></g><g><path d="M486.60419345463947 90.13016517153616 C488.8645669237404 80.9958353835381, 488.89847711028995 71.0816702545038, 485.704421220119 61.793767212809286 M487.85924698724375 90.24374895885069 C487.0736978500626 83.27343501221368, 487.83865387342667 76.8261833082095, 486.96694739545626 59.26347208745283" stroke="#CC3333" stroke-width="1.5" fill="none"></path></g><g><path d="M488.4262738086242 58.968535928869414 C492.8874831561536 59.98601572320072, 498.3871040790099 58.798283394623716, 507.87714406062685 59.99780272972425 M487.5867443373068 60.692430312933446 C492.26454034080297 60.57060252763416, 497.98502106709236 60.00816445763834, 507.86849628235046 59.127367804634666 M507.68885520034786 60.45693619932893 C507.4700458499675 64.00165402833832, 506.6172601669022 66.61929318503225, 506.6047327679596 70.89843505249797 M507.20819349511885 59.92780805886772 C507.09862305068623 65.20061413917372, 506.6560474736668 69.37781083648085, 507.5037484220172 71.82281381310808 M507.8670828154043 72.06537936649725 C501.15402498762364 70.56962570174778, 497.1269879606796 73.07187797154121, 488.2674484480801 70.79830020246331 M506.6145486010718 72.78687728996807 C499.7403830724956 73.04525579565599, 490.7433084775055 72.73763038544897, 487.53452925554205 71.74013556246712 M487.71616843617636 72.96016956332886 C486.6769716903197 68.0638883378564, 486.30131792359117 64.77762065401114, 487.77719159870014 59.48289442998626 M487.38813591422655 72.15047551612861 C487.0288582221887 68.3380484578529, 487.33446363332115 63.951828675514044, 486.9351192745528 59.76603630469781" stroke="#CC3333" stroke-width="1.2" fill="none"></path></g><g><path d="M120.04819190484713 279.90929959869646 C251.72416162667793 280.5248015271511, 383.7875160483985 280.29066602837366, 549.8612068352659 280.1548745845695 M120.07070270149012 279.85237788581156 C275.01043444606574 280.46290239441856, 430.187622125638 280.55764426365874, 550.129011584793 279.87874123903487" stroke="#000000" stroke-width="1" fill="none"></path></g><g><path d="M144.8229567564825 169.26962547902968 C155.29970388906744 170.39032070323339, 165.4832766273722 169.43930209114546, 175.63739373983563 170.48754577628563 M144.54743641522828 169.71801721290853 C154.1921046983984 170.28066415042923, 162.85436579643124 169.52850535528026, 175.25293595398847 169.6963078281852 M174.4547447818971 169.71954122777296 C175.12771678760382 174.67116697586596, 174.91448979166364 179.00479950899143, 174.43580776336916 182.4948067822473 M174.79893693102284 169.93730652867868 C174.81002601731595 173.84051436711135, 175.0996315079938 178.10782145483788, 175.1019887400961 182.04648276620242 M175.85141124559308 181.46195464894606 C169.31718286710645 182.51669577098056, 162.73643511689394 181.80236129201845, 144.74647903802074 182.9835259846169 M174.5462575520178 182.0328298064482 C163.26401458636252 181.80865498975493, 151.48079751807248 182.3158087369377, 145.02234332931008 182.04348401487547 M144.69963291707165 182.49104720561428 C145.5700982063664 178.217615038675, 145.16687444808764 174.98247533261156, 144.83634309438872 170.38856318633913 M145.18651814335516 182.013269471808 C145.20201114185593 178.15504208593586, 144.71844456035817 174.2900327829392, 144.98960722393002 170.10620465714155" stroke="#000000" stroke-width="2" fill="none"></path></g><g><path d="M160.67022908110536 180.65856312394396 C158.76679258205166 188.2597788771731, 160.18359364060245 193.8966566528809, 158.73594985759266 199.1554059634219 M159.67644825727587 181.86002493487015 C159.11034921785802 185.6727214725537, 159.375722979599 188.57600168706168, 159.3364644976424 200.3328529805964" stroke="#000000" stroke-width="2" fill="none"></path></g><g><path d="M177.23509126550658 147.44304934600936 C177.23509126550658 147.44304934600936, 177.23509126550658 147.44304934600936, 177.23509126550658 147.44304934600936 M177.23509126550658 147.44304934600936 C177.23509126550658 147.44304934600936, 177.23509126550658 147.44304934600936, 177.23509126550658 147.44304934600936 M178.76683919118742 151.3881006797669 C180.12587758083507 149.89013585733974, 181.43227286575802 149.005339338316, 183.27614020749266 147.16997858804697 M179.23927126246414 151.45786364216713 C179.85289726435892 150.43303034144756, 180.67421339298215 149.23753624060114, 182.80615352694238 146.90394909769824" stroke="none" stroke-width="0.5" fill="none"></path><path d="M179.56926705770817 147.64991537392362 C180.37764082000103 147.3997942705867, 181.73475259931584 146.72395074057997, 182.3064526401667 146.95416811050936 C182.87815268101755 147.18438548043875, 182.78963261576428 148.27162485751307, 182.99946730281326 149.0312195934999 C183.20930198986224 149.79081432948675, 183.61816112331576 150.92495218287837, 183.56546076246053 151.51173652643038 C183.5127604016053 152.0985208699824, 183.28858723785999 152.33259779280542, 182.68326513768199 152.551925654812 C182.07794303750399 152.7712535168186, 180.68129852599736 153.05347467876342, 179.93352816139245 152.82770369846992 C179.18575779678753 152.6019327181764, 178.84684720484614 151.51111506518924, 178.1966429500524 151.19729977305104 C177.54643869525864 150.88348448091284, 176.2444696709984 151.51080653879018, 176.0323026326299 150.9448119456407 C175.8201355942614 150.37881735249124, 176.31227056136575 148.55653455299904, 176.92364071984144 147.8013322141543 C177.53501087831714 147.04612987530953, 179.0909804179837 146.43024517323886, 179.70052358348406 146.41359791257216 C180.3100667489844 146.39695065190546, 180.3524090165956 147.5238044092344, 180.5808997128435 147.7014486501541 M182.1303735677882 147.0835719494528 C182.75954412212585 147.14059358681817, 181.6676500402476 147.2739229919418, 181.67495685504 147.76122903522878 C181.6822636698324 148.24853507851577, 182.29467923219607 149.16341102450966, 182.17421445654256 150.0074082091748 C182.05374968088904 150.85140539383994, 181.41418607435074 152.24386032578687, 180.95216820111895 152.82521214321963 C180.49015032788716 153.4065639606524, 180.07165254966725 153.61194340923072, 179.4021072171518 153.49551911377137 C178.73256188463637 153.379094818312, 177.2839367886925 152.6626186893845, 176.9348962060264 152.12666637046343 C176.5858556233603 151.59071405154236, 177.329385134525 150.76911553108735, 177.3078637211552 150.27980520024508 C177.2863423077854 149.7904948694028, 176.76498814912995 149.55579038765848, 176.80576772580747 149.19080438540976 C176.846547302485 148.82581838316105, 176.66660474933883 148.47422948014722, 177.5525411812204 148.08988918675288 C178.43847761310195 147.70554889335855, 181.62841706205234 147.0993339858668, 182.12138631709678 146.88476262504378 C182.61435557214122 146.67019126422076, 180.75067168208915 146.84887425314736, 180.51035671148702 146.80246102181485" stroke="#000000" stroke-width="1" fill="none"></path></g><g><path d="M232.85157811164612 146.76424301138306 C232.85157811164612 146.76424301138306, 232.85157811164612 146.76424301138306, 232.85157811164612 146.76424301138306 M232.85157811164612 146.76424301138306 C232.85157811164612 146.76424301138306, 232.85157811164612 146.76424301138306, 232.85157811164612 146.76424301138306 M233.0283762120863 152.88152221255933 C234.54733382522488 150.5141802092926, 236.9729356097918 148.54296039863803, 237.1851944636848 147.00234055424153 M233.33643975044095 152.13030264200506 C235.36032296051582 150.17812281298217, 236.48019452225455 148.5226650633161, 237.87393491924936 147.18683798507223" stroke="none" stroke-width="0.5" fill="none"></path><path d="M236.34875892082727 146.6673930117687 C237.08260090350612 146.60575888974248, 237.23569889036676 146.7572149674992, 237.46197289357875 147.3822566243163 C237.68824689679073 148.00729828113342, 237.6139635880948 149.8117529554773, 237.7064029400991 150.41764295267137 C237.79884229210342 151.02353294986546, 238.52915739688729 150.68148932994433, 238.0166090056045 151.0175966074809 C237.5040606143217 151.35370388501747, 235.48534433432806 152.02837314262698, 234.63111259240227 152.43428661789088 C233.7768808504765 152.84020009315478, 233.14803527558354 153.74013143727845, 232.8912185540498 153.45307745906436 C232.63440183251606 153.16602348085027, 233.26010583117727 151.32800750207863, 233.0902122631998 150.7119627486063 C232.9203186952223 150.095917995134, 231.96131062500788 150.3576106366188, 231.87185714618482 149.75680893823042 C231.78240366736176 149.15600723984204, 231.97004018842955 147.49758406672723, 232.55349139026146 147.10715255827606 C233.13694259209336 146.71672104982488, 234.76684772831143 147.42764483726154, 235.37256435717623 147.4142198875234 C235.97828098604103 147.40079493778524, 236.29270142625924 146.97059679776038, 236.18779116345024 147.02660285984717 M233.867751158402 147.37236009040114 C234.53418371140597 146.9905582305253, 236.73646044686146 146.421107420787, 237.30219585883273 146.87760338171364 C237.867931270804 147.3340993426403, 237.1705047475017 149.25519209466734, 237.2621636302297 150.1113358559611 C237.35382251295772 150.96747961725487, 237.7709863270695 151.7780924109365, 237.85214915520078 152.0144659494762 C237.93331198333206 152.2508394880159, 238.1257658891908 151.50695109583523, 237.74914059901738 151.52957708719939 C237.37251530884396 151.55220307856354, 236.18111203124457 152.13185618586164, 235.59239741416025 152.15022189766103 C235.00368279707592 152.16858760946042, 234.96901735091072 152.03287964390998, 234.2168528965114 151.6397713579957 C233.46468844211208 151.24666307208142, 231.3797331979886 150.24857694482623, 231.0794106877643 149.79157218217534 C230.77908817754 149.33456741952446, 231.89788098346327 149.1191971835546, 232.41491783516557 148.89774278209038 C232.93195468686787 148.67628838062615, 233.69413476913076 148.90092279896413, 234.1816317979781 148.46284577339003 C234.66912882682544 148.02476874781593, 235.56922122361962 146.36526592845314, 235.33990000824966 146.2692806286457" stroke="#000000" stroke-width="1" fill="none"></path></g><g><path d="M286.47825397099825 148.33075935522794 C286.47825397099825 148.33075935522794, 286.47825397099825 148.33075935522794, 286.47825397099825 148.33075935522794 M286.47825397099825 148.33075935522794 C286.47825397099825 148.33075935522794, 286.47825397099825 148.33075935522794, 286.47825397099825 148.33075935522794 M288.3686051378282 152.14450027159762 C289.27285813526714 150.98470330515113, 290.6190266407263 149.2267063213597, 293.37662724538865 146.84459421515243 M289.0320970882786 151.41700323460555 C290.54535060766403 150.24170006415915, 291.79446134277845 148.21060140993092, 292.8354569758848 146.97385151234488" stroke="none" stroke-width="0.5" fill="none"></path><path d="M288.3463711670823 147.15229134470707 C289.1068282120058 146.97127756620552, 291.20693264109514 146.48809823132567, 291.9546482473934 146.7750017949524 C292.7023638536916 147.06190535857914, 292.63798607608373 148.3510806364488, 292.8326648048718 148.87371272646752 C293.02734353365986 149.39634481648622, 293.16807233956 149.31874530622986, 293.1227206201216 149.91079433506462 C293.07736890068315 150.5028433638994, 293.14927843782414 152.02742725365601, 292.56055448824105 152.42600689947616 C291.97183053865797 152.8245865452963, 290.2209366628854 152.48023323985208, 289.59037692262297 152.30227220998555 C288.95981718236055 152.124311180119, 289.3271352617485 151.74990810139352, 288.77719604666675 151.35824072027697 C288.227256831585 150.96657333916042, 286.6363665437726 150.50002389400868, 286.2907416321327 149.95226792328623 C285.9451167204928 149.40451195256378, 286.1638341243142 148.5495238104499, 286.7034465768275 148.0717048959422 C287.2430590293408 147.59388598143448, 288.9636996999543 147.13764965706193, 289.52841634721256 147.08535443623995 C290.0931329944708 147.03305921541798, 290.051972701812 147.65207833482518, 290.09174646037707 147.75793357101034 M287.84426641359426 146.8696210564646 C288.2430357555889 146.53203596111337, 289.24232177048805 147.11958951839438, 290.0266655234373 147.49505227207513 C290.8110092763866 147.87051502575588, 292.22367754308465 148.73808760322757, 292.55032893129004 149.12239757854906 C292.87698031949543 149.50670755387054, 292.29665540940977 149.04912909228574, 291.9865738526696 149.80091212400401 C291.67649229592945 150.5526951557223, 291.01309691265993 153.19212798170838, 290.6898395908492 153.63309576885874 C290.3665822690385 154.0740635560091, 290.5624910925686 152.53057203571342, 290.0470299218052 152.44671884690618 C289.53156875104173 152.36286565809894, 288.2486899895713 153.73159262381645, 287.5970725662684 153.12997663601524 C286.94545514296556 152.52836064821403, 286.28162579216337 149.77937121282247, 286.1373253819878 148.83702292009895 C285.99302497181225 147.89467462737542, 286.2219356917777 147.72620463334923, 286.7312701052151 147.47588687967408 C287.24060451865256 147.22556912599893, 288.59450567913325 147.29496724851802, 289.1933318626124 147.33511639804803 C289.7921580460916 147.37526554757804, 290.46333408049964 147.75926642346252, 290.3242272060902 147.71678177685416" stroke="#000000" stroke-width="1" fill="none"></path></g><g><path d="M342.20935512122537 149.07659870845777 C342.20935512122537 149.07659870845777, 342.20935512122537 149.07659870845777, 342.20935512122537 149.07659870845777 M342.20935512122537 149.07659870845777 C342.20935512122537 149.07659870845777, 342.20935512122537 149.07659870845777, 342.20935512122537 149.07659870845777 M343.90276696164113 152.62640957646892 C345.5042451787326 151.66207099517277, 347.1406797389022 150.7746704797864, 348.22249503611505 148.89909323403813 M343.69149789719603 153.0736888405191 C345.3590016698723 151.87278111119048, 346.66442497066674 150.1574910801351, 347.8823744834999 148.52528456608658" stroke="none" stroke-width="0.5" fill="none"></path><path d="M346.19148271598465 146.5368167287361 C346.7601629532394 146.89322263857537, 347.13367811621436 147.97942530481447, 347.3780339271193 148.7202577322002 C347.62238973802425 149.46109015958592, 347.90583016158314 150.38376218683632, 347.65761758141446 150.9818112930505 C347.4094050012458 151.57986039926467, 346.257549677209 151.8340541606394, 345.88875844610726 152.30855236948523 C345.5199672150055 152.78305057833106, 346.0327474971524 153.90542304836518, 345.4448701948042 153.82880054612554 C344.856992892456 153.7521780438859, 342.96423131525523 152.43294360501838, 342.3614946320182 151.8488173560474 C341.7587579487812 151.2646911070764, 341.80632727767363 150.84069829858606, 341.8284500953821 150.32404305229957 C341.85057291309056 149.80738780601308, 342.115046450063 149.14313783475666, 342.49423153826905 148.74888587832845 C342.8734166264751 148.35463392190024, 343.3687589227811 148.33678373315843, 344.1035606246182 147.9585313137303 C344.83836232645524 147.58027889430218, 346.5708724238832 146.39434131354395, 346.90304174929133 146.47937136175963 C347.23521107469946 146.56440140997532, 346.00943152063604 148.39894012184826, 346.09657657706686 148.4687116030244 M347.4611936493435 148.49999555499122 C348.31610770643044 148.91466703426278, 348.1575960570591 148.4625904764978, 348.45141130997655 148.62718763857444 C348.745226562894 148.79178480065107, 349.63861557673135 148.88536256538242, 349.2240851668484 149.48757852745106 C348.80955475696544 150.0897944895197, 346.56373529026115 151.7870696768757, 345.964228850679 152.24048341098626 C345.3647224110968 152.69389714509683, 345.9676188435562 152.06350495253437, 345.6270465293555 152.20806093211445 C345.2864742151548 152.35261691169453, 344.6128464873439 153.5476628169962, 343.9207949654749 153.1078192884667 C343.2287434436059 152.66797575993718, 341.80823204010045 150.52071985953387, 341.4747373981415 149.5689997609374 C341.1412427561825 148.61727966234093, 341.21619119905654 147.97335015035662, 341.9198271137211 147.3974986968879 C342.6234630283857 146.8216472434192, 344.74478295485164 146.16159023977212, 345.6965528861288 146.1138910401251 C346.648322817406 146.0661918404781, 347.4797600194317 146.9820392717436, 347.63044670138424 147.11130349900588 C347.7811333833368 147.24056772626818, 346.7561754845927 146.8175370574138, 346.600672977844 146.88947640369892" stroke="#000000" stroke-width="1" fill="none"></path></g><g><path d="M396.1070300051765 149.55367791699882 C396.1070300051765 149.55367791699882, 396.1070300051765 149.55367791699882, 396.1070300051765 149.55367791699882 M396.1070300051765 149.55367791699882 C396.1070300051765 149.55367791699882, 396.1070300051765 149.55367791699882, 396.1070300051765 149.55367791699882 M399.73958058594565 151.26170061466456 C400.1328664278574 151.06007210923985, 400.76872967886413 150.00279239146505, 401.90321249245756 149.35434067913087 M399.7698828377049 151.4435156429012 C400.428021768316 150.63508504553016, 401.0339383764623 150.0246264233932, 401.8756006219345 149.03360967972836" stroke="none" stroke-width="0.5" fill="none"></path><path d="M400.07747804315505 146.74610445092432 C400.5003501283546 147.02882750562972, 400.7873560319658 148.26341150443517, 401.14947424473644 148.75134529563454 C401.51159245750705 149.2392790868339, 401.92620735176126 149.32529713636518, 402.2501873197786 149.67370719812047 C402.57416728779594 150.02211725987576, 403.23890527140344 150.2062057864322, 403.09335405284065 150.8418056661663 C402.94780283427787 151.47740554590038, 401.9151190656422 153.213758795663, 401.3768800084018 153.48730647652502 C400.83864095116144 153.76085415738703, 400.39742387839976 152.98810675948883, 399.8639197093984 152.48309175133835 C399.330415540397 151.97807674318787, 398.75695680302954 150.99727210883682, 398.17585499439366 150.45721642762217 C397.5947531857578 149.91716074640752, 396.22015546511557 149.56015366349226, 396.377308857583 149.24275766405046 C396.5344622500504 148.92536166460866, 398.57187803779107 148.94077061486738, 399.11877534919836 148.55284043097137 C399.66567266060565 148.16491024707537, 399.3487146132897 147.14658120305808, 399.6586927260268 146.91517656067444 C399.9686708387639 146.6837719182908, 400.78618174604946 147.2076826039517, 400.97864402562084 147.16441257666955 M399.9535752469095 146.4077707918922 C400.1718458769856 146.16003738588805, 399.21563399749357 148.33142098005789, 399.72768881368603 148.57473195888542 C400.2397436298785 148.81804293771296, 402.2917296863339 147.48395170637662, 403.02590414406427 147.8676366648575 C403.76007860179465 148.2513216233384, 404.2961654943976 150.25883693375383, 404.1327355600684 150.87684170977082 C403.9693056257392 151.4948464857878, 402.5130439585079 151.30963271496358, 402.0453245380891 151.5756653209594 C401.5776051176703 151.8416979269552, 401.70612363351415 152.4374260504447, 401.3264190375556 152.4730373457457 C400.946714441597 152.50864864104668, 400.341498143671 152.21338891735797, 399.7670969623376 151.7893330927653 C399.19269578100415 151.36527726817263, 398.37877387486947 150.2682724361819, 397.8800119495549 149.92870239818973 C397.38125002424033 149.58913236019757, 396.8403090857459 150.13253273753745, 396.77452541045017 149.7519128648123 C396.70874173515443 149.37129299208718, 397.00598006865965 148.21574942470525, 397.48530989778044 147.64498316183898 C397.9646397269012 147.0742168989727, 399.6569509980442 146.27154212819363, 399.65050438517494 146.32731528761465" stroke="#000000" stroke-width="1" fill="none"></path></g><g><path d="M452.35974974876433 146.77791441558907 C452.35974974876433 146.77791441558907, 452.35974974876433 146.77791441558907, 452.35974974876433 146.77791441558907 M452.35974974876433 146.77791441558907 C452.35974974876433 146.77791441558907, 452.35974974876433 146.77791441558907, 452.35974974876433 146.77791441558907 M452.6505144356768 152.48820660503574 C453.7258614705365 150.88662976178918, 456.06274519812877 148.13660124957326, 457.3404105053408 146.79495371499178 M452.4168806633073 152.17376694597164 C453.7241652492955 150.93432359464234, 455.3227012111935 150.04220212273228, 457.57096590335004 147.3598327916813" stroke="none" stroke-width="0.5" fill="none"></path><path d="M456.00331221424153 147.1542819794931 C456.71947309256655 147.18466628444713, 457.02019684396885 146.84774373005055, 457.4649676553285 147.28129219466643 C457.90973846668817 147.71484065928232, 458.82412896484726 149.00792775824968, 458.6719370823994 149.75557276718834 C458.5197451999515 150.503217776127, 457.12553866150034 151.09369388121033, 456.5518163606413 151.76716224829843 C455.9780940597822 152.44063061538654, 455.6205133495119 153.5250622202955, 455.229603277245 153.79638296971692 C454.83869320497814 154.06770371913834, 454.8233723955954 153.861030174643, 454.20635592703997 153.395086744827 C453.5893394584845 152.92914331501103, 452.02148954701926 151.59778000328083, 451.52750446591233 151.00072239082107 C451.0335193848054 150.4036647783613, 451.0977259923877 150.5234583001004, 451.2424454403984 149.8127410700684 C451.3871648884091 149.1020238400364, 451.67048057601096 147.32002213775118, 452.39582115397644 146.73641901062905 C453.1211617319419 146.15281588350692, 455.0498719491127 146.19354500204093, 455.59448890819135 146.31112230733558 C456.13910586727 146.42869961263023, 455.6371545700436 147.33573163927437, 455.6635229084486 147.4418828423969 M456.52318849001466 148.39185330560264 C457.1931355014133 148.5175051492884, 456.1130353078275 147.16593386181557, 456.4574339287782 147.38647528800098 C456.8018325497289 147.6070167141864, 458.2717366166672 148.88700416886385, 458.58958021571874 149.71510186271502 C458.90742381477025 150.54319955656618, 458.9296429002526 151.92836971729844, 458.3644955230873 152.355061451108 C457.79934814592207 152.7817531849176, 455.702093887463 152.14284586826327, 455.1986959527273 152.27525226557245 C454.6952980179916 152.40765866288163, 455.72412462377406 153.3159444993228, 455.3441079146733 153.14949983496305 C454.9640912055726 152.9830551706033, 453.6898148053991 151.65358892937965, 452.9185956981228 151.27658427941398 C452.1473765908464 150.8995796294483, 450.6333836045124 151.48325975825992, 450.7167932710153 150.88747193516903 C450.80020293751824 150.29168411207814, 452.54055860321847 148.5191116482908, 453.4190536971403 147.7018573408686 C454.2975487910622 146.8846030334464, 455.9178928805317 145.98302391693892, 455.98776383454646 145.9839460906359 C456.0576347885612 145.98486826433287, 454.0519395411954 147.6533185919105, 453.8382794212288 147.70739038305047" stroke="#000000" stroke-width="1" fill="none"></path></g><text x="400" y="560" text-anchor="middle" font-family="sans-serif" font-size="16" fill="#222" font-style="italic">Winning an auction is statistical evidence of overpaying.</text></svg>