<?xml version="1.0" encoding="UTF-8"?>
<svg width="800" height="600" viewBox="0 0 800 600" xmlns="http://www.w3.org/2000/svg"><rect width="800" height="600" fill="#FFFFFF"></rect><g><path d="M130.16671380356286 279.65719023351704 C158.654971706628 278.67354953889026, 187.58110551129067 279.7884778531277, 230.89227199340064 281.9021719143645 M130.13859238394622 280.56928010803136 C153.92357366684163 280.0346762420279, 178.24054258175104 280.2912915454662, 229.75211251509802 279.2314385240443" stroke="#000000" stroke-width="2" fill="none"></path></g><g><path d="M131.62357064426632 280.88162305966216 C136.9611764312722 290.31689087729995, 143.6939270027032 298.1432017524242, 149.53922734026415 309.03853190011085 M129.2926814916133 280.0270211105741 C134.23424438687275 286.5318745111771, 139.80487063901177 293.44786315543524, 149.4055751657189 309.12443322524473" stroke="#000000" stroke-width="1.5" fill="none"></path></g><g><path d="M228.55442853109383 278.8490315976053 C225.90535557114922 286.49097315340794, 220.54873928105025 295.4040009758622, 208.6488082675797 309.49215130167516 M230.9466703750779 280.78397868864965 C222.29231742680977 291.7789517239572, 215.12418663685415 303.5487375121478, 209.04840902451585 309.4621938908266" stroke="#000000" stroke-width="1.5" fill="none"></path></g><g><path d="M150.66782429585848 310.1354376785188 C169.49614708977467 309.85093693205323, 191.8005685231364 309.40213660163755, 208.18502250694513 311.78912221954033 M150.11860575037787 310.5281304760285 C172.8866047557327 309.60223339061474, 197.6426291839509 309.5912326942688, 210.92566235877194 310.83573139800666" stroke="#000000" stroke-width="1.5" fill="none"></path></g><g><path d="M180.1647995374808 278.38166222416555 C180.61000232465068 257.4528867229757, 179.95206525547258 232.91439474235946, 180.23341373626812 218.00788508411478 M179.48161670847946 280.33340604073015 C180.68115849947822 262.9875203151145, 180.0084176289226 246.17019996656398, 179.28171012122937 220.96473541356914" stroke="#000000" stroke-width="2" fill="none"></path></g><g><path d="M160.4447067849554 272.56757315900893 C164.0727874377736 262.57087308415595, 166.94033791692178 248.95026753074004, 168.14527158405366 237.6799206874292 M160.70175979973325 269.4294289761801 C164.09901210013416 258.9479207330971, 166.7738833650735 248.54877430082212, 169.57854418026713 241.47324743515804" stroke="undefined" stroke-width="2" fill="none"></path></g><g><path d="M184.57114913293879 274.22101257258686 C188.5290715405094 268.9519010011737, 188.47911340036165 257.77484437001436, 192.80257632283397 243.28843345550493 M185.92904474363917 274.9631074351513 C188.0110205983316 268.527823671398, 189.07092418914624 262.9421326826156, 194.3005452420254 245.80419312533402" stroke="undefined" stroke-width="2" fill="none"></path></g><g><path d="M174.9504680534331 279.2568479744294 C178.93667447709132 266.94942859242605, 180.95773885203488 253.8043000692315, 178.54254482330444 247.83486434683118 M174.41738314073618 279.290288873978 C177.12440939839865 270.60071444193386, 176.7730855545227 262.40756311854506, 180.7777670046812 251.29623512066306" stroke="undefined" stroke-width="1.5" fill="none"></path></g><g><path d="M199.05390095748913 272.8336568034748 C203.2424002664821 256.11761339987544, 202.53899705787526 245.55916140091136, 204.31643706349973 234.48691449223972 M199.39055223385645 269.95205623949346 C202.55177464440789 258.59904351845375, 203.48097687993712 247.12773293885033, 206.16846838782237 235.2086072845377" stroke="undefined" stroke-width="1.5" fill="none"></path></g><g><path d="M260.19857831659795 281.75995871701184 C278.59682751562286 278.8989732806762, 298.7158545313144 280.12940478046255, 341.6321349653868 280.2839242463889 M260.84467890499417 280.08249818855853 C283.499392219107 280.05337594873833, 306.40023151590367 278.8137049854652, 339.69970020438416 279.21855638167943" stroke="#000000" stroke-width="2" fill="none"></path></g><g><path d="M330.7157964655734 270.8022919577083 C333.8874792993141 273.61637692299325, 335.8929980505095 274.61060731009496, 340.3548272090334 279.8270494386359 M329.3708025044224 269.6787477817533 C333.54893531596537 274.18865994325455, 338.0887358053404 277.6769731789938, 339.525995056329 280.4585450673677" stroke="#000000" stroke-width="2" fill="none"></path></g><g><path d="M330.28235681579287 289.13366479329386 C332.8543457661941 287.0807255730146, 337.15183401019397 281.0839549166192, 340.05866430822357 280.3647894798629 M329.98217883689574 290.2260129916667 C332.1698353285249 288.148177711476, 334.3363920867979 285.1737315446622, 340.2080052302661 280.17965850248595" stroke="#000000" stroke-width="2" fill="none"></path></g><g><path d="M438.5178476800917 301.85320864956446 C470.5430986314304 297.54188509185815, 498.05237529289184 299.8452196903457, 519.0502963075526 300.1544333055459 M440.0772499777721 300.3090687184383 C471.52405024569214 300.0219072707846, 502.0570409301151 298.84831339242, 520.452779198237 299.78728552381" stroke="#000000" stroke-width="1.5" fill="none"></path></g><g><path d="M440.19772964314177 298.94216570730333 C445.4437462352324 306.0729222385632, 450.0842748613372 313.68906984098777, 455.630509098477 320.6531132372523 M439.07231806580546 300.95164831461244 C443.88380110359077 304.55164380569073, 447.24826518509354 308.38533652304403, 455.25612261070034 320.3859165921757" stroke="#000000" stroke-width="1.2" fill="none"></path></g><g><path d="M518.8022815488479 298.80481757677126 C515.3062686441214 305.0780465041917, 512.7973929170197 313.36158757353587, 506.24415336492143 318.9718991506661 M520.5829893885532 299.04897317746185 C513.6795352030263 306.8459977300225, 508.37777134071945 313.7276096081328, 505.0624931615694 320.4649589896221" stroke="#000000" stroke-width="1.2" fill="none"></path></g><g><path d="M478.7515121817549 298.63422306815096 C481.89640576983425 276.2070201947915, 478.2456713171306 254.0036324189883, 478.68937303334394 229.59011431795474 M480.0185973942522 299.5349978642971 C480.26071641750116 273.3295255962882, 479.01838799940526 244.23937934946562, 479.9866961303389 229.35808997425121" stroke="#000000" stroke-width="2.5" fill="none"></path></g><g><path d="M475.58135490927117 257.0650313601417 C475.58135490927117 257.0650313601417, 475.58135490927117 257.0650313601417, 475.58135490927117 257.0650313601417 M475.58135490927117 257.0650313601417 C475.58135490927117 257.0650313601417, 475.58135490927117 257.0650313601417, 475.58135490927117 257.0650313601417 M476.72794243246864 263.25821989435485 C478.9655447707538 262.6637481659139, 479.81174599254865 260.27961670413737, 482.5978694333878 256.81119410229616 M477.71895179802294 263.6452801831734 C478.2642621443564 262.66614737537697, 480.1725061145677 260.9883361119344, 483.0381585398158 257.5503895735864" stroke="none" stroke-width="0.75" fill="none"></path><path d="M481.5673704866092 255.35628714787933 C482.6650024134673 255.82015965517843, 483.70645902216677 257.29094474162605, 484.29521623972926 258.08425676357496 C484.88397345729175 258.87756878552386, 485.4012316933407 259.13089037926363, 485.09991379198425 260.1161592795729 C484.7985958906278 261.1014281798822, 483.15376737496683 263.2111417826802, 482.4873088315904 263.99587016543063 C481.82085028821393 264.78059854818105, 481.8793277433927 264.68731655564454, 481.10116253172555 264.82452957607524 C480.3229973200584 264.9617425965059, 478.9060520018539 265.42250546536366, 477.81831756158755 264.8191482880149 C476.7305831213212 264.21579111066615, 474.90950527779154 262.5405427406164, 474.5747558901277 261.2043865119829 C474.2400065024638 259.86823028334936, 475.3826558018706 257.7188505288427, 475.8098212356045 256.80221091621394 C476.23698666933836 255.88557130358515, 476.1141697453728 255.9732053783406, 477.1377484925309 255.7045488362102 C478.16132723968894 255.4358922940798, 481.24120876333006 255.25455557429262, 481.9512937185528 255.19027166343156 C482.6613786737755 255.1259877525705, 481.56551454043864 255.20465220766306, 481.3982582238672 255.31884537104372 M481.8780636690717 255.92305319032906 C482.52091264208593 256.10804698420196, 482.3851987273043 256.6900527695445, 483.0518248156429 257.2832633306084 C483.7184509039814 257.87647389167233, 485.64517743609724 258.6458720430445, 485.87782019910304 259.48231655671265 C486.11046296210884 260.3187610703808, 485.3952872445434 261.20048435042025, 484.44768139367767 262.3019304126171 C483.50007554281194 263.4033764748139, 481.2526867329127 265.9119550752673, 480.19218509390856 266.0909929298936 C479.1316834549044 266.2700307845199, 478.8763576918184 264.0912090362257, 478.084671559653 263.3761575403747 C477.29298542748757 262.66110604452376, 475.66889940001 262.491521646827, 475.4420683009163 261.80068395478804 C475.21523720182256 261.1098462627491, 476.39958599067114 260.50267204526824, 476.7236849650906 259.23113138814125 C477.0477839395101 257.95959073101426, 476.5331747554055 255.00296704465885, 477.38666214743324 254.17144001202598 C478.24014953946096 253.33991297939312, 481.2263397617037 254.2818994688917, 481.8446093172568 254.24196919234404 C482.46287887280994 254.20203891579638, 481.185346083714 253.67580511959457, 481.09627948075206 253.9318583527399" stroke="#000000" stroke-width="1.5" fill="none"></path></g><g><path d="M479.22139835453396 269.56617563497645 C478.19676086531456 279.50355843413496, 480.59797664068833 286.14374302900154, 478.7056106058005 296.8343029543932 M479.14321701190875 270.7835667086263 C480.7515454936281 279.1055709066229, 480.60823333119504 287.7163233070396, 479.96177763043505 295.6642780514144" stroke="#000000" stroke-width="1.5" fill="none"></path></g><g><path d="M465.1793331632028 273.41801849669014 C470.8761584220188 277.00796099548654, 476.1859909330279 276.73232454272966, 496.091460766135 273.82019294977925 M465.8010272872202 275.9428020441171 C475.75382981765085 274.14208449086004, 488.2763448961908 274.47920902239815, 495.5047932399321 275.8981691707006" stroke="undefined" stroke-width="1.5" fill="none"></path></g><g><path d="M468.86478934283457 286.07431150161625 C472.72251039080487 286.79567069124596, 476.18181722272567 285.01863527705274, 490.00581810138124 284.0358720960051 M467.5127940981442 284.080301508076 C477.4742556136387 285.2165903546522, 486.5014084580764 285.7983932573281, 491.53689960640844 284.4270190438014" stroke="undefined" stroke-width="1.5" fill="none"></path></g><g><path d="M98.8115518218724 338.0857342222033 C106.65716413996617 339.03121641665666, 112.72897117770077 334.98566641174017, 118.62064078514976 336.51754708343213 M100.41400740501523 339.62482490014156 C106.39784629675437 339.0458305920166, 112.66830775501907 336.67082783560073, 119.37896543955634 334.5864897925549" stroke="#000000" stroke-width="0.8" fill="none"></path></g><g><path d="M120.96962849140013 334.4798097093712 C124.08402645400383 336.59574396281494, 131.3705562594867 337.5505524936618, 140.857959241525 340.05005253472933 M119.2597502778097 334.8260336872953 C125.88840744192068 337.6922988465527, 133.35449565307033 338.1388911079325, 140.19655468781033 340.89331704603137" stroke="#000000" stroke-width="0.8" fill="none"></path></g><g><path d="M140.91168495435215 338.1874536081471 C143.81136345546528 338.80051421761846, 151.0531665540338 338.58052909642157, 161.4385209327934 336.5059424827167 M139.1640551780806 340.5583622926342 C146.89104985618687 338.7870479941785, 152.48200132302097 337.59342790505497, 160.87184627446658 334.1088981591832" stroke="#000000" stroke-width="0.8" fill="none"></path></g><g><path d="M158.32849898419357 335.99897282488143 C165.9127077643742 334.4237655883807, 167.26902992148015 335.7409352010743, 178.55114512274815 338.14689778816376 M159.69910259540165 335.08987006577973 C168.66138358251965 337.09133856794114, 175.84766181715997 339.43585908970414, 180.78463065020694 339.74132187194385" stroke="#000000" stroke-width="0.8" fill="none"></path></g><g><path d="M179.80494873951957 341.7562589595463 C186.5920462017252 338.66569557189456, 194.8307649496281 334.4095623710837, 199.89295441513383 335.31727786137384 M180.66528513906457 339.494091636481 C186.07797174020456 338.5885569582134, 190.6689683121143 337.1397218439738, 200.24653270406347 334.6405022579423" stroke="#000000" stroke-width="0.8" fill="none"></path></g><g><path d="M200.48903628176845 333.9729501429845 C209.31452472675107 338.08543806759474, 216.72153770364974 339.0931855736286, 221.80253242608288 338.12706109225127 M200.64357740113766 334.3025217578303 C205.211175561754 335.3010642631775, 210.4326172307926 336.7943633731361, 220.29108030025623 339.91052100067367" stroke="#000000" stroke-width="0.8" fill="none"></path></g><g><path d="M221.83085448720806 338.42590862832543 C226.82730825246708 340.11999634456794, 231.43541240397937 336.90906395946587, 238.87411009717857 334.8877679716006 M220.71448144318083 339.1908904111523 C224.2974359069796 337.982921613657, 228.98575713613204 337.5021770678635, 239.37080536688308 335.72620033893827" stroke="#000000" stroke-width="0.8" fill="none"></path></g><g><path d="M238.99089329756276 335.0415774614593 C243.98069454530253 334.1990950766695, 251.2626137428872 337.68965958070186, 258.5591551471705 338.84610727448046 M240.17606384222145 334.7374794160176 C246.108545945265 336.19147997085406, 250.57126600219655 337.7182550434738, 259.55527490767787 339.62822400793334" stroke="#000000" stroke-width="0.8" fill="none"></path></g><g><path d="M259.2928985677929 339.81906159595144 C267.29231039729376 338.1561227377673, 276.98962657564 336.3025252905501, 281.3780669340065 334.570106472912 M259.1134697978862 339.5865309114583 C263.8128504870668 338.81583063899535, 268.0136289130176 337.0229277301912, 280.2179650895838 335.3695495325347" stroke="#000000" stroke-width="0.8" fill="none"></path></g><g><path d="M280.32492184325207 333.91860657726687 C286.215581570382 335.39408996938755, 292.3195452317286 339.35543399818766, 299.7404808792159 339.471932087428 M279.0792895440407 334.6024783115642 C288.03239138138883 336.0703413495684, 295.9239148914072 339.6040300177649, 300.1297403341373 339.13049895016206" stroke="#000000" stroke-width="0.8" fill="none"></path></g><g><path d="M298.39528917962525 339.9155274293942 C304.73729575259176 337.0257614236744, 311.8269938525817 335.67248642397493, 319.8999017182121 336.8997667987998 M299.7513801222461 339.750405836365 C304.3746681694109 338.88928904801594, 309.3339843316388 338.27161582646426, 320.07646354949213 335.0066404582473" stroke="#000000" stroke-width="0.8" fill="none"></path></g><g><path d="M321.8853803512182 334.88336664644305 C327.94840633083345 336.4087941973745, 335.6274048028759 337.49188229582614, 339.5079697079297 339.7263079876174 M320.910860938472 335.5304028789302 C327.1439540453903 337.4051285817881, 333.5020438791383 339.14576314111343, 339.28400555474656 340.0965369253965" stroke="#000000" stroke-width="0.8" fill="none"></path></g><g><path d="M340.09838004746086 339.60468611665516 C347.2523656020075 337.7336361688046, 350.3852878951087 338.3150606208008, 360.8692622603846 333.9790877023736 M340.0761632366788 340.65425554336906 C345.4029256967488 338.6164670408958, 349.26747585220403 337.883190529612, 359.83507794485024 334.1493715594713" stroke="#000000" stroke-width="0.8" fill="none"></path></g><g><path d="M358.4976173125411 334.62875102328644 C365.1955534493647 336.85602673402974, 372.1208093955777 337.7672085969454, 378.228364873226 340.946489817365 M359.83792869171265 334.72520530503954 C367.7914100792152 337.157064517965, 374.78693253390406 337.6357298583232, 380.9015155389303 339.58744944119593" stroke="#000000" stroke-width="0.8" fill="none"></path></g><g><path d="M378.8936225505093 338.12859780084574 C385.64163793382994 337.79936124486085, 394.08394240254154 336.35509895039405, 401.4771638999978 335.8982944106688 M379.4353396495868 340.70030683695086 C385.77868064530253 338.54448581782265, 392.2720861504095 336.985429114233, 400.3856806389149 335.6485923714788" stroke="#000000" stroke-width="0.8" fill="none"></path></g><g><path d="M399.4985826673576 335.3057322087376 C407.5272662706145 335.5646554137285, 411.1489136120068 338.36672664844406, 421.2160918654557 338.3114246714692 M400.0894404267162 334.69742171806007 C407.422424156271 336.4546740485368, 413.19576179636834 338.21885498500666, 420.01352013490913 340.5761196868521" stroke="#000000" stroke-width="0.8" fill="none"></path></g><g><path d="M421.8842488666769 339.32323624769305 C426.8066490585128 339.20829785973666, 435.9490067436768 336.908554494228, 438.1344070316191 335.1058121465322 M420.71442592685696 340.9997140266581 C426.256543720053 339.2138277253025, 434.23225566999696 337.1343186158332, 439.7734352313212 335.03601458339944" stroke="#000000" stroke-width="0.8" fill="none"></path></g><g><path d="M438.13953545028517 335.32771681310163 C448.51491330089283 337.77121338394505, 454.57454593234473 339.6525840004626, 461.77763651722967 341.39591533308965 M440.2328551518556 335.8417167036108 C446.3118142902841 336.6686388452787, 453.2865812103978 338.3378606058784, 460.863057682352 339.3729680073428" stroke="#000000" stroke-width="0.8" fill="none"></path></g><g><path d="M461.0067027674677 340.09083758838955 C468.0058577805022 336.2701536048227, 475.88902255056456 337.0654837660936, 478.7071288633101 334.4390377046165 M460.11904636776376 340.8832943412362 C464.65890458768575 339.5503061733708, 467.5632128673076 337.9636370508026, 480.6384558450371 335.5680547976333" stroke="#000000" stroke-width="0.8" fill="none"></path></g><g><path d="M480.6810094034025 333.6836886034168 C486.334639242242 334.854231942809, 494.23440297631515 336.85382990131876, 500.4229917517932 341.99211470460205 M479.5901798781863 335.2281493925422 C485.21619927044776 336.54410079862333, 490.72603219775624 337.7799250995895, 500.1394330834553 339.0225858994804" stroke="#000000" stroke-width="0.8" fill="none"></path></g><g><path d="M498.6587219213626 339.5937653079023 C506.10969208650505 338.70927616981476, 513.1708726749065 337.99507488767887, 520.854263393706 334.66802779311246 M499.41192259198573 339.89739776896056 C507.9669908602076 337.55674909126657, 515.1080928678217 336.4932904045635, 520.0531473103241 335.50024962014226" stroke="#000000" stroke-width="0.8" fill="none"></path></g><g><path d="M518.2762948638818 334.93576109349516 C526.4464038573801 337.07600799895783, 534.361914680084 338.5223925869998, 540.5523254527834 341.8679010292046 M520.7008405391294 334.64235196301144 C524.8583043957423 336.02136159069596, 530.3201380953841 338.2786438484652, 540.1384275123261 339.1323768420246" stroke="#000000" stroke-width="0.8" fill="none"></path></g><g><path d="M541.9865371590076 338.84080942999486 C546.3977311480976 340.0790956722079, 552.0565351913381 337.42273011455706, 559.6373194098031 333.92087764822475 M540.9895906848486 340.8321159187767 C547.669762205993 337.35796064816657, 553.9176447434812 335.9593679872642, 560.1470441969014 334.5863709256337" stroke="#000000" stroke-width="0.8" fill="none"></path></g><g><path d="M560.9289833054764 334.1278580169475 C562.4094695259918 337.0937121685505, 569.7884573311535 336.88932899233237, 579.8075418179272 339.9844057767516 M559.5887855383885 335.5115307863546 C566.1615674722002 336.5892387659928, 571.1141901326267 337.35988290200896, 579.7765901332403 340.95249184877935" stroke="#000000" stroke-width="0.8" fill="none"></path></g><g><path d="M328.22509337043624 158.34688825274105 C342.7518956684986 158.95990161956058, 358.0980062339069 161.72664457697027, 371.79793645541827 159.56348244370918 M330.03735063570025 159.61739683064988 C341.50595981949215 159.69264532452485, 352.01556720048933 159.85747249217164, 370.5342176038124 160.10317172908017 M369.06970435998454 161.2485517341993 C371.83983806379075 173.74460286775354, 368.74775335069296 188.88148390339626, 369.6289907737444 208.8163952574083 M369.9498881180392 160.76582781715194 C369.49828573539844 176.87658412856774, 370.49004031459873 191.61009839454812, 370.7981645986308 210.1614133275688 M371.31412726187034 211.32696753806684 C355.14877097540943 211.3479208133225, 340.20686570685564 207.80157742794904, 330.8105109816192 208.39185603682796 M370.64833426891 209.1220929932553 C360.6907576779571 210.59192262699537, 350.1521595137016 209.27526890091264, 330.73744353728637 210.63549417915075 M331.3021960368645 208.83793643220565 C327.6279406028624 193.30204859483132, 331.20204566527485 175.0544710011735, 330.0358833689816 160.31397120836607 M329.31220406591086 209.44953673776632 C330.5070324375898 198.14479546241856, 328.94940143451237 187.7087722269857, 330.2376427844719 159.8677851767895" stroke="#000000" stroke-width="1" fill="none"></path></g><g><path d="M329.05984245835657 159.66021133303065 C344.2336366632288 176.28643255803883, 359.59365158149683 195.7085259118292, 368.6550490880666 211.22588882305024 M329.24987970018424 160.43705456649334 C344.3806915267908 177.7999696269331, 356.9825959620131 193.26590738409485, 370.23305269985013 209.2871328515835" stroke="undefined" stroke-width="2" fill="none"></path></g><g><path d="M368.35582162793554 161.02526432614744 C353.69100314898253 178.81529292479505, 338.9909310341435 200.5194954503781, 331.17979953394547 211.67178241166008 M369.2694676103282 159.81161752955623 C358.62823272352256 174.46277660567978, 346.43379104661125 189.21480868472756, 330.77692612081967 209.04061324558182" stroke="undefined" stroke-width="2" fill="none"></path></g><text x="400" y="560" text-anchor="middle" font-family="sans-serif" font-size="16" fill="#222" font-style="italic">A promise that relies on willpower alone is not a promise — it's a wish.</text></svg>