<?xml version="1.0" encoding="UTF-8"?>
<svg width="800" height="600" viewBox="0 0 800 600" xmlns="http://www.w3.org/2000/svg"><rect width="800" height="600" fill="#FFFFFF"></rect><g><path d="M129.06678517885626 281.7176963011438 C154.04181956170652 279.34112730123246, 179.82255218367584 281.63205931093523, 229.56076993582863 281.44078845891244 M130.21068271523563 279.2702141108856 C157.4123055588981 279.38662835577026, 186.0203237477343 280.5745681527771, 230.78813954156175 280.9406559469997" stroke="#000000" stroke-width="2" fill="none"></path></g><g><path d="M130.4922090361243 278.6525246307695 C134.32474742960113 285.6918910440046, 137.7625305903565 291.32613297660197, 151.4891805579645 310.45503657293716 M129.73038439808406 280.68026114240894 C135.46233193415787 287.8303465619613, 139.20745514235972 295.1169621257729, 149.2194904049965 310.1653049655061" stroke="#000000" stroke-width="1.5" fill="none"></path></g><g><path d="M228.41741231527863 281.72520659898606 C225.69723421627796 289.0688994699138, 217.46969945960356 294.8619581256366, 209.62428037462473 311.8502110184127 M229.88169461446435 279.2353363053434 C224.8077524817586 286.719033695956, 221.12142118871 293.6055812432066, 210.7714335473031 309.87390520737716" stroke="#000000" stroke-width="1.5" fill="none"></path></g><g><path d="M151.20880429908732 311.89916436056944 C173.4329723832295 310.48963509516074, 195.8453003774725 309.8078469438034, 211.69877459701496 311.7228429275463 M150.86526469817116 310.3297425690389 C168.96974973439163 309.8588385313295, 189.88872495778938 309.0904908902929, 210.27777799056423 309.2516146788037" stroke="#000000" stroke-width="1.5" fill="none"></path></g><g><path d="M181.90867355455498 280.3054862519903 C179.1596639008751 259.7129760639715, 179.89953781537548 240.99785761765892, 181.5952196151133 220.7599338429171 M180.2602343616874 279.5893995066874 C180.22247530319345 259.1307767287122, 179.67135330124688 237.81103386503727, 180.4227960077947 219.45924757850125" stroke="#000000" stroke-width="2" fill="none"></path></g><g><path d="M157.8011522240965 269.0688958576466 C163.57726840839183 263.16586717943756, 163.1091628564992 255.732543118646, 168.75891309576127 237.20909756128944 M161.42506404402934 268.5707739065476 C163.48793571653013 264.1834907098881, 165.22682439447775 256.7668153516575, 169.21718512927254 239.616277801024" stroke="#CC3333" stroke-width="2" fill="none"></path></g><g><path d="M182.1597684199252 276.94779945361915 C187.30726866181632 267.4298374380115, 187.4868411438404 259.0206787697329, 192.06400138547406 242.7281391775545 M185.6451774127237 274.02645764556087 C189.65618457270764 263.8314151488489, 192.8174523592617 253.0949622977571, 193.94181903803695 244.95591755808127" stroke="#CC3333" stroke-width="2" fill="none"></path></g><g><path d="M177.32784543382127 279.7353625588158 C178.12498301888013 271.63555015238285, 178.19861040422097 260.55359947942634, 177.39038966533337 249.4180579749528 M173.83884861907194 278.94601720758243 C177.36154716141007 271.73901959269654, 178.76309662153906 263.8806014872323, 178.88255387242194 251.0232200147025" stroke="#CC3333" stroke-width="1.5" fill="none"></path></g><g><path d="M200.7987288450775 267.8842807409286 C202.71752612816908 257.9330941622991, 204.09673105941653 250.01961127579463, 204.0974655395839 236.38444319345905 M200.71108482678864 270.18196471373074 C200.81878144175892 261.31970871376626, 203.99772867480723 252.09018272923709, 203.80650253255408 234.84371942060028" stroke="#CC3333" stroke-width="1.5" fill="none"></path></g><g><path d="M261.6598366828004 278.05345688765135 C278.6087719709921 280.4023269362009, 300.4187409065401 279.9637077586754, 340.9476871904691 279.0648121445748 M260.58271097744546 280.4795282858773 C282.7347484368935 280.0508821357056, 306.2285257052876 279.8534282391731, 339.4193651481807 280.4038366937764" stroke="#000000" stroke-width="2" fill="none"></path></g><g><path d="M328.86003996113277 269.6592878959095 C330.9660973123292 270.9420673209536, 334.59351903671006 274.084384861105, 340.295517601363 278.858216600357 M330.2350549306274 269.875028043189 C332.25995856458223 272.6513201659469, 333.48718890453233 273.5297839306017, 339.83801274095197 279.98755895345795" stroke="#000000" stroke-width="2" fill="none"></path></g><g><path d="M329.13334697044627 291.0699664239319 C331.84242857380576 287.4236987722352, 336.4929784251436 284.2101750755028, 340.6304901757342 281.22666287680454 M329.4622005935107 290.58548563521884 C334.2175183144391 286.7376348905127, 337.6727964476679 282.8408222483508, 340.45690075694654 279.884992441026" stroke="#000000" stroke-width="2" fill="none"></path></g><g><path d="M440.79207604137235 300.8654218167604 C464.3578854279607 299.392221844297, 488.9436377726608 297.5898189385561, 518.2000800737989 301.24901732365976 M440.91174851134326 300.1496436995893 C459.14904535144547 300.71066951817005, 479.31652581426204 300.6109094468502, 520.7280506001408 300.43111560765567" stroke="#000000" stroke-width="1.5" fill="none"></path></g><g><path d="M440.09401959798026 299.55656714162836 C442.6861917559992 305.3050185366494, 447.15665707857494 307.6902499060444, 453.7518761668654 319.9839995442347 M439.08681607397995 300.48392330392545 C443.92281464009204 304.99158804323497, 448.0254738906194 310.0477890495237, 454.26060927759687 319.33524726559745" stroke="#000000" stroke-width="1.2" fill="none"></path></g><g><path d="M518.4642456819685 299.6383169542335 C515.8732107649104 307.9192241024692, 506.97493111939724 316.04325072220706, 505.25443504647274 318.1010907995123 M519.3317040556453 300.6002029627676 C514.8818789691068 307.1561781667091, 510.31797010264637 311.9743853040205, 505.12914769178514 320.8191395004389" stroke="#000000" stroke-width="1.2" fill="none"></path></g><g><path d="M481.0705598314621 301.68596681217315 C479.66256811158604 287.106644196689, 480.2250961002074 271.98149380024876, 478.7672256724617 229.9835992148299 M480.8262974384591 300.7422221273669 C479.47925053683934 275.990758830173, 479.29543604548076 250.4761582546861, 480.5789032463068 230.32672469746672" stroke="#000000" stroke-width="2.5" fill="none"></path></g><g><path d="M475.1579923578938 258.02202090229014 C475.1579923578938 258.02202090229014, 475.1579923578938 258.02202090229014, 475.1579923578938 258.02202090229014 M475.1579923578938 258.02202090229014 C475.1579923578938 258.02202090229014, 475.1579923578938 258.02202090229014, 475.1579923578938 258.02202090229014 M477.17132279729117 264.23064885387777 C479.0861728989566 263.88004544549176, 481.47333272156396 260.4579671862161, 484.7376532414826 257.07140064018205 M476.9573421208353 264.4683038502349 C478.1774669782534 263.05639360253303, 480.12440979353073 261.5204912518964, 483.88445451540315 256.79793323412184" stroke="none" stroke-width="0.75" fill="none"></path><path d="M482.2871442669341 255.65902873446768 C483.266016077725 255.61463844117617, 483.73249020867524 255.6326393389178, 484.1583129404193 256.45283622770233 C484.58413567216337 257.2730331164869, 485.026310381728 259.55947412539484, 484.84208065739864 260.58021006717485 C484.65785093306926 261.60094600895485, 483.6891329412601 261.70222537104695, 483.052934594443 262.5772518783823 C482.4167362476259 263.45227838571765, 482.04218675252355 265.51910332933517, 481.0248905764962 265.8303691111868 C480.00759440046886 266.1416348930385, 477.7983824081593 265.12769548430396, 476.9491575382789 264.44484656949214 C476.0999326683985 263.76199765468033, 476.23005820656476 262.8014581167902, 475.92954135721385 261.73327562231583 C475.62902450786294 260.6650931278415, 474.73274188203476 259.15247494640346, 475.14605644217335 258.0357516026462 C475.55937100231193 256.91902825888894, 477.2530734980237 255.39582343417268, 478.4094287180454 255.0329355597721 C479.56578393806706 254.67004768537154, 481.63293458864274 255.9369226580904, 482.0841877623035 255.85842435624284 C482.53544093596423 255.77992605439528, 481.15323656922305 254.41803797574883, 481.1169477600098 254.56194574868678 M479.5390067638936 256.1649893351389 C480.55435460406295 256.0867866954347, 482.40286550232526 255.02573119275706, 483.42249249297464 255.49943510631212 C484.442119483624 255.97313901986718, 485.3091372762002 257.9226856027914, 485.65676870778987 259.00721281646923 C486.0044001393795 260.0917400301471, 486.0261280262101 261.0295719233656, 485.5082810825128 262.0065983883792 C484.9904341388155 262.98362485339277, 483.62997450877674 264.31206451421974, 482.5496870456061 264.8693716065507 C481.46939958243547 265.4266786988817, 480.18657451613586 265.7803247904636, 479.02655630348886 265.35044094236486 C477.86653809084186 264.9205570942661, 476.258950328073 263.1072359757567, 475.5895777697242 262.290068517958 C474.9202052113754 261.4729010601593, 474.9267850692761 261.5292276090103, 475.01032095339605 260.44743619557283 C475.093856837516 259.36564478213535, 475.3158827318629 256.4183761725281, 476.0907930744441 255.79932003733322 C476.86570341702526 255.18026390213834, 479.0388801532747 256.92697804436307, 479.6597830088831 256.7330993844036 C480.2806858644915 256.53922072444414, 480.1257982049306 254.65130448249406, 479.8162102080943 254.6360480775763" stroke="#000000" stroke-width="1.5" fill="none"></path></g><g><path d="M481.65816580421455 268.59077879886775 C479.4461299529186 276.21097431289195, 480.4876770067174 284.0300458915291, 479.17307086229937 296.97380949584317 M479.58261955610965 270.92707204788235 C479.48055697220536 278.12796426858654, 480.19613230210206 284.64145985682126, 479.05876834525014 294.16877259731547" stroke="#000000" stroke-width="1.5" fill="none"></path></g><g><path d="M463.71612065482833 275.68001106054646 C471.8087614249444 274.2717297729197, 480.97660147194165 274.8081957626735, 494.86289373642114 274.06465231346436 M465.582747525798 275.57794798075275 C470.52739139333426 274.704494549647, 477.53247155790086 275.8065253527256, 494.348475595562 274.85509710234845" stroke="#4A90D9" stroke-width="1.5" fill="none"></path></g><g><path d="M467.8146953299224 285.3536176243726 C475.250314578569 284.3011830435425, 483.91835230508235 285.56726203357425, 490.1498452224385 283.97249419185846 M467.689460526167 285.3720017345954 C477.4404320785279 285.37187081101024, 486.2050389094579 284.17598417500966, 492.10756263227125 285.4263385997633" stroke="#4A90D9" stroke-width="1.5" fill="none"></path></g><g><path d="M101.22747301869057 341.65453672831853 C104.41303484037142 339.9437282631793, 110.87338278405919 338.4778809251911, 120.90261059908512 335.71464245621524 M99.95795733790165 339.1322255149048 C103.80270524610604 339.7353849787791, 108.92486945489951 337.2911430076981, 120.30346904068115 334.32796827759057" stroke="#000000" stroke-width="0.8" fill="none"></path></g><g><path d="M119.65784208791304 336.12816982212416 C126.20111261996786 337.63624477517214, 134.8665654360088 337.7162470702307, 140.4463260800448 338.6473719002885 M119.69281881283709 334.7149503171347 C126.93002189929598 336.0266547447796, 133.34498985058747 339.1825676245954, 139.34200940520265 339.83339289279974" stroke="#000000" stroke-width="0.8" fill="none"></path></g><g><path d="M139.93759710024588 339.86892554964885 C145.20770154117935 338.17627536090254, 147.7103899908399 336.68922949453463, 161.66033999576447 336.4370594695824 M139.37447343359534 339.61034268364875 C145.36604082341762 337.9073402573491, 152.4273024821845 336.8240483619688, 160.11069194397606 334.9033068815197" stroke="#000000" stroke-width="0.8" fill="none"></path></g><g><path d="M159.05451892180622 334.32530956388143 C165.299335645116 334.96668867439644, 169.71601818104932 337.07382842191856, 181.56783231530315 339.8911203582802 M160.0160436269813 335.2832789421301 C165.9704926971729 337.4231756491543, 174.1163076776925 337.5184099158757, 180.71306242411507 340.22119943585085" stroke="#000000" stroke-width="0.8" fill="none"></path></g><g><path d="M178.9078544073363 339.7584210202478 C186.9304883416858 337.76675122338037, 188.9690411895845 337.51502649238364, 201.32074436382675 333.6122894158819 M179.37941891989598 340.00101584155925 C186.37847659780797 337.8609258169126, 191.66509150913575 336.89237068008396, 199.50738950886307 334.7280779601659" stroke="#000000" stroke-width="0.8" fill="none"></path></g><g><path d="M201.5622319164879 335.67757797173283 C205.90382643505356 335.40475431555484, 214.73339597481296 338.57218294158594, 218.7752261735141 340.8825333905636 M200.09512021023977 335.8176166339619 C207.15552766290952 337.2861926419608, 214.56565492058863 338.77812384639685, 219.4241167584377 339.17610036114434" stroke="#000000" stroke-width="0.8" fill="none"></path></g><g><path d="M221.6777307201687 338.27531152502877 C227.10718692340407 337.2601553379562, 232.72103472350705 336.404689612335, 241.84207247187524 335.35048577312034 M219.78124247481412 340.55760516336767 C227.63595237407978 337.6616741960889, 234.779999554323 336.7605393888679, 240.56960194706585 335.76788728600576" stroke="#000000" stroke-width="0.8" fill="none"></path></g><g><path d="M241.7579499117447 334.91881007799856 C247.31388984511025 337.6529112766831, 253.3727750390786 339.32152143578776, 259.9817999163947 341.02028508095935 M239.43560356684506 334.1665261248118 C245.6664136815952 337.0922228567351, 251.6753997083166 337.57410717695984, 259.91121924644847 340.88577694823965" stroke="#000000" stroke-width="0.8" fill="none"></path></g><g><path d="M259.04930510152263 338.86296559223496 C267.79000557770036 339.5535524800878, 275.14318706728807 335.489274203886, 280.2191862457712 335.2522124298399 M260.6112341565245 339.86630572758645 C265.0257488004132 338.79817814880533, 269.71502158521105 337.78035203624586, 280.38792823115335 334.17747139350735" stroke="#000000" stroke-width="0.8" fill="none"></path></g><g><path d="M279.8126984830344 336.2673853581565 C288.5307200251752 337.1292626895435, 295.7688738179777 339.47012479020873, 300.8082189018594 341.039608407329 M279.81411475338433 334.82011165520225 C283.38668937321495 335.34693522803406, 287.10404989232956 336.17340975076866, 299.45368465315556 339.93566290799976" stroke="#000000" stroke-width="0.8" fill="none"></path></g><g><path d="M300.09988389627426 338.449384906579 C304.38026451602695 339.4484058026042, 309.24760950900037 336.77430583911246, 318.3832374918782 333.522921751981 M300.4248183221368 340.1563035590487 C306.5415044744469 338.6602714716529, 313.310509070956 336.3219347965264, 320.45236463478693 334.1585427160226" stroke="#000000" stroke-width="0.8" fill="none"></path></g><g><path d="M321.32787421597465 336.5840349483432 C327.5135288622632 335.82057092837755, 333.72746821008394 339.30901203687387, 338.6322993425443 339.7135059295273 M320.3310374976085 334.2703317129895 C326.32448430940036 335.9358785357812, 331.38755024115886 338.8919431817959, 339.7223738812096 340.9140628990437" stroke="#000000" stroke-width="0.8" fill="none"></path></g><g><path d="M341.7342059866518 340.3121524470974 C347.97169172665303 337.18066609960795, 352.74172316349404 337.62147613143327, 359.1345218415312 335.68530716984714 M340.3393662410118 339.9222567408925 C346.371577742725 338.9240350995845, 350.48841152379583 338.3613435700937, 360.20593977727435 335.66161812889897" stroke="#000000" stroke-width="0.8" fill="none"></path></g><g><path d="M359.65237235883205 335.54077994579 C366.0816849552394 336.1762327573603, 371.2153766214333 335.75840895657416, 378.0068197500547 339.5073445275636 M360.2376286634832 334.8144175335027 C365.0588911760943 336.0788779355626, 370.86055828923213 338.1354767140828, 380.9619886936562 340.45270673708126" stroke="#000000" stroke-width="0.8" fill="none"></path></g><g><path d="M381.5508184304825 339.7230675185645 C384.8691910968782 339.74321073980497, 392.8136252862066 337.8756550881461, 399.85951586245676 334.06527065785644 M380.13150147062083 340.14898191094954 C383.82148265925616 338.79986366299715, 389.6955915395196 337.0786912005715, 399.2339202884948 334.9761665880618" stroke="#000000" stroke-width="0.8" fill="none"></path></g><g><path d="M400.76168556203675 335.52045795761256 C405.2873283256237 334.3988732754584, 410.1124656640352 336.8630212046558, 418.0388357850682 338.9342252108095 M399.4866848266029 335.0555352510596 C407.64018957119174 337.0790017885629, 414.7746701986741 339.07843128995785, 420.20090535042317 339.8582085101784" stroke="#000000" stroke-width="0.8" fill="none"></path></g><g><path d="M418.46882684053804 340.7627731855282 C428.26937744212364 338.5910800409048, 431.14722287140876 335.11853525608285, 439.50582786041235 335.59942596601536 M420.58503834270044 340.10806227956397 C424.8835480734561 338.8213758968734, 429.2870298864105 336.9107555902287, 439.1628505410088 334.5754114821286" stroke="#000000" stroke-width="0.8" fill="none"></path></g><g><path d="M440.6767378746211 333.3824498902032 C446.79755639223396 337.0743803890485, 453.43708069261635 337.93707710871416, 460.5011875678918 338.4826022340819 M440.08668612144425 334.4851700629255 C446.40554057710955 336.5345182978651, 454.23115580121225 338.283462644684, 459.8632109712852 339.63366688732333" stroke="#000000" stroke-width="0.8" fill="none"></path></g><g><path d="M460.70316326601653 338.67848120721624 C466.97772724841207 338.7710740316173, 475.24714523259655 334.74988237813943, 478.9146045246714 333.029516725859 M460.29872425352846 340.9718952658112 C464.69334700665496 338.2014209694619, 469.3426934859998 338.0676620268785, 479.5657934858269 335.0299272400668" stroke="#000000" stroke-width="0.8" fill="none"></path></g><g><path d="M481.51218785282174 334.87586563390437 C484.2606632735035 335.61420281879407, 488.9855474027495 337.6708920376418, 500.2355291117339 340.35399370853844 M479.70807214688597 334.23666171057954 C484.2606027178977 336.26979795982726, 488.0023700769763 336.14379323380257, 500.9012066668529 340.2586662370243" stroke="#000000" stroke-width="0.8" fill="none"></path></g><g><path d="M501.35432826122525 339.3685839288058 C508.46929385318487 338.19696334516425, 514.7376784422493 336.1482925754814, 520.2281765612533 335.2313713381016 M499.6620565228323 339.90335373389934 C505.7587355002742 338.4055698869243, 510.96515812819064 337.2209192124409, 520.1829502396043 335.39857088349305" stroke="#000000" stroke-width="0.8" fill="none"></path></g><g><path d="M520.4139107588579 335.93785984324455 C525.9158112268354 336.89396147499247, 534.9550048595229 339.8309355327331, 541.1207659345168 340.4336054690411 M520.5057989147094 334.6394613613727 C527.6688217598285 335.85069743900897, 534.7635529952865 339.0533025846133, 539.7477667942823 339.77771687762356" stroke="#000000" stroke-width="0.8" fill="none"></path></g><g><path d="M538.2264729814372 339.32399042251006 C547.3420390398816 339.50262623806367, 553.7022309982531 337.41704645318305, 558.0977900180744 335.8820741205347 M540.3756231287942 340.54155188290946 C546.7756914410253 337.83901257703667, 552.2185861314742 337.7645945308394, 560.4723308247063 335.5184901331479" stroke="#000000" stroke-width="0.8" fill="none"></path></g><g><path d="M558.6305310817402 336.85292462383944 C567.0841720989707 338.48347286245723, 573.776321787504 339.19910496502035, 581.9370509687519 341.81214401022396 M559.3133110519628 335.44319540573724 C566.9566376994264 336.56088255507876, 576.0444364923517 339.6751788343349, 579.4469151422404 339.02249117331235" stroke="#000000" stroke-width="0.8" fill="none"></path></g><g><path d="M328.459401906035 159.4009057126923 C336.6044884751045 159.09968846908288, 346.1163434542234 160.85469546884173, 370.53869502763825 161.53717279825835 M330.3533381936596 160.48699720227614 C340.12044001796687 159.8967485224131, 350.1670397749553 159.5244255101276, 370.5392001558435 160.15446379052784 M369.65088700352953 159.74949702766344 C368.1015826116599 177.8529573682835, 369.73618298420996 199.3378736010354, 371.75627439753777 210.439748491998 M370.5677433236571 160.03810698095717 C369.3720521862531 178.0293308483679, 370.5790421584681 194.86824344568342, 370.4488303270865 209.4822995005678 M371.79792499080634 208.44692834352892 C355.3451992758316 211.28850745640193, 342.589591022497 208.3182756352193, 329.53963399608045 208.28225934510755 M370.5724449310977 209.67284808627295 C361.4612298081062 211.16608038515417, 352.92304202931956 209.51360690267057, 330.57619713387106 209.23478416249856 M328.8229617544675 208.1821549095404 C331.90178181036316 189.28701784329706, 329.01382082800967 173.54340749770952, 330.0273982933987 159.83386856734688 M330.998435383792 210.2188517189953 C328.9945576895963 194.9461371480552, 329.3335173201696 179.59609933663336, 329.6419301030543 160.82389645245405" stroke="#000000" stroke-width="1" fill="none"></path></g><g><path d="M330.1073240241246 160.93859883056308 C342.63417504079456 178.6621683083407, 357.7804280578005 197.58786018437144, 368.3764188639113 208.8505585829411 M329.2161795980381 159.46046768563102 C345.99347376494154 179.73111802677144, 360.575693773727 199.7086782969216, 369.5022812518216 210.25295163336742" stroke="#CC3333" stroke-width="2" fill="none"></path></g><g><path d="M371.15245634647283 158.64985698566716 C357.8904968227037 173.90822398303544, 347.85057399918145 188.34443633058515, 331.184984414803 208.74708039156917 M369.64564997686745 160.5145825746178 C357.6832014946602 175.09477189735847, 343.84938559159895 191.84401178008392, 330.48390765048504 209.57021191823807" stroke="#CC3333" stroke-width="2" fill="none"></path></g><text x="400" y="560" text-anchor="middle" font-family="sans-serif" font-size="16" fill="#222" font-style="italic">A promise that relies on willpower alone is not a promise — it's a wish.</text></svg>