<?xml version="1.0" encoding="UTF-8"?>
<svg width="800" height="600" viewBox="0 0 800 600" xmlns="http://www.w3.org/2000/svg"><rect width="800" height="600" fill="#FFFFFF"></rect><g><path d="M100.92761162018786 420.8973827688326 C264.9562532822631 419.1608209427194, 431.34939021047035 419.30005115781825, 700.8870682804841 420.24396194422576 M99.98181602655201 420.08769852717757 C250.81684598026882 418.08700479339757, 400.26498414489373 418.132056144445, 700.5415255351184 420.51608165795676" stroke="#000000" stroke-width="2" fill="none"></path></g><g><path d="M195.60605533263436 314.4641660122265 C195.60605533263436 314.4641660122265, 195.60605533263436 314.4641660122265, 195.60605533263436 314.4641660122265 M195.60605533263436 314.4641660122265 C195.60605533263436 314.4641660122265, 195.60605533263436 314.4641660122265, 195.60605533263436 314.4641660122265 M194.35604841756927 326.21832612181066 C197.45440936185344 323.19541327726046, 201.46513463889505 321.95108941312725, 205.16546561350876 315.76412491802506 M195.36958713660312 327.03790827496164 C198.94522151612225 321.8583383442205, 202.16675405546232 318.27345793537955, 204.9689929855895 316.57723364358606 M201.36389202322667 330.89418327197325 C203.34991018259598 329.7337810199774, 206.0634720685602 327.1080245434151, 208.7343128966843 322.9805252966819 M202.06990303354019 331.8771173892178 C204.37888040537817 329.14131860195727, 205.71305417796938 327.05097842650616, 209.12821739818057 323.78639462481004" stroke="none" stroke-width="1" fill="none"></path><path d="M195.72399525956436 314.3284916463362 C197.41822752103582 313.85149811577065, 201.3963063483642 313.9375200716939, 203.27498199682302 314.5029286164637 C205.15365764528184 315.0683371612335, 206.14467886380635 316.26261126920963, 206.99604915031736 317.7209429149552 C207.84741943682837 319.1792745607007, 208.38456353712806 321.492670283645, 208.38320371588918 323.2529184909369 C208.3818438946503 325.0131666982288, 208.49859243129544 327.18563987883823, 206.98789022288403 328.2824321587068 C205.47718801447263 329.37922443857536, 201.41855927867664 329.78541902001393, 199.31899046542085 329.8336721701483 C197.21942165216507 329.8819253202827, 195.65237299029914 329.68486028395296, 194.39047734334923 328.57195105951314 C193.12858169639932 327.4590418350733, 192.00180179618386 324.9501528831143, 191.74761658372142 323.15621682350934 C191.493431371259 321.3622807639044, 191.67584908479125 319.46440277073305, 192.86536606857462 317.8083347018835 C194.05488305235798 316.15226663303395, 197.5138758000684 314.0692604824177, 198.8847184864216 313.2198084104121 C200.2555611727748 312.3703563384065, 200.98372024505656 312.41052213484465, 201.0904221866938 312.71162226984995 M198.80228214762215 312.23428452727944 C200.4499018063014 312.0116973623729, 202.05719518511225 314.1491705511994, 203.75669732229048 315.36457009294145 C205.4561994594687 316.5799696346835, 208.04514514747487 317.6739399795514, 208.99929497069158 319.52668177773177 C209.9534447939083 321.37942357591214, 210.22191156298368 324.64751828549885, 209.48159626159077 326.4810208820236 C208.74128096019786 328.3145234785483, 206.63275095052262 329.99421393509675, 204.5574031623342 330.5276973568801 C202.48205537414577 331.0611807786634, 199.10439283693478 330.19782878672515, 197.02950953246025 329.68192141272357 C194.95462622798573 329.166014038722, 193.10154313053906 329.0213892743121, 192.10810333548696 327.4322531128704 C191.11466354043486 325.84311695142867, 190.72213803726973 322.1627857355485, 191.06887076214767 320.1471044440732 C191.4156034870256 318.1314231525979, 192.8186641223769 316.25155929976563, 194.18849968475465 315.33816536401866 C195.5583352471324 314.4247714282717, 198.59696460795513 315.13337061572554, 199.28788413641405 314.6667408295915 C199.97880366487297 314.20011104345747, 198.32508190320627 312.386217599759, 198.33401685550822 312.5383866472145" stroke="#000000" stroke-width="2" fill="none"></path></g><g><path d="M199.19191298811964 338.0267259847242 C198.09871007242242 347.4699757572028, 199.57991992012353 353.1991871882976, 199.93008872692639 372.21366236386456 M200.38372487655195 340.92226090905336 C200.94875491073603 348.0981083273521, 200.8986137284579 355.7193954595483, 199.00006546327006 372.41930579129456" stroke="#000000" stroke-width="2" fill="none"></path></g><g><path d="M198.5097039117956 372.9316308075394 C198.6240276336386 380.73665186542564, 195.06940014047174 385.4622088066095, 191.35542457889701 403.0625336451577 M199.3428666225878 372.5798961379992 C196.24582920209093 381.2426459484764, 195.0293660019646 390.44064369124146, 190.64016699153154 401.9207232996373" stroke="#000000" stroke-width="2" fill="none"></path></g><g><path d="M199.46576940161856 370.7641013333807 C202.1292397222167 378.62833559210964, 203.9667141743324 385.33887849621453, 211.8125040446057 402.5278048944219 M199.57782418817456 372.6929433549433 C201.95157271029547 378.9299544699096, 204.1321203395537 386.52864701667914, 210.1234579697633 402.95729408650817" stroke="#000000" stroke-width="2" fill="none"></path></g><g><path d="M201.54021524734563 349.7710253354105 C191.78218964619722 354.1552908130439, 185.75558684772582 363.21744514473056, 181.27868169131455 365.37223655513975 M199.2983734746047 350.0066434096386 C195.8809395942006 352.1104528014934, 191.9019807084167 355.5596133036307, 182.34959237240946 364.27337542004886" stroke="#000000" stroke-width="2" fill="none"></path></g><g><path d="M200.09667652790677 350.09085414046837 C205.85221717080796 356.87594838911934, 210.4598615949723 361.01335971499606, 219.0859199418035 366.1680859604964 M200.20081503501217 350.78201219075197 C205.10960336866654 354.442047623484, 211.58568301630189 358.7771005080744, 217.09370527230428 364.230194843561" stroke="#000000" stroke-width="2" fill="none"></path></g><g><path d="M291.0503764577555 349.54059691102196 C332.0972694822613 350.2725621103795, 376.15292297706475 349.63108434732436, 420.4697230972448 349.9867348339325 M289.8865019374412 350.08886223374594 C341.68210608147086 349.8312517900444, 394.15875103554976 349.1468254756824, 420.2215352830549 350.41484454464626" stroke="#999" stroke-width="1.4" fill="none"></path></g><g><path d="M410.62502998973963 344.8941993633391 C413.14724572051705 347.1679488193161, 417.5997249990703 348.60860367979245, 420.45960741482736 350.27520072215265 M409.77740921726723 345.0165540810352 C412.17660238361117 346.20577614980107, 413.8443919483526 347.0093677610483, 420.29115482669624 350.189638480067" stroke="#999" stroke-width="1.2" fill="none"></path></g><g><path d="M410.301258102705 355.28544805244087 C413.2922587831647 352.6827870112679, 416.59531794137905 351.16818471865014, 420.321920859058 349.9614120173146 M409.92178799437477 355.19358661196236 C413.13615081326293 353.29408446840415, 415.98127447778427 352.20536452397715, 419.98402199793503 350.0679427651381" stroke="#999" stroke-width="1.2" fill="none"></path></g><g><path d="M528.5135352105029 365.3399348342163 C545.7001697784198 365.83192980160845, 560.0096520578093 364.68954660885606, 591.0255674075325 365.0612825247299 M530.1825580071319 364.2362781220274 C547.6681842933045 365.1114615920539, 564.8339009967231 365.4080861694878, 590.3521423662871 365.7763751963147 M588.9365634515462 364.0734093367032 C588.9364438580646 370.1360122709103, 590.7088439395985 374.9900878250622, 590.8882779508323 380.48283275668496 M589.4230153791221 365.1085439020142 C590.0134439777815 369.1128775037168, 590.3438611000316 373.515015293684, 590.5055549610992 380.0726584498246 M589.2048681211708 381.495074835364 C573.989530772158 379.33497598304274, 561.7738696713546 380.75673638571703, 531.3907947324196 380.11053795457804 M589.271780819591 379.8244990766115 C573.3398651451134 380.08369863212044, 555.7394679129736 380.6151546308014, 529.7322549312141 380.0078937085166 M529.7886948965124 378.9574749938831 C529.227293380855 375.8308165219135, 530.3120569549023 371.46533435032654, 529.9195570899686 364.6513412083049 M530.3668941677304 380.4509392502428 C530.2825439785884 373.8402158330192, 529.8464501974026 367.7528076449769, 529.5231220220281 365.57491854659344" stroke="#000000" stroke-width="1.8" fill="none"></path></g><g><path d="M538.6038917892997 380.0787348578915 C549.3562964152322 378.4955239616797, 559.8865766332294 380.37724553653266, 581.2342562168961 381.18539413348867 M540.315107991121 380.25019239806613 C555.0045842478811 379.3144699877882, 570.7920498216067 380.02980320389423, 580.1496553729818 380.5008602374538 M581.1742366276644 378.8568161178453 C580.3312473811941 384.87641696333424, 580.0984067955408 389.49997840362175, 578.975209231872 394.7287572314776 M580.3338092207471 380.39662931653623 C580.0829660903312 383.41394155891146, 580.3244928056768 388.3077154070075, 579.9585737176938 395.0152337968601 M579.7497206618535 395.6593680485627 C568.6728574678056 395.49734401396483, 557.0038533461507 395.05073903778964, 539.8809907206164 393.5253471366218 M580.1813792897391 394.2862581044461 C571.2819787640888 394.8209772542859, 560.6003096531216 395.8449289069027, 539.707568465647 395.3494635854761 M540.9201242419714 394.01664363005614 C541.0216144734162 388.8774422727174, 539.1317855783036 384.62249816768315, 540.1717991885255 379.31242895653713 M539.8053981972374 394.5577915652345 C540.0570715095569 390.24634804789224, 539.8236745608472 385.5758923079772, 539.869462771409 379.7358291650299" stroke="#000000" stroke-width="1.6" fill="none"></path></g><g><path d="M551.6351101509774 270.17703241892576 C551.6351101509774 270.17703241892576, 551.6351101509774 270.17703241892576, 551.6351101509774 270.17703241892576 M551.6351101509774 270.17703241892576 C551.6351101509774 270.17703241892576, 551.6351101509774 270.17703241892576, 551.6351101509774 270.17703241892576 M551.6602267646946 282.64295544420906 C554.565488605165 279.9190623696349, 557.9469584240544 275.11785391247577, 561.8691949663903 269.83202134158586 M551.7820471458643 283.6265538348392 C552.9331492254801 280.2368435267297, 555.7016013101746 277.2889033309077, 563.3119131670876 269.64691538061953 M557.2632137755659 290.5329265577861 C560.7852870219355 284.62141552879643, 565.139784341102 280.70933872910007, 570.088748783465 274.84489980380005 M557.0673309387008 289.42618780748813 C560.971362428004 283.90169011669417, 565.0838627896794 277.6679885957259, 568.9847747982699 273.4091645576864" stroke="none" stroke-width="1" fill="none"></path><path d="M559.2649410699158 267.64579119947797 C561.7688477658586 267.3574442238757, 565.3367313009276 268.84552747325813, 567.1927324069105 270.0007564918494 C569.0487335128935 271.1559855104407, 569.8358533476596 272.37142304332485, 570.4009477058133 274.57716531102574 C570.966042063967 276.7829075787266, 571.4774137886822 280.90452315972846, 570.5832985558327 283.23521009805455 C569.6891833229832 285.56589703638065, 567.34886517695 287.60240734788005, 565.0362563087167 288.56128694098237 C562.7236474404834 289.5201665340847, 559.0537947253099 289.6882760635218, 556.7076453464329 288.9884876566684 C554.3614959675558 288.28869924981495, 552.3918629913619 286.4678233197292, 550.9593600354548 284.36255649986185 C549.5268570795477 282.2572896799945, 548.0419869502547 278.6728432713166, 548.1126276109898 276.35688673746455 C548.1832682717248 274.0409302036125, 549.3694078620008 271.99095212810926, 551.3832039998654 270.4668172967497 C553.39700013773 268.94268246539013, 558.7244803522203 267.7074316206494, 560.1954044381769 267.212077749307 C561.6663285241334 266.7167238779646, 560.3826555332759 267.3745219161068, 560.208748515605 267.4946940686954 M558.9359259442134 266.70690645384656 C561.2499756557157 266.57799957443956, 565.0391209104042 268.098251836111, 566.885987411617 269.50094949825353 C568.7328539128297 270.9036471603961, 569.4700889520054 273.0026782430839, 570.0171249514898 275.1230924267019 C570.5641609509742 277.24350661031986, 571.0392416180744 280.21465409592224, 570.1682034085229 282.2234345999615 C569.2971651989715 284.2322151040007, 566.7971589705811 286.2441406302515, 564.7908956941815 287.17577545093746 C562.7846324177818 288.10741027162345, 560.3845998869024 288.25562530093026, 558.1306237501252 287.81324352407734 C555.876647613348 287.3708617472244, 552.9001503470022 286.1703253158296, 551.2670388735186 284.5214847898198 C549.633927400035 282.87264426381, 548.423852648351 280.14454524819104, 548.3319549092238 277.9202003680187 C548.2400571700965 275.69585548784636, 549.1646878581638 273.1375011635556, 550.7156524387548 271.17541550878576 C552.2666170193457 269.2133298540159, 556.2018488314563 266.5894403135426, 557.6377423927696 266.1476864393995 C559.0736359540829 265.7059325652564, 559.2962954110485 268.1729698617234, 559.3310138066344 268.52489226392703" stroke="#CC3333" stroke-width="2" fill="none"></path></g><g><path d="M558.6947127673106 300.5835953954467 C559.4883563892676 309.0397842744319, 558.3683477405467 318.88146864441643, 560.3986190393593 334.3436449595232 M560.7630310922706 300.4421160145367 C560.1574661832451 307.7651060098195, 560.1228495637196 314.14457654984676, 560.4536739301378 334.77985630548386" stroke="#CC3333" stroke-width="1.8" fill="none"></path></g><g><path d="M558.6287826192089 334.0529141369632 C554.6221147779602 346.7862578969787, 548.0407667302663 358.03398561674, 547.121925585358 366.4958250080409 M560.7301314240723 335.28190678062634 C555.0164952350297 345.86257729443537, 550.2921529422703 356.99685782208525, 546.2539354918022 365.265259804254" stroke="#CC3333" stroke-width="1.8" fill="none"></path></g><g><path d="M559.6078074359231 336.00136413812055 C564.0666969343836 340.96770018233286, 567.6661154166432 349.49793674925127, 575.193137324269 366.072151010416 M559.6749955487367 335.3422322670387 C564.6547680599373 345.40492398906616, 568.9374692831738 354.64903729654355, 574.585271806575 364.292527275733" stroke="#CC3333" stroke-width="1.8" fill="none"></path></g><g><path d="M559.6513443310855 309.0339455371511 C547.1773047995853 301.76996200153235, 531.6657154880713 296.92010077235955, 519.229466672991 289.53950983308357 M559.3869055632476 310.00295084683336 C549.0373443922851 303.91783833500295, 536.9930126236213 299.1773358578954, 519.3626833154888 289.83543458014304" stroke="#CC3333" stroke-width="1.8" fill="none"></path></g><g><path d="M560.4820360361203 310.01079319560597 C569.9839365203377 304.1896320978169, 579.5640633753154 300.9250275589199, 600.882375086265 289.31859399395915 M559.2088894953827 309.4999930849722 C573.8918047114762 303.52235989743065, 589.6536932998513 294.93499237094034, 599.3609230235182 290.73145823312257" stroke="#CC3333" stroke-width="1.8" fill="none"></path></g><g><path d="M477.71276842487373 382.1440492434967 C477.71276842487373 382.1440492434967, 477.71276842487373 382.1440492434967, 477.71276842487373 382.1440492434967 M477.71276842487373 382.1440492434967 C477.71276842487373 382.1440492434967, 477.71276842487373 382.1440492434967, 477.71276842487373 382.1440492434967 M476.89786767831305 386.51732355121766 C479.10052615747946 385.3456809484851, 481.4627650767148 383.4459378818259, 482.07313569657794 380.558713220509 M477.1133750958925 387.0378161701196 C478.76949773629235 385.9705307896264, 479.89364535156085 384.37742822246554, 482.55309673883716 380.8967545937425 M479.5607842834684 389.52496236779734 C480.65238541855757 387.5124669488657, 482.37009937426546 385.4318396568805, 483.5467012069444 384.9447340310894 M479.50706492752636 389.24333271287384 C480.92833115446615 387.90257267817157, 482.22542334752006 386.52130396946507, 483.7318159898181 384.6429018838285" stroke="none" stroke-width="0.4" fill="none"></path><path d="M481.99227393856705 380.87435494437335 C482.60706549405614 381.03522289869244, 482.48000501493 381.4799078932988, 482.771675437837 382.35681632603035 C483.06334586074405 383.2337247587619, 483.8783444293468 385.1183357757531, 483.7422964760093 386.1358055407629 C483.6062485226718 387.15327530577264, 482.64745137147895 387.9033853724965, 481.95538771781224 388.461634916089 C481.26332406414554 389.0198844596815, 480.2705285458962 389.5671245645226, 479.58991455400894 389.48530280231796 C478.9093005621217 389.4034810401133, 478.4797564444789 388.58874377900383, 477.8717037664887 387.97070434286127 C477.2636510884985 387.3526649067187, 476.1119667304197 386.52969315481806, 475.94159848606756 385.77706618546273 C475.77123024171544 385.0244392161074, 476.52560628226513 384.0934529036653, 476.8494943003758 383.4549425267294 C477.17338231848646 382.81643214979346, 477.23104195290216 382.3151641257072, 477.88492659473155 381.9460039238473 C478.53881123656095 381.57684372198736, 480.2151278494877 381.28424785617403, 480.7728021513521 381.2399813155697 C481.3304764532165 381.1957147749654, 481.0733434655075 381.5455099442931, 481.23097240591784 381.6804046802213 M480.28259982540817 382.089301946008 C481.2173653532468 382.0246151375503, 481.52786331268624 381.0556869635134, 482.15872394974474 381.3688677288609 C482.78958458680324 381.6820484942084, 483.71296098947585 383.107750821526, 484.06776364775936 383.9683865380931 C484.4225663060429 384.82902225466023, 484.72245537651855 385.8789178692066, 484.2875398994458 386.5326820282636 C483.852624422373 387.1864461873206, 482.4114899360405 387.3067510900203, 481.45827078532267 387.890971492435 C480.50505163460485 388.47519189484973, 479.3864794160023 389.9243905860459, 478.5682249951389 390.0380044427518 C477.7499705742755 390.1516182994577, 476.97183042105087 389.2638944851469, 476.54874426014203 388.57265463267044 C476.1256580992332 387.88141478019395, 476.0425239686866 386.85255674439094, 476.0297080296857 385.8905653278929 C476.0168920906848 384.92857391139484, 476.06021417412745 383.50952172610846, 476.4718486261365 382.8007061336821 C476.8834830781455 382.0918905412558, 477.91472162353574 381.73161114426796, 478.49951474173974 381.6376717733348 C479.08430785994375 381.5437324024016, 479.66932953218554 382.21819984206854, 479.9806073353605 382.237069908083" stroke="#000000" stroke-width="0.8" fill="none"></path></g><g><path d="M479.6302285826776 393.74796491051563 C480.5659213133497 397.12362766893204, 479.57641048294937 399.2311034233028, 479.5602931548059 408.03016689989204 M479.6702059563913 392.49037448694645 C479.8386589297774 395.79593571083734, 479.7829746118853 399.65772448030566, 480.10418806430835 406.97879355331605" stroke="#000000" stroke-width="0.8" fill="none"></path></g><g><path d="M532.271171246829 381.87047749250064 C532.271171246829 381.87047749250064, 532.271171246829 381.87047749250064, 532.271171246829 381.87047749250064 M532.271171246829 381.87047749250064 C532.271171246829 381.87047749250064, 532.271171246829 381.87047749250064, 532.271171246829 381.87047749250064 M532.5157183515649 386.1493958094497 C534.1055360187712 385.1148673664001, 534.3868948853916 383.68627285063695, 536.2318158788952 381.84347244096324 M532.5685747271353 385.8885846058171 C534.0852703600403 384.81157210853826, 535.0470381411982 383.22878152838655, 536.6294152673426 381.48731681622274 M533.3757328487469 389.3847010478734 C535.0427354776423 387.69392475222804, 537.0761539004654 385.3044039053912, 539.3190931034427 383.3657476350168 M533.7139982115023 389.7992412158743 C534.6698601808781 388.2581268641347, 536.4812996774111 386.44686423780564, 538.7696228340571 383.24914029260174" stroke="none" stroke-width="0.4" fill="none"></path><path d="M535.5270903256305 381.0152973617135 C536.2931927910697 380.99476957087995, 536.8963310029794 380.93687746531236, 537.449542420035 381.6490111172074 C538.0027538370905 382.36114476910245, 538.7514368358036 384.44865151629466, 538.8463588279636 385.2880992730838 C538.9412808201237 386.1275470298729, 538.4378089993558 386.1025979038013, 538.019074372995 386.6856976579421 C537.6003397466342 387.2687974120829, 537.1429945491855 388.4053194725285, 536.3339510697987 388.78669779792847 C535.5249075904119 389.16807612332843, 533.873385791751 389.38797384415886, 533.1648134966744 388.9739676103418 C532.4562412015977 388.5599613765247, 532.3146467077595 387.2793561074275, 532.0825172993387 386.30266039502595 C531.850387890918 385.32596468262443, 531.7494302013672 383.84232642953026, 531.7720370461499 383.1137933359328 C531.7946438909325 382.3852602423354, 531.5475503871696 382.2711332803262, 532.2181583680347 381.93146183344135 C532.8887663488997 381.5917903865565, 535.0520677242503 381.05129630863945, 535.7956849313398 381.07576465462375 C536.5393021384293 381.10023300060806, 536.7041024786029 381.98453495060687, 536.6798616105715 382.0782719093471 M534.8843875065921 381.8590018750291 C535.4263643939437 382.1043580777282, 535.8609183860839 382.05664276127766, 536.5727120541318 382.5764141751296 C537.2845057221797 383.0961855889816, 538.7502639548609 384.0396905115374, 539.1551495148794 384.9776303581408 C539.560035074898 385.9155702047442, 539.513798502885 387.53141555245224, 539.0020254142428 388.20405325475014 C538.4902523256005 388.876690957048, 536.958846056301 388.8201398975958, 536.0845109830258 389.0134565719283 C535.2101759097505 389.2067732462608, 534.4193671265958 389.82692929526564, 533.7560149745913 389.36395330074515 C533.0926628225867 388.90097730622466, 532.4227356003244 387.2793778803344, 532.1043980709984 386.2356006048055 C531.7860605416724 385.1918233292766, 531.9199682781115 383.9547116105178, 531.8459897986357 383.1012896475718 C531.77201131916 382.24786768462576, 531.0117868998261 381.2639147152738, 531.660527194144 381.1150688271295 C532.309267488462 380.9662229389852, 534.9746416515161 382.27070454700413, 535.7384315645434 382.20821431870604 C536.5022214775706 382.14572409040795, 536.3609699543671 380.9370663225521, 536.2432666723078 380.7401274573411" stroke="#000000" stroke-width="0.8" fill="none"></path></g><g><path d="M534.1804728307919 391.92492038686555 C534.5911899846183 399.43172117132923, 535.9792460678199 404.4297530365873, 534.2173704702357 406.57881419407687 M534.5118091010381 393.2103895702396 C535.0946242697295 395.92510676439224, 534.6190064923301 399.5223189876403, 534.7146884143182 407.34867383199713" stroke="#000000" stroke-width="0.8" fill="none"></path></g><g><path d="M586.6772615235709 381.4645024659475 C586.6772615235709 381.4645024659475, 586.6772615235709 381.4645024659475, 586.6772615235709 381.4645024659475 M586.6772615235709 381.4645024659475 C586.6772615235709 381.4645024659475, 586.6772615235709 381.4645024659475, 586.6772615235709 381.4645024659475 M586.3858343514529 387.0864092539616 C587.5344732256841 385.51260019406624, 588.4588019972574 383.4073343594893, 592.084324729497 380.4267561324444 M586.5227980997706 386.6216535163994 C588.1301800532126 383.9957625760962, 590.474011842639 381.39234714035433, 591.7259396129875 380.57131177690707 M588.1080175039983 388.9978895172363 C589.0549119621704 386.85029623314074, 590.3553620504325 386.54562584230086, 594.1632300209228 382.11097693019957 M587.9748744775658 389.24496144596003 C589.464174229402 387.1572874091174, 591.7570235784593 384.62985958157896, 594.1747975123839 382.64494922311115" stroke="none" stroke-width="0.4" fill="none"></path><path d="M590.3151582869218 380.19879034826636 C591.1171324230952 380.03125037275703, 592.20015208605 381.01346005719023, 592.8956525690153 381.6344894489873 C593.5911530519805 382.2555188407844, 594.3703850344713 383.0024429020289, 594.4881611847136 383.92496669904887 C594.6059373349559 384.8474904960688, 594.0375193783873 386.34456017810146, 593.6023094704691 387.1696322311071 C593.1670995625509 387.9947042841127, 592.7368999269756 388.5273524863423, 591.8769017372044 388.8753990170826 C591.0169035474332 389.2234455478229, 589.3779015326953 389.65317292931223, 588.4423203318418 389.257911415549 C587.5067391309882 388.8626499017858, 586.6204944487911 387.36489272861854, 586.2634145320833 386.5038299345032 C585.9063346153755 385.64276714038783, 586.2157612823341 384.9487989353741, 586.2998408315951 384.0915346508568 C586.3839203808561 383.23427036633944, 585.890468735247 381.99019060182235, 586.7678918276489 381.36024422739916 C587.6453149200507 380.730297852976, 590.7956580890348 380.2270477488745, 591.5643793860062 380.3118564043178 C592.3331006829776 380.39666505976106, 591.4372185159388 381.80179400281355, 591.3802196094774 381.8690961600589 M589.4687414115604 380.99036072216774 C590.3955347981872 381.1486306853934, 592.0771365204916 381.46778852967134, 592.8815278806111 382.07393836110106 C593.6859192407305 382.6800881925308, 594.2156441782367 383.6437337575618, 594.2950895722767 384.62725971074616 C594.3745349663166 385.6107856639305, 594.0952362768917 387.3321786558668, 593.3582002448503 387.9750940802074 C592.6211642128089 388.61800950454796, 590.5900511254466 388.3916019198172, 589.8728733800283 388.48475225678953 C589.15569563461 388.57790259376185, 589.8614438813017 388.88955452742806, 589.0551337723404 388.5339961020412 C588.248823663379 388.17843767665437, 585.436275468633 387.28524874552255, 585.0350127262598 386.3514017044684 C584.6337499838866 385.41755466341425, 586.1685759488287 383.6929399238753, 586.6475573181011 382.9309138557162 C587.1265386873736 382.1688877875571, 587.1257547082671 382.1629824964238, 587.9089009418944 381.77924529551376 C588.6920471755218 381.3955080946037, 590.8766883391493 380.68044259447595, 591.3464347198654 380.62849065025586 C591.8161811005816 380.57653870603576, 590.9804580301351 381.1916913067182, 590.7273792261915 381.46753363019326" stroke="#000000" stroke-width="0.8" fill="none"></path></g><g><path d="M589.893758687932 393.9840604030175 C590.4851722902763 399.48011388243333, 590.5094160278911 404.52571277098707, 589.0126077292814 406.8250772275698 M589.493205351914 393.29051949831427 C589.4385971601 397.6724004519604, 589.5727980288866 401.7194546497249, 589.8470716935137 406.6211014963657" stroke="#000000" stroke-width="0.8" fill="none"></path></g><text x="400" y="560" text-anchor="middle" font-family="sans-serif" font-size="16" fill="#222" font-style="italic">"The role doesn't reveal character — it creates it."</text></svg>