<?xml version="1.0" encoding="UTF-8"?>
<svg width="800" height="600" viewBox="0 0 800 600" xmlns="http://www.w3.org/2000/svg"><rect width="800" height="600" fill="#FFFFFF"></rect><g><path d="M99.75536547536788 419.81097504903966 C287.9702845590712 417.41701068793384, 477.7640947181116 417.52807447760284, 699.3205605633389 419.1699161346481 M99.7453793754317 420.139035889739 C313.64101872855997 419.31429064122705, 527.8546071669513 419.19158041887306, 699.4755997405562 419.64886809837856" stroke="#000000" stroke-width="2" fill="none"></path></g><g><path d="M242.21834709593836 264.882729513568 C242.21834709593836 264.882729513568, 242.21834709593836 264.882729513568, 242.21834709593836 264.882729513568 M242.21834709593836 264.882729513568 C242.21834709593836 264.882729513568, 242.21834709593836 264.882729513568, 242.21834709593836 264.882729513568 M247.0225223250339 272.4809224953192 C247.52399764521863 270.33985923348763, 252.58454288323242 267.24461972316516, 254.2350117845123 263.663948195195 M245.928023522981 273.3671009459042 C248.91454090118907 269.5754806478424, 250.50890911026517 267.2276347678025, 255.23127480047913 262.9695083034072 M251.03281086490142 279.2711869968838 C254.42787556318686 276.19626847584556, 255.2150518094217 271.4065775404891, 259.0400517007786 269.90169270848247 M250.09288037185183 279.8916688049397 C254.42128519124464 276.50641483366394, 258.17939918705804 271.1630754819135, 260.80101736598664 268.3059973065014" stroke="none" stroke-width="1" fill="none"></path><path d="M248.2107712534941 261.2778821062243 C249.91089562399122 260.6892911375601, 251.9062834268218 260.60421479518743, 253.4655898151966 261.53776824696973 C255.02489620357142 262.47132169875204, 256.7181514222655 264.91847344129866, 257.566609583743 266.8792028169182 C258.4150677452205 268.8399321925378, 258.93626371888314 271.6083215669555, 258.55633878406144 273.30214450068706 C258.17641384923974 274.9959674344186, 256.838990749022 275.97970728524206, 255.28705997481273 277.04214041930743 C253.7351292006035 278.1045735533728, 251.23880149593708 279.76693648390756, 249.24475413880597 279.6767433050793 C247.25070678167486 279.58655012625104, 244.63545764498443 278.10350125912225, 243.3227758320261 276.5009813463379 C242.0100940190678 274.8984614335535, 241.54088716625478 272.01162818199634, 241.368663261056 270.0616238283732 C241.19643935585725 268.11161947475, 240.85397979332166 266.380209862736, 242.2894324008336 264.8009552245989 C243.72488500834552 263.2217005864618, 248.2231850804399 261.19418887906915, 249.98137890612756 260.58609599955054 C251.73957273181523 259.97800312003193, 252.61676746170235 261.09944707345306, 252.83859535495966 261.1523979474872 M253.17944344893172 261.0133524555087 C254.70435548281364 261.7116971886173, 257.62146463687696 263.1968875643995, 258.6799579319909 265.2591045759636 C259.7384512271048 267.3213215875277, 260.1820877329547 271.4058063147109, 259.53040321961515 273.3866545248931 C258.8787187062756 275.36750273507533, 256.6721239250646 276.3861592326731, 254.7698508519536 277.1441938370569 C252.86757777884262 277.9022284414407, 250.14244647328417 277.9760929185298, 248.11676478094918 277.9348621511957 C246.0910830886142 277.89363138386165, 244.02906714292465 278.09046949801836, 242.61576069794376 276.89680923305247 C241.20245425296287 275.70314896808657, 239.67274495194988 272.6442677325721, 239.63692611106376 270.7729005614004 C239.60110727017764 268.9015333902287, 240.97954138347507 267.12240612729767, 242.4008476526271 265.6686062060223 C243.82215392177915 264.2148062847469, 246.02976335832344 262.84080748217633, 248.16476372597606 262.0501010337481 C250.29976409362868 261.25939458531985, 254.0913011452284 260.9833793959331, 255.21084985854284 260.92436751545296 C256.3303985718573 260.8653556349728, 254.95673280126073 261.3496879595916, 254.8820560058627 261.6960297508672" stroke="#000000" stroke-width="2" fill="none"></path></g><g><path d="M249.47220563271583 289.7043134090964 C249.88856140478123 296.9532053479359, 248.44894075627664 307.3546066261061, 248.93633498353213 328.51211546766683 M250.1909706026795 287.3387877073464 C250.33436315211304 300.58118151352625, 250.48620865800066 312.3095356963553, 250.46277768758813 330.2669019132152" stroke="#000000" stroke-width="2" fill="none"></path></g><g><path d="M250.37251761860196 329.7800099497523 C247.92511921483495 340.73488155236333, 244.40363930409544 347.3324635602361, 238.1334695737083 359.1185793405627 M249.42374814451298 329.6003174862278 C246.48013214592237 337.31278967891757, 243.968591943911 343.41592305709, 238.16158631758174 359.8616512980534" stroke="#000000" stroke-width="1.6" fill="none"></path></g><g><path d="M249.2516196462771 330.05260009953986 C253.6734059531054 343.2020770498686, 260.47945787817395 354.25718743599606, 263.03072394204037 361.2018575031224 M250.52004750189894 329.46750474224194 C254.2452468879108 341.6548984841432, 257.8215970765101 352.52383967126815, 262.9914601432101 359.90509742850446" stroke="#000000" stroke-width="1.6" fill="none"></path></g><g><path d="M254.26567470048187 298.3411436128044 C272.1615440591679 296.4829607552666, 286.91563712828747 291.1701231393024, 319.92628430550053 286.2714688084081 M255.52613205947253 299.34506765812665 C271.57602920417196 295.2621890123536, 288.44490297620825 292.19908951945706, 320.73592419961176 284.3993465695265" stroke="#000000" stroke-width="2" fill="none"></path></g><g><path d="M515.0325469232407 328.45979318269355 C515.0325469232407 328.45979318269355, 515.0325469232407 328.45979318269355, 515.0325469232407 328.45979318269355 M515.0325469232407 328.45979318269355 C515.0325469232407 328.45979318269355, 515.0325469232407 328.45979318269355, 515.0325469232407 328.45979318269355 M516.5093723969433 336.99576333236183 C518.7749443136446 335.19398104351166, 519.6900160982107 332.90869969676464, 523.8948441450818 329.0861930593028 M517.2281483501155 337.1710645285996 C519.8937168622674 333.9789399955028, 523.0639564898689 329.97367197045514, 524.4531160571474 328.3223079408595" stroke="none" stroke-width="0.9" fill="none"></path><path d="M518.5759073061768 326.5173101494557 C519.7145284590845 326.2364069497232, 521.7704721471048 325.99621787026956, 522.8166526043947 326.5986744725717 C523.8628330616846 327.20113107487384, 524.2885144250722 328.99096769785285, 524.8529900499158 330.1320497632686 C525.4174656747593 331.2731318286843, 526.5145193052541 332.2453123680761, 526.2035063534559 333.4451668650661 C525.8924934016576 334.64502136205607, 524.1381534867529 336.6296171899097, 522.9869123391264 337.33117674520855 C521.8356711915 338.0327363005074, 520.5643772637944 337.8238950393894, 519.296059467697 337.6545241968593 C518.0277416715995 337.4851533543292, 516.3490297671063 337.0770471110307, 515.3770055625415 336.31495169002807 C514.4049813579767 335.5528562690254, 513.5116061718871 334.40232385340516, 513.4639142403078 333.08195167084335 C513.4162223087284 331.76157948828154, 514.2446825738917 329.4685433812232, 515.0908539730651 328.3927185946572 C515.9370253722385 327.3168938080912, 517.9081704914641 326.9950401163616, 518.5409426353482 326.6270029514474 C519.1737147792322 326.2589657865332, 518.7440605865573 326.1134482818504, 518.8874868363695 326.1844956051719 M520.8361874947047 326.72726711449144 C521.9120438603603 326.7687613855546, 524.1616382285348 327.15824150240223, 525.0160081913358 328.23613170045127 C525.8703781541368 329.3140218985003, 526.0153972005016 331.9354550782592, 525.9624072715105 333.1946083027856 C525.9094173425194 334.45376152731194, 525.7013719744414 334.81200891554533, 524.6980686173889 335.7910510476094 C523.6947652603365 336.7700931796735, 521.4354610451873 338.6985669878171, 519.9425871291954 339.06886109517006 C518.4497132132036 339.439155202523, 516.6987999712933 338.7427970819699, 515.7408251214381 338.012815691727 C514.7828502715829 337.28283430148406, 514.287647801945 335.9611097758011, 514.1947380300641 334.68897275371256 C514.1018282581831 333.416835731624, 514.6350970837863 331.93207013884484, 515.1833664901524 330.3799935591958 C515.7316358965185 328.8279169795467, 516.5801953089749 326.25998289121065, 517.4843544682609 325.37651327581835 C518.3885136275469 324.49304366042605, 520.0392784685247 324.94651173666705, 520.6083214458682 325.0791758668419 C521.1773644232118 325.2118399970168, 520.7865642271937 326.0561342518358, 520.8986123323222 326.1724980568676" stroke="#CC3333" stroke-width="1.8" fill="none"></path></g><g><path d="M519.3910568590694 343.4570951955993 C520.3867154208533 347.4759426396194, 520.9486682265507 351.85727568405656, 519.0341897099482 365.9577834776819 M520.5684988406705 344.18288480194843 C519.6950065473957 350.6648874322171, 520.2671431309708 358.6924981239451, 519.8792153739023 366.5048077675661" stroke="#CC3333" stroke-width="1.4" fill="none"></path></g><g><path d="M518.651490201489 365.65281688830277 C519.0438765436309 370.2509934871113, 518.5719890333771 373.58422349571964, 514.7872988256926 383.3709602747536 M520.2004679169111 366.6863600023091 C518.1214018525558 371.5837491306108, 516.0672320642599 377.5784703105914, 513.9865198752036 384.73637780995995" stroke="#CC3333" stroke-width="1.2" fill="none"></path></g><g><path d="M520.1848518741645 366.6387508564041 C522.4885538809458 369.1613428271509, 521.0136381553544 372.0615155115584, 524.82206587091 385.2613408068807 M520.0098649416468 366.2670950377858 C522.6392415188321 373.5385251827243, 524.1150968424301 379.95865492045806, 526.7038371526638 383.89518460017354" stroke="#CC3333" stroke-width="1.2" fill="none"></path></g><g><path d="M274.23167631441333 246.33603726932458 C274.23167631441333 246.33603726932458, 274.23167631441333 246.33603726932458, 274.23167631441333 246.33603726932458 M274.23167631441333 246.33603726932458 C274.23167631441333 246.33603726932458, 274.23167631441333 246.33603726932458, 274.23167631441333 246.33603726932458 M274.4635263785481 254.33778820619352 C277.8130034120461 251.9331802969986, 280.4687627775687 248.05700832712827, 282.899107655236 245.28350049995447 M275.2342428160751 253.81200532511127 C278.48381725792837 250.3202981859962, 280.0752383559103 247.4126172585879, 282.97170336820005 245.59888787720567 M281.0093186844144 258.63732865511093 C283.0194680086786 254.3816446494538, 285.9762600256572 251.5275792137747, 287.2761214425221 249.99255755724926 M279.93909691952945 257.56807977274883 C282.7046298280373 254.87102427864127, 284.1588502978144 252.64346641014822, 287.18838465038334 248.66971479871563" stroke="none" stroke-width="0.7" fill="none"></path><path d="M282.4121220416296 243.80792834513147 C283.96744426661513 244.26588164683005, 285.43446401943373 246.08503602524704, 286.2108788961112 247.18821904481314 C286.98729377278863 248.29140206437924, 287.24347376272823 248.9246151800371, 287.0706113016944 250.42702646252815 C286.89774884066054 251.9294377450192, 286.4510024681092 254.96954786907193, 285.173704129908 256.2026867397593 C283.8964057917068 257.4358256104467, 281.10595411836124 258.0674170439635, 279.4068212724872 257.8258596866525 C277.7076884266132 257.58430232934154, 276.13211589041055 255.70727397979135, 274.97890705466386 254.75334259589366 C273.8256982189172 253.79941121199596, 272.6332073433066 253.48088210785764, 272.4875682580072 252.10227138326638 C272.34192917270775 250.72366065867513, 273.42070201195526 247.79348477101095, 274.10507254286733 246.48167824834607 C274.7894430737794 245.1698717256812, 275.16748175516875 244.7564935895685, 276.5937914434795 244.23143224727713 C278.0201011317903 243.70637090498576, 281.20258514753266 243.08152126158487, 282.6629306727319 243.3313101945978 C284.1232761979311 243.5810991276107, 285.1069384636736 245.53083479650036, 285.355864594675 245.7301658453546 M277.6279918103247 243.3531582635296 C279.0052764730868 242.8827610848308, 281.5685689646198 242.98874506384433, 283.34175811462126 244.0046128297985 C285.1149472646227 245.02048059575267, 287.964063436375 248.2707498471667, 288.2671267103332 249.44836485925464 C288.57018998429135 250.62597987134257, 286.06659256079246 249.8862692203801, 285.16013775837047 251.07030290232603 C284.2536829559485 252.25433658427198, 284.0658067222 255.37883204746151, 282.8283978958012 256.5525669509303 C281.5909890694023 257.72630185439914, 279.2645565906846 258.64359671254016, 277.73568479997743 258.11271232313896 C276.20681300927026 257.58182793373777, 274.2364593331538 255.08805122432008, 273.6551671515582 253.36726061452308 C273.0738749699626 251.64647000472607, 273.8517055672254 249.31509580585728, 274.2479317104038 247.78796866435695 C274.6441578535822 246.26084152285662, 275.12674085489874 245.21727106918598, 276.03252401062855 244.20449776552115 C276.93830716635836 243.19172446185632, 278.93092339229713 241.57206481277692, 279.68263064478265 241.71132884236792 C280.43433789726816 241.85059287195892, 280.48566017726006 244.9324603965935, 280.5427675255415 245.04008194306712" stroke="#000000" stroke-width="1.4" fill="none"></path></g><g><path d="M273.55564496795125 248.1969237697321 C277.92020942577926 248.48674049967508, 281.06429986912354 247.74304890898102, 285.85079543731985 247.80591933843473 M273.7575332911315 248.20211563790897 C277.9430358818386 247.86261587733503, 281.95010323523957 247.70383738644438, 285.6828054546526 247.6404098404113" stroke="#000000" stroke-width="1" fill="none"></path></g><g><path d="M275.093473859528 244.43516045927774 C275.093473859528 244.43516045927774, 275.093473859528 244.43516045927774, 275.093473859528 244.43516045927774 M275.093473859528 244.43516045927774 C275.093473859528 244.43516045927774, 275.093473859528 244.43516045927774, 275.093473859528 244.43516045927774" stroke="none" stroke-width="0.4" fill="none"></path><path d="M275.8845559540882 243.81117912868024 C276.1423574277284 243.77743101805942, 276.6169163511217 243.7900265326557, 276.7714313293351 243.94941494325016 C276.9259463075485 244.10880335384462, 276.794501991299 244.4569464254403, 276.81164582336874 244.76750959224708 C276.82878965543847 245.07807275905387, 276.9439079104543 245.58084932595187, 276.87429432175344 245.81279394409083 C276.8046807330526 246.04473856222978, 276.56035345424294 246.15102146355855, 276.39396429116346 246.15917730108072 C276.22757512808397 246.16733313860288, 276.0755798079011 246.01929552821417, 275.87595934327663 245.86172896922375 C275.6763388786522 245.70416241023332, 275.3457864641215 245.42953199714438, 275.1962415034169 245.21377794713814 C275.0466965427123 244.9980238971319, 274.90211063740196 244.7437692532397, 274.97868957904905 244.56720466918625 C275.05526852069613 244.39064008513282, 275.398556069673 244.18492631250723, 275.65571515329947 244.1543904428176 C275.9128742369259 244.12385457312797, 276.4158386148639 244.43973276074135, 276.52164408080773 244.3839894510485 C276.62744954675156 244.32824614135566, 276.40300832185085 243.8226865520092, 276.29054794896257 243.81993058466057 M275.6811807554966 244.47002561602258 C275.83446875610736 244.46052200387768, 276.32058731618815 243.90470856188458, 276.56519373335226 243.96199862849903 C276.80980015051637 244.0192886951135, 277.10468180373056 244.5456989023209, 277.1488192584814 244.8137660157093 C277.19295671323226 245.08183312909767, 277.03017152588654 245.46353833743385, 276.83001846185726 245.57040130882933 C276.629865397828 245.67726428022482, 276.11198281545165 245.43115855532938, 275.9479008743057 245.4549438440822 C275.7838189331597 245.47872913283504, 276.0413208771656 245.73484808257297, 275.84552681498127 245.71311304134625 C275.6497327527969 245.69137800011953, 274.96485274553385 245.44222690070706, 274.7731365011994 245.32453359672195 C274.581420256865 245.20684029273684, 274.5553745397275 245.275539919427, 274.6952293489746 245.00695321743552 C274.83508415822166 244.73836651544406, 275.3462171616854 243.87785853952542, 275.6122653566819 243.7130133847731 C275.87831355167845 243.54816823002076, 276.2967488716224 244.01300192150202, 276.29151851895386 244.01788228892156 C276.2862881662853 244.0227626563411, 275.64437307633096 243.63053624899212, 275.5808832406705 243.74229558929025" stroke="#000000" stroke-width="0.8" fill="none"></path></g><g><path d="M283.42461568195364 243.7272335962856 C283.42461568195364 243.7272335962856, 283.42461568195364 243.7272335962856, 283.42461568195364 243.7272335962856 M283.42461568195364 243.7272335962856 C283.42461568195364 243.7272335962856, 283.42461568195364 243.7272335962856, 283.42461568195364 243.7272335962856" stroke="none" stroke-width="0.4" fill="none"></path><path d="M284.0236662355764 244.40187210756193 C284.1135005407309 244.30131279976456, 284.13112603145106 244.1069999619562, 284.22861434239803 244.14234865313463 C284.326102653345 244.17769734431306, 284.49535372173693 244.4312753602769, 284.60859610125834 244.6139642546325 C284.72183848077975 244.79665314898807, 284.98412550808814 245.07120275510533, 284.9080686195264 245.2384820192681 C284.8320117309646 245.40576128343088, 284.40652629351985 245.4450285285664, 284.15225476988763 245.61763983960915 C283.8979832462554 245.7902511506519, 283.51809561245113 246.30473344176758, 283.38243947773327 246.2741498855246 C283.2467833430154 246.2435663292816, 283.3497034736485 245.67659108989537, 283.3383179615804 245.43413850215128 C283.3269324495123 245.1916859144072, 283.3392818671596 245.05843476628496, 283.3141264053247 244.81943435906004 C283.2889709434898 244.58043395183512, 283.09072821785384 244.15573710575262, 283.18738519057086 244.00013605880176 C283.2840421632879 243.8445350118509, 283.70919285291086 243.8504197362597, 283.89406824162694 243.88582807735477 C284.078943630343 243.92123641844984, 284.23620552900945 244.1296713926895, 284.2966375228674 244.2125861053721 M283.61384083880114 244.47761725069648 C283.9674549606988 244.4113728199752, 285.07579292487503 243.73854888790623, 285.2336523966032 243.7325464204146 C285.39151186833135 243.72654395292295, 284.66343122829517 244.12902921379225, 284.56099766917026 244.44160244574667 C284.45856411004536 244.75417567770108, 284.5751265806947 245.2990122841894, 284.6190510418539 245.60798581214118 C284.66297550301306 245.91695934009297, 285.03440016169895 246.19475120553216, 284.8245444361252 246.2954436134574 C284.6146887105515 246.39613602138263, 283.60632454972557 246.35758336661618, 283.3599166884116 246.2121402596926 C283.11350882709763 246.06669715276902, 283.31302558642926 245.6218595877533, 283.34609726824146 245.42278497191592 C283.37916895005367 245.22371035607853, 283.530120060729 245.27603197306235, 283.5583467792849 245.0176925646682 C283.58657349784073 244.75935315627407, 283.43216532308327 244.02053215551047, 283.5154575795766 243.87274852155107 C283.59874983606994 243.72496488759168, 284.05174369512366 244.1653555239036, 284.05810031824495 244.13099076091194 C284.06445694136625 244.09662599792028, 283.5964848358332 243.5933216022985, 283.5535973183044 243.66655994360113" stroke="#000000" stroke-width="0.8" fill="none"></path></g><text x="400" y="560" text-anchor="middle" font-family="sans-serif" font-size="16" fill="#222" font-style="italic">"The cover-up kills trust. Attacking truth-tellers buries it."</text></svg>