<?xml version="1.0" encoding="UTF-8"?>
<svg width="800" height="600" viewBox="0 0 800 600" xmlns="http://www.w3.org/2000/svg"><rect width="800" height="600" fill="#FFFFFF"></rect><g><path d="M207.96121298613735 237.75348314302374 C207.96121298613735 237.75348314302374, 207.96121298613735 237.75348314302374, 207.96121298613735 237.75348314302374 M207.96121298613735 237.75348314302374 C207.96121298613735 237.75348314302374, 207.96121298613735 237.75348314302374, 207.96121298613735 237.75348314302374 M208.75257959687164 250.22496756235964 C211.97252622391093 246.09008724797832, 217.54184701422236 240.6136795432734, 223.35996198164557 233.863744079224 M207.90024710376466 250.01785323656662 C210.61676997771573 247.76416050862437, 213.73584623229877 242.6274756106958, 222.69329095202397 233.30888324852648 M214.65428938834611 256.32297202636386 C219.78095991736456 248.40501123203936, 226.84150154984857 240.39129720299854, 231.47284140034932 235.31066840378642 M212.71400296143122 256.56336796701964 C217.34697924641063 249.65262286962349, 224.14339255362287 243.92457178151312, 229.56864375846826 235.8101492569464 M221.4016450935999 259.0866492404951 C223.91538217676788 255.22375704151943, 226.58663966436663 252.8724076717459, 235.00405108042796 244.9718401037831 M221.16836848664764 259.96409858138674 C222.97941191338845 255.56597060135638, 225.82726932309248 252.1503262603822, 234.2981667473501 244.0354081810727" stroke="none" stroke-width="1" fill="none"></path><path d="M223.88676691724245 231.86128586449533 C226.96386838745565 232.6776759273142, 231.1430260805365 235.92053148703008, 232.94630095958868 238.26315523311771 C234.74957583864088 240.60577897920535, 235.28089229101704 243.1442895808616, 234.7064161915556 245.91702834102125 C234.13194009209417 248.6897671011809, 231.71149868127392 252.56808011616965, 229.49944436282007 254.89958779407561 C227.28739004436622 257.2310954719816, 224.62033070757315 259.6995498920651, 221.43409028083255 259.90607440845696 C218.24784985409195 260.11259892484884, 213.0596975955972 258.18811251350894, 210.38200180237655 256.1387348924269 C207.70430600915589 254.08935727134488, 205.78169435792586 250.66215236833344, 205.36791552150854 247.60980868196484 C204.9541366850912 244.55746499559623, 206.4536403413705 240.28111132489198, 207.89932878387256 237.82467277421526 C209.34501722637464 235.36823422353854, 210.94899855317385 233.7936265441416, 214.04204617652096 232.87117737790453 C217.13509379986806 231.94872821166746, 223.8053514606888 231.94706659258767, 226.45761452395513 232.28997777679277 C229.10987758722146 232.63288896099786, 230.1100675312211 234.74151468793843, 229.95562455611898 234.92864448313506 M218.28207944239372 232.72732591375896 C221.32558202595075 232.08923473186968, 225.631635806487 232.06410625669258, 228.04373803544627 233.0411990290556 C230.45584026440554 234.01829180141863, 231.97516979678713 235.73023294792358, 232.75469281614926 238.58988254793715 C233.5342158355114 241.44953214795072, 233.47476648972514 247.01370840189492, 232.72087615161902 250.19909662913707 C231.9669858135129 253.38448485637923, 230.62248455978767 256.3895857327756, 228.2313507875125 257.7022119113901 C225.84021701523733 259.0148380900047, 221.45418129678654 258.6625308946693, 218.374073517968 258.07485370082446 C215.29396573914943 257.4871765069796, 212.0441515914805 256.34828130781295, 209.75070411460112 254.17614874832117 C207.45725663772174 252.00401618882938, 204.88816179179534 248.1826660542206, 204.6133886566918 245.0420583438737 C204.33861552158825 241.9014506335268, 205.7894765778181 237.70618222466902, 208.10206530397986 235.33250248623978 C210.4146540301416 232.95882274781053, 217.05703351881962 231.2301582558518, 218.48892101366224 230.79997991329827 C219.92080850850485 230.36980157074476, 216.69777268696498 232.2329964862078, 216.6933902730355 232.75143243091867" stroke="#000000" stroke-width="2" fill="none"></path></g><g><path d="M220.2531761837324 259.5808104250225 C219.43093713055663 279.8637547217116, 221.32693206737434 296.8336261918884, 225.92163873680548 311.73455646827233 M219.48361254501427 260.55380440686935 C220.33798065927652 279.2066937107389, 222.35063836996758 297.1774748898108, 223.6690285691156 309.9208258657464" stroke="#000000" stroke-width="2" fill="none"></path></g><g><path d="M223.09878187463326 309.2773086761989 C220.39989148710376 321.58534172553937, 219.42479632520696 331.6103963116685, 211.3932629432524 361.08147776426006 M223.24880618721141 310.16944663616965 C218.745529639991 330.18468500103796, 214.00356443659084 348.85362684612073, 211.8535110529535 360.71309235405266" stroke="#000000" stroke-width="2" fill="none"></path></g><g><path d="M225.79418521940974 310.6485543689557 C229.3031352391118 328.34554882011423, 232.0628022917612 347.96930900931244, 236.9697706209028 360.23614167123276 M223.6522933402212 309.66710325736386 C228.64795499801406 328.6173271870597, 233.31026811487965 346.70527132207195, 236.90687191018628 359.666856828683" stroke="#000000" stroke-width="2" fill="none"></path></g><g><path d="M221.74325590049574 271.8227171603262 C228.06164989827408 273.15618711988486, 234.03774888752474 277.6787837269907, 249.4402110061233 285.905966870347 M219.31129473169574 270.25140958138775 C228.7844569706321 273.8658858552911, 236.8242279441045 279.55422342976505, 250.25821685349453 284.17660805948725" stroke="#000000" stroke-width="2" fill="none"></path></g><g><path d="M221.8511947446223 270.0911878439496 C213.57679323811485 278.12069190445186, 210.74389279288528 288.73239523892056, 198.09145831683222 304.3786478186586 M219.60517297565147 272.9857863396477 C212.88028121692145 282.7834970954006, 205.66012490808146 293.52561931263193, 199.8765877190319 305.257153097052" stroke="#000000" stroke-width="2" fill="none"></path></g><g><path d="M247.09564049249533 279.12196117527895 C245.0391230288491 275.37048630494525, 241.64947952448014 273.4643960613811, 241.0332912458831 271.2197664818344 M248.28071714969602 280.3337380027493 C244.9118803020126 277.44981259795475, 243.06824607175076 274.3121901342033, 240.25975588398518 269.75456980783014" stroke="#DAA520" stroke-width="2" fill="none"></path></g><g><path d="M248.6034462309267 300.46805346613223 C244.88950213259093 301.00045805993875, 244.0951592516347 300.57785927730487, 238.88364587427068 300.57032689297284 M248.27131330196113 299.96105007375724 C245.26001710037724 300.1833734545721, 242.5999608231041 299.6897147634371, 238.14388773090636 300.31412069288547" stroke="#DAA520" stroke-width="2" fill="none"></path></g><g><path d="M247.3151905338477 319.8721678513861 C244.70989456920535 321.892771164842, 244.37718710777037 325.87915188343624, 238.9831875107808 330.37580193584193 M248.14483477398258 319.52029111663484 C245.14496907751777 323.200451655163, 242.2002920420953 326.6017381200273, 240.58021011509294 330.3158627394218" stroke="#DAA520" stroke-width="2" fill="none"></path></g><g><path d="M511.4240511443051 233.89707911753106 C511.4240511443051 233.89707911753106, 511.4240511443051 233.89707911753106, 511.4240511443051 233.89707911753106 M511.4240511443051 233.89707911753106 C511.4240511443051 233.89707911753106, 511.4240511443051 233.89707911753106, 511.4240511443051 233.89707911753106 M509.2673033410936 251.19410782607898 C510.81974451531215 244.63482685924052, 513.6992491567661 242.7348660995909, 525.0965406430868 230.53377774629527 M507.87591539200633 250.0469513355525 C513.2502692270004 243.6398394969939, 517.8283158299909 238.9935872132437, 523.8839878843014 232.22755471676004 M513.6397959999117 258.2632156187612 C518.1233085798757 252.3719812996782, 521.8309429074869 244.83077951348014, 529.7594293045735 237.8156987544131 M512.3793761488571 256.53053747138716 C518.459939051613 249.60064250786658, 525.6124363742529 241.80879568736842, 530.0270120223687 235.1530175003789 M521.1746069262072 257.3303313019501 C525.1283819682909 255.3780477841292, 529.6291953865572 251.88331401878654, 533.4603522767932 243.82957974053554 M522.2168193512123 257.76928767228185 C526.5506163313378 252.1785932409732, 531.6117039219812 247.97954237188517, 534.8460959738153 243.3077398715949" stroke="none" stroke-width="1" fill="none"></path><path d="M519.1133593408576 229.71085488189297 C521.937288464411 229.45699717460832, 525.3153475145097 230.848564769283, 527.9278033208296 232.93431036989872 C530.5402591271496 235.02005597051445, 534.1404372157061 239.20120307422218, 534.7880941787777 242.22532848558726 C535.4357511418492 245.24945389695233, 533.4426787499328 248.47643939432874, 531.8137450992588 251.07906283808921 C530.1848114485847 253.6816862818497, 527.7669641996023 256.457108840751, 525.0144922747335 257.8410691481501 C522.2620203498647 259.2250294555492, 518.2150314276622 260.2310318873186, 515.298913550046 259.3828246824838 C512.3827956724298 258.53461747764896, 509.10542684096885 255.38021328068865, 507.5177850090364 252.75182591914134 C505.93014317710396 250.12343855759403, 505.1469372207813 246.72629226218285, 505.7730625584514 243.61250051319996 C506.3991878961215 240.49870876421707, 508.6353654061676 236.0802092362357, 511.27453703505694 234.06907542524402 C513.9137086639463 232.05794161425234, 519.8401980298022 232.0414091943034, 521.6080923317877 231.54569764724985 C523.3759866337732 231.0499861001963, 522.1669021041106 230.85490669176525, 521.8819028469701 231.09480614292266 M518.1489285235317 230.0630022504261 C520.7562498116304 229.35612037146325, 524.6938178519017 230.87391248877532, 527.0034809835923 232.7863139399804 C529.313144115283 234.6987153911855, 531.1813504073768 238.42230231404662, 532.0069073136758 241.5374109576567 C532.8324642199748 244.6525196012668, 532.8248245287748 248.66436712853329, 531.9568224213862 251.47696580164097 C531.0888203139975 254.28956447474866, 529.0372896395222 257.387902766215, 526.7988946693439 258.4130029963028 C524.5604996991656 259.4381032263906, 521.3454373622573 258.23779901914713, 518.5264526003159 257.6275671821678 C515.7074678383746 257.0173353451885, 511.83772833868545 256.9801332703062, 509.8849860976957 254.75161197442677 C507.9322438567059 252.5230906785473, 506.8184536665 247.45103850939688, 506.8099991543774 244.25643940689096 C506.80154464225484 241.06184030438504, 507.97773094409115 237.60564427154955, 509.8342590249602 235.58401735939125 C511.69078710582926 233.56239044723296, 516.8470699452863 233.04404556984636, 517.9491676395916 232.12667793394124 C519.0512653338968 231.20931029803612, 516.4271362952674 230.3083189939469, 516.4468451907918 230.07981154396055" stroke="#000000" stroke-width="2" fill="none"></path></g><g><path d="M520.3230207878883 258.9408683783359 C521.9789217560614 272.72702598561756, 520.6181918854304 287.95769261268464, 525.6011346550885 309.5555220828927 M519.0129796896668 259.044997282866 C520.419493390783 275.9516752890938, 523.2454384816137 292.21280539178923, 524.2468574823705 310.711940416757" stroke="#000000" stroke-width="2" fill="none"></path></g><g><path d="M522.9984903342338 308.7364112683434 C520.6829165255127 325.20704727569, 516.9883697741238 343.2508759914327, 511.6526117303017 358.64756983703836 M524.5596145738348 309.95917039456015 C519.885457391994 327.70964952812966, 514.7311382882068 343.87986156627835, 511.52344846948483 359.3833888157185" stroke="#000000" stroke-width="2" fill="none"></path></g><g><path d="M522.8962205156995 310.3443740220639 C528.2786475302846 319.51810159643895, 528.8287385088347 333.1292421000078, 537.5532529942801 360.68224018960456 M524.7239334506849 310.5017525155363 C528.7890925534608 323.63353188694515, 531.6141527774471 339.81603234513136, 535.6401808325891 359.8867922101028" stroke="#000000" stroke-width="2" fill="none"></path></g><g><path d="M520.7662703325974 270.14984480541165 C533.1688583981693 274.2582189900863, 540.4443082100495 282.3331230617277, 551.8530383618448 286.9968567390199 M519.7527147980663 270.7198380106048 C530.3107809743838 274.58428143863205, 539.5977960482818 279.7168517829552, 549.895422849934 285.7679603843216" stroke="#000000" stroke-width="2" fill="none"></path></g><g><path d="M521.5900027771904 271.27205680061206 C512.4817499713118 281.6757482303955, 505.9645256629442 294.66645447909536, 501.04594020878824 303.44885175876067 M519.5373852157863 272.47213104327506 C512.2690748581643 284.1130588198108, 505.41924494991423 295.9200879467557, 500.6555858232705 305.67565121132776" stroke="#000000" stroke-width="2" fill="none"></path></g><g><path d="M548.5200295968215 279.61454023972914 C544.585482877004 277.37549045120517, 541.5197650926542 273.08849783953076, 539.5527355331207 270.1070840112853 M547.7130320451149 279.8326933877476 C545.7813849404624 276.32633425509044, 542.8546543812863 273.78538665487486, 540.2639040179998 270.292838558821" stroke="#DAA520" stroke-width="2" fill="none"></path></g><g><path d="M547.7145878850062 299.64253019723935 C545.043615300586 299.147676841432, 541.1851374752932 299.9411495322658, 538.0705899458198 299.920705183816 M547.8830912492276 299.88220835329946 C544.0453456478518 300.0666643648347, 540.2905201934192 299.8262612243499, 537.720792374404 300.2926237085835" stroke="#DAA520" stroke-width="2" fill="none"></path></g><g><path d="M546.7449862950814 319.6673987052788 C545.3161481523819 324.85974353207405, 541.8801003226362 328.0011031703214, 540.5909351984998 329.1996552650698 M548.5098433312245 319.70428632068814 C545.7602296837346 322.08892823523, 544.0534757356758 323.6865432428946, 540.2418094010034 330.20919352657756" stroke="#DAA520" stroke-width="2" fill="none"></path></g><g><path d="M320 450 C379.4129258454335 480.99957892249256, 438.98027164990117 478.2053048361546, 501.7115239576677 450.167008263932 M319.9418598080471 449.609884753679 C379.77449375309834 479.6288785508914, 439.5032669476923 477.7241010740055, 498.30653673270217 447.7127917731257" stroke="#999" stroke-width="1.2" fill="none"></path></g><g><path d="M495.287694757 445.0291457914676 C495.81801390081296 445.83154391737196, 497.1128881169356 447.9719267023331, 499.57241008374984 449.3475503414692 M495.0759228540324 445.3180263295731 C495.6822017258691 446.1319841029665, 496.6990895469796 447.0435270099721, 500.09054540558895 449.76517839560665" stroke="#999" stroke-width="1.2" fill="none"></path></g><g><path d="M494.9532362165532 454.8473567732284 C496.343521547525 454.4256625182918, 497.7331979404617 452.8792264847494, 500.33426779414845 449.9134753125775 M495.17597717496506 454.9515675572652 C495.7509618319786 453.6746111750327, 497.2073639786047 453.00957735971537, 499.91780372335404 449.6855825295041" stroke="#999" stroke-width="1.2" fill="none"></path></g><g><path d="M98.89975441186783 431.0252841164744 C274.70674028124955 427.4549309229729, 450.3764232578746 428.1107313226068, 699.2579266657647 430.79480549264173 M99.903665026808 429.83591597562713 C268.3134102995427 427.4462707501589, 437.0311515642115 426.81920642811076, 700.3276271697506 430.40648064820687" stroke="#000000" stroke-width="1.6" fill="none"></path></g><text x="400" y="560" text-anchor="middle" font-family="sans-serif" font-size="16" fill="#222" font-style="italic">"Knowing the pattern and breaking the pattern are completely different things."</text></svg>