<?xml version="1.0" encoding="UTF-8"?>
<svg width="800" height="600" viewBox="0 0 800 600" xmlns="http://www.w3.org/2000/svg"><rect width="800" height="600" fill="#FFFFFF"></rect><g><path d="M239.1589001870255 233.07290703692337 C239.1589001870255 233.07290703692337, 239.1589001870255 233.07290703692337, 239.1589001870255 233.07290703692337 M239.1589001870255 233.07290703692337 C239.1589001870255 233.07290703692337, 239.1589001870255 233.07290703692337, 239.1589001870255 233.07290703692337 M236.19626054536087 247.63621950482744 C241.2876667786437 246.36457496974663, 244.37497591706443 238.7524321787981, 251.7853655228263 228.17368800151806 M235.07737999266067 249.60467861408287 C242.95103817900102 240.86931095211528, 247.65114416802447 235.03011329531668, 252.914312754889 229.61028996128383 M235.20076635456277 262.83696470311975 C240.20225446725306 256.97948949822637, 245.2611256411577 249.54409493539438, 258.6244207847872 234.91262752958062 M235.46455079797448 261.25228980304684 C242.35316143810954 254.1003604170891, 248.7454647991336 248.59160825780558, 260.4679661547061 233.74767126323698 M241.35093055829842 265.7622891955785 C248.71646588503913 259.95324638612425, 254.4923912333041 251.54660544664304, 268.26974883716093 238.47081597402675 M240.67145956345567 266.7366543256217 C248.48043042395068 260.05721536679175, 254.80222301942285 252.02427752384406, 266.9356648252491 238.56314087045675 M245.70665599985512 274.4108557209387 C252.5571816788257 265.58443735028095, 260.6681686290012 256.8082093187825, 269.79580286696745 246.79421849706944 M247.0043654783894 272.9982613827789 C252.0348260386305 268.28820221780194, 256.4608616020509 263.16310832227816, 270.93035091684794 245.4030515859222 M258.691175642149 271.6945178781585 C265.2532826737794 264.4814263878992, 271.49288684586634 258.68113533730724, 273.3949155946614 252.3452498828311 M258.3289417398443 272.5357712483514 C263.91352903409677 265.3479643387119, 269.06688833558525 258.6070996094818, 273.758708121983 253.38436637384814" stroke="none" stroke-width="1" fill="none"></path><path d="M251.76414632202025 228.9217742585896 C255.70357027796737 229.05453729558073, 260.5304801016021 232.59616370742978, 263.64030588912163 235.94360638901657 C266.75013167664116 239.29104907060335, 269.79620782198975 244.70446038298002, 270.42310104713755 249.0064303481103 C271.04999427228535 253.3084003132406, 269.83421318137135 258.269437697543, 267.40166524000847 261.7554261797983 C264.9691172986456 265.24141466205356, 260.1215225408525 268.6515154380253, 255.82781339896033 269.9223612416421 C251.53410425706818 271.1932070452589, 245.8175380237856 271.3582015390349, 241.6394103886556 269.3805010014989 C237.46128275352558 267.4028004639629, 232.5181148639841 262.1776750031374, 230.75904758818024 258.0561580164259 C228.99998031237638 253.93464102971444, 229.72981866910277 248.7637522708176, 231.08500673383242 244.65139908123004 C232.44019479856206 240.53904589164247, 234.87680089097958 235.92334444959556, 238.8901759765581 233.38203887890052 C242.90355106213664 230.84073330820547, 252.0526064232316 229.65411211292118, 255.16525724730366 229.40356565705986 C258.2779080713757 229.15301920119853, 257.7976606236201 231.50955279541665, 257.56608092099043 231.87876014373256 M241.81623913327465 231.4586890903876 C245.60956876982502 230.13750116956203, 251.19037154677937 230.63771527975786, 255.57821990846423 231.79703272724177 C259.9660682701491 232.95635017472569, 265.77080019502375 234.85282406436627, 268.1433293033837 238.4145937752911 C270.5158584117437 241.97636348621594, 270.86661571930335 248.88065859846296, 269.8133945586242 253.16765099279075 C268.7601733979451 257.45464338711855, 265.13265029852397 261.30900943826646, 261.8240023393088 264.13654814125795 C258.5153543800936 266.96408684424944, 253.89566631304734 269.79701265839276, 249.96150680333307 270.13288321073975 C246.0273472936188 270.46875376308674, 241.67415651225264 268.78032097911785, 238.21904528102317 266.1517714553397 C234.7639340497937 263.5232219315616, 230.2681773908183 258.8206848571224, 229.23083941595632 254.36158606807103 C228.19350144109436 249.90248727901965, 229.95995313537725 243.23236284149894, 231.99501743185135 239.39717872103145 C234.03008172832546 235.56199460056396, 239.80300321992547 232.84457137399266, 241.441225194801 231.35048134526608 C243.07944716967654 229.8563913165395, 241.27480842593488 230.10977617500728, 241.82434928110465 230.432638548672" stroke="undefined" stroke-width="2" fill="none"></path></g><g><path d="M244.0640072407207 247.9369554930599 C244.0640072407207 247.9369554930599, 244.0640072407207 247.9369554930599, 244.0640072407207 247.9369554930599 M244.0640072407207 247.9369554930599 C244.0640072407207 247.9369554930599, 244.0640072407207 247.9369554930599, 244.0640072407207 247.9369554930599 M246.33200069192173 254.20026066723855 C248.9153830810354 251.08340446614505, 250.82087944467244 249.28837305678857, 254.24707965970995 245.26697439630203 M246.83376355084815 253.12501995047683 C249.29416448273804 251.0343872959568, 250.76346207366223 248.68402604963143, 254.1654311044249 245.78593285372102" stroke="none" stroke-width="0.75" fill="none"></path><path d="M250.24305378619843 244.87743966672292 C251.17298722182724 244.83319044688187, 252.7170115874171 245.40946800476937, 253.63403048382827 246.0563201834094 C254.55104938023945 246.70317236204946, 255.4849499692598 247.61430617619072, 255.74516716466553 248.75855273856317 C256.0053843600713 249.9027993009356, 256.02660515297003 252.0669601485099, 255.19533365626265 252.92179955764408 C254.36406215955523 253.77663896677825, 252.10519391703477 253.76623968927197, 250.7575381844211 253.88758919336823 C249.40988245180742 254.0089386974645, 248.06231826225934 253.85578230123213, 247.10939926058063 253.6498965822217 C246.15648025890192 253.44401086321125, 245.54769915756748 253.60430559354307, 245.04002417434893 252.65227487930557 C244.53234919113038 251.70024416506806, 243.8211781429399 249.1167366612971, 244.06334936126925 247.9377122967966 C244.30552057959858 246.7586879322961, 245.53735893033755 246.19928256341285, 246.49305148432495 245.57812869230256 C247.44874403831236 244.95697482119226, 249.1740806122619 244.33374302220676, 249.79750468519364 244.21078907013478 C250.4209287581254 244.0878351180628, 250.264853344266 244.68743074638616, 250.2335959219155 244.84040497987064 M253.30202000646244 245.001665844504 C254.1095133027281 245.2957865946969, 253.66836238412876 245.74893368011078, 254.01591952445125 246.76774863536065 C254.36347666477374 247.7865635906105, 255.73770019164948 250.02158838667413, 255.38736284839734 251.11455557600317 C255.0370255051452 252.20752276533221, 253.02042997436405 252.86940219161653, 251.9138954649385 253.325551771335 C250.80736095551293 253.78170135105347, 249.7096555374935 254.06778150243235, 248.74815579184408 253.85145305431394 C247.78665604619468 253.63512460619552, 246.60974606341756 252.33249252429405, 246.14489699104212 252.02758108262458 C245.68004791866667 251.7226696409551, 246.14770890943004 252.85137547724327, 245.95906135759145 252.02198440429711 C245.77041380575287 251.19259333135096, 244.42279203596368 248.38353311231594, 245.01301168001058 247.0512346449477 C245.60323132405748 245.71893617757945, 248.1290185658019 244.29243373211415, 249.5003792218729 244.02819360008766 C250.87173987794387 243.76395346806117, 252.89742738450238 245.26200038605722, 253.24117561643638 245.4657938527887 C253.58492384837038 245.66958731952016, 251.93835322013595 244.96796224577204, 251.56286861347687 245.25095440047645" stroke="undefined" stroke-width="1.5" fill="none"></path></g><g><path d="M287.7767313407799 250.32671229858727 C292.0920545188841 250.40409367751465, 294.7817359662565 250.4558771806846, 298.30578577609384 249.87859857190253 M287.7585183815595 249.73683630920306 C291.1644427078244 250.37910286298904, 293.6544305418731 249.7542286855531, 297.9489002538261 249.55780638911398" stroke="undefined" stroke-width="2" fill="none"></path></g><g><path d="M276.1212070047883 277.0603427482263 C279.3741462089263 278.5877019086711, 280.3151543908797 281.4628178400943, 283.483374156792 284.4637356961388 M276.5145962291356 276.79738924435156 C279.6441895628128 279.1451444242572, 281.89965898438015 281.22032139668204, 283.7440938634012 283.47021090425136" stroke="undefined" stroke-width="2" fill="none"></path></g><g><path d="M250.97170962721185 287.04767732020065 C250.23105809154342 290.9699646711324, 250.17816564805307 293.0940211048991, 250.25394945731625 297.48531817555283 M250.12600193386922 287.7371474437596 C249.80277163421277 290.80434047557657, 250.31178808963622 294.04213853632837, 249.91470853975238 298.07696305723056" stroke="undefined" stroke-width="2" fill="none"></path></g><g><path d="M222.54278010484722 277.731300411348 C222.0115800861203 278.68261948099286, 219.02071916907602 280.632895261219, 216.18901862500428 283.58094957632045 M223.6049935462161 276.95553910530214 C221.1053558614741 279.16372477237485, 218.99019926712938 281.32771057892074, 216.45422512405779 284.18145698703273" stroke="undefined" stroke-width="2" fill="none"></path></g><g><path d="M211.18525654895595 250.77979064759995 C208.38466638663502 249.88762994943514, 205.81995639833153 249.56703755194744, 202.54046801348304 250.8063644026368 M212.46765848646405 249.71696053570088 C208.46762150056037 250.26304639445317, 204.84488242012014 250.05575995524205, 201.54153018740368 250.40206321175214" stroke="undefined" stroke-width="2" fill="none"></path></g><g><path d="M222.16851976914944 223.72173903714435 C220.9944526946578 220.90661267176657, 218.95764534294526 218.83732229553425, 215.61490443201555 216.67387841161798 M222.99590831952165 223.50333465224026 C221.15873256533948 221.2818009820667, 218.55984942292096 218.97338529733315, 215.61675464232658 216.44566626374117" stroke="undefined" stroke-width="2" fill="none"></path></g><g><path d="M249.43656559074608 212.5549081437919 C249.42336285708635 209.08654172033113, 250.4352812409746 204.73591167918985, 249.2770680314829 202.04361355727818 M250.03479419428936 212.39636743199833 C250.0911951075571 209.532610120963, 250.08346680376096 206.2365809726312, 249.73696586867462 201.90336659492044" stroke="undefined" stroke-width="2" fill="none"></path></g><g><path d="M276.94093637393536 222.80180189211575 C279.1182894083168 222.01882173566102, 280.41240988470463 219.05222781716753, 282.9723185197608 215.46507359061778 M276.4045085118006 223.44207729543322 C278.3271572910433 221.33171029892003, 281.14085784215223 219.4180851395257, 283.58040144314236 216.38035708844484" stroke="undefined" stroke-width="2" fill="none"></path></g><g><path d="M428.075896506077 246.24446524338725 C428.075896506077 246.24446524338725, 428.075896506077 246.24446524338725, 428.075896506077 246.24446524338725 M428.075896506077 246.24446524338725 C428.075896506077 246.24446524338725, 428.075896506077 246.24446524338725, 428.075896506077 246.24446524338725 M424.3724270376494 259.38999204783664 C431.9828644642315 253.40913198160192, 435.5769229184622 245.75446724329106, 441.80737940750055 242.76280439951609 M424.6961008793641 261.39222052822936 C429.41370758164857 256.66314980367224, 432.65638573079025 253.10516373281177, 439.9469904621012 244.45533643728044 M426.52199132165356 269.7640825494495 C432.2381802250045 262.64841549338064, 439.0623742098623 259.44670720514426, 447.9858039964316 247.5666400284837 M427.81048177848953 270.61351877323364 C435.1572708593181 261.69414474128894, 443.67401318132823 253.25670402121554, 450.0490612766471 247.06922587471627 M433.5025316161649 277.96891437325866 C441.74443386602627 266.92291022119315, 451.61759278245665 258.2992817291043, 454.76040093761924 252.16291409216652 M434.42651641690804 275.94806377491625 C441.0881667414744 266.2590074332857, 450.508620219718 257.57461258999047, 456.1821808635449 250.8561335488279 M437.8764680537494 282.824454908643 C446.03532206040774 274.9299893181012, 451.269433560619 269.84874150903863, 458.17642621685985 258.3952250888301 M440.7342101695054 282.3226614065071 C444.9506281637973 275.0604813005562, 450.81353778583 267.7595954501238, 459.51640084237107 259.30756137987845" stroke="none" stroke-width="1" fill="none"></path><path d="M438.7373291873255 241.87696328043714 C442.3909545357204 241.63389105495392, 448.3906569133248 243.6558414026967, 451.46040954757444 246.08796066372267 C454.5301621818241 248.52007992474864, 456.4941063074366 252.7841091436391, 457.15584499282346 256.469678846593 C457.8175836782103 260.1552485495469, 457.1430861798772 265.0027776619251, 455.43084165989575 268.2013788814461 C453.7185971399143 271.39998010096707, 450.4119809963258 274.1577165035581, 446.88237787293474 275.66128616371896 C443.3527747495437 277.1648558238798, 437.89908337738535 278.3244292601502, 434.2532229195494 277.22279684241107 C430.6073624617134 276.1211644246719, 427.124348395053 272.1891853530235, 425.00721512591883 269.05149165728403 C422.89008185678466 265.91379796154456, 421.0466243512533 262.1890077847174, 421.55042330474447 258.39663466797424 C422.05422225823565 254.60426155123108, 424.89604575173496 249.18035756463448, 428.03000884686577 246.2972529568251 C431.1639719419966 243.41414834901573, 438.21506065888104 241.66764805446226, 440.35420187552927 241.09800702111806 C442.4933430921775 240.52836598777387, 440.8317439785848 242.39251973615222, 440.86485614675496 242.87940675675995 M435.0323381871559 242.70393200686084 C438.73253354800494 241.43250469580656, 444.1129020133988 242.24947717741105, 447.9611257704549 244.0526399305121 C451.80934952751096 245.85580268361315, 456.45128244247746 250.05014582019092, 458.1216807294924 253.52290852546707 C459.7920790165074 256.9956712307432, 459.1139015728949 261.18117355035736, 457.98351549254477 264.88921616216896 C456.8531294121946 268.59725877398057, 454.7919418573867 273.3875918942577, 451.33936424739153 275.77116419633654 C447.88678663739637 278.1547364984154, 441.18857579869 279.7295386291532, 437.26804983257387 279.19064997464193 C433.3475238664577 278.6517613201307, 430.27236852312757 275.7114372980235, 427.8162084506948 272.53783226926896 C425.360048378262 269.3642272405144, 422.84063468565324 264.04551919475267, 422.5310893979771 260.1490198021148 C422.22154411030095 256.252520409477, 424.00611264034023 252.3069914106379, 425.958936724638 249.158835913442 C427.9117608089358 246.01068041624612, 432.8022438720765 242.39916878954975, 434.248033903764 241.26008681893956 C435.6938239354515 240.12100484832936, 434.54672644453467 241.7307975165459, 434.63367691476327 242.32434408978085" stroke="undefined" stroke-width="2" fill="none"></path></g><g><path d="M435.84688491318434 258.29973437880454 C435.84688491318434 258.29973437880454, 435.84688491318434 258.29973437880454, 435.84688491318434 258.29973437880454 M435.84688491318434 258.29973437880454 C435.84688491318434 258.29973437880454, 435.84688491318434 258.29973437880454, 435.84688491318434 258.29973437880454 M438.7732581136122 263.3276640220072 C441.19018502294335 262.60098423641466, 442.56496241925703 260.4920422263527, 444.028036316882 258.8264375842136 M438.98373544120756 263.9025594083669 C441.0162792504694 261.6271254915328, 442.4643745705595 260.0289324699331, 443.41317426393 258.4456621174253" stroke="none" stroke-width="0.75" fill="none"></path><path d="M437.79373963820575 256.3770814398573 C438.4726468227724 255.84246995207766, 440.333357824847 255.55925507820956, 441.22760279366565 255.9108992837999 C442.1218477624843 256.2625434893902, 442.7611937924306 257.6800923658376, 443.1592094511176 258.48694667339925 C443.55722510980456 259.2938009809609, 443.8239601774425 260.1612218857407, 443.6156967457873 260.7520251291698 C443.40743331413216 261.3428283725989, 442.31590945322733 261.4550533506246, 441.9096288611868 262.0317661339738 C441.5033482691462 262.608478917323, 441.9882270353237 264.1382723676235, 441.178013193544 264.212301829265 C440.36779935176435 264.28633129090656, 437.96849617868986 263.0062689180528, 437.0483458105086 262.475942903823 C436.1281954423273 261.9456168895932, 435.84935389201763 261.73558410715077, 435.65711098445627 261.03034574388636 C435.4648680768949 260.32510738062194, 435.4394196001708 259.0861432922554, 435.8948883651405 258.24451272423664 C436.3503571301102 257.4028821562179, 437.7308365041635 256.29094211875974, 438.38992357427423 255.98056233577412 C439.04901064438496 255.67018255278848, 439.6300801564016 256.2951223659454, 439.8494107858048 256.3822340263228 M439.08455837336834 255.6259613563595 C439.5723888214471 255.47829886603216, 440.9756900261526 255.1352576182427, 441.6842020313377 256.055671668155 C442.39271403652276 256.97608571806734, 443.14103254905507 259.8750877129256, 443.3356304044788 261.1484456558334 C443.5302282599026 262.42180359874123, 443.1126554760918 263.1861314919596, 442.85178916388026 263.695819325602 C442.5909228516687 264.20550715924435, 442.34188962575473 264.3919721746329, 441.7704325312096 264.2065726576877 C441.1989754366645 264.02117314074246, 440.22929945333226 263.0340961701675, 439.4230465966095 262.58342222393077 C438.6167937398867 262.132748277694, 437.2723066266606 262.19436574430426, 436.93291539087306 261.5025289802671 C436.5935241550855 260.8106922162299, 437.22904585468996 259.38225677495063, 437.386699181884 258.4324016397076 C437.54435250907807 257.4825465044646, 437.59970536684995 256.2241560977109, 437.87883535403734 255.8033981688091 C438.1579653412247 255.38264023990735, 438.8470402768543 255.5906822440713, 439.06147910500846 255.90785406629695 C439.27591793316265 256.22502588852257, 439.0818127317326 257.70826282457807, 439.1654683229623 257.70642910216293" stroke="undefined" stroke-width="1.5" fill="none"></path></g><g><path d="M470.3811685174556 272.273382454741 C473.4097858371864 274.0258453545496, 474.6077736148681 274.22041785447055, 479.40428207285834 276.90711743073035 M470.66614399588525 272.4099101457203 C473.5119009120288 273.148001280974, 475.989380235344 274.8508605160766, 479.77610367632997 275.65996934472844" stroke="undefined" stroke-width="2" fill="none"></path></g><g><path d="M453.6026228260099 289.89704372959045 C455.1092281690441 293.9310674272184, 455.0019651020006 297.0103115539168, 457.01003993445545 299.8535832975056 M452.8664964096034 290.5396910518948 C454.13614514365713 293.5526486682329, 456.0114860786837 296.91951242591585, 457.281561824485 299.4961484307179" stroke="undefined" stroke-width="2" fill="none"></path></g><g><path d="M427.3869349143018 290.7295214139723 C426.23811349182733 292.2002457997976, 424.938456990035 295.20465016074684, 423.4926515753949 299.20136460549156 M428.05958724740344 290.41253775844183 C425.8472363383489 294.37998975984107, 424.3960542369883 297.9503103209997, 424.29387906987887 299.3957985251633" stroke="undefined" stroke-width="2" fill="none"></path></g><g><path d="M409.70784772252296 272.35644273126724 C406.337437219677 273.3753390531015, 404.31571252349414 274.5626934199636, 401.18111399335453 276.6105344262444 M409.90955051292843 272.4178337410562 C406.90741047260155 273.89446061552616, 403.6116238402496 275.4813925830543, 400.91053847781666 276.63337718233845" stroke="undefined" stroke-width="2" fill="none"></path></g><g><path d="M409.28700952414516 247.6186353073095 C406.5210911287453 247.24093089742928, 403.3115294044802 245.12515001004564, 399.76979598764365 243.69448932292374 M409.59370689216445 247.97356873664327 C405.84032035153865 246.63686661590717, 402.8550132194091 245.61860636892303, 400.1100563354291 243.81781623434455" stroke="undefined" stroke-width="2" fill="none"></path></g><g><path d="M426.76551380074284 228.96244833426653 C425.1223730367882 226.19459284855566, 424.04561445681264 222.54727937245593, 424.15556839587487 221.10450516939434 M427.20903013414124 229.99895638719556 C425.1908477715322 226.47079379664223, 423.90685810504476 223.22132302003817, 423.6818615476564 220.21349412764354" stroke="undefined" stroke-width="2" fill="none"></path></g><g><path d="M451.9402942366697 230.2995067972085 C454.5725778504959 225.8733648582767, 453.7739699097775 223.14541107721394, 456.89138006963697 220.0270153475332 M452.7272482718706 229.53403621246812 C453.6868543576511 227.09982145083754, 454.3951524526529 224.88612310723863, 455.73371603180317 220.3963800275576" stroke="undefined" stroke-width="2" fill="none"></path></g><g><path d="M469.91287084732926 247.23002404375237 C473.2609513811999 246.3286737177714, 476.83802038552216 243.92072823680255, 478.6842259113643 243.46968785604574 M470.02325115956916 247.3859928570073 C473.21194657339913 245.3765686797761, 477.0775059350746 244.7603911650076, 479.632088180432 243.09947152536992" stroke="undefined" stroke-width="2" fill="none"></path></g><g><path d="M118.29974301439539 248.92975500463143 C135.63387974226052 251.2263140215828, 151.69906005698886 251.9776858942738, 188.90026336388934 248.85895446829542 M120.50748895642991 250.28477419360254 C145.30484847841308 248.94237642277747, 170.83244465838288 249.37501305277473, 189.5520285571655 249.9350710865764" stroke="#000000" stroke-width="2" fill="none"></path></g><g><path d="M180.51280636020465 244.06822523751413 C183.7241803078609 247.15510797864104, 187.6355297936032 247.78024145941157, 190.2061489687632 250.15869784846726 M179.9694694051758 244.81020541721418 C182.65163509069365 246.39811478541014, 185.69934729263596 248.07880624819245, 190.4361382362157 249.89403907734481" stroke="#000000" stroke-width="1.5" fill="none"></path></g><g><path d="M180.0799552288245 256.1124478614672 C181.8051723555514 252.46991727878336, 186.1710141089466 252.80580131745825, 189.5679472586349 250.09618181687708 M179.81186378924264 254.67223112569138 C182.6172210503439 253.34668344477586, 184.51399251433858 252.30003821959724, 190.072177455152 249.84230774361887" stroke="#000000" stroke-width="1.5" fill="none"></path></g><g><path d="M491.2632741454302 261.8797591627472 C508.9766636812515 261.4289028573908, 530.7097483412599 259.74719930273665, 570.1567368463693 258.687652384354 M490.8305336497806 260.3235982515674 C514.5013920175986 259.9478513949081, 539.4535454221076 260.436911189207, 569.6914546499136 259.81298898003035" stroke="undefined" stroke-width="2.5" fill="none"></path></g><g><path d="M559.3205474604912 255.14592011541876 C561.7049653803995 256.88020023314414, 564.4278651493727 257.5587119063193, 569.7228969883118 261.05749252575555 M560.3399936448171 254.99864369119717 C563.4716565624736 255.93562504500179, 565.4453697975384 257.4136350650809, 569.8180625688187 259.80729653844094" stroke="undefined" stroke-width="2" fill="none"></path></g><g><path d="M560.4560750186826 265.9603318485751 C564.3857278647968 263.07128310481687, 567.4053008232248 260.15467860507346, 570.168635491143 259.4067142560208 M560.1396178867459 265.20924336949054 C562.3631050423713 263.8674891447388, 565.1954026162167 262.39605458546623, 570.2681377739673 259.87632922194786" stroke="undefined" stroke-width="2" fill="none"></path></g><g><path d="M276.52676744827147 156.90523301299908 C276.52676744827147 156.90523301299908, 276.52676744827147 156.90523301299908, 276.52676744827147 156.90523301299908 M276.52676744827147 156.90523301299908 C276.52676744827147 156.90523301299908, 276.52676744827147 156.90523301299908, 276.52676744827147 156.90523301299908 M277.6411500929163 163.53077084406547 C279.5023136790538 161.6543352234109, 281.426959917622 158.7169685628028, 282.8470396323836 157.27919100225677 M276.7458956616024 163.64899141000916 C278.87703088033646 161.68101129356214, 280.7465569559857 159.4767289035131, 282.43624368988554 157.56964863872747" stroke="none" stroke-width="0.6" fill="none"></path><path d="M279.7347634858109 156.86420935177182 C280.3762048979486 156.94493425274234, 281.0714284775623 156.95453447608398, 281.8283814158717 157.18509666681354 C282.58533435418116 157.4156588575431, 283.91004652778673 157.59909366437998, 284.27648111566754 158.2475824961491 C284.64291570354834 158.89607132791824, 284.56137802491116 160.32313088563677, 284.02698894315665 161.07602965742825 C283.49259986140214 161.82892842921973, 281.95920653595545 162.26111278472436, 281.0701466251405 162.7649751268979 C280.1810867143256 163.26883746907143, 279.37584855498307 164.01312518842587, 278.69262947826707 164.09920371046945 C278.00941040155107 164.18528223251303, 277.55785037599617 164.06732059646993, 276.97083216484447 163.2814462591593 C276.38381395369277 162.4955719218487, 275.23430931767405 160.458418591785, 275.1705202113569 159.38395768660584 C275.1067311050398 158.30949678142667, 275.75521122431155 157.31482344638027, 276.5880975269418 156.83468082808437 C277.42098382957204 156.35453820978847, 279.57391238800767 156.51509590390214, 280.1678380271384 156.50310197683035 C280.7617636662691 156.49110804975857, 280.02085853025244 156.69869617732041, 280.15165136172595 156.7627172656537 M279.2408158014227 155.97559828451512 C279.96324417592893 155.46917415130468, 279.35723347292515 154.832266194201, 279.9139570507555 155.25238360253582 C280.4706806285859 155.67250101087063, 281.96577177657616 157.55869676220055, 282.581157268405 158.49630273452408 C283.1965427602338 159.4339087068476, 283.59102527652044 159.9162343939175, 283.60627000172826 160.87801943647705 C283.6215147269361 161.8398044790366, 282.97944113115597 163.82663124612512, 282.6726256196519 164.26701298988138 C282.36581010814785 164.70739473363764, 282.4001372493458 163.7595028762811, 281.76537693270404 163.52030989901465 C281.1306166160623 163.2811169217482, 279.77055176496714 163.44433247591127, 278.86406371980144 162.83185512628276 C277.95757567463573 162.21937777665426, 276.76892084080333 160.67175949842317, 276.3264486617097 159.8454458012437 C275.8839764826161 159.01913210406423, 275.71583228439636 158.69109453273327, 276.20923064523976 157.8739729432059 C276.70262900608316 157.05685135367852, 279.1045320012272 155.34686395880658, 279.28683882677024 154.94271626407945 C279.4691456523133 154.53856856935232, 277.31450152550786 155.16077001082772, 277.30307159849804 155.4490867748431" stroke="undefined" stroke-width="1.2" fill="none"></path></g><g><path d="M307.13836272240655 157.01522694122642 C307.13836272240655 157.01522694122642, 307.13836272240655 157.01522694122642, 307.13836272240655 157.01522694122642 M307.13836272240655 157.01522694122642 C307.13836272240655 157.01522694122642, 307.13836272240655 157.01522694122642, 307.13836272240655 157.01522694122642 M308.9380308152173 163.7630442045576 C309.92956855738333 161.29107066918064, 310.28053849388823 161.0188546837552, 312.48868616912944 157.5316198551701 M308.0618878758796 163.08142561979125 C309.6406711903368 161.91029211852816, 311.2468637639309 160.1138863644441, 313.1705330639353 158.00460479585078" stroke="none" stroke-width="0.6" fill="none"></path><path d="M309.1339709110951 155.68477384904762 C309.882868857685 155.33884174888135, 311.0218042325677 155.01973336389935, 311.7971976664284 155.5895220064429 C312.5725911002891 156.15931064898646, 313.4391985583862 158.02672571568434, 313.7863315142592 159.10350570430893 C314.1334644701322 160.18028569293352, 314.1585542416 161.20679602217663, 313.8799954016665 162.05020193819053 C313.60143656173307 162.89360785420442, 312.6750196682689 163.70834802383075, 312.1149784746584 164.16394120039234 C311.55493728104796 164.61953437695394, 311.2378922442295 165.0098312817655, 310.51974824000393 164.78376099756017 C309.80160423577837 164.55769071335482, 308.6864197694599 163.45890000481756, 307.806114449305 162.8075194951602 C306.92580912915014 162.15613898550282, 305.3825854570588 161.8024639745167, 305.2379163190747 160.87547793961596 C305.09324718109065 159.9484919047152, 306.09028866514484 158.10082682043603, 306.9380996214007 157.24560328575572 C307.7859105776565 156.39037975107541, 309.70003536438634 155.93571104726686, 310.3247820566096 155.7441367315341 C310.94952874883285 155.55256241580133, 310.8068410995246 156.04748580906193, 310.68657977474027 156.09615739135904 M309.4386633994949 156.19650891247628 C309.9441527850272 155.872684723848, 310.24147200205095 154.9930051454827, 311.09120290380486 155.03148660784387 C311.94093380555876 155.06996807020505, 313.8207171266233 155.54248443282683, 314.53704881001846 156.42739768664325 C315.2533804934136 157.31231094045967, 315.598939270189 159.48535936463762, 315.3891930041757 160.34096613074232 C315.17944673816237 161.19657289684702, 314.11740651049655 161.03491319433698, 313.2785712139384 161.5610382832714 C312.43973591738023 162.0871633722058, 311.52361476962835 163.3179157015299, 310.3561812248267 163.49771666434884 C309.188747680025 163.6775176271678, 307.0287077467241 162.9784749331098, 306.2739699451283 162.639844060185 C305.51923214353246 162.3012131872602, 305.9879211874229 162.2926681918166, 305.827754415252 161.46593142680015 C305.6675876430811 160.6391946617837, 304.8668510989204 158.43767563009607, 305.31296931210284 157.67942347008625 C305.7590875252853 156.92117131007643, 307.8734781346624 156.9381605032546, 308.5044636943465 156.9164184667413 C309.1354492540306 156.894676430228, 309.02963685774625 157.448292498933, 309.0988826702074 157.54897125100646" stroke="undefined" stroke-width="1.2" fill="none"></path></g><g><path d="M338.6322862773038 155.24219115562283 C338.6322862773038 155.24219115562283, 338.6322862773038 155.24219115562283, 338.6322862773038 155.24219115562283 M338.6322862773038 155.24219115562283 C338.6322862773038 155.24219115562283, 338.6322862773038 155.24219115562283, 338.6322862773038 155.24219115562283 M339.1194036799775 163.49102620347335 C340.5018729719821 161.76690467428193, 340.67960331408113 160.2071088904317, 343.8486817798417 157.60505993974482 M338.45039127048875 162.81429732806248 C339.84190285008066 161.34252969356197, 341.6930252341272 159.33078601331366, 343.33030720402456 156.8249994313967" stroke="none" stroke-width="0.6" fill="none"></path><path d="M341.1558124987332 155.36021119616984 C341.88301415128086 155.54591512764404, 343.7910633378995 156.88177882245338, 344.0758990037912 157.90087596174894 C344.3607346696829 158.9199731010445, 343.20744418580256 160.64916432206027, 342.86482649408345 161.47479403194313 C342.52220880236433 162.300423741826, 342.3885441295381 162.56880127115755, 342.02019285347666 162.8546542210461 C341.6518415774152 163.14050717093465, 341.2529513861138 163.24850633285124, 340.65471883771465 163.18991173127446 C340.0564862893155 163.1313171296977, 339.22358648444197 162.83562552333365, 338.4307975630816 162.50308661158542 C337.6380086417213 162.1705476998372, 336.22500687725073 161.89475680653896, 335.89798530955267 161.19467826078503 C335.5709637418546 160.4945997150311, 335.9933494231102 159.3172459344372, 336.46866815689316 158.30261533706172 C336.9439868906761 157.28798473968624, 337.86627772824767 155.2834301412401, 338.7498977122505 155.1068946765321 C339.63351769625336 154.9303592118241, 341.3413263840866 156.8942665633684, 341.7703880609103 157.2434025488138 C342.199449737734 157.5925385342592, 341.17611658881947 157.2898500956623, 341.32426777319273 157.2017105892045 M341.97284331647046 156.25775177357843 C343.08288555185794 156.76088624325115, 344.3658097018444 158.50081155728395, 344.55257124194503 159.1799905591419 C344.73933278204566 159.85916956099987, 343.42217543109473 159.87026936722728, 343.0934125570742 160.33282578472614 C342.7646496830537 160.795382202225, 343.031006098157 161.40274314489037, 342.5799939978219 161.95532906413501 C342.12898189748677 162.50791498337966, 341.44468293773633 163.58077559375315, 340.3873399550636 163.64834130019406 C339.3299969723909 163.71590700663498, 336.92055779562116 163.05105720570214, 336.23593610178557 162.36072330278049 C335.55131440795 161.67038939985883, 336.2559055449897 160.4924593375219, 336.27960979205017 159.50633788266424 C336.30331403911066 158.5202164278066, 336.08245133170163 157.08228338590627, 336.3781615841485 156.44399457363465 C336.6738718365953 155.80570576136304, 337.15010121412257 155.59981691512377, 338.0538713067312 155.67660500903452 C338.9576413993398 155.75339310294527, 341.2313160644461 156.87187244783317, 341.80078213980033 156.90472313709918 C342.37024821515456 156.9375738263652, 341.3461493429174 155.9597889116481, 341.47066775885673 155.87370914463065" stroke="undefined" stroke-width="1.2" fill="none"></path></g><g><path d="M366.8042873649962 155.8815041986195 C366.8042873649962 155.8815041986195, 366.8042873649962 155.8815041986195, 366.8042873649962 155.8815041986195 M366.8042873649962 155.8815041986195 C366.8042873649962 155.8815041986195, 366.8042873649962 155.8815041986195, 366.8042873649962 155.8815041986195 M366.8365021767148 162.65434784030995 C369.38257808892683 161.16519521550828, 370.1128730829377 159.50258181437007, 373.4516973274337 156.07907489561168 M366.96165791419736 162.82057823899385 C368.5633125647756 160.75792724754047, 370.21357995461494 159.09315434760452, 372.9291355415059 156.298720047718" stroke="none" stroke-width="0.6" fill="none"></path><path d="M370.2431681893285 156.6598068750141 C371.11052574338703 156.65168528448223, 372.4021757280201 156.04532713623342, 372.87457611769247 156.5010450533815 C373.34697650736484 156.95676297052955, 372.97240988183745 158.51717566470535, 373.0775705273628 159.39411437790255 C373.18273117288817 160.27105309109976, 373.66783082938423 161.00041411227113, 373.5055399908447 161.76267733256472 C373.34324915230513 162.5249405528583, 372.74085028970677 163.5962712935484, 372.1038254961256 163.9676936996641 C371.4668007025444 164.3391161057798, 370.58179855412504 164.1884122714039, 369.68339122935754 163.991211769259 C368.78498390459004 163.7940112671141, 367.3947831342764 163.52688370470833, 366.7133815475207 162.78449068679467 C366.03197996076506 162.042097668881, 365.63030746385357 160.6292845805155, 365.59498170882335 159.53685366177703 C365.55965595379314 158.44442274303856, 365.868710496101 156.9389577781035, 366.5014270173393 156.22990517436392 C367.13414353857763 155.52085257062436, 368.7195233213848 155.3983780010586, 369.39128083625315 155.2825380393397 C370.06303835112146 155.1666980776208, 370.4937915553137 155.47860821896938, 370.53197210654935 155.53486540405055 M369.5540519865156 155.46639552524533 C370.4291621200563 155.504858369542, 371.5186706182425 157.56407683188002, 372.13907304674257 158.264825144333 C372.75947547524265 158.965573456786, 373.2576088865532 159.08613048629903, 373.27646655751624 159.6708853999633 C373.2953242284793 160.2556403136276, 372.73255077192493 161.10296725347854, 372.2522190725207 161.77335462631873 C371.77188737311644 162.44374199915893, 371.2942289197881 163.24943596182763, 370.39447636109077 163.69320963700454 C369.4947238023934 164.13698331218146, 367.6113710936563 164.72813063474126, 366.85370372033657 164.43599667738022 C366.0960363470168 164.14386272001917, 366.16403954685717 162.76019641140402, 365.8484721211723 161.94040589283833 C365.5329046954874 161.12061537427263, 364.6587470083251 160.24788494691552, 364.96029916622734 159.51725356598607 C365.26185132412957 158.78662218505661, 366.8467222509541 158.00755117259285, 367.6577850685857 157.55661760726153 C368.46884788621736 157.1056840419302, 369.09889866431877 157.22397276685757, 369.82667607201705 156.81165217399808 C370.55445347971533 156.3993315811386, 372.11032401400234 155.18319432200755, 372.0244495147753 155.08269405010452" stroke="undefined" stroke-width="1.2" fill="none"></path></g><g><path d="M398.3309362977021 155.4619291432838 C398.3309362977021 155.4619291432838, 398.3309362977021 155.4619291432838, 398.3309362977021 155.4619291432838 M398.3309362977021 155.4619291432838 C398.3309362977021 155.4619291432838, 398.3309362977021 155.4619291432838, 398.3309362977021 155.4619291432838 M396.8301745929316 163.49161431951873 C398.646919249687 163.05498043022132, 399.6216297986587 161.35311460804627, 402.56961699578284 158.9606964289274 M397.2847466406808 163.92394922434704 C398.58691285810585 162.87455836348366, 400.14935518300786 161.34855899972217, 402.2995599391552 158.81566316760725" stroke="none" stroke-width="0.6" fill="none"></path><path d="M398.20242106260304 155.60976900958835 C398.92557856511553 155.36523333011888, 399.7900197676215 156.74238098264306, 400.62722869345185 157.06400516878503 C401.4644376192822 157.385629354927, 402.78310045543276 156.8249134029623, 403.2256746175851 157.53951412644017 C403.6682487797375 158.25411484991804, 403.46359909591683 160.56690351213103, 403.28267366636607 161.35160950965226 C403.1017482368153 162.1363155071735, 402.63641576500027 161.88431091495565, 402.14012204028046 162.24775011156748 C401.64382831556065 162.61118930817932, 401.2303542104487 163.33371937480263, 400.3049113180472 163.53224468932333 C399.37946842564565 163.73077000384404, 397.3741637230462 163.84056383059223, 396.5874646858713 163.43890199869182 C395.80076564869637 163.0372401667914, 395.67176070954565 161.98867137980938, 395.58471709499776 161.12227369792086 C395.49767348044986 160.25587601603235, 395.4107112808432 159.03076477505107, 396.06520299858397 158.24051590736082 C396.71969471632474 157.45026703967056, 398.53508992768354 156.84994570744757, 399.51166740144237 156.38078049177935 C400.4882448752012 155.91161527611112, 401.80418811639015 155.34163481960871, 401.92466784113674 155.42552461335143 M400.252248215063 155.0598357447075 C401.13289429247965 154.94876627230593, 401.0469691487237 155.7172134869563, 401.371599643998 156.1638656494244 C401.69623013927236 156.6105178118925, 401.8412473035018 156.88041697785476, 402.2000311867091 157.73974871951606 C402.5588150699164 158.59908046117735, 403.5604008405185 160.34944549255752, 403.52430294324193 161.31985609939215 C403.48820504596534 162.2902667062268, 402.7961402303607 162.92305742556974, 401.9834438030495 163.56221236052392 C401.1707473757383 164.2013672954781, 399.4500779789155 165.0596230169078, 398.6481243793748 165.15478570911725 C397.8461707798341 165.2499484013267, 397.5560083707793 164.6806977609507, 397.1717222058053 164.13318851378054 C396.78743604083127 163.58567926661038, 396.65966104346893 163.06368002822683, 396.34240738953065 161.8697302260964 C396.02515373559237 160.675780423966, 394.9893603102163 157.96612221718763, 395.26820028217566 156.96948970099803 C395.547040254135 155.97285718480842, 397.59632635160574 155.91288127209154, 398.01544722128693 155.88993512895883 C398.4345680909681 155.8669889858261, 397.38181244053857 156.92302827970326, 397.7829255002628 156.83181284220177" stroke="undefined" stroke-width="1.2" fill="none"></path></g><g><path d="M331.9846879651203 356.9217157027799 C333.641159295878 360.82952996624823, 334.1849488096357 365.58198228658244, 340.2232111947062 375.48240594302416 M329.99009505035906 355.77365526167426 C333.24051474545513 361.93261079011717, 335.4161087472379 366.44552114911136, 339.5594867556624 374.8110750460808" stroke="#000000" stroke-width="1.5" fill="none"></path></g><g><path d="M340.9985791470869 374.06945601383563 C343.0755113170833 372.60409568375087, 345.4031949302113 369.90009396267914, 348.7602344143804 363.67191186240586 M339.3917318878827 375.6560776850869 C343.67462416577587 371.99125688719596, 345.5632165597261 369.2917272678987, 349.57307416588077 364.76719644899805" stroke="#000000" stroke-width="1.5" fill="none"></path></g><g><path d="M349.06873638191405 364.9362732513089 C353.11175001641317 367.5901756834012, 358.5804725245228 372.0745272779498, 359.7427531890561 373.79201615085844 M349.3616852042641 364.973433038348 C353.96895701212844 368.45175927801995, 357.7350239251881 371.4599328228409, 359.97566586371084 374.70982642634976" stroke="#000000" stroke-width="1.5" fill="none"></path></g><g><path d="M361.74325719107196 376.8127292512167 C364.7844158452006 369.9019285798572, 367.69688522498717 361.63187021395504, 368.5293520532982 354.00376908867577 M359.50519193521876 374.3305898984076 C363.4935854949125 369.181689237674, 366.4233417990983 362.6156136126596, 370.7582705139404 354.9902767720845" stroke="#000000" stroke-width="1.5" fill="none"></path></g><text x="400" y="560" text-anchor="middle" font-family="sans-serif" font-size="16" fill="#222" font-style="italic">If it requires heroism to function, you haven't finished the design.</text></svg>