<?xml version="1.0" encoding="UTF-8"?>
<svg width="800" height="600" viewBox="0 0 800 600" xmlns="http://www.w3.org/2000/svg"><rect width="800" height="600" fill="#FFFFFF"></rect><g><path d="M239.7703036866625 232.27937899726342 C239.7703036866625 232.27937899726342, 239.7703036866625 232.27937899726342, 239.7703036866625 232.27937899726342 M239.7703036866625 232.27937899726342 C239.7703036866625 232.27937899726342, 239.7703036866625 232.27937899726342, 239.7703036866625 232.27937899726342 M234.65119411327382 249.89420335253791 C238.71369015359062 242.9275253931708, 243.41730135059936 240.22439703189553, 251.24074369957495 229.8695957695984 M236.55746411913057 248.0043489264794 C238.79275805263947 245.15334199650079, 243.56517083388093 240.49974508344948, 251.77029691509068 231.46937782252235 M236.72311079952183 261.6873866023658 C241.8529401631056 253.9949367515983, 246.1372568878375 246.93738280279268, 260.51385559159246 232.45558795422588 M235.8825542810069 261.37018234238246 C241.0964685314647 253.7718883282759, 247.04859034270225 247.93539122262618, 260.01892755931965 233.26588914063765 M239.88689297471643 265.3709863417294 C250.09948959895686 255.40518851747927, 259.4789713077286 245.77263816858587, 268.4350220501089 237.38087566991138 M240.8447863703155 267.16134578455416 C251.72767833724987 254.31831170679783, 261.0925782652232 244.15330235619027, 267.5371098165449 237.7696732564459 M248.1956800489915 272.6501661409025 C255.0228336271237 261.681291922924, 263.02314230887293 251.31646144588672, 271.7500626602026 243.79536613728942 M246.9721832007308 273.69382707473915 C252.1137782648522 266.17774121316353, 256.57346024572 260.89903067117876, 269.85329952985745 245.28847560044474" stroke="none" stroke-width="1" fill="none"></path><path d="M250.9986897397104 230.15115060560936 C255.08761044688208 230.05934283026275, 260.93503109341265 231.7471511570902, 263.92765207250665 234.68213210350322 C266.92027305160065 237.61711304991624, 268.59623692225296 243.21121249171324, 268.95441561427435 247.76103628408745 C269.31259430629575 252.31086007646167, 268.56061681941816 258.39709580845783, 266.07672422463486 261.9810748577484 C263.59283162985156 265.565053907039, 258.152417608265 268.24826287576946, 254.05106004557462 269.26491057983077 C249.94970248288422 270.2815582838921, 244.95714252917404 269.831266804838, 241.46857884849243 268.08096108211635 C237.98001516781082 266.3306553593947, 234.94271608846162 262.7039857970298, 233.11967796148494 258.76307624350096 C231.29663983450826 254.8221666899721, 229.44358903343323 248.82451726336518, 230.53035008663224 244.43550376094316 C231.61711113983125 240.04649025852115, 235.52201946479198 234.7662740524659, 239.640244280679 232.42899522896883 C243.75846909656605 230.09171640547177, 251.797402662233 230.28319905919471, 255.2396989819545 230.41183081996078 C258.68199530167595 230.54046258072685, 260.30311966427325 232.83534606515136, 260.29402219900794 233.20078579356533 M259.05433550975704 230.18789642367082 C262.38479370447584 231.5503303802041, 264.806747911941 237.4566446953525, 266.19109946522116 241.4082996687385 C267.5754510185013 245.35995464212448, 268.3580389230103 249.72708996308197, 267.360444829438 253.89782626398667 C266.36285073586566 258.0685625648914, 263.3901489874717 263.85157504608577, 260.2055349037872 266.43271747416674 C257.02092082010273 269.0138599022477, 252.02540229356725 269.88699695341006, 248.25276032733115 269.3846808324723 C244.48011836109504 268.8823647115346, 240.46660580699972 266.1519579903513, 237.56968310637063 263.4188207485404 C234.67276040574154 260.68568350672945, 231.51380316716933 257.21600575694214, 230.87122412355657 252.98585738160656 C230.22864507994382 248.755709006271, 231.43587253484006 241.74612226293047, 233.71420884469404 238.03793049652685 C235.99254515454803 234.32973873012324, 240.55206025226997 231.89649960398933, 244.54124198268048 230.73670678318481 C248.53042371309098 229.5769139623803, 255.2558485993349 231.0423632046996, 257.6492992271571 231.07917357169984 C260.04274985497926 231.11598393870008, 258.930001535855 230.67060869532602, 258.90194574961345 230.95756898518636" stroke="#4A90D9" stroke-width="2" fill="none"></path></g><g><path d="M246.35796246995488 245.95602137093093 C246.35796246995488 245.95602137093093, 246.35796246995488 245.95602137093093, 246.35796246995488 245.95602137093093 M246.35796246995488 245.95602137093093 C246.35796246995488 245.95602137093093, 246.35796246995488 245.95602137093093, 246.35796246995488 245.95602137093093 M247.50065617354676 252.98849498780478 C249.89127536710575 251.94713011349003, 250.3038287800299 249.73083093069732, 253.27028237219517 247.24991368678215 M248.51288765061662 252.76315601342316 C249.79089487162244 251.1448091565858, 250.98076881596617 249.8401623101167, 253.78130742851837 246.88556306762877" stroke="none" stroke-width="0.75" fill="none"></path><path d="M248.6277888970218 245.16135618615556 C249.58969241895633 245.076170019267, 251.92362441859774 245.07545186106708, 253.00562261468048 245.80221704872443 C254.0876208107632 246.52898223638178, 254.7481945697933 248.42048851180263, 255.11977807351815 249.52194731209966 C255.491361577243 250.62340611239668, 255.79083556457513 251.44580525498387, 255.23512363702952 252.41096985050652 C254.6794117094839 253.37613444602917, 252.77312371241828 255.0864478313125, 251.7855065082445 255.3129348852355 C250.79788930407074 255.5394219391585, 250.15588380745967 254.2631174616076, 249.3094204119869 253.76989217404446 C248.46295701651414 253.2766668864813, 247.5381687451955 253.0188207191606, 246.70672613540796 252.35358315985656 C245.87528352562043 251.6883456005525, 244.42909270019 250.78697785232976, 244.32076475326173 249.77846681822027 C244.21243680633344 248.76995578411078, 245.1046503602251 247.04291266300564, 246.05675845383828 246.3025169551996 C247.00886654745148 245.56212124739355, 249.39010432083126 245.3952691274892, 250.03341331494087 245.33609257138397 C250.6767223090505 245.27691601527874, 250.07273014886894 245.8944255785037, 249.91661241849604 245.94745761856817 M251.57935171238375 244.75842782697615 C252.49026839719335 245.08224405180547, 254.50443507991244 247.7753231158074, 254.7822397786194 248.8261520179573 C255.0600444773264 249.8769809201072, 253.56381090716982 250.0365884873828, 253.2461799046256 251.0634012398756 C252.92854890208136 252.09021399236838, 253.3757684646969 254.52514038461112, 252.87645376335402 254.9870285329141 C252.37713906201114 255.4489166812171, 251.18611641111914 253.90895642064163, 250.25029169656827 253.83473012969353 C249.3144669820174 253.76050383874542, 247.87915082254207 255.10287811624028, 247.26150547604868 254.54167078722554 C246.6438601295553 253.9804634582108, 246.84053383611257 251.37084126393276, 246.54441961760787 250.46748615560514 C246.24830539910317 249.56413104727753, 245.32719378173033 249.9269336492696, 245.48482016502058 249.12154013725979 C245.64244654831083 248.31614662524996, 246.47306381363882 246.43804851939748, 247.49017791734934 245.6351250835462 C248.50729202105987 244.83220164769492, 250.89828841441144 244.27142619393766, 251.58750478728382 244.30399952215205 C252.2767211601562 244.33657285036645, 251.71460794722663 245.34503119766597, 251.62547615458357 245.8305650528326" stroke="#4A90D9" stroke-width="1.5" fill="none"></path></g><g><path d="M287.3295532528304 249.92423679704478 C292.2056577690669 250.24483353881615, 295.6760657078715 250.32572567944456, 297.577153424253 250.88592776094916 M288.36480286219876 250.49955648159184 C290.32048063493687 250.24374986784744, 292.3556395013958 250.10127555504994, 298.4867688030771 249.92434799116546" stroke="#4A90D9" stroke-width="2" fill="none"></path></g><g><path d="M276.3103001685441 276.81960284703536 C278.95323656366816 278.4654060861852, 281.10982298092983 280.51909926301124, 283.47383491262167 284.1496972883894 M277.08680346019736 277.1585986765574 C279.45436052183646 279.152840546899, 281.71472930488187 281.7925636745814, 283.65469695294854 284.02195224963265" stroke="#4A90D9" stroke-width="2" fill="none"></path></g><g><path d="M250.95248899452204 288.4768243274855 C250.86172608627953 290.5897304012073, 250.38177987248957 293.24011939845593, 249.23958044286977 298.4959485711649 M250.36226499036073 287.9610360672381 C249.59394559595464 290.16156532571284, 250.25202846419987 291.95839334062816, 249.67421502059855 297.7317724647966" stroke="#4A90D9" stroke-width="2" fill="none"></path></g><g><path d="M223.71291522743675 275.87101468010724 C219.98208878391586 280.14252659090937, 218.23177273152487 281.8351906654193, 215.09519125406302 284.81031340048645 M223.11213412630326 276.962975876407 C221.22516630764343 278.58871790201863, 219.6257380270509 280.4403128493961, 216.51720404491113 283.5960503925131" stroke="#4A90D9" stroke-width="2" fill="none"></path></g><g><path d="M211.73667993997802 250.61854443643654 C209.6616627931907 249.72960484676793, 206.53903213436755 249.2296649853456, 202.60931057919547 250.45058202489417 M212.1950592552352 250.0935354683927 C208.566073896172 250.2739181549882, 204.13754411295437 250.15930055922004, 201.57186945597363 250.10008510899257" stroke="#4A90D9" stroke-width="2" fill="none"></path></g><g><path d="M223.12824908047537 222.52594269663769 C220.62780095423875 219.7480608458583, 218.9169361570797 218.75351189529073, 215.88816549397833 216.68471228820556 M222.8096315785343 223.12344617164885 C220.11278057675327 220.1214896991238, 217.7772460232582 218.3251289658173, 215.5868722881684 215.5596788044103" stroke="#4A90D9" stroke-width="2" fill="none"></path></g><g><path d="M250.771029249029 212.21256881402778 C249.8949311373051 209.47246067594645, 249.53300382931707 205.79429690905258, 250.5274702666552 202.60909452031552 M250.17715200727386 212.01935795368144 C249.91336549457404 210.2696379434305, 249.7495168841734 208.15702472747338, 250.2801925839001 202.40972086494193" stroke="#4A90D9" stroke-width="2" fill="none"></path></g><g><path d="M275.90647128086374 223.30375158022568 C278.81255975404787 220.45821874360828, 281.50944978172595 218.8912246753211, 284.28847251560376 216.75520174503336 M277.01183262464974 223.20971015433472 C278.87265781164285 220.79575947058095, 280.977238108558 218.94806309850156, 283.91496893179726 216.4551672451467" stroke="#4A90D9" stroke-width="2" fill="none"></path></g><g><path d="M423.9981378849219 253.2998277007918 C423.9981378849219 253.2998277007918, 423.9981378849219 253.2998277007918, 423.9981378849219 253.2998277007918 M423.9981378849219 253.2998277007918 C423.9981378849219 253.2998277007918, 423.9981378849219 253.2998277007918, 423.9981378849219 253.2998277007918 M425.81050430993446 264.6991714015472 C429.290553086922 257.6021309927821, 437.04301012452004 254.51611417061784, 441.91081415954966 244.48826938013013 M423.3585955665308 265.57364600451643 C430.7974744663695 258.5159100058537, 436.0484169601801 251.89554509524996, 442.2027395734598 243.33473352266395 M428.9737104782606 270.73872052376396 C433.3170146795125 266.58707173184115, 439.2018306426064 263.03738062179775, 448.8832364350239 249.2173665215974 M427.9136871756249 271.53504888835454 C433.9188427247193 265.43594961336765, 440.5728728218879 258.4746653746303, 450.198176580668 247.76232477941215 M437.0258158380911 275.562127838552 C441.756246979611 268.68083575289165, 449.37042365587024 264.1498793231069, 457.61054023476675 251.78301728212028 M435.29055875948364 276.1200357605245 C441.6607859825234 270.08320016760433, 447.1324005565451 263.6187749194149, 456.72309348701515 252.8450352381397 M448.2304834621884 273.64518737684665 C450.76369509639994 270.69061386362665, 451.9780262606487 269.7496009948803, 459.9303109895876 261.2515199594419 M448.76282614567515 273.5793373880227 C452.02504709036185 269.5534818086181, 456.8974979244029 264.3552529502399, 459.2309437483555 262.5264743401597" stroke="none" stroke-width="1" fill="none"></path><path d="M443.56994125683894 243.12777411850672 C447.0434440087789 244.00686470490348, 451.6609263273847 247.71713236465234, 454.127357111547 250.75751675068355 C456.5937878957093 253.79790113671476, 458.6284764572246 257.88473129184433, 458.3685259618126 261.370080434694 C458.1085754664006 264.85542957754365, 455.3661261644972 269.1858254520192, 452.5676541390749 271.66961160778135 C449.76918211365256 274.1533977635435, 445.3864302213119 275.8366675517997, 441.5776938092787 276.27279736926704 C437.76895739724546 276.7089271867344, 432.8462040456871 276.3360532684436, 429.71523566687534 274.28639051258546 C426.5842672880636 272.2367277567273, 423.78866807621654 267.4220399709075, 422.79188353640825 263.97482083411825 C421.79509899659996 260.527601697329, 422.19684321190806 256.6437183932983, 423.73452842802567 253.6030756918498 C425.2722136441433 250.5624329904013, 428.3122563144176 247.4312388522322, 432.0179948331139 245.73096462542725 C435.7237333518102 244.03069039862228, 443.78173371193725 243.6667126161171, 445.96895954020334 243.40143033101998 C448.15618536846944 243.13614804592285, 445.28911389343233 243.69542781230336, 445.1413498027106 244.13927091484447 M447.7533473205261 244.48940736089554 C451.01722136904306 245.88004601203914, 455.5466711686821 249.57131706252736, 457.11269928787084 252.82655950626798 C458.67872740705957 256.0818019500086, 458.3158003547088 260.5317387788334, 457.1495160356583 264.02086202333925 C455.98323171660775 267.5099852678451, 453.4881973760303 271.77500018783707, 450.11499337356776 273.7612989733028 C446.7417893711052 275.74759775876856, 440.53894982502834 276.47421414445705, 436.91029202088305 275.9386547361337 C433.28163421673776 275.4030953278103, 430.9567781065541 272.9404525244255, 428.3430465486962 270.5479425233627 C425.72931499083825 268.15543252229986, 421.4365471955915 264.8748845290497, 421.2279026737356 261.58359472975684 C421.01925815187974 258.29230493046396, 424.8725699268802 253.9408448542298, 427.0911794175609 250.80020372760555 C429.3097889082416 247.6595626009813, 431.0479142667832 243.46423498184853, 434.53955961782 242.7397479700113 C438.03120496885674 242.01526095817408, 445.7067079611844 246.00416255666505, 448.0410515237815 246.45328165658225 C450.3753950863786 246.90240075649945, 448.828637386111 245.39209956855956, 448.54562099340257 245.43446256951444" stroke="#4A90D9" stroke-width="2" fill="none"></path></g><g><path d="M436.69203499539805 259.0344121367372 C436.69203499539805 259.0344121367372, 436.69203499539805 259.0344121367372, 436.69203499539805 259.0344121367372 M436.69203499539805 259.0344121367372 C436.69203499539805 259.0344121367372, 436.69203499539805 259.0344121367372, 436.69203499539805 259.0344121367372 M440.2331176548115 263.96969758843295 C441.0338898760422 262.90298717143, 442.91760393411136 260.6631743653665, 443.9961069826209 258.53838354925637 M439.8694877819052 264.32619547068646 C441.03482465800755 263.3906595668295, 441.99176950380314 262.4603687437101, 444.6559421215713 258.8665156007195" stroke="none" stroke-width="0.75" fill="none"></path><path d="M438.85802944754084 256.8681731822421 C439.8370722554786 256.68665640978907, 441.4742524515778 256.1390402800098, 442.35100936502823 256.38500113716975 C443.22776627847867 256.6309619943297, 443.8733328478543 257.5967706977168, 444.11857092824357 258.3439383252017 C444.36380900863287 259.0911059526866, 443.9946567417822 260.04497380368434, 443.8224378473639 260.8680069020792 C443.65021895294564 261.691040000474, 443.655120644237 262.7221062374433, 443.0852575617339 263.28213691557073 C442.5153944792308 263.84216759369815, 441.49669558288474 264.4359043966572, 440.4032593523454 264.22819097084357 C439.30982312180606 264.02047754502996, 437.26250273609213 262.5303068457988, 436.5246401784979 262.0358563606891 C435.7867776209037 261.54140587557936, 435.9064685486049 261.8097179031003, 435.97608400678007 261.2614880601852 C436.04569946495525 260.71325821727004, 436.2431906257166 259.76289370555514, 436.9423329275489 258.7464773031982 C437.6414752293812 257.7300609008413, 439.52032330454097 255.46918497398423, 440.1709378177739 255.16298964604363 C440.82155233100684 254.85679431810303, 440.89947346655214 256.7363768294862, 440.84602000694633 256.90930533555456 M440.30683435277194 256.763846536966 C441.04200444745743 256.47629940429306, 441.9844713138626 255.60602635746997, 442.7010784945543 256.3309354279176 C443.41768567524593 257.0558444983652, 444.53974370053896 260.1493002445706, 444.6064774369219 261.11330095965184 C444.6732111733049 262.07730167473306, 443.7864421462586 261.68177269089244, 443.1014809128519 262.1149397184049 C442.41651967944523 262.5481067459174, 441.38555793461234 263.75405750708194, 440.49671003648183 263.71230312472665 C439.6078621383513 263.67054874237135, 438.5383214427387 262.3393731654594, 437.76839352406887 261.8644134242733 C436.998465605399 261.38945368308725, 436.00391614999535 261.34727870362366, 435.87714252446284 260.8625446776103 C435.75036889893033 260.3778106515969, 436.5908350023644 259.4986117343704, 437.00775177087394 258.9560092681931 C437.4246685393835 258.4134068020158, 437.6112425779478 258.18501161550495, 438.37864313552035 257.6069298805466 C439.1460436930929 257.02884814558826, 440.9629185621477 255.90460736090515, 441.61215511630917 255.48751885844317 C442.26139167047063 255.0704303559812, 442.52442851774134 255.07856568294332, 442.27406246048923 255.10439886577478" stroke="#4A90D9" stroke-width="1.5" fill="none"></path></g><g><path d="M469.96712811068977 271.36830845519216 C472.68163033570556 273.39208602704105, 476.11734946862833 274.78639072284165, 480.3078820682082 276.59776174826726 M470.85774328961236 272.4559948653778 C472.69865454431283 273.4645421726086, 474.95727280344306 273.81100185534615, 480.3001054208946 275.7273795990625" stroke="#4A90D9" stroke-width="2" fill="none"></path></g><g><path d="M453.7712444899355 291.3675893283501 C454.36638388317766 293.40778803375525, 454.9715202905194 296.11085584409403, 456.18119569963966 300.47081110265015 M452.820442011066 290.36835468910436 C453.3982699924689 292.6108706185662, 454.66025504989756 295.1558462727808, 457.2115004317062 299.1991895815304" stroke="#4A90D9" stroke-width="2" fill="none"></path></g><g><path d="M427.13951663539683 291.2636447814583 C427.4652100958015 293.2550251188558, 425.9943463783858 294.6873580696931, 423.9841255296807 300.7359982323661 M427.23245545683284 290.94486197566215 C426.2274127753501 294.1764796440148, 424.7919598047769 298.37025810834734, 424.0250841959276 299.5763909067361" stroke="#4A90D9" stroke-width="2" fill="none"></path></g><g><path d="M409.5376343585547 273.83845609447354 C406.94581209567957 274.5795773278835, 405.65564227014465 275.05228386793567, 400.82238343960034 276.607755167697 M410.08588414711136 273.2270560042955 C406.2049235024245 273.8137429548717, 403.8333541666068 275.1034759418101, 400.033291188475 276.3731904935474" stroke="#4A90D9" stroke-width="2" fill="none"></path></g><g><path d="M409.1725021553605 248.5579966924341 C406.1961102974507 245.8349007466112, 402.86044795719647 244.72998836386583, 400.0288507337081 243.5394958579566 M409.58664749362646 248.0186589354857 C407.01428594249677 247.2331830407495, 405.8263825629288 246.33406737728058, 400.0923088681516 243.58611441686165" stroke="#4A90D9" stroke-width="2" fill="none"></path></g><g><path d="M427.8519755756416 229.4178255040556 C425.4177201812269 225.7583313298164, 424.27449972227816 223.10314144912968, 423.69417777238766 220.4377709267989 M427.1420746233559 229.8354132215737 C426.1380331475088 227.64823215903243, 425.4356554797265 224.42247657525698, 422.72211780089674 220.66159700769913" stroke="#4A90D9" stroke-width="2" fill="none"></path></g><g><path d="M452.6560369950505 228.43364676063615 C453.86863645268846 227.1593030845411, 455.26656459708187 223.73848321430927, 455.53203193201267 220.0108337023072 M452.3088294781465 229.22409677041938 C453.2738812062431 225.8128360188815, 454.789790331337 222.766394621317, 456.50997996075125 219.76379711990725" stroke="#4A90D9" stroke-width="2" fill="none"></path></g><g><path d="M471.10483589230574 246.54509924363435 C473.1947244364714 246.0795985098958, 474.1269470227639 245.51277931314644, 479.3055343371333 242.34163941546217 M470.793356534621 247.1981106737081 C473.6678330486712 246.1129491019745, 476.89462248121555 244.70031492923513, 479.6744265404076 243.14186738746307" stroke="#4A90D9" stroke-width="2" fill="none"></path></g><g><path d="M119.16527019536584 251.3068923675997 C137.30335805153032 250.67466342304806, 153.0023066086425 249.44516243870297, 189.80763198019025 249.28002201279455 M120.72881081591831 250.67651095647608 C144.25133086077733 250.23483720366391, 168.09940801452584 250.5574511645877, 190.6436168027001 250.70486049211615" stroke="#000000" stroke-width="2" fill="none"></path></g><g><path d="M179.1135158971109 244.13351965599267 C183.6120397771512 245.41304506511102, 185.41740584088564 248.95567121942403, 191.05137453310093 249.0461329232336 M180.53096025897432 245.01451876522808 C183.03849850764496 246.39533566258743, 186.7065636317512 248.26676177588158, 190.48963967606105 250.2480406613797" stroke="#000000" stroke-width="1.5" fill="none"></path></g><g><path d="M180.71884233494143 253.95679645136718 C183.4650447287677 253.92467262236968, 187.03201516853954 252.06999415428368, 190.5869312183492 250.99035674283465 M179.62388414158482 254.89394813265687 C183.46301942170632 253.4493514945117, 186.99627581353374 251.01167507427914, 190.3444553564785 249.7848984174252" stroke="#000000" stroke-width="1.5" fill="none"></path></g><g><path d="M490.06103045727343 260.89416346385104 C511.28181692648764 259.817309346294, 535.5104042531815 258.71919362210474, 568.8269798099922 258.0246367116935 M489.8569849441672 260.5285473287728 C510.6573897568189 260.1394777805903, 528.7024869166173 260.4351427749238, 570.0418929794234 259.9465361220137" stroke="#4A90D9" stroke-width="2.5" fill="none"></path></g><g><path d="M560.2596518262338 254.6011593458279 C562.8967801749961 255.83744784487502, 566.2931511137538 258.3872267582903, 569.4560076930622 260.9383179604651 M560.2130284754393 255.1306940220884 C562.1788312283552 256.4148245148076, 564.9803790789404 257.67475276494525, 569.9419730488057 259.9320384120088" stroke="#4A90D9" stroke-width="2" fill="none"></path></g><g><path d="M560.1234792802345 265.932935478648 C563.352725484676 262.68043521723894, 564.1243860061551 262.481364415285, 569.3723728727898 259.82229997169486 M559.6708663725478 265.47331305796 C562.421617990925 263.4018868676962, 565.4401091575003 261.69910158558287, 570.5271899784948 260.17492127010007" stroke="#4A90D9" stroke-width="2" fill="none"></path></g><g><path d="M276.82202477503847 157.16189629140075 C276.82202477503847 157.16189629140075, 276.82202477503847 157.16189629140075, 276.82202477503847 157.16189629140075 M276.82202477503847 157.16189629140075 C276.82202477503847 157.16189629140075, 276.82202477503847 157.16189629140075, 276.82202477503847 157.16189629140075 M278.70425937451506 162.750423399043 C280.8243478388846 160.41351995093584, 281.4566067679164 158.38658557449503, 282.68374427376295 157.48654456598865 M278.8294809536589 163.04869368370348 C280.1941296775936 160.47306274465936, 282.22729446914155 158.8854107852036, 283.4018429672097 157.4082707840316" stroke="none" stroke-width="0.6" fill="none"></path><path d="M280.49167618554947 156.21025860909788 C281.2879625418822 156.03605258060983, 282.18391078648966 155.78011569696756, 282.68910898923724 156.34665763051154 C283.1943071919848 156.91319956405553, 283.2762071016833 158.5187696898409, 283.52286540203505 159.6095102103618 C283.7695237023868 160.70025073088271, 284.5720067452224 162.33250696613658, 284.16905879134765 162.8911007536371 C283.7661108374729 163.4496945411376, 281.94658337294146 162.8688718009642, 281.1051776787867 162.9610729353648 C280.2637719846319 163.0532740697654, 279.74781659391454 163.72439817151442, 279.120624626419 163.4443075600406 C278.49343265892344 163.1642169485668, 277.8336800676137 161.85730492185297, 277.34202587381355 161.28052926652188 C276.8503716800134 160.7037536111908, 276.29347137263716 160.62855833776945, 276.17069946361784 159.9836536280541 C276.0479275545985 159.33874891833875, 276.0411047139765 157.91667819013782, 276.6053944196977 157.41110100822985 C277.1696841254189 156.90552382632188, 278.9663031367775 157.25510647291856, 279.5564376979451 156.95019053660627 C280.1465722591127 156.645274600294, 280.11975741742555 155.50976277838635, 280.1462017867033 155.58160539035606 M278.5286505722431 157.43243776552237 C279.5716998183716 156.88026691996876, 281.33159855096966 155.31398439372992, 282.1030584379291 155.4915464796486 C282.8745183248886 155.66910856556729, 282.746396736865 157.33883864197674, 283.1574098939998 158.49781028103436 C283.5684230511346 159.656781920092, 284.64912047811106 161.83700048229701, 284.56913738073797 162.4453763139943 C284.4891542833649 163.0537521456916, 283.31553441825923 161.65687762241706, 282.6775113097611 162.14806527121812 C282.03948820126294 162.63925292001917, 281.76653392973316 165.47382791136934, 280.740998729749 165.39250220680063 C279.7154635297648 165.31117650223192, 277.2614276128457 162.4689754574967, 276.524300109856 161.66011104380578 C275.78717260686625 160.85124663011487, 276.38732775507833 161.37724716751137, 276.3182337118107 160.53931572465524 C276.2491396685431 159.7013842817991, 275.888743216082 157.1293318762945, 276.1097358502504 156.63252238666897 C276.3307284844188 156.13571289704345, 277.0259183811191 157.5575104005709, 277.644189516821 157.5584587869021 C278.26246065252286 157.5594071732333, 279.4679192566018 156.63593841462688, 279.8193626644618 156.63821270465624" stroke="#4A90D9" stroke-width="1.2" fill="none"></path></g><g><path d="M305.1633195568183 159.27338709081238 C305.1633195568183 159.27338709081238, 305.1633195568183 159.27338709081238, 305.1633195568183 159.27338709081238 M305.1633195568183 159.27338709081238 C305.1633195568183 159.27338709081238, 305.1633195568183 159.27338709081238, 305.1633195568183 159.27338709081238 M308.2853918695004 163.2280224952996 C309.50501365512 162.26969815745122, 310.6627900170813 160.27175070461183, 313.797326106475 157.54414164780167 M307.94862602033425 163.3996121566496 C309.37890282894045 161.4774301581798, 311.15610420425645 159.52235096706858, 313.4667474096316 157.5240708611437" stroke="none" stroke-width="0.6" fill="none"></path><path d="M309.9755493565574 155.23935247512082 C310.92367454150224 155.2860133227229, 312.8538346025555 156.66183204074952, 313.3753000865568 157.46397869184722 C313.89676557055816 158.26612534294492, 313.1715754506862 159.14862640693326, 313.1043422605656 160.05223238170706 C313.037109070445 160.95583835648085, 313.39833405091275 162.37430986037393, 312.97190094583345 162.88561454048994 C312.54546784075416 163.39691922060595, 311.3497863075271 162.90240876178493, 310.54574363008976 163.12006046240307 C309.7417009526524 163.33771216302122, 308.75383188696986 164.32165167165786, 308.1476448812093 164.1915247441988 C307.54145787544877 164.06139781673974, 307.39291405013734 163.17405269524818, 306.9086215955265 162.33929889764877 C306.42432914091563 161.50454510004937, 305.20800454351195 159.96879351347155, 305.24189015354426 159.1830019586023 C305.2757757635766 158.39721040373303, 306.1706909176395 158.30278279982016, 307.1119352557202 157.62454956843322 C308.0531795938009 156.94631633704628, 310.07497150923257 155.25893780445804, 310.88935618202834 155.1136025702806 C311.7037408548241 154.96826733610314, 312.1086428837197 156.49902317192084, 311.9982432924948 156.75253816336848 M312.02830855663746 156.1187844527996 C312.9803425286717 156.9086225252245, 314.2777126504234 158.95209708520179, 314.5364397348925 159.7526271040883 C314.7951668193616 160.55315712297482, 314.09568311805975 160.4409056291329, 313.58067106345203 160.92196456611876 C313.0656590088443 161.4030235031046, 312.00985686339476 161.88748864565534, 311.44636740724616 162.63898072600344 C310.88287795109756 163.39047280635154, 311.05840513907833 165.22169926175025, 310.19973432656053 165.43091704820733 C309.34106351404273 165.64013483466442, 306.8540398845345 164.92095833181523, 306.2943425321395 163.89428744474606 C305.7346451797446 162.86761655767688, 306.59957258581244 160.21693233209945, 306.8415502121908 159.27089172579224 C307.0835278385691 158.32485111948503, 307.3210782746718 158.79102445642107, 307.7462082904095 158.21804380690276 C308.1713383061473 157.64506315738444, 308.7587700916049 156.08605321309682, 309.3923303066172 155.83300782868236 C310.02589052162955 155.5799624442679, 311.1184279454445 156.638193201107, 311.54756958048335 156.699771500416 C311.9767112155222 156.76134979972502, 312.0806206567359 156.3680163348585, 311.96718011685005 156.2024776245364" stroke="#4A90D9" stroke-width="1.2" fill="none"></path></g><g><path d="M335.9093234341644 158.17520764191062 C335.9093234341644 158.17520764191062, 335.9093234341644 158.17520764191062, 335.9093234341644 158.17520764191062 M335.9093234341644 158.17520764191062 C335.9093234341644 158.17520764191062, 335.9093234341644 158.17520764191062, 335.9093234341644 158.17520764191062 M338.08137415469224 162.4996497546085 C340.24812344066544 161.14067638405095, 342.32531970934707 159.03819224898527, 343.0538201132011 157.57839591059005 M338.12855185912764 163.30983893812814 C339.5508063196646 161.8454727731395, 340.8792142169498 160.57933716681876, 342.9732732299869 157.66517097519878" stroke="none" stroke-width="0.6" fill="none"></path><path d="M341.4965918124521 155.99491475687634 C342.4852917444676 156.13852050356078, 343.35664122606596 157.69674784035496, 343.6538019477579 158.5597522292701 C343.9509626694499 159.42275661818522, 343.5421671167519 160.59300963420498, 343.27955614260384 161.17294109036712 C343.0169451684558 161.75287254652926, 342.4072126960133 161.47242159061574, 342.0781361028695 162.03934096624295 C341.7490595097257 162.60626034187015, 341.85899863694203 164.3595018587733, 341.30509658374103 164.57445734413045 C340.75119453054003 164.7894128294876, 339.65537721638805 164.02955317802812, 338.7547237836634 163.3290738783857 C337.85407035093874 162.6285945787433, 336.4218271833348 161.17716167668863, 335.9011759873931 160.37158154627602 C335.3805247914514 159.5660014158634, 335.12376525631225 158.9929187488553, 335.6308166080134 158.49559309591012 C336.1378679597145 157.99826744296496, 337.72603603662685 157.61446709410941, 338.94348409759994 157.38762762860495 C340.160932158573 157.16078816310048, 342.4444155386963 157.28737506298881, 342.9355049738517 157.1345563028833 C343.4265944090071 156.9817375427778, 342.0753438827184 156.5414994628449, 341.8900207085324 156.47071506797195 M342.09593800302844 155.9823062652997 C342.7813304301703 156.4344212569466, 342.6200516646227 157.88704844434912, 343.1691352335636 158.75390420114763 C343.71821880250457 159.62075995794615, 345.48548889719535 160.3228976591652, 345.3904394166741 161.1834408060908 C345.29538993615284 162.0439839530164, 343.37489725194246 163.45719226438422, 342.59883835043615 163.91716308270125 C341.82277944892985 164.37713390101828, 341.7485275038094 164.03318386979325, 340.7340860076363 163.94326571599296 C339.7196445114632 163.85334756219268, 337.08933479937633 163.70260754217526, 336.5121893733974 163.3776541598995 C335.9350439474185 163.05270077762373, 337.4560429503482 162.79233661730933, 337.27121345176266 161.99354542233834 C337.0863839531771 161.19475422736735, 335.0057391295876 159.55493864874006, 335.40321238188415 158.5849069900736 C335.8006856341807 157.61487533140712, 338.53274200039385 156.70245338954047, 339.65605296554185 156.17335547033946 C340.77936393068984 155.64425755113845, 342.00679930559704 155.5342607314069, 342.14307817277205 155.4103194748676 C342.27935703994706 155.2863782183283, 340.86997432757096 155.3836226958277, 340.47372616859195 155.42970793110365" stroke="#4A90D9" stroke-width="1.2" fill="none"></path></g><g><path d="M368.668504476894 156.17703041705352 C368.668504476894 156.17703041705352, 368.668504476894 156.17703041705352, 368.668504476894 156.17703041705352 M368.668504476894 156.17703041705352 C368.668504476894 156.17703041705352, 368.668504476894 156.17703041705352, 368.668504476894 156.17703041705352 M367.7995632859308 163.43201100205982 C370.54311288270577 162.52524131836697, 372.73892957218624 158.95502097201316, 374.14035619056824 157.39968053404309 M368.6199895245041 163.75514649751474 C369.54290004101387 163.03537447391327, 370.89590208732153 161.5012255368235, 373.74058533369043 157.85766875723837" stroke="none" stroke-width="0.6" fill="none"></path><path d="M368.8524455585458 155.9654304079312 C369.54192715991474 155.59894456774933, 370.15502220511496 155.32633338435303, 371.11405203173075 155.6854105147696 C372.07308185834654 156.04448764518614, 374.2426799852284 157.1938757292531, 374.6066245182406 158.11989319043047 C374.9705690512528 159.04591065160784, 373.62685770500946 160.51324745283293, 373.29771922980404 161.2415152818338 C372.96858075459863 161.9697831108347, 373.1530419220503 162.08860340803258, 372.6317936670083 162.48950016443573 C372.1105454119663 162.89039692083887, 371.0737538734132 163.52567699275332, 370.170229699552 163.6468958202526 C369.26670552569084 163.7681146477519, 367.8690019777718 163.81048604697654, 367.2106486238414 163.2168131294315 C366.552295269911 162.62314021188647, 366.2636508145689 160.91954137984638, 366.22010957596945 160.08485831498237 C366.17656833737 159.25017525011836, 366.5618748749258 158.78417435467418, 366.9494011922445 158.2087147402475 C367.3369275095632 157.63325512582082, 368.2317908906198 156.95213719723233, 368.5452674798815 156.6321006284224 C368.8587440691432 156.31206405961245, 368.5797075826005 156.4484470408972, 368.83026072781496 156.28849532738778 M370.0495560364972 155.490163182469 C370.6687878651835 155.34412737528714, 370.9731931791713 157.5356684793396, 371.5322821411775 157.89642724012535 C372.09137110318375 158.2571860009111, 373.21617720549074 157.0739730586937, 373.4040898085344 157.6547157471836 C373.5920024115781 158.23545843567348, 372.7199424244411 160.43250333337272, 372.6597577594395 161.38088337106473 C372.5995730944379 162.32926340875673, 373.8127921902418 162.9060220128796, 373.0429818185249 163.34499597333567 C372.27317144680796 163.78396993379175, 369.00529071509834 163.92056829927733, 368.04089552913814 164.01472713380124 C367.07650034317794 164.10888596832515, 367.444816069689 164.6029147854578, 367.2566107027636 163.9099489804791 C367.06840533583824 163.2169831755004, 367.13279948914106 160.96682086779893, 366.91166332758576 159.8569323039289 C366.69052716603045 158.74704374005884, 365.3096409852032 157.8845653219055, 365.9297937334318 157.2506175972588 C366.54994648166036 156.6166698726121, 370.2999188495275 156.2069227639562, 370.6325798169571 156.0532459560487 C370.9652407843867 155.8995691481412, 367.9320705552047 156.28165877758082, 367.9257595380095 156.32855674981383" stroke="#4A90D9" stroke-width="1.2" fill="none"></path></g><g><path d="M398.80491051436263 155.87394864389367 C398.80491051436263 155.87394864389367, 398.80491051436263 155.87394864389367, 398.80491051436263 155.87394864389367 M398.80491051436263 155.87394864389367 C398.80491051436263 155.87394864389367, 398.80491051436263 155.87394864389367, 398.80491051436263 155.87394864389367 M398.36947633761565 164.83251759580895 C400.2205146014469 162.14262334116202, 402.0664152336238 158.55098395076084, 404.1701351221201 157.10197896074447 M398.38048416239127 164.39345604961153 C400.6431592929206 161.96978835623412, 402.33303491690793 159.60411379072156, 404.10871645048996 157.44835608598314" stroke="none" stroke-width="0.6" fill="none"></path><path d="M398.74849133172233 155.9388514891643 C399.4902244555251 155.30528348636054, 399.91403617692976 155.29342730177294, 400.73331196117516 155.61524902842632 C401.55258774542057 155.9370707550797, 403.27848131396195 157.0568232147472, 403.66414603719477 157.86978184908457 C404.0498107604276 158.68274048342195, 403.2609152252693 159.54212758702937, 403.0473003005722 160.49300083445058 C402.8336853758751 161.4438740818718, 402.6651581447299 162.9705421824157, 402.38245648901216 163.57502133361191 C402.0997548332944 164.17950048480813, 402.18021073668547 164.01138532825325, 401.35109036626585 164.11987574162788 C400.52196999584623 164.2283661550025, 398.10995538056335 164.5895698593817, 397.4077342664943 164.2259638138597 C396.7055131524252 163.8623577683377, 397.1753231405655 162.78663971192503, 397.1377636818514 161.93823946849577 C397.1002042231373 161.0898392250665, 396.92585980325384 160.05957852777544, 397.1823775142097 159.13556235328412 C397.43889522516554 158.2115461787928, 398.27619919659077 156.8097562169111, 398.67686994758645 156.39414242154788 C399.07754069858214 155.97852862618467, 399.72649491918276 156.69587172889578, 399.58640202018387 156.64187958110486 M398.6095828147798 156.3677792945985 C399.03335831387744 156.01541452473273, 399.4209534073366 155.44988714255348, 400.03527301898015 155.5901170415472 C400.6495926306237 155.7303469405409, 401.6585832564101 156.25685732498533, 402.295500484641 157.2091586885608 C402.93241771287194 158.16146005213625, 403.66318037708413 160.21877282226538, 403.8567763883657 161.30392522299994 C404.05037239964724 162.3890776237345, 404.24760777995067 163.35927756781564, 403.4570765523303 163.72007309296816 C402.66654532470994 164.0808686181207, 400.10491347421396 163.30846505024132, 399.1135890226436 163.46869837391506 C398.1222645710733 163.6289316975888, 397.921185709472 165.3499980194922, 397.5091298429081 164.68147303501053 C397.09707397634423 164.01294805052885, 396.91036918988647 160.76184145368893, 396.64125382326023 159.45754846702494 C396.372138456634 158.15325548036094, 395.37382220558754 157.2098687825936, 395.8944376431507 156.85571511502664 C396.41505308071385 156.5015614474597, 399.29880872953703 157.28653353627402, 399.76494644863914 157.3326264616232 C400.23108416774124 157.37871938697236, 398.7381026313244 157.3981269962237, 398.6912639577632 157.13227266712167" stroke="#4A90D9" stroke-width="1.2" fill="none"></path></g><g><path d="M330.6744815840636 353.246070698722 C333.82566258399726 363.27425315597134, 337.0184458987856 371.11784228534844, 340.0469158906147 374.05713778776067 M329.9561940094993 355.96493816802626 C331.87040187335253 359.7397848774903, 334.38560709869114 365.54119753316013, 340.29518055089227 374.1147592206554" stroke="#000000" stroke-width="1.5" fill="none"></path></g><g><path d="M340.332158946198 374.60793537096544 C343.20908228700915 373.15654106476535, 346.0438569110345 367.85426643911967, 349.9354331763061 365.5961983560933 M339.5557636091998 375.12338765671524 C343.6258802087746 371.5666424512861, 346.04058750623904 368.06371601253375, 349.30762332090654 364.4457958969382" stroke="#000000" stroke-width="1.5" fill="none"></path></g><g><path d="M350.55780714095846 365.5305634538524 C353.46718203634924 367.02366196639395, 354.8190742107723 370.317338717535, 358.840582396887 374.8047888966268 M349.84128479342075 364.93747412925944 C352.92938709930695 368.01927214872984, 355.79524017749475 371.9800712256595, 359.77027530471594 374.7224934439767" stroke="#000000" stroke-width="1.5" fill="none"></path></g><g><path d="M358.24022181357265 376.7114807196435 C360.6974178054587 370.77961482305653, 363.3061258456895 365.83439843767866, 370.3885829584006 353.43322605227564 M359.11271655525024 374.92605401747323 C362.42195100439443 369.606078484651, 365.49899091862915 364.4408301146006, 370.90202894711757 355.0532615804723" stroke="#000000" stroke-width="1.5" fill="none"></path></g><text x="400" y="560" text-anchor="middle" font-family="sans-serif" font-size="16" fill="#222" font-style="italic">If it requires heroism to function, you haven't finished the design.</text></svg>