<?xml version="1.0" encoding="UTF-8"?>
<svg width="800" height="600" viewBox="0 0 800 600" xmlns="http://www.w3.org/2000/svg"><rect width="800" height="600" fill="#FFFFFF"></rect><g><path d="M349.61258466038873 500.0248079015185 C357.47864013313693 368.5775375821417, 366.84430642585386 239.28926722555084, 380.304074429983 99.11328598930939 M349.74780130558537 499.5421671106051 C355.33178857128655 400.0318762625529, 363.0596649499973 299.26366736750026, 380.1288667968532 100.43109140655274" stroke="#000000" stroke-width="2" fill="none"></path></g><g><path d="M450.3907851106112 500.82826191019876 C442.1495956665794 393.3370914989052, 432.943366535344 289.2808165995312, 421.0250536743027 99.43930065083742 M450.04174917137306 500.04194385541575 C440.9731998041824 355.51248603956105, 430.680507828976 210.2263785963974, 420.363912479356 99.78908036876126" stroke="#000000" stroke-width="2" fill="none"></path></g><g><path d="M396.143025825573 283.41128093451624 C396.143025825573 283.41128093451624, 396.143025825573 283.41128093451624, 396.143025825573 283.41128093451624 M396.143025825573 283.41128093451624 C396.143025825573 283.41128093451624, 396.143025825573 283.41128093451624, 396.143025825573 283.41128093451624 M393.4619875709819 302.0329680184552 C395.6499080538012 295.66632677922644, 398.6922543537861 291.44769977045837, 404.0382201256538 283.90871276072755 M392.4473830747452 300.38616046170955 C395.0403105724892 295.08430288481327, 400.0802454615801 290.63984969139324, 404.39806188979816 286.3000668528239 M395.3229962596808 307.5951281284456 C400.54068822711116 302.7821494290152, 408.25739048087246 295.9666304493103, 411.3032286001251 291.22683912839085 M397.7970469536975 306.46767657038777 C399.6170976170766 303.63848222566287, 403.7741790994433 300.4657536320892, 410.508361967114 290.7561148575048" stroke="none" stroke-width="1" fill="none"></path><path d="M396.2468951634684 283.29179292972236 C398.3073656942587 282.0316146845771, 400.9177447573799 282.7878951422784, 403.156910168963 283.57424204913264 C405.3960755805461 284.3605889559869, 408.3760646766778 285.73488609195033, 409.681887632967 288.0098743708478 C410.9877105892562 290.28486264974526, 411.26592556163365 294.72580330111106, 410.99184790669824 297.22417172251755 C410.71777025176283 299.72254014392405, 409.63197651798095 301.2441128179155, 408.03742170335465 303.0000848992868 C406.44286688872836 304.75605698065806, 403.8687089839832 307.56785755175326, 401.42451901894054 307.7600042107453 C398.9803290538979 307.95215086973735, 395.6655318303332 305.79827038710596, 393.37228191309885 304.15296485323887 C391.0790319958645 302.5076593193718, 388.1600250896224 300.20085325824806, 387.6650195155344 297.8881710075428 C387.1700139414464 295.5754887568375, 388.82368924059506 292.69982506854086, 390.4022484685709 290.27687134900725 C391.9808076965468 287.85391762947364, 395.9332435840917 284.5554637261989, 397.1363748833895 283.350448690341 C398.33950618268733 282.1454336544831, 397.8151448092041 282.9234832575752, 397.62103626435766 283.0467811338596 M401.558123731041 283.54890346161756 C403.9178619625377 284.0919602110736, 407.1982040222132 286.4497824430114, 408.79457037932053 288.35871688108875 C410.3909367364279 290.26765131916613, 411.2359574474913 292.6799798973884, 411.1363218736852 295.00251009008196 C411.0366862998791 297.3250402827755, 409.9956036742653 300.3334430261027, 408.1967569364838 302.2938980372501 C406.3979101987023 304.25435304839743, 402.5904157546462 306.12660903370477, 400.34324144699616 306.76524015696594 C398.09606713934613 307.4038712802271, 396.3899851812179 307.48632158884396, 394.71371109058373 306.12568477681714 C393.03743699994953 304.7650479647903, 390.98108036809265 301.2671902467447, 390.28559690319094 298.60141928480505 C389.5901134382892 295.9356483228654, 389.74189554730253 292.5452872578792, 390.5408103011736 290.1310590051791 C391.3397250550447 287.71683075247904, 393.1300819563413 285.21790836833844, 395.0790854264173 284.1160497686045 C397.0280888964933 283.0141911688706, 400.9948874228184 283.50903357205067, 402.23483112162944 283.51990740677553 C403.4747748204405 283.5307812415004, 402.66186477391034 284.25012012408, 402.5187476192835 284.1812927769536" stroke="#000000" stroke-width="2" fill="none"></path></g><g><path d="M401.54021256808306 305.6449878337369 C397.41492997352003 314.30868331389064, 397.01864121472795 322.126831871463, 396.3971934466327 338.29262925150107 M399.41032043027076 306.79808952414123 C399.507317658892 317.4284542454577, 397.1905899471867 329.0744415381631, 395.4804662972992 340.6131840868541" stroke="#000000" stroke-width="2" fill="none"></path></g><g><path d="M396.5216699390832 340.5443676198462 C388.24724057253053 355.0209200251523, 381.5985948324004 370.25178496328596, 373.8085909992492 385.42371062717405 M396.55200405524414 339.0396332676769 C392.3402970105218 350.1539269556824, 387.1789473679144 360.32675733349976, 375.4550382428966 384.97643033234834" stroke="#000000" stroke-width="2" fill="none"></path></g><g><path d="M395.38707321905247 339.52466448444613 C400.26848842960356 346.2724009384736, 406.1860113593486 357.57599328366547, 421.19897158931235 379.9695008062429 M395.5711269723968 340.1018483490432 C401.96830524285156 351.14551460638836, 409.8540359702332 363.87814108751627, 420.4425748590555 379.5945014093715" stroke="#000000" stroke-width="2" fill="none"></path></g><g><path d="M400.02261199052526 320.5189632176187 C409.18384625737633 326.2972014611146, 416.97793583614595 332.17767175103455, 424.4647053375117 335.3268175291439 M400.9014619749948 320.8085544466623 C409.4299643486805 326.7828796909643, 419.59734173306225 332.2850553747068, 425.12947309023633 335.52295640123526" stroke="#000000" stroke-width="2" fill="none"></path></g><g><path d="M399.6978841405904 321.6893670254766 C395.57755527405874 326.818100848477, 389.62856170380576 336.21029106037463, 381.1420851189576 346.603424594407 M399.67144381820833 320.6842483206533 C392.0033725086852 328.9613647413165, 386.2555815106068 338.67409234678655, 380.69205637570036 344.5874088693656" stroke="#000000" stroke-width="2" fill="none"></path></g><g><path d="M627.2349289045269 86.79250949312029 C627.2349289045269 86.79250949312029, 627.2349289045269 86.79250949312029, 627.2349289045269 86.79250949312029 M627.2349289045269 86.79250949312029 C627.2349289045269 86.79250949312029, 627.2349289045269 86.79250949312029, 627.2349289045269 86.79250949312029 M625.2033244662703 102.02057593400485 C631.6619090124257 93.1230841045843, 640.7940851541708 85.70321414020498, 644.9369003094453 78.35233963432849 M625.3154849195906 101.54815412770179 C632.7491823707197 93.92629262834588, 638.4824122337591 85.01663877179864, 645.9189566325268 76.30593702773042 M629.3424216390202 109.28029955390262 C636.7790520359749 98.1281252733378, 648.7131961432211 89.30417258718714, 656.7850246047201 78.32023772499092 M627.9886547066886 110.07262446993896 C637.7989210918875 98.93583110701316, 646.8624022311215 89.2763284502034, 657.1619497075484 77.463701715051 M632.675763286799 116.5895109005962 C640.0338379994398 108.03568171040952, 649.3897509339124 97.61405764358037, 663.9911915757875 80.36706924057194 M632.3926766588271 117.91040541677663 C643.6294705829869 104.74324680169083, 655.0567576525121 92.02902501423057, 663.9923709212039 80.68072499092693 M639.3009831854886 120.96697571946552 C646.93594415509 115.29978583127829, 654.136619596723 103.64180749181311, 671.222932290985 85.44713996836806 M639.4911773951123 122.40696216223903 C650.148442739172 109.31278500807578, 662.2892865726718 95.48759370460374, 669.9621967602085 86.39931391924947 M647.5555040572035 124.82839911786826 C656.814490598151 114.445728961577, 666.9637901328794 102.12101824194289, 673.0387713011163 92.73268621038922 M647.685176991491 123.66453757322469 C655.2748727539229 114.58461182682753, 662.552010099748 105.44987466048914, 674.0909338269031 94.31299156194875 M661.7211426123284 120.92336113841895 C664.8438660039201 118.61824235009959, 666.503187176961 114.51749409027308, 675.3186442063477 105.79560893281966 M660.0969466146155 121.50431866329971 C666.4112089945537 115.69202096282717, 672.1963337827344 108.5000550550604, 674.4767750187004 105.22145851957853" stroke="none" stroke-width="1" fill="none"></path><path d="M658.5047264377225 76.48305943882136 C663.5485153315284 78.16103038537977, 669.6484554461869 83.04431834061688, 672.4227888329377 87.70975333782782 C675.1971222196886 92.37518833503876, 676.0446591287 99.19288287393269, 675.1507267582277 104.475669422087 C674.2567943877555 109.7584559702413, 671.2072939895734 115.93700194448434, 667.0591946101039 119.40647262675364 C662.9110952306344 122.87594330902294, 655.9227915751496 125.19994696697188, 650.2621304814111 125.29249351570277 C644.6014693876725 125.38504006443367, 637.4327512791995 123.4337307397864, 633.0952280476729 119.96175191913896 C628.7577048161463 116.48977309849153, 625.211980091123 109.99081495298832, 624.2369910922517 104.46062059181818 C623.2620020933805 98.93042623064805, 624.4901310661385 91.5523020467886, 627.2452940544451 86.78058575211814 C630.0004570427518 82.00886945744769, 634.893554076024 77.4171069373392, 640.767969022092 75.83032282379546 C646.64238396816 74.24353871025171, 658.5519532029384 76.61884108451889, 662.4917837308527 77.25988107085568 C666.431614258767 77.90092105719248, 664.6654906496065 79.2557459289974, 664.4069521895781 79.67656274181623 M650.204597562869 75.09151381380495 C655.4431668436295 74.87405624928519, 662.957130460117 77.74664013528331, 667.1843290373994 81.10151784611912 C671.4115276146817 84.45639555695493, 674.8535789518533 89.77083443052965, 675.5677890265634 95.22078007881981 C676.2819991012736 100.67072572710998, 674.1840890907883 109.02061097478945, 671.4695894856608 113.80119173586012 C668.7550898805332 118.58177249693078, 664.4576956245207 122.33468083586376, 659.2807913957982 123.90426464524379 C654.1038871670758 125.4738484546238, 645.6996023889574 125.25004234856618, 640.4081641133262 123.21869459214021 C635.116725837695 121.18734683571424, 629.9529518764814 116.35264067029483, 627.5321617420108 111.71617810668793 C625.1113716075401 107.07971554308104, 624.7040289470763 100.67149498652874, 625.8834233065026 95.3999192104988 C627.0628176659288 90.12834343446885, 630.6150060201377 83.80975612508352, 634.6085278985684 80.08672345050822 C638.602049776999 76.36369077593291, 647.1215785171001 73.95647617507217, 649.8445545770863 73.06172316304693 C652.5675306370725 72.1669701510217, 650.8161861001572 74.18376830344721, 650.9463842584855 74.71820537835683" stroke="#DAA520" stroke-width="2" fill="none"></path></g><g><path d="M649.8344215752487 100.44037248756982 C650.6850850324524 92.982893401924, 649.3768502893705 89.43058346412188, 650.9187037403728 80.4719702771458 M649.5029343029785 99.43197762999152 C648.9882623957171 92.72561205240537, 649.2531156005962 86.49856441068863, 649.6984940569401 79.15639492962775" stroke="#DAA520" stroke-width="2.5" fill="none"></path></g><g><path d="M651.457297537208 99.7140593260152 C654.1144791461219 100.52188621917296, 657.0450107071904 102.67139413557949, 663.7272870219804 103.5627258421137 M649.6127801437626 99.73797145393516 C653.8959113805452 100.73628954563613, 659.0678898217761 102.07117748155905, 665.229110694424 105.20530509355572" stroke="#DAA520" stroke-width="2" fill="none"></path></g><g><path d="M143.53363100158157 445.29606816328453 C145.42797143671757 446.9255148605759, 150.40428280912062 450.0970759257553, 154.39290258047612 457.32355917251436 M144.379530230819 444.26371961551615 C147.27565155905913 448.13571158197095, 151.05408066958896 451.09871637872266, 156.745574571623 456.3252187741184" stroke="#000000" stroke-width="1.8" fill="none"></path></g><g><path d="M157.43479007272526 443.5287547055625 C151.64061186477457 447.720612960667, 148.8377651449258 451.58461808006524, 143.3393281639837 456.2458203704806 M155.21701727714537 443.3041767112277 C152.10618445137325 446.87371338617424, 149.4167525439172 450.07622747365747, 144.80484013621097 456.72365789471587" stroke="#000000" stroke-width="1.8" fill="none"></path></g><g><path d="M173.63199719790217 444.0133549047136 C178.830964922644 446.2525297834484, 180.4060124842783 450.9617723528173, 184.47691896691893 455.158376146147 M173.62552834512718 444.33251816948996 C177.81562474780299 448.52274120603136, 181.83083787898806 453.1572292389321, 186.76651175358637 455.8043282665618" stroke="#000000" stroke-width="1.8" fill="none"></path></g><g><path d="M185.96508596280765 445.0974013644744 C183.09469394290886 450.08500450975737, 177.0028827513706 454.1399581166596, 175.51593583828736 454.3887938723773 M185.19373148574147 444.2442106643825 C184.18359558750538 447.4146224433631, 179.87703586898135 448.93427503550856, 173.23935794418918 455.7729412023343" stroke="#000000" stroke-width="1.8" fill="none"></path></g><g><path d="M202.70391559913952 444.18111400681397 C205.05923485416488 446.17276679431905, 209.10326906459284 447.6596977930834, 214.97938471668365 455.5218217684662 M204.02358653489915 443.77873433973923 C206.04762779143306 446.41460979464864, 209.17003847171586 449.8830288275245, 215.7328774414662 455.5274571458832" stroke="#000000" stroke-width="1.8" fill="none"></path></g><g><path d="M214.8939828560327 443.24485141343496 C214.399073424238 447.93065335996016, 211.5790058319232 450.3808858722764, 203.13805117136818 455.4917866012257 M215.68415393457107 444.2783202983481 C212.29842913109513 448.1865854235758, 208.01988705436764 450.5929823943546, 204.6979738770875 455.84899809632714" stroke="#000000" stroke-width="1.8" fill="none"></path></g><g><path d="M233.2536794793273 444.08817902960686 C238.50773183450417 447.4569258876706, 240.99775242426878 450.61239576949043, 244.69581889216641 457.24458615146705 M233.92752485091142 444.6395977414896 C237.01753315127985 447.28443340320746, 242.30081110871058 450.91528814867127, 245.3519485394098 456.03045628040394" stroke="#000000" stroke-width="1.8" fill="none"></path></g><g><path d="M244.39496765852596 444.44616669128345 C243.14843533881333 449.24903512566283, 238.00069398791973 452.0321301275493, 234.16822037466025 454.58211032378676 M245.80463213572716 444.21836399805494 C243.14012387475358 447.3452848231737, 239.86532274100145 450.74812356674374, 234.6982514204933 455.8102149751498" stroke="#000000" stroke-width="1.8" fill="none"></path></g><g><path d="M262.930203071488 443.2127282668305 C266.3715379848532 447.6886629125459, 267.80997611716236 450.0279089941366, 276.0272856351382 457.5517523684706 M263.41824743484386 444.82979121513364 C267.90822512740885 447.33923631645706, 271.12540562475783 450.75700425741724, 276.5116882293378 456.3022055639226" stroke="#000000" stroke-width="1.8" fill="none"></path></g><g><path d="M275.0479158809214 443.3444768280313 C272.001296421429 447.1237291706781, 267.6163722458661 454.21065593347, 263.95061500170954 455.1871420327576 M276.20966396354953 444.2882862777293 C271.7314492091679 447.62985642765744, 266.79359260508653 452.36016548560974, 264.7554262538056 455.3873852833014" stroke="#000000" stroke-width="1.8" fill="none"></path></g><text x="400" y="560" text-anchor="middle" font-family="sans-serif" font-size="16" fill="#222" font-style="italic">"The feeling has nothing to do with it."</text></svg>