<?xml version="1.0" encoding="UTF-8"?>
<svg width="800" height="600" viewBox="0 0 800 600" xmlns="http://www.w3.org/2000/svg"><rect width="800" height="600" fill="#FFFFFF"></rect><g><path d="M240.3138881309208 260.42546253816164 C237.24583505175522 270.7244116565203, 233.45168830835468 282.07066884288093, 230.5401386152837 288.97685253045205 M240.2132488366507 260.14535190210205 C236.31686028585523 271.86180290495514, 232.7096838917019 283.01094949540635, 230.7188903384681 289.4194111555693" stroke="#CC3333" stroke-width="1.5" fill="none"></path></g><g><path d="M231.17275983011163 289.6539962760413 C224.62559608950914 295.5446182493187, 218.6010210437493 301.5271737929676, 208.7641337206218 310.3806551885082 M230.78370206241456 289.39911802406397 C224.22703061062077 295.2667995183528, 217.64440277139414 301.5131840435849, 208.90663445347485 309.6392154045063" stroke="#CC3333" stroke-width="1.5" fill="none"></path></g><g><path d="M208.22736422496052 309.956762853697 C199.50476507144987 312.0130877485284, 190.15733612751237 313.80563954743917, 179.8525870456146 316.26982425779494 M208.78509313241855 310.048196523418 C197.61499279712777 312.42987487457214, 186.25501950675167 314.94550734985506, 179.7443024835684 316.15533286848114" stroke="#CC3333" stroke-width="1.5" fill="none"></path></g><g><path d="M180.09689342001192 316.6882006609295 C170.73633646368316 313.4749368439724, 162.36439832342356 310.92383802537944, 152.4028201568049 308.22234913497937 M180.206047601106 316.39207502804504 C169.1236753038858 313.11726986336026, 158.4187767373416 309.5078595539077, 152.43140308428914 307.51705076338266" stroke="#CC3333" stroke-width="1.5" fill="none"></path></g><g><path d="M152.36328669174318 307.5193059400524 C146.06724105891556 300.5089142177684, 139.16361653286268 292.65155128766986, 132.67172197349757 286.8604071531171 M152.6416351157781 307.56653511119515 C148.4914635905507 303.28521627754907, 144.62920871574065 299.25925294229313, 132.93503938336454 287.06439540171704" stroke="#CC3333" stroke-width="1.5" fill="none"></path></g><g><path d="M132.77944904336167 287.0328104837609 C130.58442867796612 277.8324415370214, 128.39184682738616 268.35258412466186, 127.2215277198894 260.1912070328816 M133.21432950607257 286.94029932306574 C131.3804963330473 278.1898689616031, 129.12984596441743 269.15622371072203, 127.04734999076999 260.13288019095984" stroke="#CC3333" stroke-width="1.5" fill="none"></path></g><g><path d="M126.90140943586124 259.42279866139233 C129.52542297520716 253.5375096863032, 131.43015617537907 248.15572751641895, 135.89406906275443 233.60363882071374 M127.38911088530458 260.1885331943477 C128.75037231495466 254.14805053040047, 130.54958516066316 248.90898847142145, 135.33055618562665 234.4991937572294" stroke="#CC3333" stroke-width="1.5" fill="none"></path></g><g><path d="M134.74679461150498 234.60238522950473 C140.47059680575657 229.7490822364002, 145.2677516042855 225.21708580516014, 154.94647256536618 215.76291107659296 M135.3456368821159 234.38758618233095 C142.1181396121559 228.14937217061282, 148.28815689710683 221.98284789478006, 154.5391622493007 216.57628010680506" stroke="#CC3333" stroke-width="1.5" fill="none"></path></g><g><path d="M155.29294232373965 216.3295349587825 C164.98528516010197 214.626499078785, 175.02894755668405 212.12818139320973, 180.49597007132982 210.71261636905112 M154.56810417361467 216.46241951199693 C163.18321093366683 214.66743031461613, 171.17553344367434 212.7324483181221, 180.23010791653655 210.58845807986435" stroke="#CC3333" stroke-width="1.5" fill="none"></path></g><g><path d="M180.49090857759714 210.5376635673548 C189.64958556648418 213.56572238647976, 198.0063732560554 216.95944954654897, 204.2643136305227 218.06867799285126 M180.2703130567862 210.95994916685416 C186.0008480678297 212.60016015028822, 192.58935845488614 214.46277232005676, 203.90126058657572 218.63977238906062" stroke="#CC3333" stroke-width="1.5" fill="none"></path></g><g><path d="M203.71825711420072 219.02351806585062 C208.75104650590376 223.35184789285353, 213.48583020118568 228.98729444574047, 220.02586864410003 236.47961042389645 M204.27777173840443 218.54879290986446 C208.7943392231616 223.87526188075302, 213.26121191093486 228.66587466198985, 220.69596353488458 236.72966823292526" stroke="#CC3333" stroke-width="1.5" fill="none"></path></g><g><path d="M220.45869205513188 236.29430442658608 C222.59661932942106 243.14063344036572, 224.12050809242396 250.9740036003427, 225.58140790136446 259.5343800491104 M220.71341817265207 236.42418281727478 C222.3983062307027 245.95165542825103, 224.75604106697605 255.19690150050238, 225.56836594576419 260.19074963567874" stroke="#CC3333" stroke-width="1.5" fill="none"></path></g><g><path d="M225.64850835781922 260.48550021336786 C223.86111309773773 264.4078707683775, 222.1728129885026 268.9350613208239, 218.56949188211513 282.50055612725697 M225.72617404755454 260.01402641689975 C222.49923484579386 268.6999013353372, 220.12855347340363 277.6811824153888, 218.5251572679075 282.37710074234633" stroke="#CC3333" stroke-width="1.5" fill="none"></path></g><g><path d="M218.88389755283052 282.37170885517014 C212.2363002726372 287.78727062405557, 206.15401658632993 293.22358951560085, 201.03461116511536 297.08228797478404 M218.35780842232273 282.00157072597636 C213.33090120195388 286.82042653426413, 208.93695818187464 291.26782397632036, 201.35533453763242 297.5318863467964" stroke="#CC3333" stroke-width="1.5" fill="none"></path></g><g><path d="M201.09454831017482 296.83326116200675 C194.43439248809102 298.38798383101266, 186.73410945139756 300.9440746079637, 179.7350195946793 301.42358554636695 M201.4687415886778 297.46926594624597 C192.94092151095194 299.26130671817845, 184.61915232354409 301.2862096351939, 180.27792703686623 302.21552029611416" stroke="#CC3333" stroke-width="1.5" fill="none"></path></g><g><path d="M179.8090965463481 301.86615332121727 C171.83327290991147 299.2352405742975, 164.84300582887428 297.39561710766895, 159.06423623003985 295.8313655565579 M180.2928219610441 301.7395422557889 C172.68930834077906 299.83335718890646, 165.5267418963013 297.1469148000815, 159.66071250647042 295.1966146778209" stroke="#CC3333" stroke-width="1.5" fill="none"></path></g><g><path d="M159.57830493928427 295.6979022844379 C154.11609147173303 289.4426357530423, 149.30602493021834 284.3862579982242, 145.58176360962446 280.0377994722945 M159.79643898950954 295.21304848729807 C155.55239341458633 290.90597995815676, 152.26552744626503 286.81472732856986, 145.92316415258486 279.874988283228" stroke="#CC3333" stroke-width="1.5" fill="none"></path></g><g><path d="M146.0909216519248 279.8729160380608 C144.7863142987132 274.65137774448925, 143.00138450901366 269.24937410106816, 141.26739555108503 260.0337237395646 M145.78938857176954 279.7238239339343 C144.58939458386396 274.9950109594279, 143.6913592834501 269.700145511972, 141.41476429658434 259.8647704868192" stroke="#CC3333" stroke-width="1.5" fill="none"></path></g><g><path d="M141.89182060867648 260.3429778491459 C142.6101670698214 255.8428555880933, 143.8356442000935 252.28612450203926, 147.55856180983375 241.96910512338994 M141.79204918202353 259.93487867964967 C143.7458246053016 253.397215882101, 145.88246128750248 246.9245688341853, 147.5419474183214 241.52977827564928" stroke="#CC3333" stroke-width="1.5" fill="none"></path></g><g><path d="M147.40153250309388 241.05037765298675 C151.4549396734504 238.53460635890045, 154.6159154304894 235.6192121171867, 162.50475804010114 229.39188483377276 M147.91980288343308 241.6235715259764 C152.09373732647603 237.8613251199373, 156.26359348226714 234.1966980089029, 161.76927273838467 228.66051951844838" stroke="#CC3333" stroke-width="1.5" fill="none"></path></g><g><path d="M161.79342565777839 228.4205151364993 C167.72886230180285 227.3750223077174, 172.057178663182 226.49272703067945, 180.2227133685083 224.86033431370237 M161.72846918007758 228.57338468978548 C166.62134950724445 228.0813656074515, 172.01871470942635 226.72647882904954, 179.94076002541516 225.09853562862452" stroke="#CC3333" stroke-width="1.5" fill="none"></path></g><g><path d="M179.65969797189317 225.52145524852358 C186.7111986264257 227.5642537703044, 192.33798200157165 229.9741604768911, 197.28196705834324 230.51589964708393 M180.04293005832602 225.31834577576265 C186.61921756489795 227.5112341948817, 193.15944872154236 229.8347992448417, 196.95580708449484 231.16559142083867" stroke="#CC3333" stroke-width="1.5" fill="none"></path></g><g><path d="M197.1656790200387 230.7112854995861 C200.06438759207524 234.79620475473334, 203.386451318093 237.79796505105315, 208.36432835990524 244.10490180633857 M196.84997296609578 230.65133579989808 C201.03261932997586 235.87556794615517, 204.9417734306138 240.21352182330392, 207.99087486828628 244.00473672083254" stroke="#CC3333" stroke-width="1.5" fill="none"></path></g><g><path d="M208.1491070251483 243.57062227713158 C209.3856692551155 249.3051082119078, 210.28925660354975 254.02589233417, 211.4215944722604 260.34423215025754 M207.96462479155213 244.04556693417967 C209.09094259834092 249.60738641768654, 210.31564155153396 255.4546785556623, 211.28982719868245 260.2017401092128" stroke="#CC3333" stroke-width="1.5" fill="none"></path></g><g><path d="M520.0363709647627 259.92491799227315 C519.4315733759 263.3937158203003, 518.4872831855607 267.55416516943984, 517.3832725908518 277.1221639057978 M519.7687973082932 260.1233007398889 C519.0849161104746 264.67950629124476, 518.1350489532601 269.65740187727573, 516.9942760972174 276.9836105810601" stroke="#4A90D9" stroke-width="2" fill="none"></path></g><g><path d="M516.6077765305922 277.442766484447 C513.9134331225135 281.94093113046273, 510.9797443528084 286.9539477952317, 508.187781473775 292.56458725962034 M516.8950802728998 277.0413837059543 C514.8783704717168 280.7485646781896, 512.7441058694407 284.4035268433454, 508.29203304058115 292.3784348103043" stroke="#4A90D9" stroke-width="2" fill="none"></path></g><g><path d="M507.8432094974065 292.25815571734876 C503.36806579061846 296.9642193045597, 497.4985582315655 301.00825275526154, 494.76851755625074 302.9785293815871 M508.055537246856 292.02667320132815 C503.09709198768934 296.54931885756724, 498.09796270327104 300.4686245417561, 494.94420972625807 303.22238273250287" stroke="#4A90D9" stroke-width="2" fill="none"></path></g><g><path d="M494.9499610236625 302.8571287898436 C489.7462394098456 305.7378718991449, 483.91153026787975 307.1239701139195, 478.4235878448299 309.0726444435709 M494.98220612231813 303.33293416018876 C491.2786518067561 304.4980427245017, 487.6948662289381 305.8432846462673, 478.7020410079756 309.1718204647237" stroke="#4A90D9" stroke-width="2" fill="none"></path></g><g><path d="M478.85658732229166 309.1912939875786 C475.1232913695526 308.7013626732838, 470.2050613413735 309.03584620653237, 461.7977032035031 309.4307254201203 M478.6290434282814 309.4447174347096 C472.26260152905405 309.1707093587665, 465.43989043370175 309.4812188492972, 461.5707688726279 309.1859153591071" stroke="#4A90D9" stroke-width="2" fill="none"></path></g><g><path d="M461.59058571165247 308.8899926721741 C455.3587618182449 307.3814682729729, 450.0031618480702 304.9401442152039, 445.3351746397041 302.8831468017502 M461.08605229214436 309.2155009898577 C455.53551111430977 306.99078259325876, 449.3381889011339 304.8260590195368, 445.09284342468817 303.2126841201587" stroke="#4A90D9" stroke-width="2" fill="none"></path></g><g><path d="M444.6591450706545 303.304727550213 C441.9523006573634 300.4232611540441, 438.0394552521792 297.7165448310074, 431.63705232094236 291.88138739872767 M444.77207539223065 303.50909572927975 C440.06674795405996 299.04604312081955, 434.95156482602744 294.6876652555171, 431.48082561146 292.14218520945093" stroke="#4A90D9" stroke-width="2" fill="none"></path></g><g><path d="M431.39046364386246 292.32381704595144 C429.30426726561075 286.72212731789864, 426.4569006585862 282.3787806073595, 423.1978007190417 277.2998637266498 M431.8561380605335 292.0985580057028 C429.67898969951153 288.8556117491367, 427.786695843934 285.27393027368913, 423.27352385469175 276.939321034274" stroke="#4A90D9" stroke-width="2" fill="none"></path></g><g><path d="M422.97556080781527 277.3522736216704 C422.3798638543702 272.46298072002935, 421.5535236144406 267.54631765965934, 420.198190640322 260.30534180946034 M423.13473208625703 277.0498351910086 C422.22058029787496 272.41228208211277, 421.11024415652406 268.09993710697427, 419.9968140371702 259.76167511781273" stroke="#4A90D9" stroke-width="2" fill="none"></path></g><g><path d="M420.1089066272691 259.8841636100393 C420.7493826680048 253.72153763961455, 422.61785533182655 247.98987825139727, 422.87649915899254 242.44683259924957 M420.0154944066546 259.7890909304816 C420.99588368961435 254.33574063505154, 421.8992757312324 248.19658476318673, 422.77607676765314 242.97053462642745" stroke="#4A90D9" stroke-width="2" fill="none"></path></g><g><path d="M423.2579830169176 243.34747993750128 C426.3661184119508 237.2573733602778, 429.287866546744 232.44191694701985, 431.28295456416623 227.79394691373585 M423.02581110144035 242.82964757121874 C425.39471133170235 238.27010373428126, 428.07340482902 234.04144850290263, 431.7586203257518 227.8369245215276" stroke="#4A90D9" stroke-width="2" fill="none"></path></g><g><path d="M432.15222677513515 227.60211749560713 C434.9742680282757 225.05148845346903, 437.4104425808911 222.91823151436594, 444.47919716084056 216.72542761098043 M431.6144485473435 227.90380945931454 C436.47689339706875 223.95336334967715, 441.3403097820142 219.92015642480678, 444.8805840134075 216.57240126031772" stroke="#4A90D9" stroke-width="2" fill="none"></path></g><g><path d="M445.0386898307994 216.4045488637709 C450.60820022718315 214.4452068673803, 457.1651892224376 212.36299092546278, 461.1401137663195 210.63183848657866 M445.0948603286847 216.82246257673035 C451.2329006504053 214.3996471919028, 457.41099085562126 212.18550287344107, 461.1223850921912 210.94647928317127" stroke="#4A90D9" stroke-width="2" fill="none"></path></g><g><path d="M461.60399247573395 211.23370296022895 C467.775376661416 210.56331244921282, 475.25883978438446 210.6063017525698, 478.6367228368863 211.25441058053568 M461.3966128088967 210.58243136901334 C465.35720135518187 210.63445429719127, 469.5966545809934 210.56835867535884, 478.423197417807 210.71347300827918" stroke="#4A90D9" stroke-width="2" fill="none"></path></g><g><path d="M518.191135401455 259.3052589755974 C528.5207087383054 250.1964183131334, 538.1153972280525 239.97217406409263, 548.9178973102362 231.387069113666 M519.9748388657553 260.9149226302616 C528.2831072969873 252.0096513117218, 538.4125358212149 242.0154570351459, 550.2929237455803 229.80124501558433" stroke="#4A90D9" stroke-width="2.5" fill="none"></path></g><g><path d="M541.6989140807588 231.9771424674012 C543.0755446862206 230.66517600718697, 545.3878572962607 230.50590985251486, 549.4564296105356 230.70519134184113 M542.2758761266554 232.16169001538915 C544.9912966527905 231.31141231068506, 548.2683204747864 230.9144078641221, 550.1062957175824 230.40842913513237" stroke="#4A90D9" stroke-width="2" fill="none"></path></g><g><path d="M548.5395107663794 238.01492999745733 C548.6898955980147 236.9201780376329, 549.4467496719824 234.87017950540542, 549.2186325822357 230.5149231360246 M547.9559908532165 238.03301869424308 C549.0492178208366 235.3369465832699, 549.3395849372142 232.0123817564785, 549.7485672871218 230.24339944115079" stroke="#4A90D9" stroke-width="2" fill="none"></path></g><g><path d="M345.0335857252604 160.80675587052184 C345.0335857252604 160.80675587052184, 345.0335857252604 160.80675587052184, 345.0335857252604 160.80675587052184 M345.0335857252604 160.80675587052184 C345.0335857252604 160.80675587052184, 345.0335857252604 160.80675587052184, 345.0335857252604 160.80675587052184 M346.99039942959257 170.25743215219003 C350.7144157806255 167.75683059028165, 353.5629546600029 163.44909046371106, 354.9169454920744 162.18167872917 M347.5589215437165 170.04226390350956 C348.9610017047811 168.99898520862277, 350.32105025800337 166.97867231041081, 355.1339240551606 161.3659571612165" stroke="none" stroke-width="1" fill="none"></path><path d="M353.2650430896442 158.97075591463476 C354.4436311850317 159.53326367469884, 355.35899868754757 161.07257989049901, 356.0323513675716 162.43976231690294 C356.70570404759565 163.80694474330687, 357.7766728518544 165.88402636352018, 357.30515916978845 167.17385047305842 C356.8336454877225 168.46367458259667, 354.4916911163501 169.51312261030444, 353.20326927517584 170.1787069741324 C351.91484743400156 170.84429133796039, 350.7526734932158 171.2087660573486, 349.5746281227426 171.16735665602621 C348.39658275226935 171.12594725470382, 347.2311787483914 170.89774212903112, 346.1349970523366 169.93025056619805 C345.03881535628176 168.962759003365, 343.16615615259997 166.9001881366986, 342.9975379464135 165.3624072790278 C342.82891974022704 163.82462642135698, 344.32941577040646 161.90359482399808, 345.1232878152178 160.70356542017316 C345.91715986002913 159.50353601634825, 346.48416515496524 158.53823622441152, 347.7607702152816 158.16223085607825 C349.0373752755979 157.78622548774499, 351.74147175780314 158.40118273135585, 352.7829181771157 158.4475332101736 C353.8243645964282 158.49388368899133, 353.98295328997784 158.34229553694735, 354.0094487311569 158.44033372898465 M352.38987553567154 160.05782884791012 C353.7387507213366 160.64821465821566, 355.8285239447845 160.16565211192963, 356.4364708227388 161.52812581294623 C357.0444177006931 162.89059951396283, 356.5455199715565 166.7750218491511, 356.03755680339754 168.23267105400964 C355.5295936352386 169.69032025886818, 354.3447494864084 169.5007826195861, 353.38869181378516 170.27402104209744 C352.43263414116194 171.0472594646088, 351.5290391259351 172.77288623084533, 350.3012107676581 172.87210158907783 C349.0733824093811 172.97131694731033, 347.21562013013977 171.86935361527875, 346.021721664123 170.8693131914925 C344.8278231981062 169.86927276770624, 343.2507137454306 168.26258750822433, 343.1378199715576 166.87185904636024 C343.0249261976846 165.48113058449616, 344.3007289196433 164.04086345852807, 345.3443590208849 162.52494242030804 C346.3879891221265 161.009021382088, 348.22417996035995 158.21710337666022, 349.3996005790071 157.77633281704 C350.5750211976542 157.33556225741975, 351.6853015088779 159.42979839183653, 352.3968827327677 159.8803190625867 C353.10846395665754 160.33083973333686, 353.3893864369921 160.6108326086313, 353.6690879223459 160.47945684154092" stroke="#000000" stroke-width="2" fill="none"></path></g><g><path d="M350.18021766763394 177.17894391750343 C348.9311350682238 186.5882639102819, 349.84849185957756 193.78390737468766, 349.8233550162886 208.536396499774 M349.4691131157327 178.88483419445245 C350.6131584907199 190.89359191465695, 349.59105482805865 200.2502245440914, 350.90162096036636 210.86067625973143" stroke="#000000" stroke-width="2" fill="none"></path></g><g><path d="M319.166327576746 191.0464603005096 C337.4284954256032 189.9255880752452, 359.6257437850854 189.5407540088667, 378.4537571589781 190.91176786235522 M319.37744342183885 189.59970488362998 C339.4881509783514 189.599417065689, 358.997035954256 190.228398355935, 380.1676705767129 189.7585352089888" stroke="#000000" stroke-width="1.8" fill="none"></path></g><g><path d="M350.2964821741651 338.55750869562866 C350.18553765788954 348.2621515437951, 351.5188817338521 353.4465859760767, 348.44410108178954 358.4573733907524 M350.4998524523975 339.1403623501509 C350.4948294736792 347.79344135482233, 350.33487069164437 355.5708217702418, 349.1424940568367 359.65109028818546" stroke="#000000" stroke-width="1.5" fill="none"></path></g><g><path d="M320.7257959981798 358.33868215835736 C337.92831465324025 359.9379638255217, 358.7706671169852 360.2115638941311, 380.0872328095461 359.41079595774175 M320.4984108859427 359.29114889403263 C339.89401319958756 359.4355594244084, 359.68568921689274 360.1725506434409, 380.35939750645906 359.64680678833713" stroke="#000000" stroke-width="1.5" fill="none"></path></g><g><path d="M315.9983385614801 363.46903543782696 C315.9983385614801 363.46903543782696, 315.9983385614801 363.46903543782696, 315.9983385614801 363.46903543782696 M315.9983385614801 363.46903543782696 C315.9983385614801 363.46903543782696, 315.9983385614801 363.46903543782696, 315.9983385614801 363.46903543782696 M317.75663360399335 367.80810700623454 C320.0427909156495 365.95835966242157, 322.01774094393073 363.08900287688056, 322.5063213843826 361.5816337506958 M317.7179079366085 367.9351884662555 C319.7450919036181 365.45361252131937, 321.0621670726205 363.20542915670774, 323.12290222133987 361.65170614464967 M321.912026002903 368.6557391802443 C322.50772036185873 368.3852687898685, 323.1028872908211 367.722464878817, 324.7795261427399 365.63404117766885 M322.1939685273785 368.8626506830269 C322.76477316951235 367.77163650338565, 323.4261924803935 367.05643461287605, 324.7506384699025 365.8880648530763" stroke="none" stroke-width="0.5" fill="none"></path><path d="M319.1072085188222 361.8873894825077 C319.9909952151818 361.65196840023265, 321.31248679657887 361.3939179341392, 322.18714481107384 361.5018968414456 C323.0618028255688 361.609875748752, 323.9978646595729 361.793095821203, 324.35515660579205 362.53526292634615 C324.7124485520112 363.2774300314893, 324.52840403090113 365.0852117460412, 324.330896488389 365.9548994723047 C324.13338894587685 366.8245871985682, 323.89780189695716 367.29890184947357, 323.1701113507192 367.7533892839271 C322.44242080448123 368.20787671838065, 320.86943960033295 368.6997058476064, 319.96475321096113 368.68182407902594 C319.0600668215893 368.66394231044546, 318.4412613277718 368.14034515772244, 317.74199301448834 367.6460986724443 C317.04272470120486 367.1518521871661, 316.07800505271484 366.391525105874, 315.76914333126035 365.7163451673571 C315.46028160980586 365.04116522884016, 315.1370443092007 364.3387902094602, 315.8888226857615 363.59501904134277 C316.64060106232233 362.8512478732253, 319.6221246063723 361.50243468279604, 320.27981359062534 361.2537181586524 C320.93750257487835 361.0050016345088, 320.0506884425594 362.17342070244393, 319.8349565912796 362.10271989648106 M319.00491257705994 361.1396305458057 C319.45158618103676 360.8064366312531, 320.09897918237 362.34126265817866, 320.77996989114234 362.70861806525824 C321.4609605999147 363.0759734723378, 322.4575374227611 362.8795286859844, 323.0908568296941 363.3437629882832 C323.72417623662705 363.80799729058197, 324.67048179305635 364.5191535452309, 324.57988633274033 365.494023879051 C324.4892908724243 366.4688942128711, 323.32477625769013 368.6185901417926, 322.54728406779793 369.1929849912039 C321.76979187790573 369.7673798406152, 320.85059032255896 368.96208853616093, 319.914933193387 368.94039297551876 C318.97927606421507 368.9186974148766, 317.7481213475156 369.5721237367372, 316.93334129276633 369.0628116273509 C316.11856123801704 368.55349951796467, 315.2461064676944 366.6212907435428, 315.02625286489143 365.88452031920116 C314.80639926208846 365.14774989485954, 314.9014655303069 365.1820299087666, 315.61421967594856 364.6421890813011 C316.32697382159023 364.10234825383566, 318.78114128098633 363.1067300683688, 319.3027777387414 362.64547535440835 C319.82441419649643 362.1842206404479, 318.8835248077258 361.86967166490666, 318.7440384224788 361.87466079753847" stroke="#000000" stroke-width="1" fill="none"></path></g><g><path d="M378.2811157917578 361.9600819578198 C378.2811157917578 361.9600819578198, 378.2811157917578 361.9600819578198, 378.2811157917578 361.9600819578198 M378.2811157917578 361.9600819578198 C378.2811157917578 361.9600819578198, 378.2811157917578 361.9600819578198, 378.2811157917578 361.9600819578198 M377.8244457953307 368.8414952803538 C379.1067692006821 367.05231672073177, 380.4567642010837 365.7781781653129, 383.0470185604998 362.8871469728888 M377.80850587512026 368.62668967708396 C379.69548386383843 366.5833255007873, 381.7208820356163 364.15620384033474, 382.6339366485256 362.90225703531104" stroke="none" stroke-width="0.5" fill="none"></path><path d="M379.92712974200515 361.20519226489165 C380.6094120698532 361.15304762152664, 381.1187205117475 361.34517162353745, 381.6111905749667 361.63555037407497 C382.10366063818594 361.9259291246125, 382.4790000949018 362.0166755522021, 382.88195012132053 362.9474647681169 C383.2849001477393 363.8782539840317, 384.16010118971246 366.1609878769048, 384.0288907334793 367.2202856695638 C383.8976802772461 368.2795834622228, 382.9221269303625 369.10096848985165, 382.0946873839213 369.3032515240707 C381.26724783748017 369.5055345582897, 379.8534375061217 368.68947142287385, 379.06425345483245 368.4339838748778 C378.2750694035432 368.17849632688177, 377.7284638782183 368.3094367153089, 377.3595830761859 367.7703262360943 C376.99070227415353 367.23121575687975, 376.7450550719132 366.1128509845918, 376.8509686426383 365.1993209995903 C376.9568822133634 364.2857910145889, 377.30404586211506 362.88649030470833, 377.9950645005363 362.2891463260858 C378.6860831389575 361.6918023474633, 380.45589039341996 361.7319665664601, 380.9970804731657 361.6152571278551 C381.5382705529114 361.49854768925013, 381.2849818752993 361.7739866237718, 381.24220497901047 361.588889694456 M381.7399995478994 360.45258864344055 C382.5526421836063 360.4354701977422, 383.8503859346343 361.51334074148707, 384.1760009741849 362.0322312160092 C384.5016160137355 362.5511216905314, 383.91769646484204 362.6538013627476, 383.693689785203 363.5659314905734 C383.46968310556394 364.47806161839924, 383.32030329704276 366.80294951251994, 382.83196089635055 367.50501198296433 C382.34361849565835 368.2070744534087, 381.6307516572869 367.70750931721807, 380.7636353810498 367.7783063132398 C379.89651910481274 367.8491033092615, 378.1832803174306 368.1501400060762, 377.629263238928 367.9297939590945 C377.07524616042537 367.70944791211286, 377.5271419555438 367.13853553195213, 377.43953291003396 366.4562300313497 C377.3519238645241 365.7739245307473, 377.2430488080301 364.80111321570223, 377.1036089658687 363.8359609554802 C376.96416912370734 362.8708086952581, 376.1999517525097 361.1971543647312, 376.60289385706557 360.6653164700175 C377.0058359616214 360.1334785753038, 378.8184939292601 360.4083222732692, 379.5212615932039 360.6449335871978 C380.2240292571477 360.88154490112635, 380.7174907114186 361.7459802317344, 380.81949984072844 362.08498435358877" stroke="#000000" stroke-width="1" fill="none"></path></g><text x="400" y="560" text-anchor="middle" font-family="sans-serif" font-size="16" fill="#222" font-style="italic">Permanent punishment is mutual suicide in an infinite game.</text></svg>