<?xml version="1.0" encoding="UTF-8"?>
<svg width="800" height="600" viewBox="0 0 800 600" xmlns="http://www.w3.org/2000/svg"><rect width="800" height="600" fill="#FFFFFF"></rect><g><path d="M376.73200613095185 130.06120063156493 C376.73200613095185 130.06120063156493, 376.73200613095185 130.06120063156493, 376.73200613095185 130.06120063156493 M376.73200613095185 130.06120063156493 C376.73200613095185 130.06120063156493, 376.73200613095185 130.06120063156493, 376.73200613095185 130.06120063156493 M368.94498171475084 151.40406058306309 C379.1624740493494 146.82480933247703, 385.1034731317719 137.86903276112267, 398.71993961292105 121.68807619163351 M370.14123594019884 152.75309651216057 C380.24251450522115 142.56758649521785, 387.30336955586483 134.81322118817644, 396.9145640805252 122.1368262357563 M375.09882096403106 161.5175037018248 C386.7547492978372 149.3633333832036, 396.4735233441908 138.50835493103557, 407.19734024181474 123.26263858371748 M375.6530153345684 162.1659283801971 C387.7623408623974 148.26676089768756, 397.7060403845283 136.56569699649407, 408.3715317594517 122.36251226716199 M377.37311460707355 174.54027467780534 C389.60532360369854 158.68582772806312, 401.6313452345569 143.11730653555335, 416.98280592989323 128.32763014613923 M378.56824656492296 172.2849657056792 C389.5100338789103 161.05262167036852, 401.46816104477847 149.54559075991844, 417.92217408478416 128.10483560283737 M390.1172419191626 178.30091706265037 C402.98870210690865 165.65507827097903, 412.59508984615877 151.9199324355925, 423.15651773576366 133.5357091084212 M389.82483082635116 177.40014638914158 C400.533046665103 161.46628168640007, 413.65284238974533 148.10441197405214, 425.198594555348 134.00192082442268 M399.40311795399026 180.05563309120475 C407.34756575392004 168.59949778904806, 418.4888888231858 159.14796132338455, 434.0300908734894 144.51806364627456 M397.25561224026427 181.67348618205241 C406.11079635361125 174.31778023967064, 411.69813813211044 165.10758658827504, 432.0208797866821 142.384416745676 M410.7187983260511 180.42523630471172 C416.08209423159246 175.18027579567507, 425.49911527205427 169.21718732229468, 427.7185875627302 159.37076801165287 M413.6088957237574 179.6514093074705 C418.5672442663253 172.37871791773358, 425.49056379574427 167.20585751834363, 428.49731203848 160.8544310995724" stroke="none" stroke-width="1.2" fill="none"></path><path d="M414.0139024444224 123.05097094406082 C419.878679470121 125.70549884264956, 426.5552977330389 133.9986479461654, 428.8736227689805 140.0928340625276 C431.1919478049221 146.1870201788898, 430.0487708663508 153.51578955335992, 427.923852660072 159.61608764223408 C425.79893445379315 165.71638573110823, 421.64467752552173 173.51100652260885, 416.1241135313076 176.69462259577244 C410.6035495370935 179.87823866893604, 401.3610104822774 179.9216680072473, 394.80046869478747 178.71778408121557 C388.23992690729756 177.51390015518385, 381.02017974974274 174.32162340751483, 376.76086280636804 169.4713190395821 C372.50154586299334 164.6210146716494, 369.2088987372048 156.2308752586378, 369.2445670345393 149.61595787361927 C369.28023533187377 143.00104048860072, 372.6640936383068 134.59091110211654, 376.9748725903751 129.7818147294708 C381.2856515424435 124.97271835682504, 388.20522338630957 121.53306382444555, 395.1092407469495 120.76137963774474 C402.0132581075895 119.98969545104393, 414.1285542809143 123.87226467976687, 418.39897675421474 125.15170960926592 C422.6693992275152 126.43115453876497, 421.1812139598685 127.97851790624276, 420.7317755867523 128.43804921473907 M409.0620155548391 119.37846237089718 C414.92798947076005 120.96098570051811, 421.51797792006226 128.29304162496484, 425.1204088127184 133.55893927975302 C428.7228397053745 138.8248369345412, 431.2546906420363 144.73834273326457, 430.6766009107757 150.9738482996262 C430.09851117951507 157.20935386598785, 426.03731653076784 166.01712767584144, 421.6518704251548 170.97197267792285 C417.2664243195418 175.92681768000426, 410.94241683746094 179.97554655642426, 404.36392427709734 180.7029183121147 C397.78543171673374 181.43029006780512, 387.69367842123876 179.15400795396914, 382.1809150629731 175.3362032120654 C376.66815170470744 171.51839847016169, 372.8531972498413 164.06493696948087, 371.28734412750333 157.79608986069223 C369.7214910051654 151.5272427519036, 370.1580897864308 143.67877387336745, 372.78579632894525 137.72312055933352 C375.4135028714597 131.7674672452996, 381.2392508690563 124.73682761285507, 387.05358338259 122.06216997648873 C392.86791589612363 119.3875123401224, 404.50223700952506 121.80917212357562, 407.67179141014714 121.67517474113555 C410.8413458107692 121.54117735869548, 406.46414483722106 121.1820449500463, 406.0709097863223 121.25818568184827" stroke="#CC3333" stroke-width="2.4" fill="none"></path></g><g><path d="M383.9315021276727 136.31962702047537 C383.9315021276727 136.31962702047537, 383.9315021276727 136.31962702047537, 383.9315021276727 136.31962702047537 M383.9315021276727 136.31962702047537 C383.9315021276727 136.31962702047537, 383.9315021276727 136.31962702047537, 383.9315021276727 136.31962702047537 M380.1287946037305 152.79308265459034 C386.075211829371 145.91578184618476, 389.1610897323608 141.395546785605, 398.56263217914744 132.97761892255363 M379.62211036700324 150.55605463246692 C385.6439293846106 144.934814047125, 390.1913261251242 140.0986263043352, 397.8455303026257 130.91334089310777 M381.11516757549634 160.04467195543484 C387.651327434989 152.5519934021389, 397.5847017697354 142.35098751802934, 405.396011498055 133.5310559336197 M383.60533158253384 158.57471556313365 C387.0429035741796 154.25692450451228, 391.69459655086155 147.81979917340243, 406.04325599479586 132.3994778281723 M386.24554125950624 166.10187940636146 C396.979613335311 156.69046509774495, 403.1022122566223 146.38278348607648, 413.26031842111274 136.0817370776607 M386.1962867175252 165.4338115952298 C392.30569870178675 157.97454273305303, 397.6343352042922 151.5949860006141, 413.2402408466444 135.64530499458132 M392.18902648438785 169.10415009069206 C402.5120222245135 158.8024037555967, 413.3124273006194 146.23763880612242, 415.66074771645555 140.81101955161225 M393.4583068481694 169.01185325189056 C400.7297058941849 158.50499290528495, 410.0808135692467 148.9169149222349, 417.3989863113387 139.5061223992489 M400.981772699431 171.5952103559856 C409.23591480085094 162.2745311671816, 415.04865113134156 151.50903034821502, 424.34386534202935 146.64792434277226 M398.3005522002634 171.62540432555815 C406.57561035685717 162.54847078255943, 416.0126941694228 154.29197333253146, 422.09919269852713 144.3579288215367" stroke="none" stroke-width="0.9" fill="none"></path><path d="M396.4829870541662 129.50467929789392 C400.4499856668922 128.64258315502627, 406.48799827742346 130.50123921832508, 410.4119632679034 132.738020781273 C414.3359282583833 134.97480234422093, 418.63742253049617 138.76393508634, 420.02677699704594 142.9253686755815 C421.4161314635957 147.08680226482298, 420.39960866874094 153.5013326057623, 418.7480900672021 157.70662231672185 C417.09657146566326 161.9119120276814, 413.93744152650027 166.14380990616468, 410.117665387813 168.15710694133884 C406.2978892491258 170.170403976513, 400.29519968289526 170.73469141401318, 395.8294332350788 169.7864045277669 C391.36366678726233 168.83811764152063, 386.2105357949632 165.7671028865568, 383.3230667009143 162.46738562386125 C380.4355976068654 159.16766836116568, 378.3984742531648 154.35151175466189, 378.50461867078536 149.98810095159345 C378.6107630884059 145.62469014852502, 380.56758305042433 139.6937375423538, 383.9599332066377 136.28692080545073 C387.35228336285104 132.88010406854767, 396.18747555527534 130.4866136623593, 398.85871960806554 129.54720053017502 C401.52996366085574 128.60778739799073, 400.10301229662247 130.12945725721363, 399.98739752337883 130.65044201234508 M403.64889470025406 128.74809581903128 C407.8656684428332 129.118320707177, 412.98074619977876 132.26711923474048, 415.7756906156576 135.97713641231496 C418.5706350315364 139.68715358988945, 420.3311980876835 146.4810135453619, 420.4185611955269 151.0081988844782 C420.50592430337025 155.5353842235945, 419.06952976488685 160.1773321183998, 416.2998692627178 163.14024844701282 C413.5302087605487 166.10316477562586, 408.0853216493631 168.00007533240998, 403.80059818251243 168.78569685615645 C399.51587471566177 169.57131837990292, 394.5829813928645 169.78901646481944, 390.5915284616139 167.8539775894917 C386.6000755303633 165.91893871416397, 381.4793173742758 161.43180465581904, 379.8518805950088 157.17546360418996 C378.22444381574184 152.91912255256088, 379.07861873789585 146.5332752656389, 380.8269077860121 142.31593127971723 C382.57519683412835 138.09858729379556, 386.4484498861069 133.84196231641982, 390.3416148837062 131.87139968865992 C394.2347798813055 129.90083706090002, 402.2217421555622 130.97022031630289, 404.1858977716077 130.49255551315787 C406.1500533876532 130.01489071001285, 402.47452922657646 128.5282363851827, 402.1265485799791 129.00541086978987" stroke="#CC3333" stroke-width="1.8" fill="none"></path></g><g><path d="M384.34398900128224 209.54365659141564 C387.37816849913895 254.5301368974656, 386.32127939177707 298.560345996024, 386.36622876195673 320.3194406743176 M385.4703988122893 210.07379478412636 C385.9639377383322 248.830301624733, 385.7563843550172 287.5100182325663, 384.50435894715497 320.3214309377584" stroke="#CC3333" stroke-width="2" fill="none"></path></g><g><path d="M416.02181231351125 210.29201679825317 C414.75781218010064 238.26903310992992, 414.75863031102244 266.63300961003085, 416.27837689098806 321.3224402832469 M415.1240759682883 209.41520159423578 C414.3178131789049 245.77596257432918, 414.4414133680731 280.5032924970089, 415.5249964962418 319.7231864438164" stroke="#CC3333" stroke-width="2" fill="none"></path></g><g><path d="M392.7032929661221 349.3218424323031 C392.7032929661221 349.3218424323031, 392.7032929661221 349.3218424323031, 392.7032929661221 349.3218424323031 M392.7032929661221 349.3218424323031 C392.7032929661221 349.3218424323031, 392.7032929661221 349.3218424323031, 392.7032929661221 349.3218424323031 M395.42102978292826 359.6405103843232 C396.88104088345113 355.1913133749445, 400.5397310511284 352.5600408277546, 404.4868769274549 347.0383559100868 M394.2870505699391 358.922910375121 C398.1196022980426 355.7430746376895, 401.33802241904823 350.72192849845806, 405.2536064093722 347.18760821227414 M399.41936142422276 365.30880471847036 C402.9860378664402 361.9109238019198, 404.19427203185757 358.94478900426054, 410.51599750423395 354.54665872904303 M399.5696376869495 365.3393945356006 C401.58171650776586 362.100792079872, 404.9502417710034 360.33911159899645, 409.4898583244178 354.0776266057601" stroke="none" stroke-width="1" fill="none"></path><path d="M397.9022827922402 346.7152347595484 C399.76869759629005 346.18067630358166, 403.4524730994606 345.7630776844927, 405.05153872098583 346.53202111278796 C406.6506043425111 347.3009645410832, 406.76139467662165 349.5286967155534, 407.4966765213917 351.3288953293199 C408.23195836616173 353.1290939430864, 410.04337450185665 355.4967584196361, 409.46322978960626 357.3332127953869 C408.8830850773559 359.1696671711377, 405.75109300265 361.26386438931394, 404.0158082478895 362.34762158382455 C402.28052349312895 363.43137877833516, 400.72036297981055 363.95014250945485, 399.051521261043 363.8357559624506 C397.3826795422754 363.72136941544636, 395.45926591011244 363.1687390967476, 394.0027579352841 361.66130230179925 C392.5462499604557 360.15386550685093, 390.4833431804458 356.90029256219356, 390.31247341207273 354.79113519276063 C390.1416036436997 352.6819778233277, 391.36068847890186 350.46357541742327, 392.97753932504577 349.00635808520184 C394.5943901711897 347.5491407529804, 398.6643338874941 346.32724104210297, 400.0135784889361 346.0478311994322 C401.36282309037813 345.76842135676145, 401.2487154834929 347.0007501868599, 401.0730069336978 347.32989902917745 M401.8282473848822 345.5952031319581 C403.6011098164756 346.01758583574036, 406.5490839562273 348.55616680359924, 407.89633194879065 350.2646464997673 C409.24357994135397 351.9731261959354, 410.0047982593187 354.2697827584419, 409.91173534026206 355.8460813089664 C409.8186724212054 357.4223798594909, 408.92987877025905 358.4496420978313, 407.3379544344508 359.7224378029141 C405.74603009864256 360.9952335079969, 402.3723374973718 362.9046173210342, 400.3601893254125 363.48285553946306 C398.34804115345315 364.0610937578919, 396.6300317493457 363.89623279448386, 395.26506540269486 363.1918671134873 C393.90009905604404 362.4875014324908, 393.06050879856423 360.95996247567564, 392.17039124550763 359.25666145348384 C391.28027369245103 357.55336043129205, 389.5969403352331 355.1219356468319, 389.92436008435516 352.9720609803367 C390.2517798334772 350.82218631384154, 392.07830029332183 347.4304976107522, 394.13490974023983 346.35741345451277 C396.19151918715784 345.28432929827335, 401.0222298473926 346.5416005212497, 402.26401676586323 346.5335560429001 C403.50580368433384 346.5255115645505, 401.5319437515413 346.10333041556976, 401.58563125106355 346.30914658441526" stroke="#000000" stroke-width="2" fill="none"></path></g><g><path d="M400.21215784105243 371.2049302626021 C401.5247868698185 383.82573950143444, 401.9131034224973 396.14786822331524, 401.8764245677832 403.6319816556308 M400.14771970999675 373.7297726815441 C401.1807922089713 382.195769050199, 400.39675990582873 391.2374282382079, 399.44431399258826 404.031733247245" stroke="#000000" stroke-width="2" fill="none"></path></g><g><path d="M401.3095987533825 404.9497758215958 C396.7945364417633 411.807071416251, 394.4585578802174 420.74458526803227, 389.7970496694668 434.4893551367747 M400.62332470643787 404.28029611185303 C396.243442733837 413.90567949695003, 392.79035702122934 422.14139419006847, 387.9642314757745 434.7194364997699" stroke="#000000" stroke-width="2" fill="none"></path></g><g><path d="M400.65909526863913 406.1119520568328 C405.55403905849573 413.0272176491376, 406.50446280040165 422.9947796115786, 411.3848734087028 434.9052319299552 M400.2868092332786 405.65834560857377 C403.40524810208103 413.8021143787621, 407.3259353312599 420.22105196266455, 412.7258337818875 434.18770800803105" stroke="#000000" stroke-width="2" fill="none"></path></g><g><path d="M399.0866444486977 382.2133180142105 C393.4519215280095 389.4264175918853, 391.3417384090424 395.515917993886, 378.02197251281183 409.925642576682 M400.2498992483657 382.65821725957534 C395.3872267479672 389.0804636984399, 390.59133163719304 394.83557713216254, 380.8740059413756 410.1884449233722" stroke="#000000" stroke-width="2" fill="none"></path></g><g><path d="M398.5972894157658 380.12976753825643 C404.3767716145513 389.6447758731361, 411.00789862022253 397.7040086981339, 421.3412325757465 410.52848139145937 M399.19776699971067 382.37959258609754 C406.9585743257741 391.6644315265778, 413.7994750447517 401.1791067494602, 420.27085561891727 410.2736414390888" stroke="#000000" stroke-width="2" fill="none"></path></g><g><path d="M99.18420077178752 434.8303658057528 C264.54951572686406 437.6586049687109, 426.7868311283691 438.1119728415095, 699.4846193571764 434.6636173805503 M99.61436040689738 434.6349439528593 C242.6441016369527 434.61921216596966, 384.4182727645101 434.4557412938581, 700.2335253714409 434.62325334568203" stroke="#000000" stroke-width="2.2" fill="none"></path></g><g><path d="M102.04829974581303 437.4355600230588 C117.64462894490515 427.05204524255373, 133.2810028722984 417.9184729418666, 151.7495029236087 407.48982191210627 M101.0143678868327 434.74095324951395 C113.81705019528057 428.35890998249465, 127.56521529673952 420.7093128926111, 150.63797940291016 409.71602541971555 M147.94869285754595 408.7527970360971 C168.46077613485255 417.0383461832894, 185.4359340378146 428.7252156609956, 199.8250418712456 436.7275296760115 M149.57510472556768 410.70551488380585 C159.99454907543495 414.13564419434186, 171.96738903636398 419.6802757348262, 200.8932526914943 435.85750031244777" stroke="#000000" stroke-width="1.2" fill="none"></path></g><g><path d="M599.1113886127357 437.2705039292444 C618.5827987187071 424.58008523117934, 639.0921115218607 418.9917238769699, 658.6707043916822 406.0631629272369 M598.6818358791185 435.38227987874706 C622.9801303292231 423.45466987660654, 645.8836644697478 413.4042825929753, 659.3921709599848 405.2942861323393 M658.4517651600435 402.9295473398191 C677.9151409068684 416.0388040256388, 698.3616531094506 425.31085351209316, 720.9715848036273 434.976121196716 M658.9582574713245 404.56018942971525 C675.625087849702 412.3776142932246, 690.7175511531602 421.68532083568465, 721.2988376420768 436.1528490223602" stroke="#000000" stroke-width="1.2" fill="none"></path></g><text x="400" y="560" text-anchor="middle" font-family="sans-serif" font-size="16" fill="#222" font-style="italic">"Now I am become Death, the destroyer of worlds."</text></svg>