<?xml version="1.0" encoding="UTF-8"?>
<svg width="800" height="600" viewBox="0 0 800 600" xmlns="http://www.w3.org/2000/svg"><rect width="800" height="600" fill="#FFFFFF"></rect><g><path d="M285.35834757070336 240.10814910827287 C285.35834757070336 240.10814910827287, 285.35834757070336 240.10814910827287, 285.35834757070336 240.10814910827287 M285.35834757070336 240.10814910827287 C285.35834757070336 240.10814910827287, 285.35834757070336 240.10814910827287, 285.35834757070336 240.10814910827287 M288.8506035021465 251.17107441383484 C292.0163189920842 243.2576321368685, 296.88804024705723 239.35279688779497, 305.280170391497 229.56968996929209 M288.35431619979045 249.43433589304885 C291.1360291129717 245.03142657611806, 296.029143735102 240.86109163868676, 303.640534433901 230.64993581494423 M290.6641659407195 257.85707851854386 C296.8809083603287 249.48023627833018, 300.54890008610556 245.41575589982347, 310.83741970198827 234.64111184148686 M292.6487540959442 257.33493463629384 C297.58537616754063 250.0100130586084, 304.42417564635974 243.2333705447121, 310.83597106526 233.99885750107683 M300.53117431263837 260.0730238398474 C306.4491657905443 254.2983211473319, 310.80708303401633 247.97983806212952, 315.09408708800817 243.78470587283883 M300.7370557498537 257.9277612509506 C304.7147703202579 254.03994959006408, 309.6421148030506 250.34591191927524, 314.6496261701356 244.51986354659334" stroke="none" stroke-width="1" fill="none"></path><path d="M301.3387423481165 229.8041345501102 C304.29732056164016 229.81557797579916, 308.7315706516924 232.24238202020865, 310.9601465926931 234.7620810798386 C313.1887225336938 237.28178013946854, 314.46080132200404 241.82966368509187, 314.7101979941209 244.92232890788986 C314.95959466623776 248.01499413068785, 314.3653737938241 251.02677104657087, 312.4565266253943 253.3180724166265 C310.5476794569645 255.60937378668214, 306.45254096193844 257.9228518618631, 303.2571149835422 258.67013712822364 C300.0616890051459 259.4174223945842, 295.8934320290741 259.1851041342613, 293.2839707550167 257.80178401478986 C290.6745094809593 256.41846389531844, 288.8733634520712 253.37428246414368, 287.60034733919764 250.37021641139518 C286.3273312263241 247.36615035864668, 284.7686291253841 242.74027153557066, 285.6458740777752 239.77738769829884 C286.5231190301663 236.81450386102702, 289.81031831988196 234.21462110684985, 292.86381705354415 232.59291338776427 C295.91731578720635 230.9712056686787, 301.81088678776047 230.03294956271142, 303.9668664797484 230.04714138378543 C306.1228461717363 230.06133320485944, 305.91014414183314 232.36839146862917, 305.7996952054715 232.67806431420826 M306.0712692116977 231.0417018279088 C308.78220398617657 231.77690143604931, 310.93312052444384 234.60542213505815, 312.31985395261034 237.7263356687051 C313.70658738077685 240.84724920235206, 315.1272150612383 246.34993812730963, 314.3916697806968 249.7671830297905 C313.65612450015533 253.18442793227135, 310.8314263041511 256.5653430401145, 307.90658226936154 258.22980508359024 C304.981738234572 259.894267127066, 299.7348112804443 260.3479699977797, 296.84260557195955 259.753955290645 C293.9503998634748 259.1599405835103, 292.45936506119057 256.8897547357771, 290.553348018453 254.66571684078195 C288.6473309757154 252.44167894578683, 285.99349532283736 249.5892783327472, 285.40650331553417 246.40972792067424 C284.819511308231 243.2301775086013, 285.11768333084007 238.3537474868828, 287.03139597463365 235.58841436834422 C288.94510861842724 232.82308124980563, 293.601822893635 230.61174066938878, 296.88877917829575 229.81772920944266 C300.1757354629565 229.02371774949654, 304.9590411289678 230.40587751442968, 306.75313368259793 230.8243456086675 C308.5472262362281 231.24281370290532, 307.69383415898255 231.7610678930837, 307.65333450007677 232.32853777486952" stroke="#000000" stroke-width="2" fill="none"></path></g><g><path d="M298.4606870675664 263.54361279419885 C298.38139793572066 284.1324734434835, 299.47249144442077 303.38153780115715, 301.86708497661124 314.1354773201009 M300.6186703623832 261.6240345636728 C301.02516005756564 273.2372469575723, 299.9530021333609 286.8710935361162, 301.5071228473021 315.37063243752357" stroke="#000000" stroke-width="2" fill="none"></path></g><g><path d="M301.42584243381094 315.09598621093267 C298.9135317246435 333.0577021996467, 294.99190602416235 347.9827543633539, 288.64187235929194 368.9038905263435 M301.11874428895084 315.36164826613657 C298.79760729117925 328.2799300603323, 297.2031124323283 340.3251249388866, 289.2630309618301 370.5239490692975" stroke="#000000" stroke-width="2" fill="none"></path></g><g><path d="M302.2872943868261 316.65163251770053 C306.3427889548111 327.50182804054896, 307.6765614668539 340.72369214082244, 315.83969485251123 370.59366237312645 M301.47420397685977 315.50168976843366 C304.83557115024695 326.83273888510695, 306.3463587194352 340.27278536408056, 313.37965841930884 370.7285066675886" stroke="#000000" stroke-width="2" fill="none"></path></g><g><path d="M303.0387624066261 274.19154232763987 C322.8856350004185 270.6728185215815, 345.3414155970654 266.7008092024874, 368.29247891715164 260.1986950956896 M301.189998974927 275.27193864432303 C318.0088198418814 270.8919575713267, 332.335735765729 267.8538563365657, 369.9264896270878 260.5033176455803" stroke="#000000" stroke-width="2" fill="none"></path></g><g><path d="M303.5971737187399 276.00988060482206 C325.36154822859015 283.8493150401423, 349.4753996878288 289.032623280234, 363.94359981382775 288.5522392917688 M301.44547236218096 278.99201795814736 C323.0422333955453 282.9221885235798, 344.20814505039175 286.56503547641023, 365.688944771287 290.51449695153724" stroke="#000000" stroke-width="2" fill="none"></path></g><g><path d="M494.3915574153738 193.91571133340562 C494.3915574153738 193.91571133340562, 494.3915574153738 193.91571133340562, 494.3915574153738 193.91571133340562 M494.3915574153738 193.91571133340562 C494.3915574153738 193.91571133340562, 494.3915574153738 193.91571133340562, 494.3915574153738 193.91571133340562 M497.2379974547553 205.90373850821126 C498.75627059200946 204.6851995807791, 501.141837680118 201.12185440706472, 506.9480938589474 195.93276747120703 M496.452395198818 206.90325569314706 C500.13957464488334 202.98417497861342, 502.36608239038253 199.2988112606987, 506.823920347688 195.3939582395368" stroke="none" stroke-width="1.25" fill="none"></path><path d="M500.3092542770648 191.86660344160654 C502.02446949880374 191.77553069980476, 503.94193227200543 193.10455030673006, 505.22499916853843 194.1009536067261 C506.50806606507143 195.09735690672215, 507.7416010282783 196.27874762729743, 508.0076556562629 197.84502324158282 C508.2737102842475 199.4112988558682, 507.75351122173004 201.8063937937896, 506.821326936446 203.49860729243846 C505.88914265116193 205.19082079108733, 504.0118902696579 207.3085089766986, 502.41454994455864 207.99830423347603 C500.8172096194594 208.68809949025348, 498.73346643125257 208.3654150815206, 497.2372849858506 207.63737883310304 C495.7411035404486 206.90934258468548, 494.3376722919201 205.04142761697645, 493.4374612721466 203.63008674297063 C492.5372502523731 202.21874586896482, 491.63936399470856 200.8316946996768, 491.83601886720953 199.1693335890681 C492.0326737397105 197.50697247845937, 493.20970148860516 194.81781691279528, 494.61739050715244 193.6559200793184 C496.0250795256997 192.49402324584153, 499.3513070606848 192.47953160571123, 500.28215297849323 192.19795258820682 C501.21299889630166 191.9163735707024, 500.13192694800136 191.95081400203048, 500.20246601400305 191.96644597429193 M501.82643578735815 192.033227169474 C503.4423330320312 192.4075590906882, 504.90450961488335 194.1341829009361, 505.8304766814852 195.55647665425315 C506.75644374808707 196.97877040757018, 507.2821461416554 199.04670685726202, 507.3822381869692 200.56698968937621 C507.48233023228295 202.0872725214904, 507.6620561222712 203.48417632330757, 506.4310289533677 204.67817364693823 C505.2000017844641 205.8721709705689, 501.8334822994732 207.47982057411355, 499.99607517354775 207.73097363116023 C498.1586680476223 207.9821266882069, 496.75826263389195 207.16101293898703, 495.4065861978149 206.18509198921828 C494.0549097617378 205.20917103944953, 492.36798143893856 203.46231764565445, 491.88601655708516 201.8754479325478 C491.40405167523176 200.28857821944112, 491.7223388608923 198.08041953662516, 492.51479690669447 196.66387371057823 C493.30725495249663 195.2473278845313, 495.05958830495774 194.06478964809887, 496.6407648318982 193.37617297626625 C498.22194135883865 192.68755630443363, 501.00369024890244 192.55233332902168, 502.00185606833725 192.53217367958257 C503.00002188777205 192.51201403014346, 502.79441178806235 193.03486933296472, 502.6297597485072 193.25521507963165" stroke="#DAA520" stroke-width="2.5" fill="none"></path></g><g><path d="M526.142773207734 275.8421548585467 C526.142773207734 275.8421548585467, 526.142773207734 275.8421548585467, 526.142773207734 275.8421548585467 M526.142773207734 275.8421548585467 C526.142773207734 275.8421548585467, 526.142773207734 275.8421548585467, 526.142773207734 275.8421548585467 M526.6296124415594 286.24328536454965 C529.9277869639291 282.9630752641605, 533.0498416041814 279.3891711219058, 534.6203261099939 277.15066708233434 M527.0833489961983 285.4093766348044 C528.4647291366448 283.4284161141976, 530.2740226482614 281.7086202134185, 534.8012345096098 276.31819462370834" stroke="none" stroke-width="0.9" fill="none"></path><path d="M529.5070714202519 274.14312625610376 C530.8300311442384 273.9718630704445, 532.9896213332075 274.6432325290982, 534.1159614790553 275.3244215656052 C535.242301624903 276.00561060211214, 536.0296229194045 277.04159598385513, 536.2651122953386 278.23026047514554 C536.5006016712726 279.41892496643595, 536.185208438883 281.2193321081672, 535.52889773466 282.45640851334764 C534.8725870304369 283.6934849185281, 533.5886939763899 285.098177666185, 532.3272480700003 285.6527189062282 C531.0658021636108 286.2072601462714, 529.213501946583 286.09563727648066, 527.9602222963229 285.7836559536067 C526.7069426460627 285.4716746307327, 525.4995532649294 284.88399238393225, 524.8075701684394 283.7808309689844 C524.1155870719493 282.6776695540365, 523.5730840311494 280.5024165532218, 523.8083237173828 279.1646874639196 C524.0435634036162 277.82695837461745, 525.0651490334153 276.61628851347575, 526.21900828584 275.7544564331715 C527.3728675382647 274.8926243528673, 530.032577920872 274.2001264963169, 530.7314792319306 273.9936949820942 C531.4303805429893 273.7872634678715, 530.5062812466889 274.37341727336326, 530.4124161521916 274.5158673478353 M529.9194275968596 274.4912018083622 C531.0443474740791 274.54415166999183, 532.7918058844239 274.9686107626195, 533.8973001595626 275.722954480189 C535.0027944347014 276.4772981977585, 536.2904657094514 277.66482580551065, 536.5523932476922 279.01726411377933 C536.814320785933 280.369702422048, 536.3301145190014 282.66581258643254, 535.4688653890075 283.83758432980113 C534.6076162590136 285.0093560731697, 532.855435394184 285.87669890210384, 531.3848984677288 286.04789457399085 C529.9143615412736 286.21909024587785, 527.9264861750785 285.456938036861, 526.6456438302764 284.8647583611233 C525.3648014854743 284.27257868538555, 524.0049628664236 283.58693639423154, 523.6998443989163 282.4948165195644 C523.394725931409 281.4026966448972, 524.2539774148153 279.64184372020065, 524.8149330252322 278.3120391131204 C525.3758886356492 276.9822345060402, 526.0429558876451 275.15172111261734, 527.0655780614181 274.515988877083 C528.0882002351912 273.8802566415486, 530.2024252834174 274.4574042779839, 530.9506660678707 274.4976456999142 C531.698906852324 274.53788712184445, 531.6474421535161 274.65872309318183, 531.5550227681376 274.7574374086645" stroke="#DAA520" stroke-width="1.8" fill="none"></path></g><g><path d="M475.73633859790885 347.30064017297144 C475.73633859790885 347.30064017297144, 475.73633859790885 347.30064017297144, 475.73633859790885 347.30064017297144 M475.73633859790885 347.30064017297144 C475.73633859790885 347.30064017297144, 475.73633859790885 347.30064017297144, 475.73633859790885 347.30064017297144 M477.6563678624116 353.82956711428506 C480.28629813151747 351.2959351189684, 481.4306322822156 349.2040518768795, 483.0051183001618 346.995945217111 M477.5738257166414 354.1377342016848 C479.3584452299607 352.22399249113033, 480.97036834737634 350.18726727197975, 483.4065162231727 347.60001543633695" stroke="none" stroke-width="0.7" fill="none"></path><path d="M480.8204346452366 345.4019989629576 C481.77857948527725 345.6162940321161, 483.3370348590343 346.82169090761863, 484.0573736516382 347.7181183348992 C484.7777124442421 348.6145457621798, 485.282158783191 349.8777899023914, 485.1424674008602 350.78056352664083 C485.0027760185294 351.6833371508903, 483.968590920382 352.46664629327114, 483.21922535765344 353.13476008039584 C482.4698597949249 353.80287386752053, 481.6226127933329 354.6932831199519, 480.646274024489 354.78924624938907 C479.6699352556451 354.88520937882623, 478.2599532123355 354.3007632782952, 477.3611927445902 353.7105388570187 C476.4624322768449 353.1203144357422, 475.5598877048693 352.2755305576764, 475.25371121801703 351.24789972172994 C474.94753473116475 350.22026888578347, 475.0125807546722 348.45783941221674, 475.5241338234765 347.5447538413398 C476.03568689228086 346.63166827046285, 477.4197613751871 346.0691975920566, 478.32302963084317 345.7693862964683 C479.22629788649925 345.46957500088007, 480.37446692287153 345.880000254814, 480.94374335741304 345.7458860678104 C481.51301979195455 345.61177188080677, 481.7068394356278 344.9516000936581, 481.7386882380924 344.9647011744466 M481.0550889491352 345.09777369626477 C482.0850633638791 345.1262892749956, 483.5711863342717 345.15598155739985, 484.30102077781424 346.04454692638336 C485.0308552213568 346.93311229536687, 485.6707494741137 349.2978973259959, 485.43409561039044 350.429165910166 C485.1974417466672 351.56043449433605, 483.71660435231104 352.03496017527675, 482.8810975954749 352.8321584314038 C482.04559083863876 353.62935668753084, 481.2689727123017 355.07763302145406, 480.4210550693737 355.21235544692837 C479.5731374264457 355.3470778724027, 478.49795038044124 354.1809876704787, 477.79359173790687 353.6404929842496 C477.0892330953725 353.09999829802047, 476.7103548540302 352.8868530386851, 476.19490321416737 351.9693873295537 C475.67945157430455 351.05192162042226, 474.50853529143217 349.1799049268552, 474.7008818987299 348.135698729461 C474.89322850602764 347.0914925320668, 476.4179065909174 346.17653796055896, 477.3489828579537 345.7041501451883 C478.2800591249899 345.2317623298176, 479.6965935248944 345.3884787224721, 480.28733950094727 345.3013718372369 C480.8780854770001 345.2142649520017, 480.9474613641465 345.0014105943161, 480.893458714271 345.1815088337772" stroke="#DAA520" stroke-width="1.4" fill="none"></path></g><g><path d="M545.4619135231776 158.8097149925426 C545.4619135231776 158.8097149925426, 545.4619135231776 158.8097149925426, 545.4619135231776 158.8097149925426 M545.4619135231776 158.8097149925426 C545.4619135231776 158.8097149925426, 545.4619135231776 158.8097149925426, 545.4619135231776 158.8097149925426 M547.9115059665144 163.85435929423295 C548.7986582723191 162.54764354901695, 550.1202577120343 161.0066325582948, 553.0856276352108 157.19156604939485 M548.0623113581179 163.38149989882046 C549.0793168080132 162.06090676649163, 550.3742167036017 160.72167751271837, 553.1896775751492 157.55145537009537" stroke="none" stroke-width="0.6" fill="none"></path><path d="M550.4486975033076 156.33132610291656 C551.1768933790538 156.31016778613957, 551.793969669616 156.6339617166728, 552.472873192429 157.24078362227047 C553.151776715242 157.84760552786815, 554.2873736620054 159.14952999555487, 554.5221186401857 159.9722575365026 C554.756863618366 160.79498507745035, 554.3660417259113 161.55448816357335, 553.8813430615111 162.17714886795687 C553.3966443971109 162.7998095723404, 552.6150284283017 163.46918705677135, 551.6139266537845 163.70822176280367 C550.6128248792672 163.947256468836, 548.6709693954995 163.84296720710782, 547.8747324144081 163.61135710415087 C547.0784954333167 163.37974700119392, 547.1956825167781 163.16825319881636, 546.836504767236 162.31856114506203 C546.4773270176938 161.4688690913077, 545.6112382631505 159.35835953467355, 545.7196659171553 158.51320478162486 C545.8280935711601 157.66805002857618, 546.6988685290587 157.74549862949513, 547.487070691265 157.24763262676996 C548.2752728534713 156.74976662404478, 549.9263424113774 155.8092548900393, 550.4488788903932 155.5260087652738 C550.971415369409 155.24276264050826, 550.5430957188263 155.48466989192784, 550.62228956536 155.54815587817689 M549.7176289826999 156.1757359023162 C550.5396141520854 156.21114836855213, 551.0337019514017 156.23578106982922, 551.8396013653407 156.68002120070784 C552.6455007792798 157.12426133158647, 554.2725978768963 158.09225935514178, 554.5530254663342 158.841176687588 C554.8334530557722 159.5900940200342, 554.035239434379 160.41557621898266, 553.5221669019685 161.17352519538503 C553.0090943695579 161.93147417178739, 552.3448592340171 162.8420779187253, 551.4745902718707 163.38887054600224 C550.6043213097244 163.93566317327918, 548.9816966219241 164.68215999012187, 548.3005531290903 164.4542809590467 C547.6194096362565 164.22640192797155, 547.780470269781 162.93033391899016, 547.3877293148674 162.02159635955135 C546.9949883599539 161.11285880011255, 545.879416656398 159.71406181411888, 545.9441073996094 159.00185560241388 C546.0087981428208 158.2896493907089, 547.1021027256447 158.35632989833832, 547.7758737741354 157.74835908932135 C548.4496448226262 157.1403882803044, 549.7028579837993 155.76146246215862, 549.9867336905538 155.3540307483121 C550.2706093973084 154.9465990344656, 549.4126409436974 154.99447364045346, 549.479128014663 155.30376880624235" stroke="#DAA520" stroke-width="1.2" fill="none"></path></g><g><path d="M456.44175996261754 236.45219632579477 C456.44175996261754 236.45219632579477, 456.44175996261754 236.45219632579477, 456.44175996261754 236.45219632579477 M456.44175996261754 236.45219632579477 C456.44175996261754 236.45219632579477, 456.44175996261754 236.45219632579477, 456.44175996261754 236.45219632579477 M457.29779709996785 242.36623169562637 C459.14020290240853 240.49629516623372, 460.78142390828776 239.07536302677198, 461.9932420092348 237.32824062996428 M457.4829493250922 242.9149302117604 C459.22591481490423 240.91555921902733, 460.6837085798457 239.04469634942933, 462.1355455741747 237.44260643981661" stroke="none" stroke-width="0.6" fill="none"></path><path d="M458.8863969711818 236.20384196967754 C459.6782475206803 236.10281971596515, 460.8600014169002 236.12171847791745, 461.7561150408552 236.46167593185123 C462.6522286648102 236.801633385785, 463.8337830795168 237.3874280012878, 464.26307871491156 238.24358669328026 C464.6923743503063 239.09974538527274, 464.6047755787047 240.6929514914525, 464.3318888532235 241.59862808380606 C464.05900212774236 242.50430467615962, 463.43985686220407 243.19027642233425, 462.6257583620248 243.67764624740153 C461.8116598618455 244.1650160724688, 460.3691948811542 244.66050816744342, 459.4472978521478 244.52284703420978 C458.5254008231414 244.38518590097613, 457.7184098325103 243.52843162162756, 457.09437618798626 242.8516794479997 C456.4703425434622 242.1749272743718, 455.8200797198349 241.51946496805192, 455.7030959850034 240.46233399244258 C455.58611225017194 239.40520301683324, 455.8598775499069 237.24682250092363, 456.39247377899756 236.50889359434368 C456.9250700080882 235.77096468776372, 458.4016978757285 236.07770886441182, 458.89867335954716 236.03476055296292 C459.39564884336585 235.99181224151403, 459.20979465108866 236.31157255931453, 459.3743266819097 236.25120372565024 M460.6622115105135 235.04808165306727 C461.3309894005878 235.191972941593, 462.5075368986129 236.96286842301066, 463.2459645297662 237.86348535281866 C463.98439216091947 238.76410228262665, 465.0663151446586 239.52216250262137, 465.09277729743303 240.4517832319153 C465.1192394502075 241.38140396120923, 464.2954165001398 242.84550692523933, 463.40473744641287 243.44120972858218 C462.5140583926859 244.03691253192503, 460.62758014638825 244.06961244823927, 459.7487029750713 244.02600005197235 C458.86982580375434 243.98238765570542, 458.81871307560414 243.7117314509564, 458.13147441851106 243.17953535098067 C457.444235761418 242.64733925100495, 455.906409723813 241.71771501095904, 455.625271032513 240.83282345211808 C455.344132341213 239.94793189327712, 456.07897893524654 238.71146758242134, 456.4446422707113 237.87018599793484 C456.8103056061761 237.02890441344834, 457.09609446901885 236.19997110032762, 457.81925104530166 235.7851339451992 C458.54240762158446 235.37029679007077, 460.35774531696006 235.2687545348257, 460.7835817284082 235.38116306716432 C461.2094181398563 235.49357159950296, 460.4500455557991 236.37436585394263, 460.37426951399055 236.45958513923105" stroke="#DAA520" stroke-width="1.2" fill="none"></path></g><g><path d="M369.9236531912456 265.2849137989846 C375.20588718778004 263.6618148967737, 378.6789535503163 262.1447771442514, 382.8936178827565 261.1073098640003 M370.51967373865506 264.8905771064532 C373.53525230798795 264.38464321721517, 375.5856598028939 262.55756669152294, 381.5972096262909 260.49126573461365" stroke="#999" stroke-width="1" fill="none"></path></g><g><path d="M377.9545250780404 261.56530493245253 C382.0313254347722 259.6608060874662, 385.60189801608715 257.6529918729029, 390.624677781188 256.91521964723137 M377.43156503695116 262.50393399142945 C382.1517158214821 260.2866453101235, 386.89427935190537 258.13775779207475, 389.7142611587144 257.51176535852045" stroke="#999" stroke-width="1" fill="none"></path></g><g><path d="M386.9975734560201 258.7205356863409 C389.08138543730325 256.108208121804, 395.5427905742166 255.06359456748493, 399.09336380722044 253.08858118623067 M385.77454119692186 258.5151799072933 C388.2601737090248 257.86883762129145, 390.90164916327535 256.6662623907794, 398.45417455840334 253.64960913803776" stroke="#999" stroke-width="1" fill="none"></path></g><g><path d="M393.93878994491575 256.33720231412593 C397.98454710052874 253.01257810287322, 402.0084839708683 252.17614331803986, 405.5306004322112 251.95434253876633 M394.3772965170425 255.99702435542693 C398.93750166773543 254.29145233527348, 403.34792169516595 251.42391736610597, 406.3511597079602 251.4663446259534" stroke="#999" stroke-width="1" fill="none"></path></g><g><path d="M403.0309289774413 253.38151327055922 C404.1370651181974 251.701205117056, 408.3690174512286 251.1952266417025, 413.33908097068365 248.26613581664589 M402.4451313903955 253.04381950165805 C404.326184788526 251.28423479781185, 407.40178897267964 250.67887371874141, 414.5169817727496 248.11004430304743" stroke="#999" stroke-width="1" fill="none"></path></g><g><path d="M149.11199369022466 430.25183627928584 C275.3785248893919 429.4402619913764, 402.67005694485783 429.5119839804783, 650.7911144189935 430.6982779540384 M149.84309063186777 429.4771666311788 C290.05715746749325 431.759215910341, 430.4135417633695 431.7094175774572, 650.444547146755 430.11299157909656" stroke="#000000" stroke-width="1.6" fill="none"></path></g><text x="400" y="560" text-anchor="middle" font-family="sans-serif" font-size="16" fill="#222" font-style="italic">"The universe doesn't owe us certainty."</text></svg>