<?xml version="1.0" encoding="UTF-8"?>
<svg width="800" height="600" viewBox="0 0 800 600" xmlns="http://www.w3.org/2000/svg"><rect width="800" height="600" fill="#FFFFFF"></rect><g><path d="M111.45490891606198 151.4642044253386 C109.91034056253484 252.13150198091645, 112.91803723705915 352.1960785668131, 109.68141910852076 468.3235645250478 M110.16107742987856 150.41241442075366 C111.04297094987116 240.91367817036166, 110.27464779133605 332.22739706688446, 110.47558966588072 469.3240017129623" stroke="#000000" stroke-width="4" fill="none"></path></g><g><path d="M110 230 C171.44365689169163 218.38647216916755, 228.6122572266042 225.54859306437987, 288.8780761169146 244.72710318554627 M108.29306251313261 228.7883544434837 C172.4124957144651 218.11045774359013, 228.82815390408365 225.5289720298801, 290.4866594591879 244.5230559936857" stroke="#000000" stroke-width="3" fill="none"></path></g><g><path d="M0 470 C40.50632890457275 463.64018583859655, 80.72905020026566 460.44916926648415, 117.99877628642646 470.23824844031526 M-2.254927766556138 470.7734049845004 C41.53219194603231 459.47616728479903, 82.69433271177053 460.36622783088313, 120.67102530193459 469.16325759458516 M120 470 C158.52102135771156 478.5314896039488, 198.1525656205012 476.3564136230568, 239.11594958176883 468.92084308965775 M119.23032672234216 468.8722520379051 C158.04542348250655 480.6026174378985, 202.57738340551637 475.4545372869858, 237.229267100867 470.94220315544703 M240 470 C282.2216057573339 460.1282966096562, 317.8700258888715 460.5793004405947, 358.75059505623346 472.221947329343 M240.14683145996835 468.229788810273 C279.56297228509897 459.6064842523402, 319.85959633553233 459.5830968881774, 361.781473346582 471.5989157135 M360 470 C398.35235853230233 477.34993475633735, 439.30478368907285 478.228004870251, 479.1139110303425 470.30019657947645 M359.22917852704796 472.1198878827903 C399.1368256002174 480.69767896974656, 442.40476280483097 479.50084502697166, 481.9697587139008 470.66604600615904 M480 470 C517.5931257891333 459.51093787272885, 559.759509743003 462.6309160807576, 599.8373768766496 471.4398580006459 M478.64572486928876 471.45957221056415 C521.688319770203 464.18719390186203, 559.9907543073418 459.33439189851543, 600.9743755567628 472.93527255950175 M600 470 C640.3590132726262 477.80183503767176, 680.3731220398331 475.9280902798993, 717.6300408473394 470.5783299841443 M598.5868953763178 471.39585852699497 C637.9423870006787 480.18789929305126, 679.3790468767678 475.7412452123174, 721.7501860928663 471.0158161982406 M720 470 C757.5365553030451 459.4961068749046, 800.71106608082 461.1953077204854, 841.6144247579418 472.4912571560141 M721.0571624771992 472.5749089865428 C762.3749893597939 463.3275450390905, 800.8602304321612 463.7306743384541, 839.6490182993505 467.8995829305103" stroke="#7799bb" stroke-width="1.6" fill="none"></path></g><g><path d="M0 486 C42.47244005013285 480.43998292328644, 79.19857156921192 476.91959568020934, 118.91596484058627 485.70194588667965 M-1.8964036401639752 483.8740780251408 C38.8026694791702 478.3784198218095, 81.31786116283422 478.1134499981373, 121.89780251343697 484.25396051390834 M120 486 C158.02257635389117 493.19800468281767, 200.46781197188096 493.95447679940946, 238.54996316303362 488.21366900949903 M117.88391630806257 487.4258830915995 C157.85842172630416 493.81383204844457, 202.56220406090736 493.726913162136, 238.66707035259762 488.22335111570476 M240 486 C278.4984527253732 478.42745809041486, 321.0252914325159 479.6791606818423, 362.40780762176206 487.90837431434454 M241.96724762187048 486.3556767149955 C281.9839911431983 476.67912710667713, 317.3748960546423 480.24118192481507, 361.01892185827614 483.5920774441175 M360 486 C401.67618564120465 492.25898549697854, 440.0275411963219 496.2264326337798, 482.09437487474133 484.986439486698 M359.9385120743645 485.14315576577326 C400.4135879247427 494.0912217158771, 442.3330361624181 493.259780558279, 479.34116244455925 487.901190123822 M480 486 C517.860065781901 476.71187883169296, 560.5417049323414 477.01523601170436, 598.3250683432882 488.1514172956533 M481.3234961220713 485.8691700835875 C518.7867570592291 478.45900529519565, 557.8999567827327 477.972901490882, 598.6654927002344 483.9438903157765 M600 486 C640.8480240971106 491.5996883059686, 678.4514144168007 495.858903205273, 719.2517873629075 486.69378842186677 M599.7566645025214 485.43253543828223 C637.5325483521794 493.7412047532169, 680.7682151515218 491.1714211381789, 719.924107260133 485.54110293948867 M720 486 C760.5779713573816 478.9977960847633, 797.9516652474803 475.76641824392846, 840.531777236688 485.6018204593291 M721.2580873102069 484.89071227546754 C759.6734247302597 478.68118637935504, 801.906976727545 478.7730453416424, 841.4090142880223 483.522825789851" stroke="#7799bb" stroke-width="1.6" fill="none"></path></g><g><path d="M0 502 C38.978993012017945 493.1564459397131, 79.06872213030955 496.59684721877056, 119.02445232743676 503.6009384928618 M0.942692038288863 500.8100181853528 C42.689449397890094 491.37078008491005, 78.85574649052877 494.4190396698521, 118.82560753860403 503.78769274867216 M120 502 C160.67011724595318 510.8035500939759, 200.35058568324735 508.1600625023554, 239.14538854901645 504.1607761003909 M122.40278305405725 499.64532527370255 C161.2739589384069 510.37933293796584, 200.54859582080834 509.2556612041399, 238.16378335315392 502.1865052719675 M240 502 C277.68376406481804 492.6824594462119, 321.5520514733806 495.0923295321993, 362.58902350444663 501.9822892470228 M238.55958619257083 499.752013197239 C281.3192782640443 492.12834103071043, 317.3870467824161 493.15077074810944, 360.03444469257903 502.8968179212972 M360 502 C399.95697065426486 509.3625781517214, 438.99525253957484 507.8812181542746, 481.5582928916311 500.0202909687466 M360.53852265567355 500.02989682082506 C397.73065580896645 508.07554288256006, 440.65512435898665 512.6602687615614, 479.48314555448525 504.1585369707558 M480 502 C519.5202067617772 494.19714964155276, 558.6705403478678 494.18680189922816, 600.3089410436564 501.82249367988345 M478.05262543639213 502.01156469104166 C518.4018518977475 494.62580526582695, 558.3490941733174 495.85659282414264, 599.0321592732457 503.58331793855365 M600 502 C641.3468941488434 511.9967299792895, 679.582706335614 507.9182877235097, 719.9782281879445 501.4269878109244 M600.5458160242899 502.0369974118845 C637.9066542572497 511.2016171379028, 678.4707535319945 507.6204179721207, 721.7985878614062 502.85137865874486 M720 502 C762.5037836933445 494.2422304344637, 799.0266887317409 491.93656774620587, 841.8123054458944 499.9439379337006 M719.0476262384718 500.7308966736984 C758.6307943570582 495.4596769661334, 801.4124771027458 496.49796637284686, 840.8915113205749 501.27880708960095" stroke="#7799bb" stroke-width="1.6" fill="none"></path></g><g><path d="M0 518 C41.09292725421801 509.59185362728545, 81.9357070190505 510.2868939820736, 121.318814504601 520.3846786257453 M0.8744652657944549 519.2879232525974 C37.3077467325332 512.1920759946485, 77.09423874624478 509.2704214432214, 118.79040474167262 520.5528359997146 M120 518 C160.8815345430937 526.2730908034114, 199.2200617430961 524.6159478341463, 239.41620532496694 517.4623475611754 M120.90392681828446 519.9782431554453 C159.79955521982856 526.3924372990678, 201.04750027227294 527.3499783174223, 241.2724646631815 519.7957796804645 M240 518 C280.98492292186233 508.2196362660976, 320.5430090530241 509.1112419837802, 359.3012009564182 519.154868754607 M238.392434090044 515.9616573954977 C278.88598659605026 512.2772470534609, 321.8868503472526 510.2956890638442, 361.7928177127637 519.8187032418588 M360 518 C397.60253972454774 524.2489260909564, 438.30120542538606 527.3779843260612, 480.81836172782295 518.1556318410444 M361.29813004714515 516.2868830713079 C397.684765990129 527.2255108776396, 441.52771461616413 525.4358452966743, 479.2129826521494 515.6355810325873 M480 518 C519.4427433927458 511.83185956002325, 562.4392415602331 510.70774227406434, 600.5432285682989 520.2883478944748 M480.9078797393351 516.3724845173781 C517.7059585389518 508.9445895494306, 558.6506776633942 508.8006849813057, 602.2587594485889 515.4295686644281 M600 518 C637.6368048630006 525.364110941615, 679.852925942812 528.3594294952704, 720.2549039665925 516.7373668624219 M600.774554112954 518.7588729114477 C637.6008631429013 523.2404130187329, 677.9944825476017 524.1105090374872, 718.3350320617395 519.2127063335502 M720 518 C760.480927833502 512.091710178786, 800.4123359205178 508.5838045986739, 841.3282692396538 519.0502156133969 M719.2258684616305 515.4060596395885 C762.3624021967892 510.62836332891106, 797.8423851294953 508.1784674671091, 837.0319348025964 515.4514185669391" stroke="#7799bb" stroke-width="1.6" fill="none"></path></g><g><path d="M239.69010310520986 273.2850644892547 C239.69010310520986 273.2850644892547, 239.69010310520986 273.2850644892547, 239.69010310520986 273.2850644892547 M239.69010310520986 273.2850644892547 C239.69010310520986 273.2850644892547, 239.69010310520986 273.2850644892547, 239.69010310520986 273.2850644892547 M239.48708958218882 283.39076885836846 C246.00088627690656 280.0169383947754, 248.27999571187686 274.38828313412864, 252.4446629491868 269.3393714051863 M240.04827576868757 284.88637123683947 C245.11427166978612 278.6961601833388, 250.38465178213767 273.0319232480181, 253.37905694012395 269.48179900749153 M246.90410487992116 289.9801531708622 C251.4972815779749 283.66139431658064, 258.8980495474411 275.4203568548682, 260.9024558193724 272.75660961078887 M244.22493487591623 290.9349330821547 C251.01829627962636 283.9550122225899, 256.31886474126424 276.50823930548245, 261.1582231746882 272.36957342713845" stroke="none" stroke-width="1" fill="none"></path><path d="M254.10517071839573 268.28014891624815 C256.630605528681 268.6750912268948, 259.8615458494318 270.15477815009035, 261.3883536028355 272.23813563191754 C262.91516135623914 274.32149311374474, 263.8924020004886 278.03441884507606, 263.26601723881754 280.7802938072115 C262.6396324771465 283.5261687693469, 259.8312868319907 286.6966179224606, 257.6300450328094 288.7133854047302 C255.4288032336281 290.73015288699986, 252.52937394738512 292.5809343177443, 250.05856644372966 292.8808987008292 C247.5877589400742 293.1808630839141, 244.9097801912201 292.2294124852539, 242.80520001087658 290.5131717032398 C240.70061983053304 288.7969309212257, 237.9935815722096 285.4049788522392, 237.4310853616684 282.58345400874464 C236.86858915112722 279.7619291652501, 238.06759505701447 275.94561144224934, 239.43022274762953 273.58402264227243 C240.79285043824459 271.2224338422955, 242.8704044366919 269.14641742527476, 245.6068515053587 268.4139212088831 C248.34329857402548 267.68142499249143, 253.66637162776706 268.66347861262756, 255.8489051596303 269.1890453439225 C258.0314386914936 269.7146120752174, 258.6889156606784 271.38459383641094, 258.7020526965382 271.56732159665256 M254.4549903466169 267.06107954463494 C256.5302114860998 267.8795324363694, 258.8283333502138 272.12305085677997, 260.02721955033354 274.8656104211002 C261.22610575045326 277.60816998542043, 261.8653647293751 280.6359011404152, 261.6483075473351 283.51643693055644 C261.4312503652951 286.39697272069765, 260.73728875897956 290.66949501734666, 258.72487645809355 292.1488251619474 C256.71246415720753 293.62815530654814, 252.62821432398852 292.7077780884314, 249.57383374201896 292.3924177981607 C246.5194531600494 292.07705750789, 242.31812817978746 292.33698281071315, 240.39859296627617 290.25666342032315 C238.47905775276487 288.17634402993315, 238.05429809794995 282.75078989829103, 238.0566224609512 279.9105014558208 C238.05894682395243 277.07021301335055, 239.23314477239285 275.5607464203714, 240.4125391442836 273.21493276550177 C241.59193351617438 270.86911911063214, 242.79813782720174 266.6712570481648, 245.13298869229573 265.8356195266029 C247.4678395573897 264.999982005041, 252.80170864818237 267.7823610505542, 254.4216443348475 268.2011076361302 C256.0415800215127 268.6198542217062, 254.64264200059338 268.42434542879283, 254.85260281228665 268.3480990400588" stroke="#000000" stroke-width="2" fill="none"></path></g><g><path d="M248.6822997141771 291.9228184490307 C247.91537900670687 307.2105675397759, 246.88009397389007 321.7952845020932, 243.69382386099863 335.6273867833744 M249.7003671004153 293.04496015745593 C248.6347860727316 303.2514901014063, 245.78690718563203 315.75101311889387, 243.55881061730807 334.5976357102992" stroke="#000000" stroke-width="2" fill="none"></path></g><g><path d="M245.62843823667544 333.9095233268857 C242.08590047469144 341.35951318558654, 238.290359977812 346.5505154075494, 228.07178396246655 358.72888738166944 M244.47114088110547 334.9705700416013 C238.07002710888318 343.32179299728807, 233.58407324281518 351.0260036522261, 227.9495776268355 360.56501584286985" stroke="#000000" stroke-width="2" fill="none"></path></g><g><path d="M245.2151424099271 333.4923830630363 C248.8266905634724 341.84505554089475, 249.45069046409913 349.48371798793363, 258.29678774388907 364.629579979445 M244.54479235922327 335.56562791024146 C247.18013737328852 343.60477191629957, 252.82824778967324 350.85989473049943, 258.2401240645498 363.9475133097313" stroke="#000000" stroke-width="2" fill="none"></path></g><g><path d="M247.38449903858216 302.34321626762426 C240.53576740683573 300.12219731821705, 233.97356462437182 295.20501533885295, 218.36254356277837 286.0081386455935 M245.65158252050307 303.5713483862787 C240.51203685142386 299.99457370624765, 232.8075288595211 294.91805832131683, 219.48031433665938 285.20953938640764" stroke="#000000" stroke-width="2" fill="none"></path></g><g><path d="M252.00943596217869 302.72653888304626 C272.7414642861282 294.23656704890465, 295.00746018165825 284.55136551067284, 320.68218820621433 272.7148724743204 M252.05611810692238 304.16052492480526 C265.87474906084225 298.55977119640806, 278.63629365873413 291.813323695527, 320.3303012496609 273.05563922900996" stroke="#000000" stroke-width="2" fill="none"></path></g><g><path d="M244 335 C215.35513505622117 353.6982761139089, 209.58578779477065 375.67066474555395, 226.19934013378713 397.32817749226615 M242.7908299332852 336.4292859922854 C219.58003635038898 356.8871388890578, 209.47638438257633 374.27512484196996, 224.4892893234087 394.46538751565646 M224 395 C235.9398339926612 415.6968668898744, 247.25232519451478 416.40967521192164, 255.7660231969094 406.0399815745781 M225.81758026569028 394.5367664104067 C239.90155766985342 415.4574990594671, 246.0723716880918 418.5911536640868, 254.96204176317138 404.44840398389556" stroke="#000000" stroke-width="1.8" fill="none"></path></g><g><path d="M385.40434076804655 254.19939286999443 C388.19023059532765 255.27320714364149, 391.05844590793663 258.4417272888758, 392.5121351185191 261.2600493489399 C393.96582432910157 264.078371409004, 394.590427484174 268.1292640552414, 394.12647603154136 271.10932523037894 C393.66252457890874 274.0893864055165, 392.0579339875684 277.0446019377836, 389.7284264027234 279.1404163997652 C387.39891881787844 281.2362308617467, 383.533264627775 283.6362817210606, 380.1494305224714 283.6842120022681 C376.7655964171678 283.73214228347564, 371.94084747535067 281.7736723012287, 369.42542177090166 279.42799808701045 C366.90999606645266 277.0823238727922, 365.60098418444824 272.9515954264522, 365.05687629577733 269.6101667169585 C364.5127684071064 266.2687380074648, 364.6308395672532 261.93487300036077, 366.16077443887633 259.3794258300484 C367.69070931049947 256.823978659736, 370.8770083514196 255.1389177341974, 374.23648552551623 254.27748369508407 C377.59596269961287 253.41604965597074, 384.0877191846984 254.04073897546323, 386.31763748345605 254.21082159536837 C388.5475557822137 254.38090421527352, 387.6655994050716 255.1660757392415, 387.6159953180622 255.29797941451486 M374.5976645790739 254.8852057382469 C377.40023344806525 253.71828243692778, 382.81241136870926 253.12474600922755, 386.0372640994237 254.13269790834457 C389.2621168301381 255.14064980746159, 392.32393675220754 257.9706082564126, 393.9467809633603 260.932917132949 C395.5696251745131 263.8952260094854, 396.55596072903666 268.64879124218976, 395.7743293663404 271.906551167563 C394.99269800364414 275.16431109293626, 391.8317106451629 278.617999847278, 389.2569927871829 280.47947668518833 C386.68227492920295 282.3409535230987, 383.2797893108011 283.2533562144977, 380.32602221846054 283.0754121950251 C377.37225512611997 282.89746817555243, 374.08040563192355 281.50326578661947, 371.5343902331396 279.41181256835233 C368.9883748343557 277.3203593500852, 365.6405861921319 273.80315737234184, 365.04992982575675 270.5266928854224 C364.4592734593816 267.25022839850294, 366.34849487594386 262.7434950332724, 367.990452034889 259.7530256468355 C369.6324091938342 256.76255626039864, 373.6937534930189 253.6366335762919, 374.9016727794276 252.58387656680117 C376.1095920658363 251.53111955731043, 375.36848966457046 252.8889443925247, 375.237967753341 253.43648358989105" stroke="none" stroke-width="0" fill="#DAA520"></path><path d="M379.07786437891525 253.50901786539504 C381.95337650232636 253.02029916965273, 386.0913339884376 254.026113783643, 388.74478822931934 255.74425858582856 C391.39824247020107 257.46240338801414, 394.16083585802863 260.6524317174661, 394.99858982420557 263.8178866785084 C395.8363437903825 266.9833416395507, 395.4347623631011 271.7709387888853, 393.77131202638105 274.73698835208256 C392.10786168966104 277.7030379152798, 388.0997628563814 280.23397317745713, 385.01788780388546 281.61418405769194 C381.9360127513895 282.99439493792676, 378.1744246890038 283.82627635596083, 375.2800617114055 283.01825363349155 C372.3856987338072 282.2102309110223, 369.30999813251003 279.72297914874684, 367.65170993829554 276.76604772287635 C365.99342174408105 273.80911629700586, 364.9787466332237 268.76919626580286, 365.3303325461187 265.2766650782686 C365.68191845901373 261.7841338907343, 367.3375675804057 257.813380952934, 369.7612254156656 255.8108605976708 C372.1848832509255 253.80834024240758, 378.0453045145095 253.86329618878085, 379.8722795576783 253.26154294668936 C381.69925460084715 252.65978970459787, 380.69039293241445 251.9165363716268, 380.72307567467846 252.20034114512185 M381.3471145861328 253.38492818772258 C384.13464606167986 253.52050659331454, 387.3161192343395 256.47254618055007, 389.76474946431347 258.5489801881122 C392.2133796942874 260.6254141956743, 395.8214151540557 262.8527099284748, 396.03889596597656 265.84353223309523 C396.2563767778974 268.8343545377157, 393.1662497733079 273.50324310551406, 391.0696343358385 276.49391401583495 C388.97301889836905 279.48458492615583, 386.2447039377807 282.72383751510876, 383.45920334116005 283.78755769502055 C380.6737027445394 284.85127787493235, 377.2636072946437 284.4456443461082, 374.35663075611455 282.8762350953057 C371.4496542175854 281.3068258445031, 367.2955026037041 277.7423249235773, 366.01734410998523 274.37110219020536 C364.73918561626635 270.9998794568334, 365.56572095533215 265.7284264865377, 366.68767979380124 262.6488986950741 C367.8096386322703 259.56937090361043, 370.0843519429921 257.7444600590583, 372.7490971407996 255.8939354414233 C375.41384233860714 254.0434108237883, 381.19310453298567 251.9869169698926, 382.6761509806463 251.54575098926395 C384.1591974283069 251.1045850086353, 381.9920144671475 252.7523364903829, 381.64737582676327 253.24693955765144" stroke="#B8860B" stroke-width="2" fill="none"></path></g><g><path d="M379.13921526365374 253.5960551604084 C379.3130235220231 248.72378070551662, 378.42226820515714 247.68544986481857, 376.2268083573454 237.04459610357475 M380.31210207043205 253.55018661986554 C378.9374550150826 248.1745353970277, 377.0370827579629 244.6294266452787, 375.7992303961067 238.60200666711566" stroke="#000000" stroke-width="2" fill="none"></path></g><g><path d="M323.75975460407386 274.5402427820592 C333.0855706211109 272.0038608584247, 350.05356880929423 271.6561205433883, 359.4342268267264 269.4148064262861 M322.27075287226495 273.7036480608689 C334.58824011897553 269.1993460723159, 345.9375368816184 269.9723207888397, 360.5182871225851 270.2905317431156" stroke="#bbb" stroke-width="1.2" fill="none"></path></g><g><path d="M250 500 C301.04106688573785 514.3259354145462, 376.9153172888715 517.5959699769759, 468.2380777031255 499.2956694698349 M251.69437477997064 501.92373217418486 C303.69109915549166 517.0572342507597, 377.73606820841036 518.207858158941, 469.9782113287922 498.09402018416137" stroke="#444" stroke-width="3" fill="none"></path></g><g><path d="M250 518 C302.09967134149025 530.287427138613, 378.44355526042983 534.8322013066232, 467.8390322268301 518.9607532794283 M249.71590645589404 518.0895402742445 C304.7929325144912 534.0464345259381, 375.18574791126 531.3279621498102, 470.99879511333035 516.8764137238953" stroke="#444" stroke-width="3" fill="none"></path></g><g><path d="M460.0166219336522 497.5287396413666 C480.40872603104225 488.1550574919783, 493.256701064518 483.6861614669507, 510.42825501110093 472.4302364906027 M462.2393858885554 498.2218760097947 C481.5612138646652 488.46155576388037, 498.41674530743757 479.43598344943837, 510.55714948675154 474.4242779860595" stroke="#444" stroke-width="2.4" fill="none"></path></g><g><path d="M462.5897441112597 509.78154382759124 C472.9256305870743 508.30863243857993, 484.37099964371424 508.08312272005924, 510.32238912309737 503.23750789071545 M461.6022330804411 510.190997799368 C474.1561589008939 508.1511932194211, 484.9953497571152 507.8066928332615, 512.7848792580784 503.6749676191362" stroke="#444" stroke-width="2.4" fill="none"></path></g><g><path d="M469.1894399982371 495.57272566759445 C471.27356781522343 499.5172345937497, 473.05076475628795 503.9391829473572, 474.7762885377349 505.3604850254507 M469.954626750764 496.3913059903172 C471.25498623273774 498.31838977473814, 471.6222807054436 500.64050802138416, 474.3788524068231 506.30337872688335" stroke="#444" stroke-width="1.2" fill="none"></path></g><g><path d="M480.0268444850635 491.2180469413176 C480.5081250514936 495.534839964358, 481.6308969634843 500.2328813505671, 484.01020789194547 505.19222513646986 M480.0755563872363 492.1600678894857 C481.27397953731145 495.3055951637399, 481.98253207999437 498.55141181247365, 484.5484417326841 503.58153646013443" stroke="#444" stroke-width="1.2" fill="none"></path></g><g><path d="M490.62489829307714 489.31687105157516 C491.32629100124007 493.6736707584356, 493.25734882783894 500.0118384711011, 493.14783199821426 502.015035413238 M490.1350890295089 488.2599466741047 C491.4798664514168 491.78669144372236, 492.2055689669347 496.58212619580985, 494.0594248813549 501.686353575074" stroke="#444" stroke-width="1.2" fill="none"></path></g><g><path d="M500.820413465216 482.5612787973195 C501.51448318368205 488.9486423601204, 501.0247030835956 492.8305989140403, 503.85787217655377 500.31079348720743 M500.17694081932603 483.9956797180956 C501.22954128677395 488.8548102833497, 501.74762897325604 492.79317493087296, 503.9480065638343 500.24025971049554" stroke="#444" stroke-width="1.2" fill="none"></path></g><g><path d="M438.4054426226678 487.10107652624276 C438.4054426226678 487.10107652624276, 438.4054426226678 487.10107652624276, 438.4054426226678 487.10107652624276 M438.4054426226678 487.10107652624276 C438.4054426226678 487.10107652624276, 438.4054426226678 487.10107652624276, 438.4054426226678 487.10107652624276 M439.74360071725954 494.91259526198917 C440.4523567934774 493.2325035280208, 442.6871714979542 492.12596090588437, 443.5813322298138 489.0341000021322 M439.25176279096354 495.7871792341451 C440.5650392138952 493.52636754643316, 442.19320591850357 491.8242522518112, 443.99599081547944 489.8188934249436" stroke="none" stroke-width="0.8" fill="none"></path><path d="M438.2043336148321 487.33242597526436 C439.0305495274461 487.0303808256485, 439.760447633428 488.15739294209897, 440.7299264114461 488.52865878505924 C441.69940518946424 488.8999246280195, 443.2965200399128 488.9774854257349, 444.0212062829409 489.5600210330259 C444.745892525969 490.1425566403169, 445.2697364242143 491.1535071755954, 445.07804386961453 492.02387242880536 C444.8863513150148 492.89423768201533, 443.5721064596583 494.2195405349132, 442.8710509553426 494.7822125522857 C442.16999545102686 495.34488456965823, 441.63423642564493 495.3365485374958, 440.8717108437203 495.39990453304057 C440.10918526179563 495.46326052858535, 439.2392281859193 495.55256557585994, 438.29589746379463 495.16234852555425 C437.35256674167 494.77213147524856, 435.59500530625843 493.747089818965, 435.2117265109724 493.0586022312066 C434.8284477156864 492.3701146434482, 435.4610237164033 491.9418540931978, 435.9962246920787 491.0314229990037 C436.53142566775415 490.12099190480967, 437.87350515022285 487.8906544393921, 438.4229323650251 487.5960156660424 C438.9723595798273 487.30137689269264, 439.1905391936811 489.1596991412257, 439.292787980892 489.26359035890545 M438.3725251894659 487.1957450607938 C439.10266843802845 487.0720625822806, 441.5824739882285 488.5156952859459, 442.3360576382561 489.29782428924943 C443.08964128828364 490.07995329255294, 442.59806479472854 491.23228824195525, 442.8940270896314 491.8885190806149 C443.1899893845342 492.5447499192746, 444.3576317059885 492.46020926803124, 444.11183140767326 493.2352093212074 C443.866031109358 494.0102093743835, 442.3974575596148 496.22219887260076, 441.4192252997398 496.53851939967166 C440.44099303986485 496.85483992674256, 439.04645312230576 495.47326735918864, 438.2424378484234 495.1331324836327 C437.438422574541 494.7929976080768, 437.1415286686368 495.16267777698204, 436.5951336564454 494.4977101463362 C436.048738644254 493.83274251569037, 434.73556468442314 492.2801553254731, 434.964067775275 491.1433266997576 C435.19257086612686 490.0064980740421, 437.3693852249173 488.4057111446126, 437.9661522015565 487.67673839204303 C438.56291917819567 486.94776563947346, 438.4153625288028 486.57379544574087, 438.5446696351102 486.7694901843402 C438.6739767414176 486.96518492293956, 438.4790010265782 488.6029619911188, 438.74199483940083 488.8509068236391" stroke="#444" stroke-width="1.6" fill="none"></path></g><text x="400" y="560" text-anchor="middle" font-family="sans-serif" font-size="16" fill="#222" font-style="italic">"Praise is a fine reward and a terrible master."</text></svg>