<?xml version="1.0" encoding="UTF-8"?>
<svg width="800" height="600" viewBox="0 0 800 600" xmlns="http://www.w3.org/2000/svg"><rect width="800" height="600" fill="#FFFFFF"></rect><g><path d="M149.4686507599023 318.5777432688053 C148.59961718793394 345.05581491373493, 151.11518117260437 368.0262694950732, 151.21128351974122 421.25135549693323 M150.92713654888033 319.64487994317506 C150.5542412081515 351.81199222009326, 148.75336821313178 383.9174563771342, 150.09253613696728 419.7809086553179" stroke="#000000" stroke-width="3" fill="none"></path></g><g><path d="M250.86920451560516 318.49780467398716 C251.45515479629492 353.14169952479057, 250.05304617517123 385.6578854692828, 251.94106198875156 418.4536677810124 M249.53742385350134 320.6063075868553 C251.35582849373776 344.38400128762663, 250.32897321440132 369.20776540024633, 249.0995062259564 419.8872788023415" stroke="#000000" stroke-width="3" fill="none"></path></g><g><path d="M129.5195387054532 319.4432890917651 C220.98851985586674 321.4104427310617, 313.9827398282646 320.47100915473203, 378.9391327201112 320.78282047187 M130.25270128525517 320.42315321345677 C225.7987595219455 320.43169035195126, 322.0252689798521 320.10936510260416, 379.49999077785344 319.7635776291038" stroke="#000000" stroke-width="2.5" fill="none"></path></g><g><path d="M451.2831353379854 339.75833958767726 C450.3232737052536 358.9984355654913, 451.81416484141846 378.70069001756866, 449.5911635174691 419.32160651808226 M450.45866853122715 340.46292107910153 C450.5211591104757 365.10760171020064, 451.3936868106482 390.6020914929879, 451.59578803835456 419.2439157548501" stroke="#000000" stroke-width="2.5" fill="none"></path></g><g><path d="M551.4814268310068 358.26259676787186 C553.1145143352461 380.9139476558559, 549.0023184507527 400.16597597502704, 552.3211758633757 416.02245142848244 M549.8802620440132 360.7644937654388 C550.5269652441979 379.14854449936473, 547.892942454113 396.8871101440025, 551.1894769566683 421.9593042708593" stroke="#000000" stroke-width="2" fill="none"></path></g><g><path d="M381.99056430081873 319.5112908139378 C396.9368877787365 328.92536126063425, 410.21128892978055 334.41692363457446, 430.5303316224377 344.4621083623884 M381.1815069652027 320.2339386628639 C400.1021424738482 329.30119415925543, 416.96054219190614 340.11170994784203, 428.67444879368435 344.7597097270541" stroke="#CC3333" stroke-width="2.4" fill="none"></path></g><g><path d="M441.2753442207414 351.3043151713124 C457.6675650176619 352.4415903702357, 475.79980986423664 360.5743490450114, 522.2418653564367 373.0631399969917 M440.17171462242777 350.9135801455946 C464.8959977312676 359.00455897815647, 491.89902911449747 367.47465195942266, 518.9593740857039 375.596251013554" stroke="#CC3333" stroke-width="2" fill="none"></path></g><g><path d="M532.9159057910607 382.5662335192791 C541.8926942826425 388.68921161141446, 554.3988108869047 390.70302270788255, 580.4291017200826 412.6798190567756 M530.2970975470407 380.3693118921824 C544.8390935375724 390.4500741828674, 564.0152017330272 401.0592036028312, 579.2040166997514 408.3827109545252" stroke="#CC3333" stroke-width="1.8" fill="none"></path></g><g><path d="M397.00684328280664 321.2625498077503 C397.00684328280664 321.2625498077503, 397.00684328280664 321.2625498077503, 397.00684328280664 321.2625498077503 M397.00684328280664 321.2625498077503 C397.00684328280664 321.2625498077503, 397.00684328280664 321.2625498077503, 397.00684328280664 321.2625498077503" stroke="none" stroke-width="1.2" fill="none"></path><path d="M399.82638451533126 320.76289655266623 C400.6777858471555 320.49389663906277, 401.8788015070662 320.2892979191603, 402.55599725550525 320.8430883984012 C403.2331930039443 321.39687887764217, 403.8237265796503 322.9697374925637, 403.8895590059656 324.0856394281118 C403.9553914322809 325.2015413636599, 403.43874371312796 326.9429586280829, 402.9509918133969 327.53850001168985 C402.46323991366586 328.1340413952968, 401.8091939261467 327.55946344914173, 400.9630476075793 327.65888772975353 C400.11690128901193 327.75831201036533, 398.55851108112967 328.25618078850266, 397.87411390199253 328.1350456953606 C397.1897167228554 328.0139106022185, 397.2401799065675 327.6527973626568, 396.85666453275655 326.9320771709009 C396.4731491589456 326.211356979145, 395.5686275919791 324.7319070864604, 395.57302165912665 323.8107245448252 C395.5774157262742 322.88954200318994, 396.20972988371165 322.0053448168972, 396.8830289356417 321.40498192108964 C397.5563279875717 320.8046190252821, 398.98853060987886 320.1307035225937, 399.6128159707069 320.2085471699797 C400.2371013315349 320.28639081736566, 400.63096422618435 321.63395062088773, 400.62874110060994 321.87204380540555 M400.6853234515468 321.1035851186067 C401.39071213333915 321.3196129925436, 401.8068417880089 321.88711421522646, 402.1646400506496 322.3203956829988 C402.5224383132903 322.7536771507712, 402.6548153308159 323.0711730167198, 402.8321130273912 323.7032739252408 C403.0094107239665 324.3353748337618, 403.5322644603012 325.1232792325177, 403.22842623010143 326.11300113412483 C402.9245879999017 327.10272303573197, 401.8846581017503 329.24051075036357, 401.0090836461927 329.6416053348838 C400.13350919063515 330.0426999194041, 398.91450639000993 329.2539618669295, 397.97497949675596 328.51956864124645 C397.035452603502 327.7851754155634, 395.5507342618714 326.0356488896643, 395.3719222866688 325.2352459807856 C395.19311031146617 324.43484307190687, 396.3315295258038 324.56359099206736, 396.90210764554035 323.7171511879743 C397.47268576527694 322.87071138388126, 398.10564863655804 320.8418129171588, 398.7953910050882 320.15660715622727 C399.4851333736184 319.47140139529574, 400.73268078607214 319.3793891523394, 401.0405618567216 319.60591662238534 C401.348442927371 319.8324440924313, 400.53219906280975 321.2475213785711, 400.64267742898477 321.51577197650295" stroke="#CC3333" stroke-width="2.4" fill="none"></path></g><g><path d="M195.59694998079635 258.8057051299805 C195.59694998079635 258.8057051299805, 195.59694998079635 258.8057051299805, 195.59694998079635 258.8057051299805 M195.59694998079635 258.8057051299805 C195.59694998079635 258.8057051299805, 195.59694998079635 258.8057051299805, 195.59694998079635 258.8057051299805 M194.98518373397926 268.7708013060053 C198.49322388010816 265.8992028430561, 200.44973341172883 260.68710791294296, 203.50715307968824 259.4512600110337 M195.50042815827263 268.16734315934383 C197.82513094853198 265.22830900782355, 200.14037468719783 262.76059537809675, 202.86708697462518 258.88568979766785 M201.05671481556465 270.81327049971657 C203.14462541520592 268.83771256213066, 204.78980730358572 265.2848860748666, 206.8635579280965 264.53334777005796 M200.8740800808947 271.6899116376404 C202.56193176753166 269.87161831209653, 203.2956301554777 267.71302071666815, 206.854388924833 263.487375938199" stroke="none" stroke-width="0.8" fill="none"></path><path d="M200.32297794981437 256.8310077624878 C201.44275124663625 257.03494469936413, 203.0741238506836 258.77683183490245, 204.19633585961788 259.936547103239 C205.31854786855214 261.0962623715755, 206.88620496747387 262.4851046075537, 207.05625000342005 263.7892993725069 C207.22629503936622 265.0934941374601, 206.32058831755316 266.56406358590476, 205.2166060752949 267.76171569295826 C204.11262383303662 268.95936780001176, 201.88682976684413 270.5291322175726, 200.4323565498705 270.9752120148278 C198.97788333289685 271.4212918120829, 197.7561502250631 271.24327717109406, 196.489766773453 270.4381944764892 C195.2233833218429 269.6331117818843, 193.14590903202102 267.7596089981547, 192.83405584020997 266.14471584719837 C192.52220264839892 264.52982269624204, 194.10481746008747 262.03337365393276, 194.6186476225867 260.74883557075117 C195.13247778508594 259.4642974875696, 194.82791075937152 258.926402355852, 195.91703681520542 258.4374873481089 C197.00616287103932 257.9485723403658, 200.16824269963163 257.80043124025957, 201.15340395759006 257.8153455242924 C202.13856521554848 257.83025980832525, 201.8659728171598 258.4421077381658, 201.8280043629559 258.526973052306 M196.48514581098567 257.6715004583081 C197.9733235639473 256.84251455078237, 201.21033952014056 255.91670603114412, 202.68065503184337 256.45184493586765 C204.15097054354618 256.9869838405912, 204.77596385037876 259.5329805232183, 205.30703888120246 260.8823338866494 C205.83811391202616 262.2316872500805, 205.7782451493882 263.4069407071023, 205.86710521678552 264.547965116454 C205.95596528418284 265.6889895258057, 206.8389679434457 266.78567723861204, 205.84019928558644 267.72848034275955 C204.84143062772716 268.67128344690707, 201.549513736079 269.98207906115135, 199.8744932696298 270.20478374133904 C198.19947280318058 270.42748842152673, 196.69818866762952 269.8805453179629, 195.79007648689114 269.0647084238855 C194.88196430615275 268.2488715298081, 194.92636470641207 266.9095973911844, 194.42582018519943 265.3097623768746 C193.92527566398678 263.70992736256477, 192.52061555758405 260.5595644225246, 192.78680935961526 259.4656983380266 C193.05300316164647 258.37183225352857, 195.28201287893728 259.18762953824864, 196.02298299738672 258.74656586988647 C196.76395311583616 258.3055022015243, 197.06541205046585 257.10376413933466, 197.23263007031196 256.8193163278535" stroke="#000000" stroke-width="1.6" fill="none"></path></g><g><path d="M198.41545081461035 277.53750602032557 C200.06867949159886 285.58885935170656, 199.5196254582015 288.79132043271557, 198.46094093004706 298.5013116562776 M199.7001361259965 277.8373137626342 C199.44814933932273 281.8706079806696, 200.55540792904296 287.29652893725176, 200.35026143210072 299.64836382442957" stroke="#000000" stroke-width="1.4" fill="none"></path></g><text x="400" y="560" text-anchor="middle" font-family="sans-serif" font-size="16" fill="#222" font-style="italic">"Reputation is a bridge that holds weight until it cracks — then holds none."</text></svg>