<?xml version="1.0" encoding="UTF-8"?>
<svg width="800" height="600" viewBox="0 0 800 600" xmlns="http://www.w3.org/2000/svg"><rect width="800" height="600" fill="#FFFFFF"></rect><g><path d="M423.72324253349814 361.97635091578763 C433.84082063596065 363.2381456249377, 445.4731731818554 366.35700012566184, 451.7083971842529 369.3304065928397 C457.9436211866504 372.3038130600176, 461.08332639994205 376.3485319378179, 461.13458654788315 379.81678971885486 C461.18584669582424 383.28504749989185, 457.7941810078661 387.12907781731724, 452.0159580718995 390.13995327906156 C446.2377351359329 393.1508287408059, 436.51082929352253 396.4105647814798, 426.4652489320836 397.8820424893206 C416.4196685706447 399.3535201971614, 402.82423345897 399.39440859070544, 391.74247590326587 398.9688195261064 C380.6607183475617 398.5432304615074, 368.52221523890125 397.50392252568395, 359.97470359785865 395.32850810172636 C351.42719195681605 393.15309367776877, 343.7406506490301 389.3852527035214, 340.45740605701013 385.9163329823608 C337.17416146499016 382.4474132612002, 337.21009903293645 378.0181578328823, 340.2752360457388 374.51498977476285 C343.3403730585411 371.0118217166434, 350.4685424240243 367.1643785185656, 358.84822813382414 364.89732463364413 C367.227913843624 362.63027074872264, 378.77087413298375 361.3632866861565, 390.5533503045378 360.912666465234 C402.3358264760918 360.46204624431147, 422.5894540419945 361.7306540675355, 429.54308516314836 362.193603308109 C436.49671628430224 362.6565525486825, 432.952747062915 363.3873574108468, 432.27513703146093 363.69036190867496 M380.45097930163485 360.06604505423985 C390.2853476041363 358.64487492758315, 404.18597301630746 359.62561223115836, 414.9726924441539 360.4467357787174 C425.7594118720003 361.2678593262765, 437.6177009519044 362.48483491387844, 445.1712958687133 364.9927863395943 C452.7248907855222 367.5007377653102, 458.04228163605706 371.97519587600124, 460.2942619450073 375.4944443330125 C462.54624225395753 379.01369279002375, 462.6283857662437 382.65290378466983, 458.68317772241477 386.1082770816619 C454.73796967858584 389.563650378654, 445.7244350446485 393.86602060155155, 436.62301368203356 396.22668411496517 C427.52159231941863 398.5873476283788, 415.3451333596805 400.0880506152185, 404.0746495467251 400.27225816214377 C392.80416573376965 400.45646570906905, 378.5822101349914 399.03769111339386, 369.0001108043008 397.3319293965168 C359.4180114736102 395.6261676796397, 351.442941494679 393.0481578615588, 346.5820535625815 390.0376878608814 C341.721165630484 387.027217860204, 339.2725616844139 383.01518699852437, 339.8347832117156 379.2691093924522 C340.3970047390173 375.52303178638005, 343.4841022400099 370.58408787118606, 349.95538272639163 367.56122222444856 C356.42666321277335 364.53835657771106, 373.58390433516286 362.2996956870837, 378.6624661300059 361.1319155120274 C383.74102792484894 359.964135336971, 380.02277793909997 360.30067209575753, 380.4267534954498 360.5545411741104" stroke="none" stroke-width="0" fill="#D4E8F7"></path><path d="M422.65825234482827 362.4047382454762 C432.6602716124432 363.57871890591383, 443.2861093086632 366.2664329402652, 449.7713269705265 368.9034533281823 C456.2565446323898 371.5404737160994, 461.0865262486673 374.66691846838864, 461.569558316008 378.2268605729789 C462.0525903833487 381.7868026775692, 458.3531438851703 387.0521410850862, 452.66951937457065 390.2631059557241 C446.985894863971 393.474070826362, 437.110294825486 395.9163970011998, 427.4678112524101 397.4926497968064 C417.82532767933424 399.068902592413, 405.7986592842799 400.1536810262621, 394.8146179361155 399.72062272936347 C383.8305765879511 399.2875644324648, 370.38293483253983 397.2066121616118, 361.56356316342385 394.89430001541433 C352.74419149430787 392.58198786921685, 345.40884329495776 389.08556747028075, 341.8983879214195 385.8467498521784 C338.38793254788123 382.60793223407603, 337.8273867941859 378.7541393221069, 340.50083092219415 375.46139430680006 C343.1742750502024 372.16864929149324, 350.0663368309444 368.61239559618895, 357.93905268946924 366.0902797603373 C365.81176854799406 363.56816392448565, 376.2787139108349 361.0341542687991, 387.73712607334306 360.32869929169004 C399.19553823585125 359.623244314581, 419.7398396756399 361.39307870653954, 426.68952566451816 361.85754989768293 C433.6392116533964 362.3220210888263, 430.05164330156254 362.66408695976907, 429.4352420066123 363.11552643855043 M403.97795471899366 360.37185658143864 C414.80077847421586 360.2143467523773, 428.2574930443351 361.87937022736133, 437.406645369316 364.0844328655489 C446.55579769429687 366.2894955037364, 454.98982217748085 370.305535039832, 458.8728686688788 373.602232410564 C462.7559151602768 376.898929781296, 463.17824640725433 380.5082846120742, 460.70492431770396 383.8646170899407 C458.2316022281536 387.22094956780717, 451.9631153649033 391.2264517342655, 444.0329361315765 393.740227277763 C436.1027568982497 396.2540028212605, 424.0395592064471 398.1579789263829, 413.12384891774315 398.94727035092563 C402.2081386290392 399.7365617754684, 388.793461535696 399.77009666653356, 378.53867439935266 398.47597582501953 C368.2838872630093 397.1818549835055, 358.20388284914145 393.93374933468147, 351.5951260996833 391.1825453018414 C344.9863693502251 388.43134126900134, 339.6934116670825 385.2455672726635, 338.88613390260366 381.9687516279791 C338.0788561381248 378.6919359832947, 341.6247134501609 374.8482571079388, 346.75145951281036 371.52165143373486 C351.8782055754598 368.1950457595309, 360.1500921875991 363.9501540423429, 369.6466102785004 362.00911758275515 C379.1431283694017 360.0680811231674, 397.77445120024805 360.2929010989196, 403.7305680582182 359.8754326762084 C409.6866849161883 359.4579642534972, 405.2991631979775 359.30144201889277, 405.3833114263211 359.5043070464882" stroke="#4A90D9" stroke-width="2.4" fill="none"></path></g><g><path d="M391.7030586959867 197.40087080480058 C391.7030586959867 197.40087080480058, 391.7030586959867 197.40087080480058, 391.7030586959867 197.40087080480058 M391.7030586959867 197.40087080480058 C391.7030586959867 197.40087080480058, 391.7030586959867 197.40087080480058, 391.7030586959867 197.40087080480058 M387.9077954765422 216.70176248280845 C394.1915425389223 207.6363977414514, 397.2996168836213 200.1390975359683, 400.5599936345809 198.47152722633564 M386.8978698567074 215.69948819129024 C392.2277729762292 209.54878675942814, 397.29059318119545 201.70528779117782, 401.3725976819875 196.9567989809848 M393.4375116886475 220.48295083757162 C398.8023363030124 215.24523666749013, 401.689708403939 209.20242833096734, 412.1728020300402 200.67302482056476 M393.1483050185568 221.68960337490427 C400.31826319210603 213.30474737704068, 405.90215681647607 204.9448630486738, 410.6012739567016 200.97188317091457 M400.99439397434077 223.9624315036258 C402.7145599121755 217.36519051629642, 409.1461519875108 216.93387563762388, 415.43423416741797 208.23891991678158 M401.9366745369979 222.02741926966237 C406.5529285154043 216.92395143232892, 409.43546441494817 212.70577069307564, 415.13441389323367 206.95136442463829" stroke="none" stroke-width="1" fill="none"></path><path d="M400.9477545313552 196.06320790458057 C403.95225848841164 196.12591545341584, 407.48008884720656 197.2110438288402, 409.95287484742414 199.45096676624607 C412.4256608476417 201.69088970365195, 415.46593034659907 206.45062580781834, 415.7844705326608 209.50274552901578 C416.10301071872254 212.55486525021323, 413.87474574260045 215.4744565126993, 411.86411596379475 217.76368509343075 C409.85348618498904 220.0529136741622, 406.6169307666211 222.44924392435925, 403.72069185982645 223.23811701340455 C400.82445295303177 224.02699010244984, 397.3085609498157 223.61030131296192, 394.4866825230266 222.49692362770259 C391.6648040962375 221.38354594244325, 388.31859111800435 219.33655084258746, 386.78942129909177 216.55785090184858 C385.2602514801792 213.7791509611097, 384.53722885464515 208.96635707062063, 385.31166360955115 205.8247239832694 C386.08609836445714 202.68309089591816, 388.6047996442873 199.3405108581456, 391.4360298285278 197.70805237774124 C394.2672600127683 196.0755938973369, 400.17735155309697 196.36026346677482, 402.299044714994 196.02997310084325 C404.42073787689105 195.69968273491168, 404.0407580567541 195.49753700243633, 404.16618879991 195.7263101821518 M401.693651135583 196.6698979453499 C405.10973884886056 197.1358461777832, 410.56029707679465 198.94676071457837, 412.84000528067014 201.16212758962584 C415.1197134845456 203.3774944646733, 415.27411072544584 207.1720987093052, 415.371900358836 209.9620991956346 C415.46968999222617 212.752099681964, 415.34702220177047 215.48465819546564, 413.4267430810112 217.90213050760227 C411.5064639602519 220.3196028197389, 407.1079089325224 223.47445152107144, 403.85022563428026 224.46693306845438 C400.59254233603815 225.45941461583732, 396.9894610908241 225.4164747276237, 393.88064329155844 223.85701979189997 C390.7718254922928 222.29756485617625, 386.41238548626336 218.210931716175, 385.1973188386864 215.11020345411202 C383.9822521911094 212.00947519204905, 385.65620167266127 208.1441428317838, 386.59024340609653 205.25265021952217 C387.5242851395318 202.36115760726054, 388.3290634322482 199.30378198689505, 390.8015692392979 197.76124778054222 C393.27407504634766 196.2187135741894, 399.416041471871 196.3646678580959, 401.4252782483948 195.9974449814052 C403.43451502491865 195.6302221047145, 402.8934311487535 195.13458400790066, 402.8569898984408 195.55791052039805" stroke="#000000" stroke-width="2" fill="none"></path></g><g><path d="M401.94605923575205 224.88041290483858 C398.94435429809727 236.51499075690822, 401.4664146415633 250.45415790989912, 398.68004182627067 281.4219551105837 M399.44514283415793 225.37736316458847 C400.51053039606484 241.25392666467317, 399.82890774053726 258.0366878901905, 400.9884166183234 279.89499279238277" stroke="#000000" stroke-width="2" fill="none"></path></g><g><path d="M401.5419884253324 279.49575319019624 C396.87865788453774 286.458255609183, 393.74459041252135 297.23084901491336, 385.2174549761146 320.9406366656725 M399.42894939846025 279.56643881395723 C395.0494411754876 292.1624613022501, 392.3630937792214 304.32622712320796, 385.9790314289364 319.2201754831675" stroke="#000000" stroke-width="2" fill="none"></path></g><g><path d="M398.5319665721519 280.3966697161678 C406.1694188680784 293.6040731109325, 410.2701327781121 302.5881725384216, 412.6419377856129 321.26499543681797 M399.74974691586624 280.2804110935426 C404.81473742104043 296.10111525708925, 411.9109391308758 312.16397176608945, 413.01051631224493 319.5799866012474" stroke="#000000" stroke-width="2" fill="none"></path></g><g><path d="M398.17764966047537 246.56251481322718 C385.8403961576033 258.5877087061541, 373.6265908747263 271.4801400640435, 356.85242658403615 291.4654607704007 M399.67340419761825 245.98538420640187 C384.91576732695086 259.5935506744811, 371.95256981402963 272.89544479872404, 354.8028448654299 290.68830323499975" stroke="#000000" stroke-width="2" fill="none"></path></g><g><path d="M400.54244449989164 244.18193616561723 C410.0684746098939 258.3615889457883, 421.7966093020137 268.4284232685639, 445.8798959345385 288.317399085775 M399.2640382224919 244.67000055978153 C413.75797542123377 258.40583826354674, 427.70896421235057 273.23881742872106, 445.4812012248633 289.4573603696256" stroke="#000000" stroke-width="2" fill="none"></path></g><g><path d="M138.07759474877093 271.0805031464345 C138.07759474877093 271.0805031464345, 138.07759474877093 271.0805031464345, 138.07759474877093 271.0805031464345 M138.07759474877093 271.0805031464345 C138.07759474877093 271.0805031464345, 138.07759474877093 271.0805031464345, 138.07759474877093 271.0805031464345 M138.55891972973973 283.03505105041114 C143.6227617972503 277.2752868704333, 146.80380566110125 270.15961651141276, 156.10324289596235 263.65224960239135 M138.86551983121686 281.1368335963851 C142.55873045634758 277.6015128443389, 145.1331492087473 273.2118617394401, 155.16771652346054 262.88413903494876 M146.0292267482629 285.74889249902765 C149.3105730642744 281.6573094936862, 152.61910895443103 277.46195329204744, 161.38978735177045 267.43002017435754 M145.20646098368113 287.49177188957384 C149.88631474453476 281.06161136475237, 155.88526838543993 273.43526153753476, 161.98238980978846 268.9445465990292 M155.32012396147863 288.9155225237652 C158.82976554833414 286.2961895944582, 161.5044954044243 281.37650878705983, 164.5535791231528 275.93662100030224 M154.46872101906226 289.8861459651962 C158.72829269905986 285.3095126040443, 161.8999068475536 280.6329887545265, 164.8259708747471 277.2817302069069" stroke="none" stroke-width="1" fill="none"></path><path d="M152.70301387954188 261.8150779498577 C155.1125790133824 262.0713453326747, 157.758498867694 263.6366760614155, 159.285826944324 265.84830388552854 C160.81315502095399 268.05993170964155, 161.7345294969551 272.1299719943233, 161.86698233932182 275.08484489453593 C161.99943518168854 278.0397177947486, 161.61122342685044 281.4025651852907, 160.08054399852435 283.5775412868043 C158.54986457019825 285.7525173883179, 155.32946890373358 287.5781095771475, 152.68290576936525 288.1347015036177 C150.0363426349969 288.6912934300879, 146.6922889531183 288.208656337392, 144.20116519231436 286.9170928456256 C141.71004143151043 285.6255293538592, 138.7560234918054 283.02559744491134, 137.73616320454175 280.3853205530195 C136.7163029172781 277.7450436611276, 136.91834418774116 273.8243833715711, 138.08200346873247 271.0754314942745 C139.24566274972378 268.32647961697785, 141.90377036049202 265.37120336143744, 144.71811889048965 263.89160928923957 C147.53246742048728 262.4120152170417, 152.821532365671 262.3743759509632, 154.9680946487182 262.1978670610872 C157.11465693176538 262.0213581712112, 157.59587164209336 262.5564362161257, 157.59749258877278 262.83255594998343 M154.32031843876732 262.21211444946755 C156.6404772467661 263.1152752818484, 158.67085863101443 266.86152005791257, 160.0181606569955 269.14484163625974 C161.36546268297656 271.4281632146069, 162.46222781621245 273.37829927258156, 162.40413059465374 275.9120439195506 C162.34603337309503 278.4457885665197, 161.75278716626042 282.04155046412467, 159.66957732764328 284.34730951807427 C157.58636748902614 286.65306857202387, 152.65171114850466 289.34020129335295, 149.90487156295083 289.74659824324823 C147.158031977397 290.1529951931435, 145.21887792583712 288.78957322267337, 143.18853981432022 286.7856912174458 C141.15820170280332 284.7818092122182, 138.37617405613304 280.6105437169301, 137.7228428938494 277.72330621188274 C137.06951173156574 274.83606870683536, 137.8637562583767 271.83633535448104, 139.26855284061833 269.4622661871616 C140.67334942285996 267.0881970198422, 143.54861621186896 264.7388850844919, 146.15162238729914 263.47889120796617 C148.75462856272932 262.2188973314404, 153.7645283692999 262.1020783248244, 154.88658989319939 261.90230292800726 C156.00865141709886 261.7025275311901, 152.94859653755634 262.2091962598541, 152.8839915306959 262.28023882706344" stroke="#000000" stroke-width="2" fill="none"></path></g><g><path d="M151.0511849827273 289.82220478834273 C150.6510980114009 300.44839950794636, 150.1612529804984 312.7332727510513, 151.65160344401315 328.58275497836615 M149.76347586270018 287.381789372465 C149.235706042235 296.78541130921093, 149.41241451618217 306.7516077693803, 150.55386281432936 329.26002895014926" stroke="#000000" stroke-width="2" fill="none"></path></g><g><path d="M148.53479507632093 328.54391700918103 C145.6016612620121 338.6206935396771, 145.63044986239356 346.16827319675724, 139.99014214665166 363.87424238814197 M150.88127410886037 329.33975861730045 C145.85840263884756 343.89218458721035, 141.46000109697255 357.9593494890408, 138.0198611434108 364.34648888360994" stroke="#000000" stroke-width="2" fill="none"></path></g><g><path d="M148.4108551472934 331.24396640712934 C150.8331708395275 336.36560750223447, 154.55777184817074 344.6000512174472, 161.60110809931774 364.6172886918576 M149.95506977616563 329.1875065953015 C153.74501654121823 343.72584201523404, 158.97424059876008 357.74686751907836, 162.9239060187323 364.61794282484533" stroke="#000000" stroke-width="2" fill="none"></path></g><g><path d="M150.10877376831428 303.1641346878801 C140.54236632362674 308.52852410703014, 133.51052237757622 315.7478305445407, 130.87389124346026 322.20168085027365 M149.66171119364526 301.6578814496234 C141.64695030499877 310.72055056408163, 134.89289950165832 317.11171975806315, 130.73525837606476 321.4311801932506" stroke="#000000" stroke-width="2" fill="none"></path></g><g><path d="M151.96446852762136 300.75693967965265 C156.93646984603672 309.43053287854644, 165.04201538823665 314.71921461500386, 171.69918700817456 322.48818045356256 M150.99081402664473 302.42391082628177 C155.66393502746607 307.95612250160264, 163.2800579471119 314.26020672519655, 169.1763947966118 321.78567112579157" stroke="#000000" stroke-width="2" fill="none"></path></g><g><path d="M239.1160900721199 287.3612254990928 C239.1160900721199 287.3612254990928, 239.1160900721199 287.3612254990928, 239.1160900721199 287.3612254990928 M239.1160900721199 287.3612254990928 C239.1160900721199 287.3612254990928, 239.1160900721199 287.3612254990928, 239.1160900721199 287.3612254990928 M238.71272696649208 300.8575192095678 C244.98032700115144 296.11816033343206, 248.86164488844932 289.3587875793111, 252.7079123421208 284.9107396050453 M238.90849556459264 300.05932170779613 C244.05736219120706 294.8668784127453, 248.1097296582987 287.6299995849817, 252.56074549709425 283.4943597168796 M244.3943925414084 307.0496904307549 C246.98093390207268 302.27893935881286, 252.9090563090343 297.42029475744994, 260.5703493908507 287.6589184502181 M244.8879490125024 305.80742515062065 C249.52483834599488 300.004344425542, 256.4521613136026 292.27328481974547, 259.1938448612326 288.1504935361036 M253.87601336940082 306.53759708374696 C256.3071811648444 303.9493726264986, 260.49207880967316 301.0154822819103, 264.2120523247541 295.11257368359753 M254.85019347437327 305.9309592219578 C257.3874892787762 301.81755454817215, 261.30419396997803 298.21088027403414, 262.60375001378486 296.0347509532899" stroke="none" stroke-width="1" fill="none"></path><path d="M246.09753505636775 283.07759557087707 C248.55212098672277 281.9687596987187, 252.4425909830627 281.8086561783632, 254.98066143863275 282.87210005604663 C257.5187318942028 283.93554393373006, 260.0338371830105 286.84451479051694, 261.32595778978805 289.4582588369776 C262.6180783965656 292.0720028834383, 263.3245833232572 296.059680669847, 262.73338507929793 298.5545643348108 C262.1421868353387 301.04944799977454, 260.1683598756378 302.9591065916205, 257.77876832603266 304.4275608267602 C255.3891767764275 305.8960150618999, 251.21974865690288 307.50959323732445, 248.39583578166693 307.36528974564874 C245.57192290643098 307.220986253973, 242.88551581652956 305.3500151744032, 240.835291074617 303.56173987670604 C238.78506633270445 301.7734645790089, 236.3543254549799 299.3664332058093, 236.09448733019155 296.6356379594659 C235.83464920540322 293.9048427131225, 237.0476210768985 289.621239080625, 239.276262325887 287.1769683986457 C241.50490357487547 284.73269771666645, 247.08930989556828 282.62109231690164, 249.46633482412238 281.9700138675903 C251.8433597526765 281.31893541827895, 253.4156400667166 282.99094017102556, 253.5384118972117 283.2704977027777 M243.64143878232176 284.7451910880591 C246.32918596980542 283.65754416748695, 251.84976113202202 282.8138035615459, 254.69644617141915 283.21438539893364 C257.5431312108163 283.6149672363214, 259.4857011357311 284.8232964233301, 260.72154901870454 287.1486821123854 C261.95739690167795 289.47406780144075, 262.4701599968951 294.55181432960916, 262.1115334692597 297.1666995332658 C261.7529069416243 299.7815847369224, 260.39747774562665 300.89423989937416, 258.56978985289203 302.83799333432506 C256.7421019601574 304.78174676927597, 254.07611550452987 308.16965987817525, 251.14540611285196 308.82922014297105 C248.21469672117405 309.48878040776685, 243.4423088846375 308.7275068051914, 240.98553350282467 306.79535492309975 C238.52875812101183 304.8632030410081, 236.98647718597135 300.31315409957165, 236.40475382197488 297.23630885042127 C235.8230304579784 294.1594636012709, 235.96203515001838 290.7246280399252, 237.49519331884585 288.33428342819764 C239.02835148767332 285.94393881647005, 244.5385802672842 283.4721966265881, 245.60370283493978 282.8942411800558 C246.66882540259536 282.31628573352356, 244.11379276750645 284.84228383612583, 243.88592872477932 284.866550749004" stroke="#000000" stroke-width="2" fill="none"></path></g><g><path d="M251.57299642951963 309.96866744554853 C251.08251905716907 318.586370303978, 248.50258185042912 325.9367408674332, 250.40575445281638 349.4876362305123 M249.013980171925 308.6043688092703 C249.8219705470881 324.09305220902, 249.8691842143001 338.6008151362846, 250.2852336893115 350.99868892403384" stroke="#000000" stroke-width="2" fill="none"></path></g><g><path d="M249.48861798393224 348.67154174119275 C247.8714503619317 356.4378971837648, 245.1970365164668 364.4224085905036, 239.79799019513896 385.93387327200884 M250.2530821716453 350.41405766289637 C246.40981688804737 362.9627874887302, 242.26823076599808 375.32280669664124, 237.64313004766726 385.5909082361149" stroke="#000000" stroke-width="2" fill="none"></path></g><g><path d="M248.79762528291437 350.4641374710218 C253.6306758765512 359.7812226288713, 257.3452351142449 369.74699741704757, 263.80329937160315 385.8484167114422 M250.4377789858097 350.1084730460708 C253.73736438888895 360.67430401440834, 256.8666516968008 370.52218523437983, 261.3516012311398 384.1447448589346" stroke="#000000" stroke-width="2" fill="none"></path></g><g><path d="M249.25486967608424 321.33789926194527 C243.98895513368393 327.0839308892852, 234.5732484320525 336.3681128168793, 228.30059391356716 342.0864365743251 M249.1938245442804 321.3319968347201 C245.9182591002763 325.59663425810015, 241.85499292341893 331.09187332612527, 230.3093437481188 342.5089659857792" stroke="#000000" stroke-width="2" fill="none"></path></g><g><path d="M251.67479096956447 321.3873464481725 C256.14142148435445 327.6384955974529, 260.1471256525148 331.3144835969302, 270.4901185531796 341.27408746072797 M250.30311146791328 321.56439663053794 C256.48880568013374 327.38043693778263, 261.68679651912464 334.49993234617403, 269.9365935024716 341.4190196400246" stroke="#000000" stroke-width="2" fill="none"></path></g><g><path d="M538.5372601152503 287.9415309426363 C538.5372601152503 287.9415309426363, 538.5372601152503 287.9415309426363, 538.5372601152503 287.9415309426363 M538.5372601152503 287.9415309426363 C538.5372601152503 287.9415309426363, 538.5372601152503 287.9415309426363, 538.5372601152503 287.9415309426363 M537.5069751815719 299.66150379138315 C546.5686428655195 292.55252504982883, 549.9712490012524 286.41330912594987, 555.5841551095281 281.8648533976877 M539.3410960332855 298.9942289890551 C544.2274710204053 294.90140468976307, 549.3118968797152 289.1608849529244, 554.2175182408581 282.22750532531626 M543.5096788504551 306.4919012257217 C548.3621566244415 301.51434239449156, 552.9127782354605 294.3721481882408, 559.7981355134121 289.71180925924267 M545.546926213935 305.3279925728031 C548.2858160398931 300.5375838210323, 552.9684157332193 295.76783625488736, 560.6513549429453 287.4193527018493 M553.9278382236946 308.0592066689141 C555.2711039654529 302.8498387268126, 558.9369824001416 300.4284960480321, 562.4968185291139 296.4444295444894 M553.140417489481 307.7420514073286 C556.8778766299682 303.12384419678585, 559.9249711512998 300.4198886826754, 562.4982574633467 296.59496866141757" stroke="none" stroke-width="1" fill="none"></path><path d="M553.994274516588 282.52909971377335 C556.2398407393729 283.34906987581496, 558.9967626878343 286.81997486446363, 560.3810656944195 289.16581880992624 C561.7653687010046 291.51166275538884, 562.4918936908574 293.9252103149351, 562.3000925560988 296.6041633865489 C562.1082914213401 299.28311645816274, 561.1221446655516 303.32464537067204, 559.2302588858674 305.23953723960926 C557.3383731061833 307.1544291085465, 553.8096755656073 308.22608586243865, 550.948777877994 308.09351460017217 C548.0878801903806 307.9609433379057, 544.1894337291019 306.37003279681716, 542.0648727601871 304.4441096660105 C539.9403117912723 302.5181865352038, 538.7393513102776 299.34591964582836, 538.2014120645051 296.5379758153322 C537.6634728187327 293.730031984836, 537.6914575601992 290.0404813621871, 538.8372372855523 287.59644668303326 C539.9830170109054 285.1524120038794, 541.8546669068454 282.4384100027388, 545.0760904166236 281.87376774040916 C548.2975139264018 281.3091254780795, 555.5136501216662 283.0007493615121, 558.1657783442218 284.2085931090555 C560.8179065667775 285.416436856599, 561.1395364223877 288.69473862764346, 560.9888597519575 289.12083022567 M547.3472135976714 282.52701389146546 C549.9119847832058 281.6506648615425, 554.4374919461013 281.7618430499963, 556.7469449441884 282.9612537997337 C559.0563979422755 284.1606645494711, 560.142526867402 286.7653303295556, 561.2039315861941 289.7234783898898 C562.2653363049862 292.68162645022403, 564.1580220126385 297.900568867573, 563.115373256941 300.71014216173904 C562.0727245012434 303.5197154559051, 557.5156989243644 305.3153658776481, 554.9480390520087 306.5809181548861 C552.3803791796529 307.8464704321241, 550.2050462754883 308.92585618445014, 547.7094140228066 308.3034558251668 C545.213781770125 307.68105546588345, 541.892317795553 305.2547585459228, 539.9742455359186 302.84651599918607 C538.0561732762842 300.4382734524493, 536.2165135864614 296.6938127353249, 536.2009804650003 293.85400054474644 C536.1854473435392 291.01418835416797, 537.9591655140457 287.9429974038706, 539.8810468071518 285.80764285571536 C541.802928100258 283.6722883075601, 546.5622434834845 281.5396446355951, 547.7322682236373 281.041873255815 C548.9022929637902 280.5441018760349, 546.7603532623755 282.5195494369582, 546.9011952480685 282.821014577035" stroke="#000000" stroke-width="2" fill="none"></path></g><g><path d="M550.795748514686 306.724545125116 C548.2619322654643 322.77625523900343, 549.1357311173466 338.785709181903, 550.5187611709241 348.6383645667781 M550.7505734069872 308.31342807867355 C550.4476726355015 320.25041282723953, 551.1026396419159 330.60576402637287, 549.8714552317606 350.3487792695616" stroke="#000000" stroke-width="2" fill="none"></path></g><g><path d="M548.6901763543885 350.46137057015704 C548.4755533742447 358.6257007425869, 544.8424756276115 367.1815728473185, 538.7190127635457 383.4443186416738 M550.2053065130809 349.0930777547848 C547.3505537346108 360.27462797515216, 542.9259716908311 368.4511610860426, 537.8039478318789 384.98513479871656" stroke="#000000" stroke-width="2" fill="none"></path></g><g><path d="M549.8946093371903 349.7850471266727 C552.5917113381267 357.5419263916011, 555.069500650412 366.1174918789276, 563.8883766258542 385.1606360933121 M549.5959990288554 350.6835378526003 C554.0856382527012 360.5870890538196, 556.1363581438414 369.1632764659971, 561.2346115364217 384.51809245927825" stroke="#000000" stroke-width="2" fill="none"></path></g><g><path d="M550.4612357208962 320.4167154573483 C547.0340226864419 328.30600160613864, 542.2941830426994 328.8846036661287, 531.2698480267397 340.2921852367548 M550.8292023301875 322.6971536297019 C542.1655852198136 328.644167330788, 535.9817229269515 336.41335450989595, 529.9893567294778 341.7554863422647" stroke="#000000" stroke-width="2" fill="none"></path></g><g><path d="M550.4240706446627 321.39970415527256 C559.3715701719879 329.99822106658576, 564.5943831706552 336.7995746776468, 571.1094697198505 342.04459037705163 M550.7791265187861 321.96134234155085 C558.3444110974266 330.2131180079519, 563.6363252158964 336.63679245966614, 569.934382662234 341.88524849449135" stroke="#000000" stroke-width="2" fill="none"></path></g><g><path d="M637.8418406730589 269.58965935138633 C637.8418406730589 269.58965935138633, 637.8418406730589 269.58965935138633, 637.8418406730589 269.58965935138633 M637.8418406730589 269.58965935138633 C637.8418406730589 269.58965935138633, 637.8418406730589 269.58965935138633, 637.8418406730589 269.58965935138633 M640.8350264631729 280.19888910011053 C646.1485479043417 272.4665358660017, 649.0020820486956 268.24936317107074, 655.405576482836 261.293979567101 M639.9552878130236 278.7124380738282 C643.7679919285645 273.81424727900543, 647.4894166591113 269.86558965986586, 653.3854862442428 262.1179214155888 M645.8354446958247 285.2546370600998 C650.6143224489375 283.6445015652302, 653.3053654968954 277.7706362177696, 661.4727278169307 267.7801074041707 M644.9414265042265 286.4571371719374 C649.6060685288971 278.6508432396296, 656.2913578746344 271.44781140688673, 661.0446389646688 266.81930154493386 M653.1444148506705 288.15536280135314 C656.7038225419218 284.9944186398994, 657.7842770896036 282.27158481940495, 662.8777846668138 279.23226945302275 M653.8711967571699 287.2530398054423 C655.710191194935 284.5535819745381, 659.1138962501764 282.74488662602806, 661.7714427552742 278.8591886468585" stroke="none" stroke-width="1" fill="none"></path><path d="M644.3918814862806 263.5478303981961 C646.4713226359131 262.1461246397521, 649.4843727750997 261.17678065948024, 652.1403319818205 261.77579331422527 C654.7962911885413 262.3748059689703, 658.530758113776 264.9487754235889, 660.3276367266054 267.14190632666623 C662.1245153394349 269.33503722974353, 663.256489960791 272.08823804061495, 662.9216036587975 274.9345787326889 C662.586717356804 277.7809194247629, 660.3176960239439 281.9757904766751, 658.3183189146442 284.21995047911014 C656.3189418053446 286.46411048154516, 653.4163852960892 288.0111122937377, 650.9253410029993 288.39953874729895 C648.4342967099094 288.7879652008602, 645.4144034950318 288.3226077338377, 643.3720531561049 286.5505092004777 C641.329702817178 284.77841066711767, 639.6246410388285 280.55728918960085, 638.6712389694381 277.7669475471389 C637.7178369000478 274.97660590467694, 636.3278612654008 272.25246595169074, 637.6516407397628 269.80845934570584 C638.9754202141248 267.36445273972095, 644.8345329934695 264.34174547529034, 646.61391581561 263.1029079112296 C648.3932986377505 261.8640703471688, 648.3238892425675 262.31969724811614, 648.3279376726058 262.3754339613412 M651.3179963525998 263.5360439289775 C653.8768192313968 263.5421939427367, 657.8775072922596 263.278897216376, 659.688893197141 264.69264457948015 C661.5002791020225 266.1063919425843, 662.0148212250003 269.16921364207565, 662.1863117818887 272.0185281076024 C662.357802338777 274.8678425731291, 662.2480095299377 279.1041645586964, 660.7178365384714 281.7885313726404 C659.1876635470051 284.4728981865844, 655.8291459257414 287.15037062125396, 653.0052738330908 288.12472899126635 C650.1814017404402 289.09908736127875, 645.9655506492163 288.7865928722848, 643.7746039825676 287.63468159271497 C641.5836573159188 286.4827703131451, 640.6816057834149 283.77631302570836, 639.8595938331982 281.2132613138472 C639.0375818829816 278.6502096019861, 638.5480539770056 274.84685207399025, 638.8425322812681 272.25637132154816 C639.1370105855306 269.66589056910607, 639.5833648720317 267.5508472148805, 641.6264636587733 265.6703767991947 C643.669562445515 263.7899063835089, 649.3889471822373 261.3094381744252, 651.1011250017183 260.97354882743343 C652.8133028211993 260.63765948044164, 651.9551664705092 263.3413117456058, 651.8995305756592 263.65504071724405" stroke="#000000" stroke-width="2" fill="none"></path></g><g><path d="M648.6196893094551 286.5429098198185 C651.2501280461156 303.08042144615086, 651.053779609458 314.8869830141497, 651.4863420032493 329.18958522600076 M650.8057811404847 287.05832376620964 C649.1855628783122 299.8906197287659, 650.2169057548135 312.0309436891593, 649.8012427595418 329.25536967619917" stroke="#000000" stroke-width="2" fill="none"></path></g><g><path d="M649.3287840705295 329.37290875904665 C644.8935222902978 341.2139918748948, 641.3807836966843 350.6993499291514, 639.7059914732563 365.39472994112805 M649.174843606344 330.9074449493197 C645.6299181296879 342.88368513375394, 640.4571206485472 358.7114330078731, 638.0026089453227 365.13082885639176" stroke="#000000" stroke-width="2" fill="none"></path></g><g><path d="M648.5476049402512 329.6240656593406 C653.4378821506954 337.0443943969569, 656.8660449071366 348.3984955024734, 662.3902700354951 365.85792014814996 M649.2448027162634 329.49059354519426 C653.1777999083243 339.22275179765865, 655.6985551609051 348.008338527138, 661.2030323412449 365.38027025304933" stroke="#000000" stroke-width="2" fill="none"></path></g><g><path d="M648.8870483319614 300.1658236718387 C643.3771154323325 305.43603866824714, 640.901758119743 313.07355234136367, 628.8891703783786 322.1958975952428 M650.2397132331089 301.9090671759235 C641.7462236320407 310.0945035693589, 634.5664651232611 315.5134029875599, 629.4431082529022 322.6420249510691" stroke="#000000" stroke-width="2" fill="none"></path></g><g><path d="M650.7764691793731 302.5094813177963 C658.720787065243 310.9354440936548, 666.0530499889287 315.8232262949231, 669.1823322045839 322.10389146923734 M650.3109007852283 301.49042259233397 C656.9243775597789 308.3437251711252, 662.7169836600673 313.31195074906543, 670.614115831861 322.55305156193043" stroke="#000000" stroke-width="2" fill="none"></path></g><g><path d="M373.25912407574276 332.43136482067376 C392.66773245937463 341.9961695146773, 409.3208346664716 349.3374408417539, 422.7156124379071 358.96415999543535 M374.1639896518764 333.786683430137 C390.8452735799688 342.70391236687107, 407.4265810510062 353.0153148127075, 425.7753184603168 359.8731096719095" stroke="#CC3333" stroke-width="3" fill="none"></path></g><g><path d="M427.75307176717234 336.6861425285947 C411.74773316172974 342.8424084713958, 395.710294411918 350.876633741274, 376.50462852428234 360.3518598830541 M423.81374642315205 333.8712467408982 C411.876315990552 340.46734263273794, 399.13329931134723 346.3850299376514, 376.49559666038647 359.81381982176424" stroke="#CC3333" stroke-width="3" fill="none"></path></g><text x="400" y="560" text-anchor="middle" font-family="sans-serif" font-size="16" fill="#222" font-style="italic">"When what you know becomes who you are, evidence becomes a threat."</text></svg>