<?xml version="1.0" encoding="UTF-8"?>
<svg width="800" height="600" viewBox="0 0 800 600" xmlns="http://www.w3.org/2000/svg"><rect width="800" height="600" fill="#FFFFFF"></rect><g><path d="M342.9409047578095 194.7629668794542 C342.9409047578095 194.7629668794542, 342.9409047578095 194.7629668794542, 342.9409047578095 194.7629668794542 M342.9409047578095 194.7629668794542 C342.9409047578095 194.7629668794542, 342.9409047578095 194.7629668794542, 342.9409047578095 194.7629668794542 M342.37347623412154 205.43237575044455 C345.13648680041723 202.8828892285605, 349.92577012267793 200.27668917512753, 354.57959832201345 194.81246221152972 M343.2687299450288 205.27716345983401 C346.52501935662093 203.09285548255178, 348.7324324373044 199.91521144110177, 355.39557735606905 193.14534543468338 M348.89636421647936 210.18521518229218 C354.5994994165074 206.7161260542192, 357.9543223919562 203.43207675936628, 361.0965249945545 197.73796966322735 M350.5302985691908 209.88304809927675 C354.3026004951661 207.6618843691932, 357.08172176454275 204.0437388423753, 362.0611425393075 197.3250923026238" stroke="none" stroke-width="1" fill="none"></path><path d="M348.15949582410633 190.1272035602343 C350.0697329774205 189.4750214631727, 351.43509418424037 191.04521174307837, 353.34053887650623 192.11258790131117 C355.2459835687721 193.17996405954398, 358.6006516097208 194.67497962388734, 359.5921639777015 196.53146050963116 C360.5836763456822 198.38794139537498, 360.04017032226994 201.40541911886606, 359.2896130843904 203.25147321577415 C358.53905584651085 205.09752731268225, 356.665634910455 206.43983814503505, 355.08882055042415 207.60778509107968 C353.51200619039327 208.7757320371243, 351.7215804809384 210.54624235434898, 349.82872692420517 210.25915489204186 C347.9358733674719 209.97206742973475, 345.4355367418061 207.50477141497416, 343.7316992100245 205.88526031723703 C342.02786167824286 204.2657492194999, 339.7191592227469 202.4169034598138, 339.6057017335153 200.54208830561905 C339.49224424428365 198.6672731514243, 341.389302868631 196.45031353028244, 343.0509542746347 194.6363693920686 C344.71260568063843 192.82242525385473, 348.2732198750697 190.30487761292025, 349.57561016953764 189.6584234763359 C350.8780004640056 189.01196933975157, 350.8505532963518 190.56200653923304, 350.8652960414423 190.7576445725626 M353.7637319314349 191.3312260820412 C355.4966042425453 191.99548136064135, 358.7589540865664 194.321504799441, 359.498748317186 196.40607901846076 C360.23854254780565 198.49065323748053, 358.996790606032 201.84725821773006, 358.2024973151527 203.8386713961598 C357.4082040242734 205.83008457458956, 356.40661600894674 207.65426924374768, 354.7329885719102 208.35455808903927 C353.05936113487365 209.05484693433087, 350.26118339602147 208.45634943964757, 348.1607326929333 208.04040446790944 C346.0602819898452 207.6244594961713, 343.33410467788036 206.92598900993804, 342.1302843533812 205.85888825861042 C340.9264640288821 204.7917875072828, 340.76937620623136 203.59964497902115, 340.93781074593863 201.63779995994378 C341.1062452856459 199.6759549408664, 341.9635317599078 195.82396295615175, 343.1408915916249 194.0878181441462 C344.31825142334196 192.35167333214068, 346.000031654262 191.41866938470417, 348.00196973624116 191.22093108791057 C350.00390781822034 191.02319279111697, 354.31317288257065 192.94939651607103, 355.15252008349984 192.90138836338454 C355.991867284429 192.85338021069805, 353.44469349756355 190.84186360514963, 353.03805294181615 190.93288217179162" stroke="#000000" stroke-width="2" fill="none"></path></g><g><path d="M349.84880827629115 219.51388006704934 C349.11957042353436 236.27881930879792, 349.0095881397791 254.2759229307505, 350.1522201707053 269.3220443375486 M350.1467278887351 219.98734203850904 C349.63064860711995 237.53363639879302, 349.9171303685944 252.78533078475604, 350.61390369564094 269.9575864763232" stroke="#000000" stroke-width="2" fill="none"></path></g><g><path d="M348.0894263714811 235.9795638865074 C338.8461963001734 228.861797080168, 329.1598189175939 223.82297876899707, 301.72859996295784 208.74472586563684 M349.7133900992476 235.55912492750883 C338.9425350685074 229.2335457879645, 326.5264604663418 222.66738722502615, 300.004702639872 209.02989971008566" stroke="#000000" stroke-width="1.8" fill="none"></path></g><g><path d="M348.38715841264786 234.4077124489826 C363.09386535914786 227.715439379534, 379.66511617029215 219.8884493829934, 401.7052416338712 210.57480955367043 M350.6752115040915 235.05723044548412 C368.270782014261 225.05645004941093, 386.87717650291995 215.44437506434488, 400.2802645756165 209.7857222685158" stroke="#000000" stroke-width="1.8" fill="none"></path></g><g><path d="M269.90917650062846 201.0995231297864 C274.5179083868165 199.77646337239747, 281.98504990118914 199.39028693387155, 289.2930636719295 200.90357200344235 M270.04453334411744 199.48534582991945 C277.1681372089594 199.36758150032, 285.0541097775026 199.7122660067851, 290.0293456488217 199.54011402710952 M290.60341532260577 199.2691851373156 C289.898410181109 202.54339745135272, 289.3592993966906 206.08817592330524, 290.72667536009385 214.24311888451152 M290.08121403608175 200.39691372469514 C290.28300032597156 203.60643355363817, 290.3759927889408 206.1274511723671, 289.91290700785976 213.64608962687612 M289.8532966607663 214.4799398413222 C284.66522460629074 214.0597686970598, 281.780882789097 213.3203076402526, 270.9359117482251 214.73503674201058 M289.6742712192624 214.43079693688983 C283.5057858762483 214.31730278639532, 277.3207253905743 214.4346524524361, 269.6680750176206 214.39716610376297 M270.6913935322152 213.5011910901511 C269.3029155868686 211.75143607819265, 269.93626420035946 208.6212214306979, 269.9932943215617 199.22910364751584 M270.0056600232534 213.64882511048413 C269.89078329390117 208.8934418161338, 270.1983650106708 204.3623864619421, 269.6649266775316 200.14360220274844" stroke="#000000" stroke-width="1.2" fill="none"></path></g><g><path d="M251.181316818158 220.0549458740044 C254.8777353277508 219.7917367076663, 260.32117592272357 221.08901757200334, 269.1445621638982 219.37422530710677 M249.9277051404498 219.5123847727193 C256.6878331284803 219.9178535735065, 262.819953110231 220.41406663078646, 269.88170707198276 220.4451683546021 M270.7085867502445 220.67260962205836 C270.4467492708039 223.48552851706742, 270.086781226525 225.27823994913263, 269.89630153256616 234.05674390454843 M269.8901534251113 220.03242302765153 C269.80125203148964 224.907147281741, 270.0362564728266 230.66185380525454, 270.37264271531694 233.99559130674263 M269.55648261104744 234.30930648955345 C266.3560224524858 234.49116090092417, 261.4616881046263 233.226826604144, 249.25223023811864 232.80970458238465 M270.2626046300803 233.54816949363908 C264.0129856479587 233.57466934814278, 259.16635273977573 234.5481005726003, 249.71748255490553 233.87364483493346 M249.57369041205789 233.32622288193053 C250.36229078490732 228.22231794107688, 250.0071938707154 224.54062613247862, 250.76931506932002 220.08623504518516 M250.03680712476495 234.139681099783 C250.34655119749368 229.69530111915319, 249.84827752411863 225.68265262314873, 249.58070029129482 219.82684014509178" stroke="#000000" stroke-width="1.2" fill="none"></path></g><g><path d="M279.99258619172383 235.30122056219665 C287.111083207969 234.69003143997998, 292.32408955774946 234.57704367987137, 299.7651582314928 235.59288887574095 M279.9301105139003 234.93076880422132 C287.8987942336832 235.185257764943, 295.76537844279346 235.11619365524012, 300.34294700263797 235.29104179081537 M299.994975307822 234.308368721049 C299.75551181603544 239.95088550389139, 299.51627090589994 243.53830648806337, 300.3644349388659 248.609532848969 M299.667375609437 234.87273556552952 C300.3191056014905 239.00489293423956, 300.031386468853 242.245161911962, 299.81263234944186 248.83853996170257 M301.0158630980772 248.18661598038636 C293.1909586179803 248.50273577703766, 289.32453730141964 248.95880841947445, 280.03111542528006 250.0175047627618 M299.4861347407454 248.72652210024583 C295.3235163368065 248.6764890270168, 290.595606716316 249.6593014812325, 279.5091006627086 248.8606289206622 M280.67771036236496 249.42343692712353 C279.6627495003581 244.3935037925613, 280.82027719192445 239.33623124433862, 280.37386028808424 234.60031006187918 M279.63991160332614 248.88287336266964 C280.33041823509194 243.5042102030322, 279.9913194851704 238.9817882797117, 279.9163147408776 234.85880503943895" stroke="#000000" stroke-width="1.2" fill="none"></path></g><g><path d="M427.2075464021126 201.76419123371886 C427.2075464021126 201.76419123371886, 427.2075464021126 201.76419123371886, 427.2075464021126 201.76419123371886 M427.2075464021126 201.76419123371886 C427.2075464021126 201.76419123371886, 427.2075464021126 201.76419123371886, 427.2075464021126 201.76419123371886 M426.51510006405834 210.16480337957378 C430.3335896828642 206.5010168676419, 431.2757754449422 203.2188927400088, 434.42610423123466 202.0680089019126 M427.02920269778326 209.7730128602918 C428.61775044445926 208.03303387908792, 430.4380926676617 206.00406662329232, 433.7700761885298 201.7292135993549 M434.7255986337479 208.28241896001848 C434.97634292091374 208.08018141136137, 435.1865640291552 207.82480469612477, 435.37391571882 207.5048727745581 M434.7966385547172 208.27537445036728 C434.9211341858824 208.09445483168795, 435.1060932454987 207.98294755746275, 435.3692237828926 207.6007504227347" stroke="none" stroke-width="0.6" fill="none"></path><path d="M429.27658376304 200.9506897963814 C430.1665122111761 200.74666275811796, 432.39652063946295 200.38291972068146, 433.32609002723893 200.7803617023971 C434.2556594150149 201.17780368411275, 434.55594231656056 202.07164373115145, 434.85400008969594 203.33534168667526 C435.1520578628313 204.59903964219907, 435.51454158720065 207.35717167947888, 435.1144366660511 208.36254943554002 C434.7143317449016 209.36792719160115, 433.57297267352686 208.99560355468054, 432.45337056279874 209.36760822304203 C431.3337684520706 209.7396128914035, 429.68655103563685 210.83622215399217, 428.39682400168243 210.59457744570886 C427.107096967728 210.35293273742556, 425.27275735272855 208.90382681579607, 424.7150083590724 207.9177399733422 C424.1572593654162 206.93165313088835, 424.58576120309067 205.7601836571718, 425.0503300397456 204.67805639098572 C425.5148988764005 203.59592912479962, 426.4484982006763 202.07582382862813, 427.5024213790017 201.42497637622566 C428.5563445573271 200.77412892382318, 430.6613359333696 200.84777712645177, 431.373869109698 200.77297167657088 C432.0864022860263 200.69816622668998, 431.91924319306173 200.88970077410764, 431.777620436972 200.97614367694035 M430.08043743160226 200.52545624168894 C431.3324903628514 200.94955207414992, 434.52643747301784 202.06209273037246, 435.23303236177645 202.75505999990907 C435.93962725053507 203.44802726944567, 434.6627503812864 203.83522298201, 434.32000676415385 204.6832598589085 C433.9772631470213 205.53129673580702, 433.54166882393866 207.1535195746894, 433.1765706589812 207.84328126130018 C432.8114724940237 208.53304294791096, 433.2755760176617 208.43078051434645, 432.1294177744089 208.82182997857325 C430.98325953115614 209.21287944280004, 427.3286273710484 210.71859653326226, 426.2996211994645 210.18957804666096 C425.27061502788064 209.66055956005965, 426.3237699441627 206.70716631612015, 425.9553807449055 205.64771905896538 C425.5869915456483 204.5882718018106, 423.8419266393688 204.88408839800272, 424.08928600392136 203.83289450373235 C424.3366453684739 202.78170060946198, 426.38471282918886 199.7859777102079, 427.4395369322208 199.3405556933431 C428.4943610352527 198.8951336764783, 429.8590198826357 201.00820447432594, 430.41823062211284 201.1603624025435 C430.97744136158997 201.3125203307611, 430.6192420005797 200.21530606438986, 430.7948013690834 200.2535032626486" stroke="#000000" stroke-width="1.2" fill="none"></path></g><g><path d="M446.0414656526987 220.78629344605272 C446.0414656526987 220.78629344605272, 446.0414656526987 220.78629344605272, 446.0414656526987 220.78629344605272 M446.0414656526987 220.78629344605272 C446.0414656526987 220.78629344605272, 446.0414656526987 220.78629344605272, 446.0414656526987 220.78629344605272 M446.9732746337461 227.1209662894066 C448.27909449088185 225.49677186219623, 450.0331702831716 223.16561188120886, 453.07021693371 221.7303353600656 M446.90795779805035 228.07911119077434 C448.38257771936895 225.8531842391468, 449.17455323056333 224.2452246196067, 452.61080075049983 220.96860984125604 M450.41325967477576 230.61169859472523 C453.4553757312515 227.7785212806392, 453.55889359356763 226.50244241394103, 456.5907039220313 224.0150834358876 M451.1447394715864 230.48245190129074 C452.231267561222 229.3622512375521, 453.64264835526814 227.4126253401912, 455.94445623742894 224.51105246702872" stroke="none" stroke-width="0.6" fill="none"></path><path d="M449.8272571746109 219.81392706390048 C450.761356981339 219.50142931341244, 452.19398014444585 219.80507646243137, 453.1156588237403 220.5345037847222 C454.0373375030348 221.26393110701304, 455.0527316170296 223.0354921724304, 455.35732925037786 224.19049099764544 C455.6619268837261 225.3454898228605, 455.4442296101396 226.53002768627485, 454.9432446238297 227.46449673601248 C454.4422596375198 228.3989657857501, 453.44201594916564 229.47586274924305, 452.3514193325185 229.79730529607124 C451.26082271587137 230.11874784289944, 449.3900173576106 229.64011398348066, 448.399664923947 229.39315201698173 C447.4093124902834 229.1461900504828, 446.902718079219 229.0602733068463, 446.40930473053703 228.31553349707775 C445.91589138185503 227.5707936873092, 445.5278826278699 226.14807643356335, 445.4391848318551 224.92471315837034 C445.3504870358403 223.70134988317733, 445.1177641722379 221.7426960817378, 445.87711795444807 220.97535384591978 C446.6364717366582 220.20801161010178, 449.2605193039409 220.49303858480928, 449.9953075251159 220.32065974346236 C450.7300957462909 220.14828090211543, 450.14104701033 220.0094952597293, 450.2858472814981 219.94108079783823 M447.7025119069877 219.3661053638369 C448.5600406726553 219.11081541243018, 451.4382251271703 219.91213437181062, 452.55650431882964 220.44126125080714 C453.67478351048896 220.97038812980367, 453.9998115176078 221.74501579417455, 454.4121870569435 222.540866637816 C454.8245625962792 223.33671748145747, 455.1845645537337 224.42756540284427, 455.030757554844 225.2163663126559 C454.8769505559543 226.00516722246755, 454.207541456707 226.6654155527298, 453.4893450636054 227.27367209668583 C452.7711486705038 227.88192864064186, 451.6516788762353 228.62045338666675, 450.7215791962344 228.86590557639215 C449.79147951623355 229.11135776611755, 448.88830810908667 229.41860765334627, 447.9087469836001 228.74638523503822 C446.92918585811356 228.07416281673017, 445.3498500524782 225.8267386042386, 444.8442124433152 224.83257106654384 C444.3385748341522 223.83840352884906, 444.5548269402701 223.39612025963, 444.87492132862207 222.78138000886958 C445.195015716974 222.16663975810914, 445.9820325713966 221.28488120013765, 446.7647787734267 221.1441295619812 C447.54752497545684 221.00337792382476, 449.25848501396564 222.18059299206976, 449.5713985408028 221.93687017993082" stroke="#000000" stroke-width="1.2" fill="none"></path></g><g><path d="M421.4942653174513 235.22308856452202 C421.4942653174513 235.22308856452202, 421.4942653174513 235.22308856452202, 421.4942653174513 235.22308856452202 M421.4942653174513 235.22308856452202 C421.4942653174513 235.22308856452202, 421.4942653174513 235.22308856452202, 421.4942653174513 235.22308856452202 M421.6333795441184 244.34711506106575 C423.09303460384257 242.88563456063423, 423.8165921031295 239.81445301296213, 427.23623968150116 236.47334403537943 M420.9078027218944 243.7037529896384 C422.48302256663663 242.12863437087708, 423.9747252814246 239.86459319295162, 427.43127227966056 235.88890463784566 M425.62252172885115 246.05836286755962 C426.4624394460623 244.64075894911275, 427.148238428892 242.75331327521755, 431.1111848038227 240.08538237070536 M424.7522563140441 246.13938395146556 C426.82098863058565 244.67898083197926, 428.3414838234243 242.4008684291124, 430.6956766252678 239.3733258593406" stroke="none" stroke-width="0.6" fill="none"></path><path d="M425.0514259188503 234.1960773954077 C426.12954371525814 234.14741436151672, 427.98440936892075 235.2413434668194, 428.9326556054378 236.03083475808182 C429.8809018419548 236.82032604934426, 430.69766071201724 237.82862782728222, 430.74090333795243 238.93302514298233 C430.7841459638876 240.03742245868244, 429.8041172089709 241.49672827575068, 429.1921113610489 242.65721865228244 C428.58010551312685 243.8177090288142, 428.10324754119637 245.64349092069455, 427.0688682504202 245.89596740217286 C426.0344889596441 246.14844388365117, 424.2513010911339 244.77567382748612, 422.9858356163919 244.17207754115228 C421.72037014164994 243.56848125481844, 419.8300283973171 243.24929967787833, 419.47607540196833 242.27438968416988 C419.12212240661955 241.29947969046142, 420.48946019072713 239.53958414039036, 420.8621176442992 238.32261757890163 C421.23477509787125 237.1056510174129, 420.66700485442846 235.35839846726932, 421.7120201234006 234.9725903152375 C422.7570353923727 234.5867821632057, 426.1721061276806 235.9535049803606, 427.13220925813204 236.00776866671077 C428.0923123885835 236.06203235306094, 427.49963786607174 235.4632446135947, 427.4726389061093 235.2981724333386 M423.41084065010534 234.4514961436751 C424.39925728094437 233.9634808492605, 426.585821657359 233.51066840426145, 427.86431064608405 234.4485168401927 C429.1427996348091 235.38636527612394, 430.73966997968046 238.7434230030256, 431.0817745824554 240.07858675926258 C431.42387918523036 241.41375051549954, 430.738081929109 241.80303624406267, 429.91693826273394 242.45949937761452 C429.09579459635887 243.11596251116637, 427.21081086043694 243.5842858242561, 426.1549125842051 244.01736556057375 C425.0990143079732 244.4504452968914, 424.3591557320188 245.44184817888896, 423.5815486053429 245.0579777955204 C422.803941478667 244.67410741215184, 422.24327996827645 242.71597587098412, 421.48926982414974 241.71414326036242 C420.73525968002303 240.71231064974072, 418.8533797430386 239.9052403174515, 419.05748774058264 239.04698213179023 C419.2615957381267 238.18872394612896, 421.5131693940378 237.50282761968862, 422.71391780941406 236.5645941463948 C423.9146662247903 235.62636067310098, 425.90519168057904 233.8498401651213, 426.26197823284014 233.4175812920274 C426.61876478510123 232.9853224189335, 425.0136222972636 233.73527607304092, 424.85463712298053 233.9710409078314" stroke="#000000" stroke-width="1.2" fill="none"></path></g><g><path d="M340.4425556225443 291.7594998180596 C343.31469102884495 286.9215080443318, 345.76989774258556 282.0391889289389, 350.8152424914025 275.2618057362572 M340.25907275653134 290.842550429019 C344.5708866816465 283.515051485185, 347.12681797155307 277.3979503793298, 349.54961412893846 274.2836403445452" stroke="undefined" stroke-width="1.5" fill="none"></path></g><g><path d="M351.1139901762275 274.3546548196361 C352.8974690125859 279.427831604929, 356.2398728859803 283.120663855501, 359.82354521658726 290.3459694377929 M349.8630784696801 274.1163878330884 C351.5742291443991 278.4862668765751, 353.95274181489 281.71623308174, 359.9317005783061 290.8092994724108" stroke="undefined" stroke-width="1.5" fill="none"></path></g><g><path d="M343.9945464754394 286.2394184304784 C348.83557117177406 280.3514568116014, 353.10058220000985 276.2963844605157, 356.25204477748576 274.0372818155452 M345.21260098743244 285.41304510460355 C347.5921346263166 282.1205319571682, 351.37205173371854 279.3195449269473, 355.08224874626103 274.555113460476" stroke="undefined" stroke-width="1.2" fill="none"></path></g><g><path d="M540.3536840682865 319.7036808966731 C554.7424024816597 331.33502348638456, 569.0380778793761 343.34392105890737, 582.0021000652845 355.16736962604926 M540.1608575765645 320.1130830550765 C554.9074393711194 332.1469373510878, 569.4634099781592 344.23165844903343, 582.1719642734637 355.3267626306621" stroke="undefined" stroke-width="1" fill="none"></path></g><g><path d="M580.7518074034534 353.78836289686103 C580.7518074034534 353.78836289686103, 580.7518074034534 353.78836289686103, 580.7518074034534 353.78836289686103 M580.7518074034534 353.78836289686103 C580.7518074034534 353.78836289686103, 580.7518074034534 353.78836289686103, 580.7518074034534 353.78836289686103 M581.7260190885505 357.0716377827688 C582.4988888448539 356.46562630443856, 583.3616894442754 355.8094894761102, 584.2137716741873 354.388758613976 M581.5824961384079 357.0801732266231 C582.1839185039025 356.5890857841109, 582.8154687586349 355.9587156176648, 584.3766936550006 354.24605418351365" stroke="none" stroke-width="0.4" fill="none"></path><path d="M583.4344644521636 354.0284426914766 C583.7662051519634 354.41590100678286, 583.9609440283004 354.7932630555522, 584.1004687274881 355.1690676918588 C584.2399934266757 355.5448723281654, 584.512820663283 355.9113620423505, 584.2716126472893 356.2832705093161 C584.0304046312956 356.65517897628166, 582.9842034113371 357.2087669882624, 582.6532206315259 357.4005184936524 C582.3222378517146 357.59226999904234, 582.5698075022161 357.6189788340276, 582.2857159684214 357.4337795416558 C582.0016244346267 357.248580249284, 581.1465297191362 356.6583993834151, 580.9486714287577 356.2893227394216 C580.7508131383793 355.9202460954281, 581.1718313858165 355.58960875229684, 581.0985662261508 355.21931967769484 C581.025301066485 354.84903060309284, 580.3194460850989 354.3771344650456, 580.5090804707631 354.06758829180967 C580.6987148564274 353.75804211857377, 581.9404579986598 353.47979513891767, 582.2363725401364 353.3620426382794 C582.5322870816129 353.2442901376411, 582.000945781781 353.1599689014681, 582.2845677196225 353.36107328797993 C582.568189657464 353.56217767449175, 583.945739619844 354.3579857777342, 583.9381041671853 354.5686689573503 M580.5155206465366 354.06641778981844 C580.7310901203583 354.1124832078424, 582.8981030091613 353.0973204109, 583.3258095165245 353.1824733810485 C583.7535160238876 353.267626351197, 582.9015446274636 354.20509673256953, 583.0817596907154 354.5773356107095 C583.2619747539673 354.94957448884946, 584.3095120432375 355.1559989938495, 584.4070998960352 355.4159066498884 C584.5046877488329 355.67581430592736, 584.0421977131925 355.66457757930334, 583.6672868075017 356.1367815469431 C583.2923759018108 356.60898551458286, 582.5718118864702 358.0499917716568, 582.1576344618901 358.2491304557268 C581.74345703731 358.4482691397968, 581.2994822865292 357.9830719152752, 581.1822222600208 357.33161365136317 C581.0649622335125 356.6801553874511, 581.4853090104054 354.61122508605376, 581.45407430284 354.3403808722547 C581.4228395952746 354.0695366584556, 581.1225607147878 355.6620538338891, 580.9948140146283 355.70654836856863 C580.8670673144688 355.75104290324816, 580.7174999317187 355.0369254242052, 580.6875941018834 354.6073480803318 C580.6576882720481 354.1777707364584, 580.4166178402448 353.1829665545895, 580.8153790356165 353.1290843053282" stroke="undefined" stroke-width="0.8" fill="none"></path></g><g><path d="M539.7907542120917 320.0785979642808 C557.9546522951713 330.8114625375558, 575.3104051663528 340.1017637975612, 587.4390365751224 347.65695691413316 M539.7682576650845 319.8475933914606 C558.608953251911 330.65635466866786, 577.7279372483872 341.7980929121412, 587.777848750787 347.7698822095778" stroke="undefined" stroke-width="1" fill="none"></path></g><g><path d="M585.1427042056005 345.68019431394794 C585.1427042056005 345.68019431394794, 585.1427042056005 345.68019431394794, 585.1427042056005 345.68019431394794 M585.1427042056005 345.68019431394794 C585.1427042056005 345.68019431394794, 585.1427042056005 345.68019431394794, 585.1427042056005 345.68019431394794 M587.5380912783494 347.63697381507586 C587.6449506162618 347.1840008488874, 588.1383043685992 346.78103906667025, 588.8737298509244 346.0362647146171 M587.3430577269431 347.58740257804897 C587.7606517154695 347.17986503436344, 588.1644729484757 346.83766716773823, 588.7082326386678 346.0879505423373" stroke="none" stroke-width="0.4" fill="none"></path><path d="M588.030555355129 346.14632382332894 C588.4309305470337 346.3556779113219, 589.7350415466351 346.8748012011788, 589.9072536634027 347.27541830014457 C590.0794657801703 347.67603539911033, 589.1551394415005 348.1723730788488, 589.0638280557341 348.55002641712366 C588.9725166699677 348.9276797553985, 589.5848613056233 349.49670041107066, 589.3593853488044 349.5413383297938 C589.1339093919854 349.58597624851694, 588.1149163462903 349.09120740004846, 587.7109723148202 348.81785392946244 C587.3070282833501 348.5445004588764, 587.2893316500082 348.01650865213037, 586.9357211599837 347.9012175062777 C586.5821106699592 347.78592636042504, 585.839950970238 348.5517190896507, 585.5893093746732 348.12610705434656 C585.3386677791085 347.7004950190424, 585.1943609878157 345.65191516076516, 585.4318715865951 345.34754529445286 C585.6693821853745 345.04317542814056, 586.378545525097 346.3586467693177, 587.0143729673497 346.29988785647294 C587.6502004096023 346.24112894362815, 589.0253442344022 344.874718524919, 589.2468362401114 344.9949918173841 C589.4683282458207 345.11526510984925, 588.5442999059854 346.7905782353056, 588.343325001605 347.0215276112638 M588.7010027227079 345.2420520300645 C589.3731609405551 345.4429820804843, 589.553473421162 346.4875478013738, 589.8126705872356 346.8382513336628 C590.0718677533092 347.1889548659518, 590.3699947938085 347.2305986374994, 590.2561857191496 347.3462732237984 C590.1423766444907 347.4619478100974, 589.4508729558545 347.032421758266, 589.1298161392822 347.53229885145686 C588.8087593227099 348.0321759446477, 588.6405745361965 349.87791779544006, 588.3298448197157 350.3455357829433 C588.019115103235 350.8131537704465, 587.9260158816833 350.8889207455884, 587.265437840398 350.33800677647605 C586.6048597991128 349.7870928073637, 584.7861416974192 347.4619130609302, 584.366376572004 347.04005196826915 C583.9466114465888 346.6181908756081, 584.1622967271318 348.1737112666711, 584.7468470879068 347.8068402205095 C585.3313974486817 347.43996917434794, 587.4830406437156 344.96862515893156, 587.8736787366539 344.8388256912996 C588.2643168295922 344.7090262236676, 586.9968015496931 347.0908270396849, 587.0906756455363 347.02804341471756 C587.1845497413794 346.96525978975023, 588.4941138916804 344.79155245486885, 588.436923311713 344.46212394149546" stroke="undefined" stroke-width="0.8" fill="none"></path></g><g><path d="M540.2845200263417 319.8609820818731 C554.2156125763537 325.43255403282234, 567.2440824438628 330.53900673816827, 591.2943086638866 338.2302625337362 M539.7199549819197 319.9699254780302 C552.6537299423517 324.78474151633577, 565.638988741173 329.1733201994527, 591.7492844270015 338.8115424182538" stroke="undefined" stroke-width="1" fill="none"></path></g><g><path d="M589.8997955813501 337.89035381732765 C589.8997955813501 337.89035381732765, 589.8997955813501 337.89035381732765, 589.8997955813501 337.89035381732765 M589.8997955813501 337.89035381732765 C589.8997955813501 337.89035381732765, 589.8997955813501 337.89035381732765, 589.8997955813501 337.89035381732765 M591.9461651077833 339.5995544873478 C592.5527377936916 339.2689447367502, 593.4654977883092 338.6978376806036, 594.1322288149389 337.53581416900715 M592.1613012810515 339.97924875696884 C592.9647668546517 339.1442607807089, 593.6740841669047 338.2094831352406, 594.1868442863448 337.6690747520822" stroke="none" stroke-width="0.4" fill="none"></path><path d="M590.6196160782048 337.20847689275007 C591.2463189627604 336.92807207750394, 592.4857462463024 336.5412874966539, 593.1233615406245 336.6094977956379 C593.7609768349466 336.67770809462183, 594.3935710764221 337.17664748645296, 594.4453078441373 337.6177386866537 C594.4970446118526 338.0588298868544, 593.5557449457456 338.8380962710093, 593.433782146916 339.2560449968422 C593.3118193480864 339.6739937226751, 594.2065783084242 339.96800161135775, 593.7135310511596 340.125431041651 C593.220483793895 340.2828604719442, 591.1560524282386 340.0972375415616, 590.4754986033282 340.2006215786016 C589.7949447784179 340.30400561564164, 589.8455284877876 340.9479388625391, 589.6302081016971 340.74573526389105 C589.4148877156066 340.543531665243, 589.1893805647042 339.4049323499333, 589.183576286785 338.98739998671346 C589.1777720088658 338.5698676234936, 589.0490317193953 338.74471151319705, 589.5953824341823 338.2405410845721 C590.1417331489693 337.73637065594716, 592.1197856418493 336.2544653099545, 592.461680575507 335.9623774149638 C592.8035755091647 335.67028951997304, 591.7077155659854 336.17118247077553, 591.6467520361286 336.4880137146277 M592.0731649285909 336.36173470577654 C592.5028917268165 336.1985213683723, 593.5843568835425 335.8857803457317, 593.8255056406989 336.4695321736458 C594.0666543978554 337.0532840015599, 593.8859554638748 339.00588354406227, 593.5200574715294 339.86424567326134 C593.154159479184 340.7226078024604, 591.7652790526903 341.64214346706217, 591.6301176866269 341.61970494884036 C591.4949563205636 341.59726643061856, 593.0522576578695 340.1331846042876, 592.7090892751492 339.7296145639304 C592.3659208924288 339.3260445235732, 590.2230150906855 339.407214444408, 589.5711073903046 339.19828470669734 C588.9191996899237 338.9893549689867, 588.6066965332168 338.9569706738166, 588.7976430728636 338.4760361376663 C588.9885896125104 337.995101601516, 590.1127022845968 336.5322161549026, 590.7167866281857 336.31267748979565 C591.3208709717745 336.0931388246887, 592.3468742240598 337.1825633644985, 592.4221491343969 337.15880414702485 C592.4974240447341 337.1350449295512, 591.3395895722703 336.3110344271008, 591.1684360902083 336.1701221849537 C590.9972826081463 336.0292099428066, 591.3852912934649 336.325722027576, 591.3952282420252 336.31333069414194" stroke="undefined" stroke-width="0.8" fill="none"></path></g><g><path d="M539.7778152676128 320.4231355179884 C560.4477865461855 323.6522642206087, 582.1152937654226 326.99496965106016, 594.1879173244081 329.28931061906746 M539.8477013240317 319.8513479700124 C553.525480862061 322.4082230797714, 567.2556419988896 324.40534889952886, 594.0654256659509 329.45395278007055" stroke="undefined" stroke-width="1" fill="none"></path></g><g><path d="M592.4459745075781 328.17859644986555 C592.4459745075781 328.17859644986555, 592.4459745075781 328.17859644986555, 592.4459745075781 328.17859644986555 M592.4459745075781 328.17859644986555 C592.4459745075781 328.17859644986555, 592.4459745075781 328.17859644986555, 592.4459745075781 328.17859644986555 M593.1716176149275 331.9403877286246 C593.5302797242633 331.04855863896233, 595.2719642281314 329.34881828354287, 596.1654232507179 328.5883826005784 M592.7689560997193 332.278056611932 C593.6629041197781 331.3653065019393, 594.2655686670806 330.3292576094069, 595.795880588537 328.6058155547211" stroke="none" stroke-width="0.4" fill="none"></path><path d="M595.2839695098697 327.24118963413883 C595.6251377731716 327.4012578862835, 595.3470800407888 327.8432457788792, 595.3765267379425 328.3844768208995 C595.4059734350963 328.92570786291986, 595.5587073774805 329.9533480817738, 595.4606496927921 330.48857588626095 C595.3625920081038 331.0238036907481, 595.1887879159376 331.2484524710131, 594.7881806298126 331.59584364782216 C594.3875733436876 331.94323482463125, 593.5235579521549 332.57706692384903, 593.0570059760419 332.57292294711533 C592.5904539999289 332.56877897038163, 592.2807884131875 331.8820259103898, 591.9888687731345 331.5709797874199 C591.6969491330816 331.25993366445, 591.2582105422551 331.238790082841, 591.3054881357245 330.70664620929585 C591.352765729194 330.17450233575073, 592.0200695196847 328.794403736089, 592.2725343339508 328.3781165461493 C592.5249991482169 327.96182935620953, 592.2702936489189 328.1582591399875, 592.8202770213207 328.2089230696573 C593.3702603937226 328.25958699932715, 595.1644758051425 328.6452595724081, 595.5724345683617 328.6821001241683 C595.9803933315809 328.7189406759285, 595.4533982367554 328.5806659929832, 595.2680296006357 328.4299663802184 M594.4791900555412 328.34206814316445 C594.8866394871962 327.871666858696, 594.1423465720522 326.9162247649061, 594.1445232287385 326.96168400227043 C594.1466998854248 327.0071432396348, 594.0167234574772 327.9742372226713, 594.4922499956585 328.6148235673507 C594.9677765338399 329.2554099120301, 596.7857419157215 330.62094964714555, 596.9976824578271 330.8052020703466 C597.2096229999327 330.9894544935476, 596.2881996686896 329.60946818527464, 595.7638932482924 329.72033810655694 C595.2395868278953 329.83120802783924, 594.2944638771203 331.2600853428184, 593.8518439354445 331.4704215980402 C593.4092239937688 331.68075785326204, 593.5655009778944 330.99973355608665, 593.1081735982378 330.9823556378879 C592.6508462185813 330.96497771968916, 591.1350764710842 331.8063507615184, 591.107879657505 331.3661540888479 C591.0806828439258 330.9259574161774, 592.7962499826492 328.95799782721434, 592.9449927167627 328.3411756018652 C593.0937354508762 327.72435337651604, 592.1647901571287 327.9286956624605, 592.000336062186 327.665220736753 C591.8358819672433 327.4017458110455, 591.5699154784895 326.7342713185957, 591.9582681471068 326.7603260476203" stroke="undefined" stroke-width="0.8" fill="none"></path></g><g><path d="M539.5032795347503 320.0775789916788 C559.9953113178991 320.0906225198614, 580.648002821415 319.62364786140455, 595.2069035831825 319.7147606843976 M540.2612225198768 320.17989463135876 C555.2679184922443 319.64612780971237, 570.8595719741367 320.1328654613274, 594.7097842918424 320.12114754018995" stroke="undefined" stroke-width="1" fill="none"></path></g><g><path d="M592.4851680357868 320.26258890405273 C592.4851680357868 320.26258890405273, 592.4851680357868 320.26258890405273, 592.4851680357868 320.26258890405273 M592.4851680357868 320.26258890405273 C592.4851680357868 320.26258890405273, 592.4851680357868 320.26258890405273, 592.4851680357868 320.26258890405273 M594.9281215929525 322.010407413321 C595.7705789773294 321.06723494303117, 596.3830730457863 320.516614336065, 597.2590703208642 318.9508401059148 M594.7550307596919 322.42207483584707 C595.8045889857593 321.0825527964872, 596.5854206999718 320.3804009638428, 597.1769534328072 319.2022968364624" stroke="none" stroke-width="0.4" fill="none"></path><path d="M596.2445753158231 318.10409813921274 C596.5587930436369 318.2831603655718, 597.0890137532183 318.13542464781744, 597.2576671050764 318.6164683109086 C597.4263204569345 319.09751197399976, 597.3368882580121 320.51850144681737, 597.2564954269719 320.99036011775985 C597.1761025959318 321.46221878870233, 597.1074330547065 321.2245052555076, 596.7753101188353 321.44762033656355 C596.443187182964 321.6707354176195, 595.8121165098229 322.2829673537733, 595.263757811745 322.32905060409536 C594.7153991136671 322.3751338544174, 593.9247748414614 322.09554236518244, 593.4851579303678 321.7241198384959 C593.0455410192742 321.3526973118093, 592.5194550256384 320.60576452998276, 592.6260563451835 320.1005154439759 C592.7326576647287 319.595266357969, 593.7050077859518 319.09716215256685, 594.1247658476383 318.69262532245466 C594.5445239093248 318.28808849234247, 594.871804722032 317.6531094084767, 595.1446047153026 317.6732944633028 C595.4174047085733 317.69347951812887, 595.5036504700602 318.69469659223245, 595.761565807262 318.81373565141115 C596.0194811444637 318.93277471058985, 596.7920166673924 318.47666372809124, 596.6920967385137 318.3875288183751 M595.6875465620989 317.40463065963877 C596.254301418156 317.24769331225946, 595.6269742993239 318.4434433002289, 595.6603110852669 318.6335287140675 C595.6936478712099 318.82361412790607, 595.7336530081511 318.4425257630561, 595.887567277757 318.54514314267027 C596.0414815473628 318.64776052228444, 596.5553423119368 318.6498228255931, 596.5837967029021 319.24923299175254 C596.6122510938674 319.84864315791197, 596.1609804529891 321.75944865894724, 596.0582936235486 322.1416041396269 C595.9556067941081 322.5237596203066, 596.2760574053777 321.66220679321935, 595.9676757262595 321.54216587583045 C595.6592940471412 321.42212495844154, 594.8264571417229 321.4535699701376, 594.2080035488393 321.4213586352935 C593.5895499559557 321.38914730044934, 592.2163199521738 321.84436982000017, 592.2569541689576 321.34889786676564 C592.2975883857414 320.8534259135311, 593.8695955777476 319.0022576667674, 594.4518088495419 318.4485269158864 C595.0340221213361 317.89479616500546, 595.7276282649158 318.0002857816437, 595.7502337997231 318.0265133614798 C595.7728393345304 318.05274094131585, 594.726958363893 318.31279178298405, 594.587442058386 318.60589239490287" stroke="undefined" stroke-width="0.8" fill="none"></path></g><g><path d="M539.9917998307731 319.8894704381132 C551.8063992413571 317.73495277680286, 563.0622054802484 316.1431146072058, 594.7547617411265 310.80836261925134 M539.7854871117412 319.8495454996192 C557.6680910440997 317.0187918814029, 575.916384705403 313.9648671290238, 594.3112822644382 310.1759811574933" stroke="undefined" stroke-width="1" fill="none"></path></g><g><path d="M592.1217607373704 309.34657981232317 C592.1217607373704 309.34657981232317, 592.1217607373704 309.34657981232317, 592.1217607373704 309.34657981232317 M592.1217607373704 309.34657981232317 C592.1217607373704 309.34657981232317, 592.1217607373704 309.34657981232317, 592.1217607373704 309.34657981232317 M593.3271131229053 312.58298377218864 C593.5333904863007 312.35340536939276, 594.5652227851058 311.1757993097079, 595.7421200655979 309.7246756378821 M593.2710024982298 312.940839084318 C593.9090092926308 312.0701058749865, 594.4844744877535 310.9364744743948, 595.6595513152837 309.9212243585037" stroke="none" stroke-width="0.4" fill="none"></path><path d="M593.5812240424151 308.19853457661856 C593.9228929700629 307.8761697194552, 594.3865215624367 308.30745460459866, 594.8665188696697 308.62042812903724 C595.3465161769027 308.9334016534758, 596.2246526457515 309.8013872108761, 596.4612078858129 310.07637572325007 C596.6977631258743 310.35136423562403, 596.3252650567783 309.83298543399377, 596.285850310038 310.2703592032812 C596.2464355632976 310.70773297256864, 596.5116016047481 312.26922575295185, 596.2247194053709 312.7006183389747 C595.9378372059938 313.1320109249976, 594.9800761937518 312.88184021383285, 594.5645571137749 312.85871471941846 C594.149038033798 312.83558922500407, 594.2810070681654 312.7819392682537, 593.7316049255097 312.56186537248846 C593.182202782854 312.3417914767232, 591.5299259131338 312.081659241446, 591.2681442578408 311.53827134482685 C591.0063626025479 310.9948834482077, 591.7733531703066 309.660127558704, 592.1609149937522 309.3015379927734 C592.5484768171978 308.94294842684275, 593.1865264452803 309.46376113925874, 593.5935151985148 309.38673394924314 C594.0005039517492 309.30970675922754, 594.6338304217321 308.9324200923549, 594.6028475131592 308.83937485267967 M594.8219482164899 309.3411885183954 C595.3074657490499 309.22238712848844, 596.1820823096987 309.2080254636687, 596.4754010439398 309.0549523395325 C596.7687197781809 308.9018792153963, 596.4065979383388 308.12546004219337, 596.5818606219366 308.4227497735782 C596.7571233055344 308.720039504963, 597.6321150859701 310.2532429388115, 597.5269771455268 310.83869072784137 C597.4218392050834 311.4241385168712, 596.4651275471111 311.53687878650203, 595.9510329792765 311.93543650775723 C595.4369384114419 312.33399422901243, 594.8788990604351 313.04499640265124, 594.442409738519 313.2300370553726 C594.005920416603 313.4150777080939, 593.8456093558215 313.4567060855446, 593.3320970477806 313.0456804240854 C592.8185847397398 312.63465476262616, 591.4106496599982 311.51431074169994, 591.3613358902737 310.7638830866173 C591.3120221205493 310.0134554315346, 592.8207977529399 308.76029128377644, 593.0362144294337 308.5431144935894 C593.2516311059275 308.3259377034024, 592.3165275912827 309.4012487826788, 592.6538359492364 309.46082234549533 C592.9911443071901 309.52039590831185, 594.8968433187199 308.8951869562661, 595.0600645771556 308.9005558704885" stroke="undefined" stroke-width="0.8" fill="none"></path></g><g><path d="M539.8597888608871 319.87345608233477 C550.1711475249036 316.30728056155124, 561.2510151997195 311.843541007032, 591.7143411069951 301.68816501311676 M540.2291300763139 320.28252840658183 C552.9940615061016 314.88376660442697, 566.5079900814412 310.62264909268816, 591.563959725897 301.4841480108494" stroke="undefined" stroke-width="1" fill="none"></path></g><g><path d="M589.5514322933975 300.4871624174017 C589.5514322933975 300.4871624174017, 589.5514322933975 300.4871624174017, 589.5514322933975 300.4871624174017 M589.5514322933975 300.4871624174017 C589.5514322933975 300.4871624174017, 589.5514322933975 300.4871624174017, 589.5514322933975 300.4871624174017 M590.5411712698012 304.3137189415663 C590.8641546338407 303.40882525589166, 591.5819314794705 302.05944883669116, 592.7942587166901 301.1177044895583 M590.4188577030044 303.8287889562866 C591.6270853481132 302.8606956482062, 592.4947552602446 301.66101119950156, 593.2659329543335 300.81468595133475" stroke="none" stroke-width="0.4" fill="none"></path><path d="M591.7000422807889 299.5823310655402 C592.2393695274699 299.6443346758399, 592.9194397722406 299.953276679401, 593.16931319113 300.3790675785895 C593.4191866100193 300.80485847777805, 593.1703940323292 301.9003411988753, 593.1992827941249 302.13707646067155 C593.2281715559205 302.3738117224678, 593.5409161026487 301.5285020535018, 593.3426457619038 301.7994791493669 C593.1443754211589 302.070456245232, 592.588866254024 303.4179040761129, 592.0096607496553 303.7629390358622 C591.4304552452866 304.1079739956115, 590.3576186182657 304.1851779123949, 589.8674127356915 303.86968890786267 C589.3772068531172 303.5541999033304, 589.1257653463207 302.4283797430736, 589.0684254542098 301.87000500866884 C589.0110855620989 301.3116302742641, 589.1128435642186 301.0132861562194, 589.5233733830258 300.51944050143425 C589.9339032018331 300.0255948466491, 590.9465224385696 299.11140158709486, 591.5316043670532 298.9069310799579 C592.1166862955369 298.7024605728209, 593.0586905169545 299.3661189070857, 593.0338649539277 299.2926174586123 C593.009039390901 299.2191160101389, 591.3962744003563 298.47995380466966, 591.3826509888928 298.46592238911757 M590.2819527468147 299.1383896927045 C590.6335792915494 298.8317877783008, 591.7083225615802 297.32718493798126, 592.1721406505975 297.6996482366515 C592.6359587396148 298.07211153532177, 592.8319363262594 300.91865389076816, 593.0648612809184 301.37316948472596 C593.2977862355774 301.82768507868377, 593.3124367235345 300.2615402364411, 593.5696903785517 300.4267418003983 C593.826944033569 300.59194336435553, 594.6518171904338 301.9001501822144, 594.6083832110223 302.3643788684694 C594.5649492316109 302.82860755472433, 593.986007427924 303.08843959072334, 593.309086502083 303.21211391792804 C592.632165576242 303.33578824513273, 590.8970785636152 303.29694995850724, 590.5468576559764 303.10642483169744 C590.1966367483376 302.91589970488764, 591.445823013323 302.7259265617761, 591.2077610562504 302.0689631570692 C590.9696990991779 301.41199975236236, 589.2866218275101 299.6435593112912, 589.1184859135409 299.16464440345624 C588.9503499995717 298.6857294956213, 589.9522227594659 299.0771885347239, 590.1989455724349 299.19547371005956 C590.4456683854039 299.3137588853952, 590.6642242826996 299.91605088981925, 590.5988227913551 299.8743554554702" stroke="undefined" stroke-width="0.8" fill="none"></path></g><g><path d="M539.8622158376438 319.94897782482246 C556.1557033511018 311.4071951692258, 571.6063632111416 302.11014903967083, 587.4357928188549 292.3813335506228 M540.0073856128645 319.9772884654688 C558.5549789647029 309.0841365338137, 577.0269741575388 298.80825098571654, 587.5188371784562 292.20317435822693" stroke="undefined" stroke-width="1" fill="none"></path></g><g><path d="M586.391361613346 291.115089917927 C586.391361613346 291.115089917927, 586.391361613346 291.115089917927, 586.391361613346 291.115089917927 M586.391361613346 291.115089917927 C586.391361613346 291.115089917927, 586.391361613346 291.115089917927, 586.391361613346 291.115089917927 M586.9951281731545 294.42744129230425 C587.786540225061 293.54688658868855, 588.1508016948658 292.9865009914414, 589.860859751154 291.6030540114817 M587.4842892758687 294.4662177716158 C587.7960720156045 293.81526555718824, 588.5380219777481 293.2310725614817, 589.8101734736443 291.5437943754636" stroke="none" stroke-width="0.4" fill="none"></path><path d="M587.7773260428446 290.12607699631513 C588.236185612548 290.2713525160174, 589.1315058826307 290.98661698501076, 589.4700220842369 291.63640088910006 C589.8085382858432 292.28618479318936, 589.8307409383781 293.59545189247945, 589.8084232524823 294.024780420851 C589.7861055665865 294.4541089492226, 589.6354679073426 294.0583097604312, 589.3361159688621 294.2123720593295 C589.0367640303817 294.36643435822776, 588.4410226760713 295.0287370501866, 588.0123116215997 294.9491542142408 C587.5836005671281 294.86957137829506, 587.163996388624 294.1517126353498, 586.7638496420326 293.73487504365505 C586.3637028954412 293.3180374519603, 585.6232053096692 292.942631297956, 585.6114311420511 292.44812866407227 C585.599656974433 291.95362603018856, 586.4622642635275 291.01119358541433, 586.693204636324 290.7678592403529 C586.9241450091206 290.52452489529145, 586.586078310896 290.83043503820886, 586.9970733788308 290.9881225937037 C587.4080684467656 291.1458101491985, 588.779037602464 291.7172527594414, 589.1591750439329 291.7139845733216 C589.5393124854019 291.71071638720184, 589.3956537298797 291.22216733490427, 589.2778980276444 290.96851347698515 M587.5723535470338 290.929251313424 C587.734473093475 291.1181185609661, 588.7809856434633 291.48327699569313, 589.0285261692192 291.7794222435124 C589.276066694975 292.07556749133164, 589.0678162945171 292.16779706887365, 589.0575967015689 292.70612280033953 C589.0473771086206 293.2444485318054, 589.1435976585581 294.639438631247, 588.9672086115293 295.0093766323075 C588.7908195645005 295.37931463336804, 588.457850791729 294.98827672306595, 587.9992624193957 294.92575080670275 C587.5406740470623 294.86322489033955, 586.7566844700962 295.054674667854, 586.2156783775295 294.63422113412815 C585.6746722849628 294.2137676004023, 584.6293188384648 292.7455821035823, 584.7532258639951 292.4030296043477 C584.8771328895255 292.0604771051131, 586.7309023417581 292.8545583090146, 586.9591205307119 292.5789061387206 C587.1873387196656 292.3032539684266, 585.8750845099646 291.18112879294443, 586.1225349977176 290.74911658258367 C586.3699854854706 290.3171043722229, 587.8719244836025 290.0736331363344, 588.4438234572298 289.9868328765559 C589.0157224308571 289.9000326167774, 589.3846298406547 290.19794688644936, 589.5539288394815 290.2283150239126" stroke="undefined" stroke-width="0.8" fill="none"></path></g><g><path d="M539.8783551131313 320.119622767803 C553.3952443514626 308.6229803997663, 566.6546123141748 298.0334459394002, 582.4820362792739 284.09685052788075 M540.2127643549107 319.72459979811003 C549.4781351704813 311.8598764066312, 559.2653574105997 303.9658726799882, 582.3644053891974 284.79817477192665" stroke="undefined" stroke-width="1" fill="none"></path></g><g><path d="M581.506087329052 281.56833379860024 C581.506087329052 281.56833379860024, 581.506087329052 281.56833379860024, 581.506087329052 281.56833379860024 M581.506087329052 281.56833379860024 C581.506087329052 281.56833379860024, 581.506087329052 281.56833379860024, 581.506087329052 281.56833379860024 M581.4586011573963 286.22200345935266 C581.7822435634891 285.2766922221534, 582.5351683991241 284.691316317008, 584.5574531824335 282.9829249627885 M581.1349659604955 286.41489817756957 C582.0973209680343 285.88804590801743, 582.588728064944 284.8680149257174, 584.5857900725127 283.02363868083233" stroke="none" stroke-width="0.4" fill="none"></path><path d="M581.3705652314991 281.7242341381054 C581.9351153529565 281.54813671578046, 583.4294221136184 281.9598407223249, 584.0492160755045 282.21559471023414 C584.6690100373906 282.4713486981434, 585.1262867858345 282.87297206118853, 585.0893290028157 283.25875806556076 C585.0523712197969 283.644544069933, 584.027914786378 283.9916331365714, 583.8274693773914 284.5303107364674 C583.6270239684047 285.0689883363634, 584.3336337342837 286.10372878702805, 583.8866565488955 286.4908236649366 C583.4396793635074 286.8779185428452, 581.6094012242814 286.94403334814547, 581.1456062650622 286.8528800039189 C580.6818113058429 286.7617266596924, 581.2831442396151 286.17027470902434, 581.1038867935796 285.9439035995775 C580.924629347544 285.7175324901306, 580.2010206854357 285.8467975802629, 580.0700615888487 285.4946533472379 C579.9391024922618 285.1425091142129, 579.914104629041 284.18032068388834, 580.3181322140578 283.83103820142753 C580.7221597990745 283.4817557189667, 582.2903976742754 283.7366500096886, 582.494227098949 283.3989584524731 C582.6980565236225 283.0612668952576, 581.6735611383822 281.8163166868421, 581.5411087620993 281.8048888581345 M584.2356997569591 283.9883596686211 C584.8225494794939 283.7796159891453, 584.3182543615728 282.51283301105525, 584.2678088638089 282.5389257552218 C584.217363366045 282.5650184993883, 584.2446030754779 283.75552171625975, 583.9330267703757 284.1449161336204 C583.6214504652735 284.5343105509811, 582.6903918089827 284.3871871909429, 582.3983510331954 284.8752922593858 C582.106310257408 285.3633973278287, 582.3555225486077 286.8811376530526, 582.1807821156522 287.0735465442777 C582.0060416826966 287.2659554355028, 581.4625004758436 286.5298178814423, 581.3499084354621 286.02974560673647 C581.2373163950806 285.52967333203065, 581.8144156753684 284.56158356328797, 581.5052298733634 284.0731128960429 C581.1960440713584 283.58464222879786, 579.4679981370487 283.3257596009597, 579.494793623432 283.09892160326604 C579.5215891098153 282.87208360557236, 580.9515084827933 282.75077681261104, 581.6660027916633 282.71208490988084 C582.3804971005334 282.67339300715065, 583.4893833888341 282.6292095418825, 583.7817594766523 282.86677018688493 C584.0741355644705 283.10433083188735, 583.6542380408621 284.22023417282696, 583.4202593185721 284.13744877989535" stroke="undefined" stroke-width="0.8" fill="none"></path></g><g><path d="M129.81154660757318 349.3434634234134 C139.9954500960573 349.78520701014776, 149.07619005901878 350.04848162107714, 169.44730777198973 351.016923866743 M129.07310207419664 350.3299342381664 C144.33281776306168 350.2457926291038, 158.89957127865878 348.87092399218636, 170.19091552599573 350.09502959914374" stroke="undefined" stroke-width="2.5" fill="none"></path></g><g><path d="M150.68116127959277 350.8947038102446 C150.57848283093085 363.14975937120744, 149.07030639922007 371.58208036656254, 150.04307904812833 378.0454957305846 M150.42551760562498 350.1765392508742 C150.40818504334092 359.3016518697118, 150.8184836027879 368.38761570156896, 150.63168876514368 379.8120960674215" stroke="undefined" stroke-width="2.5" fill="none"></path></g><g><path d="M226.36101688263295 277.5984225289453 C226.36101688263295 277.5984225289453, 226.36101688263295 277.5984225289453, 226.36101688263295 277.5984225289453 M226.36101688263295 277.5984225289453 C226.36101688263295 277.5984225289453, 226.36101688263295 277.5984225289453, 226.36101688263295 277.5984225289453 M228.03591110021026 282.78554101332264 C228.5460839084918 281.025425099924, 230.48378293630054 279.5852569083388, 232.82843222900965 276.6457321325696 M227.15846520874774 282.2857961456842 C228.48878375176298 281.0030578438323, 229.6750689440795 280.0201196360928, 232.88976382540224 276.29281262648846 M230.98918882389606 284.540225122771 C231.37265494585674 283.76240074406337, 231.96948537701937 283.3258847657891, 232.94926181195953 282.265081443928 M231.14651598088975 284.2507864042152 C231.79360330443723 283.858796808287, 232.3740939704397 283.0892517640987, 233.04614602881517 282.1631302649021" stroke="none" stroke-width="0.5" fill="none"></path><path d="M230.0603974173124 276.5268746957196 C230.8832193723409 276.28829154102067, 231.46729432976804 275.51736548075854, 231.9334980939411 275.7201290232704 C232.39970185811416 275.9228925657822, 232.71866055815076 276.6637291352757, 232.85762000235084 277.7434559507906 C232.99657944655092 278.8231827663055, 232.80619648737883 281.18236855520297, 232.7672547591416 282.1984899163597 C232.72831303090436 283.2146112775164, 233.22975770023427 283.5760398920015, 232.62396963292753 283.84018411773064 C232.01818156562078 284.10432834345977, 230.21181790045017 284.02531505669185, 229.1325263553011 283.7833552707344 C228.05323481015205 283.5413954847769, 226.68889296553058 283.1513232069437, 226.14822036203313 282.38842540198567 C225.60754775853567 281.62552759702766, 225.88005173048467 279.97321115081184, 225.88849073431635 279.20596844098617 C225.89692973814803 278.4387257311605, 225.5712242256725 278.2224088066365, 226.19885438502322 277.7849691430317 C226.82648454437395 277.34752947942684, 229.08688308234304 276.81562470926315, 229.65427169042073 276.5813304593572 C230.22166029849842 276.3470362094513, 229.6729526939834 276.284920763624, 229.60318603348944 276.379203643596 M231.81525374044642 275.7086249898188 C232.43585659574697 275.87089043861147, 232.62165716905744 277.7694250116089, 232.96477782414345 278.7435915106565 C233.30789847922946 279.717758009704, 233.90884562621767 280.964277690393, 233.87397767096246 281.55362398410415 C233.83910971570725 282.1429702778153, 233.39634977743307 282.01090487884824, 232.75557009261217 282.27966927292346 C232.11479040779128 282.5484336669987, 230.99877464183834 283.07108155849687, 230.0292995620371 283.16621034855547 C229.05982448223585 283.26133913861406, 227.40901578578865 283.0160666946486, 226.93871961380466 282.8504420132751 C226.46842344182068 282.68481733190157, 227.12632676074955 282.8324890875074, 227.20752253013313 282.1724622603144 C227.28871829951672 281.51243543312137, 227.21598890901055 279.814403828967, 227.4258942301061 278.89028105011687 C227.63579955120167 277.96615827126675, 227.7868764687884 277.1186892595524, 228.46695445670642 276.62772558721355 C229.14703244462444 276.1367619148747, 231.08642288944492 276.23747653064174, 231.5063621576143 275.9444990160838 C231.92630142578366 275.65152150152585, 231.08021603544717 274.61126200978833, 230.9865900657226 274.86986049986575" stroke="#000000" stroke-width="1" fill="none"></path></g><g><path d="M228.37995221115557 289.1629222997028 C230.78313679498294 292.4719646923928, 230.6343494073956 296.9305391738196, 230.8272511634347 306.26550142553907 M229.7002849310772 288.02185914406516 C229.71343952694764 294.61421863850984, 229.36431230770958 301.1859956785476, 230.28649721149455 304.26033236152824" stroke="#000000" stroke-width="0.8" fill="none"></path></g><g><path d="M466.14582467645573 278.01313591816506 C466.14582467645573 278.01313591816506, 466.14582467645573 278.01313591816506, 466.14582467645573 278.01313591816506 M466.14582467645573 278.01313591816506 C466.14582467645573 278.01313591816506, 466.14582467645573 278.01313591816506, 466.14582467645573 278.01313591816506 M467.01615787404336 282.9637055191653 C467.7769459669323 281.95177975398, 469.5994024304424 280.03270495452824, 472.31047189760295 277.2532590181803 M467.26982102189254 283.16199792540107 C468.87944834405033 280.29199686527966, 471.27281250737616 278.48414999492104, 472.69775784774544 276.46965783491595 M472.6136990660692 282.60280741496206 C473.53648255126325 281.45603177960936, 474.0503740113347 280.6457750265891, 474.69131444250985 280.25610213864525 M472.98626372165467 282.50294258067146 C473.445920729736 281.7844243543142, 473.971509791941 281.21450709972527, 474.7801189359003 280.29675174686514" stroke="none" stroke-width="0.5" fill="none"></path><path d="M470.27511143952347 276.2612474352189 C470.808967426065 276.4065746664403, 472.12078201291405 276.23044028609047, 472.81501834497493 277.016335268847 C473.5092546770358 277.80223025160353, 474.47222711432806 280.1532265402972, 474.44052943188876 280.97661733175823 C474.40883174944946 281.80000812321924, 473.4312753548809 281.3636460152083, 472.62483225033924 281.95668001761294 C471.8183891457976 282.5497140200176, 470.4479236464226 284.3224711150816, 469.601870804639 284.53482134618616 C468.7558179628554 284.7471715772907, 468.2725019330017 283.8269353438376, 467.54851519963773 283.2307814042401 C466.82452846627376 282.63462746464256, 465.5400906476034 281.77187521131975, 465.2579504044552 280.95789770860114 C464.975810161307 280.1439202058825, 465.4676484354776 279.0001281705411, 465.8556737407485 278.3469163879282 C466.2436990460194 277.69370460531536, 466.6533929180499 277.309885104781, 467.5861022360806 277.0386270129239 C468.51881155411127 276.76736892106675, 470.79894761077907 276.63629068774026, 471.45192964893243 276.7193678367855 C472.1049116870858 276.8024449858308, 471.6809950071261 277.5578191864524, 471.50399446500074 277.5370899071955 M471.52621339206746 276.3427181859969 C472.6365141117573 276.6730434299313, 474.6844198696873 278.45023473764167, 474.943569734073 279.0159414713887 C475.20271959845866 279.58164820513576, 473.3889507487885 279.2452835728589, 473.0811125783815 279.7369585884793 C472.77327440797455 280.2286336040997, 473.65980352214854 281.3356414363715, 473.0965407116312 281.96599156511115 C472.5332779011138 282.59634169385083, 470.63975840471625 283.10165284463767, 469.7015357152774 283.51905936091754 C468.7633130258385 283.9364658771974, 468.22533398946433 284.9586167696575, 467.467204574998 284.4704306627905 C466.70907516053165 283.98224455592344, 465.44264357029544 281.7075791839001, 465.15275922847934 280.5899427197154 C464.86287488666323 279.47230625553067, 465.2070517412798 278.4181481630809, 465.7278985241012 277.76461187768217 C466.24874530692256 277.11107559228344, 467.34783550445894 276.7979287278535, 468.27783992540753 276.6687250073229 C469.2078443463561 276.5395212867923, 470.9961912780516 276.85293132103925, 471.3079250497928 276.9893895544985 C471.619658821534 277.1258477879577, 470.133075661837 277.6274105662483, 470.1482425558549 277.4874744080782" stroke="#000000" stroke-width="1" fill="none"></path></g><g><path d="M471.2117525735736 288.7620820876488 C469.1477867347119 291.1976412492421, 468.29251755021926 295.6241323887696, 469.8563773443914 306.5885472939739 M470.6550154475638 287.7231498746704 C469.50995778240474 293.2529663405011, 469.1857267994564 300.4480240654367, 470.19056464436295 304.1648714139593" stroke="#000000" stroke-width="0.8" fill="none"></path></g><g><path d="M286.76707443480666 298.3082954024421 C286.76707443480666 298.3082954024421, 286.76707443480666 298.3082954024421, 286.76707443480666 298.3082954024421 M286.76707443480666 298.3082954024421 C286.76707443480666 298.3082954024421, 286.76707443480666 298.3082954024421, 286.76707443480666 298.3082954024421 M287.5102637151625 303.5618205123717 C288.9860297860322 302.2633921249937, 290.1106523167686 300.29581421076784, 293.04979340620065 298.560520107149 M287.07357311375 303.7988056829228 C288.8728280543718 301.57676712313963, 291.45572759309096 299.4115535006371, 292.2431738742062 297.64965688663295" stroke="none" stroke-width="0.5" fill="none"></path><path d="M291.7337066029792 296.8975373849283 C292.40363637419625 297.05194060603185, 292.1071674318747 297.39829432421124, 292.57885005864983 298.031551290971 C293.05053268542497 298.6648082577307, 294.53676325608484 299.79069141701336, 294.5638023636301 300.69707918548676 C294.59084147117534 301.60346695396015, 293.2725224938473 303.1030269093778, 292.74108470392133 303.4698779018113 C292.20964691399536 303.8367288942448, 292.2990360387101 302.7684543829464, 291.3751756240742 302.8981851400877 C290.4513152094383 303.02791589722904, 288.10799629185607 304.65156847317354, 287.19792221610584 304.2482624446593 C286.2878481403556 303.84495641614507, 285.94018440979073 301.5216684852852, 285.91473116957286 300.4783489690024 C285.889277929355 299.4350294527196, 286.61157396484856 298.63990328795325, 287.04520277479867 297.98834534696243 C287.4788315847488 297.3367874059716, 287.7514822071629 297.02088642021346, 288.51650402927345 296.56900132305765 C289.281525851384 296.11711622590184, 291.2982509435763 295.1615273578487, 291.6353337074618 295.2770347640277 C291.97241647134734 295.3925421702067, 290.57778454669307 297.189549185572, 290.53900061258645 297.26204576013157 M288.379996609738 295.1710031978925 C289.1748560813424 294.48670442196044, 291.5800536796388 294.56062771977224, 292.5398751652238 295.2488639611695 C293.4996966508088 295.93710020256674, 293.69271293082005 298.48790055241284, 294.13892552324796 299.3004206462758 C294.5851381156759 300.1129407401388, 295.6030567083357 299.4039902030699, 295.2171507197912 300.1239845243475 C294.8312447312467 300.84397884562514, 292.92400874236705 302.768435650578, 291.82348959198106 303.62038657394163 C290.72297044159507 304.47233749730526, 289.4957221332131 305.24565904409417, 288.6140358174751 305.2356900645293 C287.7323495017371 305.22572108496445, 287.2017356749874 304.24311332946286, 286.5333716975531 303.56057269655236 C285.8650077201188 302.87803206364185, 284.73005482680975 301.95769961788716, 284.60385195286943 301.1404462670662 C284.4776490789291 300.3231929162452, 285.3391244370751 299.35412258618504, 285.7761544539113 298.6570525916265 C286.21318447074754 297.95998259706795, 286.9589106063811 297.2675837011418, 287.2260320538867 296.958026299715 C287.49315350139227 296.64846889828823, 287.0788116477264 296.641605324034, 287.37888313894484 296.79970818306566" stroke="#000000" stroke-width="1" fill="none"></path></g><g><path d="M289.6046543060949 307.26555517382565 C289.9348321953371 315.42626986506343, 289.80862958380527 320.4030992563372, 290.7365634151773 324.1506105698294 M289.93906328265757 308.2795791503321 C289.88138241633254 312.45175277340616, 289.3515542328286 317.118149617538, 290.1221432838057 324.9126877151727" stroke="#000000" stroke-width="0.8" fill="none"></path></g><g><path d="M407.8010012873901 296.19543037995845 C407.8010012873901 296.19543037995845, 407.8010012873901 296.19543037995845, 407.8010012873901 296.19543037995845 M407.8010012873901 296.19543037995845 C407.8010012873901 296.19543037995845, 407.8010012873901 296.19543037995845, 407.8010012873901 296.19543037995845 M408.02930744723636 302.8001853722705 C408.13923197819776 301.2307097392999, 409.52260539577804 301.3068645920305, 411.8762558341006 298.19981119664305 M407.5290357543024 302.5690169752213 C408.3773769312313 301.38897300407086, 409.2529276027971 300.1642631066189, 411.19930546719587 297.88192731057313 M411.4736291139837 303.9900395770177 C412.5919048686508 301.9083564715799, 413.6805604555377 301.34510873684275, 414.7234519621815 299.7377140877511 M411.79861986128964 303.48944015293335 C412.5012959401159 302.9853001968274, 413.0691352925634 302.2598825002006, 414.9275873360699 299.97311636789505" stroke="none" stroke-width="0.5" fill="none"></path><path d="M408.0620971141866 295.89507398955453 C408.5846313274497 295.6238115617897, 409.4024337454337 296.81703239570857, 410.403028752127 297.26383597774293 C411.4036237588203 297.7106395597773, 413.3473373594965 298.0248276131703, 414.0656671543463 298.57589548176065 C414.783996949196 299.126963350351, 414.8936934464435 299.86233622499464, 414.7130075212255 300.5702431892849 C414.53232159600753 301.27815015357515, 413.6654361904825 302.3946700474621, 412.98155160303855 302.82333726750215 C412.2976670155946 303.2520044875422, 411.5211736292671 303.02522106971657, 410.60969999656163 303.14224650952514 C409.6982263638562 303.2592719493337, 408.2553466453734 303.8605408648349, 407.5127098068059 303.5254899063535 C406.7700729682384 303.19043894787217, 406.1325084294462 301.9150864738265, 406.1538789651569 301.13194075863703 C406.17524950086755 300.3487950434476, 406.9988591634782 299.80424599731407, 407.64093302107005 298.82661561521695 C408.2830068786619 297.84898523311983, 409.5955240450258 295.8485430729763, 410.0063221107081 295.2661584660543 C410.41712017639037 294.6837738591323, 410.10654820181816 295.20925204745237, 410.1057214151638 295.3323079736851 M412.5279407773073 296.00579411966453 C413.29747561259376 295.9913990777237, 412.88286625895546 296.8679813698353, 412.8624693853018 297.70177906561975 C412.8420725116481 298.5355767614042, 412.5213022022318 299.9181801052048, 412.40555953538535 301.0085802943712 C412.2898168685389 302.0989804835376, 412.6526870642783 303.82332292637375, 412.16801338422283 304.2441802006182 C411.68333970416734 304.66503747486263, 410.4527072333212 303.6908118212574, 409.49751745505256 303.5337239398377 C408.54232767678394 303.37663605841806, 407.22043173085757 303.7090653106902, 406.436874714611 303.3016529121 C405.65331769836445 302.89424051350977, 404.4890264069371 301.97072449622164, 404.79617535757325 301.0892495482964 C405.1033243082094 300.2077746003711, 407.67231642403203 298.7790151993789, 408.2797684184279 298.0128032245486 C408.8872204128238 297.2465912497183, 408.00789641072095 296.62883176326534, 408.4408873239486 296.4919776993146 C408.8738782371762 296.35512363536384, 410.2456919864367 297.3884811220105, 410.87771389779385 297.1916788408439 C411.509735809151 296.9948765596773, 411.9631353323884 295.23033223036214, 412.23301879209134 295.31116401231515" stroke="#000000" stroke-width="1" fill="none"></path></g><g><path d="M408.5305073727818 308.86796844687615 C409.56390175881234 314.7203913906571, 409.3181793539153 316.7448511165409, 410.7565955318324 325.7068585373229 M410.3314721451658 308.5390681185104 C410.808543687252 311.4129008927432, 409.59225280162286 314.9118483272655, 409.23540974237244 325.48217227862483" stroke="#000000" stroke-width="0.8" fill="none"></path></g><text x="400" y="560" text-anchor="middle" font-family="sans-serif" font-size="16" fill="#222" font-style="italic">A signal is credible precisely because it is expensive to fake.</text></svg>