<?xml version="1.0" encoding="UTF-8"?>
<svg width="800" height="600" viewBox="0 0 800 600" xmlns="http://www.w3.org/2000/svg"><rect width="800" height="600" fill="#FFFFFF"></rect><g><path d="M99.18833816753704 420.55627136757556 C330.5172608458764 419.89679454676264, 560.1647347961181 419.5726590521851, 699.3849061059361 420.7110864925974 M99.88498491934531 419.9847667323978 C262.46022518323133 420.05833095495416, 424.0156700520921 420.01476100703394, 699.7642910422028 419.71175289221463" stroke="#000000" stroke-width="2" fill="none"></path></g><g><path d="M389.7927884142431 254.04086989058413 C389.7927884142431 254.04086989058413, 389.7927884142431 254.04086989058413, 389.7927884142431 254.04086989058413 M389.7927884142431 254.04086989058413 C389.7927884142431 254.04086989058413, 389.7927884142431 254.04086989058413, 389.7927884142431 254.04086989058413 M393.27073244303267 265.1937702769822 C394.77591634398954 263.1237282909192, 397.4526894626324 258.4800723089183, 406.5312866944435 250.14918871655792 M392.393125386298 266.86662129084675 C396.94098605512625 261.1332403733021, 400.0784677002582 256.31314221197044, 405.07054860218807 250.009734977962 M401.7320167029427 269.394433284511 C404.7171485575686 266.9222332629437, 408.6875310315615 262.5080794095007, 410.1147496210896 260.8556256799754 M402.2222799250535 269.9237263199271 C403.6572144868413 267.66894622518515, 405.36666585238385 265.5977942538341, 411.2619622345867 260.17604194140034" stroke="none" stroke-width="1.2" fill="none"></path><path d="M395.96800825303876 250.31527755044718 C398.1371526278455 249.36785068886724, 402.16639139685145 248.5822255688463, 404.3838474923171 249.29370253775494 C406.60130358778275 250.00517950666358, 408.2651822286126 252.31628106969566, 409.2727448258327 254.58413936389894 C410.2803074230528 256.8519976581022, 410.7500910095846 260.4819411118595, 410.42922307563754 262.9008523029746 C410.1083551416905 265.3197634940897, 409.10473689815484 267.88767755593517, 407.3475372221502 269.0976065105897 C405.5903375461456 270.3075354652442, 402.3647137947478 270.2706151607733, 399.88602501960963 270.1604260309017 C397.4073362444715 270.05023690103013, 394.18992866089707 269.9526668015823, 392.47540457132135 268.43647173136014 C390.76088048174563 266.92027666113796, 390.01456948758073 263.4986598965945, 389.59888048215527 261.06325560956856 C389.1831914767298 258.6278513225426, 388.75107528513666 255.71767519472917, 389.98127053876857 253.82404600920424 C391.2114657924005 251.9304168236793, 395.72320894198396 250.4754377711782, 396.9800520039467 249.70148049641907 C398.23689506590944 248.92752322165992, 397.5600130143019 249.06651448022401, 397.52232891054496 249.18030236064945 M399.88067408523585 248.5082899527099 C402.3478127385878 248.39245782405888, 405.7572221888215 250.89293342884588, 407.59454515052437 252.59552094493915 C409.4318681122272 254.29810846103243, 410.68034553756587 256.50193514775503, 410.9046118554528 258.7238150492695 C411.12887817333973 260.94569495078395, 410.10397300521004 263.9747245318885, 408.940143057846 265.92680035402606 C407.77631311048196 267.8788761761636, 405.94504957224757 269.727221954726, 403.9216321712685 270.4362699820947 C401.8982147702895 271.1453180094634, 398.8883394966804 271.1513820315199, 396.79963865197186 270.1810885182381 C394.71093780726335 269.21079500495625, 392.8567089451481 266.6874705820991, 391.38942710301734 264.61450890240366 C389.92214526088657 262.54154722270823, 387.69628555294673 260.116974557006, 387.99594759918733 257.7433184400655 C388.29560964542793 255.36966232312497, 390.9824902816943 251.97850293546847, 393.187399380461 250.37257220076054 C395.39230847922767 248.76664146605262, 399.9934607478793 248.4079127631408, 401.22540219178745 248.10773403181798 C402.4573436356956 247.80755530049515, 400.5737271172483 248.09995582142224, 400.57904804391006 248.57149981282365" stroke="#CC3333" stroke-width="2.4" fill="none"></path></g><g><path d="M401.33124357045574 283.50477007339936 C398.6032924844461 295.8913526906197, 399.623008626753 309.45279088638324, 400.26879364937804 325.4237837495341 M399.77424343163995 282.700899522732 C400.28405636813767 298.4261283875188, 399.4961164409487 315.5370372200053, 400.2448436767629 325.6750452436135" stroke="#CC3333" stroke-width="2" fill="none"></path></g><g><path d="M400.51362029348786 325.2590915725139 C395.96630196761566 335.9818051805774, 390.729080849947 346.51418593549147, 387.79492307936255 356.3123901753422 M399.2172346592735 325.3791542648886 C395.15160405370574 334.7116145773915, 390.93773018858576 341.8058731211264, 385.82475054994484 355.24691217320094" stroke="#CC3333" stroke-width="1.6" fill="none"></path></g><g><path d="M400.4685998724836 324.28556554872085 C406.95554168766023 336.7850257740585, 409.152544128377 348.52212647852025, 415.7658708297947 353.4716108445804 M399.88123223223573 325.9740917107481 C404.9697539496371 336.28691550019676, 410.4624982509448 347.0738737613933, 414.1766895530128 354.2345378644056" stroke="#CC3333" stroke-width="1.6" fill="none"></path></g><g><path d="M385.7861945130541 295.15286501727905 C369.10780596395665 290.41151208721465, 349.85534587575756 283.8954110962176, 331.02484141529015 280.0326982168872 M384.52236946682007 295.7136901789311 C363.9052094312737 289.50244473049713, 342.9197186079803 283.47873028383714, 329.30645110010215 280.73812658316854" stroke="#CC3333" stroke-width="1.8" fill="none"></path></g><g><path d="M416.5827669330511 293.23230118124513 C434.8704127987988 288.1250109099823, 452.17994572601407 283.8237655502459, 469.2257111609111 279.81985400202603 M415.250523735507 294.4263888644415 C429.2028142706634 291.3177124745829, 441.5801228763742 287.9985935489617, 469.9086636313 280.7644983091477" stroke="#CC3333" stroke-width="1.8" fill="none"></path></g><g><path d="M387.1589671668431 239.01419222595408 C391.07669438688055 234.63935307427036, 396.37821309006824 232.00195493213624, 398.538509930302 227.38213525325583 M388.3234233624016 237.60147924134637 C392.8581628341255 233.97048092247243, 396.6222591907459 230.62353991256353, 400.7162481926572 227.8954292079013" stroke="#CC3333" stroke-width="1.4" fill="none"></path></g><g><path d="M399.72608944731155 226.4985638682811 C403.68935395684485 229.82232133791814, 408.5203795621059 233.1449181071829, 410.7747661509988 239.05179130653505 M399.5000235815099 228.58280911255764 C403.20233637075717 230.94675918127976, 408.3112461007678 235.18294227273324, 411.78921912017165 238.33036224859862" stroke="#CC3333" stroke-width="1.4" fill="none"></path></g><g><path d="M597.0134018293536 352.0241953468566 C597.0134018293536 352.0241953468566, 597.0134018293536 352.0241953468566, 597.0134018293536 352.0241953468566 M597.0134018293536 352.0241953468566 C597.0134018293536 352.0241953468566, 597.0134018293536 352.0241953468566, 597.0134018293536 352.0241953468566 M596.784575143843 359.79302743028654 C598.2161611016746 358.46422760058374, 600.1980016869226 356.6021778476852, 603.0512839985051 353.30009366361145 M596.6258243099963 359.8063120136215 C598.878472771499 357.16838278436916, 601.3396010846875 354.5387625337441, 602.5885452368215 353.2295265527186" stroke="none" stroke-width="0.6" fill="none"></path><path d="M600.354378166813 351.3593149611151 C601.3567980128618 351.4561846894072, 602.4113513196254 352.11271920527855, 603.2181796286887 352.79903268985566 C604.0250079377521 353.4853461744328, 605.0596626409354 354.5475683269817, 605.1953480211929 355.4771958685779 C605.3310334014504 356.40682341017407, 604.6852734644864 357.5796180526559, 604.0322919102337 358.37679793943255 C603.3793103559809 359.1739778262092, 602.359446476494 359.8789929608445, 601.2774586956766 360.26027518923775 C600.1954709148592 360.64155741763096, 598.5054834954408 360.99730002132003, 597.5403652253295 360.6644913097919 C596.5752469552183 360.3316825982638, 595.9058881408293 359.3046764298995, 595.4867490750091 358.2634229200689 C595.0676100091889 357.2221694102383, 594.7303712677841 355.5036815660435, 595.0255308304085 354.41697025080833 C595.3206903930328 353.33025893557317, 596.3626641320516 352.3658324784667, 597.2577064507553 351.74315502865795 C598.1527487694591 351.1204775788492, 599.7293828633631 350.850745700141, 600.3957847426311 350.6809055519557 C601.0621866218992 350.5110654037704, 601.200595362027 350.5144274536324, 601.2561177263633 350.7241141395461 M601.6901518705627 350.3025152230725 C602.572621763157 350.38698166394005, 603.1815249184167 351.5191984661569, 603.7718593197678 352.5921738411816 C604.362193721119 353.66514921620626, 605.309232692243 355.68713835773127, 605.2321582786691 356.7403674732204 C605.1550838650952 357.7935965887095, 603.9568111743217 358.2420685070591, 603.3094128383243 358.91154853411615 C602.6620145023269 359.5810285611732, 602.1930595000031 360.49808367095017, 601.3477682626844 360.75724763556246 C600.5024770253658 361.01641160017476, 599.2298239372176 360.9305411699181, 598.2376654144124 360.4665323217899 C597.2455068916072 360.00252347366165, 595.9788187644879 359.07672534661225, 595.3948171258536 357.97319454679314 C594.8108154872193 356.869663746974, 594.3363196917101 354.8885851425054, 594.7336555826067 353.84534752287533 C595.1309914735034 352.80210990324525, 596.6303458788766 352.27259405577774, 597.7788324712336 351.71376882901257 C598.9273190635906 351.1549436022474, 601.0743221424369 350.5501048448795, 601.6245751367491 350.49239616228436 C602.1748281310612 350.4346874796892, 601.2372738686245 351.12270356055643, 601.0803504371063 351.36751673344156" stroke="#000000" stroke-width="1.2" fill="none"></path></g><g><path d="M600.0531209735612 364.9804194888673 C599.1981888770268 373.3221261832033, 600.0374656372965 380.878892539674, 600.4771748908564 384.2089609424603 M600.1464416523824 366.42031422393933 C599.7507065183241 372.61530014890064, 600.4359750599755 379.2498900968173, 600.4704390725485 383.81382845396035" stroke="#000000" stroke-width="1" fill="none"></path></g><g><path d="M579.9677739995625 350.26996302875625 C595.6328532024424 345.6764485506592, 608.1667617973864 345.82195497826115, 618.935713664369 347.6690091420771 M582.8279783341858 347.5547630374922 C589.3047589140549 348.06040706653613, 598.2438884523157 346.79501148095744, 618.7735967381964 346.81864508209947 M620.3046942703768 346.9707930384378 C618.4126608956738 360.06700173071386, 616.9052212232352 366.90011644292565, 616.2984174451051 394.28429309496806 M618.0019018715262 349.39687408824807 C616.7238895649277 356.80364796488044, 617.3685743881039 366.89843109421525, 617.9349734487594 391.53265662291847 M619.6564397441005 392.46314262242333 C607.8097570377553 391.1132152468668, 598.3659840006334 390.99358666780546, 583.7046431400921 393.9584082041359 M619.1942310424447 392.63419710031707 C609.8853138232088 391.6744138205586, 598.8571165628317 390.3232750616803, 580.7746354157637 391.50121883939744 M579.7412729727434 391.2233157369867 C579.4648467877857 382.48507206824576, 582.911218923502 370.01122519368863, 583.33766965199 346.6913590173401 M581.472279939993 391.98392079155485 C581.0975733073342 380.4044451086526, 581.6337504522726 368.40058601345436, 581.977384315538 348.3522900763395" stroke="#000000" stroke-width="0.8" fill="none"></path></g><text x="400" y="560" text-anchor="middle" font-family="sans-serif" font-size="16" fill="#222" font-style="italic">"Your job is recognition and self-protection, not repair."</text></svg>