<?xml version="1.0" encoding="UTF-8"?>
<svg width="800" height="600" viewBox="0 0 800 600" xmlns="http://www.w3.org/2000/svg"><rect width="800" height="600" fill="#FFFFFF"></rect><g><path d="M240.88753347508927 265.0508838758076 C240.88753347508927 265.0508838758076, 240.88753347508927 265.0508838758076, 240.88753347508927 265.0508838758076 M240.88753347508927 265.0508838758076 C240.88753347508927 265.0508838758076, 240.88753347508927 265.0508838758076, 240.88753347508927 265.0508838758076 M243.91759474859577 275.5652874300026 C244.95712013962643 271.7768527919917, 252.4046868627998 265.45747867623584, 254.78100464328318 260.0198316529043 M242.93268118878754 275.4468674720671 C245.90469504200175 271.98891993469135, 250.1728125446234 266.79809285140544, 255.24829687679772 260.88489300820345 M249.01163678080334 280.5416203930391 C252.60995080120978 276.35728095834395, 256.2978976529306 270.9161108555671, 260.0157110482454 269.4566412732142 M249.82452725220045 279.94918945673203 C252.37203769481334 277.5319340947421, 253.54050077974208 274.6363602437151, 258.8454881868275 268.0133466623961" stroke="none" stroke-width="1" fill="none"></path><path d="M245.4457614391208 260.1491742973654 C247.2445121823494 258.9301289321012, 249.52735503712032 258.6442894084656, 251.5552711755476 259.1882610227472 C253.5831873139749 259.7322326370288, 256.0876639041593 261.62352135292474, 257.6132582696845 263.413003983055 C259.1388526352097 265.2024866131852, 260.771513393254 267.66432453576164, 260.70883736869877 269.9251568035285 C260.64616134414354 272.1859890712954, 258.8522473959209 275.19597492137603, 257.23720212235304 276.97799758965624 C255.62215684878515 278.76002025793645, 253.06208808399973 280.38036091322226, 251.01856572729147 280.61729281320964 C248.97504337058322 280.854224713197, 246.70933206310738 279.62099561545165, 244.97606798210347 278.39958898958065 C243.24280390109956 277.17818236370965, 241.32218895674106 275.4885761254687, 240.61898124126802 273.2888530579837 C239.91577352579498 271.08912999049875, 239.77541601858246 267.464533423847, 240.7568216892653 265.2012505846709 C241.73822735994816 262.9379677454948, 245.3324395420076 260.80382428414026, 246.50741526536504 259.7091560229272 C247.6823909887225 258.6144877617141, 247.58926887136764 258.52297782356237, 247.80667602941008 258.6332410173923 M246.14842906407847 260.1023278508125 C247.99275623194626 259.4626010549345, 251.2469034920934 260.03835988156993, 253.34462721829541 260.7833421977152 C255.44235094449743 261.5283245138605, 257.38652313583856 262.51317395534875, 258.73477142129065 264.5722217476842 C260.08301970674273 266.6312695400196, 261.9657233228644 270.7266908310857, 261.43411693100796 273.137628951728 C260.90251053915154 275.5485670723703, 257.4288909594611 277.84172353158834, 255.54513307015208 279.0378504715381 C253.66137518084304 280.23397741148784, 252.06672055406736 280.61835914542985, 250.13156959515376 280.3143905914266 C248.19641863624017 280.0104220374234, 245.5919018700875 278.76531188799913, 243.9342273166705 277.21403914751886 C242.2765527632535 275.6627664070386, 240.54851919657307 273.23049313131844, 240.18552227465185 271.00675414854487 C239.82252535273062 268.7830151657713, 240.79870759987259 266.05011921841646, 241.7562457851432 263.8716052508773 C242.7137839704138 261.6930912833381, 245.09819667980335 258.6435879171362, 245.93075138627543 257.9356703433099 C246.7633060927475 257.2277527694836, 246.43456299219878 259.04992326362253, 246.7515740239757 259.6240998079193" stroke="#000000" stroke-width="2" fill="none"></path></g><g><path d="M248.25686981823958 293.6997187371844 C249.15397940863878 304.0024162706856, 251.03218674165376 316.8773974097165, 251.6957531711694 328.95560202720196 M250.7236856770203 291.88617645849257 C249.2279986613655 306.33512813874285, 249.22828199607991 318.37550105036746, 249.1511551898622 327.3397096790772" stroke="#000000" stroke-width="2" fill="none"></path></g><g><path d="M249.84063859455023 326.9210039764348 C246.8440348967514 335.7201541385334, 241.5141164638271 344.3536112178686, 236.23006860874116 359.71870581132436 M250.79982264257666 328.7092266545059 C246.15622479921825 336.14940498286495, 242.6627801893518 346.1229929048755, 237.74437096897168 360.0733697384031" stroke="#000000" stroke-width="2" fill="none"></path></g><g><path d="M251.7900567411966 328.2856796597271 C251.22620306903968 335.34901588082374, 256.9899513722929 342.953817788608, 262.2919432295185 359.23841213349476 M250.41818260039892 328.34682791177227 C254.86060357781778 337.5392486292258, 258.28453824780104 348.90950798039773, 261.0348458949079 360.62964469393063" stroke="#000000" stroke-width="2" fill="none"></path></g><g><path d="M248.32800188344498 301.2161003596752 C258.29241338319144 300.0487763598696, 265.4872030596442 295.1222214326625, 288.5119867793623 285.6522942349318 M249.96213019276888 302.47250135395615 C259.55614643320223 298.5023778799045, 269.6773336454826 293.8498274743315, 290.15982546698604 285.2451366001755" stroke="#000000" stroke-width="2" fill="none"></path></g><g><path d="M248.54752367988536 300.2297089922202 C239.20140509519658 307.270094281675, 230.26019488721224 312.19466415583986, 225.3466687193834 315.89324536444065 M250.897052974895 302.29774100752127 C241.81298382012247 306.6688743283147, 232.5560689441508 309.7904760603587, 224.37562299773523 314.2609326938763" stroke="#000000" stroke-width="2" fill="none"></path></g><g><path d="M299.5310969904695 240.1888138643246 C331.94124777718656 240.61927796906474, 364.4042244990585 240.360956803662, 379.8829199099345 238.6570837664891 M300.14852936476433 240.09625552579897 C323.1790738026819 239.24624813688268, 346.4465950467081 239.39300027033698, 380.3450148721049 240.0268902213051 M379.8175200646229 240.25737828581316 C381.6009358690154 253.28213479383763, 379.5564969411862 263.3036012679892, 378.9789069396745 275.40269413662827 M379.8067985690829 239.9725490962077 C380.29284239145517 250.9699970400059, 380.24099424798624 262.3664953808673, 379.49112305214203 275.72544475358876 M379.6892337016964 274.9035134336858 C351.4508642614165 273.0179861005416, 321.1395582491047 275.6143836642679, 300.0036234928812 274.496576437391 M380.12346841563846 275.6280648175702 C354.92012277206675 274.0716217151401, 329.73461580042607 275.1936063715863, 300.45308034137344 275.15169094237933 M298.5099627292401 274.96784559325766 C299.9889678466702 263.3773192238827, 301.22586924337344 253.4262797424582, 299.81385143151 239.60934118124558 M300.5141909357967 274.6338843049419 C299.44986664186825 263.44983817308855, 300.3613997365801 251.84212257997612, 299.2718892188806 240.06398445040475" stroke="#000000" stroke-width="1.2" fill="none"></path></g><g><path d="M295.1864501884422 259.59167892120394 C296.9314205500288 261.77742716947915, 298.80238984320783 263.7893150157162, 299.663337692697 264.6602254721973 M294.905274708028 260.11531482681926 C296.901660505129 262.03196761524856, 298.93166592963007 263.7916045176753, 300.0526019460038 265.06739874405656" stroke="#000000" stroke-width="1" fill="none"></path></g><g><path d="M541.6081324257987 264.11073964874686 C541.6081324257987 264.11073964874686, 541.6081324257987 264.11073964874686, 541.6081324257987 264.11073964874686 M541.6081324257987 264.11073964874686 C541.6081324257987 264.11073964874686, 541.6081324257987 264.11073964874686, 541.6081324257987 264.11073964874686 M542.8469763816051 274.8557903653016 C544.4860962177746 269.32795664772704, 548.2213961773059 266.81468764234353, 554.6121745305759 262.6831373847176 M542.4527586279128 275.17879740886525 C545.755604491829 270.9845779215767, 547.9141280816431 267.02011517237014, 554.2691039676954 260.796698508488 M548.5961127765836 279.8335500352945 C550.289604770615 273.6947829440787, 556.0198877189345 270.30828812544934, 559.2804578391781 264.50817981423967 M547.8185415624866 279.8718965678764 C549.6649597964658 275.4591672352895, 554.510307315266 271.134123984654, 559.0909420211837 265.9472925661513" stroke="none" stroke-width="0.9" fill="none"></path><path d="M546.3064461754004 259.09144663456186 C548.1862880932824 258.39061034277154, 551.5446108840486 260.0458252844136, 553.7768992864931 261.17973782274373 C556.0091876889376 262.3136503610739, 558.5609051696327 264.0812265501839, 559.7001765900677 265.89492186454265 C560.8394480105027 267.7086171789014, 561.2481726376644 270.0869779835584, 560.6125278091029 272.06190970889645 C559.9768829805413 274.0368414342345, 557.79351819084 276.4233151927012, 555.8863076186985 277.7445122165708 C553.9790970465571 279.0657092404404, 551.3999941062614 280.1065759917526, 549.1692643762541 279.9890918521142 C546.9385346462468 279.8716077124758, 544.1980172578371 278.4743340481733, 542.5019292386547 277.03960737874024 C540.8058412194723 275.60488070930717, 539.0940195392023 273.5903959766053, 538.9927362611596 271.38073183551586 C538.8914529831169 269.1710676944264, 540.5451284801725 265.713076462691, 541.8942295703981 263.7816225322036 C543.2433306606238 261.8501686017162, 546.1619471194772 260.48968991572883, 547.0873428025137 259.79200825259124 C548.0127384855502 259.09432658945366, 547.4530231894448 259.5403907523339, 547.4466036686173 259.5955325533782 M554.3411100666127 259.51368803196243 C556.2047029088126 259.9929370151282, 557.8018324410714 262.77562169191333, 558.7026541524281 264.5997320881752 C559.6034758637848 266.42384248443705, 560.1616024562206 268.4081560883986, 559.7460403347526 270.4583504095336 C559.3304782132846 272.5085447306686, 557.4880219819448 275.46575916842744, 556.2092814236202 276.90089801498516 C554.9305408652955 278.3360368615429, 553.9953093494944 278.7114264015436, 552.0735969848043 279.0691834888798 C550.1518846201143 279.426940576216, 546.9545804753039 280.14728364311935, 544.6790072354801 279.04744053900254 C542.4034339956562 277.9475974348857, 539.2039617481032 274.7532690135432, 538.4201575458613 272.47012486417896 C537.6363533436195 270.1869807148147, 538.6247332385855 267.3309181165911, 539.9761820220288 265.3485756428171 C541.327630805472 263.3662331690431, 544.5485234574749 261.6052786042639, 546.5288502465211 260.57607002153514 C548.5091770355673 259.5468614388064, 550.9328368878179 259.28719302959536, 551.8581427563059 259.17332414644443 C552.783448624794 259.0594552632935, 551.8614758771157 259.6183104628613, 552.0806854574495 259.8928567226295" stroke="#CC3333" stroke-width="1.8" fill="none"></path></g><g><path d="M548.9678698392154 291.671371170079 C550.257354420885 302.41531251089447, 548.1279792841909 312.7031886280397, 551.2037793326137 327.9026029620523 M549.7847492681257 291.48971240800887 C550.2366794707668 306.6025319132292, 549.6891679121363 320.6222744817604, 550.2840793814952 328.014409896557" stroke="#CC3333" stroke-width="1.6" fill="none"></path></g><g><path d="M550.9324758502228 327.52178696587663 C547.731998210244 335.1337748123532, 544.2121221921675 340.8273965992212, 537.163717336737 359.12215956785195 M549.7577798416975 327.63354206508865 C546.8818595055387 333.79441608821674, 544.2731041006223 341.981055889528, 537.0989972004465 359.05776006290387" stroke="#CC3333" stroke-width="1.6" fill="none"></path></g><g><path d="M549.2236709552177 327.9101224111208 C553.9114510413497 335.60177115507605, 556.4574343391089 343.7632040507437, 560.4898163207607 358.04337194919543 M549.9079762932212 327.29201037541645 C553.7510685271877 336.0807999940148, 557.225142177833 346.4884979572956, 562.0270304081332 359.66338305035146" stroke="#CC3333" stroke-width="1.6" fill="none"></path></g><g><path d="M549.3464963686912 303.62154407009683 C545.3876440042696 308.280447580923, 539.7180097785466 311.4206322385121, 530.1486842397006 316.63031806361704 M550.5842211305664 305.2790541486914 C544.0276748246063 309.8880016941112, 535.7743590200104 313.92762225432983, 532.0554235732062 318.9123943976171" stroke="#CC3333" stroke-width="1.6" fill="none"></path></g><g><path d="M548.4387793987252 304.9220417363616 C556.0170869362256 310.3859205259911, 558.2604120588435 313.73259987151164, 569.9523199822053 319.75467308852143 M549.3281473621598 305.1246489554559 C556.2312488842109 310.38835231820315, 562.0192606930332 313.8506738646575, 568.4875100620352 318.1647952301457" stroke="#CC3333" stroke-width="1.6" fill="none"></path></g><g><path d="M400.20356595793623 219.86861077664926 C399.54209673149313 287.58022793808505, 399.6248868029533 356.3198491272347, 399.98847647317086 399.87268738458437 M399.7254084479779 220.03149955448146 C400.04833952236123 262.52883543200585, 399.87740233130114 305.38423204636075, 400.0072164686115 399.6471107994691" stroke="#ccc" stroke-width="1" fill="none"></path></g><g><path d="M99.57750690738972 400.77129681788176 C339.13030216502597 397.3383336654026, 579.1593698389013 396.7779737542787, 699.0471201564568 400.0369363219115 M100.37574639085078 399.82783778048264 C255.1552111963817 396.74445499160885, 409.1418970846825 396.35803473909425, 699.8181993880896 400.04775319377603" stroke="#000000" stroke-width="2" fill="none"></path></g><text x="400" y="560" text-anchor="middle" font-family="sans-serif" font-size="16" fill="#222" font-style="italic">"We are all unreliable narrators of our own motivation."</text></svg>