<?xml version="1.0" encoding="UTF-8"?>
<svg width="800" height="600" viewBox="0 0 800 600" xmlns="http://www.w3.org/2000/svg"><rect width="800" height="600" fill="#FFFFFF"></rect><g><path d="M49.09764056206807 421.0806265066583 C188.4599835625742 287.75361690443543, 326.58233373992266 152.56282747792977, 401.1054662579206 80.77355685672312 M49.75930527077614 420.6779364530678 C173.89141368310936 298.52538283473115, 296.5879234261522 179.60355371352338, 400.11297940188643 79.31188066299934 M399.7248883281014 78.95267751319922 C532.8774098718571 212.0354762249498, 667.2050416336417 340.1096789483014, 750.2360659325315 418.796774420469 M399.93138276204854 80.36675003951602 C533.7390609504209 211.59360390558828, 671.6248876563074 344.50593632732233, 749.8509636030554 419.4863563388233" stroke="#000000" stroke-width="2.8" fill="none"></path></g><g><path d="M339.30248257406674 158.78286389123446 C340.87420494632653 180.01462814169057, 338.4768923928225 205.21704314083416, 338.8466623089014 218.19070394659943 M339.45279474804255 160.16999376750633 C340.21760140450976 173.96057773381511, 339.5698640608627 187.22606296832853, 339.18439803281086 220.75752654306353" stroke="#000000" stroke-width="2.4" fill="none"></path></g><g><path d="M338.74536687620997 218.24808226660332 C351.50605433173644 218.86973611781733, 359.30027279894284 219.2533195514036, 380.718128944054 220.6294361307663 M340.3894983122068 220.94381258780797 C351.89416356140146 218.93157938344032, 362.5740878019058 219.48385554286565, 379.6813005846865 220.65202600541843" stroke="#000000" stroke-width="2" fill="none"></path></g><g><path d="M380.3355063381835 161.80948281910364 C381.2772254363899 176.43208739302574, 379.5107763289401 191.52007291845655, 381.06574392628875 221.68966706268802 M380.9031146930433 159.7030533292428 C379.11798837572974 177.0397697372636, 380.6460894992527 196.0747975692348, 379.9981045374016 219.13899841188598" stroke="#000000" stroke-width="2.4" fill="none"></path></g><g><path d="M354.6498770728591 171.81609639266392 C354.6498770728591 171.81609639266392, 354.6498770728591 171.81609639266392, 354.6498770728591 171.81609639266392 M354.6498770728591 171.81609639266392 C354.6498770728591 171.81609639266392, 354.6498770728591 171.81609639266392, 354.6498770728591 171.81609639266392 M356.8489364337914 181.92614827849735 C357.84613631722084 180.22137705906954, 360.08811271440374 178.40275552180844, 364.68104982169183 172.56022859356355 M356.8773268853705 181.7397268537762 C357.9570033226238 179.76449452381658, 359.28253102737864 177.6548608727563, 364.14777059477206 172.9738077551903" stroke="none" stroke-width="1" fill="none"></path><path d="M359.9155934755824 169.5395565553362 C361.22630450725694 169.55403645449752, 362.1114879552731 171.05993305192436, 362.97664165614304 171.7764316978844 C363.841795357013 172.49293034384442, 364.815428428256 172.77961967555083, 365.10651568080203 173.83854843109646 C365.3976029333481 174.89747718664208, 365.09328464091635 177.01506333582898, 364.7231651714194 178.13000423115807 C364.35304570192244 179.24494512648715, 363.9373751139251 179.82228869121172, 362.88579886382036 180.528193803071 C361.8342226137156 181.23409891493026, 359.77578385587424 182.4897385505962, 358.41370767079104 182.36543490231364 C357.05163148570784 182.24113125403107, 355.41022633579905 180.8685967463158, 354.71334175332123 179.78237191337564 C354.0164571708434 178.69614708043548, 354.19174438128414 177.23473559374514, 354.23240017592406 175.84808590467264 C354.273055970564 174.46143621560014, 354.1120095979136 172.53434046908507, 354.95727652116057 171.46247377894073 C355.80254344440755 170.3906070887964, 358.17641583784507 169.49591800711744, 359.30400171540595 169.41688576380656 C360.4315875929668 169.33785352049568, 361.6792773905483 170.81287615190075, 361.72279178652565 170.9882803190754 M358.409499061139 168.7325513849553 C359.6485642769062 168.48019414579576, 360.5940209292051 169.57567726191502, 361.8964926197342 170.22236914230382 C363.1989643102633 170.86906102269262, 365.35177598713346 171.65437231539678, 366.22432920431373 172.61270266728803 C367.096882421494 173.57103301917928, 367.6246348473197 174.614146813686, 367.1318119228158 175.97235125365134 C366.6389889983119 177.33055569361667, 364.2769488850221 179.68806583158224, 363.2673916572903 180.76192930708 C362.25783442955856 181.83579278257778, 362.29274992718376 182.23614786966473, 361.0744685564251 182.41553210663798 C359.8561871856664 182.59491634361123, 357.36215554464826 182.91171606910817, 355.957703432738 181.8382347289195 C354.55325132082777 180.76475338873084, 352.7652502411604 177.3791280360642, 352.64775588496366 175.97464406550606 C352.5302615287669 174.5701600949479, 354.1559648366955 174.5735605821397, 355.2527372955575 173.41133090557057 C356.3495097544195 172.24910122900144, 358.61928097396896 169.47205368428493, 359.2283906381357 169.0012660060913 C359.83750030230243 168.53047832789767, 359.15863112878066 170.06082241637927, 358.90739528055803 170.5866048364088" stroke="#000000" stroke-width="2" fill="none"></path></g><g><path d="M360.53538764680076 189.4536639884309 C360.11761071168974 191.3593839370295, 360.240402364158 195.14594517451795, 361.348073223159 205.43845928575752 M360.4556488908855 187.93896898982678 C359.14710097124043 193.07790258169504, 359.53352263919953 196.05228001819603, 360.54731051021895 205.42053803474292" stroke="#000000" stroke-width="2" fill="none"></path></g><g><path d="M359.07583996408823 205.35336122580821 C357.57857246999976 209.3599225111385, 353.92605348259906 212.2748555759537, 350.31534067848554 216.48940408275763 M360.66440847103655 206.71150236958812 C357.3261006425222 209.84192045636087, 353.85806108745015 213.25804643848778, 349.2447247603687 218.74816253796646" stroke="#000000" stroke-width="2" fill="none"></path></g><g><path d="M359.62420866684965 207.35756462445977 C363.3324585158779 209.04902827205356, 367.5908262153082 213.4346869440062, 371.3570908475612 217.8893717188534 M359.5148599297188 205.9666949327014 C362.2332488596799 209.81860561517234, 365.10180887676324 212.4683224056125, 369.28321403921865 217.72461576396915" stroke="#000000" stroke-width="2" fill="none"></path></g><g><path d="M361.48089849978146 194.92742272848062 C352.81367117703905 190.22142001106607, 344.11674761065683 188.75726070172104, 340.22791126632796 189.6040107320577 M359.3516558218966 193.07535074149115 C354.2638074623262 191.18537586911825, 347.609577568131 190.275532293493, 341.7250501867564 188.62093397197478" stroke="#000000" stroke-width="2" fill="none"></path></g><g><path d="M360.41782442485334 192.3405713067903 C367.06338145760685 190.19847371933662, 369.92126093614877 188.1752939946845, 379.8789511370837 187.15624591995535 M360.7421133709474 193.76948486061698 C366.71888693057514 191.7699212383733, 371.54873779456926 189.10182841162793, 377.92950643778 187.27984514401058" stroke="#000000" stroke-width="2" fill="none"></path></g><g><path d="M399.1618824878599 77.88409445876918 C400.1623822809922 67.29237997917251, 398.9373342007171 53.8714996560999, 400.3599134013215 38.011118841080375 M400.48436976351974 77.95600364047004 C400.30603402362846 62.86131211062307, 400.0111440798843 47.807528438141965, 399.4080706910731 38.174707311331986" stroke="#4A90D9" stroke-width="2" fill="none"></path></g><g><path d="M399.781245509768 37.891738659989606 C407.9842165361766 41.71915826256602, 418.52932644361533 42.061325142708576, 423.95390289265396 47.15330095341895 M399.9517292900752 37.24417400076145 C407.70575749034026 41.42410142712917, 416.4044826725472 43.063671142824, 424.95603363981655 46.15336255413302 M425.9365022221219 44.99161217322799 C419.434965001202 48.611929961719696, 410.97761538052407 51.39550306234246, 398.6951706973425 53.1708709797728 M425.3536511462949 45.81206174018459 C419.59661862931995 47.77199115638766, 415.1398791413627 48.6332474598891, 400.2314013580867 53.57980691786224" stroke="#4A90D9" stroke-width="1.6" fill="none"></path></g><g><path d="M319.9446996285196 127.74308089466817 C334.7640857177179 129.33617380907637, 350.9002642818161 127.03621449570626, 362.46744884373584 126.6884081905839 M319.52445799594636 129.25537701192266 C334.63749856712275 128.77713755711358, 347.7449555489812 127.80853815165926, 361.1922727991571 124.24759454372749" stroke="#aaa" stroke-width="0.8" fill="none"></path></g><g><path d="M420.5500417979834 119.51276935307068 C427.7870908714352 116.88574229901249, 435.9085222855469 117.43780871347981, 461.0768189703665 114.79413201453102 M419.43986297909765 119.07239595907762 C432.95304100195926 117.3960988722575, 448.5760373579803 117.03073071458678, 458.872048840243 115.66082643045286" stroke="#aaa" stroke-width="0.8" fill="none"></path></g><text x="400" y="560" text-anchor="middle" font-family="sans-serif" font-size="16" fill="#222" font-style="italic">"It is not the mountain we conquer, but ourselves."</text></svg>