<?xml version="1.0" encoding="UTF-8"?>
<svg width="800" height="600" viewBox="0 0 800 600" xmlns="http://www.w3.org/2000/svg"><rect width="800" height="600" fill="#FFFFFF"></rect><g><path d="M100.48366155144915 398.9188436350119 C256.60186268592815 399.85077198684394, 412.2189670834181 399.37394991882684, 699.0618634684915 398.9179051381847 M100.14680213558769 399.5593795575729 C289.5979360853742 396.4636940785863, 478.9731784619693 397.45724498668335, 699.7631415265533 399.5471028305314" stroke="#000000" stroke-width="2.2" fill="none"></path></g><g><path d="M401.16334461002225 401.12238371966924 C399.94746387315377 368.2830814493494, 400.0701149460657 336.98730612390136, 400.90077845336447 301.14724534515807 M399.90703204231295 399.47220694364904 C400.1788794631207 373.1751607660819, 400.4762556011021 345.74141189839673, 400.5231830620107 299.4745471584949" stroke="#000000" stroke-width="1.8" fill="none"></path></g><g><path d="M380.93106414943907 301.10273133693215 C394.0705370585825 299.94145795200865, 408.0572413413539 300.4103889158956, 420.5669563740232 301.08892736712454 M379.82786109972255 299.82243922244226 C393.3906144721265 299.63816210853525, 406.6549663231722 299.8091402780887, 420.47617876996884 299.61012497560364" stroke="#000000" stroke-width="1.4" fill="none"></path></g><g><path d="M191.87699983565187 316.52259949751414 C191.87699983565187 316.52259949751414, 191.87699983565187 316.52259949751414, 191.87699983565187 316.52259949751414 M191.87699983565187 316.52259949751414 C191.87699983565187 316.52259949751414, 191.87699983565187 316.52259949751414, 191.87699983565187 316.52259949751414 M192.7098501069418 328.5534526705262 C197.02647590761526 323.50116202559536, 198.90134730008177 319.1307225648717, 203.42886405321508 313.7034541454332 M191.9113095111622 327.86950627038505 C197.55871837627492 322.9000215626549, 200.9604933151464 316.7447500760551, 204.86035392414547 313.7037979470416 M200.176700475444 330.8336221732788 C203.48163482410123 328.8383180200176, 205.7959232406294 322.18415313624394, 209.84561319858753 319.65058158307954 M199.12668640189713 331.81519371690445 C202.15234874057347 330.0405288325759, 204.7825196761848 327.3219909819578, 209.70014340816292 320.9327821069177" stroke="none" stroke-width="1" fill="none"></path><path d="M203.85355344930818 312.59964107735965 C205.92298850866993 313.0896246868527, 207.61255450903667 314.7907121202971, 208.7095734157799 316.62072442832425 C209.8065923225231 318.4507367363514, 210.75133728422588 321.4285454193166, 210.4356668897675 323.5797149255225 C210.11999649530912 325.73088443172844, 208.47940149079477 328.13543032959024, 206.8155510490296 329.5277414655597 C205.15170060726444 330.92005260152916, 202.68831662981898 331.7951857505556, 200.45256423917644 331.93358174133937 C198.2168118485339 332.0719777321231, 195.01383325536187 331.61343359418436, 193.40103670517436 330.35811741026225 C191.78824015498685 329.10280122634015, 191.0175165581821 326.7217245154628, 190.7757849380513 324.40168463780657 C190.53405331792047 322.0816447601503, 191.08912337890632 318.3121450951719, 191.9506469843894 316.43787814432454 C192.8121705898725 314.5636111934772, 193.84102274420252 313.56554316000245, 195.94492657094978 313.15608293272254 C198.04883039769703 312.74662270544263, 202.75999671012124 313.7785610582997, 204.57406994487295 313.98111678064504 C206.38814317962465 314.18367250299036, 206.9027080907776 314.1955013305019, 206.8293659794599 314.37141726679454 M198.52242357188015 311.8030491329816 C200.56128869834762 311.7057501219583, 202.8049329097406 313.33796253674615, 204.53608250541518 314.2978342832839 C206.26723210108977 315.2577060298217, 208.1128981621759 315.64067931499073, 208.9093211459277 317.5622796122083 C209.7057441296795 319.4838799094258, 210.23537929525546 323.42790531041925, 209.31462040792601 325.82743606658903 C208.39386152059657 328.2269668227588, 205.46488337052537 330.9859092471994, 203.384767821951 331.95946414922696 C201.3046522733766 332.9330190512545, 198.46663895938295 332.129764106662, 196.8339271164797 331.6687654787544 C195.20121527357648 331.2077668508468, 194.92937347121637 331.1112225161646, 193.58849676453156 329.1934723817814 C192.24762005784675 327.2757222473982, 188.9698369969853 322.42820158814385, 188.78866687637077 320.1622646724553 C188.60749675575624 317.89632775676677, 190.7588284187634 316.73759794574335, 192.5014760408445 315.5978508876502 C194.2441236629256 314.4581038295571, 198.01624925632748 313.76430443098883, 199.2445526088574 313.3237823238964 C200.4728559613873 312.883260216804, 199.8584955111005 313.1896474057527, 199.8712961560239 312.9547182450957" stroke="#000000" stroke-width="2" fill="none"></path></g><g><path d="M200.42079740210585 342.9460282174555 C203.4636052629729 355.2302569742881, 202.63757422796837 366.41407739147076, 203.49680541583683 375.24013726644193 M200.63689736841064 341.119382838656 C202.16366332953942 349.22547175180625, 202.16443833571603 358.7582227474209, 205.14952874027068 374.20631165521877" stroke="#000000" stroke-width="2" fill="none"></path></g><g><path d="M203.8091625996529 376.0412196675618 C203.8943756192137 380.15685697874613, 199.2033423207864 389.7896697404425, 190.1211782883381 406.11482856033 M204.30040125490368 374.41347272898315 C201.91997160928204 382.9729961466693, 197.6511401570793 388.8226223450169, 189.1211824966856 405.05073297170765" stroke="#000000" stroke-width="2" fill="none"></path></g><g><path d="M203.24359777868287 373.38772894506246 C209.55387075729223 383.59443081529366, 212.68329394450112 393.7832105597936, 220.22376867906524 406.2807069940235 M205.80804713430672 375.6183605176705 C211.52780779055274 386.03306619392214, 216.77354792710352 398.7360277984706, 219.61563012563752 404.6796303515378" stroke="#000000" stroke-width="2" fill="none"></path></g><g><path d="M201.49850888795652 349.79990719889486 C209.4651108161095 359.06555454060367, 221.69961045817925 370.4639467235301, 236.16018975944766 381.4345424455155 M200.6778389802945 350.3210145317603 C211.7687133795688 359.2986489221808, 221.8612963719683 369.05508078777217, 234.34735324816123 380.29062652628977" stroke="#000000" stroke-width="2" fill="none"></path></g><g><path d="M230.4329275599633 385.8161042711153 C239.55232212548702 385.52977409054364, 245.7170071206536 390.6574252864969, 249.64480043487265 387.25922556223065 M230.4348527632731 385.2636809899898 C237.37190191142008 385.80947875303366, 245.46295528766254 387.66810832523146, 251.0111101989363 390.26175028225055" stroke="#CC3333" stroke-width="2.4" fill="none"></path></g><g><path d="M237.35939558308175 381.255987130223 C242.5507663494845 386.6638548192612, 243.27700599336717 391.4040996839171, 247.7509595015515 401.0376416884605 M240.4458486841681 379.44730318627535 C241.39006075750774 384.8854998379747, 241.44163548044276 387.12969514318274, 245.63930158286118 399.6633096483806" stroke="#CC3333" stroke-width="2" fill="none"></path></g><g><path d="M591.128155055559 304.5078125904593 C591.128155055559 304.5078125904593, 591.128155055559 304.5078125904593, 591.128155055559 304.5078125904593 M591.128155055559 304.5078125904593 C591.128155055559 304.5078125904593, 591.128155055559 304.5078125904593, 591.128155055559 304.5078125904593 M594.013739564249 316.5928401309485 C595.0263910862546 312.88742910365534, 597.9497248871936 306.7393665092623, 604.6595350356288 301.02457849105366 M593.4165624071697 315.4149716200332 C595.4805266221888 312.45051257339577, 598.1641160601719 307.6194579538254, 606.2982047352048 299.6142276857291 M599.7191130005972 320.3706136393886 C601.1007003246042 315.7055412668429, 602.9761290384002 313.0652297928624, 608.92938118672 309.16500017653834 M599.638199026429 319.2826257923075 C602.1540863196192 315.3916904490239, 605.6943669847449 311.930286799749, 609.2690189496429 307.78571237503223" stroke="none" stroke-width="1" fill="none"></path><path d="M604.9498506621413 299.9491458604907 C606.8625353849648 300.77480627288213, 608.0606460391773 304.7395492028479, 608.9044711529438 306.69690580982666 C609.7482962667102 308.6542624168054, 610.4342943084494 309.815792120855, 610.0128013447397 311.69328550236315 C609.5913083810301 313.5707788838713, 608.1122627167088 316.5738909689073, 606.3755133706863 317.9618660988756 C604.6387640246639 319.3498412288439, 601.6767992881688 320.2536741996693, 599.5923052686054 320.021136282173 C597.507811249042 319.7885983646767, 595.5706360781601 318.1802673841373, 593.8685492533057 316.5666385938977 C592.1664624284513 314.9530098036581, 589.8724133119692 312.3078735299363, 589.379784319479 310.33936354073523 C588.8871553269887 308.3708535515342, 589.6725969631686 306.32585814559985, 590.912775298364 304.7555786586913 C592.1529536335593 303.1852991717828, 594.3411974171544 301.3587945029315, 596.8208543306507 300.91768661928415 C599.3005112441471 300.4765787356368, 603.9719941488379 301.8567203459121, 605.7907167793418 302.10893135680726 C607.6094394098457 302.3611423677024, 607.6699894505466 302.2078900241891, 607.7331901136741 302.430952684655 M601.8936047946366 299.9805454469683 C603.6734887152802 300.61551638284834, 607.0625354522116 303.50845073049544, 608.1525150678577 305.24821496232806 C609.2424946835039 306.9879791941607, 608.795762202067 308.50063977388584, 608.4334824885133 310.41913083796396 C608.0712027749596 312.3376219020421, 607.1191440726195 314.98951127603067, 605.9788367865355 316.7591613467968 C604.8385295004514 318.52881141756296, 603.81884320077 320.8109676895715, 601.5916387720089 321.03703126256073 C599.3644343432478 321.26309483554996, 594.5748802455885 319.82067527311966, 592.6156102139688 318.1155427847323 C590.6563401823491 316.410410296345, 589.9433402571537 313.01904171079235, 589.8360185822911 310.80623633223684 C589.7286969074285 308.5934309536813, 590.7169049771468 306.59626342672885, 591.9716801647928 304.8387105133993 C593.2264553524388 303.08115760006973, 595.3451013455083 301.16287258890867, 597.3646697081674 300.26091885225946 C599.3842380708265 299.35896511561026, 603.2247569828553 299.257383721416, 604.0890903407472 299.426988093504 C604.9534236986392 299.59659246559204, 602.9679832647768 300.9848287665377, 602.550669855519 301.27854508478777" stroke="#000000" stroke-width="2" fill="none"></path></g><g><path d="M600.7524395447647 329.4674325992529 C598.2982356480302 340.72228254134416, 599.7413669717414 348.28607999754036, 600.7258401791357 364.98402655721304 M599.2606354124541 330.46993185225574 C600.9362480828 340.4813257137665, 599.2923033874891 350.9979362154662, 599.8280619692938 365.88963388166127" stroke="#000000" stroke-width="2" fill="none"></path></g><g><path d="M600.8935856706294 363.0342651535597 C597.2214257117838 373.7214651163515, 594.6853868563394 381.5732526080412, 586.1889308266741 395.95758865731835 M600.2298989458073 364.4847710376666 C596.2592723375121 376.6706102501406, 591.2037901591434 386.6344297522679, 587.6625088596676 395.86394028989207" stroke="#000000" stroke-width="2" fill="none"></path></g><g><path d="M601.4597077665442 365.0685505211985 C603.2634867121162 374.2613480860264, 607.3647203736806 382.98363924124016, 612.0869811966116 395.7601812477933 M600.7732792641457 365.61060037840593 C604.7874773393196 375.39850628175134, 608.9295221435499 385.4996059078855, 611.5357546820829 395.4653354902428" stroke="#000000" stroke-width="2" fill="none"></path></g><g><path d="M601.0047393525464 340.87772630284644 C610.9528180559338 324.63210468145354, 623.212512025003 309.4696405215074, 629.1007817635392 300.93968949931235 M600.7165354141174 339.496422106347 C610.7972562416995 324.25311316194563, 622.9843817128735 310.2645338965242, 630.6606993156677 299.2180903123921" stroke="#000000" stroke-width="2" fill="none"></path></g><g><path d="M630.3488547606959 300.0482275697704 C632.5789217271982 293.28787074602684, 633.1498423769484 289.28913768621584, 636.356173291709 284.49913645479097 M629.8137021596916 300.6036261034685 C630.9522374170707 295.6832724890949, 632.164777040546 292.7544211117244, 635.1796805194919 285.4982669290991" stroke="#000000" stroke-width="1.6" fill="none"></path></g><g><path d="M633.8597691420816 271.4281493538675 C633.8597691420816 271.4281493538675, 633.8597691420816 271.4281493538675, 633.8597691420816 271.4281493538675 M633.8597691420816 271.4281493538675 C633.8597691420816 271.4281493538675, 633.8597691420816 271.4281493538675, 633.8597691420816 271.4281493538675 M634.7865741241153 279.4033682927559 C636.4650603327326 277.3484001248219, 638.5274271050498 275.8512397526651, 639.4881681036375 273.87262888801445 M634.9787095172135 279.19322958122075 C636.400135815842 277.6246466997258, 637.8979381821426 276.1652895444401, 639.5177589758949 273.89003233141955" stroke="none" stroke-width="0.7" fill="none"></path><path d="M635.9416779825643 271.30995062459544 C636.8418047783487 271.34730269969424, 638.1242903582167 271.8608596965692, 638.8122602208209 272.35118088152956 C639.5002300834251 272.8415020664899, 640.0631710600093 273.47568364971573, 640.069497158189 274.25187773435744 C640.0758232563688 275.02807181899914, 639.4444439200889 276.2823716786393, 638.8502168098996 277.0083453893796 C638.2559896997103 277.7343191001199, 637.3330381165954 278.3134761874895, 636.504134497053 278.60771999879915 C635.6752308775106 278.9019638101088, 634.6419644666441 279.17525789053053, 633.8767950926449 278.7738082572372 C633.1116257186457 278.37235862394385, 632.1060565676032 277.0874760071556, 631.9131182530572 276.1990221990392 C631.7201799385111 275.31056839092275, 632.4075256438949 274.2235035749229, 632.7191652053684 273.44308540853865 C633.0308047668419 272.6626672421544, 633.0892257825734 271.9464795151639, 633.7829556218984 271.5165132007337 C634.4766854612234 271.0865468863035, 636.3545956252094 271.02516750916345, 636.8815442413182 270.86328752195755 C637.4084928574271 270.70140753475164, 637.0581419006326 270.4344170154923, 636.9446473185512 270.54523327749826 M635.3909861476584 270.073344418741 C636.1486635458219 269.9682662728669, 637.4646827052286 270.7261307705211, 638.1899099997959 271.543912778111 C638.9151372943631 272.36169478570093, 639.6536430932947 274.09123909924, 639.742349915062 274.98003646428054 C639.8310567368294 275.8688338293211, 639.0234015744911 276.26840440317545, 638.7221509304 276.87669696835417 C638.4209002863088 277.4849895335329, 638.5561500280876 278.39671826029195, 637.9348460505153 278.6297918553528 C637.3135420729429 278.8628654504136, 635.976018995529 278.577385540617, 634.9943270649658 278.27513853871926 C634.0126351344026 277.9728915368215, 632.5971921160365 277.61999618815304, 632.0446944671362 276.81630984396617 C631.4921968182359 276.0126234997793, 631.279115003367 274.1763851426431, 631.6793411715641 273.45302047359803 C632.0795673397613 272.729655804553, 633.6937103550985 272.82532844678906, 634.446051476319 272.4761218296958 C635.1983925975395 272.1269152126025, 635.9569237502658 271.66841495291953, 636.1933878988874 271.3577807710382 C636.429852047509 271.0471465891569, 635.7994239164701 270.58296631014076, 635.8648363680488 270.61231673840797" stroke="#000000" stroke-width="1.4" fill="none"></path></g><g><path d="M298.77898431713396 361.31805566649507 C354.6277840504841 358.48213748107605, 407.92639683509714 354.9578846521816, 480.72597308202114 351.52638038603095 M299.8737053564143 359.37073360253197 C358.5360413085586 356.65471817678286, 418.5817734077827 353.7591398905511, 480.25643050094703 349.4451008881346" stroke="#999" stroke-width="1.2" fill="none"></path></g><g><path d="M469.85901774565525 345.3810196865786 C472.95710368321096 346.8679028856982, 475.2212030595034 347.8206916624347, 479.6559019303082 349.9223728710724 M469.71302302130175 344.75459134608286 C472.25947325762155 346.1899634628804, 474.04812969157075 347.06111261691314, 480.27475127189047 349.7715569258273" stroke="#999" stroke-width="1.2" fill="none"></path></g><g><path d="M470.2324419774153 355.28939719477444 C473.0315258626953 353.23803837551094, 476.9603636088478 350.99241432216877, 479.7117272810239 349.4237458858141 M469.7127024121343 355.28628193567675 C473.26175747651143 353.3079617511344, 476.1689704362347 351.6739860310232, 479.81068362380034 350.11980807872226" stroke="#999" stroke-width="1.2" fill="none"></path></g><text x="400" y="560" text-anchor="middle" font-family="sans-serif" font-size="16" fill="#222" font-style="italic">"Anger is energy, not instruction."</text></svg>