<?xml version="1.0" encoding="UTF-8"?>
<svg width="800" height="600" viewBox="0 0 800 600" xmlns="http://www.w3.org/2000/svg"><rect width="800" height="600" fill="#FFFFFF"></rect><g><path d="M119.49921885439639 230.75124371741774 C142.1855873917382 230.9444602239096, 161.92066537080274 230.09885839638224, 190.75053124780788 230.71376590201652 M120.51292810207714 230.30254739572078 C137.07213686932542 228.56006518510102, 155.53720799253855 229.5393733729113, 189.2287944893826 230.04562946000604 M190.7582926964471 229.99340458036716 C189.09361472470343 241.00290036207684, 191.36778517050774 249.43347302472094, 188.5139859597894 264.66651270742597 M190.3611169936437 229.60182651799687 C190.75165192792159 241.256546685728, 190.91122360824585 254.53305628195946, 189.301648689711 265.270989374609 M188.73069816633773 264.3872336415728 C164.65620690668175 264.9662281188814, 135.8607527600044 265.5486699150687, 120.35897545470253 264.28252862096 M190.0570643299738 264.71000673902773 C164.00122043627698 266.0279722743705, 136.0132916637394 265.811911566043, 119.01358394023731 264.74057143467803 M118.43939556839804 266.83728932563884 C119.42498147270476 254.21813951149545, 118.43378213453975 242.62944541709984, 120.50750699032851 230.39758731692203 M119.04927911018561 264.2424958825691 C120.663630157208 256.47764669348766, 119.87965376120825 250.372707542048, 119.93290944548357 229.5279300730052" stroke="undefined" stroke-width="2" fill="none"></path></g><g><path d="M130.58929995039273 265.8960407826949 C130.58929995039273 265.8960407826949, 130.58929995039273 265.8960407826949, 130.58929995039273 265.8960407826949 M130.58929995039273 265.8960407826949 C130.58929995039273 265.8960407826949, 130.58929995039273 265.8960407826949, 130.58929995039273 265.8960407826949 M132.77109299514265 272.0324570414746 C133.24276374406077 268.9140845599993, 135.81705731707606 267.27704497736136, 137.52425775785468 265.0344664233888 M132.08423372666067 271.12896198480814 C133.72645639909064 269.6333247381465, 135.46885206541583 267.91256591574916, 137.62905820740858 265.1262094834694" stroke="none" stroke-width="0.6" fill="none"></path><path d="M136.75288433319295 264.5077286215126 C137.72939761352458 265.00383688651937, 138.66638235235533 266.1864658660019, 139.1497934832358 266.7712616190631 C139.6332046141163 267.3560573721243, 139.88181782611622 267.2152407428636, 139.65335111847585 268.0165031398799 C139.4248844108355 268.81776553689616, 138.60542136170676 270.8781292844962, 137.77899323739362 271.57883600116077 C136.95256511308048 272.27954271782534, 135.57256182721432 272.12555610625236, 134.69478237259705 272.22074343986725 C133.81700291797978 272.31593077348214, 133.2523697995044 272.6779595420444, 132.51231650968995 272.1499600028502 C131.7722632198755 271.621960463656, 130.62899938225144 270.03290708125957, 130.25446263371038 269.0527462047022 C129.8799258851693 268.07258532814484, 129.75819488674446 267.09172001375583, 130.26509601844356 266.2689947435061 C130.77199715014265 265.44626947325634, 132.19277204777694 264.3934814218163, 133.29586942390492 264.1163945832038 C134.3989668000329 263.83930774459134, 136.11120534879169 264.6358857096943, 136.8836802752114 264.60647371183103 C137.6561552016311 264.57706171396774, 137.83697928321212 264.0925894397829, 137.9307189824232 263.9399225960242 M133.51325949797226 263.6569079727335 C134.18470608952464 263.31763468913357, 135.45232329446412 262.8596387548557, 136.08467712310897 263.30570011140384 C136.71703095175383 263.75176146795195, 136.5328766185128 265.73884321723426, 137.30738246984143 266.33327611202236 C138.08188832117006 266.92770900681046, 140.6652645212924 266.15582164715704, 140.7317122310808 266.8722974801325 C140.79815994086917 267.58877331310794, 138.58735172550035 269.746929299161, 137.70606872857167 270.63213110987505 C136.82478573164298 271.51733292058907, 136.25508857696016 271.86771759375716, 135.44401424950863 272.18350834441645 C134.6329399220571 272.49929909507574, 133.78511353612348 272.88879556605144, 132.83962276386245 272.5268756138307 C131.89413199160143 272.16495566161, 130.0453376086886 271.04834485586593, 129.77106961594242 270.0119886310921 C129.49680162319623 268.97563240631825, 130.66228495003585 267.44814583408777, 131.19401480738537 266.30873826518774 C131.7257446647349 265.1693306962877, 132.46639731853062 263.39020949232304, 132.9614487600395 263.1755432176921 C133.45650020154838 262.9608769430612, 134.00975458331274 264.79334153816336, 134.16432345643864 265.020740617402" stroke="undefined" stroke-width="1.2" fill="none"></path></g><g><path d="M173.46053999462833 263.4130513864206 C173.46053999462833 263.4130513864206, 173.46053999462833 263.4130513864206, 173.46053999462833 263.4130513864206 M173.46053999462833 263.4130513864206 C173.46053999462833 263.4130513864206, 173.46053999462833 263.4130513864206, 173.46053999462833 263.4130513864206 M171.87396018666436 272.1617922824302 C173.59004332462982 270.0269590059533, 175.68608028793633 267.5791105341308, 177.78874525897467 265.1492840273476 M172.48074465158015 271.8785605882611 C173.85213154192746 270.50537781316336, 175.2999379597809 269.132729674574, 177.85797352731342 266.23252828659474" stroke="none" stroke-width="0.6" fill="none"></path><path d="M173.13856701226047 263.7834389333153 C173.86800674085825 263.6541839177836, 174.95141457517076 263.91097811179026, 175.9945621868735 264.310430853865 C177.03770979857626 264.70988359593974, 178.78024746389735 265.5586617991913, 179.39745268247694 266.1801553857637 C180.01465790105652 266.8016489723361, 179.80851392958428 267.0246080235149, 179.69779349835105 268.0393923732993 C179.5870730671178 269.0541767230837, 179.39557488983775 271.4750831199158, 178.73313009507754 272.26886148447016 C178.07068530031734 273.06263984902455, 176.81354664786966 272.91469501638414, 175.72312472978987 272.8020625606254 C174.6327028117101 272.6894301048667, 172.94199555332858 272.13605856660007, 172.19059858659878 271.5930667499177 C171.43920161986898 271.0500749332353, 171.31413962503407 270.469686442286, 171.2147429294111 269.5441116605312 C171.11534623378813 268.6185368787764, 171.20530207901015 267.08000856633964, 171.59421841286095 266.03961805938883 C171.98313474671176 264.999227552438, 173.23554346458351 263.6487412387792, 173.54824093251582 263.3017686188262 C173.86093840044813 262.9547959988732, 173.31218259565046 263.8259151360181, 173.47040322045478 263.9577823396707 M175.90472898513028 263.039342359284 C177.1296051087059 263.25066730596177, 179.04195771553296 263.9496845651832, 179.58793594554183 264.6114568109323 C180.1339141755507 265.2732290566814, 179.4342933687043 266.0617686512921, 179.18059836518344 267.00997583377864 C178.9269033616626 267.9581830162652, 178.73516911108106 269.3943804617835, 178.06576592441675 270.30069990585173 C177.39636273775244 271.20701934991996, 175.98333258925427 272.1066253614821, 175.16417924519763 272.44789249818785 C174.34502590114099 272.7891596348936, 174.11482824414264 272.5477193426628, 173.15084586007694 272.34830272608644 C172.18686347601124 272.1488861095101, 169.725331961373 271.97349850754017, 169.3802849408035 271.2513927987299 C169.035237920234 270.52928708991965, 170.34182686995163 269.009233514252, 171.08056373665994 268.01566847322505 C171.81930060336825 267.0221034321981, 173.1601929771471 266.0030077035285, 173.81270614105333 265.2900025525683 C174.46521930495956 264.5769974016081, 174.6774727652393 263.8735345711582, 174.9956427200974 263.7376375674638 C175.31381267495553 263.60174056376945, 175.5488675968639 264.28961689742937, 175.721725870202 264.47462053040204" stroke="undefined" stroke-width="1.2" fill="none"></path></g><g><path d="M241.34245582613292 228.7986113050959 C254.09763466962045 228.96353025389354, 269.32580199487364 229.5702844429908, 308.62440668645354 229.51218949994885 M239.32138392608985 230.41748651608444 C262.71950101776787 229.89365326126156, 284.28263586762444 229.7745019140662, 310.7545266759065 229.2167235200854 M310.65636251464855 228.7199477998268 C311.5986125174488 240.66898251948942, 308.780138013069 248.86267285967017, 309.8053793029946 266.76970770304774 M310.6797983791767 229.279375081525 C309.8960533121142 237.7462767273585, 310.05213473635905 245.12615727662444, 310.7817958815262 264.69428894729674 M308.175421592439 263.81563792872754 C286.4905361395722 265.5278351318381, 263.969254893641 264.20849760948977, 239.28982167312782 264.95058563030807 M310.70865612556054 264.00506077233115 C285.4214875991858 263.62975706306304, 261.08127216022245 265.1573529317411, 240.34321237429663 264.3987072202834 M240.7411663886385 266.70230322547263 C240.5550212890731 255.37495641605673, 238.53175182972637 244.72742759909613, 238.1033626281028 231.93914464156765 M239.01715332590044 265.9877567055867 C240.66845576173276 253.50601238439327, 239.38053240806647 243.2169266568063, 239.5478306411931 229.3359241091013" stroke="undefined" stroke-width="2" fill="none"></path></g><g><path d="M251.2185549385551 264.75641286865147 C251.2185549385551 264.75641286865147, 251.2185549385551 264.75641286865147, 251.2185549385551 264.75641286865147 M251.2185549385551 264.75641286865147 C251.2185549385551 264.75641286865147, 251.2185549385551 264.75641286865147, 251.2185549385551 264.75641286865147 M252.77214416269666 270.92160356900587 C253.45481047747884 269.331286347615, 255.50959585697828 268.4887046049468, 258.90053377933793 264.8504287128634 M252.66736900476172 270.49528126904573 C254.46943358191086 268.41814769717655, 255.66878617811602 267.2600391549863, 258.36084461583744 264.3905362174912" stroke="none" stroke-width="0.6" fill="none"></path><path d="M254.22018911183375 263.5096625179042 C255.09913485561708 262.82353638393283, 256.38751997940585 262.5020861450608, 257.0927939202186 262.84331887455517 C257.7980678610313 263.18455160404955, 258.15539380908336 264.7283034536009, 258.45183275671013 265.55705889487047 C258.7482717043369 266.38581433614, 259.0847455496602 267.0162624906846, 258.8714276059791 267.81585152217264 C258.65810966229793 268.6154405536607, 257.8447354871808 269.7038341035091, 257.17192509462325 270.35459308379865 C256.4991147020657 271.0053520640882, 255.55227790268813 271.62733649605354, 254.83456525063377 271.7204054039098 C254.1168525985794 271.8134743117661, 253.41510913105952 271.43011280055134, 252.8656491822971 270.91300653093606 C252.31618923353466 270.3959002613208, 251.84572863021265 269.605435952825, 251.5378055580591 268.6177677862181 C251.22988248590553 267.6300996196112, 250.50089304317905 265.8558753425927, 251.01811074937578 264.98699753129443 C251.5353284555725 264.1181197199962, 253.94962367120368 263.61629914519375, 254.64111179523945 263.4045009184284 C255.33259991927522 263.1927026916631, 255.42182708705207 263.74236017308067, 255.16703949359044 263.7162081707026 M255.4875939116355 263.5915721739316 C256.2908935199465 263.94399962573743, 258.35636048727713 265.3428155394395, 258.88899045016757 266.35531427946677 C259.421620413058 267.367813019494, 259.0505927356289 268.6694995213417, 258.68337368897824 269.666564614095 C258.31615464232755 270.6636297068483, 257.44895516178485 271.9252020403945, 256.6856761702635 272.33770483598653 C255.92239717874213 272.7502076315786, 254.83644758100678 272.27829743306245, 254.1036997398501 272.14158138764736 C253.37095189869342 272.0048653422323, 252.9368562507595 272.10858021412986, 252.28918912332344 271.5174085634959 C251.6415219958874 270.92623691286195, 250.5521391814293 269.62657642476506, 250.21769697523385 268.59455148384353 C249.8832547690384 267.562526542922, 249.8272737268338 266.2825201802593, 250.28253588615075 265.3252589179667 C250.7377980454677 264.3679976556741, 252.22558733453826 263.2349440665717, 252.9492699311356 262.85098391008773 C253.67295252773295 262.46702375360377, 253.96951436646322 262.6350021315793, 254.6246314657349 263.02149797906293 C255.27974856500657 263.40799382654654, 256.7941495507987 264.85745677265135, 256.87997252676575 265.1699589949895" stroke="undefined" stroke-width="1.2" fill="none"></path></g><g><path d="M291.9715315435633 264.4070841375021 C291.9715315435633 264.4070841375021, 291.9715315435633 264.4070841375021, 291.9715315435633 264.4070841375021 M291.9715315435633 264.4070841375021 C291.9715315435633 264.4070841375021, 291.9715315435633 264.4070841375021, 291.9715315435633 264.4070841375021 M293.222624922626 270.36926412357707 C294.3725283850947 268.92341237407896, 297.1710757105042 265.8216222543909, 298.834120132891 264.51946953986766 M293.0460994899708 270.87048075326635 C294.38108123402526 268.83546533677327, 295.68709337797685 267.89442835923546, 298.0415361835426 264.72988971963224" stroke="none" stroke-width="0.6" fill="none"></path><path d="M292.26435853668755 264.0702252158305 C293.1105192695753 263.7748393721067, 295.8097832634028 263.46900624197644, 296.96582748389 263.82643631744986 C298.1218717043772 264.1838663929233, 298.76782776703914 265.52947221419294, 299.2006238596109 266.21480566867115 C299.6334199521827 266.90013912314936, 299.6007284062279 267.0757101171926, 299.5626040393207 267.93843704431924 C299.5244796724135 268.8011639714459, 299.5373378020607 270.50535779212805, 298.9718776581677 271.3911672314309 C298.4064175142748 272.2769766707338, 297.1359444639804 273.2997019551644, 296.169843175963 273.25329368013655 C295.2037418879456 273.2068854051087, 293.9175104970766 271.8022785071208, 293.17526993006345 271.112717581264 C292.4330293630503 270.42315665540724, 292.14673376153945 269.9557433355711, 291.71639977388423 269.1159281249959 C291.286065786229 268.27611291442065, 290.2437157440141 267.1328150601597, 290.5932660041322 266.0738263178125 C290.9428162642503 265.0148375754653, 293.2168288525151 263.18758683588385, 293.8137013345931 262.76199567091277 C294.41057381667105 262.3364045059417, 294.3759852294035 263.26676408657494, 294.1745008966001 263.52027932798603 M295.62287413777847 264.39440461775126 C296.5373170100305 264.20335096859856, 297.8937496710543 264.11622822117835, 298.62660273740505 264.39231590638923 C299.3594558037558 264.6684035916001, 299.8826157707488 265.30315253333697, 300.019992535883 266.0509307290165 C300.1573693010171 266.79870892469603, 299.9873636783552 267.72057523827556, 299.4508633282099 268.8789850804665 C298.91436297806456 270.0373949226575, 297.8277715569355 272.51225780666186, 296.80099043501116 273.0013897821624 C295.7742093130868 273.4905217576629, 294.15120355367236 272.4393985000397, 293.290176596664 271.8137769334695 C292.4291496396557 271.1881553668993, 291.8908696510541 270.0253490814536, 291.63482869296115 269.24766038274106 C291.3787877348682 268.4699716840285, 291.5978206669696 267.701659402927, 291.75393084810605 267.1476447411941 C291.9100410292425 266.59363007946115, 292.28770411996095 266.34464505171275, 292.57148977978 265.92357241234333 C292.85527543959904 265.5024997729739, 293.2566076226386 265.25889008485717, 293.4566448070205 264.62120890497744 C293.65668199140237 263.9835277250977, 293.80669877081687 262.02563412007845, 293.77171288607104 262.0974853330651" stroke="undefined" stroke-width="1.2" fill="none"></path></g><g><path d="M207.36157863581337 213.38199507446944 C207.36157863581337 213.38199507446944, 207.36157863581337 213.38199507446944, 207.36157863581337 213.38199507446944 M207.36157863581337 213.38199507446944 C207.36157863581337 213.38199507446944, 207.36157863581337 213.38199507446944, 207.36157863581337 213.38199507446944 M205.22095775935162 223.79089452707444 C207.0975771727357 222.1328094689093, 210.06295577589162 219.8058962094672, 215.4231167591685 214.55107943484686 M205.0382733397306 225.4223481667053 C207.35197819108618 222.42346200935498, 209.71439258250163 221.17369582226135, 214.6430606041438 213.63612016690368 M211.60791689163733 227.30165946696258 C213.08877068244774 224.02005589981317, 215.19955449397293 221.39386141434758, 217.61224025614 219.60107139100197 M211.90054741850483 226.9716338863043 C213.3827013718539 224.04382278890512, 215.6312025218465 221.71842239491636, 218.01404824402164 219.24964517872246" stroke="none" stroke-width="0.75" fill="none"></path><path d="M207.3818564759493 213.35866808781046 C208.90384992139573 212.8919156703537, 211.90551661663733 213.01755641601574, 213.57463639245736 213.4816659870171 C215.2437561682774 213.94577555801845, 216.621427042701 214.83109053517921, 217.39657513086956 216.14332551381864 C218.17172321903814 217.45556049245806, 218.761238510001 219.87193722996722, 218.2255249214689 221.3550758588536 C217.68981133293678 222.83821448774, 215.6163619022319 224.18605984398798, 214.18229359967694 225.04215728713706 C212.748225297122 225.89825473028614, 211.03613580228313 226.42036246753673, 209.62111510613926 226.49166051774813 C208.2060944099954 226.56295856795953, 206.90083499227757 226.21484525604808, 205.6921694228138 225.46994558840547 C204.48350385335004 224.72504592076285, 202.6073952205968 223.43884944879068, 202.36912168935663 222.02226251189242 C202.13084815811646 220.60567557499417, 203.35871282940695 218.47650491926228, 204.26252823537274 216.97042396701593 C205.16634364133853 215.46434301476958, 207.299206459911 213.61674795745935, 207.7920141251513 212.9857767984143 C208.2848217903916 212.35480563936923, 207.01903652623903 212.91312060744696, 207.21937422681452 213.18459701274557 M213.54698829541277 214.45674816844888 C215.0732187835977 215.2221298538627, 216.89986051543613 217.2057500674741, 217.51664559544272 218.26887032158214 C218.13343067544932 219.33199057569018, 217.5604478818972 219.78967036018594, 217.2476987754523 220.83546969309708 C216.9349496690074 221.88126902600823, 216.98566790490221 223.4249117513365, 215.64015095677337 224.5436663190491 C214.29463400864452 225.66242088676168, 210.9525729537925 227.65087211185826, 209.17459708667926 227.54799709937254 C207.39662121956601 227.4451220868868, 206.38619474503187 225.17191442709483, 204.97229575409392 223.92641624413474 C203.55839676315597 222.68091806117465, 201.09745310926138 221.26007940198423, 200.6912031410515 220.07500800161202 C200.2849531728416 218.8899366012398, 201.08260636745916 218.2225917775432, 202.53479594483466 216.81598784190152 C203.98698552221015 215.40938390625985, 207.45722904470736 212.2268940395146, 209.4043406053044 211.63538438776195 C211.35145216590146 211.0438747360093, 213.51324976952301 212.956910946155, 214.21746530841696 213.26692993138565 C214.9216808473109 213.5769489166163, 213.6538097509186 213.19281813643653, 213.6296338386681 213.49549829914582" stroke="#000000" stroke-width="1.5" fill="none"></path></g><g><path d="M476.03060881476813 229.6302889617773 C476.03060881476813 229.6302889617773, 476.03060881476813 229.6302889617773, 476.03060881476813 229.6302889617773 M476.03060881476813 229.6302889617773 C476.03060881476813 229.6302889617773, 476.03060881476813 229.6302889617773, 476.03060881476813 229.6302889617773 M475.4874471957327 238.48764811734065 C478.1752153464748 235.9523245447642, 479.8297305313397 233.3861952872527, 483.79887607060107 229.43197772265543 M475.6092424530131 239.22673203686992 C477.8783458880087 236.5563679359108, 479.9819700315964 234.77963072538148, 483.67766188968045 229.852248995109 M479.8470575484946 242.6719254901058 C482.0746573993954 240.50240524267952, 486.291545885185 237.6892477229212, 486.6402979280149 235.41086756888168 M480.4274258865329 242.90819441557332 C482.8302736446844 239.5893779564376, 485.94006231187007 236.91279030420046, 487.30826964133723 234.7597709802579" stroke="none" stroke-width="0.75" fill="none"></path><path d="M482.3707400466533 228.9951053195666 C483.8610050900919 229.098956953665, 484.13968375645493 229.00143410898175, 485.0045145491045 230.12477595752011 C485.86934534175407 231.24811780605847, 487.44787939303126 234.19657544654916, 487.5597248025509 235.73515641079675 C487.6715702120705 237.27373737504433, 486.91559914028255 238.20385045803474, 485.67558700622214 239.35626174300558 C484.43557487216174 240.5086730279764, 481.6113932073767 242.54687141306005, 480.1196519981886 242.6496241206218 C478.6279107890005 242.75237682818357, 477.79727245692794 240.8805756348739, 476.7251397510935 239.97277798837615 C475.653007045259 239.0649803418784, 474.1468480449331 238.47485353987082, 473.6868557631817 237.20283824163525 C473.2268634814303 235.93082294339968, 473.5489841800227 233.6321999958852, 473.9651860605852 232.34068619896263 C474.3813879411477 231.04917240204006, 474.84894087445036 230.14187839279413, 476.18406704655666 229.45375546009979 C477.51919321866296 228.76563252740544, 480.70372732070683 228.22362939444483, 481.9759430932232 228.21194860279658 C483.2481588657395 228.20026781114834, 483.7355177739692 229.1759128410428, 483.81736168165475 229.38367071021034 M483.1514704731255 228.78817641458343 C484.2406516066371 229.309724681411, 485.31393162762913 231.8672714357431, 486.1713862102498 233.28499258810066 C487.0288407928705 234.70271374045822, 488.45695368497405 236.2596862285693, 488.2961979688495 237.29450332872875 C488.135442252725 238.3293204288882, 486.5269990958569 238.6180789718876, 485.20685191350265 239.49389518905738 C483.88670473114837 240.36971140622717, 482.24806867856165 242.43922228564935, 480.3753148747237 242.54940063174755 C478.50256107088575 242.65957897784574, 475.3030292792044 241.5898058425343, 473.9703290904749 240.1549652656466 C472.63762890174536 238.72012468875891, 472.13075864830563 235.66520320996602, 472.37911374234665 233.9403571704214 C472.62746883638766 232.2155111308768, 474.6062739076675 230.65924129136215, 475.46045965472103 229.805889028379 C476.31464540177456 228.95253676539585, 476.0344071906813 229.0339449489994, 477.50422822466766 228.82024359252253 C478.974049258654 228.60654223604567, 483.13057386223977 228.67112191977725, 484.27938585863916 228.5236808895179 C485.42819785503855 228.37623985925853, 484.5084076128288 227.78624597063737, 484.39710020306404 227.9355974109663" stroke="#000000" stroke-width="1.5" fill="none"></path></g><g><path d="M481.9780198651444 247.55482145343404 C479.1069928616215 260.11575698906427, 479.5268513282207 271.35775643984044, 481.3439730282567 279.4373180658021 M480.56094270706313 249.90280479790502 C480.06501699481566 256.34794950779303, 480.5925862396875 265.43420542901276, 480.5455294210824 280.55123522963316" stroke="#000000" stroke-width="1.5" fill="none"></path></g><g><path d="M508.0379612872863 204.4533362447943 C508.0379612872863 204.4533362447943, 508.0379612872863 204.4533362447943, 508.0379612872863 204.4533362447943 M508.0379612872863 204.4533362447943 C508.0379612872863 204.4533362447943, 508.0379612872863 204.4533362447943, 508.0379612872863 204.4533362447943 M505.2722450794563 212.4926191615611 C507.52350291995947 210.63103173537593, 511.48127649946 208.19509175094035, 513.0312720711421 204.3682541480178 M506.14770719468146 212.63337342989314 C508.285308083631 210.64023791463052, 510.1227254770698 208.19385726808764, 514.1574608071212 204.49355482104806 M508.8495882716032 215.0850673864893 C510.1228814275953 214.6576850110651, 512.9817071509018 212.095592270661, 515.9246587595898 206.79333720549778 M509.0096052212237 215.75843898358033 C511.5929685785781 211.9885868178039, 513.9624747436022 209.22480384861527, 516.5726111849262 207.14392197641405" stroke="none" stroke-width="0.5" fill="none"></path><path d="M508.04786082104573 204.44194813391115 C509.4355985014097 203.83252000835327, 511.7336793591679 203.41759972702576, 512.9975697605732 203.90744375589637 C514.2614601619786 204.39728778476697, 515.1993797529173 206.2361552825064, 515.6312032294775 207.38101230713485 C516.0630267060377 208.52586933176332, 515.9341145371569 209.36100793859129, 515.5885106199347 210.77658590366715 C515.2429067027125 212.19216386874302, 514.435693772225 214.9886646527637, 513.5575797261441 215.8744800975901 C512.6794656800632 216.7602955424165, 511.5643078960254 216.4590616143148, 510.31982634344945 216.09147857262545 C509.0753447908735 215.7238955309361, 507.1069270112809 214.40809617199648, 506.09069041068847 213.668981847454 C505.07445381009603 212.92986752291154, 504.2461592276695 212.76609461567813, 504.22240673989484 211.65679262537063 C504.19865425212015 210.54749063506313, 505.0904024971148 208.17324245166478, 505.9481754840403 207.01316990560903 C506.8059484709658 205.8530973595533, 508.9331477212079 205.06475432011752, 509.36904466144796 204.69635734903622 C509.80494160168803 204.32796037795492, 508.4957884084057 204.9399362673468, 508.56355712548077 204.8027880791213 M509.36447061943534 203.38525476742254 C510.6944786050493 203.50362751571666, 512.8287486202092 204.40896647938757, 513.7491987632272 205.4555132515676 C514.6696489062452 206.50206002374762, 514.7246326253356 208.65990337316316, 514.8871714775433 209.66453540050261 C515.0497103297511 210.66916742784207, 515.2036452248573 210.6382693657674, 514.7244318764737 211.4833054156043 C514.24521852809 212.32834146544118, 512.9863888369237 213.95558565125373, 512.0118913872419 214.73475169952394 C511.0373939375602 215.51391774779415, 509.90459225724 216.30479714271883, 508.87744717838336 216.1583017052255 C507.85030209952674 216.0118062677322, 506.57973001944515 215.27793991939365, 505.849020914102 213.8557790745641 C505.1183118087589 212.43361822973458, 504.5333949482581 209.13760035748908, 504.49319254632474 207.62533663624828 C504.4529901443914 206.11307291500748, 504.70366505484344 205.2214826043191, 505.60780650250183 204.78219674711934 C506.5119479501602 204.34291088991958, 509.29641338431225 205.2453785140042, 509.9180412322751 204.98962149304967 C510.5396690802379 204.73386447209515, 509.31435630175804 203.2782221224539, 509.3375735902789 203.24765462139223" stroke="#000000" stroke-width="1" fill="none"></path></g><g><path d="M350.87520826654605 199.98684207373893 C350.4770968107483 229.46286142856363, 350.47440932641166 257.5276496612624, 349.7652558113611 298.75341863781046 M349.29026271570524 200.59062679631492 C349.5339564887976 222.20631708468179, 348.2256278540298 242.81312107572518, 350.59478247192675 300.5598044706857" stroke="#000000" stroke-width="1.5" fill="none"></path></g><g><path d="M345.60768773400855 290.9535870859403 C347.46144556516003 293.65386717662125, 348.04372417059216 296.76413020926304, 350.0093406485123 299.1847456505017 M345.2651822362546 289.4864169952014 C346.2270760377689 293.0182378256457, 347.7105945956439 295.33153311966316, 349.69409403755776 300.083262924294" stroke="#000000" stroke-width="1.2" fill="none"></path></g><g><path d="M355.8649704496928 289.52633834297797 C353.82874416759137 293.7702030834682, 352.6215956179961 296.2236591600075, 349.26302883015217 299.32919834419107 M355.0428423466136 289.9772832664193 C353.8791594085866 292.9220904907324, 351.68295775462394 295.4686429616824, 349.89273756337445 299.64910442537104" stroke="#000000" stroke-width="1.2" fill="none"></path></g><g><path d="M121.29915587717585 249.92175960478593 C111.84935111861567 251.53137818723485, 99.51510551939907 250.89570491645384, 81.94327711392013 249.65206042055632 M119.5147266542041 249.113518154897 C108.68520218278861 250.869680558149, 97.51900983546906 249.92951930909084, 79.88585943955651 249.674545201259" stroke="undefined" stroke-width="1.5" fill="none"></path></g><g><path d="M90.73079864950654 245.3072776499564 C87.1528223591962 245.5795767535184, 83.88179871275372 247.86553868965225, 79.51634402639965 250.83113773716053 M90.19718917856565 245.48159554604803 C86.64394840841729 246.79394583349278, 84.07288106356773 248.00995124593558, 80.26012603446068 250.2083124957968" stroke="undefined" stroke-width="1.2" fill="none"></path></g><g><path d="M89.89224722690622 253.92057095453293 C88.32286310012738 253.1071409187138, 85.2460070328699 251.82065534133366, 80.5360741392986 249.24930560556447 M90.13844633358067 254.80998776207667 C86.49173753172163 253.52544354438774, 82.78799397111769 252.11256193876625, 80.2775414250108 250.39648092525894" stroke="undefined" stroke-width="1.2" fill="none"></path></g><g><path d="M400.503338984268 331.11482833033074 C400.8116893745828 333.6252220955006, 401.50879630695357 335.21536676947846, 403.20160929232674 339.2656752938888 M399.6039229063699 332.3752071205511 C401.6541406003198 334.42668065438767, 402.4087552900944 336.97156721449636, 403.89237427773315 339.90337043703767" stroke="undefined" stroke-width="1" fill="none"></path></g><g><path d="M403.68630048448097 340.464387486372 C404.81853323297565 337.6638352384307, 405.96360991113636 335.3215396091564, 408.4289605079562 331.8624107026556 M404.1045988302787 339.95145163861287 C405.4913297950729 337.8230268353834, 406.4690798432436 335.92544785390186, 407.8631771704581 331.8513078237496" stroke="undefined" stroke-width="1" fill="none"></path></g><g><path d="M407.8110320188258 332.24873088640953 C405.6791548275498 333.7684335719296, 402.2804273351885 336.00178843780526, 400.5152441967876 337.8566961451107 M408.14979501630097 332.2961938194961 C406.594346855925 332.9843172282488, 404.9317995112069 334.44381589803623, 399.89011270366217 337.40975334991134" stroke="undefined" stroke-width="1" fill="none"></path></g><g><path d="M400.18626011155527 337.7679228639448 C402.16414646193095 337.61721537743944, 405.3051559980898 337.4434841192728, 407.79838256380594 336.4897885559944 M400.24618283213516 337.2714612882517 C402.78583822587836 336.9972127035227, 404.86073425903555 336.9895718788835, 408.2771100462891 337.35216104018144" stroke="undefined" stroke-width="1" fill="none"></path></g><g><path d="M424.9244506888013 332.70089076109736 C426.7555684457371 334.42515871009795, 426.68320498480404 335.07836215064276, 428.4672505887444 340.33136032290093 M424.9010100616294 332.234303896586 C425.96159546138364 334.8689958781989, 427.259442382008 336.39615400198323, 429.3867535870757 340.2773359376011" stroke="undefined" stroke-width="1" fill="none"></path></g><g><path d="M429.7087061276355 339.6954821210889 C431.020422047766 338.1588748323869, 431.17090017228696 336.10133896686006, 433.2808849685007 332.37895165292247 M428.73469662906854 340.3615547832451 C430.38511256876706 337.0603596820292, 431.3651204189192 334.23906944900307, 432.74943153798205 332.0494543388666" stroke="undefined" stroke-width="1" fill="none"></path></g><g><path d="M432.5418316242045 331.80907199354874 C431.1522744167072 333.6402163430749, 428.9942704463919 334.99755283573387, 425.8236348128508 337.5556289800823 M432.8611853138627 331.8433803251483 C430.96892137800097 333.40837682914287, 429.87289229645063 334.5469451913223, 424.7851466380002 336.8926378857127" stroke="undefined" stroke-width="1" fill="none"></path></g><g><path d="M425.2474955580816 336.3337848771781 C426.3487359082833 336.9559423438714, 428.8833462507937 337.0930923173756, 433.12506162086504 336.585976269302 M424.8823516501399 337.0702272238129 C427.23238127022313 337.24304466769354, 429.0886376371593 336.7562876602205, 433.18873720104926 337.0915418945521" stroke="undefined" stroke-width="1" fill="none"></path></g><g><path d="M450.78763933832477 332.72737475873186 C452.0622126478687 334.30860930458954, 452.26489075272 338.27933075592426, 453.50633793086143 340.0325804802455 M449.69595631092795 331.9083935585015 C451.1892327092428 335.46428157767394, 453.23606109270554 337.8423385455628, 453.8177404895925 339.97855969940866" stroke="undefined" stroke-width="1" fill="none"></path></g><g><path d="M453.1711805513138 339.5739847066271 C454.72331038283 336.78828258419736, 457.5254866242701 333.2730966143793, 457.45445533058347 332.04545853277824 M453.91903232417314 339.6531575317708 C455.3999410250459 337.2828621759877, 456.4966043179932 334.96673968957185, 457.67837622588246 331.6390896341644" stroke="undefined" stroke-width="1" fill="none"></path></g><g><path d="M458.3589359615408 331.4300584417406 C454.3262083158354 334.0130679046553, 452.56923433879115 336.01422660785914, 449.23131314848763 337.426137657056 M458.3553787925414 332.4560230477491 C455.5043476840061 333.1772373698923, 452.8697265402322 335.4867844703869, 450.43669777747925 336.6708210931429" stroke="undefined" stroke-width="1" fill="none"></path></g><g><path d="M450.56641743018554 337.21193709998005 C451.5951085278441 336.3708108726858, 453.5938789156393 336.9372390998653, 457.4521842176225 337.64528012272746 M450.1167512516306 336.6630397609616 C451.6790170838354 336.70098741544456, 453.30803778415594 336.58992556577215, 457.6820113989574 337.1352672915383" stroke="undefined" stroke-width="1" fill="none"></path></g><g><path d="M475.7251988868256 332.65688714253326 C476.8050839862028 335.0889354802495, 477.2061503284561 337.18049154491814, 479.35395583971626 340.0495589382813 M475.32938754251586 332.15457293073973 C476.3273605592888 333.6158549914004, 477.36616019082584 335.99863507397083, 478.86607471989106 340.0030032484423" stroke="undefined" stroke-width="1" fill="none"></path></g><g><path d="M478.86638987839683 340.63599045943465 C480.8976802744208 337.5634464969491, 482.11450299180007 335.0705879215013, 482.6029576941515 331.1753265780224 M479.3595878053366 339.67103216579244 C480.37146973197895 337.41668530262274, 481.9062753232997 334.8709771856593, 482.7272122254542 332.07743716784665" stroke="undefined" stroke-width="1" fill="none"></path></g><g><path d="M483.42972700535114 332.37919693115145 C480.1353078527108 333.2705587790171, 476.8998583617206 336.08682320914176, 474.15021243478554 337.87081081394 M483.32982107269413 332.43349700540415 C480.96520047335895 333.6131704439518, 478.00203934292637 335.09130681592933, 474.99131289215535 337.4134560837093" stroke="undefined" stroke-width="1" fill="none"></path></g><g><path d="M475.2967593213917 337.6244529329547 C478.4369896128229 336.80794760054147, 481.7046652984931 337.12436610019654, 482.50493879322494 337.05341166536465 M475.26782403361386 337.1231224843182 C476.7481717361931 337.12070427156846, 478.012959162963 336.9282343646739, 482.92428123870434 337.0572874544243" stroke="undefined" stroke-width="1" fill="none"></path></g><g><path d="M499.51881186150337 331.1165034822261 C500.220418791523 334.5554804357714, 501.6536359442392 336.78254475348933, 504.53566340760585 339.1216659593321 M499.59285252981033 331.7054810774162 C501.48605631724934 333.9932366413711, 501.7299564333227 336.0153246903413, 503.60732526431394 340.05897437882066" stroke="undefined" stroke-width="1" fill="none"></path></g><g><path d="M504.8171107772115 339.34961037132615 C504.7739283122087 337.09925905332386, 506.0535352963365 334.7452666587895, 508.4058347269007 332.7284097508343 M503.6237721156688 339.8071590002808 C505.61001800645533 337.9774415328965, 506.40106046850485 335.2963449169774, 507.69656017890253 332.41828196606315" stroke="undefined" stroke-width="1" fill="none"></path></g><g><path d="M507.17511326635423 331.7960799462437 C505.28523307674254 333.7080128571605, 503.3422830852433 336.33839262454177, 500.63739059846125 336.85894488546364 M508.22592927070025 332.37400875376915 C504.9806980582679 333.78482905720557, 502.48121594748926 335.95609484710985, 500.1520878214446 337.4712095769813" stroke="undefined" stroke-width="1" fill="none"></path></g><g><path d="M499.9041026907067 337.31239689973415 C502.6396619455309 336.4657007178472, 506.19235558953585 336.74087778829727, 508.13663238844924 337.1079319678735 M499.75127493554106 337.15829371654326 C502.09836078618025 337.00259845052545, 503.4587399749404 337.14909885910254, 508.11696698636047 336.93305271491556" stroke="undefined" stroke-width="1" fill="none"></path></g><text x="400" y="560" text-anchor="middle" font-family="sans-serif" font-size="16" fill="#222" font-style="italic">The market can't distinguish quality from junk — so it prices everything as junk.</text></svg>