<?xml version="1.0" encoding="UTF-8"?>
<svg width="800" height="600" viewBox="0 0 800 600" xmlns="http://www.w3.org/2000/svg"><rect width="800" height="600" fill="#FFFFFF"></rect><g><path d="M120.4814308751751 160.11821063686628 C119.66574376803968 229.67749222942234, 120.45203073834568 299.04644164435183, 120.20355267967967 379.72628809963834 M119.95320501337837 159.8587403051785 C120.51946823486237 218.29972311910478, 120.60883939790351 276.33036300787245, 119.98431127078878 380.1879642246662" stroke="#000000" stroke-width="0.5" fill="none"></path></g><g><path d="M200.33949587895103 159.97638326377242 C200.1162456312616 243.32140259214566, 200.2215519171737 325.99864852227887, 200.43805414908283 379.72250203141215 M199.8406108298002 159.9563807730961 C199.5087609482334 207.80424332547096, 199.62135597348734 255.53797779218314, 199.76006707721953 379.79773198688" stroke="#000000" stroke-width="0.5" fill="none"></path></g><g><path d="M279.67708691541475 159.51258681997655 C279.37203711429817 242.01363391036912, 279.4687915952444 323.3919877577504, 279.4962572808744 380.4566483645773 M279.85296789140165 159.88116940562637 C279.9058595672782 216.2650636708169, 279.79457018102255 273.0765320037658, 279.9031356873911 380.04212741694454" stroke="#000000" stroke-width="0.5" fill="none"></path></g><g><path d="M360.2203540320418 160.24997699192758 C360.019908575312 239.64613537212568, 359.48748731570765 319.81971626067997, 360.207782675131 380.4755445994069 M360.18519475122184 160.1284341841001 C360.7275844864157 220.47726667437198, 360.666534815055 281.0759807814569, 360.03680925114764 380.1255720153181" stroke="#000000" stroke-width="0.5" fill="none"></path></g><g><path d="M440.41223515190853 159.7573612597983 C439.8952356501329 214.99102299267605, 440.6723862596467 270.0559547041423, 440.043461190573 379.6924723254447 M439.95708834418224 159.77174686065533 C440.2020320544522 215.1875889780874, 440.2618671624834 270.7204888859533, 440.01030779242035 380.12202245970883" stroke="#000000" stroke-width="0.5" fill="none"></path></g><g><path d="M520.0034380523294 160.30258148826775 C519.581625753174 246.81162211241016, 519.9080351913428 333.74473649830367, 520.4656300882833 379.7390892767297 M519.8111652541082 160.0821522291005 C519.693559517666 239.65508809293127, 519.2267990377521 319.8540815783714, 520.2309425161719 380.23921197704584" stroke="#000000" stroke-width="0.5" fill="none"></path></g><g><path d="M120.10359615391572 179.95064079448696 C247.1888354928655 179.71234073537238, 374.04918785313146 179.71636231356268, 519.8647097478158 180.2477104418713 M120.11610817256542 180.1085522894024 C210.19312674656192 179.46403022067636, 300.72722891872183 179.53763405389586, 519.9668879963999 180.00919586901034" stroke="#000000" stroke-width="0.5" fill="none"></path></g><g><path d="M120.09998563521691 230.00903729130852 C271.32305605302065 230.84570040030653, 422.0468684871861 230.81994478118895, 520.3255884448737 230.1845775744668 M120.07340675459838 229.86084235471745 C235.7206951270694 229.71085019663528, 351.3647390343674 229.60248640768685, 519.9669026292167 229.93334760964044" stroke="#000000" stroke-width="0.5" fill="none"></path></g><g><path d="M120.27199960149754 279.77513179525687 C224.8630908799469 280.3528002591101, 329.1926829036581 280.26053608194036, 520.2561064106932 279.8225649192581 M120.12042728027382 279.867471135129 C241.3764495458499 279.53217108744315, 362.3522170775371 279.58686871574776, 519.8304192083995 279.86464550839185" stroke="#000000" stroke-width="0.5" fill="none"></path></g><g><path d="M120.05224343553613 330.1342550136435 C237.86586636258846 330.7768295087143, 355.850280600367 330.3313930922048, 520.3225047878691 329.67770492137913 M119.83249450253363 329.84503407504087 C236.04908582528915 330.76598709022903, 352.32168274411436 330.554998965865, 520.161322545637 330.0901481120565" stroke="#000000" stroke-width="0.5" fill="none"></path></g><g><path d="M120.23031606865462 380.1500333371145 C268.77339767496744 379.9585895456853, 416.6964982650631 379.6419757548409, 519.8322868101641 379.9305866998952 M119.99787180905786 379.9768480465069 C242.8971528275496 379.3469317544118, 365.7877132270379 379.6430573059181, 520.1611539424551 380.10572256201186" stroke="#000000" stroke-width="0.5" fill="none"></path></g><g><path d="M337.80449802696944 260.5236452757919 C337.80449802696944 260.5236452757919, 337.80449802696944 260.5236452757919, 337.80449802696944 260.5236452757919 M337.80449802696944 260.5236452757919 C337.80449802696944 260.5236452757919, 337.80449802696944 260.5236452757919, 337.80449802696944 260.5236452757919 M336.07103604990743 279.263237845072 C342.70743914608056 272.6548502794892, 349.25775352257006 268.22988145307806, 357.81950148009935 255.8379992624747 M336.8677622915835 278.18808444348156 C343.108556284564 273.9233258264065, 347.4209383498769 269.13363069777796, 356.59894736020465 257.37841071449657 M346.82314185132105 282.6988378440746 C353.95139231499866 277.9252095811144, 359.35005049217324 272.5189087900285, 366.1306718523742 268.4202930928526 M348.5346021172847 283.67649483521114 C351.5657708254933 280.40375036793364, 355.9562238944756 276.12193506490115, 364.14296297329577 265.9134605101597" stroke="none" stroke-width="1.5" fill="none"></path><path d="M347.439050131159 256.0929344485129 C350.4603423564425 255.55604883713596, 355.06471958632847 255.65363452056968, 357.8026123281106 257.15831684521316 C360.5405050698928 258.6629991698567, 362.77154072605583 262.1809099279616, 363.8664065818518 265.12102839637384 C364.9612724376477 268.0611468647861, 365.5236618149767 271.6571620035866, 364.37180746288635 274.79902765568676 C363.219953110796 277.9408933077869, 359.9034102500658 282.381901925602, 356.95528046930957 283.9722223089746 C354.00715068855334 285.5625426923472, 349.9036114660797 285.1389295517713, 346.6830287783489 284.34094995592255 C343.4624460906181 283.5429703600738, 339.72269586017205 281.59478669866104, 337.6317843429245 279.18434473388226 C335.54087282567696 276.7739027691035, 334.14350820913177 272.9484576767703, 334.1375596748637 269.87829816724985 C334.1316111405957 266.8081386577294, 334.885668136797 263.31725811765676, 337.5960931373162 260.76338767675946 C340.3065181378354 258.20951723586217, 347.6291033866088 255.5283531185391, 350.400109677979 254.55507552186597 C353.1711159693492 253.58179792519286, 354.0195739132868 254.63605760098596, 354.22213088553747 254.92372209672075 M343.295780050966 255.96084163799307 C346.27378325883944 254.69390761997704, 352.1147779993633 254.8056668794389, 355.2838663599835 255.81405967618204 C358.4529547206037 256.8224524729252, 360.66949846683093 259.1946436407459, 362.3103102146874 262.0111984184519 C363.9511219625438 264.8277531961579, 365.2850404391835 269.6073011444689, 365.12873684712224 272.71338834241817 C364.972433255061 275.8194755403674, 363.8317891388218 278.6499596808252, 361.37248866231994 280.64772160614734 C358.91318818581806 282.6454835314695, 353.7775992279568 284.4202512691056, 350.37293398811113 284.69995989435097 C346.9682687482655 284.9796685195963, 343.6637231089363 283.9617570478145, 340.9444972232462 282.3259733576193 C338.225271337556 280.69018966742414, 335.0914517687902 278.181071650822, 334.05757867397034 274.88525775318 C333.0237055791505 271.589443855538, 332.9477908692394 265.4014252021718, 334.74125865432705 262.5510899717674 C336.5347264394147 259.70075474136297, 343.27188341406946 258.7004945269603, 344.8183853844964 257.78324637075355 C346.3648873549234 256.8659982145468, 344.31746793749596 256.8561063782593, 344.02027047688887 257.0476010345269" stroke="#4A90D9" stroke-width="3" fill="none"></path></g><g><path d="M344.5867220886204 261.11929073208796 C344.5867220886204 261.11929073208796, 344.5867220886204 261.11929073208796, 344.5867220886204 261.11929073208796 M344.5867220886204 261.11929073208796 C344.5867220886204 261.11929073208796, 344.5867220886204 261.11929073208796, 344.5867220886204 261.11929073208796 M342.04555127268617 275.01427923364713 C346.828089919535 272.5596923276024, 349.1389187698695 268.676473878884, 352.80797259548126 261.87266568711 M342.2833577046483 275.9648876464518 C346.0457958747403 270.17586797081964, 350.89488533563156 266.4752298533331, 354.62584652915393 262.964993839876 M347.74043318233385 280.6833908754231 C355.0443072874703 275.6968420806585, 356.02095831009 272.26830424018544, 361.86935108732166 265.55897691435155 M348.6918167725154 280.77272400225615 C354.5359825092891 275.716721512377, 357.58483804282315 268.8915693275357, 361.4716562043371 267.12913247047334" stroke="none" stroke-width="1" fill="none"></path><path d="M351.34795355209565 259.7551534675941 C353.5090974639191 259.87194250006934, 355.65056677710965 261.55106535006996, 357.1118097784831 263.14608291134596 C358.5730527798566 264.74110047262195, 360.11191678346535 267.03329583362927, 360.11541156033655 269.3252588352501 C360.11890633720776 271.61722183687095, 358.4311830419839 275.09314557042484, 357.13277843971025 276.897860921071 C355.8343738374366 278.7025762717172, 354.17567301381627 279.9365844467913, 352.32498394669466 280.1535509391271 C350.47429487957305 280.37051743146293, 347.96428651187387 279.34834047123815, 346.02864403698055 278.1996598750859 C344.09300156208724 277.05097927893365, 341.6395674080147 275.19674359075896, 340.71112909733495 273.2614673622136 C339.78269078665517 271.3261911336682, 339.8245757619129 268.5973261886859, 340.4580141729017 266.5880025038135 C341.0914525838905 264.57867881894117, 342.4131619183418 262.09822070321985, 344.5117595632677 261.20552525297927 C346.61035720819353 260.3128298027387, 351.6229694874468 261.2065886758549, 353.049600042457 261.2318298023701 C354.4762305974671 261.2570709288853, 353.3400012780904 261.27124637376653, 353.0715428933286 261.35697201207046 M345.008869035652 261.7457219540381 C346.874460926471 260.8262492763134, 352.2236857648543 258.9412993142834, 354.2609927012182 259.5181841078999 C356.2982996375821 260.0950689015164, 356.50525156535963 263.4078969703485, 357.23271065383557 265.2070307157372 C357.9601697423115 267.0061644611259, 358.6731150705444 268.519015861476, 358.6257472320738 270.31298658023223 C358.57837939360326 272.10695729898845, 358.22155403585003 274.19302125076365, 356.94850362301213 275.97085502827434 C355.6754532101742 277.74868880578504, 353.30403161231936 280.8990938030683, 350.9874447550464 280.97998924529645 C348.67085789777343 281.0608846875246, 345.05488504798734 278.195180927421, 343.0489824793744 276.4562276816433 C341.04307991076143 274.71727443586565, 339.1236169275675 272.64726882133596, 338.9520293433687 270.5462697706305 C338.78044175916983 268.445270719925, 340.87016716745677 265.31870852849715, 342.01945697418125 263.8502333774104 C343.16874678090574 262.38175822632365, 345.34492162117294 262.1976133775304, 345.8477681837156 261.7354188641101 C346.3506147462582 261.2732243506898, 344.7540717755764 260.977273954452, 345.03653634943703 261.0770662968886" stroke="#4A90D9" stroke-width="2" fill="none"></path></g><g><path d="M347.01014956154313 268.5259960677545 C347.01014956154313 268.5259960677545, 347.01014956154313 268.5259960677545, 347.01014956154313 268.5259960677545 M347.01014956154313 268.5259960677545 C347.01014956154313 268.5259960677545, 347.01014956154313 268.5259960677545, 347.01014956154313 268.5259960677545" stroke="none" stroke-width="1.25" fill="none"></path><path d="M351.18794928442276 266.28634825571663 C351.9614733603312 266.2031072425041, 352.21462137402386 266.9760521007673, 352.5752945636336 267.5410517071293 C352.9359677532433 268.1060513134914, 353.49208759602675 268.9708174316538, 353.35198842208086 269.6763458938888 C353.211889248135 270.38187435612383, 352.1333074471946 271.24273366334313, 351.73469951995827 271.77422248053944 C351.3360915927219 272.30571129773574, 351.6264420534026 272.88650810397996, 350.9603408586629 272.86527879706665 C350.2942396639232 272.84404949015334, 348.346517032316 271.807435510305, 347.7380923515198 271.64684663905945 C347.1296676707236 271.48625776781387, 347.46891489052814 272.3784053402438, 347.3097927738856 271.90174556959306 C347.15067065724304 271.42508579894235, 346.5681319520646 269.5203685119208, 346.7833596516646 268.78688801515517 C346.99858735126463 268.0534075183895, 347.9927225571982 267.8526908148242, 348.60115897148546 267.50086258899904 C349.20959538577273 267.1490343631739, 349.97590283479406 266.7850367988851, 350.4339781373881 266.6759186602041 C350.8920534399822 266.56680052152313, 351.1181122974921 266.7432183379466, 351.34961078704976 266.84615375691317 M348.1670871086541 267.0785600866637 C348.7594893560589 266.6485514535428, 350.6348098057049 266.7423441422836, 351.40841080587313 267.1757496799313 C352.1820118060414 267.609155217579, 352.5524868900512 269.1699359133813, 352.80869310966364 269.6789933125496 C353.06489932927605 270.1880507117179, 353.1455804147478 269.8195005017782, 352.9456481235476 270.2300940749409 C352.74571583234734 270.6406876481036, 352.0653808612545 271.8599733735696, 351.60909936246213 272.1425547515258 C351.1528178636698 272.425136129482, 351.0343965305365 271.89381903843463, 350.20795913079354 271.9255823426781 C349.38152173105055 271.9573456469216, 347.3004301001514 272.45969393774186, 346.6504749640043 272.3331345769868 C346.00051982785715 272.2065752162318, 346.1505186732925 271.7162637400889, 346.30822831391083 271.166226178148 C346.4659379545292 270.6161886162071, 347.13706683327433 269.54820937290026, 347.59673280771426 269.03290920534147 C348.0563987821542 268.5176090377827, 348.76534336805315 268.5551404736637, 349.0662241605504 268.0744251727953 C349.36710495304766 267.59370987192693, 349.455312973767 266.18331255714514, 349.4020175626977 266.1486174001313" stroke="#4A90D9" stroke-width="2.5" fill="none"></path></g><g><path d="M155.2068057947839 187.91973763017677 C155.2068057947839 187.91973763017677, 155.2068057947839 187.91973763017677, 155.2068057947839 187.91973763017677 M155.2068057947839 187.91973763017677 C155.2068057947839 187.91973763017677, 155.2068057947839 187.91973763017677, 155.2068057947839 187.91973763017677 M157.83006749165295 194.68019893578958 C159.3052642270515 191.29646489306427, 162.90612010660308 189.10566151217367, 164.95372563000623 187.36110611623707 M157.5793521421754 194.52812133898507 C159.1263985837853 192.1635208886992, 160.3081491905967 190.7471064740844, 164.00856376275433 186.20872859228072" stroke="none" stroke-width="0.7" fill="none"></path><path d="M160.85938653042476 184.87159874243574 C161.65609834534368 184.81048949377015, 163.24318012091618 185.32802104093443, 163.81269527959043 186.1167985516229 C164.38221043826468 186.90557606231138, 164.26965208987065 188.26344958280038, 164.27647748247026 189.60426380656656 C164.28330287506986 190.94507803033275, 164.41776967261472 193.34252469240022, 163.85364763518817 194.16168389421995 C163.2895255977616 194.98084309603968, 161.96996011807357 194.5112637372121, 160.891745257911 194.51921901748491 C159.81353039774842 194.52717429775774, 158.404212540691 194.84770749853269, 157.38435847421263 194.20941557585695 C156.36450440773427 193.57112365318122, 155.1183574318646 191.75752067635884, 154.77262085904076 190.6894674814305 C154.4268842862169 189.6214142865022, 154.934350185572 188.56453804352452, 155.30993903726952 187.80109640628706 C155.68552788896704 187.0376547690496, 155.74763954303106 186.6270104050654, 157.02615396922596 186.10881765800568 C158.30466839542086 185.59062491094596, 161.9373200856677 184.89084417983858, 162.98102559443888 184.69193992392874 C164.02473110321006 184.4930356680189, 163.54657536282832 184.9183553185963, 163.28838702185305 184.91539212254662 M161.17920370634462 184.18784003256604 C161.86285096912576 184.12429325401817, 161.60799365660444 186.1594185039573, 162.24894277334667 186.91423046817505 C162.8898918900889 187.66904243239279, 164.74863043755676 187.94663992367416, 165.02489840679794 188.7167118178724 C165.30116637603913 189.48678371207066, 164.51899882719522 190.39321922537562, 163.90655058879372 191.53466183336462 C163.29410235039222 192.67610444135363, 162.26267317815967 195.16441431141544, 161.35020897638896 195.56536746580642 C160.43774477461824 195.9663206201974, 159.57395736739656 194.59979447025825, 158.43176537816942 193.94038075971042 C157.28957338894227 193.2809670491626, 154.85492998748978 192.6676256515688, 154.49705704102615 191.60888520251953 C154.13918409456252 190.55014475347025, 156.01011768842199 188.75755827263663, 156.2845276993876 187.58793806541473 C156.55893771035323 186.41831785819284, 155.26721411721107 184.87089717454882, 156.14351710681993 184.59116395918807 C157.0198200964288 184.31143074382732, 160.7071675392528 185.89268667787437, 161.54234563704074 185.9095387732503 C162.37752373482869 185.9263908686262, 161.45810814803883 184.83105774194604, 161.15458569354752 184.69227653144358" stroke="#000000" stroke-width="1.4" fill="none"></path></g><g><path d="M169.46458738804273 200.86352743693715 C225.14388564453282 217.93355501318354, 278.0963383801026 233.73935033532004, 325.2340602118786 249.5633606231101 M170.44967350229726 200.11047169943313 C222.94823063028394 216.59584552092718, 274.52786937165564 233.52181751028297, 324.64149571780194 249.81661016703808" stroke="#000000" stroke-width="1.2" fill="none"></path></g><g><path d="M497.1286790686661 347.3465361281667 C497.1286790686661 347.3465361281667, 497.1286790686661 347.3465361281667, 497.1286790686661 347.3465361281667 M497.1286790686661 347.3465361281667 C497.1286790686661 347.3465361281667, 497.1286790686661 347.3465361281667, 497.1286790686661 347.3465361281667 M498.51866957278446 355.80708694027555 C499.9683505791941 352.777920049716, 503.5480094914229 349.74376805842, 505.00538452466935 347.528704920775 M498.6782105884536 355.33516577176823 C500.37094281842894 352.71786480796897, 501.9483680940885 350.74793256893406, 504.5359620510756 348.20630758034065" stroke="none" stroke-width="0.7" fill="none"></path><path d="M499.98248563234233 344.1764536235776 C501.155856255859 343.93280511600767, 502.27134772181324 345.121444036666, 503.14739935693285 345.9294108717456 C504.02345099205246 346.73737770682516, 505.1206854779628 348.2207437760721, 505.23879544306 349.0242546340552 C505.35690540815716 349.8277654920383, 504.2652033507289 349.82609373406996, 503.8560591475158 350.7504760196441 C503.4469149443027 351.67485830521827, 503.3985194378666 353.82209437268284, 502.7839302237815 354.57054834750005 C502.16934100969644 355.31900232231726, 501.28485725631623 355.44364087427704, 500.16852386300525 355.2411998685474 C499.05219046969427 355.0387588628178, 496.84536991036384 354.2089069398034, 496.08592986391574 353.35590231312244 C495.32648981746763 352.5028976864415, 495.47030514590836 351.0876762116762, 495.61188358431656 350.1231721084617 C495.75346202272476 349.1586680052472, 496.2829581704046 348.44078320204227, 496.93540049436496 347.56887769383553 C497.5878428183253 346.6969721856288, 499.1336078455204 345.3041056985901, 499.52653752807873 344.89173905922115 C499.9194672106371 344.4793724198522, 499.4173837377377 345.0862749448994, 499.2929785897151 345.09467785762183 M499.7331454423897 345.3525853881327 C500.5932966072173 345.033794684367, 500.22805727613945 345.36881898307576, 501.19375420735923 345.8340425564159 C502.159451138579 346.29926612975606, 504.90147214685686 347.28034620081485, 505.5273270297085 348.1439268281735 C506.1531819125601 349.00750745553216, 505.6211816968639 350.1918539765153, 504.94888350446894 351.0155263205679 C504.27658531207396 351.83919866462054, 502.4837781261496 352.5259067056874, 501.4935378753386 353.0859608924891 C500.50329762452753 353.64601507929075, 499.76911595582334 354.41692467693593, 499.00744199960263 354.37585144137785 C498.24576804338193 354.33477820581976, 497.4125204498598 353.5998122027853, 496.92349413801446 352.83952147914056 C496.4344678261691 352.0792307554958, 496.37979908778766 350.80240321354165, 496.0732841285307 349.81410709950956 C495.76676916927374 348.82581098547746, 494.72533601010787 347.9219173954408, 495.0844043824728 346.90974479494804 C495.4434727548378 345.8975721944553, 497.39438386046965 344.2280016714664, 498.22769436272057 343.741071496553 C499.0610048649715 343.25414132163957, 500.2027531430851 343.6735721987719, 500.0842673959784 343.9881637454674" stroke="#000000" stroke-width="1.4" fill="none"></path></g><g><path d="M490.08972846873115 339.602179208377 C462.299537795173 328.10528041343963, 432.6977168340612 315.2074346713722, 375.01155820086905 289.5000996043101 M489.8810971803086 339.6158424988162 C454.35718264954653 325.1712554697875, 419.7009664955297 309.50850560885715, 375.3628079371189 290.1471082470732" stroke="#000000" stroke-width="1.2" fill="none"></path></g><g><path d="M343.6139959902385 208.5982060946332 C343.6139959902385 208.5982060946332, 343.6139959902385 208.5982060946332, 343.6139959902385 208.5982060946332 M343.6139959902385 208.5982060946332 C343.6139959902385 208.5982060946332, 343.6139959902385 208.5982060946332, 343.6139959902385 208.5982060946332 M340.95755648459203 217.98165832387176 C343.8577626769317 216.98491751008606, 349.8630289702072 212.86417036144923, 352.4460453689528 206.96211302095386 M342.52432834488116 219.27065967039073 C345.33136652502264 215.91114298864935, 348.7200532317868 212.17735250117533, 352.2889219224976 206.70392480607825 M347.6615578797337 223.7344527241153 C349.8820579331046 221.79045397275223, 350.3610073496245 216.1295534406207, 358.89943950002856 211.17653630898047 M345.9750524727034 224.09432598129882 C349.7501737692631 220.29820882150022, 351.9525929892531 216.66973000192584, 358.0633622315352 210.1887072994248 M354.0444190389348 224.3762553839488 C355.95856465803723 222.4783815387573, 357.9106190252258 220.72318301505152, 359.54562605551644 218.27387321715588 M354.13337651931215 224.5272149204247 C355.0400047423901 222.16236987738563, 357.09432623947185 220.8783355978879, 359.8237336010985 217.09082359616391" stroke="none" stroke-width="0.75" fill="none"></path><path d="M350.3730449846735 205.55426525105008 C352.2805853729784 205.68193309278993, 354.80988060863007 207.22630763889018, 356.4462857714305 208.70840075079838 C358.0826909342309 210.19049386270657, 359.7963684728923 212.7178610235029, 360.191475961476 214.44682392249928 C360.58658345005966 216.17578682149565, 359.9018383178748 217.48691202854002, 358.8169307029326 219.08217814477652 C357.7320230879904 220.67744426101302, 355.6389223082847 223.33799799325072, 353.68203027182267 224.01842061991823 C351.72513823536065 224.69884324658574, 349.01184793383254 223.79371423765014, 347.0755784841605 223.1647139047815 C345.1393090344884 222.53571357191288, 343.11910105360704 221.72876312356686, 342.0644135737902 220.24441862270638 C341.00972609397337 218.7600741218459, 340.5328462366908 216.14946141501102, 340.74745360525935 214.2586468996186 C340.96206097382793 212.3678323842262, 341.3968228741603 210.1024351767167, 343.35205778520157 208.8995315303519 C345.3072926962428 207.6966278839871, 350.71232719261553 207.33882288166404, 352.4788630715068 207.04122502142982 C354.24539895039806 206.7436271611956, 354.2078432192413 207.19819705680237, 353.9512730585491 207.11394436894665 M347.5787908311104 205.44210210698 C349.4885629441382 204.64913079651546, 352.68895462405004 204.48316661791188, 354.2152178408733 205.36042403824888 C355.7414810576966 206.23768145858588, 355.7636717936725 208.8921125005806, 356.7363701320502 210.70564662900196 C357.7090684704279 212.51918075742333, 360.1481838241949 214.47357126016084, 360.0514078711397 216.24162880877702 C359.9546319180845 218.0096863573932, 357.6144297894363 219.80092215280234, 356.155714413719 221.313991920699 C354.6969990380017 222.82706168859568, 353.16137074269716 225.38137468705534, 351.2991156168359 225.3200474161571 C349.4368604909746 225.25872014525888, 346.51020871206754 222.4472580275446, 344.98218365855115 220.94602829530965 C343.45415860503476 219.4447985630747, 342.78895029937127 218.26068522429566, 342.1309652957374 216.3126690227475 C341.4729802921035 214.36465282119937, 340.2322185220858 211.12779201757698, 341.0342736367478 209.25793108602082 C341.8363287514098 207.38807015446466, 345.8785347693855 205.72572052074605, 346.94329598370933 205.09350343341052 C348.00805719803316 204.46128634607498, 347.32913816443454 204.89994886606775, 347.42284092269085 205.46462856200762" stroke="#000000" stroke-width="1.5" fill="none"></path></g><g><path d="M349.25377748935205 215.15800173601156 C350.07771798306254 212.31390361965384, 350.5458790671455 210.69987106369112, 350.08318954158125 204.49765294353247 M350.11853229911776 214.8307054291312 C349.50466243462364 212.36592394914354, 349.5341817437595 209.63826900127717, 350.2065492123181 205.2197919097551" stroke="#000000" stroke-width="1.2" fill="none"></path></g><g><path d="M349.7433843602139 215.12001401326106 C352.76096429355715 215.32815736125954, 355.077038026249 215.4370435498891, 358.49815522537 215.2179940955254 M349.6341064788467 214.91940739136658 C351.91886092537334 215.258332513199, 354.1879013397257 215.40613157880827, 357.60173119192586 214.7910403049344" stroke="#000000" stroke-width="1.2" fill="none"></path></g><g><path d="M522.2917731583713 175.76858307384285 C522.2917731583713 175.76858307384285, 522.2917731583713 175.76858307384285, 522.2917731583713 175.76858307384285 M522.2917731583713 175.76858307384285 C522.2917731583713 175.76858307384285, 522.2917731583713 175.76858307384285, 522.2917731583713 175.76858307384285 M524.0119571908393 183.70429084325554 C526.1901872484373 180.87050321642727, 530.9384188844709 177.18184476330737, 533.9099058968765 174.86820719165027 M524.3948402283314 183.96708958897793 C526.0800480415699 181.49402709146824, 528.5138716655704 178.16524841509093, 533.4948274405806 173.08542715060446 M530.6863632436659 188.2901483640031 C533.9475532941806 184.47097431032742, 535.18022593298 182.5148884023625, 539.1634019955325 179.1062812022982 M530.957877449431 187.23517109095246 C533.0030103155208 185.52952004185704, 534.3028828907713 183.7092654955091, 537.5799560019221 178.8366083197476" stroke="none" stroke-width="0.9" fill="none"></path><path d="M531.7735398545254 172.1889090767376 C533.2892392872417 172.5382559791248, 535.2257221378284 174.63979140159182, 536.4154904135798 176.1098685006361 C537.6052586893313 177.5799455996804, 539.1185938820724 179.44275471166281, 538.912149509034 181.0093716710034 C538.7057051359955 182.575988630344, 536.5196192799315 184.50037492199365, 535.1768241753491 185.50957025667958 C533.8340290707667 186.5187655913655, 532.5547523505522 187.0483673225144, 530.8553788815394 187.06454367911894 C529.1560054125266 187.0807200357235, 526.3635742856563 186.3076415548258, 524.980583361272 185.60662839630683 C523.5975924368877 184.90561523778786, 523.0073157373089 184.49612883117516, 522.5574333352333 182.85846472800517 C522.1075509331578 181.2208006248352, 521.757343898031 177.55967954877482, 522.2812889488187 175.78064377728685 C522.8052339996063 174.0016080057989, 523.8806433753527 172.5553697265532, 525.7011036399596 172.18425009907742 C527.5215639045664 171.81313047160162, 531.964463526135 173.30464582320445, 533.2040505364597 173.55392601243213 C534.4436375467844 173.8032062016598, 533.4333908551907 173.59237856551061, 533.1386257019082 173.67993123444356 M532.0839458501785 172.51335996354203 C533.6060169068237 173.29231280437972, 537.3440593595898 175.4615071095655, 538.3054133866444 176.95994933826108 C539.2667674136991 178.45839156695666, 538.4457239065143 180.18563999070943, 537.8520700125065 181.50401333571557 C537.2584161184986 182.8223866807217, 536.1793156289982 183.71525506543838, 534.7434900225977 184.8701894082979 C533.3076644161972 186.02512375115742, 531.0301523241519 188.0914606268217, 529.2371163741033 188.4336193928727 C527.4440804240546 188.7757781589237, 524.9754186564544 188.2582684205046, 523.9852743223058 186.92314200460385 C522.9951299881573 185.5880155887031, 523.2389254603507 182.31702423819434, 523.2962503692122 180.4228608974681 C523.3535752780737 178.52869755674186, 523.8675159730985 176.80404776362965, 524.3292237754745 175.55816196024642 C524.7909315778504 174.3122761568632, 524.7293693126054 173.26476729729117, 526.0664971834677 172.94754607716877 C527.4036250543301 172.63032485704636, 530.9997236057948 173.49209954963285, 532.3519910006487 173.65483463951196 C533.7042583955026 173.81756972939107, 534.2323081020455 174.11829075515192, 534.1801015525909 173.92395661644346" stroke="#4A90D9" stroke-width="1.8" fill="none"></path></g><g><path d="M529.8021518802133 168.17985074220897 C529.5649770593011 178.6832972139676, 529.7851862213105 186.77539260438937, 531.9340312158282 190.79355782283062 M529.4190571123368 169.26471006045804 C529.7481650444142 175.12257447672752, 529.158378632958 180.944613229058, 530.4196820648169 190.69997832684894" stroke="#4A90D9" stroke-width="1.5" fill="none"></path></g><g><path d="M524.7987606785289 173.8181513623217 C529.0619953624431 173.1081208357573, 531.3825392005907 173.563699593879, 534.3727444663581 173.28265866837822 M524.677733316031 173.5246582667742 C526.7383611302694 174.22889700677266, 529.2251904923396 173.92725715808422, 535.4806995249229 173.97737657608943" stroke="#4A90D9" stroke-width="1.2" fill="none"></path></g><g><path d="M524.3719328406032 186.54517390389364 C528.9560384201014 186.57345734013856, 532.3055395646387 185.51575921632968, 534.8423273081568 185.10339555635596 M524.6179234572983 185.6684457010142 C527.3306312878586 185.7659684638099, 530.3185999301941 186.2513553422982, 534.5548988725994 185.76135513797047" stroke="#4A90D9" stroke-width="1.2" fill="none"></path></g><text x="400" y="560" text-anchor="middle" font-family="sans-serif" font-size="16" fill="#222" font-style="italic">The solution isn't the best option — it's the most obvious one.</text></svg>